<svg width="87" height="110" viewBox="0 0 87 110" fill="none" xmlns="http://www.w3.org/2000/svg">
<path d="M67.8466 76.3115H18.5116C11.9869 80.9869 5.27763 93.3349 5.84187 103.537C6.11886 108.523 7.0832 113.175 12.3426 114.142C16.4838 114.9 18.7407 113.103 19.5512 111.561C19.6332 111.401 19.8795 111.455 19.8966 111.633C20.4095 117.491 21.7603 122.334 23.7984 127.067C26.7358 133.882 29.1945 133.879 33.1339 133.882C36.8511 133.882 41.3924 133.882 41.2795 120.106C41.9942 120.225 42.4969 120.287 43.1774 120.287C43.8579 120.287 44.3606 120.225 45.0753 120.106C44.9625 133.882 49.5037 133.886 53.2209 133.882C57.1603 133.882 59.619 133.882 62.5565 127.067C64.598 122.334 65.9453 117.491 66.4583 111.633C66.4754 111.455 66.7181 111.401 66.8036 111.561C67.6141 113.103 69.871 114.904 74.0122 114.142C79.2716 113.178 80.2359 108.523 80.5129 103.537C81.0806 93.3349 74.3679 80.9869 67.8432 76.3115H67.8466Z" fill="#8FD6FF"/>
<path d="M43.1864 114.62C49.7399 114.62 55.0526 109.179 55.0526 102.467C55.0526 95.7552 49.7399 90.314 43.1864 90.314C36.633 90.314 31.3203 95.7552 31.3203 102.467C31.3203 109.179 36.633 114.62 43.1864 114.62Z" fill="#D9F1FF"/>
<path d="M19.668 111.479C19.4047 111.479 19.179 111.278 19.1585 111.008C18.3412 101.042 20.7965 94.2202 20.8991 93.9332C20.9983 93.6666 21.2923 93.5299 21.5557 93.629C21.8224 93.7281 21.9592 94.022 21.86 94.2852C21.8361 94.3535 19.3808 101.196 20.1775 110.922C20.2015 111.206 19.9895 111.452 19.7091 111.476C19.6954 111.476 19.6817 111.476 19.668 111.476V111.479Z" fill="#72BAE3"/>
<path d="M66.6891 111.48C66.6891 111.48 66.6618 111.48 66.6481 111.48C66.3643 111.456 66.1557 111.21 66.1796 110.926C66.9798 101.186 64.5211 94.357 64.4972 94.2887C64.398 94.0221 64.5348 93.7282 64.8015 93.6325C65.0682 93.5368 65.3623 93.6701 65.4581 93.9367C65.5641 94.2203 68.016 101.045 67.1987 111.011C67.1782 111.278 66.9525 111.483 66.6891 111.483V111.48Z" fill="#72BAE3"/>
<path d="M43.1832 4.58154C76.5622 4.58154 88.5719 29.5237 85.802 50.9354C83.2612 70.5768 64.6071 81.8892 43.1832 81.8892C21.7592 81.8892 3.10508 70.5802 0.564294 50.9354C-2.20561 29.5237 12.0679 4.58154 43.1832 4.58154Z" fill="#8FD6FF"/>
<path d="M4.6323 26.8989C-2.54209 20.4942 -0.84595 7.34982 6.04119 2.73939C12.9352 -1.87447 21.0636 -1.02347 25.9161 8.08804" fill="#8FD6FF"/>
<path d="M81.7213 26.8989C88.8957 20.4942 87.1995 7.34982 80.3124 2.73939C73.4184 -1.87447 65.29 -1.02347 60.4375 8.08804" fill="#8FD6FF"/>
<path d="M43.1785 68.7482C51.0163 68.7482 56.2655 64.7325 57.3632 59.0113C58.4609 53.2867 54.1487 48.4541 43.1785 48.4541C32.2083 48.4541 27.8962 53.2867 28.9939 59.0113C30.0916 64.7359 35.3407 68.7482 43.1785 68.7482Z" fill="#E0F6FF"/>
<path d="M43.1718 46.6226C45.1279 46.6226 47.3609 47.248 46.7351 48.9124C46.1059 50.5768 44.0815 52.1011 43.1718 52.1011C42.2622 52.1011 40.1694 50.505 39.6086 48.9124C39.0512 47.248 41.2158 46.6226 43.1718 46.6226Z" fill="#282828"/>
<path d="M27.7332 48.8098C30.2398 48.8098 32.3258 46.8412 32.3258 44.4557C32.3258 42.0701 30.2398 40.1016 27.7332 40.1016C25.2266 40.1016 23.1406 42.0701 23.1406 44.4557C23.1406 46.8412 25.2266 48.8098 27.7332 48.8098Z" fill="#282828"/>
<path d="M58.5965 48.8098C61.1031 48.8098 63.189 46.8412 63.189 44.4557C63.189 42.0701 61.1031 40.1016 58.5965 40.1016C56.0899 40.1016 54.0039 42.0701 54.0039 44.4557C54.0039 46.8412 56.0899 48.8098 58.5965 48.8098Z" fill="#282828"/>
<path d="M43.183 59.1858C42.7111 59.1858 42.3281 58.803 42.3281 58.3314V51.7592C42.3281 51.2876 42.7111 50.9048 43.183 50.9048C43.6549 50.9048 44.0379 51.2876 44.0379 51.7592V58.3314C44.0379 58.803 43.6549 59.1858 43.183 59.1858Z" fill="#282828"/>
<path d="M43.1808 59.2064C40.4588 59.2064 37.7949 58.393 35.6781 56.92C35.2917 56.65 35.196 56.1169 35.4661 55.7307C35.7363 55.3445 36.2697 55.2488 36.6561 55.5188C38.4856 56.7935 40.8042 57.4976 43.1808 57.4976C45.5574 57.4976 47.8725 56.7935 49.7055 55.5188C50.0919 55.2488 50.6253 55.3445 50.8955 55.7307C51.1656 56.1169 51.0699 56.65 50.6835 56.92C48.5667 58.393 45.9028 59.2064 43.1808 59.2064Z" fill="#282828"/>
</svg>
