<svg width="42" height="51" viewBox="0 0 42 51" fill="none" xmlns="http://www.w3.org/2000/svg">
<g filter="url(#filter0_d_1809_13696)">
<path d="M30.5776 29.0885H11.8029C9.31995 30.8679 6.76669 35.5676 6.98141 39.4503C7.08682 41.3481 7.45381 43.1184 9.45529 43.4866C11.0312 43.7753 11.8901 43.0911 12.1986 42.5045C12.2298 42.4434 12.3235 42.4642 12.33 42.5318C12.5252 44.7613 13.0392 46.6045 13.8148 48.406C14.9327 50.9997 15.8684 50.9984 17.3675 50.9997C18.7821 50.9997 20.5103 50.9997 20.4674 45.7564C20.7394 45.8019 20.9307 45.8253 21.1896 45.8253C21.4486 45.8253 21.6399 45.8019 21.9119 45.7564C21.8689 50.9997 23.5971 51.001 25.0117 50.9997C26.5109 50.9997 27.4465 50.9997 28.5644 48.406C29.3413 46.6045 29.8541 44.7613 30.0493 42.5318C30.0558 42.4642 30.1482 42.4434 30.1807 42.5045C30.4891 43.0911 31.348 43.7766 32.924 43.4866C34.9254 43.1197 35.2924 41.3481 35.3978 39.4503C35.6139 35.5676 33.0593 30.8679 30.5763 29.0885H30.5776Z" fill="#8FD6FF"/>
<path d="M21.1915 43.6687C23.6854 43.6687 25.7072 41.5978 25.7072 39.0432C25.7072 36.4886 23.6854 34.4177 21.1915 34.4177C18.6975 34.4177 16.6758 36.4886 16.6758 39.0432C16.6758 41.5978 18.6975 43.6687 21.1915 43.6687Z" fill="#D9F1FF"/>
<path d="M12.2416 42.4733C12.1414 42.4733 12.0555 42.3965 12.0477 42.2937C11.7366 38.5007 12.671 35.9044 12.7101 35.7952C12.7478 35.6937 12.8597 35.6417 12.9599 35.6794C13.0614 35.7171 13.1135 35.829 13.0757 35.9292C13.0666 35.9552 12.1323 38.5593 12.4355 42.2612C12.4446 42.3692 12.3639 42.4628 12.2572 42.472C12.252 42.472 12.2468 42.472 12.2416 42.472V42.4733Z" fill="#72BAE3"/>
<path d="M30.1355 42.4733C30.1355 42.4733 30.1251 42.4733 30.1199 42.4733C30.0119 42.4642 29.9325 42.3705 29.9416 42.2625C30.2461 38.5554 29.3105 35.9565 29.3014 35.9305C29.2636 35.829 29.3157 35.7171 29.4172 35.6807C29.5187 35.6443 29.6306 35.695 29.667 35.7965C29.7074 35.9044 30.6405 38.5021 30.3294 42.2951C30.3216 42.3965 30.2357 42.4746 30.1355 42.4746V42.4733Z" fill="#72BAE3"/>
<path d="M21.1911 1.78821C33.8936 1.78821 38.464 11.2811 37.4099 19.4303C36.443 26.9058 29.3441 31.2113 21.1911 31.2113C13.0381 31.2113 5.93918 26.9071 4.97228 19.4303C3.91818 11.2811 9.35004 1.78821 21.1911 1.78821Z" fill="#8FD6FF"/>
<path d="M6.52066 10.2822C3.79041 7.84458 4.43588 2.84188 7.05681 1.08716C9.68035 -0.668861 12.7737 -0.344973 14.6203 3.12284" fill="#8FD6FF"/>
<path d="M35.8575 10.2822C38.5877 7.84458 37.9422 2.84188 35.3213 1.08716C32.6978 -0.668861 29.6044 -0.344973 27.7578 3.12284" fill="#8FD6FF"/>
<path d="M21.1877 26.21C24.1704 26.21 26.168 24.6816 26.5857 22.5041C27.0034 20.3254 25.3624 18.4861 21.1877 18.4861C17.0129 18.4861 15.3719 20.3254 15.7896 22.5041C16.2074 24.6829 18.205 26.21 21.1877 26.21Z" fill="#E0F6FF"/>
<path d="M21.1868 17.7888C21.9312 17.7888 22.7809 18.0269 22.5428 18.6603C22.3033 19.2938 21.5329 19.8739 21.1868 19.8739C20.8406 19.8739 20.0442 19.2665 19.8308 18.6603C19.6186 18.0269 20.4424 17.7888 21.1868 17.7888Z" fill="#282828"/>
<path d="M15.3102 18.6213C16.2641 18.6213 17.0579 17.8721 17.0579 16.9642C17.0579 16.0562 16.2641 15.307 15.3102 15.307C14.3563 15.307 13.5625 16.0562 13.5625 16.9642C13.5625 17.8721 14.3563 18.6213 15.3102 18.6213Z" fill="#282828"/>
<path d="M27.0563 18.6213C28.0102 18.6213 28.804 17.8721 28.804 16.9642C28.804 16.0562 28.0102 15.307 27.0563 15.307C26.1024 15.307 25.3086 16.0562 25.3086 16.9642C25.3086 17.8721 26.1024 18.6213 27.0563 18.6213Z" fill="#282828"/>
<path d="M21.1886 22.5704C21.009 22.5704 20.8633 22.4247 20.8633 22.2452V19.7439C20.8633 19.5644 21.009 19.4187 21.1886 19.4187C21.3682 19.4187 21.514 19.5644 21.514 19.7439V22.2452C21.514 22.4247 21.3682 22.5704 21.1886 22.5704Z" fill="#282828"/>
<path d="M21.1896 22.5783C20.1538 22.5783 19.14 22.2687 18.3345 21.7081C18.1874 21.6053 18.151 21.4024 18.2538 21.2554C18.3566 21.1084 18.5596 21.072 18.7066 21.1748C19.4029 21.6599 20.2852 21.9279 21.1896 21.9279C22.0941 21.9279 22.9751 21.6599 23.6726 21.1748C23.8197 21.072 24.0227 21.1084 24.1255 21.2554C24.2283 21.4024 24.1919 21.6053 24.0448 21.7081C23.2393 22.2687 22.2255 22.5783 21.1896 22.5783Z" fill="#282828"/>
</g>
<defs>
<filter id="filter0_d_1809_13696" x="0.757812" y="0.0445557" width="40.8633" height="58.9552" filterUnits="userSpaceOnUse" color-interpolation-filters="sRGB">
<feFlood flood-opacity="0" result="BackgroundImageFix"/>
<feColorMatrix in="SourceAlpha" type="matrix" values="0 0 0 0 0 0 0 0 0 0 0 0 0 0 0 0 0 0 127 0" result="hardAlpha"/>
<feOffset dy="4"/>
<feGaussianBlur stdDeviation="2"/>
<feComposite in2="hardAlpha" operator="out"/>
<feColorMatrix type="matrix" values="0 0 0 0 0 0 0 0 0 0 0 0 0 0 0 0 0 0 0.25 0"/>
<feBlend mode="normal" in2="BackgroundImageFix" result="effect1_dropShadow_1809_13696"/>
<feBlend mode="normal" in="SourceGraphic" in2="effect1_dropShadow_1809_13696" result="shape"/>
</filter>
</defs>
</svg>
