<svg width="84" height="86" viewBox="0 0 84 86" fill="none" xmlns="http://www.w3.org/2000/svg">
<rect x="2.07407" y="3.40562" width="79.8519" height="79.8519" rx="39.9259" stroke="#B85AB1" stroke-width="4.14815"/>
<g clip-path="url(#clip0_3199_15187)">
<path d="M26.8858 7.51365C22.5264 9.29393 18.6053 11.9278 15.3323 15.2008C12.6436 17.894 10.384 21.0209 8.67681 24.4673L7.26172 24.5404C7.50822 23.2074 7.81862 21.8289 8.19294 20.4001C8.57638 13.0736 9.24741 0.305828 15.1041 0.00911589C19.4132 -0.209995 22.9692 3.55597 26.8858 7.51365Z" fill="#B85AB1"/>
<path d="M77.1827 24.5404L75.7676 24.4673C71.9788 16.8259 65.4968 10.7592 57.5586 7.51365C61.4752 3.55597 65.0312 -0.209995 69.3404 0.00911589C75.197 0.305828 75.868 13.0736 76.2515 20.4001C76.6258 21.8289 76.9362 23.2074 77.1827 24.5404Z" fill="#B85AB1"/>
</g>
<defs>
<clipPath id="clip0_3199_15187">
<rect width="68.963" height="24.5404" fill="white" transform="translate(7.26172)"/>
</clipPath>
</defs>
</svg>
