<svg width="84" height="86" viewBox="0 0 84 86" fill="none" xmlns="http://www.w3.org/2000/svg">
<rect x="2.07407" y="4.07407" width="79.8519" height="79.8519" rx="39.9259" stroke="#52B242" stroke-width="4.14815"/>
<path fill-rule="evenodd" clip-rule="evenodd" d="M27 8C11.0124 12.5502 1.29721 29.0945 1.29721 46.6483C1.29721 47.8562 0.391487 45.4689 0.5 46.6483C0.5 44.6937 0.461144 46.6152 0.0594759 44.6937C-0.804135 21.1662 7.92565 2.16958 13.998 1.08096C18.1155 0.34216 21.9363 3.0281 27 8Z" fill="#52B242"/>
<path fill-rule="evenodd" clip-rule="evenodd" d="M57 8C72.9876 12.5502 82.7028 29.0945 82.7028 46.6483C82.7028 47.8562 83.6085 45.4689 83.5 46.6483C83.5 44.6937 83.5389 46.6152 83.9405 44.6937C84.8041 21.1662 76.0744 2.16958 70.002 1.08096C65.8845 0.34216 62.0637 3.0281 57 8Z" fill="#52B242"/>
</svg>
