<svg width="76" height="117" viewBox="0 0 76 117" fill="none" xmlns="http://www.w3.org/2000/svg">
<path d="M58.9339 66.689H15.8199C10.118 70.7748 4.25474 81.5658 4.74783 90.4811C4.98989 94.8387 5.83263 98.9036 10.4288 99.7489C14.0478 100.412 16.0202 98.8409 16.7284 97.4939C16.8001 97.3535 17.0153 97.4013 17.0303 97.5566C17.4785 102.676 18.6589 106.908 20.44 111.045C23.0071 117 25.1558 116.997 28.5984 117C31.8469 117 35.8155 117 35.7169 104.961C36.3414 105.065 36.7807 105.119 37.3754 105.119C37.9701 105.119 38.4094 105.065 39.034 104.961C38.9354 117 42.904 117.003 46.1524 117C49.5951 117 51.7438 117 54.3108 111.045C56.0949 106.908 57.2724 102.676 57.7206 97.5566C57.7356 97.4013 57.9477 97.3535 58.0225 97.4939C58.7307 98.8409 60.7031 100.415 64.322 99.7489C68.9182 98.9066 69.761 94.8387 70.003 90.4811C70.4991 81.5658 64.6329 70.7748 58.9309 66.689H58.9339Z" fill="#8FD6FF"/>
<path d="M37.3816 100.167C43.1087 100.167 47.7514 95.412 47.7514 89.5463C47.7514 83.6806 43.1087 78.9255 37.3816 78.9255C31.6545 78.9255 27.0117 83.6806 27.0117 89.5463C27.0117 95.412 31.6545 100.167 37.3816 100.167Z" fill="#D9F1FF"/>
<path d="M16.8289 97.422C16.5988 97.422 16.4015 97.2458 16.3836 97.0098C15.6694 88.3006 17.8151 82.3391 17.9047 82.0882C17.9914 81.8553 18.2484 81.7358 18.4785 81.8224C18.7116 81.909 18.8311 82.1659 18.7445 82.3959C18.7236 82.4556 16.5779 88.435 17.2742 96.9352C17.2951 97.1831 17.1098 97.3981 16.8648 97.419C16.8528 97.419 16.8408 97.419 16.8289 97.419V97.422Z" fill="#72BAE3"/>
<path d="M57.9204 97.422C57.9204 97.422 57.8965 97.422 57.8845 97.422C57.6365 97.4011 57.4542 97.186 57.4751 96.9381C58.1744 88.426 56.0257 82.4586 56.0048 82.3988C55.9181 82.1659 56.0377 81.909 56.2708 81.8254C56.5039 81.7417 56.7609 81.8582 56.8446 82.0912C56.9372 82.3391 59.0799 88.3035 58.3657 97.0128C58.3477 97.2458 58.1505 97.425 57.9204 97.425V97.422Z" fill="#72BAE3"/>
<path d="M37.7886 4.01245C67.0001 4.01245 77.5104 25.853 75.0863 44.6021C72.8628 61.801 56.5377 71.7068 37.7886 71.7068C19.0395 71.7068 2.71444 61.804 0.490877 44.6021C-1.93319 25.853 10.5582 4.01245 37.7886 4.01245Z" fill="#8FD6FF"/>
<path d="M4.05394 23.554C-2.2247 17.9457 -0.740329 6.43586 5.28692 2.39874C11.3202 -1.64137 18.4337 -0.896205 22.6804 7.08227" fill="#8FD6FF"/>
<path d="M71.517 23.5536C77.7957 17.9454 76.3113 6.43553 70.2841 2.39841C64.2568 -1.63871 57.1372 -0.896536 52.8906 7.08194" fill="#8FD6FF"/>
<path d="M37.7892 60.2022C44.6484 60.2022 49.2421 56.6858 50.2028 51.676C51.1634 46.6633 47.3897 42.4316 37.7892 42.4316C28.1887 42.4316 24.4149 46.6633 25.3755 51.676C26.3362 56.6888 30.9299 60.2022 37.7892 60.2022Z" fill="#E0F6FF"/>
<path d="M37.7822 40.8276C39.494 40.8276 41.4483 41.3753 40.9006 42.8327C40.3499 44.2901 38.5783 45.6249 37.7822 45.6249C36.9862 45.6249 35.1547 44.2273 34.6639 42.8327C34.1761 41.3753 36.0704 40.8276 37.7822 40.8276Z" fill="#282828"/>
<path d="M37.7833 51.826C37.3703 51.826 37.0352 51.4908 37.0352 51.0778V45.3229C37.0352 44.9099 37.3703 44.5747 37.7833 44.5747C38.1963 44.5747 38.5315 44.9099 38.5315 45.3229V51.0778C38.5315 51.4908 38.1963 51.826 37.7833 51.826Z" fill="#282828"/>
<path d="M27.8319 39.8283C27.4309 39.8283 27.0658 39.556 26.9611 39.1519C26.9132 38.9784 26.4493 37.5479 24.1869 37.5479C23.3998 37.5479 22.487 37.7603 21.6969 39.3345C21.4755 39.7774 20.9368 39.957 20.4909 39.7325C20.048 39.511 19.8684 38.9694 20.0929 38.5265C21.0296 36.6591 22.3703 35.7493 24.1869 35.7493C27.1975 35.7493 28.4574 37.6915 28.7058 38.718C28.8225 39.1998 28.5232 39.6846 28.0414 39.8014C27.9696 39.8193 27.9008 39.8253 27.8319 39.8253V39.8283Z" fill="#282828"/>
<path d="M54.6793 39.8284C54.3501 39.8284 54.0329 39.6458 53.8773 39.3346C53.0872 37.7605 52.1744 37.548 51.3873 37.548C49.1159 37.548 48.658 38.9905 48.6131 39.155C48.4845 39.6279 47.9966 39.9152 47.5208 39.7955C47.045 39.6728 46.7547 39.1999 46.8684 38.7241C47.1138 37.6976 48.3767 35.7554 51.3873 35.7554C53.2039 35.7554 54.5446 36.6651 55.4813 38.5325C55.7028 38.9755 55.5262 39.5142 55.0833 39.7386C54.9546 39.8044 54.817 39.8344 54.6823 39.8344L54.6793 39.8284Z" fill="#282828"/>
<path d="M45.6095 49.1589C45.6095 51.0024 44.6369 52.6604 43.0897 53.8155C41.7011 54.854 39.8457 55.4854 37.8106 55.4854C35.7756 55.4854 33.9202 54.851 32.5316 53.8155C30.9843 52.6604 30.0117 51.0024 30.0117 49.1589C30.0117 48.8357 30.0416 48.5185 30.1015 48.2103C30.1464 47.9559 30.4666 47.8092 30.7449 47.9199C32.7021 48.695 35.1531 49.1589 37.8136 49.1589C40.4741 49.1589 42.9251 48.698 44.8853 47.9229C45.1606 47.8122 45.4809 47.9589 45.5287 48.2133C45.5856 48.5215 45.6155 48.8357 45.6155 49.1589H45.6095Z" fill="#974137"/>
<path d="M43.0933 53.815C41.7047 54.8535 39.8493 55.4849 37.8142 55.4849C35.7792 55.4849 33.9238 54.8505 32.5352 53.815C33.9627 53.2255 35.8032 52.8723 37.8142 52.8723C39.8253 52.8723 41.6688 53.2285 43.0933 53.815Z" fill="#E5705E"/>
</svg>
