<svg width="77" height="117" viewBox="0 0 77 117" fill="none" xmlns="http://www.w3.org/2000/svg">
<path d="M59.555 66.689H16.441C10.7391 70.7748 4.87583 81.5658 5.36892 90.4811C5.61099 94.8387 6.45373 98.9036 11.0499 99.7489C14.6689 100.412 16.6413 98.8409 17.3495 97.4939C17.4212 97.3535 17.6364 97.4013 17.6513 97.5566C18.0996 102.676 19.28 106.908 21.0611 111.045C23.6282 117 25.7769 116.997 29.2195 117C32.468 117 36.4366 117 36.338 104.961C36.9625 105.065 37.4018 105.119 37.9965 105.119C38.5912 105.119 39.0305 105.065 39.6551 104.961C39.5565 117 43.5251 117.003 46.7735 117C50.2162 117 52.3649 117 54.9319 111.045C56.716 106.908 57.8935 102.676 58.3417 97.5566C58.3567 97.4013 58.5688 97.3535 58.6435 97.4939C59.3518 98.8409 61.3242 100.415 64.9431 99.7489C69.5393 98.9066 70.3821 94.8387 70.6241 90.4811C71.1202 81.5658 65.2539 70.7748 59.552 66.689H59.555Z" fill="#8FD6FF"/>
<path d="M38.0026 100.167C43.7297 100.167 48.3725 95.412 48.3725 89.5463C48.3725 83.6806 43.7297 78.9255 38.0026 78.9255C32.2755 78.9255 27.6328 83.6806 27.6328 89.5463C27.6328 95.412 32.2755 100.167 38.0026 100.167Z" fill="#D9F1FF"/>
<path d="M17.45 97.422C17.2199 97.422 17.0226 97.2458 17.0047 97.0098C16.2905 88.3006 18.4362 82.3391 18.5258 82.0882C18.6125 81.8553 18.8695 81.7358 19.0996 81.8224C19.3327 81.909 19.4522 82.1659 19.3656 82.3959C19.3446 82.4556 17.199 88.435 17.8953 96.9352C17.9162 97.1831 17.7309 97.3981 17.4858 97.419C17.4739 97.419 17.4619 97.419 17.45 97.419V97.422Z" fill="#72BAE3"/>
<path d="M58.5415 97.422C58.5415 97.422 58.5176 97.422 58.5056 97.422C58.2576 97.4011 58.0753 97.186 58.0962 96.9381C58.7955 88.426 56.6468 82.4586 56.6259 82.3988C56.5392 82.1659 56.6588 81.909 56.8919 81.8254C57.125 81.7417 57.382 81.8582 57.4656 82.0912C57.5583 82.3391 59.701 88.3035 58.9868 97.0128C58.9688 97.2458 58.7716 97.425 58.5415 97.425V97.422Z" fill="#72BAE3"/>
<path d="M38.3839 4.0127C67.5965 4.0127 78.1072 25.8541 75.6831 44.604C73.4594 61.8036 57.1337 71.7098 38.3839 71.7098C19.634 71.7098 3.30829 61.8066 1.08464 44.604C-1.33953 25.8541 11.1524 4.0127 38.3839 4.0127Z" fill="#8FD6FF"/>
<path d="M4.67519 23.5549C-1.60369 17.9464 -0.119265 6.43612 5.90822 2.39884C11.9417 -1.64144 19.0556 -0.89624 23.3023 7.08255" fill="#8FD6FF"/>
<path d="M72.1389 23.5549C78.4178 17.9464 76.9333 6.43612 70.9058 2.39884C64.8724 -1.64144 57.7585 -0.89624 53.5117 7.08255" fill="#8FD6FF"/>
<path d="M38.403 60.2043C45.2625 60.2043 49.8564 56.6878 50.8171 51.6779C51.7778 46.6649 48.0039 42.4331 38.403 42.4331C28.8021 42.4331 25.0281 46.6649 25.9888 51.6779C26.9495 56.6908 31.5435 60.2043 38.403 60.2043Z" fill="#E0F6FF"/>
<path d="M38.3957 40.8289C40.1075 40.8289 42.0618 41.3765 41.5141 42.834C40.9634 44.2915 39.1917 45.6263 38.3957 45.6263C37.5996 45.6263 35.768 44.2287 35.2771 42.834C34.7893 41.3765 36.6838 40.8289 38.3957 40.8289Z" fill="#282828"/>
<path d="M24.8904 42.7445C27.0842 42.7445 28.9097 41.0207 28.9097 38.9317C28.9097 36.8427 27.0842 35.1189 24.8904 35.1189C22.6967 35.1189 20.8711 36.8427 20.8711 38.9317C20.8711 41.0207 22.6967 42.7445 24.8904 42.7445Z" fill="#282828"/>
<path d="M51.906 42.7445C54.0997 42.7445 55.9254 41.0207 55.9254 38.9317C55.9254 36.8427 54.0997 35.1189 51.906 35.1189C49.7123 35.1189 47.8867 36.8427 47.8867 38.9317C47.8867 41.0207 49.7123 42.7445 51.906 42.7445Z" fill="#282828"/>
<path d="M38.4084 50.978C37.9953 50.978 37.6602 50.6428 37.6602 50.2298V45.3246C37.6602 44.9116 37.9953 44.5764 38.4084 44.5764C38.8214 44.5764 39.1566 44.9116 39.1566 45.3246V50.2298C39.1566 50.6428 38.8214 50.978 38.4084 50.978Z" fill="#282828"/>
<path d="M22.8229 32.2486C22.3889 32.2486 22.0058 31.9314 21.937 31.4885C21.8592 30.9977 22.1944 30.5397 22.6852 30.4619L27.8717 29.6509C28.3625 29.5761 28.8204 29.9083 28.8982 30.3991C28.9761 30.8899 28.6409 31.3478 28.15 31.4256L22.9635 32.2367C22.9156 32.2427 22.8707 32.2486 22.8229 32.2486Z" fill="#282828"/>
<path d="M53.989 32.2486C53.9441 32.2486 53.8962 32.2457 53.8483 32.2367L48.6618 31.4256C48.1709 31.3478 47.8358 30.8899 47.9136 30.3991C47.9914 29.9083 48.4493 29.5761 48.9401 29.6509L54.1266 30.4619C54.6174 30.5397 54.9526 30.9977 54.8748 31.4885C54.806 31.9314 54.4229 32.2486 53.989 32.2486Z" fill="#282828"/>
<path d="M45.8176 53.1837C45.8176 53.3363 45.8086 53.4859 45.7906 53.6326C45.6889 54.5095 44.7461 55.0841 43.8303 54.8387C42.298 54.4287 40.4246 54.1892 38.4014 54.1892C36.3783 54.1892 34.5048 54.4287 32.9725 54.8387C32.0537 55.0841 31.111 54.5065 31.0122 53.6296C30.9943 53.4829 30.9883 53.3333 30.9883 53.1807C30.9883 50.2208 34.3073 47.8206 38.4044 47.8206C42.5016 47.8206 45.8206 50.2178 45.8206 53.1807L45.8176 53.1837Z" fill="#974137"/>
</svg>
