<svg width="76" height="117" viewBox="0 0 76 117" fill="none" xmlns="http://www.w3.org/2000/svg">
<path d="M60.1058 66.689H16.9918C11.2899 70.7748 5.42662 81.5658 5.91971 90.4811C6.16177 94.8387 7.00451 98.9036 11.6007 99.7489C15.2197 100.412 17.192 98.8409 17.9003 97.4939C17.972 97.3535 18.1872 97.4013 18.2021 97.5566C18.6504 102.676 19.8308 106.908 21.6119 111.045C24.179 117 26.3277 116.997 29.7703 117C33.0187 117 36.9874 117 36.8887 104.961C37.5133 105.065 37.9526 105.119 38.5473 105.119C39.142 105.119 39.5813 105.065 40.2059 104.961C40.1073 117 44.0759 117.003 47.3243 117C50.767 117 52.9157 117 55.4827 111.045C57.2668 106.908 58.4442 102.676 58.8925 97.5566C58.9074 97.4013 59.1196 97.3535 59.1943 97.4939C59.9026 98.8409 61.8749 100.415 65.4939 99.7489C70.0901 98.9066 70.9329 94.8387 71.1749 90.4811C71.671 81.5658 65.8047 70.7748 60.1028 66.689H60.1058Z" fill="#8FD6FF"/>
<path d="M38.5534 100.167C44.2805 100.167 48.9233 95.412 48.9233 89.5463C48.9233 83.6806 44.2805 78.9255 38.5534 78.9255C32.8263 78.9255 28.1836 83.6806 28.1836 89.5463C28.1836 95.412 32.8263 100.167 38.5534 100.167Z" fill="#D9F1FF"/>
<path d="M17.9969 97.422C17.7668 97.422 17.5695 97.2458 17.5516 97.0098C16.8374 88.3006 18.983 82.3391 19.0727 82.0882C19.1594 81.8553 19.4164 81.7358 19.6465 81.8224C19.8796 81.909 19.9991 82.1659 19.9124 82.3959C19.8915 82.4556 17.7458 88.435 18.4421 96.9352C18.4631 97.1831 18.2778 97.3981 18.0327 97.419C18.0208 97.419 18.0088 97.419 17.9969 97.419V97.422Z" fill="#72BAE3"/>
<path d="M59.0884 97.422C59.0884 97.422 59.0645 97.422 59.0525 97.422C58.8045 97.4011 58.6222 97.186 58.6431 96.9381C59.3424 88.426 57.1937 82.4586 57.1728 82.3988C57.0861 82.1659 57.2057 81.909 57.4387 81.8254C57.6718 81.7417 57.9288 81.8582 58.0125 82.0912C58.1052 82.3391 60.2479 88.3035 59.5336 97.0128C59.5157 97.2458 59.3185 97.425 59.0884 97.425V97.422Z" fill="#72BAE3"/>
<path d="M38.0113 4.01245C67.2228 4.01245 77.7331 25.853 75.309 44.6021C73.0854 61.801 56.7604 71.7068 38.0113 71.7068C19.2621 71.7068 2.93709 61.804 0.713533 44.6021C-1.71053 25.853 10.7809 4.01245 38.0113 4.01245Z" fill="#8FD6FF"/>
<path d="M4.2805 23.554C-1.99813 17.9457 -0.513767 6.43586 5.51348 2.39874C11.5467 -1.64137 18.6603 -0.896205 22.9069 7.08227" fill="#8FD6FF"/>
<path d="M71.7436 23.5536C78.0222 17.9454 76.5379 6.43553 70.5106 2.39841C64.4834 -1.63871 57.3638 -0.896536 53.1172 7.08194" fill="#8FD6FF"/>
<path d="M38.0157 60.2022C44.8749 60.2022 49.4687 56.6858 50.4293 51.676C51.39 46.6633 47.6162 42.4316 38.0157 42.4316C28.4152 42.4316 24.6415 46.6633 25.6021 51.676C26.5628 56.6888 31.1565 60.2022 38.0157 60.2022Z" fill="#E0F6FF"/>
<path d="M38.0049 40.8276C39.7167 40.8276 41.6709 41.3753 41.1233 42.8327C40.5726 44.2901 38.8009 45.6249 38.0049 45.6249C37.2088 45.6249 35.3773 44.2273 34.8865 42.8327C34.3987 41.3753 36.2931 40.8276 38.0049 40.8276Z" fill="#282828"/>
<path d="M24.4996 42.743C26.6933 42.743 28.5188 41.0192 28.5188 38.9303C28.5188 36.8415 26.6933 35.1177 24.4996 35.1177C22.306 35.1177 20.4805 36.8415 20.4805 38.9303C20.4805 41.0192 22.306 42.743 24.4996 42.743Z" fill="#282828"/>
<path d="M51.5113 42.743C53.705 42.743 55.5305 41.0192 55.5305 38.9303C55.5305 36.8415 53.705 35.1177 51.5113 35.1177C49.3177 35.1177 47.4922 36.8415 47.4922 38.9303C47.4922 41.0192 49.3177 42.743 51.5113 42.743Z" fill="#282828"/>
<path d="M38.0138 51.826C37.6008 51.826 37.2656 51.4908 37.2656 51.0778V45.3229C37.2656 44.9099 37.6008 44.5747 38.0138 44.5747C38.4268 44.5747 38.762 44.9099 38.762 45.3229V51.0778C38.762 51.4908 38.4268 51.826 38.0138 51.826Z" fill="#282828"/>
<path d="M41.8289 51.843C41.8289 52.6001 41.7032 53.3124 41.4428 53.9259C40.9041 55.2067 39.7879 56.0716 38.0312 56.0716C36.2745 56.0716 35.1552 55.2067 34.6165 53.9259C34.3562 53.3094 34.2305 52.5971 34.2305 51.843C34.2305 49.5057 35.5472 47.6113 38.0282 47.6113C40.5091 47.6113 41.8259 49.5057 41.8259 51.843H41.8289Z" fill="#974137"/>
<path d="M41.4474 53.9261C40.9087 55.2069 39.7924 56.0718 38.0357 56.0718C36.279 56.0718 35.1598 55.2069 34.6211 53.9261C35.4381 53.4442 36.6651 53.136 38.0357 53.136C39.4064 53.136 40.6304 53.4442 41.4474 53.9261Z" fill="#E5705E"/>
</svg>
