<svg width="76" height="117" viewBox="0 0 76 117" fill="none" xmlns="http://www.w3.org/2000/svg">
<path d="M58.9496 66.689H15.8356C10.1336 70.7748 4.27037 81.5658 4.76346 90.4811C5.00552 94.8387 5.84826 98.9036 10.4445 99.7489C14.0634 100.412 16.0358 98.8409 16.744 97.4939C16.8158 97.3535 17.0309 97.4013 17.0459 97.5566C17.4941 102.676 18.6746 106.908 20.4557 111.045C23.0227 117 25.1714 116.997 28.6141 117C31.8625 117 35.8311 117 35.7325 104.961C36.3571 105.065 36.7964 105.119 37.3911 105.119C37.9858 105.119 38.4251 105.065 39.0496 104.961C38.951 117 42.9196 117.003 46.1681 117C49.6107 117 51.7594 117 54.3265 111.045C56.1105 106.908 57.288 102.676 57.7363 97.5566C57.7512 97.4013 57.9634 97.3535 58.0381 97.4939C58.7463 98.8409 60.7187 100.415 64.3377 99.7489C68.9339 98.9066 69.7766 94.8387 70.0187 90.4811C70.5147 81.5658 64.6485 70.7748 58.9466 66.689H58.9496Z" fill="#8FD6FF"/>
<path d="M37.3972 100.167C43.1243 100.167 47.767 95.412 47.767 89.5463C47.767 83.6806 43.1243 78.9255 37.3972 78.9255C31.6701 78.9255 27.0273 83.6806 27.0273 89.5463C27.0273 95.412 31.6701 100.167 37.3972 100.167Z" fill="#D9F1FF"/>
<path d="M16.8406 97.422C16.6105 97.422 16.4133 97.2458 16.3953 97.0098C15.6811 88.3006 17.8268 82.3391 17.9164 82.0882C18.0031 81.8553 18.2601 81.7358 18.4902 81.8224C18.7233 81.909 18.8429 82.1659 18.7562 82.3959C18.7353 82.4556 16.5896 88.435 17.2859 96.9352C17.3068 97.1831 17.1215 97.3981 16.8765 97.419C16.8645 97.419 16.8526 97.419 16.8406 97.419V97.422Z" fill="#72BAE3"/>
<path d="M57.9321 97.422C57.9321 97.422 57.9082 97.422 57.8962 97.422C57.6482 97.4011 57.4659 97.186 57.4868 96.9381C58.1861 88.426 56.0374 82.4586 56.0165 82.3988C55.9299 82.1659 56.0494 81.909 56.2825 81.8254C56.5156 81.7417 56.7726 81.8582 56.8563 82.0912C56.9489 82.3391 59.0916 88.3035 58.3774 97.0128C58.3594 97.2458 58.1622 97.425 57.9321 97.425V97.422Z" fill="#72BAE3"/>
<path d="M37.7886 4.01245C67.0001 4.01245 77.5104 25.853 75.0863 44.6021C72.8627 61.801 56.5377 71.7068 37.7886 71.7068C19.0395 71.7068 2.71443 61.804 0.490877 44.6021C-1.93319 25.853 10.5582 4.01245 37.7886 4.01245Z" fill="#8FD6FF"/>
<path d="M4.07347 23.554C-2.20516 17.9457 -0.720798 6.43586 5.30645 2.39874C11.3397 -1.64137 18.4533 -0.896204 22.6999 7.08227" fill="#8FD6FF"/>
<path d="M71.5366 23.554C77.8152 17.9457 76.3308 6.43586 70.3036 2.39874C64.2703 -1.64137 57.1568 -0.896204 52.9102 7.08227" fill="#8FD6FF"/>
<path d="M37.8087 60.2021C44.6679 60.2021 49.2617 56.6858 50.2223 51.676C51.183 46.6633 47.4092 42.4316 37.8087 42.4316C28.2082 42.4316 24.4344 46.6633 25.3951 51.676C26.3557 56.6887 30.9495 60.2021 37.8087 60.2021Z" fill="#E0F6FF"/>
<path d="M37.7979 40.8276C39.5097 40.8276 41.4639 41.3753 40.9162 42.8327C40.3656 44.2901 38.5939 45.6249 37.7979 45.6249C37.0018 45.6249 35.1703 44.2273 34.6795 42.8327C34.1917 41.3753 36.0861 40.8276 37.7979 40.8276Z" fill="#282828"/>
<path d="M24.2965 42.743C26.4902 42.743 28.3157 41.0192 28.3157 38.9303C28.3157 36.8415 26.4902 35.1177 24.2965 35.1177C22.1029 35.1177 20.2773 36.8415 20.2773 38.9303C20.2773 41.0192 22.1029 42.743 24.2965 42.743Z" fill="#282828"/>
<path d="M51.3082 42.743C53.5019 42.743 55.3274 41.0192 55.3274 38.9303C55.3274 36.8415 53.5019 35.1177 51.3082 35.1177C49.1146 35.1177 47.2891 36.8415 47.2891 38.9303C47.2891 41.0192 49.1146 42.743 51.3082 42.743Z" fill="#282828"/>
<path d="M37.8068 51.826C37.3938 51.826 37.0586 51.4908 37.0586 51.0778V45.3229C37.0586 44.9099 37.3938 44.5747 37.8068 44.5747C38.2198 44.5747 38.5549 44.9099 38.5549 45.3229V51.0778C38.5549 51.4908 38.2198 51.826 37.8068 51.826Z" fill="#282828"/>
<path d="M41.6023 51.8427C41.6023 52.5999 41.4766 53.3121 41.2162 53.9256C40.6776 55.2065 39.5613 56.0714 37.8046 56.0714C36.0479 56.0714 34.9287 55.2065 34.39 53.9256C34.1296 53.3091 34.0039 52.5969 34.0039 51.8427C34.0039 49.5055 35.3207 47.6111 37.8016 47.6111C40.2826 47.6111 41.5993 49.5055 41.5993 51.8427H41.6023Z" fill="#974137"/>
<path d="M41.213 53.9256C40.6743 55.2064 39.5581 56.0713 37.8014 56.0713C36.0447 56.0713 34.9254 55.2064 34.3867 53.9256C35.2037 53.4437 36.4307 53.1355 37.8014 53.1355C39.172 53.1355 40.396 53.4437 41.213 53.9256Z" fill="#E5705E"/>
<path d="M12.5078 48.2667C12.3761 48.2667 12.2414 48.2368 12.1127 48.174C11.6668 47.9555 11.4843 47.4198 11.6997 46.9739L13.229 43.8495C13.4475 43.4036 13.9861 43.2211 14.429 43.4365C14.875 43.655 15.0575 44.1907 14.842 44.6366L13.3128 47.761C13.1572 48.0782 12.837 48.2637 12.5048 48.2637L12.5078 48.2667Z" fill="#16AFE4"/>
<path d="M16.2304 48.2667C16.0987 48.2667 15.9641 48.2368 15.8354 48.174C15.3895 47.9555 15.2069 47.4198 15.4224 46.9739L16.9516 43.8495C17.1701 43.4036 17.7088 43.2211 18.1517 43.4365C18.5976 43.655 18.7802 44.1907 18.5647 44.6366L17.0354 47.761C16.8798 48.0782 16.5596 48.2637 16.2274 48.2637L16.2304 48.2667Z" fill="#16AFE4"/>
<path d="M19.957 48.2667C19.8253 48.2667 19.6906 48.2368 19.5619 48.174C19.116 47.9555 18.9335 47.4198 19.149 46.9739L20.6782 43.8495C20.8967 43.4036 21.4354 43.2211 21.8783 43.4365C22.3242 43.655 22.5067 44.1907 22.2913 44.6366L20.762 47.761C20.6064 48.0782 20.2862 48.2637 19.954 48.2637L19.957 48.2667Z" fill="#16AFE4"/>
<path d="M54.1172 48.2667C53.9855 48.2667 53.8508 48.2368 53.7221 48.174C53.2762 47.9555 53.0936 47.4198 53.3091 46.9739L54.8384 43.8495C55.0568 43.4036 55.5955 43.2211 56.0384 43.4365C56.4843 43.655 56.6669 44.1907 56.4514 44.6366L54.9222 47.761C54.7665 48.0782 54.4463 48.2637 54.1142 48.2637L54.1172 48.2667Z" fill="#16AFE4"/>
<path d="M57.8398 48.2667C57.7081 48.2667 57.5734 48.2368 57.4448 48.174C56.9988 47.9555 56.8163 47.4198 57.0318 46.9739L58.561 43.8495C58.7795 43.4036 59.3182 43.2211 59.7611 43.4365C60.207 43.655 60.3895 44.1907 60.1741 44.6366L58.6448 47.761C58.4892 48.0782 58.169 48.2637 57.8368 48.2637L57.8398 48.2667Z" fill="#16AFE4"/>
<path d="M61.5663 48.2667C61.4347 48.2667 61.3 48.2368 61.1713 48.174C60.7254 47.9555 60.5429 47.4198 60.7583 46.9739L62.2876 43.8495C62.506 43.4036 63.0447 43.2211 63.4876 43.4365C63.9336 43.655 64.1161 44.1907 63.9006 44.6366L62.3714 47.761C62.2158 48.0782 61.8955 48.2637 61.5633 48.2637L61.5663 48.2667Z" fill="#16AFE4"/>
</svg>
