<svg width="77" height="117" viewBox="0 0 77 117" fill="none" xmlns="http://www.w3.org/2000/svg">
<path d="M60.723 66.689H17.609C11.9071 70.7748 6.0438 81.5658 6.53689 90.4811C6.77896 94.8387 7.62169 98.9036 12.2179 99.7489C15.8369 100.412 17.8092 98.8409 18.5175 97.4939C18.5892 97.3535 18.8044 97.4013 18.8193 97.5566C19.2676 102.676 20.448 106.908 22.2291 111.045C24.7962 117 26.9448 116.997 30.3875 117C33.6359 117 37.6045 117 37.5059 104.961C38.1305 105.065 38.5698 105.119 39.1645 105.119C39.7592 105.119 40.1985 105.065 40.8231 104.961C40.7245 117 44.6931 117.003 47.9415 117C51.3842 117 53.5328 117 56.0999 111.045C57.884 106.908 59.0614 102.676 59.5097 97.5566C59.5246 97.4013 59.7368 97.3535 59.8115 97.4939C60.5198 98.8409 62.4921 100.415 66.1111 99.7489C70.7073 98.9066 71.55 94.8387 71.7921 90.4811C72.2882 81.5658 66.4219 70.7748 60.72 66.689H60.723Z" fill="#8FD6FF"/>
<path d="M39.1706 100.167C44.8977 100.167 49.5405 95.412 49.5405 89.5463C49.5405 83.6806 44.8977 78.9255 39.1706 78.9255C33.4435 78.9255 28.8008 83.6806 28.8008 89.5463C28.8008 95.412 33.4435 100.167 39.1706 100.167Z" fill="#D9F1FF"/>
<path d="M18.614 97.422C18.3839 97.422 18.1867 97.2458 18.1688 97.0098C17.4545 88.3006 19.6002 82.3391 19.6899 82.0882C19.7765 81.8553 20.0335 81.7358 20.2637 81.8224C20.4968 81.909 20.6163 82.1659 20.5296 82.3959C20.5087 82.4556 18.363 88.435 19.0593 96.9352C19.0802 97.1831 18.895 97.3981 18.6499 97.419C18.638 97.419 18.626 97.419 18.614 97.419V97.422Z" fill="#72BAE3"/>
<path d="M59.7055 97.422C59.7055 97.422 59.6816 97.422 59.6697 97.422C59.4216 97.4011 59.2394 97.186 59.2603 96.9381C59.9596 88.426 57.8109 82.4586 57.79 82.3988C57.7033 82.1659 57.8228 81.909 58.0559 81.8254C58.289 81.7417 58.546 81.8582 58.6297 82.0912C58.7224 82.3391 60.865 88.3035 60.1508 97.0128C60.1329 97.2458 59.9357 97.425 59.7055 97.425V97.422Z" fill="#72BAE3"/>
<path d="M38.6324 4.01245C67.8439 4.01245 78.3541 25.853 75.9301 44.6021C73.7065 61.801 57.3815 71.7068 38.6324 71.7068C19.8832 71.7068 3.55819 61.804 1.33463 44.6021C-1.08944 25.853 11.402 4.01245 38.6324 4.01245Z" fill="#8FD6FF"/>
<path d="M4.89769 23.554C-1.38095 17.9457 0.10342 6.43586 6.13067 2.39874C12.1639 -1.64137 19.2775 -0.896205 23.5241 7.08227" fill="#8FD6FF"/>
<path d="M72.3608 23.554C78.6394 17.9457 77.1551 6.43586 71.1278 2.39874C65.0946 -1.64137 57.981 -0.896205 53.7344 7.08227" fill="#8FD6FF"/>
<path d="M38.629 60.2022C45.4882 60.2022 50.082 56.6858 51.0426 51.676C52.0033 46.6633 48.2295 42.4316 38.629 42.4316C29.0285 42.4316 25.2547 46.6633 26.2154 51.676C27.176 56.6888 31.7698 60.2022 38.629 60.2022Z" fill="#E0F6FF"/>
<path d="M38.6221 40.8276C40.3339 40.8276 42.2881 41.3753 41.7404 42.8327C41.1898 44.2901 39.4181 45.6249 38.6221 45.6249C37.826 45.6249 35.9945 44.2273 35.5037 42.8327C35.0159 41.3753 36.9103 40.8276 38.6221 40.8276Z" fill="#282828"/>
<path d="M25.1286 42.743C27.3222 42.743 29.1477 41.0192 29.1477 38.9303C29.1477 36.8415 27.3222 35.1177 25.1286 35.1177C22.9349 35.1177 21.1094 36.8415 21.1094 38.9303C21.1094 41.0192 22.9349 42.743 25.1286 42.743Z" fill="#282828"/>
<path d="M38.6271 51.826C38.2141 51.826 37.8789 51.4908 37.8789 51.0778V45.3229C37.8789 44.9099 38.2141 44.5747 38.6271 44.5747C39.0401 44.5747 39.3752 44.9099 39.3752 45.3229V51.0778C39.3752 51.4908 39.0401 51.826 38.6271 51.826Z" fill="#282828"/>
<path d="M55.1464 42.5311C54.9938 42.5311 54.8412 42.4922 54.7005 42.4114C52.7134 41.2712 47.7395 39.8167 47.6887 39.8018C47.3984 39.718 47.168 39.4905 47.0812 39.2032C46.9944 38.9159 47.0572 38.5987 47.2517 38.3653C48.5536 36.8061 51.2081 34.8609 54.1798 33.2897C54.6197 33.0593 55.1614 33.2269 55.3918 33.6638C55.6222 34.1007 55.4547 34.6454 55.0177 34.8758C52.9079 35.9921 50.9327 37.3298 49.616 38.5119C51.3188 39.0506 54.1169 40.0022 55.5953 40.8522C56.0263 41.0976 56.1729 41.6482 55.9275 42.0762C55.7629 42.3665 55.4577 42.5281 55.1464 42.5281V42.5311Z" fill="#282828"/>
<path d="M47.9397 39.8377C47.5297 39.8377 47.1616 39.5563 47.0658 39.1404C46.9551 38.6555 47.2574 38.1767 47.7422 38.066C51.2167 37.2699 52.8357 37.1472 55.96 37.0425C55.969 37.0425 55.981 37.0425 55.99 37.0425C56.4718 37.0425 56.8698 37.4256 56.8878 37.9104C56.9057 38.4071 56.5167 38.8201 56.0199 38.8381C52.9524 38.9428 51.48 39.0566 48.1402 39.8197C48.0743 39.8347 48.0055 39.8436 47.9397 39.8436V39.8377Z" fill="#282828"/>
<path d="M46.2136 47.5492C46.1806 49.1113 45.4624 51.4127 43.7925 53.1215C42.4997 54.4473 40.6352 55.4169 38.0824 55.4169C36.2479 55.4169 34.8953 54.8723 33.8987 54.0852C32.1151 52.6786 31.4626 50.485 31.2292 49.2131C31.1454 48.7612 31.5794 48.3901 32.0133 48.5398C33.4498 49.0246 36.3407 49.8236 38.9803 49.4316C41.5959 49.0425 44.0858 47.7497 45.3158 47.0314C45.7138 46.798 46.2225 47.0883 46.2136 47.5492Z" fill="#974137"/>
<path d="M43.7922 53.122C42.4994 54.4478 40.6349 55.4174 38.0822 55.4174C36.2477 55.4174 34.895 54.8727 33.8984 54.0857C35.1135 53.3315 37.0138 52.7808 39.1745 52.6462C40.9312 52.5384 42.5533 52.724 43.7922 53.122Z" fill="#E5705E"/>
</svg>
