<svg width="76" height="117" viewBox="0 0 76 117" fill="none" xmlns="http://www.w3.org/2000/svg">
<path d="M59.3285 66.6887H16.2145C10.5126 70.7745 4.64927 81.5655 5.14236 90.4809C5.38442 94.8385 6.22716 98.9034 10.8234 99.7486C14.4423 100.412 16.4147 98.8406 17.123 97.4936C17.1947 97.3533 17.4098 97.4011 17.4248 97.5564C17.873 102.676 19.0535 106.908 20.8346 111.044C23.4016 117 25.5503 116.997 28.993 117C32.2414 117 36.21 117 36.1114 104.96C36.736 105.065 37.1753 105.119 37.77 105.119C38.3647 105.119 38.804 105.065 39.4286 104.96C39.3299 117 43.2985 117.003 46.547 117C49.9896 117 52.1383 117 54.7054 111.044C56.4895 106.908 57.6669 102.676 58.1152 97.5564C58.1301 97.4011 58.3423 97.3533 58.417 97.4936C59.1252 98.8406 61.0976 100.415 64.7166 99.7486C69.3128 98.9064 70.1555 94.8385 70.3976 90.4809C70.8937 81.5655 65.0274 70.7745 59.3255 66.6887H59.3285Z" fill="#8FD6FF"/>
<path d="M37.7761 100.167C43.5032 100.167 48.1459 95.412 48.1459 89.5463C48.1459 83.6806 43.5032 78.9255 37.7761 78.9255C32.049 78.9255 27.4062 83.6806 27.4062 89.5463C27.4062 95.412 32.049 100.167 37.7761 100.167Z" fill="#D9F1FF"/>
<path d="M17.2195 97.4218C16.9894 97.4218 16.7922 97.2455 16.7742 97.0096C16.06 88.3003 18.2057 82.3389 18.2954 82.088C18.382 81.855 18.639 81.7356 18.8691 81.8222C19.1022 81.9088 19.2218 82.1656 19.1351 82.3956C19.1142 82.4554 16.9685 88.4348 17.6648 96.9349C17.6857 97.1828 17.5004 97.3979 17.2554 97.4188C17.2434 97.4188 17.2315 97.4188 17.2195 97.4188V97.4218Z" fill="#72BAE3"/>
<path d="M58.311 97.4217C58.311 97.4217 58.2871 97.4217 58.2752 97.4217C58.0271 97.4008 57.8448 97.1858 57.8657 96.9379C58.565 88.4258 56.4164 82.4583 56.3954 82.3986C56.3088 82.1656 56.4283 81.9088 56.6614 81.8251C56.8945 81.7415 57.1515 81.858 57.2352 82.0909C57.3278 82.3388 59.4705 88.3033 58.7563 97.0125C58.7384 97.2455 58.5411 97.4247 58.311 97.4247V97.4217Z" fill="#72BAE3"/>
<path d="M38.1597 4.01245C67.3712 4.01245 77.8815 25.853 75.4574 44.6021C73.2339 61.801 56.9088 71.7068 38.1597 71.7068C19.4106 71.7068 3.08553 61.804 0.861971 44.6021C-1.5621 25.853 10.9293 4.01245 38.1597 4.01245Z" fill="#8FD6FF"/>
<path d="M4.45238 23.554C-1.82626 17.9457 -0.341892 6.43586 5.68536 2.39874C11.7186 -1.64137 18.8322 -0.896205 23.0788 7.08227" fill="#8FD6FF"/>
<path d="M71.9155 23.554C78.1941 17.9457 76.7097 6.43586 70.6825 2.39874C64.6493 -1.64137 57.5357 -0.896205 53.2891 7.08227" fill="#8FD6FF"/>
<path d="M38.1837 60.2022C45.0429 60.2022 49.6367 56.6858 50.5973 51.676C51.558 46.6633 47.7842 42.4316 38.1837 42.4316C28.5832 42.4316 24.8094 46.6633 25.7701 51.676C26.7307 56.6888 31.3245 60.2022 38.1837 60.2022Z" fill="#E0F6FF"/>
<path d="M38.1768 40.8276C39.8886 40.8276 41.8428 41.3753 41.2951 42.8327C40.7445 44.2901 38.9728 45.6249 38.1768 45.6249C37.3807 45.6249 35.5492 44.2273 35.0584 42.8327C34.5706 41.3753 36.465 40.8276 38.1768 40.8276Z" fill="#282828"/>
<path d="M24.6754 42.743C26.869 42.743 28.6946 41.0192 28.6946 38.9303C28.6946 36.8415 26.869 35.1177 24.6754 35.1177C22.4818 35.1177 20.6562 36.8415 20.6562 38.9303C20.6562 41.0192 22.4818 42.743 24.6754 42.743Z" fill="#282828"/>
<path d="M51.6871 42.743C53.8808 42.743 55.7063 41.0192 55.7063 38.9303C55.7063 36.8415 53.8808 35.1177 51.6871 35.1177C49.4935 35.1177 47.668 36.8415 47.668 38.9303C47.668 41.0192 49.4935 42.743 51.6871 42.743Z" fill="#282828"/>
<path d="M38.1857 50.976C37.7727 50.976 37.4375 50.6409 37.4375 50.2279V45.3229C37.4375 44.9099 37.7727 44.5747 38.1857 44.5747C38.5987 44.5747 38.9338 44.9099 38.9338 45.3229V50.2279C38.9338 50.6409 38.5987 50.976 38.1857 50.976Z" fill="#282828"/>
<path d="M43.299 52.415C43.1464 52.415 42.9877 52.3761 42.8471 52.2923C41.5213 51.5172 39.9532 51.1252 38.1845 51.1252C36.4158 51.1252 34.8477 51.5172 33.5219 52.2923C33.0939 52.5437 32.5433 52.3971 32.2949 51.9691C32.0435 51.5412 32.1902 50.9905 32.6181 50.7421C34.2222 49.8054 36.0956 49.3296 38.1875 49.3296C40.2794 49.3296 42.1528 49.8054 43.7569 50.7421C44.1848 50.9935 44.3285 51.5412 44.0801 51.9691C43.9125 52.2534 43.6132 52.415 43.305 52.415H43.299Z" fill="#282828"/>
<path d="M27.0953 33.1788C27.0355 33.1788 26.9726 33.1728 26.9098 33.1608L22.4597 32.2301C21.9749 32.1283 21.6636 31.6525 21.7654 31.1677C21.8671 30.6828 22.34 30.3716 22.8278 30.4734L27.2779 31.4041C27.7627 31.5058 28.0739 31.9817 27.9722 32.4665C27.8824 32.8885 27.5113 33.1817 27.0953 33.1817V33.1788Z" fill="#282828"/>
</svg>
