<svg width="76" height="117" viewBox="0 0 76 117" fill="none" xmlns="http://www.w3.org/2000/svg">
<path d="M59.1722 66.689H16.0582C10.3563 70.7748 4.49302 81.5658 4.98611 90.4811C5.22817 94.8387 6.07091 98.9036 10.6671 99.7489C14.2861 100.412 16.2584 98.8409 16.9667 97.4939C17.0384 97.3535 17.2536 97.4013 17.2685 97.5566C17.7168 102.676 18.8972 106.908 20.6783 111.045C23.2454 117 25.3941 116.997 28.8367 117C32.0851 117 36.0538 117 35.9551 104.961C36.5797 105.065 37.019 105.119 37.6137 105.119C38.2084 105.119 38.6477 105.065 39.2723 104.961C39.1737 117 43.1423 117.003 46.3907 117C49.8334 117 51.9821 117 54.5491 111.045C56.3332 106.908 57.5106 102.676 57.9589 97.5566C57.9739 97.4013 58.186 97.3535 58.2607 97.4939C58.969 98.8409 60.9413 100.415 64.5603 99.7489C69.1565 98.9066 69.9993 94.8387 70.2413 90.4811C70.7374 81.5658 64.8711 70.7748 59.1692 66.689H59.1722Z" fill="#8FD6FF"/>
<path d="M37.6198 100.167C43.3469 100.167 47.9897 95.412 47.9897 89.5463C47.9897 83.6806 43.3469 78.9255 37.6198 78.9255C31.8927 78.9255 27.25 83.6806 27.25 89.5463C27.25 95.412 31.8927 100.167 37.6198 100.167Z" fill="#D9F1FF"/>
<path d="M17.0672 97.422C16.8371 97.422 16.6398 97.2458 16.6219 97.0098C15.9077 88.3006 18.0534 82.3391 18.143 82.0882C18.2297 81.8553 18.4867 81.7358 18.7168 81.8224C18.9499 81.909 19.0694 82.1659 18.9828 82.3959C18.9618 82.4556 16.8161 88.435 17.5124 96.9352C17.5334 97.1831 17.3481 97.3981 17.103 97.419C17.0911 97.419 17.0791 97.419 17.0672 97.419V97.422Z" fill="#72BAE3"/>
<path d="M58.1587 97.422C58.1587 97.422 58.1348 97.422 58.1228 97.422C57.8748 97.4011 57.6925 97.186 57.7134 96.9381C58.4127 88.426 56.264 82.4586 56.2431 82.3988C56.1564 82.1659 56.276 81.909 56.5091 81.8254C56.7422 81.7417 56.9992 81.8582 57.0828 82.0912C57.1755 82.3391 59.3182 88.3035 58.6039 97.0128C58.586 97.2458 58.3888 97.425 58.1587 97.425V97.422Z" fill="#72BAE3"/>
<path d="M75.3042 44.604C73.8796 55.6235 66.6639 63.6502 56.7309 67.9927C55.025 68.7409 53.2353 69.3784 51.3858 69.9021C47.1958 71.0932 42.6737 71.7068 38.005 71.7068C33.3362 71.7068 28.844 71.0962 24.6661 69.9141C22.8135 69.3933 21.0268 68.7559 19.3209 68.0107C9.36391 63.6741 2.1303 55.6414 0.705732 44.604C-1.71843 25.8541 10.7735 4.0127 38.005 4.0127C67.2177 4.0127 77.7253 25.8541 75.3042 44.604Z" fill="#8FD6FF"/>
<path d="M4.29629 23.5549C-1.9826 17.9464 -0.498172 6.43612 5.52932 2.39884C11.5628 -1.64144 18.6767 -0.89624 22.9234 7.08255" fill="#8FD6FF"/>
<path d="M71.76 23.5549C78.0389 17.9464 76.5545 6.43612 70.527 2.39884C64.4935 -1.64144 57.3796 -0.89624 53.1328 7.08255" fill="#8FD6FF"/>
<path d="M38.024 60.2043C44.8835 60.2043 49.4775 56.6878 50.4381 51.6779C51.3988 46.6649 47.6249 42.4331 38.024 42.4331C28.4231 42.4331 24.6492 46.6649 25.6099 51.6779C26.5706 56.6908 31.1645 60.2043 38.024 60.2043Z" fill="#E0F6FF"/>
<path d="M38.0128 40.8289C39.7247 40.8289 41.679 41.3765 41.1313 42.834C40.5807 44.2915 38.8089 45.6263 38.0128 45.6263C37.2167 45.6263 35.3852 44.2287 34.8943 42.834C34.4065 41.3765 36.3009 40.8289 38.0128 40.8289Z" fill="#282828"/>
<path d="M38.0294 50.978C37.6164 50.978 37.2812 50.6428 37.2812 50.2298V45.3246C37.2812 44.9116 37.6164 44.5764 38.0294 44.5764C38.4425 44.5764 38.7776 44.9116 38.7776 45.3246V50.2298C38.7776 50.6428 38.4425 50.978 38.0294 50.978Z" fill="#282828"/>
<path d="M44.5182 52.7643C44.3656 52.7643 44.2069 52.7254 44.0663 52.6416C42.3484 51.636 40.3163 51.1272 38.0298 51.1272C35.7433 51.1272 33.7112 51.636 31.9933 52.6416C31.5653 52.893 31.0146 52.7463 30.7662 52.3183C30.5178 51.8904 30.6615 51.3397 31.0895 51.0913C33.0857 49.9241 35.423 49.3315 38.0328 49.3315C40.6425 49.3315 42.9768 49.9241 44.976 51.0913C45.404 51.3427 45.5477 51.8904 45.2993 52.3183C45.1317 52.6027 44.8324 52.7643 44.5242 52.7643H44.5182Z" fill="#282828"/>
<path d="M24.6712 69.9119C22.8186 69.3911 21.032 68.7536 19.3261 68.0084C15.3546 45.9575 20.4543 38.7449 20.4543 38.7449H20.4573C21.1786 39.2177 22.0315 39.3973 23.0012 39.3973C23.513 39.3973 23.9559 39.3614 24.339 39.2985C20.598 50.719 23.3574 64.6116 24.6712 69.9119Z" fill="#CBEAFF"/>
<path d="M22.9997 40.2958C21.7996 40.2958 20.8209 40.0444 20.0099 39.5266C19.9919 39.5176 19.974 39.5057 19.956 39.4937C19.6178 39.2692 19.3066 38.9969 19.0312 38.6826C18.705 38.3085 18.7409 37.7429 19.115 37.4167C19.4891 37.0905 20.0548 37.1294 20.381 37.5005C20.5426 37.686 20.7162 37.8417 20.9107 37.9733C20.9227 37.9793 20.9347 37.9883 20.9467 37.9973C21.4734 38.3415 22.1258 38.5031 22.9997 38.5031C23.4396 38.5031 23.8406 38.4732 24.1908 38.4163C25.0946 38.2756 25.5316 37.9883 25.7112 37.8297C26.0853 37.5035 26.6509 37.5394 26.9771 37.9135C27.3033 38.2876 27.2674 38.8532 26.8933 39.1794C26.3127 39.6882 25.4987 40.0264 24.4722 40.188C24.0322 40.2598 23.5324 40.2987 22.9967 40.2987L22.9997 40.2958Z" fill="#282828"/>
<path d="M56.7318 67.9902C55.0259 68.7384 53.2363 69.3759 51.3867 69.8996C52.7035 64.5904 55.4539 50.7098 51.7159 39.2983C52.099 39.3611 52.5419 39.397 53.0537 39.397C54.0233 39.397 54.8763 39.2175 55.5975 38.7446H55.6005C55.6005 38.7446 60.6973 45.9513 56.7318 67.9902Z" fill="#CBEAFF"/>
<path d="M53.0506 40.2954C52.5149 40.2954 52.0152 40.2595 51.5662 40.1847C50.5457 40.0261 49.7317 39.6849 49.1541 39.1761C48.78 38.8499 48.7441 38.2813 49.0703 37.9102C49.3965 37.5391 49.9651 37.5002 50.3362 37.8264C50.5158 37.985 50.9528 38.2693 51.8476 38.41C52.2067 38.4699 52.6078 38.4968 53.0477 38.4968C53.9216 38.4968 54.574 38.3352 55.1007 37.991C55.1127 37.982 55.1247 37.976 55.1367 37.9671C55.3282 37.8354 55.5018 37.6797 55.6664 37.4942C55.9926 37.1201 56.5613 37.0842 56.9324 37.4104C57.3065 37.7366 57.3423 38.3053 57.0161 38.6764C56.7408 38.9906 56.4296 39.2659 56.0914 39.4874C56.0734 39.4994 56.0555 39.5113 56.0375 39.5203C55.2265 40.0381 54.2478 40.2894 53.0477 40.2894L53.0506 40.2954Z" fill="#282828"/>
</svg>
