<svg width="77" height="117" viewBox="0 0 77 117" fill="none" xmlns="http://www.w3.org/2000/svg">
<path d="M60.1761 66.6887H17.0621C11.3602 70.7745 5.49693 81.5655 5.99002 90.4809C6.23208 94.8385 7.07482 98.9034 11.671 99.7486C15.29 100.412 17.2624 98.8406 17.9706 97.4936C18.0423 97.3533 18.2575 97.4011 18.2724 97.5564C18.7207 102.676 19.9011 106.908 21.6822 111.044C24.2493 117 26.398 116.997 29.8406 117C33.089 117 37.0577 117 36.9591 104.96C37.5836 105.065 38.0229 105.119 38.6176 105.119C39.2123 105.119 39.6516 105.065 40.2762 104.96C40.1776 117 44.1462 117.003 47.3946 117C50.8373 117 52.986 117 55.553 111.044C57.3371 106.908 58.5146 102.676 58.9628 97.5564C58.9778 97.4011 59.1899 97.3533 59.2646 97.4936C59.9729 98.8406 61.9453 100.415 65.5642 99.7486C70.1604 98.9064 71.0032 94.8385 71.2452 90.4809C71.7413 81.5655 65.875 70.7745 60.1731 66.6887H60.1761Z" fill="#8FD6FF"/>
<path d="M38.6237 100.167C44.3508 100.167 48.9936 95.4117 48.9936 89.546C48.9936 83.6804 44.3508 78.9253 38.6237 78.9253C32.8966 78.9253 28.2539 83.6804 28.2539 89.546C28.2539 95.4117 32.8966 100.167 38.6237 100.167Z" fill="#D9F1FF"/>
<path d="M18.0711 97.4218C17.841 97.4218 17.6437 97.2455 17.6258 97.0096C16.9116 88.3003 19.0573 82.3389 19.1469 82.088C19.2336 81.855 19.4906 81.7356 19.7207 81.8222C19.9538 81.9088 20.0733 82.1656 19.9867 82.3956C19.9657 82.4554 17.82 88.4348 18.5164 96.9349C18.5373 97.1828 18.352 97.3979 18.1069 97.4188C18.095 97.4188 18.083 97.4188 18.0711 97.4188V97.4218Z" fill="#72BAE3"/>
<path d="M59.1626 97.4217C59.1626 97.4217 59.1387 97.4217 59.1267 97.4217C58.8787 97.4008 58.6964 97.1858 58.7173 96.9379C59.4166 88.4258 57.2679 82.4583 57.247 82.3986C57.1603 82.1656 57.2799 81.9088 57.513 81.8251C57.7461 81.7415 58.0031 81.858 58.0867 82.0909C58.1794 82.3388 60.3221 88.3033 59.6078 97.0125C59.5899 97.2455 59.3927 97.4247 59.1626 97.4247V97.4217Z" fill="#72BAE3"/>
<g clip-path="url(#clip0_3110_18534)">
<path d="M38.7283 4.0105C67.942 4.0105 78.4531 25.8527 76.0289 44.6033C73.8051 61.8035 57.4788 71.71 38.7283 71.71C19.9778 71.71 3.65146 61.8065 1.42773 44.6033C-0.993531 25.8527 11.4989 4.0105 38.7283 4.0105Z" fill="#8ED5FF"/>
<path d="M5.01668 23.5541C-1.26543 17.9454 0.222047 6.43464 6.24676 2.39721C12.2805 -1.64321 19.3946 -0.897975 23.6415 7.08111" fill="#8ED5FF"/>
<path d="M72.4833 23.5541C78.7624 17.9454 77.2779 6.43464 71.2502 2.39721C65.2165 -1.64321 58.1024 -0.897975 53.8555 7.08111" fill="#8ED5FF"/>
<path d="M38.7511 60.2052C45.6108 60.2052 50.2049 56.6886 51.1656 51.6784C52.1264 46.6653 48.3523 42.4333 38.7511 42.4333C29.1498 42.4333 25.3758 46.6653 26.3365 51.6784C27.2972 56.6915 31.8913 60.2052 38.7511 60.2052Z" fill="#DFF5FF"/>
<path d="M38.7395 40.8291C40.4515 40.8291 42.4058 41.3768 41.8581 42.8343C41.3074 44.2919 39.5356 45.6267 38.7395 45.6267C37.9434 45.6267 36.1117 44.229 35.6209 42.8343C35.1331 41.3768 37.0276 40.8291 38.7395 40.8291Z" fill="#282828"/>
<path d="M25.2385 34.5979C22.7335 34.5979 20.6953 36.5433 20.6953 38.9346C20.6953 41.3259 22.7335 43.2713 25.2385 43.2713C27.7436 43.2713 29.7818 41.3259 29.7818 38.9346C29.7818 36.5433 27.7436 34.5979 25.2385 34.5979ZM25.2385 41.0237C23.9935 41.0237 22.94 40.0659 22.94 38.9316C22.94 37.7973 23.9935 36.8396 25.2385 36.8396C26.4836 36.8396 27.5371 37.7973 27.5371 38.9316C27.5371 40.0659 26.4836 41.0237 25.2385 41.0237Z" fill="#282828"/>
<path d="M52.2581 34.5979C49.753 34.5979 47.7148 36.5433 47.7148 38.9346C47.7148 41.3259 49.753 43.2713 52.2581 43.2713C54.7631 43.2713 56.8013 41.3259 56.8013 38.9346C56.8013 36.5433 54.7631 34.5979 52.2581 34.5979ZM52.2581 41.0237C51.013 41.0237 49.9595 40.0659 49.9595 38.9316C49.9595 37.7973 51.013 36.8396 52.2581 36.8396C53.5031 36.8396 54.5566 37.7973 54.5566 38.9316C54.5566 40.0659 53.5031 41.0237 52.2581 41.0237Z" fill="#282828"/>
<path d="M25.2368 41.4726C26.7311 41.4726 27.9424 40.3349 27.9424 38.9316C27.9424 37.5283 26.7311 36.3906 25.2368 36.3906C23.7426 36.3906 22.5312 37.5283 22.5312 38.9316C22.5312 40.3349 23.7426 41.4726 25.2368 41.4726Z" fill="white"/>
<path d="M52.2603 41.4726C53.7545 41.4726 54.9659 40.3349 54.9659 38.9316C54.9659 37.5283 53.7545 36.3906 52.2603 36.3906C50.766 36.3906 49.5547 37.5283 49.5547 38.9316C49.5547 40.3349 50.766 41.4726 52.2603 41.4726Z" fill="white"/>
<path d="M38.7482 51.8282C38.3352 51.8282 38 51.493 38 51.08V45.3246C38 44.9116 38.3352 44.5764 38.7482 44.5764C39.1612 44.5764 39.4965 44.9116 39.4965 45.3246V51.08C39.4965 51.493 39.1612 51.8282 38.7482 51.8282Z" fill="#282828"/>
<path d="M42.5482 51.846C42.5482 52.6032 42.4225 53.3155 42.1621 53.929C41.6234 55.21 40.507 56.075 38.7502 56.075C36.9934 56.075 35.874 55.21 35.3353 53.929C35.0749 53.3125 34.9492 52.6002 34.9492 51.846C34.9492 49.5085 36.2661 47.614 38.7472 47.614C41.2283 47.614 42.5452 49.5085 42.5452 51.846H42.5482Z" fill="#964137"/>
<path d="M42.1628 53.929C41.624 55.21 40.5077 56.075 38.7508 56.075C36.994 56.075 35.8747 55.21 35.3359 53.929C36.153 53.4472 37.3801 53.1389 38.7508 53.1389C40.1216 53.1389 41.3457 53.4472 42.1628 53.929Z" fill="#E4705E"/>
</g>
<defs>
<clipPath id="clip0_3110_18534">
<rect width="75.5768" height="71.71" fill="white" transform="translate(0.960938)"/>
</clipPath>
</defs>
</svg>
