<svg width="74" height="117" viewBox="0 0 74 117" fill="none" xmlns="http://www.w3.org/2000/svg">
<path d="M36.7581 13.1532C37.2755 13.1532 37.7451 13.1562 38.1787 13.1651C39.8894 13.192 40.999 13.2728 41.8603 13.3505C42.6289 13.4193 43.2031 13.4881 43.8371 13.521C49.8395 7.4409 54.5439 0 61.0637 0C68.1517 0 69.7547 15.3783 70.6668 24.2009C82.0286 59.9309 57.0262 70.9248 36.7551 70.9248C16.4841 70.9248 -8.5153 59.9309 2.84343 24.2009C3.76158 15.3783 5.36161 0 12.4496 0C18.9694 0 23.6767 7.4409 29.6761 13.524C30.3101 13.4911 30.8844 13.4223 31.653 13.3535C32.5173 13.2758 33.6268 13.195 35.3345 13.1681C35.7652 13.1591 36.2377 13.1562 36.7551 13.1562L36.7581 13.1532Z" fill="#FFB6FF"/>
<path d="M12.7646 6.8036C10.4139 7.2223 8.83482 16.3948 8.84379 20.2618C8.84379 20.5968 9.20864 20.7942 9.48379 20.6117C14.0596 17.5911 16.9366 16.6311 21.7995 15.4139C22.0388 15.3541 22.1614 15.0789 22.0418 14.8576C20.2743 11.6486 15.4234 6.33107 12.7646 6.80061V6.8036Z" fill="#F395EC"/>
<path d="M60.7533 6.8036C63.104 7.2223 64.6831 16.3948 64.6741 20.2618C64.6741 20.5968 64.3092 20.7942 64.0341 20.6117C59.4583 17.5911 56.5812 16.6311 51.7183 15.4139C51.4791 15.3541 51.3565 15.0789 51.4761 14.8576C53.2436 11.6486 58.0945 6.33107 60.7533 6.80061V6.8036Z" fill="#F395EC"/>
<path d="M24.4175 46.2969C26.6516 46.2969 28.5118 44.4336 28.5118 42.1816C28.5118 39.9296 26.6516 38.0664 24.4175 38.0664C22.1835 38.0664 20.3232 39.9296 20.3232 42.1816C20.3232 44.4336 22.1835 46.2969 24.4175 46.2969Z" fill="#282828"/>
<path d="M49.0962 46.2969C46.8622 46.2969 45.002 44.4336 45.002 42.1816C45.002 39.9296 46.8622 38.0664 49.0962 38.0664C51.3303 38.0664 53.1905 39.9296 53.1905 42.1816C53.1905 44.4336 51.3303 46.2969 49.0962 46.2969Z" fill="#282828"/>
<path d="M36.758 43.625C35.4869 43.625 33.7134 44.1005 34.177 45.6078C34.6166 47.0464 36.2555 47.6774 36.758 47.6774C37.2604 47.6774 38.8993 47.0464 39.339 45.6078C39.8025 44.0975 38.029 43.625 36.758 43.625Z" fill="#282828"/>
<path d="M36.7605 51.1615C36.264 51.1615 35.8633 50.7608 35.8633 50.2643V46.4871C35.8633 45.9906 36.264 45.5898 36.7605 45.5898C37.257 45.5898 37.6577 45.9906 37.6577 46.4871V50.2643C37.6577 50.7608 37.257 51.1615 36.7605 51.1615Z" fill="#282828"/>
<path d="M41.3772 52.538C41.2935 52.538 41.2067 52.526 41.12 52.4991C38.3147 51.6617 35.2014 51.6617 32.3961 52.4991C31.9206 52.6427 31.4211 52.3705 31.2806 51.898C31.137 51.4225 31.4092 50.923 31.8817 50.7824C35.019 49.8434 38.4972 49.8434 41.6344 50.7824C42.1099 50.923 42.3791 51.4254 42.2355 51.898C42.1189 52.2868 41.763 52.538 41.3772 52.538Z" fill="#282828"/>
<path d="M45.3984 36.0593C44.9976 36.0593 44.6328 35.7901 44.5281 35.3834C44.4055 34.9019 44.6956 34.4144 45.1771 34.2918L50.2613 32.9998C50.7428 32.8772 51.2303 33.1673 51.3529 33.6488C51.4755 34.1303 51.1854 34.6178 50.7039 34.7404L45.6197 36.0324C45.5449 36.0503 45.4702 36.0593 45.3984 36.0593Z" fill="#282828"/>
<path d="M28.1232 36.0593C28.0514 36.0593 27.9767 36.0503 27.9019 36.0324L22.8177 34.7404C22.3362 34.6178 22.0461 34.1303 22.1687 33.6488C22.2913 33.1673 22.7788 32.8772 23.2603 32.9998L28.3445 34.2918C28.826 34.4144 29.1162 34.9019 28.9935 35.3834C28.8918 35.7901 28.524 36.0593 28.1232 36.0593Z" fill="#282828"/>
<path d="M9.59267 50.1492C9.2308 50.1492 8.88986 49.9279 8.75228 49.569C8.57583 49.1054 8.8091 48.588 9.27267 48.4116C11.2406 47.6639 13.6451 47.1375 16.0436 46.9252C16.5401 46.8833 16.9737 47.2452 17.0156 47.7386C17.0605 48.2321 16.6956 48.6688 16.2021 48.7106C13.9621 48.908 11.728 49.3985 9.90969 50.0893C9.80501 50.1282 9.69735 50.1492 9.59267 50.1492Z" fill="#DD87D6"/>
<path d="M16.1242 44.745C16.0405 44.745 15.9538 44.7331 15.87 44.7092C13.9141 44.129 11.9193 43.8329 10.2504 43.8718C9.751 43.8837 9.34426 43.4919 9.3323 42.9955C9.32034 42.499 9.71213 42.0893 10.2086 42.0773C12.0598 42.0325 14.2491 42.3585 16.3784 42.9865C16.854 43.1271 17.1261 43.6265 16.9855 44.102C16.8689 44.4908 16.513 44.745 16.1242 44.745Z" fill="#DD87D6"/>
<path d="M63.9277 50.1496C63.823 50.1496 63.7153 50.1317 63.6106 50.0898C61.7923 49.3989 59.5582 48.9114 57.3182 48.7111C56.8247 48.6662 56.4598 48.2325 56.5047 47.7391C56.5496 47.2456 56.9862 46.8807 57.4767 46.9256C59.8752 47.1379 62.2798 47.6673 64.2477 48.412C64.7112 48.5884 64.9445 49.1058 64.7681 49.5694C64.6305 49.9283 64.2925 50.1496 63.9277 50.1496Z" fill="#DD87D6"/>
<path d="M57.3954 44.7451C57.0096 44.7451 56.6507 44.4939 56.5341 44.1021C56.3935 43.6266 56.6657 43.1271 57.1412 42.9865C59.2706 42.3555 61.4598 42.0325 63.3111 42.0774C63.8075 42.0893 64.1993 42.499 64.1873 42.9955C64.1754 43.483 63.7776 43.8718 63.2901 43.8718C63.2841 43.8718 63.2752 43.8718 63.2692 43.8718C61.6004 43.8299 59.6056 44.129 57.6496 44.7092C57.5659 44.7331 57.4791 44.7451 57.3954 44.7451Z" fill="#DD87D6"/>
<path d="M36.4272 104.6C37.0105 104.6 37.4457 104.543 38.0616 104.435C37.9668 116.996 41.872 116.999 45.0726 116.996C48.4626 116.993 50.2716 116.996 52.8001 110.783C54.5558 106.468 55.7164 102.051 56.1605 96.7108C56.1753 96.5488 56.3855 96.5009 56.4566 96.6448C57.1553 98.0511 58.8725 99.7123 61.6379 98.9986C65.1493 98.0931 66.5852 93.8772 66.8221 89.3314C67.3106 80.03 62.1945 68.7736 56.8059 64.5098H16.0485C10.66 68.7736 5.54387 80.033 6.03239 89.3314C6.26925 93.8772 7.70816 98.0931 11.2166 98.9986C13.982 99.7123 15.6992 98.0511 16.3979 96.6448C16.469 96.5009 16.6792 96.5488 16.694 96.7108C17.1381 102.051 18.2957 106.465 20.0544 110.783C22.5829 116.996 24.3919 116.993 27.7819 116.996C30.9825 116.996 34.8906 116.996 34.7929 104.435C35.4088 104.543 35.841 104.6 36.4272 104.6Z" fill="#FAB8FF"/>
<path d="M35.8841 99.5011C41.5856 99.5011 46.2076 93.8712 46.2076 86.9263C46.2076 79.9815 41.5856 74.3516 35.8841 74.3516C30.1825 74.3516 25.5605 79.9815 25.5605 86.9263C25.5605 93.8712 30.1825 99.5011 35.8841 99.5011Z" fill="#F9E0FF"/>
<path d="M15.9089 96.5061C15.6761 96.5061 15.4821 96.3258 15.4642 96.0913C14.7569 86.9936 16.8818 80.7631 16.9743 80.5046C17.0549 80.2701 17.3115 80.1469 17.5443 80.2281C17.7771 80.3092 17.8994 80.5677 17.8188 80.8021C17.798 80.8652 15.6642 87.1258 16.3565 96.0222C16.3744 96.2717 16.1924 96.4881 15.9447 96.5061C15.9328 96.5061 15.9208 96.5061 15.9089 96.5061Z" fill="#E59AE6"/>
<path d="M56.3976 96.5061C56.3976 96.5061 56.3737 96.5061 56.3618 96.5061C56.1141 96.4881 55.9321 96.2687 55.95 96.0222C56.6453 87.1108 54.5115 80.8652 54.4877 80.8021C54.4071 80.5677 54.5294 80.3092 54.7622 80.2281C54.995 80.1469 55.2516 80.2701 55.3322 80.5046C55.4218 80.7661 57.5496 86.9936 56.8423 96.0913C56.8244 96.3288 56.6274 96.5061 56.3976 96.5061Z" fill="#E59AE6"/>
</svg>
