<svg width="54" height="53" viewBox="0 0 54 53" fill="none" xmlns="http://www.w3.org/2000/svg">
<path d="M27.0733 10.3818C27.4521 10.3818 27.7959 10.384 28.1134 10.3906C29.3659 10.4103 30.1783 10.4694 30.8089 10.5263C31.3717 10.5767 31.7921 10.6271 32.2563 10.6512C36.6511 6.19882 40.0955 0.75 44.8691 0.75C50.0587 0.75 51.2323 12.0112 51.9002 18.4718C60.2189 44.6362 41.9129 52.6868 27.0711 52.6868C12.2293 52.6868 -6.07448 44.6362 2.24203 18.4718C2.91427 12.0112 4.08576 0.75 9.27537 0.75C14.0489 0.75 17.4955 6.19882 21.8881 10.6534C22.3523 10.6293 22.7727 10.5789 23.3355 10.5285C23.9683 10.4716 24.7807 10.4125 26.031 10.3927C26.3463 10.3862 26.6923 10.384 27.0711 10.384L27.0733 10.3818Z" fill="#FFB6FF"/>
<path d="M9.50354 5.73201C7.78243 6.03862 6.62627 12.7555 6.63284 15.5872C6.63284 15.8325 6.89997 15.977 7.10143 15.8434C10.4517 13.6315 12.5582 12.9285 16.1186 12.0371C16.2938 11.9933 16.3836 11.7919 16.296 11.6298C15.0019 9.27988 11.4502 5.38599 9.50354 5.72982V5.73201Z" fill="#F395EC"/>
<path d="M44.6389 5.73201C46.36 6.03862 47.5162 12.7555 47.5097 15.5872C47.5097 15.8325 47.2425 15.977 47.0411 15.8434C43.6908 13.6315 41.5843 12.9285 38.0238 12.0371C37.8487 11.9933 37.7589 11.7919 37.8465 11.6298C39.1406 9.27988 42.6923 5.38599 44.6389 5.72982V5.73201Z" fill="#F395EC"/>
<path d="M18.0407 34.652C19.6764 34.652 21.0384 33.2876 21.0384 31.6385C21.0384 29.9894 19.6764 28.625 18.0407 28.625C16.405 28.625 15.043 29.9894 15.043 31.6385C15.043 33.2876 16.405 34.652 18.0407 34.652Z" fill="#282828"/>
<path d="M36.111 34.652C34.4753 34.652 33.1133 33.2876 33.1133 31.6385C33.1133 29.9894 34.4753 28.625 36.111 28.625C37.7467 28.625 39.1087 29.9894 39.1087 31.6385C39.1087 33.2876 37.7467 34.652 36.111 34.652Z" fill="#282828"/>
<path d="M27.0699 32.6958C26.1393 32.6958 24.8408 33.044 25.1802 34.1478C25.5021 35.2012 26.7021 35.6633 27.0699 35.6633C27.4378 35.6633 28.6378 35.2012 28.9597 34.1478C29.2991 33.0418 28.0006 32.6958 27.0699 32.6958Z" fill="#282828"/>
<path d="M27.0671 38.2146C26.7036 38.2146 26.4102 37.9211 26.4102 37.5576V34.7915C26.4102 34.428 26.7036 34.1345 27.0671 34.1345C27.4306 34.1345 27.724 34.428 27.724 34.7915V37.5576C27.724 37.9211 27.4306 38.2146 27.0671 38.2146Z" fill="#282828"/>
<path d="M30.4479 39.2222C30.3866 39.2222 30.3231 39.2134 30.2596 39.1937C28.2056 38.5805 25.9262 38.5805 23.8722 39.1937C23.524 39.2989 23.1584 39.0996 23.0554 38.7535C22.9503 38.4053 23.1496 38.0396 23.4956 37.9367C25.7926 37.249 28.3392 37.249 30.6362 37.9367C30.9844 38.0396 31.1814 38.4075 31.0763 38.7535C30.9909 39.0382 30.7304 39.2222 30.4479 39.2222Z" fill="#282828"/>
<path d="M33.3843 27.155C33.0909 27.155 32.8238 26.9579 32.7471 26.6601C32.6574 26.3075 32.8698 25.9505 33.2223 25.8607L36.9448 24.9146C37.2973 24.8248 37.6543 25.0373 37.744 25.3899C37.8338 25.7425 37.6214 26.0994 37.2689 26.1892L33.5464 27.1353C33.4916 27.1485 33.4369 27.155 33.3843 27.155Z" fill="#282828"/>
<path d="M20.7396 27.155C20.6871 27.155 20.6324 27.1485 20.5776 27.1353L16.8551 26.1892C16.5026 26.0994 16.2902 25.7425 16.3799 25.3899C16.4697 25.0373 16.8266 24.8248 17.1792 24.9146L20.9017 25.8607C21.2542 25.9505 21.4666 26.3075 21.3769 26.6601C21.3024 26.9579 21.0331 27.155 20.7396 27.155Z" fill="#282828"/>
<path d="M7.17798 37.4729C6.91303 37.4729 6.6634 37.3108 6.56267 37.048C6.43348 36.7086 6.60428 36.3297 6.94368 36.2005C8.38451 35.653 10.145 35.2675 11.9012 35.112C12.2647 35.0814 12.5822 35.3464 12.6128 35.7077C12.6457 36.0691 12.3785 36.3888 12.0172 36.4195C10.3771 36.564 8.74143 36.9232 7.41009 37.4291C7.33345 37.4576 7.25462 37.4729 7.17798 37.4729Z" fill="#DD87D6"/>
<path d="M11.9613 33.5156C11.9 33.5156 11.8365 33.5068 11.7752 33.4893C10.3431 33.0644 8.88257 32.8476 7.66072 32.8761C7.29504 32.8849 6.99724 32.598 6.98848 32.2344C6.97972 31.8709 7.26658 31.5708 7.63007 31.5621C8.9855 31.5292 10.5884 31.7679 12.1474 32.2278C12.4956 32.3308 12.6949 32.6965 12.5919 33.0447C12.5065 33.3294 12.246 33.5156 11.9613 33.5156Z" fill="#DD87D6"/>
<path d="M46.9649 37.473C46.8883 37.473 46.8095 37.4598 46.7328 37.4292C45.4015 36.9233 43.7658 36.5663 42.1257 36.4196C41.7644 36.3867 41.4972 36.0692 41.5301 35.7078C41.5629 35.3464 41.8826 35.0793 42.2417 35.1121C43.9979 35.2676 45.7584 35.6552 47.1992 36.2006C47.5386 36.3298 47.7094 36.7086 47.5802 37.0481C47.4795 37.3109 47.2321 37.473 46.9649 37.473Z" fill="#DD87D6"/>
<path d="M42.1812 33.5156C41.8987 33.5156 41.6359 33.3317 41.5505 33.0448C41.4476 32.6965 41.6469 32.3308 41.9951 32.2279C43.5541 31.7658 45.157 31.5292 46.5124 31.5621C46.8759 31.5709 47.1628 31.8709 47.154 32.2344C47.1452 32.5914 46.854 32.8761 46.4971 32.8761C46.4927 32.8761 46.4861 32.8761 46.4818 32.8761C45.2599 32.8455 43.7994 33.0645 42.3673 33.4893C42.306 33.5069 42.2425 33.5156 42.1812 33.5156Z" fill="#DD87D6"/>
</svg>
