<svg width="74" height="117" viewBox="0 0 74 117" fill="none" xmlns="http://www.w3.org/2000/svg">
<path d="M36.7543 13.1535C37.2717 13.1535 37.7412 13.1565 38.1749 13.1654C39.8856 13.1923 40.9952 13.2731 41.8566 13.3509C42.6252 13.4196 43.1994 13.4884 43.8335 13.5213C49.836 7.44107 54.5435 0 61.0634 0C68.1515 0 69.7546 15.3786 70.6668 24.2014C82.0288 59.9323 57.0258 70.9264 36.7543 70.9264C16.4828 70.9264 -8.51719 59.9293 2.8448 24.2014C3.75699 15.3786 5.35706 0 12.4482 0C18.9681 0 23.6726 7.44107 29.6751 13.5243C30.3092 13.4914 30.8834 13.4226 31.652 13.3538C32.5164 13.2761 33.6259 13.1953 35.3337 13.1684C35.7643 13.1594 36.2369 13.1565 36.7543 13.1565V13.1535Z" fill="#FFB6FF"/>
<path d="M12.7588 6.8036C10.4081 7.22231 8.82896 16.395 8.83793 20.2621C8.83793 20.5971 9.2028 20.7945 9.47796 20.612C14.0539 17.5914 16.931 16.6313 21.794 15.4141C22.0333 15.3542 22.1559 15.0791 22.0363 14.8578C20.2687 11.6487 15.4177 6.33106 12.7588 6.80061V6.8036Z" fill="#F395EC"/>
<path d="M60.7476 6.8036C63.0984 7.22231 64.6775 16.395 64.6686 20.2621C64.6686 20.5971 64.3037 20.7945 64.0285 20.612C59.4526 17.5914 56.5755 16.6313 51.7125 15.4141C51.4732 15.3542 51.3506 15.0791 51.4702 14.8578C53.2378 11.6487 58.0888 6.33106 60.7476 6.80061V6.8036Z" fill="#F395EC"/>
<path d="M9.58586 50.1492C9.22397 50.1492 8.88303 49.9279 8.74545 49.569C8.56899 49.1055 8.80227 48.588 9.26585 48.4116C11.2338 47.6639 13.6384 47.1375 16.037 46.9252C16.5335 46.8833 16.9671 47.2452 17.009 47.7387C17.0538 48.2321 16.689 48.6688 16.1955 48.7107C13.9554 48.9081 11.7213 49.3985 9.90288 50.0894C9.79821 50.1283 9.69054 50.1492 9.58586 50.1492Z" fill="#DD87D6"/>
<path d="M16.1175 44.7451C16.0338 44.7451 15.9471 44.7331 15.8633 44.7092C13.9073 44.129 11.9095 43.8329 10.2436 43.8718C9.74417 43.8838 9.33743 43.492 9.32546 42.9955C9.3135 42.499 9.70529 42.0893 10.2018 42.0773C12.0531 42.0325 14.2423 42.3585 16.3717 42.9865C16.8473 43.1271 17.1194 43.6266 16.9789 44.1021C16.8622 44.4909 16.5063 44.7451 16.1175 44.7451Z" fill="#DD87D6"/>
<path d="M63.923 50.1497C63.8183 50.1497 63.7106 50.1317 63.6059 50.0899C61.7875 49.399 59.5534 48.9115 57.3133 48.7111C56.8198 48.6662 56.455 48.2326 56.4998 47.7391C56.5447 47.2456 56.9813 46.8807 57.4718 46.9256C59.8704 47.138 62.275 47.6673 64.243 48.412C64.7065 48.5885 64.9398 49.1059 64.7634 49.5695C64.6258 49.9284 64.2848 50.1497 63.923 50.1497Z" fill="#DD87D6"/>
<path d="M57.3905 44.7451C57.0047 44.7451 56.6458 44.4939 56.5292 44.1021C56.3886 43.6266 56.6608 43.1271 57.1363 42.9866C59.2658 42.3555 61.458 42.0325 63.3063 42.0774C63.8028 42.0893 64.1946 42.4991 64.1826 42.9955C64.1707 43.492 63.7549 43.8868 63.2644 43.8718C61.5956 43.8329 59.6007 44.129 57.6448 44.7092C57.561 44.7332 57.4743 44.7451 57.3905 44.7451Z" fill="#DD87D6"/>
<path d="M53.2303 45.1418C53.1107 45.1418 52.9881 45.1179 52.8714 45.067C50.5506 44.0532 47.6944 43.455 45.8042 43.0602C45.4902 42.9944 45.233 42.7641 45.1343 42.4591C45.0356 42.154 45.1074 41.8161 45.3257 41.5798C46.8839 39.872 50.0332 37.8473 52.2015 37.1594C52.674 37.0099 53.1795 37.2701 53.329 37.7426C53.4786 38.2152 53.2184 38.7206 52.7458 38.8701C51.3431 39.3158 49.3423 40.4911 47.8708 41.6695C49.6384 42.0673 51.7439 42.6176 53.5922 43.4221C54.0468 43.6195 54.2532 44.1489 54.0558 44.6035C53.9092 44.9414 53.5802 45.1418 53.2333 45.1418H53.2303Z" fill="#282828"/>
<path d="M20.2782 45.142C19.9312 45.142 19.6022 44.9416 19.4557 44.6036C19.2583 44.149 19.4647 43.6196 19.9193 43.4223C21.7646 42.6177 23.8731 42.0674 25.6406 41.6697C24.1692 40.4913 22.1683 39.3129 20.7656 38.8703C20.2931 38.7207 20.0329 38.2153 20.1824 37.7428C20.332 37.2702 20.8374 37.007 21.31 37.1596C23.4783 37.8474 26.6276 39.8722 28.1858 41.5799C28.4041 41.8162 28.4759 42.1542 28.3772 42.4592C28.2785 42.7643 28.0213 42.9946 27.7073 43.0604C25.8171 43.4552 22.9609 44.0563 20.64 45.0672C20.5234 45.118 20.4008 45.142 20.2811 45.142H20.2782Z" fill="#282828"/>
<path d="M36.7541 43.626C35.483 43.626 33.7095 44.1015 34.1731 45.6089C34.6127 47.0474 36.2517 47.6785 36.7541 47.6785C37.2566 47.6785 38.8955 47.0474 39.3352 45.6089C39.7987 44.0985 38.0252 43.626 36.7541 43.626Z" fill="#282828"/>
<path d="M36.7545 50.8395C36.3418 50.8395 36.0068 50.5046 36.0068 50.0918V46.4879C36.0068 46.0752 36.3418 45.7402 36.7545 45.7402C37.1673 45.7402 37.5022 46.0752 37.5022 46.4879V50.0918C37.5022 50.5046 37.1673 50.8395 36.7545 50.8395Z" fill="#282828"/>
<path d="M44.3241 50.0772C44.2912 49.7542 44.0011 49.5239 43.6781 49.5568C41.9166 49.7333 39.9068 50.0922 36.7575 50.0922C33.6082 50.0922 31.5954 49.7333 29.8368 49.5568C29.5138 49.5239 29.2237 49.7572 29.1908 50.0772C29.104 50.9266 29.1728 52.1558 29.2775 52.7839C29.5915 54.6801 30.2854 56.2083 31.2754 57.3448C32.041 55.9063 33.7158 54.9313 36.7575 54.9313C39.7991 54.9313 41.4769 55.9033 42.2396 57.3448C43.2295 56.2113 43.9234 54.683 44.2374 52.7839C44.3421 52.1528 44.4109 50.9236 44.3241 50.0772Z" fill="#973472"/>
<path d="M36.7546 54.9316C33.7099 54.9316 32.0351 55.9036 31.2725 57.3452C32.6153 58.8825 34.5055 59.696 36.7546 59.696C39.0036 59.696 40.8938 58.8825 42.2367 57.3452C41.471 55.9066 39.7962 54.9316 36.7546 54.9316Z" fill="#E65BA6"/>
<path d="M36.4272 104.6C37.0105 104.6 37.4457 104.543 38.0616 104.435C37.9668 116.996 41.872 116.999 45.0726 116.996C48.4626 116.993 50.2716 116.996 52.8001 110.783C54.5558 106.468 55.7164 102.051 56.1605 96.7108C56.1753 96.5488 56.3855 96.5009 56.4566 96.6448C57.1553 98.0511 58.8725 99.7123 61.6379 98.9986C65.1493 98.0931 66.5852 93.8772 66.8221 89.3314C67.3106 80.03 62.1945 68.7736 56.8059 64.5098H16.0485C10.66 68.7736 5.54387 80.033 6.03239 89.3314C6.26925 93.8772 7.70816 98.0931 11.2166 98.9986C13.982 99.7123 15.6992 98.0511 16.3979 96.6448C16.469 96.5009 16.6792 96.5488 16.694 96.7108C17.1381 102.051 18.2957 106.465 20.0544 110.783C22.5829 116.996 24.3919 116.993 27.7819 116.996C30.9825 116.996 34.8906 116.996 34.7929 104.435C35.4088 104.543 35.841 104.6 36.4272 104.6Z" fill="#FAB8FF"/>
<path d="M35.8841 99.5011C41.5856 99.5011 46.2076 93.8712 46.2076 86.9263C46.2076 79.9815 41.5856 74.3516 35.8841 74.3516C30.1825 74.3516 25.5605 79.9815 25.5605 86.9263C25.5605 93.8712 30.1825 99.5011 35.8841 99.5011Z" fill="#F9E0FF"/>
<path d="M15.9089 96.5061C15.6761 96.5061 15.4821 96.3258 15.4642 96.0913C14.7569 86.9936 16.8818 80.7631 16.9743 80.5046C17.0549 80.2701 17.3115 80.1469 17.5443 80.2281C17.7771 80.3092 17.8994 80.5677 17.8188 80.8021C17.798 80.8652 15.6642 87.1258 16.3565 96.0222C16.3744 96.2717 16.1924 96.4881 15.9447 96.5061C15.9328 96.5061 15.9208 96.5061 15.9089 96.5061Z" fill="#E59AE6"/>
<path d="M56.3976 96.5061C56.3976 96.5061 56.3737 96.5061 56.3618 96.5061C56.1141 96.4881 55.9321 96.2687 55.95 96.0222C56.6453 87.1108 54.5115 80.8652 54.4877 80.8021C54.4071 80.5677 54.5294 80.3092 54.7622 80.2281C54.995 80.1469 55.2516 80.2701 55.3322 80.5046C55.4218 80.7661 57.5496 86.9936 56.8423 96.0913C56.8244 96.3288 56.6274 96.5061 56.3976 96.5061Z" fill="#E59AE6"/>
</svg>
