<svg width="54" height="53" viewBox="0 0 54 53" fill="none" xmlns="http://www.w3.org/2000/svg">
<path d="M26.911 10.3818C27.2898 10.3818 27.6336 10.384 27.9511 10.3906C29.2036 10.4103 30.016 10.4694 30.6466 10.5263C31.2094 10.5767 31.6298 10.6271 32.094 10.6512C36.4887 6.19882 39.9331 0.75 44.7089 0.75C49.8985 0.75 51.0722 12.0112 51.74 18.4718C60.0587 44.6362 41.7528 52.6868 26.911 52.6868C12.0691 52.6868 -6.23464 44.6362 2.08187 18.4718C2.75192 12.0112 3.92343 0.75 9.11522 0.75C13.8888 0.75 17.3354 6.19882 21.7279 10.6534C22.1921 10.6293 22.6126 10.5789 23.1753 10.5285C23.8081 10.4716 24.6205 10.4125 25.8709 10.3927C26.1862 10.3862 26.5322 10.384 26.911 10.384V10.3818Z" fill="#FFB6FF"/>
<path d="M9.34729 5.73201C7.62618 6.03862 6.47002 12.7555 6.47659 15.5872C6.47659 15.8325 6.74374 15.977 6.94519 15.8434C10.2954 13.6315 12.402 12.9285 15.9624 12.0371C16.1376 11.9933 16.2274 11.7919 16.1398 11.6298C14.8457 9.27988 11.2939 5.38599 9.34729 5.72982V5.73201Z" fill="#F395EC"/>
<path d="M44.4827 5.73201C46.2038 6.03862 47.36 12.7555 47.3534 15.5872C47.3534 15.8325 47.0863 15.977 46.8848 15.8434C43.5346 13.6315 41.428 12.9285 37.8676 12.0371C37.6924 11.9933 37.6026 11.7919 37.6902 11.6298C38.9843 9.27988 42.5361 5.38599 44.4827 5.72982V5.73201Z" fill="#F395EC"/>
<path d="M17.8766 34.652C19.5123 34.652 20.8743 33.2876 20.8743 31.6385C20.8743 29.9894 19.5123 28.625 17.8766 28.625C16.2409 28.625 14.8789 29.9894 14.8789 31.6385C14.8789 33.2876 16.2409 34.652 17.8766 34.652Z" fill="#282828"/>
<path d="M35.9469 34.652C34.3112 34.652 32.9492 33.2876 32.9492 31.6385C32.9492 29.9894 34.3112 28.625 35.9469 28.625C37.5827 28.625 38.9446 29.9894 38.9446 31.6385C38.9446 33.2876 37.5827 34.652 35.9469 34.652Z" fill="#282828"/>
<path d="M26.9098 32.696C25.9792 32.696 24.6807 33.0443 25.0201 34.148C25.342 35.2015 26.5419 35.6636 26.9098 35.6636C27.2777 35.6636 28.4776 35.2015 28.7995 34.148C29.1389 33.0421 27.8404 32.696 26.9098 32.696Z" fill="#282828"/>
<path d="M26.9107 38.2283C26.6085 38.2283 26.3633 37.983 26.3633 37.6808V34.7899C26.3633 34.4877 26.6085 34.2424 26.9107 34.2424C27.2129 34.2424 27.4581 34.4877 27.4581 34.7899V37.6808C27.4581 37.983 27.2129 38.2283 26.9107 38.2283Z" fill="#282828"/>
<path d="M7.01781 37.473C6.75286 37.473 6.50324 37.3109 6.40252 37.0481C6.27333 36.7086 6.44412 36.3298 6.78352 36.2006C8.22435 35.653 9.98488 35.2676 11.741 35.1121C12.1001 35.0793 12.422 35.3464 12.4527 35.7078C12.4833 36.0692 12.2184 36.3889 11.8571 36.4196C10.217 36.5641 8.58128 36.9233 7.24993 37.4292C7.17329 37.4576 7.09445 37.473 7.01781 37.473Z" fill="#DD87D6"/>
<path d="M11.8012 33.5156C11.7399 33.5156 11.6763 33.5069 11.615 33.4893C10.1829 33.0645 8.72024 32.8477 7.50058 32.8761C7.14365 32.8936 6.83708 32.598 6.82832 32.2344C6.81956 31.8709 7.10642 31.5709 7.46992 31.5621C8.81878 31.5292 10.4282 31.7658 11.9873 32.2279C12.3354 32.3308 12.5347 32.6965 12.4318 33.0448C12.3464 33.3295 12.0858 33.5156 11.8012 33.5156Z" fill="#DD87D6"/>
<path d="M46.8087 37.473C46.7321 37.473 46.6532 37.4598 46.5766 37.4292C45.2452 36.9233 43.6095 36.5663 41.9694 36.4196C41.6081 36.3867 41.341 36.0692 41.3738 35.7078C41.4067 35.3464 41.7264 35.0793 42.0855 35.1121C43.8416 35.2676 45.6022 35.6552 47.043 36.2006C47.3824 36.3298 47.5532 36.7086 47.424 37.0481C47.3233 37.3109 47.0758 37.473 46.8087 37.473Z" fill="#DD87D6"/>
<path d="M42.0249 33.5156C41.7425 33.5156 41.4797 33.3317 41.3943 33.0448C41.2914 32.6965 41.4906 32.3308 41.8388 32.2279C43.3978 31.7658 45.0029 31.5292 46.3583 31.5621C46.7218 31.5709 47.0087 31.8709 46.9999 32.2344C46.9912 32.5914 46.6999 32.8761 46.343 32.8761C46.3386 32.8761 46.3321 32.8761 46.3277 32.8761C45.108 32.8477 43.6453 33.0645 42.2132 33.4893C42.1519 33.5069 42.0884 33.5156 42.0271 33.5156H42.0249Z" fill="#DD87D6"/>
<path d="M45.1822 24.7221C45.5938 22.8825 46.0822 21.8444 46.0318 19.9237C46.0296 19.8361 46.126 19.7792 46.2004 19.8252C48.1076 21.0341 49.8616 22.7861 50.3258 24.7462C50.79 26.7063 49.7828 28.1013 48.2456 28.2919C46.7084 28.4824 44.5625 27.5056 45.1844 24.7199L45.1822 24.7221Z" fill="#CBEAFF"/>
<path d="M31.0732 40.784C31.0732 40.8804 31.0688 40.9746 31.0579 41.0687C30.9988 41.6206 30.4514 41.9842 29.9171 41.8309C29.0259 41.5724 27.9354 41.4213 26.7573 41.4213C25.5792 41.4213 24.4888 41.5724 23.5976 41.8309C23.0633 41.9864 22.5137 41.6228 22.4567 41.0687C22.448 40.9746 22.4414 40.8804 22.4414 40.7862C22.4414 38.9181 24.3727 37.4048 26.7573 37.4048C29.1419 37.4048 31.0732 38.9181 31.0732 40.7862V40.784Z" fill="#973472"/>
</svg>
