<svg width="74" height="117" viewBox="0 0 74 117" fill="none" xmlns="http://www.w3.org/2000/svg">
<path d="M36.7566 13.1532C36.2392 13.1532 35.7696 13.1562 35.336 13.1651C33.6253 13.192 32.5158 13.2728 31.6544 13.3505C30.8858 13.4193 30.3116 13.4881 29.6776 13.521C23.6752 7.4409 18.9678 0 12.4481 0C5.36009 0 3.75703 15.3783 2.84486 24.2009C-8.51686 59.9309 16.4855 70.9248 36.7566 70.9248C57.0276 70.9248 82.027 59.9309 70.6683 24.2009C69.7531 15.3783 68.1501 0 61.0621 0C54.5424 0 49.835 7.4409 43.8356 13.524C43.2016 13.4911 42.6274 13.4223 41.8588 13.3535C40.9944 13.2758 39.8849 13.195 38.1772 13.1681C37.7465 13.1591 37.274 13.1562 36.7566 13.1562V13.1532Z" fill="#FFB6FF"/>
<path d="M60.751 6.8036C63.1017 7.2223 64.6808 16.3948 64.6718 20.2618C64.6718 20.5968 64.307 20.7942 64.0318 20.6117C59.456 17.5911 56.5789 16.6311 51.716 15.4139C51.4768 15.3541 51.3542 15.0789 51.4738 14.8576C53.2413 11.6486 58.0923 6.33107 60.751 6.80061V6.8036Z" fill="#F395EC"/>
<path d="M12.7623 6.8036C10.4116 7.2223 8.83253 16.3948 8.8415 20.2618C8.8415 20.5968 9.20638 20.7942 9.48152 20.6117C14.0573 17.5911 16.9344 16.6311 21.7973 15.4139C22.0366 15.3541 22.1592 15.0789 22.0395 14.8576C20.272 11.6486 15.4211 6.33107 12.7623 6.80061V6.8036Z" fill="#F395EC"/>
<path d="M49.0961 46.2969C46.8621 46.2969 45.0019 44.4336 45.0019 42.1816C45.0019 39.9296 46.8621 38.0664 49.0961 38.0664C51.3302 38.0664 53.1904 39.9296 53.1904 42.1816C53.1904 44.4336 51.3302 46.2969 49.0961 46.2969Z" fill="#282828"/>
<path d="M24.4174 46.2969C26.6515 46.2969 28.5117 44.4336 28.5117 42.1816C28.5117 39.9296 26.6515 38.0664 24.4174 38.0664C22.1833 38.0664 20.3231 39.9296 20.3231 42.1816C20.3231 44.4336 22.1833 46.2969 24.4174 46.2969Z" fill="#282828"/>
<path d="M36.7557 43.626C38.0268 43.626 39.8002 44.1015 39.3367 45.6088C38.8971 47.0474 37.2581 47.6784 36.7557 47.6784C36.2533 47.6784 34.6143 47.0474 34.1747 45.6088C33.7111 44.0985 35.4846 43.626 36.7557 43.626Z" fill="#282828"/>
<path d="M36.7571 51.1625C37.2535 51.1625 37.6543 50.7618 37.6543 50.2653V46.488C37.6543 45.9916 37.2535 45.5908 36.7571 45.5908C36.2606 45.5908 35.8599 45.9916 35.8599 46.488V50.2653C35.8599 50.7618 36.2606 51.1625 36.7571 51.1625Z" fill="#282828"/>
<path d="M34.0977 52.0825C34.1455 52.0825 34.1964 52.0796 34.2443 52.0706C35.8922 51.7984 37.6178 51.7984 39.2657 52.0706C39.7531 52.1513 40.2167 51.8194 40.2975 51.3319C40.3782 50.8444 40.0462 50.3808 39.5587 50.3001C37.7194 49.995 35.7934 49.995 33.9511 50.3001C33.4637 50.3808 33.1317 50.8414 33.2124 51.3319C33.2842 51.7715 33.664 52.0825 34.0977 52.0825Z" fill="#282828"/>
<path d="M63.92 50.1496C64.2819 50.1496 64.6228 49.9283 64.7604 49.5694C64.9369 49.1058 64.7036 48.5884 64.24 48.412C62.2721 47.6643 59.8676 47.1379 57.469 46.9256C56.9786 46.8807 56.5389 47.2456 56.4971 47.7391C56.4552 48.2325 56.8171 48.6692 57.3106 48.7111C59.5506 48.9084 61.7847 49.3989 63.603 50.0898C63.7077 50.1287 63.8154 50.1496 63.92 50.1496Z" fill="#DD87D6"/>
<path d="M57.3904 44.7451C57.4742 44.7451 57.5609 44.7331 57.6447 44.7092C59.6006 44.129 61.5954 43.8299 63.2642 43.8718C63.7606 43.8957 64.1704 43.492 64.1824 42.9955C64.1943 42.499 63.8025 42.0893 63.3061 42.0774C61.4548 42.0325 59.2656 42.3555 57.1332 42.9865C56.6577 43.1271 56.3855 43.6266 56.5261 44.1021C56.6427 44.4909 56.9986 44.7451 57.3874 44.7451H57.3904Z" fill="#DD87D6"/>
<path d="M9.58697 50.1496C9.69164 50.1496 9.79933 50.1317 9.904 50.0898C11.7224 49.3989 13.9564 48.9114 16.1964 48.7111C16.6899 48.6662 17.0548 48.2325 17.0099 47.7391C16.9651 47.2456 16.5314 46.8807 16.038 46.9256C13.6394 47.1379 11.2349 47.6673 9.26698 48.412C8.80342 48.5884 8.57015 49.1058 8.7466 49.5694C8.88417 49.9283 9.2221 50.1496 9.58697 50.1496Z" fill="#DD87D6"/>
<path d="M16.1192 44.7451C16.505 44.7451 16.8639 44.4939 16.9806 44.1021C17.1211 43.6266 16.849 43.1271 16.3735 42.9865C14.2441 42.3555 12.0549 42.0325 10.2036 42.0774C9.70717 42.0893 9.31537 42.499 9.32734 42.9955C9.3393 43.483 9.73706 43.8718 10.2246 43.8718C10.2305 43.8718 10.2395 43.8718 10.2455 43.8718C11.9173 43.8299 13.9091 44.129 15.865 44.7092C15.9488 44.7331 16.0355 44.7451 16.1192 44.7451Z" fill="#DD87D6"/>
<path d="M37.0845 104.6C36.5012 104.6 36.066 104.543 35.4502 104.435C35.5449 116.996 31.6397 116.999 28.4391 116.996C25.0491 116.993 23.2401 116.996 20.7116 110.783C18.9559 106.468 17.7953 102.051 17.3512 96.7108C17.3364 96.5488 17.1262 96.5009 17.0551 96.6448C16.3564 98.0511 14.6392 99.7123 11.8739 98.9986C8.36243 98.0931 6.92648 93.8772 6.68962 89.3314C6.2011 80.03 11.3172 68.7736 16.7058 64.5098H57.4632C62.8517 68.7736 67.9678 80.033 67.4793 89.3314C67.2425 93.8772 65.8036 98.0931 62.2951 98.9986C59.5298 99.7123 57.8125 98.0511 57.1138 96.6448C57.0428 96.5009 56.8325 96.5488 56.8177 96.7108C56.3736 102.051 55.216 106.465 53.4573 110.783C50.9288 116.996 49.1198 116.993 45.7298 116.996C42.5293 116.996 38.6211 116.996 38.7188 104.435C38.103 104.543 37.6707 104.6 37.0845 104.6Z" fill="#FAB8FF"/>
<path d="M37.6276 99.5011C31.9261 99.5011 27.3041 93.8712 27.3041 86.9263C27.3041 79.9815 31.9261 74.3516 37.6276 74.3516C43.3292 74.3516 47.9512 79.9815 47.9512 86.9263C47.9512 93.8712 43.3292 99.5011 37.6276 99.5011Z" fill="#F9E0FF"/>
<path d="M57.6028 96.5061C57.8356 96.5061 58.0296 96.3258 58.0475 96.0913C58.7548 86.9936 56.6299 80.7631 56.5374 80.5046C56.4569 80.2701 56.2002 80.1469 55.9674 80.2281C55.7347 80.3092 55.6123 80.5677 55.6929 80.8021C55.7138 80.8652 57.8475 87.1258 57.1552 96.0222C57.1373 96.2717 57.3193 96.4881 57.567 96.5061C57.579 96.5061 57.5909 96.5061 57.6028 96.5061Z" fill="#E59AE6"/>
<path d="M17.1141 96.5061C17.1141 96.5061 17.138 96.5061 17.1499 96.5061C17.3976 96.4881 17.5797 96.2687 17.5617 96.0222C16.8664 87.1108 19.0002 80.8652 19.0241 80.8021C19.1046 80.5677 18.9823 80.3092 18.7495 80.2281C18.5167 80.1469 18.2601 80.2701 18.1795 80.5046C18.09 80.7661 15.9622 86.9936 16.6694 96.0913C16.6873 96.3288 16.8843 96.5061 17.1141 96.5061Z" fill="#E59AE6"/>
</svg>
