<svg width="54" height="53" viewBox="0 0 54 53" fill="none" xmlns="http://www.w3.org/2000/svg">
<path d="M26.9097 10.3818C27.2885 10.3818 27.6323 10.384 27.9498 10.3906C29.2023 10.4103 30.0147 10.4694 30.6454 10.5263C31.2081 10.5767 31.6285 10.6271 32.0928 10.6512C36.4875 6.19882 39.9341 0.75 44.7077 0.75C49.8973 0.75 51.0709 12.0112 51.7388 18.4718C60.0575 44.6362 41.7516 52.6868 26.9097 52.6868C12.0679 52.6868 -6.23587 44.634 2.08282 18.4718C2.75068 12.0112 3.92218 0.75 9.11397 0.75C13.8875 0.75 17.3319 6.19882 21.7267 10.6534C22.1909 10.6293 22.6113 10.5789 23.1741 10.5285C23.8069 10.4716 24.6193 10.4125 25.8696 10.3927C26.1849 10.3862 26.5309 10.384 26.9097 10.384V10.3818Z" fill="#FFB6FF"/>
<path d="M9.33948 5.73226C7.61837 6.03886 6.46221 12.7557 6.46878 15.5874C6.46878 15.8327 6.73592 15.9773 6.93737 15.8437C10.2876 13.6317 12.3941 12.9287 15.9546 12.0374C16.1298 11.9936 16.2195 11.7921 16.132 11.63C14.8378 9.28012 11.2861 5.38623 9.33948 5.73007V5.73226Z" fill="#F395EC"/>
<path d="M44.4749 5.73226C46.196 6.03886 47.3522 12.7557 47.3456 15.5874C47.3456 15.8327 47.0784 15.9773 46.877 15.8437C43.5267 13.6317 41.4202 12.9287 37.8598 12.0374C37.6846 11.9936 37.5948 11.7921 37.6824 11.63C38.9765 9.28012 42.5282 5.38623 44.4749 5.73007V5.73226Z" fill="#F395EC"/>
<path d="M7.01783 37.4731C6.75287 37.4731 6.50324 37.3111 6.40252 37.0483C6.27332 36.7088 6.44412 36.3299 6.78353 36.2007C8.22435 35.6532 9.98488 35.2678 11.741 35.1123C12.1045 35.0816 12.422 35.3466 12.4527 35.708C12.4855 36.0693 12.2184 36.3891 11.8571 36.4197C10.217 36.5643 8.58128 36.9234 7.24993 37.4293C7.17329 37.4578 7.09447 37.4731 7.01783 37.4731Z" fill="#DD87D6"/>
<path d="M11.8011 33.5156C11.7398 33.5156 11.6763 33.5068 11.615 33.4893C10.183 33.0644 8.72023 32.8476 7.50056 32.8761C7.13488 32.8849 6.83708 32.598 6.82832 32.2344C6.81956 31.8709 7.10641 31.5708 7.4699 31.5621C8.82533 31.5292 10.4282 31.7679 11.9873 32.2278C12.3354 32.3308 12.5347 32.6965 12.4318 33.0447C12.3464 33.3294 12.0858 33.5156 11.8011 33.5156Z" fill="#DD87D6"/>
<path d="M46.8048 37.473C46.7281 37.473 46.6493 37.4598 46.5727 37.4292C45.2413 36.9233 43.6056 36.5663 41.9655 36.4196C41.6042 36.3867 41.3371 36.0692 41.3699 35.7078C41.4028 35.3464 41.7225 35.0793 42.0816 35.1121C43.8377 35.2676 45.5982 35.6552 47.0391 36.2006C47.3785 36.3298 47.5493 36.7086 47.4201 37.0481C47.3194 37.3109 47.0697 37.473 46.8048 37.473Z" fill="#DD87D6"/>
<path d="M42.021 33.5156C41.7385 33.5156 41.4758 33.3317 41.3904 33.0448C41.2875 32.6965 41.4867 32.3308 41.8349 32.2279C43.394 31.7658 44.999 31.5292 46.3523 31.5621C46.7157 31.5709 47.0026 31.8709 46.9938 32.2344C46.9851 32.598 46.6807 32.8871 46.3216 32.8761C45.0997 32.8477 43.6392 33.0645 42.2071 33.4893C42.1458 33.5069 42.0823 33.5156 42.021 33.5156Z" fill="#DD87D6"/>
<path d="M38.975 33.8066C38.8874 33.8066 38.7976 33.789 38.7122 33.7518C37.013 33.0094 34.9218 32.5714 33.5379 32.2823C33.308 32.2341 33.1197 32.0655 33.0474 31.8421C32.9752 31.6187 33.0277 31.3712 33.1876 31.1982C34.3284 29.9477 36.6342 28.465 38.2217 27.9613C38.5677 27.8518 38.9378 28.0424 39.0472 28.3884C39.1567 28.7344 38.9662 29.1045 38.6202 29.214C37.5933 29.5404 36.1284 30.401 35.051 31.2639C36.3451 31.5552 37.8867 31.9582 39.2399 32.5473C39.5728 32.6918 39.7239 33.0795 39.5793 33.4123C39.472 33.6598 39.2312 33.8066 38.9772 33.8066H38.975Z" fill="#282828"/>
<path d="M14.8484 33.8064C14.5944 33.8064 14.3535 33.6597 14.2462 33.4122C14.1017 33.0793 14.2528 32.6917 14.5856 32.5471C15.9366 31.958 17.4804 31.555 18.7745 31.2638C17.6972 30.4009 16.2323 29.538 15.2053 29.2139C14.8593 29.1044 14.6688 28.7343 14.7783 28.3882C14.8878 28.0422 15.2578 27.8495 15.6038 27.9612C17.1913 28.4649 19.4971 29.9475 20.6379 31.1981C20.7978 31.3711 20.8503 31.6185 20.7781 31.8419C20.7058 32.0653 20.5175 32.2339 20.2876 32.2821C18.9037 32.5712 16.8125 33.0114 15.1133 33.7516C15.0279 33.7889 14.9381 33.8064 14.8505 33.8064H14.8484Z" fill="#282828"/>
<path d="M26.9098 32.6958C25.9792 32.6958 24.6807 33.044 25.0201 34.1478C25.342 35.2012 26.5419 35.6633 26.9098 35.6633C27.2777 35.6633 28.4776 35.2012 28.7995 34.1478C29.1389 33.0418 27.8404 32.6958 26.9098 32.6958Z" fill="#282828"/>
<path d="M26.9068 37.9779C26.6046 37.9779 26.3594 37.7326 26.3594 37.4304V34.7914C26.3594 34.4892 26.6046 34.2439 26.9068 34.2439C27.209 34.2439 27.4542 34.4892 27.4542 34.7914V37.4304C27.4542 37.7326 27.209 37.9779 26.9068 37.9779Z" fill="#282828"/>
<path d="M32.4525 37.42C32.4284 37.1835 32.216 37.0148 31.9795 37.0389C30.6898 37.1681 29.2183 37.4309 26.9126 37.4309C24.6068 37.4309 23.1331 37.1681 21.8456 37.0389C21.6091 37.0148 21.3967 37.1856 21.3726 37.42C21.3091 38.042 21.3595 38.9421 21.4361 39.402C21.666 40.7905 22.174 41.9096 22.8988 42.7418C23.4594 41.6884 24.6856 40.9744 26.9126 40.9744C29.1395 40.9744 30.3679 41.6862 30.9263 42.7418C31.6511 41.9118 32.1591 40.7926 32.389 39.402C32.4657 38.9399 32.516 38.0398 32.4525 37.42Z" fill="#973472"/>
<path d="M26.9122 40.9744C24.683 40.9744 23.4568 41.6861 22.8984 42.7417C23.8816 43.8674 25.2655 44.4631 26.9122 44.4631C28.5588 44.4631 29.9427 43.8674 30.9259 42.7417C30.3653 41.6883 29.1391 40.9744 26.9122 40.9744Z" fill="#E65BA6"/>
<path d="M26.9913 10.3842C27.3701 10.3842 27.7139 10.3864 28.0314 10.393C29.2839 10.4127 30.0963 10.4718 30.7269 10.5288C31.2897 10.5792 31.7101 10.6295 32.1743 10.6536C36.5669 6.20126 40.0135 0.752441 44.787 0.752441C49.9766 0.752441 51.1503 12.0136 51.8182 18.4742C60.1369 44.6387 41.8309 52.6892 26.9891 52.6892C12.1472 52.6892 -6.15651 44.6387 2.16 18.4742C2.83224 12.0136 4.00373 0.752441 9.19333 0.752441C13.9669 0.752441 17.4135 6.20126 21.806 10.6558C22.2703 10.6317 22.6907 10.5813 23.2534 10.531C23.8863 10.474 24.6986 10.4149 25.949 10.3952C26.2643 10.3886 26.6103 10.3864 26.9891 10.3864L26.9913 10.3842Z" fill="#FFB6FF"/>
<path d="M9.4176 5.7347C7.6965 6.0413 6.54033 12.7582 6.5469 15.5899C6.5469 15.8352 6.81404 15.9797 7.0155 15.8461C10.3657 13.6342 12.4722 12.9312 16.0327 12.0398C16.2079 11.996 16.2977 11.7945 16.2101 11.6325C14.916 9.28256 11.3643 5.38867 9.4176 5.73251V5.7347Z" fill="#F395EC"/>
<path d="M44.553 5.7347C46.2741 6.0413 47.4303 12.7582 47.4237 15.5899C47.4237 15.8352 47.1566 15.9797 46.9551 15.8461C43.6049 13.6342 41.4984 12.9312 37.9379 12.0398C37.7627 11.996 37.673 11.7945 37.7605 11.6325C39.0547 9.28256 42.6064 5.38867 44.553 5.73251V5.7347Z" fill="#F395EC"/>
<path d="M17.9586 33.329C19.9447 33.329 20.9564 31.8354 20.9564 30.0243C20.9564 28.2131 19.6732 26.7195 17.9586 26.7195C16.2441 26.7195 14.9609 28.2131 14.9609 30.0243C14.9609 31.8354 15.9726 33.329 17.9586 33.329Z" fill="#282828"/>
<path d="M36.029 33.329C34.0429 33.329 33.0312 31.8354 33.0312 30.0243C33.0312 28.2131 34.3144 26.7195 36.029 26.7195C37.7435 26.7195 39.0267 28.2131 39.0267 30.0243C39.0267 31.8354 38.015 33.329 36.029 33.329Z" fill="#282828"/>
<path d="M26.9957 31.2336C26.0651 31.2336 24.7666 31.5819 25.106 32.6856C25.4279 33.739 26.6279 34.2011 26.9957 34.2011C27.3636 34.2011 28.5636 33.739 28.8854 32.6856C29.2248 31.5797 27.9263 31.2336 26.9957 31.2336Z" fill="#282828"/>
<path d="M26.9927 36.8946C26.6906 36.8946 26.4453 36.6493 26.4453 36.3471V33.3292C26.4453 33.027 26.6906 32.7817 26.9927 32.7817C27.2949 32.7817 27.5402 33.027 27.5402 33.3292V36.3471C27.5402 36.6493 27.2949 36.8946 26.9927 36.8946Z" fill="#282828"/>
<path d="M7.09986 35.7234C6.8349 35.7234 6.58528 35.5613 6.48455 35.2985C6.35536 34.9591 6.52615 34.5802 6.86556 34.451C8.30638 33.9035 10.0669 33.518 11.8231 33.3625C12.1865 33.3319 12.5041 33.5969 12.5347 33.9582C12.5676 34.3196 12.3004 34.6393 11.9391 34.67C10.299 34.8145 8.66331 35.1737 7.33196 35.6796C7.25532 35.7081 7.1765 35.7234 7.09986 35.7234Z" fill="#DD87D6"/>
<path d="M11.8832 31.7661C11.8219 31.7661 11.7584 31.7573 11.697 31.7398C10.265 31.3149 8.80226 31.0959 7.58259 31.1266C7.2191 31.1353 6.91911 30.8484 6.91035 30.4849C6.90159 30.1214 7.18844 29.8213 7.55193 29.8126C8.90517 29.7797 10.5102 30.0184 12.0693 30.4783C12.4175 30.5813 12.6167 30.947 12.5138 31.2952C12.4284 31.5799 12.1678 31.7661 11.8832 31.7661Z" fill="#DD87D6"/>
<path d="M46.8829 35.7232C46.8063 35.7232 46.7274 35.7101 46.6508 35.6794C45.3194 35.1735 43.6837 34.8165 42.0436 34.6698C41.6823 34.637 41.4152 34.3194 41.448 33.958C41.4809 33.5967 41.8006 33.3295 42.1597 33.3624C43.9158 33.5178 45.6764 33.9055 47.1172 34.4508C47.4566 34.58 47.6274 34.9589 47.4982 35.2983C47.3975 35.5612 47.1479 35.7232 46.8829 35.7232Z" fill="#DD87D6"/>
<path d="M42.103 31.7661C41.8206 31.7661 41.5578 31.5821 41.4724 31.2952C41.3695 30.947 41.5688 30.5813 41.9169 30.4784C43.476 30.0163 45.0811 29.7797 46.4343 29.8126C46.7978 29.8213 47.0846 30.1214 47.0759 30.4849C47.0671 30.8485 46.7671 31.1354 46.4036 31.1266C45.1818 31.0981 43.7212 31.315 42.2892 31.7398C42.2279 31.7573 42.1644 31.7661 42.103 31.7661Z" fill="#DD87D6"/>
<path d="M26.9936 44.5467C29.1172 44.5467 30.8387 42.7112 30.8387 40.4469C30.8387 38.1827 29.1172 36.3472 26.9936 36.3472C24.87 36.3472 23.1484 38.1827 23.1484 40.4469C23.1484 42.7112 24.87 44.5467 26.9936 44.5467Z" fill="#973472"/>
</svg>
