<svg width="74" height="117" viewBox="0 0 74 117" fill="none" xmlns="http://www.w3.org/2000/svg">
<path d="M36.7581 13.1532C37.2755 13.1532 37.7451 13.1562 38.1787 13.1651C39.8894 13.192 40.999 13.2728 41.8603 13.3505C42.6289 13.4193 43.2031 13.4881 43.8372 13.521C49.8365 7.4409 54.5439 0 61.0637 0C68.1517 0 69.7547 15.3783 70.6669 24.2009C82.0286 59.9309 57.0262 70.9248 36.7551 70.9248C16.4841 70.9248 -8.5153 59.9309 2.84343 24.2009C3.76158 15.3783 5.36161 0 12.4496 0C18.9694 0 23.6767 7.4409 29.6761 13.524C30.3102 13.4911 30.8844 13.4223 31.653 13.3535C32.5173 13.2758 33.6269 13.195 35.3345 13.1681C35.7652 13.1591 36.2377 13.1562 36.7551 13.1562L36.7581 13.1532Z" fill="#FFB6FF"/>
<path d="M12.7646 6.8036C10.4139 7.2223 8.83482 16.3948 8.84379 20.2618C8.84379 20.5968 9.20865 20.7942 9.4838 20.6117C14.0596 17.5911 16.9367 16.6311 21.7996 15.4139C22.0388 15.3541 22.1614 15.0789 22.0418 14.8576C20.2743 11.6486 15.4234 6.33107 12.7646 6.80061V6.8036Z" fill="#F395EC"/>
<path d="M60.7533 6.8036C63.104 7.2223 64.6831 16.3948 64.6741 20.2618C64.6741 20.5968 64.3092 20.7942 64.0341 20.6117C59.4583 17.5911 56.5812 16.6311 51.7183 15.4139C51.4791 15.3541 51.3565 15.0789 51.4761 14.8576C53.2436 11.6486 58.0945 6.33107 60.7533 6.80061V6.8036Z" fill="#F395EC"/>
<path d="M24.4166 44.4869C27.1291 44.4869 28.5108 42.4472 28.5108 39.9739C28.5108 37.5006 26.7583 35.4609 24.4166 35.4609C22.0748 35.4609 20.3223 37.5006 20.3223 39.9739C20.3223 42.4472 21.704 44.4869 24.4166 44.4869Z" fill="#282828"/>
<path d="M49.1001 44.4869C46.3876 44.4869 45.0059 42.4472 45.0059 39.9739C45.0059 37.5006 46.7584 35.4609 49.1001 35.4609C51.4419 35.4609 53.1944 37.5006 53.1944 39.9739C53.1944 42.4472 51.8127 44.4869 49.1001 44.4869Z" fill="#282828"/>
<path d="M36.759 41.624C35.4879 41.624 33.7144 42.0995 34.178 43.6069C34.6176 45.0454 36.2565 45.6764 36.759 45.6764C37.2614 45.6764 38.9003 45.0454 39.3399 43.6069C39.8035 42.0966 38.03 41.624 36.759 41.624Z" fill="#282828"/>
<path d="M36.7594 49.3548C36.3467 49.3548 36.0117 49.0199 36.0117 48.6072V44.486C36.0117 44.0732 36.3467 43.7383 36.7594 43.7383C37.1721 43.7383 37.5071 44.0732 37.5071 44.486V48.6072C37.5071 49.0199 37.1721 49.3548 36.7594 49.3548Z" fill="#282828"/>
<path d="M9.58974 47.7556C9.22787 47.7556 8.88693 47.5343 8.74935 47.1754C8.5729 46.7119 8.80618 46.1945 9.26974 46.018C11.2376 45.2703 13.6422 44.744 16.0407 44.5316C16.5372 44.4897 16.9708 44.8516 17.0127 45.3451C17.0576 45.8386 16.6927 46.2752 16.1992 46.3171C13.9592 46.5145 11.7251 47.0049 9.90676 47.6958C9.80208 47.7347 9.69442 47.7556 9.58974 47.7556Z" fill="#DD87D6"/>
<path d="M16.1213 42.3515C16.0375 42.3515 15.9508 42.3395 15.8671 42.3156C13.9111 41.7354 11.9133 41.4363 10.2475 41.4782C9.75106 41.4902 9.34133 41.0984 9.32937 40.6019C9.31741 40.1055 9.70919 39.6957 10.2056 39.6838C12.0539 39.6389 14.2461 39.9649 16.3755 40.5929C16.851 40.7335 17.1232 41.233 16.9826 41.7085C16.866 42.0973 16.5101 42.3515 16.1213 42.3515Z" fill="#DD87D6"/>
<path d="M63.9208 47.756C63.8162 47.756 63.7085 47.7381 63.6038 47.6962C61.7855 47.0054 59.5514 46.5179 57.3113 46.3175C56.8179 46.2726 56.453 45.839 56.4979 45.3455C56.5427 44.8521 56.9794 44.4872 57.4699 44.5321C59.8684 44.7444 62.2729 45.2737 64.2408 46.0184C64.7044 46.1949 64.9377 46.7123 64.7612 47.1758C64.6236 47.5347 64.2827 47.756 63.9208 47.756Z" fill="#DD87D6"/>
<path d="M57.3925 42.3515C57.0067 42.3515 56.6478 42.1003 56.5312 41.7085C56.3906 41.233 56.6628 40.7335 57.1383 40.593C59.2677 39.9619 61.4599 39.6389 63.3081 39.6838C63.8046 39.6958 64.1964 40.1055 64.1844 40.602C64.1724 41.0984 63.7627 41.4902 63.2662 41.4782C61.5974 41.4394 59.6026 41.7354 57.6467 42.3156C57.5629 42.3396 57.4762 42.3515 57.3925 42.3515Z" fill="#DD87D6"/>
<path d="M36.7585 59.8056C39.659 59.8056 42.0102 57.299 42.0102 54.207C42.0102 51.115 39.659 48.6084 36.7585 48.6084C33.8581 48.6084 31.5068 51.115 31.5068 54.207C31.5068 57.299 33.8581 59.8056 36.7585 59.8056Z" fill="#973472"/>
<path d="M36.4272 104.6C37.0105 104.6 37.4457 104.543 38.0616 104.435C37.9668 116.996 41.872 116.999 45.0726 116.996C48.4626 116.993 50.2716 116.996 52.8001 110.783C54.5558 106.468 55.7164 102.051 56.1605 96.7108C56.1753 96.5488 56.3855 96.5009 56.4566 96.6448C57.1553 98.0511 58.8725 99.7123 61.6379 98.9986C65.1493 98.0931 66.5852 93.8772 66.8221 89.3314C67.3106 80.03 62.1945 68.7736 56.8059 64.5098H16.0485C10.66 68.7736 5.54387 80.033 6.03239 89.3314C6.26925 93.8772 7.70816 98.0931 11.2166 98.9986C13.982 99.7123 15.6992 98.0511 16.3979 96.6448C16.469 96.5009 16.6792 96.5488 16.694 96.7108C17.1381 102.051 18.2957 106.465 20.0544 110.783C22.5829 116.996 24.3919 116.993 27.7819 116.996C30.9825 116.996 34.8906 116.996 34.7929 104.435C35.4088 104.543 35.841 104.6 36.4272 104.6Z" fill="#FAB8FF"/>
<path d="M35.8841 99.5011C41.5856 99.5011 46.2076 93.8712 46.2076 86.9263C46.2076 79.9815 41.5856 74.3516 35.8841 74.3516C30.1825 74.3516 25.5605 79.9815 25.5605 86.9263C25.5605 93.8712 30.1825 99.5011 35.8841 99.5011Z" fill="#F9E0FF"/>
<path d="M15.9089 96.5061C15.6761 96.5061 15.4821 96.3258 15.4642 96.0913C14.7569 86.9936 16.8818 80.7631 16.9743 80.5046C17.0549 80.2701 17.3115 80.1469 17.5443 80.2281C17.7771 80.3092 17.8994 80.5677 17.8188 80.8021C17.798 80.8652 15.6642 87.1258 16.3565 96.0222C16.3744 96.2717 16.1924 96.4881 15.9447 96.5061C15.9328 96.5061 15.9208 96.5061 15.9089 96.5061Z" fill="#E59AE6"/>
<path d="M56.3976 96.5061C56.3976 96.5061 56.3737 96.5061 56.3618 96.5061C56.1141 96.4881 55.9321 96.2687 55.95 96.0222C56.6453 87.1108 54.5115 80.8652 54.4877 80.8021C54.4071 80.5677 54.5294 80.3092 54.7622 80.2281C54.995 80.1469 55.2516 80.2701 55.3322 80.5046C55.4218 80.7661 57.5496 86.9936 56.8423 96.0913C56.8244 96.3288 56.6274 96.5061 56.3976 96.5061Z" fill="#E59AE6"/>
</svg>
