<svg width="362" height="315" viewBox="0 0 362 315" fill="none" xmlns="http://www.w3.org/2000/svg">
<path d="M340.24 107.478C344.311 83.8239 339.465 46.2103 335.006 19.2603C332.292 3.36177 314.649 -4.97528 300.885 3.16788C287.508 10.7294 271.417 20.6175 257.264 30.6995C234.194 19.6481 208.409 13.2499 181.074 13.2499C153.738 13.2499 127.76 19.6481 104.883 30.6995C90.343 20.6175 74.4457 10.7294 60.8749 3.16788C47.1102 -4.78139 29.4681 3.36177 26.7539 19.2603C22.1011 46.2103 17.4482 83.8239 21.5195 107.478C7.75476 131.326 0 157.694 0 183.287C0 266.269 113.22 314.353 180.686 314.353C248.152 314.353 361.372 266.269 361.372 183.287C361.566 157.5 353.811 131.326 340.24 107.478Z" fill="#E8A6FF"/>
<path d="M216.553 200.348C216.553 230.982 205.502 250.758 182.044 250.758C158.586 250.758 147.535 230.788 147.535 200.348C162.851 205.195 182.044 201.705 182.044 182.123C182.238 201.512 201.237 205.195 216.553 200.348Z" fill="#DB73FF"/>
<path d="M180.88 156.725C190.961 156.725 202.593 160.215 199.297 168.745C196.195 177.47 185.533 185.226 180.88 185.226C176.227 185.226 165.37 176.889 162.462 168.745C159.166 160.215 170.605 156.725 180.88 156.725Z" fill="#282828"/>
<path d="M120.587 168.164C129.505 168.164 136.678 161.378 136.678 152.847C136.678 144.51 129.505 137.53 120.587 137.53C111.669 137.53 104.496 144.316 104.496 152.847C104.884 161.378 111.863 168.164 120.587 168.164Z" fill="#282828"/>
<path d="M240.98 168.164C249.898 168.164 257.071 161.378 257.071 152.847C257.071 144.51 249.898 137.53 240.98 137.53C232.062 137.53 224.889 144.316 224.889 152.847C225.083 161.378 232.256 168.164 240.98 168.164Z" fill="#282828"/>
<path d="M158.391 207.135C145.014 207.135 130.668 200.349 125.046 190.655C123.689 188.328 124.464 185.42 126.791 183.869C129.117 182.511 132.025 183.287 133.382 185.613C138.035 193.951 154.126 199.379 165.177 196.277C172.35 194.338 176.033 189.491 176.033 181.736C176.033 179.021 178.166 176.889 180.88 176.889C183.594 176.889 185.727 179.215 185.533 181.93C185.339 194.144 178.747 202.869 167.503 205.778C164.595 206.941 161.493 207.135 158.391 207.135Z" fill="#282828"/>
<path d="M203.175 207.134C200.073 207.134 196.972 206.746 194.064 205.971C182.625 203.063 176.034 194.338 175.84 182.123C175.84 179.409 177.972 177.276 180.493 177.082C183.207 177.082 185.146 179.215 185.339 181.929C185.533 189.685 189.023 194.532 196.196 196.471C207.247 199.379 223.144 193.95 227.991 185.807C229.348 183.48 232.256 182.705 234.582 184.062C236.909 185.419 237.684 188.327 236.327 190.848C230.899 200.348 216.552 207.134 203.175 207.134Z" fill="#282828"/>
<path d="M180.88 255.799C155.871 255.799 141.524 235.635 141.524 200.348C141.524 198.797 142.3 197.44 143.463 196.277C144.82 195.501 146.371 195.113 147.728 195.501C156.646 198.215 165.564 197.634 170.799 193.756C174.288 191.236 176.033 187.164 176.033 181.929C176.033 179.215 178.166 177.082 180.88 177.082C183.594 177.082 185.533 179.215 185.727 181.929C185.727 187.164 187.665 191.236 190.961 193.756C196.195 197.634 205.307 198.215 214.031 195.501C215.389 195.113 216.939 195.307 218.297 196.277C219.654 197.052 220.235 198.797 220.235 200.348C220.235 235.635 205.695 255.799 180.88 255.799ZM151.218 206.553C152.187 225.747 158.585 245.911 180.88 245.911C203.175 245.911 209.379 225.747 210.542 206.553C201.042 208.104 191.736 206.553 185.339 201.899C183.982 200.736 182.431 199.379 180.88 197.634C179.523 199.573 177.972 200.93 176.421 202.093C170.023 206.553 160.717 208.104 151.218 206.553Z" fill="#282828"/>
<path d="M264.825 179.409C262.499 179.409 260.366 177.664 259.979 175.338C259.591 172.623 261.336 170.103 264.05 169.521L298.171 163.511C300.885 162.929 303.405 164.868 303.987 167.582C304.375 170.297 302.63 172.817 299.916 173.399L265.795 179.409C265.407 179.409 265.019 179.409 264.825 179.409Z" fill="#282828"/>
<path d="M298.752 207.523C298.558 207.523 298.17 207.523 297.976 207.523L263.855 201.512C261.141 201.124 259.397 198.41 259.784 195.696C260.172 192.981 262.886 191.236 265.6 191.624L299.721 197.635C302.435 198.022 304.18 200.737 303.793 203.451C303.405 205.972 301.272 207.523 298.752 207.523Z" fill="#282828"/>
<path d="M94.8027 179.409C94.6088 179.409 94.2211 179.409 94.0272 179.409L59.9063 173.399C57.1921 173.011 55.4473 170.297 55.835 167.582C56.2228 164.868 58.9369 163.123 61.6511 163.511L95.7721 169.521C98.4862 169.909 100.231 172.623 99.8433 175.338C99.2617 177.664 97.1291 179.409 94.8027 179.409Z" fill="#282828"/>
<path d="M60.8751 207.523C58.5487 207.523 56.4161 205.778 56.0284 203.451C55.6407 200.737 57.3855 198.216 60.0996 197.635L94.2206 191.624C96.9348 191.236 99.4551 192.981 100.037 195.696C100.424 198.41 98.6796 200.931 95.9654 201.512L61.6506 207.523C61.4567 207.523 61.069 207.523 60.8751 207.523Z" fill="#282828"/>
</svg>
