<svg width="54" height="53" viewBox="0 0 54 53" fill="none" xmlns="http://www.w3.org/2000/svg">
<path d="M36.2833 30.9989C36.1673 31.6778 35.5979 32.1487 35.0111 32.0479C34.4243 31.9472 34.0455 31.3143 34.1615 30.6332C34.2798 29.9542 34.8491 29.4834 35.4338 29.5841C36.0206 29.6849 36.4016 30.3178 36.2833 30.9989Z" fill="#FFB6FF"/>
<path d="M37.0133 32.9237C36.9564 33.2631 36.6717 33.4975 36.3805 33.4471C36.0893 33.3967 35.901 33.0814 35.9601 32.7441C36.017 32.4046 36.2995 32.1703 36.5907 32.2207C36.8841 32.2711 37.0725 32.5864 37.0133 32.9237Z" fill="#FFB6FF"/>
<path d="M51.7377 18.4718C51.0698 12.0112 49.8983 0.75 44.7065 0.75C39.9329 0.75 36.4885 6.19882 32.0938 10.6534C31.6296 10.6293 31.2091 10.5789 30.6464 10.5285C30.0136 10.4716 29.2012 10.4103 27.9508 10.3906C27.6333 10.384 27.2874 10.3818 26.9107 10.3818C26.5341 10.3818 26.1859 10.3818 25.8706 10.3906C24.6181 10.4103 23.8058 10.4716 23.1729 10.5285C22.6124 10.5789 22.1919 10.6293 21.7277 10.6534C17.333 6.19882 13.8886 0.75 9.11281 0.75C3.92321 0.75 2.75172 12.0112 2.08167 18.4718C-4.21155 38.2698 4.73994 47.6957 15.8987 51.11C16.8862 51.4144 17.8936 51.6684 18.9074 51.8787C21.5723 52.435 24.2962 52.6846 26.9107 52.6846C29.5252 52.6846 32.2492 52.435 34.9141 51.8787C35.928 51.6684 36.9352 51.4122 37.9228 51.11C49.0815 47.6957 58.0331 38.2698 51.7377 18.4718ZM18.6884 34.5336C18.43 34.6124 18.1563 34.6518 17.876 34.6518C17.0833 34.6518 16.3542 34.3299 15.8133 33.8109C15.2396 33.2612 14.8783 32.4881 14.8783 31.6383C14.8783 29.987 16.2403 28.6226 17.876 28.6226C19.5117 28.6226 20.8737 29.987 20.8737 31.6383C20.8737 33.0049 19.9387 34.1744 18.6884 34.5336ZM38.006 33.813C37.4673 34.3321 36.7359 34.6518 35.9455 34.6518C35.6652 34.6518 35.3915 34.6124 35.1309 34.5336C33.8806 34.1744 32.9478 33.0027 32.9478 31.6383C32.9478 29.987 34.3097 28.6226 35.9455 28.6226C37.5812 28.6226 38.9432 29.987 38.9432 31.6383C38.9432 32.4881 38.5819 33.2633 38.006 33.813ZM18.5242 32.2209C18.233 32.1705 17.9505 32.4048 17.8913 32.7443C17.8344 33.0816 18.0227 33.3969 18.3139 33.4473C18.6052 33.4977 18.8899 33.2633 18.9468 32.9239C19.0059 32.5866 18.8154 32.2712 18.5242 32.2209ZM17.3636 29.5841C16.779 29.4833 16.2075 29.9542 16.0914 30.6331C15.9754 31.3142 16.3541 31.9471 16.941 32.0479C17.5278 32.1486 18.0972 31.6777 18.2132 30.9988C18.3315 30.3177 17.9505 29.6848 17.3636 29.5841Z" fill="#FFB6FF"/>
<path d="M9.34339 5.73201C7.62228 6.03862 6.46611 12.7555 6.47268 15.5872C6.47268 15.8325 6.73983 15.977 6.94128 15.8434C10.2915 13.6315 12.398 12.9285 15.9585 12.0371C16.1337 11.9933 16.2234 11.7919 16.1359 11.6298C14.8417 9.27988 11.29 5.38599 9.34339 5.72982V5.73201Z" fill="#F395EC"/>
<path d="M44.4788 5.73201C46.1999 6.03862 47.3561 12.7555 47.3495 15.5872C47.3495 15.8325 47.0824 15.977 46.8809 15.8434C43.5307 13.6315 41.4242 12.9285 37.8637 12.0371C37.6885 11.9933 37.5987 11.7919 37.6863 11.6298C38.9804 9.27988 42.5321 5.38599 44.4788 5.72982V5.73201Z" fill="#F395EC"/>
<path d="M26.9098 32.696C25.9791 32.696 24.6807 33.0443 25.0201 34.148C25.342 35.2015 26.5419 35.6636 26.9098 35.6636C27.2776 35.6636 28.4776 35.2015 28.7995 34.148C29.1389 33.0421 27.8404 32.696 26.9098 32.696Z" fill="#282828"/>
<path d="M26.9107 37.6567C26.6085 37.6567 26.3633 37.4114 26.3633 37.1092V34.7899C26.3633 34.4877 26.6085 34.2424 26.9107 34.2424C27.2129 34.2424 27.4581 34.4877 27.4581 34.7899V37.1092C27.4581 37.4114 27.2129 37.6567 26.9107 37.6567Z" fill="#282828"/>
<path d="M7.02172 37.4727C6.75676 37.4727 6.50715 37.3107 6.40642 37.0479C6.27723 36.7084 6.44803 36.3295 6.78743 36.2003C8.22826 35.6528 9.98879 35.2674 11.7449 35.1119C12.1062 35.079 12.4259 35.3462 12.4566 35.7076C12.4894 36.0689 12.2223 36.3887 11.861 36.4193C10.2209 36.5639 8.58518 36.923 7.25384 37.4289C7.1772 37.4574 7.09836 37.4727 7.02172 37.4727Z" fill="#DD87D6"/>
<path d="M11.8051 33.5154C11.7438 33.5154 11.6802 33.5066 11.6189 33.4891C10.1869 33.0642 8.72415 32.8474 7.50448 32.8759C7.14756 32.8934 6.84099 32.5977 6.83223 32.2342C6.82347 31.8706 7.11033 31.5706 7.47382 31.5619C8.82487 31.529 10.4321 31.7655 11.9912 32.2276C12.3394 32.3306 12.5386 32.6963 12.4357 33.0445C12.3503 33.3292 12.0897 33.5154 11.8051 33.5154Z" fill="#DD87D6"/>
<path d="M46.8087 37.473C46.7321 37.473 46.6532 37.4598 46.5766 37.4292C45.2452 36.9233 43.6095 36.5663 41.9694 36.4196C41.6081 36.3867 41.341 36.0692 41.3738 35.7078C41.4067 35.3464 41.7286 35.0793 42.0855 35.1121C43.8416 35.2676 45.6022 35.6552 47.043 36.2006C47.3824 36.3298 47.5532 36.7086 47.424 37.0481C47.3233 37.3109 47.0736 37.473 46.8087 37.473Z" fill="#DD87D6"/>
<path d="M42.0249 33.5156C41.7424 33.5156 41.4797 33.3317 41.3943 33.0448C41.2914 32.6965 41.4906 32.3308 41.8388 32.2279C43.3979 31.7658 45.0007 31.5292 46.3561 31.5621C46.7196 31.5709 47.0065 31.8709 46.9977 32.2344C46.989 32.5914 46.6977 32.8761 46.3408 32.8761C46.3364 32.8761 46.3299 32.8761 46.3255 32.8761C45.1037 32.8455 43.6431 33.0645 42.211 33.4893C42.1497 33.5069 42.0862 33.5156 42.0249 33.5156Z" fill="#DD87D6"/>
<path d="M26.8841 40.968C28.3583 40.968 29.5533 40.1041 29.5533 39.0386C29.5533 37.973 28.3583 37.1091 26.8841 37.1091C25.4099 37.1091 24.2148 37.973 24.2148 39.0386C24.2148 40.1041 25.4099 40.968 26.8841 40.968Z" fill="#973472"/>
<path d="M17.8727 28.6228C16.237 28.6228 14.875 29.9872 14.875 31.6385C14.875 32.4882 15.2363 33.2613 15.81 33.811C16.3509 34.33 17.08 34.652 17.8727 34.652C18.153 34.652 18.4267 34.6126 18.6851 34.5337C19.9354 34.1746 20.8704 33.0051 20.8704 31.6385C20.8704 29.9872 19.5062 28.6228 17.8727 28.6228ZM16.0881 30.6333C16.2042 29.9543 16.7757 29.4835 17.3603 29.5842C17.9472 29.685 18.3282 30.3179 18.2099 30.999C18.0939 31.6779 17.5245 32.1488 16.9377 32.048C16.3508 31.9473 15.9721 31.3144 16.0881 30.6333ZM18.9435 32.924C18.8866 33.2635 18.6019 33.4978 18.3106 33.4475C18.0194 33.3971 17.8311 33.0817 17.888 32.7445C17.9472 32.405 18.2297 32.1707 18.5209 32.221C18.8121 32.2714 19.0026 32.5868 18.9435 32.924Z" fill="#282828"/>
<path d="M18.2091 30.9991C18.0931 31.6781 17.5237 32.1489 16.9369 32.0482C16.35 31.9474 15.9713 31.3145 16.0873 30.6334C16.2034 29.9545 16.7749 29.4836 17.3595 29.5844C17.9464 29.6851 18.3274 30.318 18.2091 30.9991Z" fill="#282828"/>
<path d="M18.9445 32.9242C18.8876 33.2636 18.6029 33.498 18.3117 33.4476C18.0204 33.3972 17.8321 33.0819 17.8891 32.7446C17.9482 32.4051 18.2307 32.1708 18.5219 32.2212C18.8131 32.2715 19.0036 32.5869 18.9445 32.9242Z" fill="#282828"/>
<path d="M18.2091 30.9987C18.0931 31.6776 17.5237 32.1484 16.9369 32.0477C16.35 31.9469 15.9713 31.314 16.0873 30.6329C16.2034 29.954 16.7749 29.4831 17.3595 29.5839C17.9464 29.6846 18.3274 30.3176 18.2091 30.9987Z" fill="white"/>
<path d="M18.9406 32.9239C18.8837 33.2634 18.599 33.4977 18.3077 33.4473C18.0165 33.397 17.8282 33.0816 17.8851 32.7443C17.9443 32.4049 18.2268 32.1706 18.518 32.2209C18.8092 32.2713 18.9997 32.5867 18.9406 32.9239Z" fill="white"/>
<path d="M35.943 28.6228C34.3073 28.6228 32.9453 29.9872 32.9453 31.6385C32.9453 33.0029 33.8781 34.1746 35.1284 34.5337C35.389 34.6126 35.6627 34.652 35.943 34.652C36.7335 34.652 37.4649 34.3322 38.0036 33.8132C38.5794 33.2635 38.9408 32.4882 38.9408 31.6385C38.9408 29.9872 37.5787 28.6228 35.943 28.6228ZM36.5912 32.221C36.8846 32.2714 37.0729 32.5868 37.0138 32.924C36.9569 33.2635 36.6722 33.4978 36.3809 33.4475C36.0897 33.3971 35.9014 33.0817 35.9605 32.7445C36.0175 32.405 36.2999 32.1707 36.5912 32.221ZM35.008 32.048C34.4212 31.9473 34.0424 31.3144 34.1584 30.6333C34.2767 29.9543 34.846 29.4835 35.4307 29.5842C36.0175 29.685 36.3985 30.3179 36.2802 30.999C36.1642 31.6779 35.5948 32.1488 35.008 32.048Z" fill="#282828"/>
<path d="M36.2794 30.9991C36.1634 31.6781 35.594 32.1489 35.0072 32.0482C34.4204 31.9474 34.0416 31.3145 34.1576 30.6334C34.2759 29.9545 34.8452 29.4836 35.4299 29.5844C36.0167 29.6851 36.3977 30.318 36.2794 30.9991Z" fill="#282828"/>
<path d="M37.0133 32.9242C36.9564 33.2636 36.6717 33.498 36.3805 33.4476C36.0893 33.3972 35.901 33.0819 35.9601 32.7446C36.017 32.4051 36.2995 32.1708 36.5907 32.2212C36.8841 32.2715 37.0725 32.5869 37.0133 32.9242Z" fill="#282828"/>
<path d="M36.2794 30.9989C36.1634 31.6778 35.594 32.1487 35.0072 32.0479C34.4204 31.9472 34.0416 31.3143 34.1576 30.6332C34.2759 29.9542 34.8452 29.4834 35.4299 29.5841C36.0167 29.6849 36.3977 30.3178 36.2794 30.9989Z" fill="white"/>
<path d="M37.0094 32.9242C36.9525 33.2636 36.6678 33.498 36.3766 33.4476C36.0853 33.3972 35.897 33.0819 35.9562 32.7446C36.0131 32.4051 36.2955 32.1708 36.5868 32.2212C36.8802 32.2715 37.0686 32.5869 37.0094 32.9242Z" fill="white"/>
<path d="M18.9076 51.6771V51.8786C17.8937 51.6684 16.8864 51.4143 15.8989 51.1099C15.8879 50.4748 15.6909 39.5202 15.8135 33.8108C16.3543 34.3298 17.0835 34.6518 17.8762 34.6518C18.1565 34.6518 18.4302 34.6123 18.6886 34.5335C18.7258 36.4147 18.9733 48.852 18.9076 51.6771Z" fill="#CBEAFF"/>
<path d="M37.9221 51.1099C36.9346 51.4122 35.9273 51.6684 34.9135 51.8786V51.6771C34.8478 48.852 35.093 36.4148 35.1302 34.5335C35.3908 34.6124 35.6645 34.6518 35.9448 34.6518C36.7353 34.6518 37.4667 34.332 38.0054 33.813C38.128 39.5246 37.9331 50.4792 37.9221 51.1099Z" fill="#CBEAFF"/>
</svg>
