<svg width="74" height="117" viewBox="0 0 74 117" fill="none" xmlns="http://www.w3.org/2000/svg">
<path d="M49.5575 41.309C49.399 42.2362 48.6214 42.8792 47.8198 42.7416C47.0183 42.6041 46.5009 41.7397 46.6594 40.8095C46.8209 39.8824 47.5985 39.2394 48.3971 39.3769C49.1986 39.5145 49.719 40.3789 49.5575 41.309Z" fill="#FFB6FF"/>
<path d="M50.5599 43.9381C50.4821 44.4017 50.0933 44.7217 49.6955 44.6529C49.2977 44.5841 49.0405 44.1535 49.1213 43.6929C49.199 43.2293 49.5848 42.9093 49.9826 42.9781C50.3834 43.0468 50.6406 43.4775 50.5599 43.9381Z" fill="#FFB6FF"/>
<path d="M70.6665 24.2018C69.7543 15.3789 68.1541 0 61.0629 0C54.5428 0 49.8383 7.4412 43.8357 13.5246C43.2016 13.4917 42.6274 13.4229 41.8587 13.3541C40.9944 13.2763 39.8847 13.1926 38.177 13.1657C37.7433 13.1567 37.2708 13.1537 36.7563 13.1537C36.2419 13.1537 35.7664 13.1537 35.3357 13.1657C33.6249 13.1926 32.5154 13.2763 31.651 13.3541C30.8854 13.4229 30.3111 13.4917 29.677 13.5246C23.6744 7.4412 18.9699 0 12.4468 0C5.35856 0 3.75846 15.3789 2.84327 24.2018C-5.7524 51.239 6.4741 64.1116 21.7154 68.7743C23.0643 69.19 24.4401 69.537 25.8249 69.8241C29.4647 70.5837 33.1853 70.9247 36.7563 70.9247C40.3274 70.9247 44.048 70.5837 47.6879 69.8241C49.0726 69.537 50.4484 69.187 51.7973 68.7743C67.0386 64.1116 79.2651 51.239 70.6665 24.2018ZM25.5258 46.1366C25.1729 46.2443 24.799 46.2981 24.4161 46.2981C23.3335 46.2981 22.3375 45.8585 21.5988 45.1497C20.8152 44.399 20.3217 43.3432 20.3217 42.1828C20.3217 39.9277 22.182 38.0644 24.4161 38.0644C26.6503 38.0644 28.5106 39.9277 28.5106 42.1828C28.5106 44.049 27.2336 45.6461 25.5258 46.1366ZM51.9109 45.1527C51.1752 45.8615 50.1762 46.2981 49.0965 46.2981C48.7137 46.2981 48.3399 46.2443 47.9839 46.1366C46.2762 45.6461 45.0021 44.046 45.0021 42.1828C45.0021 39.9277 46.8624 38.0644 49.0965 38.0644C51.3307 38.0644 53.191 39.9277 53.191 42.1828C53.191 43.3432 52.6975 44.402 51.9109 45.1527ZM25.3015 42.9783C24.9037 42.9095 24.5178 43.2295 24.4371 43.6931C24.3593 44.1537 24.6165 44.5844 25.0143 44.6532C25.4121 44.722 25.8009 44.402 25.8787 43.9384C25.9594 43.4778 25.6993 43.0471 25.3015 42.9783ZM23.7163 39.3774C22.9178 39.2398 22.1371 39.8828 21.9786 40.81C21.8201 41.7401 22.3375 42.6045 23.139 42.742C23.9406 42.8796 24.7182 42.2366 24.8767 41.3094C25.0382 40.3793 24.5179 39.5149 23.7163 39.3774Z" fill="#FFB6FF"/>
<path d="M12.7609 6.8036C10.4101 7.22232 8.83091 16.3952 8.83988 20.2624C8.83988 20.5973 9.20477 20.7947 9.47993 20.6123C14.0559 17.5915 16.9331 16.6315 21.7962 15.4142C22.0354 15.3544 22.1581 15.0792 22.0384 14.8579C20.2709 11.6488 15.4197 6.33105 12.7609 6.80061V6.8036Z" fill="#F395EC"/>
<path d="M60.7517 6.8036C63.1025 7.22232 64.6817 16.3952 64.6727 20.2624C64.6727 20.5973 64.3079 20.7947 64.0327 20.6123C59.4568 17.5915 56.5795 16.6315 51.7164 15.4142C51.4771 15.3544 51.3545 15.0792 51.4741 14.8579C53.2417 11.6488 58.0929 6.33105 60.7517 6.80061V6.8036Z" fill="#F395EC"/>
<path d="M36.7571 43.627C35.486 43.627 33.7124 44.1025 34.176 45.6099C34.6157 47.0485 36.2546 47.6795 36.7571 47.6795C37.2595 47.6795 38.8985 47.0485 39.3382 45.6099C39.8018 44.0995 38.0282 43.627 36.7571 43.627Z" fill="#282828"/>
<path d="M36.7555 50.401C36.3428 50.401 36.0078 50.066 36.0078 49.6533V46.486C36.0078 46.0733 36.3428 45.7383 36.7555 45.7383C37.1683 45.7383 37.5032 46.0733 37.5032 46.486V49.6533C37.5032 50.066 37.1683 50.401 36.7555 50.401Z" fill="#282828"/>
<path d="M9.58683 50.1497C9.22494 50.1497 8.88401 49.9284 8.74643 49.5695C8.56997 49.1059 8.80325 48.5885 9.26683 48.4121C11.2348 47.6643 13.6394 47.138 16.0381 46.9256C16.5316 46.8807 16.9682 47.2456 17.0101 47.7391C17.055 48.2326 16.6901 48.6693 16.1966 48.7111C13.9565 48.9085 11.7223 49.399 9.90388 50.0899C9.7992 50.1288 9.69151 50.1497 9.58683 50.1497Z" fill="#DD87D6"/>
<path d="M16.1187 44.7452C16.0349 44.7452 15.9481 44.7332 15.8644 44.7093C13.9084 44.1291 11.9105 43.833 10.2446 43.8719C9.75714 43.8958 9.3384 43.492 9.32644 42.9955C9.31448 42.4991 9.70629 42.0893 10.2028 42.0774C12.0481 42.0325 14.2434 42.3555 16.3729 42.9866C16.8484 43.1271 17.1206 43.6266 16.98 44.1022C16.8634 44.491 16.5075 44.7452 16.1187 44.7452Z" fill="#DD87D6"/>
<path d="M63.9241 50.1497C63.8194 50.1497 63.7117 50.1318 63.607 50.0899C61.7886 49.399 59.5544 48.9115 57.3143 48.7111C56.8208 48.6663 56.4559 48.2326 56.5008 47.7391C56.5457 47.2456 56.9853 46.8807 57.4728 46.9256C59.8715 47.138 62.2761 47.6673 64.2441 48.4121C64.7077 48.5885 64.941 49.1059 64.7645 49.5695C64.6269 49.9284 64.286 50.1497 63.9241 50.1497Z" fill="#DD87D6"/>
<path d="M57.3915 44.7452C57.0057 44.7452 56.6468 44.494 56.5302 44.1022C56.3896 43.6266 56.6618 43.1271 57.1373 42.9866C59.2668 42.3555 61.4561 42.0325 63.3074 42.0774C63.8039 42.0893 64.1956 42.4991 64.1837 42.9955C64.1717 43.483 63.7739 43.8719 63.2864 43.8719C63.2804 43.8719 63.2715 43.8719 63.2655 43.8719C61.5967 43.83 59.6018 44.1291 57.6458 44.7093C57.562 44.7332 57.4752 44.7452 57.3915 44.7452Z" fill="#DD87D6"/>
<path d="M36.72 54.9241C38.7336 54.9241 40.3658 53.7445 40.3658 52.2892C40.3658 50.834 38.7336 49.6543 36.72 49.6543C34.7065 49.6543 33.0742 50.834 33.0742 52.2892C33.0742 53.7445 34.7065 54.9241 36.72 54.9241Z" fill="#973472"/>
<path d="M24.4167 38.0664C22.1825 38.0664 20.3223 39.9297 20.3223 42.1848C20.3223 43.3452 20.8158 44.401 21.5994 45.1517C22.3381 45.8605 23.334 46.3002 24.4167 46.3002C24.7995 46.3002 25.1734 46.2463 25.5264 46.1387C27.2341 45.6482 28.5112 44.0511 28.5112 42.1848C28.5112 39.9297 26.6479 38.0664 24.4167 38.0664ZM21.9792 40.812C22.1377 39.8848 22.9183 39.2418 23.7169 39.3794C24.5184 39.517 25.0388 40.3813 24.8773 41.3115C24.7188 42.2386 23.9412 42.8817 23.1396 42.7441C22.3381 42.6065 21.8207 41.7421 21.9792 40.812ZM25.8793 43.9404C25.8015 44.404 25.4127 44.724 25.0149 44.6552C24.6171 44.5864 24.3599 44.1558 24.4377 43.6952C24.5184 43.2316 24.9043 42.9116 25.3021 42.9804C25.6998 43.0491 25.96 43.4798 25.8793 43.9404Z" fill="#282828"/>
<path d="M24.8778 41.3119C24.7193 42.2391 23.9417 42.8821 23.1401 42.7446C22.3386 42.607 21.8212 41.7426 21.9797 40.8125C22.1382 39.8853 22.9189 39.2423 23.7174 39.3799C24.519 39.5174 25.0393 40.3818 24.8778 41.3119Z" fill="#282828"/>
<path d="M25.8793 43.9401C25.8015 44.4036 25.4127 44.7237 25.0149 44.6549C24.6171 44.5861 24.3599 44.1554 24.4377 43.6948C24.5184 43.2312 24.9043 42.9112 25.3021 42.98C25.6999 43.0488 25.96 43.4795 25.8793 43.9401Z" fill="#282828"/>
<path d="M24.8768 41.311C24.7183 42.2381 23.9407 42.8812 23.1392 42.7436C22.3376 42.606 21.8202 41.7417 21.9787 40.8115C22.1373 39.8843 22.9179 39.2413 23.7164 39.3789C24.518 39.5165 25.0384 40.3808 24.8768 41.311Z" fill="white"/>
<path d="M25.8783 43.9401C25.8006 44.4036 25.4117 44.7237 25.0139 44.6549C24.6161 44.5861 24.359 44.1554 24.4367 43.6948C24.5175 43.2312 24.9033 42.9112 25.3011 42.98C25.6989 43.0488 25.9591 43.4795 25.8783 43.9401Z" fill="white"/>
<path d="M49.0964 38.0664C46.8622 38.0664 45.002 39.9297 45.002 42.1848C45.002 44.0481 46.276 45.6482 47.9838 46.1387C48.3397 46.2463 48.7136 46.3002 49.0964 46.3002C50.1761 46.3002 51.1751 45.8635 51.9108 45.1547C52.6974 44.404 53.1909 43.3452 53.1909 42.1848C53.1909 39.9297 51.3305 38.0664 49.0964 38.0664ZM49.9817 42.9804C50.3824 43.0491 50.6397 43.4798 50.559 43.9404C50.4812 44.404 50.0923 44.724 49.6946 44.6552C49.2968 44.5864 49.0396 44.1558 49.1203 43.6952C49.1981 43.2316 49.5839 42.9116 49.9817 42.9804ZM47.8193 42.7441C47.0178 42.6065 46.5004 41.7421 46.6589 40.812C46.8204 39.8848 47.598 39.2418 48.3966 39.3794C49.1981 39.517 49.7185 40.3813 49.557 41.3115C49.3985 42.2386 48.6208 42.8817 47.8193 42.7441Z" fill="#282828"/>
<path d="M49.5575 41.3119C49.399 42.2391 48.6214 42.8821 47.8198 42.7446C47.0183 42.607 46.5009 41.7426 46.6594 40.8125C46.8209 39.8853 47.5985 39.2423 48.3971 39.3799C49.1986 39.5174 49.719 40.3818 49.5575 41.3119Z" fill="#282828"/>
<path d="M50.5579 43.9401C50.4802 44.4036 50.0913 44.7237 49.6935 44.6549C49.2958 44.5861 49.0386 44.1554 49.1193 43.6948C49.1971 43.2312 49.5829 42.9112 49.9806 42.98C50.3814 43.0488 50.6387 43.4795 50.5579 43.9401Z" fill="#282828"/>
<path d="M49.5565 41.311C49.398 42.2381 48.6204 42.8812 47.8188 42.7436C47.0173 42.606 46.4999 41.7417 46.6584 40.8115C46.8199 39.8843 47.5976 39.2413 48.3961 39.3789C49.1977 39.5165 49.718 40.3808 49.5565 41.311Z" fill="white"/>
<path d="M50.5589 43.9401C50.4811 44.4036 50.0923 44.7237 49.6945 44.6549C49.2967 44.5861 49.0395 44.1554 49.1203 43.6948C49.1981 43.2312 49.5838 42.9112 49.9816 42.98C50.3824 43.0488 50.6397 43.4795 50.5589 43.9401Z" fill="white"/>
<path d="M25.8257 69.5487V69.8238C24.441 69.5367 23.0651 69.1898 21.7162 68.774C21.7013 67.9067 21.4321 52.9465 21.5996 45.1494C22.3384 45.8582 23.3343 46.2979 24.417 46.2979C24.7998 46.2979 25.1737 46.2441 25.5266 46.1364C25.5775 48.7055 25.9154 65.6905 25.8257 69.5487Z" fill="#CBEAFF"/>
<path d="M51.7984 68.775C50.4496 69.1877 49.0738 69.5376 47.689 69.8247V69.5496C47.5993 65.6914 47.9343 48.7064 47.9851 46.1373C48.341 46.245 48.7149 46.2988 49.0977 46.2988C50.1774 46.2988 51.1764 45.8621 51.9121 45.1533C52.0796 52.9534 51.8134 67.9136 51.7984 68.775Z" fill="#CBEAFF"/>
<path d="M36.4272 104.6C37.0105 104.6 37.4457 104.543 38.0616 104.435C37.9668 116.996 41.872 116.999 45.0726 116.996C48.4626 116.993 50.2716 116.996 52.8001 110.783C54.5558 106.468 55.7164 102.051 56.1605 96.7108C56.1753 96.5488 56.3855 96.5009 56.4566 96.6448C57.1553 98.0511 58.8725 99.7123 61.6379 98.9986C65.1493 98.0931 66.5852 93.8772 66.8221 89.3314C67.3106 80.03 62.1945 68.7736 56.8059 64.5098H16.0485C10.66 68.7736 5.54387 80.033 6.03239 89.3314C6.26925 93.8772 7.70816 98.0931 11.2166 98.9986C13.982 99.7123 15.6992 98.0511 16.3979 96.6448C16.469 96.5009 16.6792 96.5488 16.694 96.7108C17.1381 102.051 18.2957 106.465 20.0544 110.783C22.5829 116.996 24.3919 116.993 27.7819 116.996C30.9825 116.996 34.8906 116.996 34.7929 104.435C35.4088 104.543 35.841 104.6 36.4272 104.6Z" fill="#FAB8FF"/>
<path d="M35.8841 99.5011C41.5856 99.5011 46.2076 93.8712 46.2076 86.9263C46.2076 79.9815 41.5856 74.3516 35.8841 74.3516C30.1825 74.3516 25.5605 79.9815 25.5605 86.9263C25.5605 93.8712 30.1825 99.5011 35.8841 99.5011Z" fill="#F9E0FF"/>
<path d="M15.9089 96.5061C15.6761 96.5061 15.4821 96.3258 15.4642 96.0913C14.7569 86.9936 16.8818 80.7631 16.9743 80.5046C17.0549 80.2701 17.3115 80.1469 17.5443 80.2281C17.7771 80.3092 17.8994 80.5677 17.8188 80.8021C17.798 80.8652 15.6642 87.1258 16.3565 96.0222C16.3744 96.2717 16.1924 96.4881 15.9447 96.5061C15.9328 96.5061 15.9208 96.5061 15.9089 96.5061Z" fill="#E59AE6"/>
<path d="M56.3976 96.5061C56.3976 96.5061 56.3737 96.5061 56.3618 96.5061C56.1141 96.4881 55.9321 96.2687 55.95 96.0222C56.6453 87.1108 54.5115 80.8652 54.4877 80.8021C54.4071 80.5677 54.5294 80.3092 54.7622 80.2281C54.995 80.1469 55.2516 80.2701 55.3322 80.5046C55.4218 80.7661 57.5496 86.9936 56.8423 96.0913C56.8244 96.3288 56.6274 96.5061 56.3976 96.5061Z" fill="#E59AE6"/>
</svg>
