<svg width="74" height="117" viewBox="0 0 74 117" fill="none" xmlns="http://www.w3.org/2000/svg">
<path d="M36.7581 13.1532C37.2755 13.1532 37.7451 13.1562 38.1787 13.1651C39.8894 13.192 40.999 13.2728 41.8603 13.3505C42.6289 13.4193 43.2031 13.4881 43.8371 13.521C49.8395 7.4409 54.5439 0 61.0636 0C68.1516 0 69.7547 15.3783 70.6669 24.2009C82.0286 59.9309 57.0262 70.9248 36.7551 70.9248C16.4841 70.9248 -8.5153 59.9309 2.84343 24.2009C3.76158 15.3783 5.36161 0 12.4496 0C18.9694 0 23.6767 7.4409 29.6761 13.524C30.3101 13.4911 30.8844 13.4223 31.653 13.3535C32.5173 13.2758 33.6269 13.195 35.3346 13.1681C35.7652 13.1591 36.2377 13.1562 36.7551 13.1562L36.7581 13.1532Z" fill="#FFB6FF"/>
<path d="M12.7646 6.8036C10.4139 7.2223 8.83482 16.3948 8.84379 20.2618C8.84379 20.5968 9.20866 20.7942 9.48381 20.6117C14.0596 17.5911 16.9367 16.6311 21.7996 15.4139C22.0388 15.3541 22.1614 15.0789 22.0418 14.8576C20.2743 11.6486 15.4234 6.33107 12.7646 6.80061V6.8036Z" fill="#F395EC"/>
<path d="M60.7533 6.8036C63.104 7.2223 64.6831 16.3948 64.6741 20.2618C64.6741 20.5968 64.3092 20.7942 64.0341 20.6117C59.4583 17.5911 56.5812 16.6311 51.7183 15.4139C51.4791 15.3541 51.3565 15.0789 51.4761 14.8576C53.2436 11.6486 58.0946 6.33107 60.7533 6.80061V6.8036Z" fill="#F395EC"/>
<path d="M24.4195 46.2959C26.6536 46.2959 28.5138 44.4327 28.5138 42.1807C28.5138 39.9286 26.6536 38.0654 24.4195 38.0654C22.1854 38.0654 20.3252 39.9286 20.3252 42.1807C20.3252 44.4327 22.1854 46.2959 24.4195 46.2959Z" fill="#282828"/>
<path d="M36.758 43.625C35.4869 43.625 33.7134 44.1005 34.177 45.6078C34.6166 47.0464 36.2555 47.6774 36.758 47.6774C37.2604 47.6774 38.8993 47.0464 39.339 45.6078C39.8025 44.0975 38.029 43.625 36.758 43.625Z" fill="#282828"/>
<path d="M36.7585 51.1615C36.2621 51.1615 35.8613 50.7608 35.8613 50.2643V46.4871C35.8613 45.9906 36.2621 45.5898 36.7585 45.5898C37.255 45.5898 37.6558 45.9906 37.6558 46.4871V50.2643C37.6558 50.7608 37.255 51.1615 36.7585 51.1615Z" fill="#282828"/>
<path d="M9.58875 50.1496C9.22687 50.1496 8.88595 49.9283 8.74838 49.5694C8.57193 49.1058 8.8052 48.5884 9.26876 48.412C11.2366 47.6643 13.6412 47.1379 16.0397 46.9256C16.5332 46.8807 16.9699 47.2456 17.0117 47.7391C17.0536 48.2325 16.6917 48.6692 16.1983 48.7111C13.9582 48.9084 11.7241 49.3989 9.90578 50.0898C9.80111 50.1287 9.69342 50.1496 9.58875 50.1496Z" fill="#DD87D6"/>
<path d="M16.1203 44.7451C16.0366 44.7451 15.9498 44.7331 15.8661 44.7092C13.9102 44.129 11.9094 43.8329 10.2466 43.8718C9.75309 43.8957 9.34035 43.492 9.32839 42.9955C9.31643 42.499 9.70823 42.0893 10.2047 42.0774C12.0559 42.0325 14.2451 42.3555 16.3745 42.9865C16.8501 43.1271 17.1222 43.6266 16.9817 44.1021C16.865 44.4909 16.5091 44.7451 16.1203 44.7451Z" fill="#DD87D6"/>
<path d="M63.9208 50.1496C63.8161 50.1496 63.7084 50.1317 63.6038 50.0898C61.7854 49.3989 59.5514 48.9114 57.3113 48.7111C56.8179 48.6662 56.453 48.2325 56.4979 47.7391C56.5427 47.2456 56.9794 46.8807 57.4699 46.9256C59.8684 47.1379 62.2729 47.6673 64.2408 48.412C64.7044 48.5884 64.9376 49.1058 64.7612 49.5694C64.6236 49.9283 64.2857 50.1496 63.9208 50.1496Z" fill="#DD87D6"/>
<path d="M57.3925 44.7451C57.0067 44.7451 56.6478 44.4939 56.5312 44.1021C56.3906 43.6266 56.6627 43.1271 57.1382 42.9865C59.2676 42.3555 61.4568 42.0325 63.3081 42.0774C63.8045 42.0893 64.1963 42.499 64.1844 42.9955C64.1724 43.483 63.7747 43.8718 63.2872 43.8718C63.2812 43.8718 63.2722 43.8718 63.2662 43.8718C61.5974 43.8299 59.6026 44.129 57.6467 44.7092C57.5629 44.7331 57.4762 44.7451 57.3925 44.7451Z" fill="#DD87D6"/>
<path d="M52.2108 46.2785C52.0583 46.2785 51.9057 46.2396 51.7652 46.1588C49.7793 45.0194 44.8088 43.5659 44.7579 43.5509C44.4678 43.4672 44.2376 43.2399 44.1508 42.9528C44.0611 42.6627 44.1269 42.3487 44.3213 42.1154C45.6222 40.5572 48.275 38.6133 51.2448 37.0432C51.6844 36.8099 52.2258 36.9803 52.456 37.417C52.6863 37.8536 52.5188 38.3979 52.0822 38.6282C49.9738 39.7438 47.9999 41.0806 46.684 42.2619C48.3857 42.8003 51.182 43.7513 52.6594 44.6007C53.0901 44.8459 53.2366 45.3962 52.9914 45.8239C52.8269 46.114 52.5218 46.2755 52.2108 46.2755V46.2785Z" fill="#282828"/>
<path d="M45.0065 43.5902C44.5968 43.5902 44.2289 43.3091 44.1332 42.8934C44.0225 42.4089 44.3246 41.9304 44.8091 41.8197C48.2813 41.0242 49.8993 40.9015 53.0216 40.7969C53.0306 40.7969 53.0425 40.7969 53.0515 40.7969C53.533 40.7969 53.9308 41.1797 53.9487 41.6642C53.9667 42.1606 53.5779 42.5734 53.0814 42.5913C50.0159 42.696 48.5445 42.8096 45.2099 43.5723C45.1441 43.5872 45.0753 43.5962 45.0095 43.5962L45.0065 43.5902Z" fill="#282828"/>
<path d="M45.5531 54.9965C43.8932 57.1857 41.2106 58.8217 37.1462 59.0071C34.4755 59.1267 32.3341 58.4897 30.6504 57.4399C28.0455 55.819 26.5412 53.2141 25.8802 50.9112C25.7636 50.5045 26.0925 50.1067 26.5142 50.1486C32.3252 50.7108 34.1316 50.654 36.7574 50.4178C41.4738 49.9901 45.2959 47.8577 46.9229 46.9635C47.3176 46.7481 47.7961 47.0293 47.8081 47.4779C47.8799 49.9213 47.2578 52.7505 45.5531 54.9965Z" fill="#973472"/>
<path d="M45.5531 54.9965C43.8933 57.1857 41.2106 58.8216 37.1462 59.007C34.4755 59.1266 32.3342 58.4896 30.6504 57.4399C31.3622 55.6993 34.8763 53.7762 38.6894 53.5579C41.5605 53.3904 43.9501 53.6237 45.5531 54.9965Z" fill="#E65BA6"/>
<path d="M36.4272 104.6C37.0105 104.6 37.4457 104.543 38.0616 104.435C37.9668 116.996 41.872 116.999 45.0726 116.996C48.4626 116.993 50.2716 116.996 52.8001 110.783C54.5558 106.468 55.7164 102.051 56.1605 96.7108C56.1753 96.5488 56.3855 96.5009 56.4566 96.6448C57.1553 98.0511 58.8725 99.7123 61.6379 98.9986C65.1493 98.0931 66.5852 93.8772 66.8221 89.3314C67.3106 80.03 62.1945 68.7736 56.8059 64.5098H16.0485C10.66 68.7736 5.54387 80.033 6.03239 89.3314C6.26925 93.8772 7.70816 98.0931 11.2166 98.9986C13.982 99.7123 15.6992 98.0511 16.3979 96.6448C16.469 96.5009 16.6792 96.5488 16.694 96.7108C17.1381 102.051 18.2957 106.465 20.0544 110.783C22.5829 116.996 24.3919 116.993 27.7819 116.996C30.9825 116.996 34.8906 116.996 34.7929 104.435C35.4088 104.543 35.841 104.6 36.4272 104.6Z" fill="#FAB8FF"/>
<path d="M35.8841 99.5011C41.5856 99.5011 46.2076 93.8712 46.2076 86.9263C46.2076 79.9815 41.5856 74.3516 35.8841 74.3516C30.1825 74.3516 25.5605 79.9815 25.5605 86.9263C25.5605 93.8712 30.1825 99.5011 35.8841 99.5011Z" fill="#F9E0FF"/>
<path d="M15.9089 96.5061C15.6761 96.5061 15.4821 96.3258 15.4642 96.0913C14.7569 86.9936 16.8818 80.7631 16.9743 80.5046C17.0549 80.2701 17.3115 80.1469 17.5443 80.2281C17.7771 80.3092 17.8994 80.5677 17.8188 80.8021C17.798 80.8652 15.6642 87.1258 16.3565 96.0222C16.3744 96.2717 16.1924 96.4881 15.9447 96.5061C15.9328 96.5061 15.9208 96.5061 15.9089 96.5061Z" fill="#E59AE6"/>
<path d="M56.3976 96.5061C56.3976 96.5061 56.3737 96.5061 56.3618 96.5061C56.1141 96.4881 55.9321 96.2687 55.95 96.0222C56.6453 87.1108 54.5115 80.8652 54.4877 80.8021C54.4071 80.5677 54.5294 80.3092 54.7622 80.2281C54.995 80.1469 55.2516 80.2701 55.3322 80.5046C55.4218 80.7661 57.5496 86.9936 56.8423 96.0913C56.8244 96.3288 56.6274 96.5061 56.3976 96.5061Z" fill="#E59AE6"/>
</svg>
