<svg width="74" height="117" viewBox="0 0 74 117" fill="none" xmlns="http://www.w3.org/2000/svg">
<path d="M36.7552 13.1532C37.2726 13.1532 37.7421 13.1562 38.1758 13.1651C39.8864 13.192 40.996 13.2728 41.8573 13.3505C42.6259 13.4193 43.2001 13.4881 43.8342 13.521C49.8365 7.4409 54.5409 0 61.0637 0C68.1517 0 69.7547 15.3783 70.6668 24.2009C82.0286 59.9309 57.0262 70.9248 36.7552 70.9248C16.4841 70.9248 -8.5153 59.9309 2.84343 24.2009C3.75859 15.3783 5.35864 0 12.4496 0C18.9694 0 23.6768 7.4409 29.6761 13.524C30.3102 13.4911 30.8844 13.4223 31.653 13.3535C32.5173 13.2758 33.6269 13.195 35.3346 13.1681C35.7652 13.1591 36.2378 13.1562 36.7552 13.1562V13.1532Z" fill="#FFB6FF"/>
<path d="M12.7607 6.8036C10.41 7.2223 8.83091 16.3948 8.83988 20.2618C8.83988 20.5968 9.20475 20.7942 9.4799 20.6117C14.0557 17.5911 16.9328 16.6311 21.7957 15.4139C22.0349 15.3541 22.1575 15.0789 22.0379 14.8576C20.2704 11.6486 15.4194 6.33107 12.7607 6.80061V6.8036Z" fill="#F395EC"/>
<path d="M60.7484 6.8036C63.0991 7.2223 64.6782 16.3948 64.6692 20.2618C64.6692 20.5968 64.3044 20.7942 64.0292 20.6117C59.4534 17.5911 56.5763 16.6311 51.7134 15.4139C51.4742 15.3541 51.3516 15.0789 51.4712 14.8576C53.2387 11.6486 58.0897 6.33107 60.7484 6.80061V6.8036Z" fill="#F395EC"/>
<path d="M24.4156 46.2969C26.6497 46.2969 28.5099 44.4336 28.5099 42.1816C28.5099 39.9296 26.6497 38.0664 24.4156 38.0664C22.1815 38.0664 20.3213 39.9296 20.3213 42.1816C20.3213 44.4336 22.1815 46.2969 24.4156 46.2969Z" fill="#282828"/>
<path d="M49.0943 46.2969C46.8602 46.2969 45 44.4336 45 42.1816C45 39.9296 46.8602 38.0664 49.0943 38.0664C51.3284 38.0664 53.1886 39.9296 53.1886 42.1816C53.1886 44.4336 51.3284 46.2969 49.0943 46.2969Z" fill="#282828"/>
<path d="M36.755 43.625C35.484 43.625 33.7105 44.1005 34.1741 45.6078C34.6137 47.0464 36.2526 47.6774 36.755 47.6774C37.2575 47.6774 38.8964 47.0464 39.336 45.6078C39.7996 44.0975 38.0261 43.625 36.755 43.625Z" fill="#282828"/>
<path d="M36.7555 51.1794C36.3428 51.1794 36.0078 50.8445 36.0078 50.4318V46.484C36.0078 46.0713 36.3428 45.7363 36.7555 45.7363C37.1682 45.7363 37.5032 46.0713 37.5032 46.484V50.4318C37.5032 50.8445 37.1682 51.1794 36.7555 51.1794Z" fill="#282828"/>
<path d="M9.58777 50.1496C9.2259 50.1496 8.88497 49.9283 8.7474 49.5694C8.57095 49.1058 8.80422 48.5884 9.26778 48.412C11.2357 47.6643 13.6402 47.1379 16.0388 46.9256C16.5292 46.8807 16.9689 47.2456 17.0107 47.7391C17.0526 48.2325 16.6907 48.6692 16.1973 48.7111C13.9572 48.9085 11.7232 49.3989 9.90481 50.0898C9.80013 50.1287 9.69245 50.1496 9.58777 50.1496Z" fill="#DD87D6"/>
<path d="M16.1194 44.7451C16.0356 44.7451 15.9489 44.7331 15.8651 44.7092C13.9092 44.129 11.9114 43.8329 10.2456 43.8718C9.7581 43.8957 9.33938 43.492 9.32742 42.9955C9.31545 42.499 9.70725 42.0893 10.2037 42.0774C12.046 42.0325 14.2442 42.3555 16.3736 42.9865C16.8491 43.1271 17.1212 43.6266 16.9807 44.1021C16.864 44.4909 16.5081 44.7451 16.1194 44.7451Z" fill="#DD87D6"/>
<path d="M63.9238 50.1496C63.8191 50.1496 63.7114 50.1317 63.6067 50.0898C61.7884 49.3989 59.5543 48.9114 57.3143 48.7111C56.8208 48.6662 56.4559 48.2325 56.5008 47.7391C56.5457 47.2456 56.9823 46.8807 57.4728 46.9256C59.8713 47.1379 62.2759 47.6673 64.2438 48.412C64.7073 48.5884 64.9406 49.1058 64.7641 49.5694C64.6266 49.9283 64.2886 50.1496 63.9238 50.1496Z" fill="#DD87D6"/>
<path d="M57.3915 44.7451C57.0057 44.7451 56.6468 44.4939 56.5302 44.1021C56.3896 43.6266 56.6617 43.1271 57.1373 42.9865C59.2667 42.3555 61.4589 42.0325 63.3101 42.0774C63.8066 42.0893 64.1984 42.499 64.1864 42.9955C64.1744 43.483 63.7767 43.8718 63.2892 43.8718C63.2832 43.8718 63.2742 43.8718 63.2682 43.8718C61.6024 43.8329 59.6046 44.129 57.6487 44.7092C57.565 44.7331 57.4782 44.7451 57.3945 44.7451H57.3915Z" fill="#DD87D6"/>
<path d="M61.7109 32.7369C62.2732 30.2247 62.9401 28.8071 62.8713 26.1842C62.8683 26.0646 62.9999 25.9868 63.1016 26.0496C65.7065 27.7005 68.1021 30.0931 68.7361 32.7698C69.3701 35.4465 67.9944 37.3516 65.8949 37.6117C63.7955 37.8719 60.8646 36.5381 61.7139 32.7339L61.7109 32.7369Z" fill="#CBEAFF"/>
<path d="M42.4398 54.6703C42.4398 54.8019 42.4338 54.9305 42.4188 55.0591C42.3381 55.8128 41.5904 56.3093 40.8607 56.0999C39.6435 55.747 38.1541 55.5406 36.5451 55.5406C34.9361 55.5406 33.4467 55.747 32.2295 56.0999C31.4998 56.3122 30.7491 55.8158 30.6713 55.0591C30.6593 54.9305 30.6504 54.8019 30.6504 54.6733C30.6504 52.1222 33.2882 50.0557 36.5451 50.0557C39.802 50.0557 42.4398 52.1222 42.4398 54.6733V54.6703Z" fill="#973472"/>
<path d="M37.4272 104.6C38.0105 104.6 38.4457 104.543 39.0616 104.435C38.9668 116.996 42.872 116.999 46.0726 116.996C49.4626 116.993 51.2716 116.996 53.8001 110.783C55.5558 106.468 56.7164 102.051 57.1605 96.7108C57.1753 96.5488 57.3855 96.5009 57.4566 96.6448C58.1553 98.0511 59.8725 99.7123 62.6379 98.9986C66.1493 98.0931 67.5852 93.8772 67.8221 89.3314C68.3106 80.03 63.1945 68.7736 57.8059 64.5098H17.0485C11.66 68.7736 6.54387 80.033 7.03239 89.3314C7.26925 93.8772 8.70816 98.0931 12.2166 98.9986C14.982 99.7123 16.6992 98.0511 17.3979 96.6448C17.469 96.5009 17.6792 96.5488 17.694 96.7108C18.1381 102.051 19.2957 106.465 21.0544 110.783C23.5829 116.996 25.3919 116.993 28.7819 116.996C31.9825 116.996 35.8906 116.996 35.7929 104.435C36.4088 104.543 36.841 104.6 37.4272 104.6Z" fill="#FAB8FF"/>
<path d="M36.8841 99.5011C42.5856 99.5011 47.2076 93.8712 47.2076 86.9263C47.2076 79.9815 42.5856 74.3516 36.8841 74.3516C31.1825 74.3516 26.5605 79.9815 26.5605 86.9263C26.5605 93.8712 31.1825 99.5011 36.8841 99.5011Z" fill="#F9E0FF"/>
<path d="M16.9089 96.5061C16.6761 96.5061 16.4821 96.3258 16.4642 96.0913C15.7569 86.9936 17.8818 80.7631 17.9743 80.5046C18.0549 80.2701 18.3115 80.1469 18.5443 80.2281C18.7771 80.3092 18.8994 80.5677 18.8188 80.8021C18.798 80.8652 16.6642 87.1258 17.3565 96.0222C17.3744 96.2717 17.1924 96.4881 16.9447 96.5061C16.9328 96.5061 16.9208 96.5061 16.9089 96.5061Z" fill="#E59AE6"/>
<path d="M57.3976 96.5061C57.3976 96.5061 57.3737 96.5061 57.3618 96.5061C57.1141 96.4881 56.9321 96.2687 56.95 96.0222C57.6453 87.1108 55.5115 80.8652 55.4877 80.8021C55.4071 80.5677 55.5294 80.3092 55.7622 80.2281C55.995 80.1469 56.2516 80.2701 56.3322 80.5046C56.4218 80.7661 58.5496 86.9936 57.8423 96.0913C57.8244 96.3288 57.6274 96.5061 57.3976 96.5061Z" fill="#E59AE6"/>
</svg>
