<svg width="54" height="53" viewBox="0 0 54 53" fill="none" xmlns="http://www.w3.org/2000/svg">
<path d="M26.9097 10.3818C27.2885 10.3818 27.6323 10.384 27.9498 10.3906C29.2023 10.4103 30.0147 10.4694 30.6454 10.5263C31.2081 10.5767 31.6285 10.6271 32.0928 10.6512C36.4875 6.19882 39.9341 0.75 44.7077 0.75C49.8973 0.75 51.0709 12.0112 51.7388 18.4718C60.0575 44.6362 41.7516 52.6868 26.9097 52.6868C12.0679 52.6868 -6.23587 44.634 2.08282 18.4718C2.75068 12.0112 3.92218 0.75 9.11397 0.75C13.8875 0.75 17.3319 6.19882 21.7267 10.6534C22.1909 10.6293 22.6113 10.5789 23.1741 10.5285C23.8069 10.4716 24.6193 10.4125 25.8696 10.3927C26.1849 10.3862 26.5309 10.384 26.9097 10.384V10.3818Z" fill="#FFB6FF"/>
<path d="M9.33948 5.73226C7.61837 6.03886 6.46221 12.7557 6.46878 15.5874C6.46878 15.8327 6.73592 15.9773 6.93737 15.8437C10.2876 13.6317 12.3941 12.9287 15.9546 12.0374C16.1298 11.9936 16.2195 11.7921 16.132 11.63C14.8378 9.28012 11.2861 5.38623 9.33948 5.73007V5.73226Z" fill="#F395EC"/>
<path d="M44.4749 5.73226C46.196 6.03886 47.3522 12.7557 47.3456 15.5874C47.3456 15.8327 47.0784 15.9773 46.877 15.8437C43.5267 13.6317 41.4202 12.9287 37.8598 12.0374C37.6846 11.9936 37.5948 11.7921 37.6824 11.63C38.9765 9.28012 42.5282 5.38623 44.4749 5.73007V5.73226Z" fill="#F395EC"/>
<path d="M7.01783 37.4731C6.75287 37.4731 6.50324 37.3111 6.40252 37.0483C6.27332 36.7088 6.44412 36.3299 6.78353 36.2007C8.22435 35.6532 9.98488 35.2678 11.741 35.1123C12.1045 35.0816 12.422 35.3466 12.4527 35.708C12.4855 36.0693 12.2184 36.3891 11.8571 36.4197C10.217 36.5643 8.58128 36.9234 7.24993 37.4293C7.17329 37.4578 7.09447 37.4731 7.01783 37.4731Z" fill="#DD87D6"/>
<path d="M11.8011 33.5156C11.7398 33.5156 11.6763 33.5068 11.615 33.4893C10.183 33.0644 8.72023 32.8476 7.50056 32.8761C7.13488 32.8849 6.83708 32.598 6.82832 32.2344C6.81956 31.8709 7.10641 31.5708 7.4699 31.5621C8.82533 31.5292 10.4282 31.7679 11.9873 32.2278C12.3354 32.3308 12.5347 32.6965 12.4318 33.0447C12.3464 33.3294 12.0858 33.5156 11.8011 33.5156Z" fill="#DD87D6"/>
<path d="M46.8048 37.473C46.7281 37.473 46.6493 37.4598 46.5727 37.4292C45.2413 36.9233 43.6056 36.5663 41.9655 36.4196C41.6042 36.3867 41.3371 36.0692 41.3699 35.7078C41.4028 35.3464 41.7225 35.0793 42.0816 35.1121C43.8377 35.2676 45.5982 35.6552 47.0391 36.2006C47.3785 36.3298 47.5493 36.7086 47.4201 37.0481C47.3194 37.3109 47.0697 37.473 46.8048 37.473Z" fill="#DD87D6"/>
<path d="M42.021 33.5156C41.7385 33.5156 41.4758 33.3317 41.3904 33.0448C41.2875 32.6965 41.4867 32.3308 41.8349 32.2279C43.394 31.7658 44.999 31.5292 46.3523 31.5621C46.7157 31.5709 47.0026 31.8709 46.9938 32.2344C46.9851 32.598 46.6807 32.8871 46.3216 32.8761C45.0997 32.8477 43.6392 33.0645 42.2071 33.4893C42.1458 33.5069 42.0823 33.5156 42.021 33.5156Z" fill="#DD87D6"/>
<path d="M38.975 33.8066C38.8874 33.8066 38.7976 33.789 38.7122 33.7518C37.013 33.0094 34.9218 32.5714 33.5379 32.2823C33.308 32.2341 33.1197 32.0655 33.0474 31.8421C32.9752 31.6187 33.0277 31.3712 33.1876 31.1982C34.3284 29.9477 36.6342 28.465 38.2217 27.9613C38.5677 27.8518 38.9378 28.0424 39.0472 28.3884C39.1567 28.7344 38.9662 29.1045 38.6202 29.214C37.5933 29.5404 36.1284 30.401 35.051 31.2639C36.3451 31.5552 37.8867 31.9582 39.2399 32.5473C39.5728 32.6918 39.7239 33.0795 39.5793 33.4123C39.472 33.6598 39.2312 33.8066 38.9772 33.8066H38.975Z" fill="#282828"/>
<path d="M14.8484 33.8064C14.5944 33.8064 14.3535 33.6597 14.2462 33.4122C14.1017 33.0793 14.2528 32.6917 14.5856 32.5471C15.9366 31.958 17.4804 31.555 18.7745 31.2638C17.6972 30.4009 16.2323 29.538 15.2053 29.2139C14.8593 29.1044 14.6688 28.7343 14.7783 28.3882C14.8878 28.0422 15.2578 27.8495 15.6038 27.9612C17.1913 28.4649 19.4971 29.9475 20.6379 31.1981C20.7978 31.3711 20.8503 31.6185 20.7781 31.8419C20.7058 32.0653 20.5175 32.2339 20.2876 32.2821C18.9037 32.5712 16.8125 33.0114 15.1133 33.7516C15.0279 33.7889 14.9381 33.8064 14.8505 33.8064H14.8484Z" fill="#282828"/>
<path d="M26.9098 32.6958C25.9792 32.6958 24.6807 33.044 25.0201 34.1478C25.342 35.2012 26.5419 35.6633 26.9098 35.6633C27.2777 35.6633 28.4776 35.2012 28.7995 34.1478C29.1389 33.0418 27.8404 32.6958 26.9098 32.6958Z" fill="#282828"/>
<path d="M26.9068 37.9779C26.6046 37.9779 26.3594 37.7326 26.3594 37.4304V34.7914C26.3594 34.4892 26.6046 34.2439 26.9068 34.2439C27.209 34.2439 27.4542 34.4892 27.4542 34.7914V37.4304C27.4542 37.7326 27.209 37.9779 26.9068 37.9779Z" fill="#282828"/>
<path d="M32.4525 37.42C32.4284 37.1835 32.216 37.0148 31.9795 37.0389C30.6898 37.1681 29.2183 37.4309 26.9126 37.4309C24.6068 37.4309 23.1331 37.1681 21.8456 37.0389C21.6091 37.0148 21.3967 37.1856 21.3726 37.42C21.3091 38.042 21.3595 38.9421 21.4361 39.402C21.666 40.7905 22.174 41.9096 22.8988 42.7418C23.4594 41.6884 24.6856 40.9744 26.9126 40.9744C29.1395 40.9744 30.3679 41.6862 30.9263 42.7418C31.6511 41.9118 32.1591 40.7926 32.389 39.402C32.4657 38.9399 32.516 38.0398 32.4525 37.42Z" fill="#973472"/>
<path d="M26.9122 40.9744C24.683 40.9744 23.4568 41.6861 22.8984 42.7417C23.8816 43.8674 25.2655 44.4631 26.9122 44.4631C28.5588 44.4631 29.9427 43.8674 30.9259 42.7417C30.3653 41.6883 29.1391 40.9744 26.9122 40.9744Z" fill="#E65BA6"/>
</svg>
