<svg width="54" height="53" viewBox="0 0 54 53" fill="none" xmlns="http://www.w3.org/2000/svg">
<path d="M26.911 10.3818C27.2898 10.3818 27.6336 10.384 27.9511 10.3906C29.2036 10.4103 30.016 10.4694 30.6466 10.5263C31.2093 10.5767 31.6298 10.6271 32.094 10.6512C36.4887 6.19882 39.9353 0.75 44.7089 0.75C49.8985 0.75 51.0722 12.0112 51.7401 18.4718C60.0588 44.6362 41.7528 52.6868 26.911 52.6868C12.0691 52.6868 -6.23464 44.6362 2.08187 18.4718C2.75192 12.0112 3.9256 0.75 9.11521 0.75C13.8888 0.75 17.3354 6.19882 21.7279 10.6534C22.1921 10.6293 22.6126 10.5789 23.1753 10.5285C23.8081 10.4716 24.6205 10.4125 25.8709 10.3927C26.1862 10.3862 26.5321 10.384 26.911 10.384V10.3818Z" fill="#FFB6FF"/>
<path d="M9.34339 5.73201C7.62228 6.03862 6.46611 12.7555 6.47268 15.5872C6.47268 15.8325 6.73983 15.977 6.94128 15.8434C10.2915 13.6315 12.398 12.9285 15.9585 12.0371C16.1337 11.9933 16.2234 11.7919 16.1359 11.6298C14.8417 9.27988 11.29 5.38599 9.34339 5.72982V5.73201Z" fill="#F395EC"/>
<path d="M44.4788 5.73201C46.1999 6.03862 47.3561 12.7555 47.3495 15.5872C47.3495 15.8325 47.0824 15.977 46.8809 15.8434C43.5306 13.6315 41.4241 12.9285 37.8637 12.0371C37.6885 11.9933 37.5987 11.7919 37.6863 11.6298C38.9804 9.27988 42.5321 5.38599 44.4788 5.72982V5.73201Z" fill="#F395EC"/>
<path d="M17.8766 34.652C19.5123 34.652 20.8743 33.2876 20.8743 31.6385C20.8743 29.9894 19.5123 28.625 17.8766 28.625C16.2409 28.625 14.8789 29.9894 14.8789 31.6385C14.8789 33.2876 16.2409 34.652 17.8766 34.652Z" fill="#282828"/>
<path d="M35.9469 34.652C34.3112 34.652 32.9492 33.2876 32.9492 31.6385C32.9492 29.9894 34.3112 28.625 35.9469 28.625C37.5827 28.625 38.9446 29.9894 38.9446 31.6385C38.9446 33.2876 37.5827 34.652 35.9469 34.652Z" fill="#282828"/>
<path d="M26.9098 32.6958C25.9792 32.6958 24.6807 33.044 25.0201 34.1478C25.342 35.2012 26.5419 35.6633 26.9098 35.6633C27.2777 35.6633 28.4776 35.2012 28.7995 34.1478C29.1389 33.0418 27.8404 32.6958 26.9098 32.6958Z" fill="#282828"/>
<path d="M26.9069 38.2146C26.5434 38.2146 26.25 37.9211 26.25 37.5576V34.7915C26.25 34.428 26.5434 34.1345 26.9069 34.1345C27.2704 34.1345 27.5638 34.428 27.5638 34.7915V37.5576C27.5638 37.9211 27.2704 38.2146 26.9069 38.2146Z" fill="#282828"/>
<path d="M28.8528 38.8891C28.8178 38.8891 28.7805 38.8869 28.7455 38.8803C27.539 38.681 26.2755 38.681 25.069 38.8803C24.7121 38.9394 24.3727 38.6963 24.3135 38.3394C24.2544 37.9824 24.4975 37.6429 24.8544 37.5838C26.2011 37.3604 27.6113 37.3604 28.9601 37.5838C29.317 37.6429 29.5601 37.9802 29.501 38.3394C29.4484 38.6613 29.1703 38.8891 28.8528 38.8891Z" fill="#282828"/>
<path d="M7.02172 37.4727C6.75676 37.4727 6.50715 37.3107 6.40642 37.0479C6.27723 36.7084 6.44803 36.3295 6.78743 36.2003C8.22826 35.6528 9.98879 35.2674 11.7449 35.1119C12.104 35.079 12.4259 35.3462 12.4566 35.7076C12.4872 36.0689 12.2223 36.3887 11.861 36.4193C10.2209 36.5639 8.58518 36.923 7.25384 37.4289C7.1772 37.4574 7.09836 37.4727 7.02172 37.4727Z" fill="#DD87D6"/>
<path d="M11.8012 33.5154C11.7399 33.5154 11.6763 33.5066 11.615 33.4891C10.1829 33.0642 8.72243 32.8452 7.50058 32.8759C7.13708 32.8934 6.83708 32.5977 6.82832 32.2342C6.81956 31.8706 7.10642 31.5706 7.46992 31.5619C8.82534 31.529 10.4282 31.7655 11.9895 32.2276C12.3376 32.3306 12.5369 32.6963 12.434 33.0445C12.3486 33.3292 12.088 33.5154 11.8034 33.5154H11.8012Z" fill="#DD87D6"/>
<path d="M46.8048 37.473C46.7281 37.473 46.6493 37.4598 46.5727 37.4292C45.2413 36.9233 43.6056 36.5663 41.9655 36.4196C41.6042 36.3867 41.3371 36.0692 41.3699 35.7078C41.4028 35.3464 41.7203 35.0793 42.0816 35.1121C43.8377 35.2676 45.5982 35.6552 47.0391 36.2006C47.3785 36.3298 47.5493 36.7086 47.4201 37.0481C47.3194 37.3109 47.0719 37.473 46.8048 37.473Z" fill="#DD87D6"/>
<path d="M42.021 33.5156C41.7385 33.5156 41.4758 33.3317 41.3904 33.0448C41.2875 32.6965 41.4867 32.3308 41.8349 32.2279C43.3939 31.7658 44.9968 31.5292 46.3522 31.5621C46.7157 31.5709 47.0026 31.8709 46.9938 32.2344C46.9851 32.5914 46.6938 32.8761 46.3369 32.8761C46.3325 32.8761 46.326 32.8761 46.3216 32.8761C45.0976 32.8455 43.6392 33.0645 42.2071 33.4893C42.1458 33.5069 42.0823 33.5156 42.021 33.5156Z" fill="#DD87D6"/>
</svg>
