<svg width="54" height="53" viewBox="0 0 54 53" fill="none" xmlns="http://www.w3.org/2000/svg">
<path d="M27.3624 10.3818C27.7412 10.3818 28.085 10.384 28.4025 10.3906C29.655 10.4103 30.4674 10.4694 31.098 10.5263C31.6608 10.5767 32.0812 10.6271 32.5454 10.6512C36.9401 6.19882 40.3845 0.75 45.1581 0.75C50.3477 0.75 51.5214 12.0112 52.1893 18.4718C60.508 44.6362 42.202 52.6868 27.3602 52.6868C12.5183 52.6868 -5.78542 44.6362 2.53109 18.4718C3.20333 12.0112 4.37482 0.75 9.56443 0.75C14.338 0.75 17.7846 6.19882 22.1771 10.6534C22.6414 10.6293 23.0618 10.5789 23.6245 10.5285C24.2574 10.4716 25.0697 10.4125 26.3201 10.3927C26.6354 10.3862 26.9814 10.384 27.3602 10.384L27.3624 10.3818Z" fill="#FFB6FF"/>
<path d="M9.79651 5.73226C8.0754 6.03886 6.91924 12.7557 6.92581 15.5874C6.92581 15.8327 7.19296 15.9773 7.39441 15.8437C10.7447 13.6317 12.8512 12.9287 16.4116 12.0374C16.5868 11.9936 16.6766 11.7921 16.589 11.63C15.2949 9.28012 11.7432 5.38623 9.79651 5.73007V5.73226Z" fill="#F395EC"/>
<path d="M44.9319 5.73226C46.653 6.03886 47.8092 12.7557 47.8026 15.5874C47.8026 15.8327 47.5355 15.9773 47.334 15.8437C43.9838 13.6317 41.8773 12.9287 38.3168 12.0374C38.1416 11.9936 38.0519 11.7921 38.1394 11.63C39.4336 9.28012 42.9853 5.38623 44.9319 5.73007V5.73226Z" fill="#F395EC"/>
<path d="M18.3298 34.652C19.9655 34.652 21.3274 33.2876 21.3274 31.6385C21.3274 29.9894 19.9655 28.625 18.3298 28.625C16.694 28.625 15.332 29.9894 15.332 31.6385C15.332 33.2876 16.694 34.652 18.3298 34.652Z" fill="#282828"/>
<path d="M27.3629 32.696C26.4323 32.696 25.1338 33.0443 25.4732 34.148C25.7951 35.2015 26.995 35.6636 27.3629 35.6636C27.7308 35.6636 28.9307 35.2015 29.2526 34.148C29.592 33.0421 28.2935 32.696 27.3629 32.696Z" fill="#282828"/>
<path d="M27.36 38.2148C26.9965 38.2148 26.7031 37.9213 26.7031 37.5578V34.7918C26.7031 34.4282 26.9965 34.1348 27.36 34.1348C27.7235 34.1348 28.0169 34.4282 28.0169 34.7918V37.5578C28.0169 37.9213 27.7235 38.2148 27.36 38.2148Z" fill="#282828"/>
<path d="M7.47094 37.473C7.20598 37.473 6.95637 37.3109 6.85564 37.0481C6.72645 36.7086 6.89725 36.3298 7.23665 36.2006C8.67748 35.653 10.438 35.2676 12.1941 35.1121C12.5555 35.0793 12.8751 35.3464 12.9058 35.7078C12.9365 36.0692 12.6715 36.3889 12.3102 36.4196C10.6701 36.5641 9.0344 36.9233 7.70306 37.4292C7.62642 37.4576 7.54758 37.473 7.47094 37.473Z" fill="#DD87D6"/>
<path d="M12.2543 33.5156C12.193 33.5156 12.1295 33.5069 12.0681 33.4893C10.6361 33.0645 9.17118 32.8477 7.9537 32.8761C7.5924 32.8936 7.2902 32.598 7.28145 32.2344C7.27269 31.8709 7.55955 31.5709 7.92304 31.5621C9.27847 31.5292 10.8813 31.7658 12.4404 32.2279C12.7886 32.3308 12.9878 32.6965 12.8849 33.0448C12.7995 33.3295 12.5389 33.5156 12.2543 33.5156Z" fill="#DD87D6"/>
<path d="M47.2501 37.473C47.1734 37.473 47.0946 37.4598 47.018 37.4292C45.6866 36.9233 44.0509 36.5663 42.4108 36.4196C42.0495 36.3867 41.7824 36.0692 41.8152 35.7078C41.8481 35.3464 42.1678 35.0793 42.5269 35.1121C44.283 35.2676 46.0435 35.6552 47.4844 36.2006C47.8238 36.3298 47.9946 36.7086 47.8654 37.0481C47.7646 37.3109 47.5172 37.473 47.2501 37.473Z" fill="#DD87D6"/>
<path d="M42.4702 33.5156C42.1878 33.5156 41.925 33.3317 41.8396 33.0448C41.7367 32.6965 41.9359 32.3308 42.2841 32.2279C43.8432 31.7658 45.446 31.5292 46.8015 31.5621C47.1649 31.5709 47.4518 31.8709 47.4431 32.2344C47.4343 32.5914 47.1431 32.8761 46.7861 32.8761C46.7818 32.8761 46.7752 32.8761 46.7708 32.8761C45.5489 32.8455 44.0884 33.0645 42.6564 33.4893C42.595 33.5069 42.5315 33.5156 42.4702 33.5156Z" fill="#DD87D6"/>
<path d="M38.6763 34.6386C38.5646 34.6386 38.4529 34.6101 38.35 34.551C36.896 33.7166 33.2568 32.6522 33.2195 32.6413C33.0071 32.5799 32.8385 32.4135 32.775 32.2032C32.7093 31.9908 32.7575 31.7609 32.8998 31.59C33.8523 30.449 35.7946 29.0255 37.969 27.8757C38.2909 27.7049 38.6872 27.8297 38.8558 28.1495C39.0244 28.4692 38.9018 28.8678 38.5821 29.0364C37.0384 29.8533 35.5932 30.8323 34.6297 31.6973C35.8756 32.0916 37.923 32.788 39.0047 33.41C39.32 33.5895 39.4273 33.9925 39.2478 34.3057C39.1273 34.5181 38.904 34.6364 38.6763 34.6364V34.6386Z" fill="#282828"/>
<path d="M33.4022 32.6698C33.1022 32.6698 32.8329 32.4639 32.7628 32.1595C32.6818 31.8047 32.903 31.4543 33.2577 31.3733C35.7999 30.7907 36.9846 30.7009 39.2706 30.6243C39.2772 30.6243 39.286 30.6243 39.2925 30.6243C39.6451 30.6243 39.9363 30.9046 39.9495 31.2594C39.9626 31.6229 39.6779 31.9252 39.3144 31.9383C37.07 32.0149 35.9927 32.0982 33.5511 32.6566C33.503 32.6676 33.4526 32.6741 33.4044 32.6741L33.4022 32.6698Z" fill="#282828"/>
<path d="M33.8041 41.0227C32.5888 42.6258 30.6246 43.8238 27.6488 43.9595C25.6934 44.0471 24.1256 43.5807 22.8928 42.812C20.9855 41.625 19.8841 39.7174 19.4002 38.0311C19.3148 37.7333 19.5557 37.442 19.8644 37.4726C24.119 37.8844 25.4416 37.8428 27.3642 37.6697C30.8173 37.3566 33.6158 35.7951 34.807 35.1402C35.096 34.9826 35.4464 35.1884 35.4551 35.5169C35.5077 37.3062 35.0522 39.378 33.8041 41.0227Z" fill="#973472"/>
<path d="M33.8019 41.0228C32.5866 42.6259 30.6225 43.8238 27.6467 43.9596C25.6913 44.0472 24.1234 43.5807 22.8906 42.812C23.4118 41.5374 25.9847 40.1292 28.7766 39.9694C30.8787 39.8467 32.6282 40.0175 33.8019 41.0228Z" fill="#E65BA6"/>
</svg>
