<svg width="363" height="315" viewBox="0 0 363 315" fill="none" xmlns="http://www.w3.org/2000/svg">
<path d="M340.735 107.478C344.806 83.8239 339.96 46.2103 335.501 19.2603C332.787 3.36177 315.145 -4.97528 301.38 3.16788C288.003 10.7294 271.912 20.6175 257.759 30.6995C234.689 19.6481 208.904 13.2499 181.569 13.2499C154.233 13.2499 128.255 19.6481 105.378 30.6995C91.0319 20.6175 75.1346 10.7294 61.7576 3.16788C47.9929 -4.78139 30.3509 3.36177 27.6367 19.2603C22.9839 46.2103 18.331 83.8239 22.4022 107.478C8.63753 131.326 0.882812 157.694 0.882812 183.287C0.882812 266.269 114.102 314.353 181.569 314.353C249.035 314.353 362.255 266.269 362.255 183.287C361.867 157.5 354.306 131.326 340.735 107.478Z" fill="#E8A6FF"/>
<path d="M181.181 156.725C191.262 156.725 202.894 160.215 199.599 168.745C196.497 177.47 185.834 185.226 181.181 185.226C176.528 185.226 165.672 176.889 162.764 168.745C159.468 160.215 171.1 156.725 181.181 156.725Z" fill="#282828"/>
<path d="M121.081 168.164C129.999 168.164 137.173 161.378 137.173 152.847C137.173 144.51 129.999 137.53 121.081 137.53C112.163 137.53 104.99 144.316 104.99 152.847C105.184 161.378 112.357 168.164 121.081 168.164Z" fill="#282828"/>
<path d="M241.474 168.164C250.392 168.164 257.565 161.378 257.565 152.847C257.565 144.51 250.392 137.53 241.474 137.53C232.556 137.53 225.383 144.316 225.383 152.847C225.577 161.378 232.75 168.164 241.474 168.164Z" fill="#282828"/>
<path d="M265.32 179.409C262.994 179.409 260.861 177.664 260.474 175.338C260.086 172.623 261.831 170.103 264.545 169.521L298.666 163.511C301.38 162.929 303.9 164.868 304.482 167.582C304.87 170.297 303.125 172.817 300.411 173.399L266.29 179.409C265.902 179.409 265.514 179.409 265.32 179.409Z" fill="#282828"/>
<path d="M299.247 207.523C299.053 207.523 298.666 207.523 298.472 207.523L264.351 201.512C261.637 201.124 259.892 198.41 260.279 195.696C260.667 192.981 263.381 191.236 266.095 191.624L300.217 197.635C302.931 198.022 304.676 200.737 304.288 203.451C303.706 205.972 301.768 207.523 299.247 207.523Z" fill="#282828"/>
<path d="M95.2968 179.409C95.1029 179.409 94.7153 179.409 94.5214 179.409L60.4004 173.399C57.6862 173.011 55.9414 170.297 56.3292 167.582C56.7169 164.868 59.4311 163.123 62.1452 163.511L96.2662 169.521C98.9803 169.909 100.725 172.623 100.337 175.338C99.7559 177.664 97.6232 179.409 95.2968 179.409Z" fill="#282828"/>
<path d="M61.3702 207.523C59.0438 207.523 56.9112 205.778 56.5235 203.451C56.1358 200.737 57.8807 198.216 60.5948 197.635L94.7157 191.624C97.4299 191.236 99.9502 192.981 100.532 195.696C100.92 198.41 99.1748 200.931 96.4606 201.512L62.3396 207.523C61.9518 207.523 61.5641 207.523 61.3702 207.523Z" fill="#282828"/>
<path d="M113.909 111.743C117.398 112.325 120.694 112.713 124.184 113.294C124.765 113.294 125.153 113.488 125.735 113.488C127.092 113.682 128.255 113.682 129.418 112.907C130.388 112.325 131.357 111.162 131.551 109.998C131.745 108.835 131.745 107.284 130.969 106.315C130.388 105.345 129.224 104.182 128.061 104.182C124.572 103.6 121.276 103.212 117.786 102.631C117.205 102.631 116.817 102.437 116.235 102.437C114.878 102.243 113.715 102.243 112.552 103.018C111.582 103.6 110.613 104.763 110.419 105.927C110.225 107.09 110.225 108.641 111.001 109.611C111.776 110.386 112.746 111.549 113.909 111.743Z" fill="#272828"/>
<path d="M235.465 90.6099C238.954 90.2221 242.444 89.8343 245.74 89.4466C246.321 89.4466 246.709 89.2527 247.291 89.2527C248.648 89.0588 249.811 88.8649 250.78 87.8955C251.556 87.12 252.331 85.7628 252.137 84.4056C252.137 83.2423 251.75 81.8851 250.78 80.9156C249.811 80.1401 248.648 79.3646 247.291 79.5585C243.801 79.9462 240.311 80.334 237.016 80.7218C236.434 80.7218 236.046 80.9156 235.465 80.9156C234.108 81.1095 232.944 81.3034 231.975 82.2728C231.2 83.0484 230.424 84.4056 230.618 85.7628C230.618 86.9261 231.006 88.2833 231.975 89.2527C232.944 90.0282 234.302 90.8038 235.465 90.6099Z" fill="#272828"/>
<path d="M158.111 222.064C169.161 210.431 192.813 210.431 203.864 222.064C208.129 226.523 215.108 219.737 210.649 215.278C195.915 199.961 165.865 199.961 151.131 215.278C146.866 219.737 153.652 226.717 158.111 222.064Z" fill="#282828"/>
</svg>
