<svg width="74" height="117" viewBox="0 0 74 117" fill="none" xmlns="http://www.w3.org/2000/svg">
<path d="M36.7582 13.1562C37.2756 13.1562 37.7451 13.1591 38.1788 13.1681C39.8894 13.195 40.999 13.2758 41.8603 13.3535C42.629 13.4223 43.2031 13.4911 43.8372 13.524C49.8395 7.4409 54.544 0 61.0637 0C68.1517 0 69.7547 15.3783 70.6668 24.2009C82.0286 59.9309 57.0262 70.9248 36.7552 70.9248C16.4841 70.9248 -8.5153 59.9309 2.84343 24.2009C3.75859 15.3783 5.35865 0 12.4466 0C18.9664 0 23.6738 7.4409 29.6732 13.524C30.3072 13.4911 30.8814 13.4223 31.65 13.3535C32.5143 13.2758 33.6239 13.195 35.3316 13.1681C35.7623 13.1591 36.2348 13.1562 36.7522 13.1562H36.7582Z" fill="#FFB6FF"/>
<path d="M12.7646 6.8075C10.4139 7.2262 8.83482 16.3987 8.84379 20.2657C8.84379 20.6007 9.2087 20.7981 9.48384 20.6156C14.0596 17.595 16.9367 16.635 21.7996 15.4178C22.0388 15.358 22.1615 15.0828 22.0418 14.8615C20.2743 11.6525 15.4234 6.33497 12.7646 6.80451V6.8075Z" fill="#F395EC"/>
<path d="M60.7533 6.8075C63.104 7.2262 64.6831 16.3987 64.6741 20.2657C64.6741 20.6007 64.3092 20.7981 64.0341 20.6156C59.4583 17.595 56.5813 16.635 51.7184 15.4178C51.4791 15.358 51.3565 15.0828 51.4761 14.8615C53.2436 11.6525 58.0945 6.33497 60.7533 6.80451V6.8075Z" fill="#F395EC"/>
<path d="M24.4185 46.2988C26.6526 46.2988 28.5128 44.4356 28.5128 42.1836C28.5128 39.9316 26.6526 38.0684 24.4185 38.0684C22.1844 38.0684 20.3242 39.9316 20.3242 42.1836C20.3242 44.4356 22.1844 46.2988 24.4185 46.2988Z" fill="#282828"/>
<path d="M49.0972 46.2988C46.8631 46.2988 45.0029 44.4356 45.0029 42.1836C45.0029 39.9316 46.8631 38.0684 49.0972 38.0684C51.3313 38.0684 53.1915 39.9316 53.1915 42.1836C53.1915 44.4356 51.3313 46.2988 49.0972 46.2988Z" fill="#282828"/>
<path d="M36.758 43.6289C35.487 43.6289 33.7134 44.1044 34.177 45.6118C34.6166 47.0503 36.2556 47.6813 36.758 47.6813C37.2604 47.6813 38.8993 47.0503 39.339 45.6118C39.8025 44.1014 38.0291 43.6289 36.758 43.6289Z" fill="#282828"/>
<path d="M36.7584 51.6668C36.3457 51.6668 36.0107 51.3318 36.0107 50.9191V46.4899C36.0107 46.0771 36.3457 45.7422 36.7584 45.7422C37.1711 45.7422 37.5061 46.0771 37.5061 46.4899V50.9191C37.5061 51.3318 37.1711 51.6668 36.7584 51.6668Z" fill="#282828"/>
<path d="M9.59074 50.1531C9.22886 50.1531 8.8879 49.9318 8.75033 49.5729C8.57388 49.1093 8.80715 48.5919 9.27071 48.4155C11.2356 47.6678 13.6402 47.1414 16.0417 46.9291C16.5352 46.8872 16.9718 47.2491 17.0137 47.7426C17.0586 48.236 16.6937 48.6727 16.2002 48.7145C13.9602 48.9119 11.7261 49.4024 9.90777 50.0933C9.8031 50.1321 9.69541 50.1531 9.59074 50.1531Z" fill="#DD87D6"/>
<path d="M16.1222 44.7451C16.0385 44.7451 15.9517 44.7331 15.868 44.7092C13.9121 44.129 11.9113 43.8329 10.2484 43.8718C10.2425 43.8718 10.2335 43.8718 10.2276 43.8718C9.74306 43.8718 9.34231 43.483 9.33034 42.9955C9.31838 42.4991 9.71015 42.0893 10.2066 42.0774C12.0549 42.0325 14.247 42.3555 16.3764 42.9865C16.8519 43.1271 17.1241 43.6266 16.9835 44.1021C16.8669 44.4909 16.511 44.7451 16.1222 44.7451Z" fill="#DD87D6"/>
<path d="M63.9257 50.1525C63.821 50.1525 63.7134 50.1346 63.6087 50.0927C61.7933 49.4019 59.5593 48.9144 57.3162 48.714C56.8228 48.6691 56.4579 48.2355 56.5028 47.742C56.5476 47.2485 56.9873 46.8837 57.4747 46.9285C59.8763 47.1409 62.2808 47.6702 64.2457 48.4149C64.7092 48.5914 64.9425 49.1088 64.7661 49.5723C64.6285 49.9312 64.2875 50.1525 63.9257 50.1525Z" fill="#DD87D6"/>
<path d="M57.3935 44.7451C57.0077 44.7451 56.6488 44.4939 56.5321 44.1021C56.3916 43.6266 56.6637 43.1271 57.1393 42.9865C59.2716 42.3555 61.4639 42.0325 63.3091 42.0774C63.8056 42.0893 64.1974 42.4991 64.1854 42.9955C64.1734 43.483 63.7757 43.8718 63.2882 43.8718C63.2822 43.8718 63.2732 43.8718 63.2672 43.8718C61.6074 43.8329 59.6036 44.129 57.6477 44.7092C57.5639 44.7331 57.4772 44.7451 57.3935 44.7451Z" fill="#DD87D6"/>
<path d="M36.7582 52.9208C32.7896 52.9208 31.2852 50.3668 31.2224 50.2591C30.9772 49.8284 31.1267 49.2811 31.5573 49.0359C31.988 48.7906 32.5353 48.9402 32.7806 49.3708C32.8194 49.4337 33.8722 51.1294 36.7582 51.1294C39.6443 51.1294 40.697 49.4336 40.7419 49.3619C40.9961 48.9402 41.5433 48.7966 41.968 49.0478C42.3927 49.2961 42.5393 49.8344 42.297 50.2621C42.2342 50.3697 40.7299 52.9238 36.7612 52.9238L36.7582 52.9208Z" fill="#282828"/>
<path d="M36.4272 104.604C37.0105 104.604 37.4457 104.547 38.0616 104.439C37.9668 117 41.872 117.003 45.0726 117C48.4626 116.997 50.2716 117 52.8001 110.787C54.5558 106.472 55.7164 102.055 56.1605 96.7147C56.1753 96.5527 56.3855 96.5048 56.4566 96.6487C57.1553 98.055 58.8725 99.7162 61.6379 99.0025C65.1493 98.097 66.5852 93.8811 66.8221 89.3353C67.3106 80.0339 62.1945 68.7776 56.8059 64.5137H16.0485C10.66 68.7776 5.54387 80.0369 6.03239 89.3353C6.26925 93.8811 7.70816 98.097 11.2166 99.0025C13.982 99.7162 15.6992 98.055 16.3979 96.6487C16.469 96.5048 16.6792 96.5527 16.694 96.7147C17.1381 102.055 18.2957 106.469 20.0544 110.787C22.5829 117 24.3919 116.997 27.7819 117C30.9825 117 34.8906 117 34.7929 104.439C35.4088 104.547 35.841 104.604 36.4272 104.604Z" fill="#FAB8FF"/>
<path d="M35.8841 99.505C41.5856 99.505 46.2076 93.8751 46.2076 86.9302C46.2076 79.9854 41.5856 74.3555 35.8841 74.3555C30.1825 74.3555 25.5605 79.9854 25.5605 86.9302C25.5605 93.8751 30.1825 99.505 35.8841 99.505Z" fill="#F9E0FF"/>
<path d="M15.9089 96.51C15.6761 96.51 15.4821 96.3297 15.4642 96.0952C14.7569 86.9975 16.8818 80.767 16.9743 80.5085C17.0549 80.2741 17.3115 80.1508 17.5443 80.232C17.7771 80.3131 17.8994 80.5716 17.8188 80.806C17.798 80.8691 15.6642 87.1297 16.3565 96.0261C16.3744 96.2756 16.1924 96.492 15.9447 96.51C15.9328 96.51 15.9208 96.51 15.9089 96.51Z" fill="#E59AE6"/>
<path d="M56.3976 96.51C56.3976 96.51 56.3737 96.51 56.3618 96.51C56.1141 96.492 55.9321 96.2726 55.95 96.0261C56.6453 87.1147 54.5115 80.8691 54.4877 80.806C54.4071 80.5716 54.5294 80.3131 54.7622 80.232C54.995 80.1508 55.2516 80.2741 55.3322 80.5085C55.4218 80.77 57.5496 86.9975 56.8423 96.0952C56.8244 96.3327 56.6274 96.51 56.3976 96.51Z" fill="#E59AE6"/>
</svg>
