<svg width="362" height="315" viewBox="0 0 362 315" fill="none" xmlns="http://www.w3.org/2000/svg">
<path d="M340.175 107.478C344.246 83.8239 339.399 46.2103 334.94 19.2603C332.226 3.36177 314.584 -4.97527 300.819 3.16788C287.442 10.7294 271.351 20.6175 257.199 30.6995C234.128 19.6481 208.344 13.2499 181.008 13.2499C153.673 13.2499 127.694 19.6481 104.818 30.6995C90.4714 20.6175 74.5742 10.7294 61.1972 3.16788C47.4325 -4.78139 29.7905 3.36177 27.0763 19.2603C22.4234 46.2103 17.7704 83.8239 21.8417 107.478C8.07698 131.326 0.322266 157.694 0.322266 183.287C0.322266 266.269 113.542 314.353 181.008 314.353C248.475 314.353 361.694 266.269 361.694 183.287C361.5 157.5 353.746 131.326 340.175 107.478Z" fill="#E8A6FF"/>
<path d="M180.814 156.725C190.895 156.725 202.527 160.215 199.232 168.745C196.13 177.47 185.467 185.226 180.814 185.226C176.161 185.226 165.304 176.889 162.396 168.745C159.101 160.215 170.733 156.725 180.814 156.725Z" fill="#282828"/>
<path d="M120.714 168.164C129.632 168.164 136.805 161.378 136.805 152.847C136.805 144.51 129.632 137.53 120.714 137.53C111.796 137.53 104.623 144.316 104.623 152.847C104.817 161.378 111.99 168.164 120.714 168.164Z" fill="#282828"/>
<path d="M240.913 168.164C249.831 168.164 257.004 161.378 257.004 152.847C257.004 144.51 249.831 137.53 240.913 137.53C231.995 137.53 224.822 144.316 224.822 152.847C225.016 161.378 232.189 168.164 240.913 168.164Z" fill="#282828"/>
<path d="M264.76 179.409C262.433 179.409 260.301 177.664 259.913 175.338C259.525 172.623 261.27 170.103 263.984 169.521L298.105 163.511C300.819 162.929 303.34 164.868 303.921 167.582C304.309 170.297 302.564 172.817 299.85 173.399L265.729 179.409C265.341 179.409 265.148 179.409 264.76 179.409Z" fill="#282828"/>
<path d="M298.881 207.523C298.687 207.523 298.299 207.523 298.105 207.523L263.984 201.512C261.27 201.124 259.525 198.41 259.913 195.696C260.301 192.981 263.015 191.236 265.729 191.624L299.85 197.635C302.564 198.022 304.309 200.737 303.921 203.451C303.34 205.972 301.207 207.523 298.881 207.523Z" fill="#282828"/>
<path d="M94.7365 179.409C94.5426 179.409 94.1548 179.409 93.961 179.409L59.8401 173.399C57.1259 173.011 55.3809 170.297 55.7686 167.582C56.1564 164.868 58.8705 163.123 61.5847 163.511L95.7058 169.521C98.42 169.909 100.165 172.623 99.777 175.338C99.3893 177.664 97.2568 179.409 94.7365 179.409Z" fill="#282828"/>
<path d="M60.8087 207.523C58.4823 207.523 56.3497 205.778 55.962 203.451C55.5742 200.737 57.319 198.216 60.0332 197.635L94.1541 191.624C96.8683 191.236 99.3886 192.981 99.9702 195.696C100.358 198.41 98.6131 200.931 95.899 201.512L61.7781 207.523C61.3903 207.523 61.0026 207.523 60.8087 207.523Z" fill="#282828"/>
<path d="M157.938 222.064C168.988 210.431 192.64 210.431 203.691 222.064C207.956 226.523 214.935 219.737 210.476 215.278C195.742 199.961 165.693 199.961 150.959 215.278C146.693 219.737 153.479 226.717 157.938 222.064Z" fill="#282828"/>
<path d="M115.868 154.98C119.402 154.98 122.266 152.115 122.266 148.582C122.266 145.048 119.402 142.184 115.868 142.184C112.335 142.184 109.471 145.048 109.471 148.582C109.471 152.115 112.335 154.98 115.868 154.98Z" fill="white"/>
<path d="M125.368 162.735C127.937 162.735 130.021 160.652 130.021 158.082C130.021 155.512 127.937 153.429 125.368 153.429C122.798 153.429 120.715 155.512 120.715 158.082C120.715 160.652 122.798 162.735 125.368 162.735Z" fill="white"/>
<path d="M113.348 170.684C120.843 170.684 126.919 169.121 126.919 167.194C126.919 165.267 120.843 163.704 113.348 163.704C105.853 163.704 99.7773 165.267 99.7773 167.194C99.7773 169.121 105.853 170.684 113.348 170.684Z" fill="#D3ECF4"/>
<path d="M237.036 154.98C240.57 154.98 243.434 152.115 243.434 148.582C243.434 145.048 240.57 142.184 237.036 142.184C233.503 142.184 230.639 145.048 230.639 148.582C230.639 152.115 233.503 154.98 237.036 154.98Z" fill="white"/>
<path d="M246.536 162.735C249.105 162.735 251.189 160.652 251.189 158.082C251.189 155.512 249.105 153.429 246.536 153.429C243.966 153.429 241.883 155.512 241.883 158.082C241.883 160.652 243.966 162.735 246.536 162.735Z" fill="white"/>
<path d="M247.118 170.684C254.613 170.684 260.689 169.121 260.689 167.194C260.689 165.267 254.613 163.704 247.118 163.704C239.623 163.704 233.547 165.267 233.547 167.194C233.547 169.121 239.623 170.684 247.118 170.684Z" fill="#D3ECF4"/>
</svg>
