<svg width="91" height="117" viewBox="0 0 91 117" fill="none" xmlns="http://www.w3.org/2000/svg">
<path d="M67.205 62.6392H23.8166C18.0798 67.0553 12.1758 78.7142 12.674 88.3474C12.9185 93.0573 13.7663 97.4487 18.3923 98.361C22.0343 99.0785 24.0209 97.3807 24.7325 95.9241C24.8068 95.7726 25.0203 95.8252 25.0358 95.9922C25.4875 101.522 26.6727 106.095 28.4674 110.564C31.0511 117 33.214 116.997 36.6797 117C39.9504 117 43.942 117 43.843 103.993C44.4711 104.104 44.9136 104.163 45.5108 104.163C46.108 104.163 46.5505 104.104 47.1787 103.993C47.0796 117 51.0713 117.003 54.342 117C57.8045 116.997 59.9674 117 62.5543 110.564C64.349 106.095 65.5341 101.522 65.9859 95.9922C65.9983 95.8252 66.2149 95.7726 66.2891 95.9241C67.0008 97.3807 68.9874 99.0785 72.6294 98.361C77.2554 97.4487 78.1032 93.0573 78.3476 88.3474C78.8458 78.7142 72.9419 67.0553 67.205 62.6392Z" fill="#FFD859"/>
<path d="M45.516 98.8127C51.2786 98.8127 55.9501 93.6745 55.9501 87.3363C55.9501 80.998 51.2786 75.8599 45.516 75.8599C39.7535 75.8599 35.082 80.998 35.082 87.3363C35.082 93.6745 39.7535 98.8127 45.516 98.8127Z" fill="#FFF5E6"/>
<path d="M24.8417 95.8254C24.6003 95.8254 24.3992 95.6399 24.3806 95.3956C23.6627 85.9974 25.8164 79.5649 25.9092 79.2958C25.9927 79.0546 26.2558 78.9247 26.4971 79.0082C26.7385 79.0917 26.8684 79.3546 26.788 79.5958C26.7663 79.6608 24.6034 86.1303 25.3058 95.3275C25.3244 95.5842 25.1325 95.8069 24.8788 95.8254C24.8664 95.8254 24.854 95.8254 24.8417 95.8254Z" fill="#E6B545"/>
<path d="M66.1982 95.8254C66.1982 95.8254 66.1734 95.8254 66.1611 95.8254C65.9042 95.8069 65.7155 95.5842 65.734 95.3275C66.4365 86.1303 64.2735 79.6608 64.2519 79.5958C64.1683 79.3546 64.2983 79.0886 64.5427 79.0082C64.7841 78.9247 65.0502 79.0546 65.1307 79.2958C65.2235 79.5649 67.3771 85.9974 66.6592 95.3956C66.6407 95.6399 66.4365 95.8254 66.1982 95.8254Z" fill="#E6B545"/>
<path d="M75.2784 52.5634C70.552 62.4194 60.4282 68.5182 45.6365 68.5182C43.0302 68.5182 40.5685 68.3275 38.2576 67.9644C34.8697 67.4259 31.7987 66.512 29.0631 65.2534C23.0689 62.5086 18.6686 58.136 15.9977 52.5603C13.6467 47.6615 12.6344 41.8365 13.0406 35.3684C13.776 23.7184 17.8993 14.1055 24.6628 7.85896C30.0847 2.84941 37.2052 0 45.6365 0C54.0678 0 61.1913 2.84941 66.6132 7.85896C73.3767 14.1055 77.5001 23.7184 78.2355 35.3684C78.6417 41.8365 77.6263 47.6646 75.2784 52.5634Z" fill="#FFD859"/>
<path d="M27.3596 7.42847C6.81064 9.58553 -6.85173 36.5873 5.70599 48.828C9.87241 52.8898 18.3837 57.2347 29.3229 42.2553L27.3596 7.42847Z" fill="#FFD859"/>
<path d="M63.9124 7.42847C84.4614 9.58553 98.1238 36.5873 85.5661 48.828C81.3997 52.8898 72.8884 57.2347 61.9492 42.2553L63.9124 7.42847Z" fill="#FFD859"/>
<path d="M65.3244 47.0183C68.6468 47.0183 71.3402 44.7052 71.3402 41.8518C71.3402 38.9984 68.6468 36.6853 65.3244 36.6853C62.002 36.6853 59.3086 38.9984 59.3086 41.8518C59.3086 44.7052 62.002 47.0183 65.3244 47.0183Z" fill="#F7C44A"/>
<path d="M25.922 47.0183C29.2445 47.0183 31.9378 44.7052 31.9378 41.8518C31.9378 38.9984 29.2445 36.6853 25.922 36.6853C22.5996 36.6853 19.9062 38.9984 19.9062 41.8518C19.9062 44.7052 22.5996 47.0183 25.922 47.0183Z" fill="#F7C44A"/>
<path d="M15.7707 52.6739C15.5953 52.6739 15.4261 52.5724 15.3492 52.4031C13.5583 48.4244 12.069 43.7441 13.269 36.5129C13.3121 36.2606 13.546 36.0913 13.8014 36.1344C14.0537 36.1775 14.2229 36.4144 14.1799 36.6667C13.0198 43.6549 14.4599 48.1813 16.1892 52.0277C16.2939 52.2616 16.1892 52.5324 15.9584 52.637C15.8969 52.6647 15.8323 52.677 15.7707 52.677V52.6739Z" fill="#E6B545"/>
<path d="M75.5026 52.6732C75.438 52.6732 75.3764 52.6609 75.3149 52.6332C75.081 52.5286 74.9795 52.2547 75.0841 52.024C76.8134 48.1776 78.2566 43.6511 77.0935 36.663C77.0504 36.4107 77.2227 36.1737 77.4719 36.1306C77.7181 36.0876 77.9612 36.2599 78.0043 36.5091C79.2043 43.7404 77.715 48.4206 75.9241 52.3994C75.8472 52.5717 75.678 52.6702 75.5026 52.6702V52.6732Z" fill="#E6B545"/>
<path d="M33.1153 41.3317C35.5308 40.4301 36.8693 38.4762 37.3616 37.7038C38.1094 36.5284 39.2849 32.9804 36.4878 32.0327C33.6907 31.0849 32.7091 33.882 32.7091 33.882C32.7091 33.882 31.4289 31.208 28.7518 32.4573C26.0748 33.7035 27.6288 37.1007 28.5027 38.19C29.075 38.9008 30.6166 40.6978 33.1183 41.3317H33.1153Z" fill="#F96A3E"/>
<path d="M58.1607 41.3317C55.7451 40.4301 54.4066 38.4762 53.9142 37.7038C53.1665 36.5284 51.9911 32.9804 54.7882 32.0327C57.5853 31.0849 58.5669 33.882 58.5669 33.882C58.5669 33.882 59.8469 31.208 62.524 32.4573C65.2011 33.7035 63.6472 37.1007 62.7733 38.19C62.2009 38.9008 60.6593 40.6978 58.1576 41.3317H58.1607Z" fill="#F96A3E"/>
<path d="M51.2547 49.9299C51.2547 51.7177 50.9408 53.3886 50.3962 54.7979C49.4023 57.3766 47.6391 59.0905 45.6328 59.0905C43.6265 59.0905 41.8603 57.3766 40.8694 54.7949C40.3217 53.3855 40.0078 51.7177 40.0078 49.9299C40.0078 48.4621 40.2201 47.0744 40.5986 45.8435C40.7401 45.9758 40.894 46.0866 41.0571 46.1789C42.848 47.1974 45.6328 45.9327 45.6328 44.0957C45.6328 45.9327 48.4176 47.1974 50.2084 46.1789C50.3684 46.0866 50.5223 45.9758 50.6638 45.8466C51.0423 47.0774 51.2547 48.4621 51.2547 49.9299Z" fill="#C0612C"/>
<path d="M50.3939 54.7971C49.4 57.3757 47.6368 59.0897 45.6306 59.0897C43.6243 59.0897 41.858 57.3757 40.8672 54.794C42.0519 53.8339 43.7443 53.2339 45.6275 53.2339C47.5107 53.2339 49.2092 53.8339 50.3939 54.7971Z" fill="#E28B5B"/>
<path d="M48.2832 40.219C48.1448 40.6713 47.8925 41.0467 47.594 41.3483C47.5386 41.4037 47.4801 41.456 47.4247 41.5052C46.7662 42.0806 45.957 42.3453 45.6277 42.3453C45.2985 42.3453 44.4892 42.0806 43.8307 41.5052C43.7722 41.456 43.7168 41.4006 43.6614 41.3452C43.3629 41.0437 43.1106 40.6683 42.9721 40.219C42.4952 38.665 44.32 38.1758 45.6277 38.1758C46.9355 38.1758 48.7602 38.665 48.2832 40.219Z" fill="#282828"/>
<path d="M42.4984 47.3123C41.846 47.3123 41.2091 47.1584 40.6644 46.8476C40.4459 46.7245 40.2429 46.5737 40.0613 46.4045C39.7198 46.0906 39.4398 45.7029 39.2367 45.2537C39.0613 44.8659 39.2336 44.4105 39.6182 44.2351C40.0029 44.0597 40.4614 44.2321 40.6368 44.6167C40.7568 44.8813 40.9106 45.0967 41.1045 45.2752C41.203 45.3675 41.3075 45.4414 41.4214 45.5091C42.2214 45.9645 43.2585 45.7706 43.9324 45.3798C44.5047 45.0475 44.8493 44.5675 44.8493 44.0967V41.1211C44.8493 40.6964 45.194 40.3518 45.6186 40.3518C46.0433 40.3518 46.3879 40.6964 46.3879 41.1211V44.0967C46.3879 45.1213 45.7602 46.0968 44.7078 46.7091C44.0216 47.1092 43.2461 47.3123 42.4984 47.3123Z" fill="#282828"/>
<path d="M48.741 47.3123C47.9902 47.3123 47.2179 47.1092 46.5317 46.7091C45.4793 46.0968 44.8516 45.1183 44.8516 44.0967V41.1211C44.8516 40.6964 45.1962 40.3518 45.6208 40.3518C46.0455 40.3518 46.3901 40.6964 46.3901 41.1211V44.0967C46.3901 44.5675 46.7317 45.0475 47.3071 45.3798C47.981 45.7737 49.021 45.9645 49.818 45.5121C49.9319 45.4475 50.0396 45.3675 50.135 45.2814C50.3288 45.1029 50.4858 44.8813 50.6058 44.6198C50.7812 44.2321 51.2397 44.0628 51.6243 44.2382C52.012 44.4136 52.1813 44.869 52.0059 45.2567C51.7997 45.706 51.5197 46.0968 51.172 46.4168C50.9935 46.5799 50.7934 46.7245 50.5811 46.8476C50.0334 47.1584 49.3964 47.3123 48.741 47.3123Z" fill="#282828"/>
</svg>
