<svg width="91" height="118" viewBox="0 0 91 118" fill="none" xmlns="http://www.w3.org/2000/svg">
<path d="M67.268 62.7739H23.786C18.0368 67.1996 12.1201 78.8836 12.6194 88.5376C12.8644 93.2577 13.714 97.6586 18.35 98.5728C21.9999 99.2918 23.9907 97.5904 24.7039 96.1306C24.7783 95.9788 24.9923 96.0315 25.0078 96.1988C25.4605 101.74 26.6482 106.324 28.4468 110.802C31.0361 117.252 33.2037 117.249 36.6768 117.252C39.9545 117.252 43.9548 117.252 43.8556 104.216C44.4851 104.328 44.9285 104.387 45.527 104.387C46.1255 104.387 46.5689 104.328 47.1984 104.216C47.0992 117.252 51.0995 117.255 54.3772 117.252C57.8472 117.249 60.0148 117.252 62.6072 110.802C64.4058 106.324 65.5935 101.74 66.0462 96.1988C66.0586 96.0315 66.2757 95.9788 66.3501 96.1306C67.0633 97.5904 69.0541 99.2918 72.704 98.5728C77.34 97.6586 78.1896 93.2577 78.4346 88.5376C78.9339 78.8836 73.0172 67.1996 67.268 62.7739Z" fill="#FFD859"/>
<path d="M45.5307 99.0255C51.3057 99.0255 55.9872 93.8762 55.9872 87.5243C55.9872 81.1724 51.3057 76.0232 45.5307 76.0232C39.7557 76.0232 35.0742 81.1724 35.0742 87.5243C35.0742 93.8762 39.7557 99.0255 45.5307 99.0255Z" fill="#FFF5E6"/>
<path d="M24.8078 96.0317C24.5659 96.0317 24.3644 95.8457 24.3458 95.6009C23.6263 86.1824 25.7846 79.7361 25.8777 79.4664C25.9614 79.2247 26.225 79.0945 26.4669 79.1782C26.7087 79.2619 26.839 79.5253 26.7583 79.7671C26.7366 79.8321 24.569 86.3157 25.273 95.5327C25.2916 95.7899 25.0993 96.0131 24.845 96.0317C24.8326 96.0317 24.8202 96.0317 24.8078 96.0317Z" fill="#E6B545"/>
<path d="M66.2532 96.0317C66.2532 96.0317 66.2284 96.0317 66.216 96.0317C65.9586 96.0131 65.7695 95.7899 65.7881 95.5327C66.492 86.3157 64.3244 79.8321 64.3027 79.7671C64.219 79.5253 64.3492 79.2588 64.5942 79.1782C64.8361 79.0945 65.1028 79.2247 65.1834 79.4664C65.2764 79.7361 67.4347 86.1824 66.7153 95.6009C66.6967 95.8457 66.492 96.0317 66.2532 96.0317Z" fill="#E6B545"/>
<path d="M45.6542 0.251709C64.6508 0.251709 76.9955 14.6657 78.3215 35.6976C79.552 55.2246 67.8426 68.917 45.6542 68.917C23.4658 68.917 11.7533 55.2246 12.9869 35.6976C14.3129 14.6657 26.6607 0.251709 45.6542 0.251709Z" fill="#FFD859"/>
<path d="M27.3356 7.69629C6.74162 9.85808 -6.95072 36.919 5.63451 49.1866C9.81006 53.2573 18.34 57.6117 29.3031 42.5994L27.3356 7.69629Z" fill="#FFD859"/>
<path d="M63.9675 7.69629C84.5615 9.85808 98.2539 36.919 85.6686 49.1866C81.4931 53.2573 72.9631 57.6117 62 42.5994L63.9675 7.69629Z" fill="#FFD859"/>
<path d="M65.4 47.3742C68.7297 47.3742 71.429 45.056 71.429 42.1964C71.429 39.3367 68.7297 37.0186 65.4 37.0186C62.0703 37.0186 59.3711 39.3367 59.3711 42.1964C59.3711 45.056 62.0703 47.3742 65.4 47.3742Z" fill="#F7C44A"/>
<path d="M25.9118 47.3742C29.2415 47.3742 31.9407 45.056 31.9407 42.1964C31.9407 39.3367 29.2415 37.0186 25.9118 37.0186C22.5821 37.0186 19.8828 39.3367 19.8828 42.1964C19.8828 45.056 22.5821 47.3742 25.9118 47.3742Z" fill="#F7C44A"/>
<path d="M15.7303 53.0434C15.5545 53.0434 15.3849 52.9417 15.3078 52.772C13.513 48.7846 12.0204 44.094 13.2231 36.847C13.2663 36.5941 13.5007 36.4245 13.7566 36.4676C14.0095 36.5108 14.1791 36.7483 14.1359 37.0012C12.9733 44.0046 14.4166 48.541 16.1497 52.3958C16.2546 52.6302 16.1497 52.9015 15.9184 53.0064C15.8567 53.0342 15.792 53.0465 15.7303 53.0465V53.0434Z" fill="#E6B545"/>
<path d="M75.5895 53.0427C75.5248 53.0427 75.4631 53.0304 75.4014 53.0026C75.167 52.8978 75.0653 52.6233 75.1701 52.392C76.9032 48.5372 78.3496 44.0008 77.1839 36.9974C77.1407 36.7445 77.3134 36.5071 77.5632 36.4639C77.813 36.4207 78.0535 36.5934 78.0967 36.8432C79.2994 44.0903 77.8068 48.7808 76.012 52.7683C75.9349 52.941 75.7653 53.0397 75.5895 53.0397V53.0427Z" fill="#E6B545"/>
<path d="M32.3318 41.2646C35.3601 41.2646 37.1519 38.9301 37.1519 36.1053C37.1519 33.2805 35.2491 30.8103 32.3318 30.8103C29.4145 30.8103 27.5117 33.2805 27.5117 36.1053C27.5117 38.9301 29.3065 41.2646 32.3318 41.2646Z" fill="#282828"/>
<path d="M35.078 35.1308C35.0132 36.5371 33.5823 37.0428 32.2377 36.901C30.3967 36.7036 29.9495 35.615 30.1191 34.4709C30.2887 33.3268 31.2725 32.6421 32.8483 32.7562C34.1991 32.8549 35.1427 33.7523 35.078 35.1308Z" fill="white"/>
<path d="M30.8908 38.8347C30.9 39.3528 31.5384 39.6674 32.2477 39.6797C32.9569 39.6921 33.4473 39.2449 33.4381 38.7237C33.4288 38.2025 32.8706 37.9065 32.1613 37.9188C31.2824 37.9342 30.8815 38.3136 30.8908 38.8347Z" fill="white"/>
<path d="M57.5818 41.2646C54.5534 41.2646 52.7617 38.9301 52.7617 36.1053C52.7617 33.2805 54.6645 30.8103 57.5818 30.8103C60.4991 30.8103 62.4019 33.2805 62.4019 36.1053C62.4019 38.9301 60.6071 41.2646 57.5818 41.2646Z" fill="#282828"/>
<path d="M54.8391 35.1308C54.9038 36.5371 56.3348 37.0428 57.6793 36.901C59.5204 36.7036 59.9676 35.615 59.7979 34.4709C59.6283 33.3268 58.6446 32.6421 57.0687 32.7562C55.718 32.8549 54.7743 33.7523 54.8391 35.1308Z" fill="white"/>
<path d="M59.0201 38.8347C59.0108 39.3528 58.3724 39.6674 57.6632 39.6797C56.9539 39.6921 56.4635 39.2449 56.4728 38.7237C56.482 38.2025 57.0402 37.9065 57.7495 37.9188C58.6284 37.9342 59.0293 38.3136 59.0201 38.8347Z" fill="white"/>
<path d="M52.1819 48.5917C52.1819 51.5646 49.0579 53.9731 45.2062 53.9731C41.3544 53.9731 38.2305 51.5646 38.2305 48.5917C38.2305 48.0644 38.3292 47.5555 38.5142 47.0745C41.4192 47.9996 45.6533 46.6427 45.6533 44.7061C45.6533 46.4669 49.1504 47.7467 51.9691 47.2718C52.1079 47.6943 52.1819 48.1353 52.1819 48.5917Z" fill="#C0612C"/>
<path d="M48.3224 40.5584C48.159 41.0919 47.8351 41.5206 47.462 41.8475C46.802 42.4242 45.991 42.6894 45.661 42.6894C45.331 42.6894 44.52 42.4242 43.86 41.8475C43.4869 41.5206 43.1631 41.0919 42.9996 40.5584C42.5216 39.0011 44.3504 38.5107 45.661 38.5107C46.9717 38.5107 48.8004 39.0011 48.3224 40.5584Z" fill="#282828"/>
<path d="M40.5758 48.1381C39.7709 48.1381 38.9845 48.0333 38.2845 47.8081C38.1704 47.7711 38.0594 47.7341 37.9515 47.691C37.0386 47.3425 36.2923 46.775 35.802 46.0534C35.5614 45.7019 35.654 45.2208 36.0055 44.9833C36.3571 44.7428 36.8351 44.8353 37.0756 45.1869C37.3932 45.6525 37.8743 46.0103 38.5127 46.2539C38.599 46.2878 38.6762 46.3125 38.7563 46.3371C40.6807 46.9508 43.1169 46.4235 44.2672 45.5816C44.4985 45.412 44.887 45.0728 44.887 44.7027V41.4585C44.887 41.0329 45.2324 40.6875 45.658 40.6875C46.0836 40.6875 46.429 41.0329 46.429 41.4585V44.7027C46.429 45.2547 46.21 46.0688 45.1769 46.8244C44.0266 47.6632 42.2657 48.1319 40.5758 48.1319V48.1381Z" fill="#282828"/>
<path d="M50.7337 48.1449C48.8988 48.1449 47.0146 47.5836 45.9013 46.643C45.2383 46.0817 44.8867 45.4126 44.8867 44.7064V41.4621C44.8867 41.0366 45.2321 40.6912 45.6577 40.6912C46.0833 40.6912 46.4286 41.0366 46.4286 41.4621V44.7064C46.4286 45.0055 46.6846 45.283 46.8974 45.465C47.8102 46.236 49.9072 46.8373 51.847 46.5135C52.1985 46.4549 52.5223 46.3685 52.8091 46.2575C53.4475 46.0139 53.9286 45.6531 54.2462 45.1905C54.4868 44.839 54.9648 44.7495 55.3163 44.987C55.6679 45.2275 55.7604 45.7055 55.5199 46.0571C55.0295 46.7787 54.2832 47.3431 53.3612 47.6977C52.9818 47.8457 52.5563 47.9567 52.1029 48.0338C51.6588 48.1078 51.1994 48.1449 50.7337 48.1449Z" fill="#282828"/>
<path d="M15.7303 53.0434C15.5545 53.0434 15.3849 52.9417 15.3078 52.772C13.513 48.7846 12.0204 44.094 13.2231 36.847C13.2663 36.5941 13.5007 36.4245 13.7566 36.4676C14.0095 36.5108 14.1791 36.7483 14.1359 37.0012C12.9733 44.0046 14.4166 48.541 16.1497 52.3958C16.2546 52.6302 16.1497 52.9015 15.9184 53.0064C15.8567 53.0342 15.792 53.0465 15.7303 53.0465V53.0434Z" fill="#E6B545"/>
<path d="M75.5895 53.0427C75.5248 53.0427 75.4631 53.0304 75.4014 53.0026C75.167 52.8978 75.0653 52.6233 75.1701 52.392C76.9032 48.5372 78.3496 44.0008 77.1839 36.9974C77.1407 36.7445 77.3134 36.5071 77.5632 36.4639C77.813 36.4207 78.0535 36.5934 78.0967 36.8432C79.2994 44.0903 77.8068 48.7808 76.012 52.7683C75.9349 52.941 75.7653 53.0397 75.5895 53.0397V53.0427Z" fill="#E6B545"/>
</svg>
