<svg width="91" height="118" viewBox="0 0 91 118" fill="none" xmlns="http://www.w3.org/2000/svg">
<path d="M66.8189 62.7742H23.3368C17.5876 67.1998 11.6709 78.8839 12.1702 88.5379C12.4151 93.258 13.2648 97.6589 17.9008 98.5731C21.5507 99.2922 23.5415 97.5907 24.2547 96.131C24.3291 95.9791 24.5431 96.0318 24.5586 96.1991C25.0114 101.741 26.199 106.324 27.9976 110.803C30.5869 117.252 32.7545 117.249 36.2276 117.252C39.5054 117.252 43.5057 117.252 43.4064 104.217C44.0359 104.328 44.4794 104.387 45.0778 104.387C45.6763 104.387 46.1198 104.328 46.7493 104.217C46.65 117.252 50.6503 117.255 53.9281 117.252C57.3981 117.249 59.5657 117.252 62.1581 110.803C63.9567 106.324 65.1443 101.741 65.5971 96.1991C65.6095 96.0318 65.8266 95.9791 65.901 96.131C66.6142 97.5907 68.605 99.2922 72.2549 98.5731C76.8909 97.6589 77.7405 93.258 77.9855 88.5379C78.4848 78.8839 72.5681 67.1998 66.8189 62.7742Z" fill="#FFD859"/>
<path d="M45.0815 99.0258C50.8565 99.0258 55.5381 93.8765 55.5381 87.5246C55.5381 81.1727 50.8565 76.0234 45.0815 76.0234C39.3065 76.0234 34.625 81.1727 34.625 87.5246C34.625 93.8765 39.3065 99.0258 45.0815 99.0258Z" fill="#FFF5E6"/>
<path d="M24.3547 96.0317C24.1128 96.0317 23.9113 95.8458 23.8926 95.6009C23.1732 86.1824 25.3315 79.7361 25.4245 79.4664C25.5083 79.2247 25.7719 79.0945 26.0137 79.1782C26.2556 79.2619 26.3858 79.5253 26.3052 79.7671C26.2835 79.8321 24.1159 86.3157 24.8198 95.5327C24.8384 95.79 24.6462 96.0131 24.3919 96.0317C24.3795 96.0317 24.3671 96.0317 24.3547 96.0317Z" fill="#E6B545"/>
<path d="M65.8001 96.0317C65.8001 96.0317 65.7753 96.0317 65.7629 96.0317C65.5055 96.0131 65.3164 95.79 65.335 95.5327C66.0389 86.3157 63.8713 79.8321 63.8496 79.7671C63.7659 79.5253 63.8961 79.2588 64.1411 79.1782C64.383 79.0945 64.6496 79.2247 64.7303 79.4664C64.8233 79.7361 66.9816 86.1824 66.2621 95.6009C66.2435 95.8458 66.0389 96.0317 65.8001 96.0317Z" fill="#E6B545"/>
<path d="M45.2039 0.251953C64.1999 0.251953 76.5442 14.6654 77.8702 35.6967C79.1006 55.2231 67.3916 68.915 45.2039 68.915C23.0163 68.915 11.3041 55.2231 12.5376 35.6967C13.8637 14.6654 26.211 0.251953 45.2039 0.251953Z" fill="#FFD859"/>
<path d="M26.8778 7.69629C6.28441 9.85801 -7.4075 36.918 5.17732 49.1852C9.35273 53.2558 17.8824 57.61 28.8452 42.5983L26.8778 7.69629Z" fill="#FFD859"/>
<path d="M63.5104 7.69629C84.1038 9.85801 97.7957 36.918 85.2108 49.1852C81.0354 53.2558 72.5057 57.61 61.543 42.5983L63.5104 7.69629Z" fill="#FFD859"/>
<path d="M64.9389 47.3716C68.2685 47.3716 70.9676 45.0535 70.9676 42.194C70.9676 39.3345 68.2685 37.0164 64.9389 37.0164C61.6093 37.0164 58.9102 39.3345 58.9102 42.194C58.9102 45.0535 61.6093 47.3716 64.9389 47.3716Z" fill="#F7C44A"/>
<path d="M25.4545 47.3716C28.7841 47.3716 31.4833 45.0535 31.4833 42.194C31.4833 39.3345 28.7841 37.0164 25.4545 37.0164C22.1249 37.0164 19.4258 39.3345 19.4258 42.194C19.4258 45.0535 22.1249 47.3716 25.4545 47.3716Z" fill="#F7C44A"/>
<path d="M32.4912 41.2634C34.7948 41.2634 36.7129 39.3422 36.7129 37.0201C36.7129 34.698 34.7948 32.7769 32.4912 32.7769C30.1876 32.7769 28.2695 34.698 28.2695 37.0201C28.2695 39.3422 30.1876 41.2634 32.4912 41.2634Z" fill="#282828"/>
<path d="M57.9365 41.2634C55.6329 41.2634 53.7148 39.3422 53.7148 37.0201C53.7148 34.698 55.6329 32.7769 57.9365 32.7769C60.2401 32.7769 62.1582 34.698 62.1582 37.0201C62.1582 39.3422 60.2401 41.2634 57.9365 41.2634Z" fill="#282828"/>
<path d="M47.8769 40.5581C47.7135 41.0916 47.3897 41.5202 47.0165 41.8471C46.3566 42.4238 45.5456 42.689 45.2156 42.689C44.8857 42.689 44.0746 42.4238 43.4147 41.8471C43.0416 41.5202 42.7178 41.0916 42.5543 40.5581C42.0764 39.0008 43.905 38.5105 45.2156 38.5105C46.5262 38.5105 48.3549 39.0008 47.8769 40.5581Z" fill="#282828"/>
<path d="M45.2123 46.9812C44.7868 46.9812 44.4414 46.6358 44.4414 46.2103V41.4582C44.4414 41.0326 44.7868 40.6873 45.2123 40.6873C45.6379 40.6873 45.9833 41.0326 45.9833 41.4582V46.2103C45.9833 46.6358 45.6379 46.9812 45.2123 46.9812Z" fill="#282828"/>
<path d="M15.2693 53.0392C15.0935 53.0392 14.9239 52.9374 14.8468 52.7678C13.052 48.7775 11.5595 44.0901 12.7622 36.8433C12.8053 36.5904 13.0397 36.4208 13.2957 36.464C13.5485 36.5072 13.7181 36.7446 13.675 36.9975C12.5124 44.0007 13.9556 48.5369 15.6887 52.3916C15.7935 52.626 15.6887 52.8973 15.4574 53.0022C15.3957 53.0299 15.3309 53.0423 15.2693 53.0423V53.0392Z" fill="#E6B545"/>
<path d="M75.1286 53.039C75.0638 53.039 75.0021 53.0267 74.9405 52.9989C74.7061 52.8941 74.6043 52.6196 74.7092 52.3883C76.4422 48.5336 77.8885 43.9974 76.7229 36.9942C76.6797 36.7413 76.8524 36.5039 77.1022 36.4607C77.352 36.4206 77.5925 36.5902 77.6357 36.84C78.8383 44.0868 77.3458 48.7772 75.551 52.7645C75.4739 52.9372 75.3043 53.0359 75.1286 53.0359V53.039Z" fill="#E6B545"/>
<path d="M54.106 30.5554C53.6928 30.5554 53.3166 30.2779 53.2087 29.8585C53.0822 29.362 53.3813 28.8594 53.8778 28.7329L59.1202 27.4008C59.6167 27.2774 60.1193 27.5734 60.2458 28.0699C60.3722 28.5664 60.0731 29.0691 59.5766 29.1955L54.3342 30.5277C54.2571 30.5462 54.18 30.5554 54.106 30.5554Z" fill="#282828"/>
<path d="M36.2937 30.5554C36.2197 30.5554 36.1426 30.5462 36.0655 30.5277L30.8231 29.1955C30.3267 29.0691 30.0275 28.5664 30.154 28.0699C30.2804 27.5734 30.783 27.2774 31.2795 27.4008L36.5219 28.7329C37.0184 28.8594 37.3175 29.362 37.1911 29.8585C37.0832 30.2779 36.707 30.5554 36.2937 30.5554Z" fill="#282828"/>
<path d="M52.1692 49.1391C51.9749 49.1391 51.7775 49.0775 51.611 48.951C50.5132 48.1215 48.5241 47.1347 45.2769 47.1347C42.0297 47.1347 40.0376 48.1246 38.9398 48.951C38.5328 49.2594 37.953 49.1792 37.6446 48.7722C37.3363 48.3651 37.4164 47.7853 37.8235 47.477C39.1464 46.4778 41.5117 45.2844 45.2739 45.2844C49.036 45.2844 51.4013 46.4748 52.7242 47.477C53.1313 47.7853 53.2115 48.3651 52.9031 48.7722C52.7211 49.0127 52.4436 49.1391 52.163 49.1391H52.1692Z" fill="#282828"/>
</svg>
