<svg width="91" height="118" viewBox="0 0 91 118" fill="none" xmlns="http://www.w3.org/2000/svg">
<path d="M67.1822 62.7742H23.7001C17.9509 67.1998 12.0342 78.8839 12.5334 88.5379C12.7784 93.258 13.6281 97.6589 18.2641 98.5731C21.9139 99.2922 23.9048 97.5907 24.618 96.131C24.6924 95.9791 24.9064 96.0318 24.9219 96.1991C25.3746 101.741 26.5623 106.324 28.3609 110.803C30.9502 117.252 33.1178 117.249 36.5909 117.252C39.8687 117.252 43.8689 117.252 43.7697 104.217C44.3992 104.328 44.8426 104.387 45.4411 104.387C46.0396 104.387 46.4831 104.328 47.1126 104.217C47.0133 117.252 51.0136 117.255 54.2914 117.252C57.7614 117.249 59.9289 117.252 62.5214 110.803C64.3199 106.324 65.5076 101.741 65.9604 96.1991C65.9728 96.0318 66.1898 95.9791 66.2643 96.131C66.9775 97.5907 68.9683 99.2922 72.6182 98.5731C77.2542 97.6589 78.1038 93.258 78.3488 88.5379C78.8481 78.8839 72.9314 67.1998 67.1822 62.7742Z" fill="#FFD859"/>
<path d="M45.4448 99.0258C51.2198 99.0258 55.9013 93.8765 55.9013 87.5246C55.9013 81.1727 51.2198 76.0234 45.4448 76.0234C39.6698 76.0234 34.9883 81.1727 34.9883 87.5246C34.9883 93.8765 39.6698 99.0258 45.4448 99.0258Z" fill="#FFF5E6"/>
<path d="M24.7258 96.0317C24.4839 96.0317 24.2823 95.8458 24.2637 95.6009C23.5443 86.1824 25.7026 79.7361 25.7956 79.4664C25.8794 79.2247 26.1429 79.0945 26.3848 79.1782C26.6267 79.2619 26.7569 79.5253 26.6763 79.7671C26.6546 79.8321 24.487 86.3157 25.1909 95.5327C25.2095 95.79 25.0173 96.0131 24.763 96.0317C24.7506 96.0317 24.7382 96.0317 24.7258 96.0317Z" fill="#E6B545"/>
<path d="M66.1712 96.0317C66.1712 96.0317 66.1464 96.0317 66.134 96.0317C65.8766 96.0131 65.6874 95.79 65.706 95.5327C66.41 86.3157 64.2424 79.8321 64.2207 79.7671C64.137 79.5253 64.2672 79.2588 64.5122 79.1782C64.7541 79.0945 65.0207 79.2247 65.1014 79.4664C65.1944 79.7361 67.3527 86.1824 66.6332 95.6009C66.6146 95.8458 66.41 96.0317 66.1712 96.0317Z" fill="#E6B545"/>
<path d="M45.5644 0.251953C64.561 0.251953 76.9057 14.6659 78.2318 35.6979C79.4623 55.225 67.7528 68.9173 45.5644 68.9173C23.376 68.9173 11.6635 55.225 12.897 35.6979C14.2231 14.6659 26.5709 0.251953 45.5644 0.251953Z" fill="#FFD859"/>
<path d="M27.2419 7.69629C6.64788 9.85808 -7.04449 36.919 5.54077 49.1866C9.71633 53.2573 18.2463 57.6118 29.2095 42.5995L27.2419 7.69629Z" fill="#FFD859"/>
<path d="M63.8738 7.69629C84.4678 9.85808 98.1602 36.919 85.5749 49.1866C81.3994 53.2573 72.8694 57.6118 61.9062 42.5995L63.8738 7.69629Z" fill="#FFD859"/>
<path d="M65.3024 47.3747C68.6321 47.3747 71.3313 45.0565 71.3313 42.1968C71.3313 39.3372 68.6321 37.019 65.3024 37.019C61.9727 37.019 59.2734 39.3372 59.2734 42.1968C59.2734 45.0565 61.9727 47.3747 65.3024 47.3747Z" fill="#F7C44A"/>
<path d="M25.818 47.3747C29.1477 47.3747 31.847 45.0565 31.847 42.1968C31.847 39.3372 29.1477 37.019 25.818 37.019C22.4883 37.019 19.7891 39.3372 19.7891 42.1968C19.7891 45.0565 22.4883 47.3747 25.818 47.3747Z" fill="#F7C44A"/>
<path d="M32.839 41.2646C35.1426 41.2646 37.0608 39.3434 37.0608 37.0212C37.0608 34.6991 35.1426 32.7778 32.839 32.7778C30.5354 32.7778 28.6172 34.6991 28.6172 37.0212C28.6172 39.3434 30.5354 41.2646 32.839 41.2646Z" fill="#282828"/>
<path d="M58.2843 41.2646C55.9807 41.2646 54.0625 39.3434 54.0625 37.0212C54.0625 34.6991 55.9807 32.7778 58.2843 32.7778C60.588 32.7778 62.5061 34.6991 62.5061 37.0212C62.5061 39.3434 60.588 41.2646 58.2843 41.2646Z" fill="#282828"/>
<path d="M48.2326 40.5584C48.0691 41.0919 47.7453 41.5206 47.3722 41.8475C46.7122 42.4242 45.9012 42.6894 45.5712 42.6894C45.2412 42.6894 44.4302 42.4242 43.7702 41.8475C43.3971 41.5206 43.0732 41.0919 42.9098 40.5584C42.4318 39.0011 44.2605 38.5107 45.5712 38.5107C46.8818 38.5107 48.7106 39.0011 48.2326 40.5584Z" fill="#282828"/>
<path d="M45.5678 46.9817C45.1423 46.9817 44.7969 46.6363 44.7969 46.2107V41.4585C44.7969 41.0329 45.1423 40.6875 45.5678 40.6875C45.9934 40.6875 46.3388 41.0329 46.3388 41.4585V46.2107C46.3388 46.6363 45.9934 46.9817 45.5678 46.9817Z" fill="#282828"/>
<path d="M15.6287 53.0422C15.453 53.0422 15.2834 52.9405 15.2063 52.7708C13.4114 48.7834 11.9189 44.0928 13.1216 36.8458C13.1647 36.5929 13.3991 36.4233 13.6551 36.4664C13.908 36.5096 14.0776 36.7471 14.0344 37C12.8718 44.0034 14.315 48.5398 16.0481 52.3946C16.153 52.629 16.0481 52.9004 15.8169 53.0052C15.7552 53.033 15.6904 53.0453 15.6287 53.0453V53.0422Z" fill="#E6B545"/>
<path d="M75.488 53.0422C75.4232 53.0422 75.3615 53.0299 75.2998 53.0022C75.0655 52.8973 74.9637 52.6228 75.0685 52.3915C76.8017 48.5367 78.248 44.0004 77.0823 36.9969C77.0391 36.744 77.2118 36.5066 77.4616 36.4634C77.7114 36.4233 77.952 36.5929 77.9951 36.8427C79.1978 44.0898 77.7052 48.7803 75.9104 52.7678C75.8333 52.9405 75.6637 53.0392 75.488 53.0392V53.0422Z" fill="#E6B545"/>
<path d="M45.5598 57.0443C48.5506 57.0443 50.9751 54.4596 50.9751 51.2713C50.9751 48.0829 48.5506 45.4983 45.5598 45.4983C42.569 45.4983 40.1445 48.0829 40.1445 51.2713C40.1445 54.4596 42.569 57.0443 45.5598 57.0443Z" fill="#C0612C"/>
</svg>
