<svg width="90" height="118" viewBox="0 0 90 118" fill="none" xmlns="http://www.w3.org/2000/svg">
<path d="M66.5415 62.7742H23.0595C17.3102 67.1998 11.3936 78.8839 11.8928 88.5379C12.1378 93.258 12.9875 97.6589 17.6235 98.5731C21.2733 99.2922 23.2642 97.5907 23.9774 96.131C24.0518 95.9791 24.2658 96.0318 24.2813 96.1991C24.734 101.741 25.9217 106.324 27.7203 110.803C30.3096 117.252 32.4772 117.249 35.9503 117.252C39.228 117.252 43.2283 117.252 43.1291 104.217C43.7586 104.328 44.202 104.387 44.8005 104.387C45.399 104.387 45.8424 104.328 46.4719 104.217C46.3727 117.252 50.373 117.255 53.6507 117.252C57.1207 117.249 59.2883 117.252 61.8807 110.803C63.6793 106.324 64.867 101.741 65.3197 96.1991C65.3321 96.0318 65.5492 95.9791 65.6236 96.131C66.3369 97.5907 68.3277 99.2922 71.9776 98.5731C76.6135 97.6589 77.4632 93.258 77.7082 88.5379C78.2074 78.8839 72.2908 67.1998 66.5415 62.7742Z" fill="#FFD859"/>
<path d="M44.8042 99.0258C50.5792 99.0258 55.2607 93.8765 55.2607 87.5246C55.2607 81.1727 50.5792 76.0234 44.8042 76.0234C39.0292 76.0234 34.3477 81.1727 34.3477 87.5246C34.3477 93.8765 39.0292 99.0258 44.8042 99.0258Z" fill="#FFF5E6"/>
<path d="M24.0852 96.0317C23.8433 96.0317 23.6417 95.8458 23.6231 95.6009C22.9037 86.1824 25.062 79.7361 25.155 79.4664C25.2387 79.2247 25.5023 79.0945 25.7442 79.1782C25.9861 79.2619 26.1163 79.5253 26.0357 79.7671C26.014 79.8321 23.8464 86.3157 24.5503 95.5327C24.5689 95.79 24.3767 96.0131 24.1224 96.0317C24.11 96.0317 24.0976 96.0317 24.0852 96.0317Z" fill="#E6B545"/>
<path d="M65.5306 96.0317C65.5306 96.0317 65.5058 96.0317 65.4934 96.0317C65.236 96.0131 65.0468 95.79 65.0654 95.5327C65.7693 86.3157 63.6018 79.8321 63.5801 79.7671C63.4963 79.5253 63.6266 79.2588 63.8716 79.1782C64.1134 79.0945 64.3801 79.2247 64.4607 79.4664C64.5538 79.7361 66.712 86.1824 65.9926 95.6009C65.974 95.8458 65.7693 96.0317 65.5306 96.0317Z" fill="#E6B545"/>
<path d="M44.9149 0.251953C63.9109 0.251953 76.2551 14.6655 77.5811 35.6967C78.8116 55.2231 67.1025 68.915 44.9149 68.915C22.7272 68.915 11.0151 55.2231 12.2486 35.6967C13.5746 14.6655 25.922 0.251953 44.9149 0.251953Z" fill="#FFD859"/>
<path d="M26.6004 7.69629C6.00705 9.85801 -7.68485 36.918 4.89998 49.1852C9.07539 53.2558 17.6051 57.6101 28.5679 42.5983L26.6004 7.69629Z" fill="#FFD859"/>
<path d="M63.2331 7.69629C83.8264 9.85801 97.5183 36.918 84.9335 49.1852C80.7581 53.2558 72.2284 57.6101 61.2656 42.5983L63.2331 7.69629Z" fill="#FFD859"/>
<path d="M64.6576 47.3719C67.9872 47.3719 70.6864 45.0538 70.6864 42.1942C70.6864 39.3347 67.9872 37.0166 64.6576 37.0166C61.328 37.0166 58.6289 39.3347 58.6289 42.1942C58.6289 45.0538 61.328 47.3719 64.6576 47.3719Z" fill="#F7C44A"/>
<path d="M25.1733 47.3719C28.5029 47.3719 31.202 45.0538 31.202 42.1942C31.202 39.3347 28.5029 37.0166 25.1733 37.0166C21.8437 37.0166 19.1445 39.3347 19.1445 42.1942C19.1445 45.0538 21.8437 47.3719 25.1733 47.3719Z" fill="#F7C44A"/>
<path d="M32.2022 41.2634C34.5057 41.2634 36.4238 39.3422 36.4238 37.0201C36.4238 34.698 34.5057 32.7769 32.2022 32.7769C29.8986 32.7769 27.9805 34.698 27.9805 37.0201C27.9805 39.3422 29.8986 41.2634 32.2022 41.2634Z" fill="#282828"/>
<path d="M57.6475 41.2634C55.3439 41.2634 53.4258 39.3422 53.4258 37.0201C53.4258 34.698 55.3439 32.7769 57.6475 32.7769C59.951 32.7769 61.8691 34.698 61.8691 37.0201C61.8691 39.3422 59.951 41.2634 57.6475 41.2634Z" fill="#282828"/>
<path d="M47.58 40.5579C47.4166 41.0914 47.0928 41.52 46.7197 41.8469C46.0597 42.4235 45.2487 42.6888 44.9187 42.6888C44.5888 42.6888 43.7777 42.4235 43.1178 41.8469C42.7447 41.52 42.4209 41.0914 42.2575 40.5579C41.7795 39.0006 43.6081 38.5103 44.9187 38.5103C46.2293 38.5103 48.058 39.0006 47.58 40.5579Z" fill="#282828"/>
<path d="M44.9155 46.981C44.4899 46.981 44.1445 46.6356 44.1445 46.21V41.458C44.1445 41.0324 44.4899 40.687 44.9155 40.687C45.341 40.687 45.6864 41.0324 45.6864 41.458V46.21C45.6864 46.6356 45.341 46.981 44.9155 46.981Z" fill="#282828"/>
<path d="M14.9919 53.0407C14.8162 53.0407 14.6465 52.9389 14.5695 52.7693C12.7747 48.782 11.2822 44.0916 12.4848 36.8448C12.528 36.5919 12.7655 36.4223 13.0183 36.4655C13.2712 36.5086 13.4408 36.7461 13.3976 36.999C12.235 44.0022 13.6782 48.5384 15.4113 52.3931C15.5162 52.6275 15.4113 52.8988 15.18 53.0037C15.1184 53.0314 15.0536 53.0438 14.9919 53.0438V53.0407Z" fill="#E6B545"/>
<path d="M74.8512 53.0397C74.7865 53.0397 74.7248 53.0274 74.6631 52.9997C74.4287 52.8948 74.327 52.6204 74.4318 52.3891C76.1649 48.5344 77.6112 43.9982 76.4455 36.9949C76.4024 36.7421 76.575 36.5046 76.8248 36.4615C77.0746 36.4183 77.3151 36.591 77.3583 36.8408C78.561 44.0876 77.0684 48.778 75.2737 52.7653C75.1966 52.938 75.027 53.0367 74.8512 53.0367V53.0397Z" fill="#E6B545"/>
<path d="M51.5137 50.4641C51.5137 50.5997 51.5044 50.7323 51.4921 50.8649C51.4027 51.642 50.5639 52.154 49.7498 51.9381C48.3898 51.5742 46.7246 51.3614 44.9268 51.3614C43.129 51.3614 41.4637 51.5742 40.1038 51.9381C39.2866 52.157 38.4509 51.6451 38.3615 50.8649C38.346 50.7323 38.3398 50.5997 38.3398 50.4671C38.3398 47.8367 41.2879 45.7058 44.9298 45.7058C48.5718 45.7058 51.5198 47.8367 51.5198 50.4671L51.5137 50.4641Z" fill="#C0612C"/>
<path d="M67.7889 27.4998C68.3686 24.9095 69.0563 23.4478 68.9854 20.7433C68.9823 20.62 69.118 20.5398 69.2228 20.6045C71.9088 22.3068 74.3789 24.7738 75.0326 27.5338C75.6864 30.2937 74.2679 32.2581 72.1031 32.5264C69.9352 32.7947 66.9162 31.4193 67.792 27.4968L67.7889 27.4998Z" fill="#CBEAFF"/>
</svg>
