<svg width="90" height="118" viewBox="0 0 90 118" fill="none" xmlns="http://www.w3.org/2000/svg">
<path d="M66.4634 62.7742H22.9813C17.2321 67.1998 11.3154 78.8838 11.8147 88.5379C12.0597 93.258 12.9094 97.6588 17.5453 98.5731C21.1952 99.2921 23.186 97.5907 23.8992 96.1309C23.9737 95.9791 24.1876 96.0318 24.2031 96.1991C24.6559 101.741 25.8436 106.324 27.6421 110.803C30.2315 117.252 32.399 117.249 35.8721 117.252C39.1499 117.252 43.1502 117.252 43.0509 104.217C43.6804 104.328 44.1239 104.387 44.7224 104.387C45.3208 104.387 45.7643 104.328 46.3938 104.217C46.2946 117.252 50.2948 117.255 53.5726 117.252C57.0426 117.249 59.2102 117.252 61.8026 110.803C63.6012 106.324 64.7888 101.741 65.2416 96.1991C65.254 96.0318 65.4711 95.9791 65.5455 96.1309C66.2587 97.5907 68.2495 99.2921 71.8994 98.5731C76.5354 97.6588 77.385 93.258 77.63 88.5379C78.1293 78.8838 72.2126 67.1998 66.4634 62.7742Z" fill="#FFD859"/>
<path d="M44.726 99.0258C50.501 99.0258 55.1826 93.8765 55.1826 87.5246C55.1826 81.1727 50.501 76.0234 44.726 76.0234C38.9511 76.0234 34.2695 81.1727 34.2695 87.5246C34.2695 93.8765 38.9511 99.0258 44.726 99.0258Z" fill="#FFF5E6"/>
<path d="M24.0031 96.0317C23.7613 96.0317 23.5597 95.8458 23.5411 95.6009C22.8217 86.1824 24.9799 79.7361 25.073 79.4664C25.1567 79.2247 25.4203 79.0945 25.6622 79.1782C25.904 79.2619 26.0343 79.5253 25.9537 79.7671C25.932 79.8321 23.7644 86.3157 24.4683 95.5327C24.4869 95.79 24.2946 96.0131 24.0404 96.0317C24.028 96.0317 24.0155 96.0317 24.0031 96.0317Z" fill="#E6B545"/>
<path d="M65.4485 96.0317C65.4485 96.0317 65.4237 96.0317 65.4113 96.0317C65.1539 96.0131 64.9648 95.79 64.9834 95.5327C65.6873 86.3157 63.5197 79.8321 63.498 79.7671C63.4143 79.5253 63.5445 79.2588 63.7895 79.1782C64.0314 79.0945 64.2981 79.2247 64.3787 79.4664C64.4717 79.7361 66.63 86.1824 65.9106 95.6009C65.892 95.8458 65.6873 96.0317 65.4485 96.0317Z" fill="#E6B545"/>
<path d="M44.8562 0.251953C63.8522 0.251953 76.1965 14.6654 77.5225 35.6967C78.7529 55.223 67.0439 68.9149 44.8562 68.9149C22.6686 68.9149 10.9565 55.223 12.19 35.6967C13.516 14.6654 25.8634 0.251953 44.8562 0.251953Z" fill="#FFD859"/>
<path d="M26.5301 7.69629C5.93673 9.858 -7.75515 36.918 4.82966 49.1852C9.00507 53.2557 17.5347 57.61 28.4975 42.5983L26.5301 7.69629Z" fill="#FFD859"/>
<path d="M63.1628 7.69629C83.7561 9.858 97.448 36.918 84.8632 49.1852C80.6878 53.2557 72.1581 57.61 61.1953 42.5983L63.1628 7.69629Z" fill="#FFD859"/>
<path d="M64.5834 47.3716C67.913 47.3716 70.6122 45.0535 70.6122 42.194C70.6122 39.3345 67.913 37.0164 64.5834 37.0164C61.2539 37.0164 58.5547 39.3345 58.5547 42.194C58.5547 45.0535 61.2539 47.3716 64.5834 47.3716Z" fill="#F7C44A"/>
<path d="M25.0991 47.3716C28.4286 47.3716 31.1278 45.0535 31.1278 42.194C31.1278 39.3345 28.4286 37.0164 25.0991 37.0164C21.7695 37.0164 19.0703 39.3345 19.0703 42.194C19.0703 45.0535 21.7695 47.3716 25.0991 47.3716Z" fill="#F7C44A"/>
<path d="M47.5058 41.1736C47.3424 41.7071 47.0186 42.1357 46.6454 42.4626C45.9855 43.0393 45.1745 43.3045 44.8445 43.3045C44.5146 43.3045 43.7035 43.0393 43.0436 42.4626C42.6705 42.1357 42.3467 41.7071 42.1832 41.1736C41.7053 39.6163 43.5339 39.126 44.8445 39.126C46.1551 39.126 47.9838 39.6163 47.5058 41.1736Z" fill="#282828"/>
<path d="M44.8452 47.0548C44.4196 47.0548 44.0742 46.7094 44.0742 46.2839V41.4609C44.0742 41.0353 44.4196 40.6899 44.8452 40.6899C45.2707 40.6899 45.6161 41.0353 45.6161 41.4609V46.2839C45.6161 46.7094 45.2707 47.0548 44.8452 47.0548Z" fill="#282828"/>
<path d="M14.9138 53.0404C14.738 53.0404 14.5684 52.9387 14.4913 52.7691C12.6966 48.7818 11.204 44.0914 12.4067 36.8445C12.4499 36.5917 12.6842 36.422 12.9402 36.4652C13.1931 36.5084 13.3627 36.7458 13.3195 36.9987C12.1569 44.0019 13.6001 48.5381 15.3332 52.3928C15.438 52.6272 15.3332 52.8986 15.1019 53.0034C15.0402 53.0312 14.9755 53.0435 14.9138 53.0435V53.0404Z" fill="#E6B545"/>
<path d="M74.7731 53.0397C74.7083 53.0397 74.6467 53.0274 74.585 52.9997C74.3506 52.8948 74.2489 52.6203 74.3537 52.3891C76.0868 48.5344 77.5331 43.9982 76.3674 36.9949C76.3242 36.7421 76.4969 36.5046 76.7467 36.4615C76.9965 36.4183 77.237 36.591 77.2802 36.8408C78.4829 44.0876 76.9903 48.778 75.1956 52.7653C75.1185 52.938 74.9489 53.0367 74.7731 53.0367V53.0397Z" fill="#E6B545"/>
<path d="M62.1093 41.3787C61.952 41.3787 61.7947 41.3386 61.6498 41.2554C59.5991 40.0805 54.477 38.5817 54.4245 38.5694C54.1254 38.4831 53.888 38.2487 53.7985 37.9527C53.706 37.6535 53.7739 37.3297 53.9743 37.0892C55.3127 35.4826 58.048 33.4781 61.1132 31.8592C61.5665 31.6186 62.1247 31.7944 62.3621 32.2446C62.5996 32.6949 62.4269 33.2561 61.9767 33.4936C59.8026 34.6438 57.7673 36.0222 56.4105 37.2403C58.1651 37.7954 61.0484 38.776 62.5718 39.6518C63.0159 39.9047 63.167 40.4721 62.9141 40.9131C62.7445 41.2122 62.43 41.3787 62.1093 41.3787Z" fill="#282828"/>
<path d="M54.6818 38.6063C54.2593 38.6063 53.88 38.3164 53.7814 37.8878C53.6673 37.3882 53.9787 36.8948 54.4783 36.7807C58.0585 35.9604 59.7268 35.834 62.9463 35.7261C62.9555 35.7261 62.9679 35.7261 62.9771 35.7261C63.4736 35.7261 63.8838 36.1208 63.9023 36.6204C63.9208 37.1323 63.5199 37.5578 63.008 37.5763C59.8471 37.6843 58.3299 37.8014 54.8884 38.5878C54.8206 38.6032 54.7497 38.6125 54.6818 38.6125V38.6063Z" fill="#282828"/>
<path d="M27.5796 41.3798C27.2589 41.3798 26.9474 41.2133 26.7747 40.9142C26.5218 40.4701 26.6729 39.9058 27.117 39.6529C28.6404 38.7771 31.5237 37.7996 33.2783 37.2414C31.9215 36.0233 29.8862 34.6449 27.7122 33.4946C27.2619 33.2572 27.0892 32.6959 27.3267 32.2457C27.5641 31.7955 28.1254 31.6228 28.5756 31.8602C31.6378 33.4792 34.3731 35.4837 35.7145 37.0903C35.915 37.3308 35.9797 37.6546 35.8903 37.9537C35.8009 38.2529 35.5634 38.4841 35.2643 38.5705C35.2119 38.5859 30.0867 40.0846 28.039 41.2565C27.8941 41.3397 27.7368 41.3798 27.5796 41.3798Z" fill="#282828"/>
<path d="M35.0099 38.6077C34.9421 38.6077 34.8712 38.5985 34.8033 38.5831C31.3649 37.7967 29.8446 37.6795 26.6838 37.5716C26.1719 37.5531 25.7741 37.1245 25.7895 36.6156C25.808 36.1037 26.2366 35.7121 26.7455 35.7214C29.9649 35.8324 31.6332 35.9588 35.2135 36.776C35.713 36.8901 36.0214 37.3866 35.9104 37.8831C35.8117 38.3117 35.4324 38.6016 35.0099 38.6016V38.6077Z" fill="#282828"/>
<path d="M55.4478 46.2865C55.4478 49.2654 54.1279 51.9452 52.0248 53.814C50.1375 55.4915 47.6181 56.5153 44.8489 56.5153C42.0797 56.5153 39.5602 55.4915 37.673 53.814C35.5699 51.9452 34.25 49.2654 34.25 46.2865C34.25 45.7654 34.2901 45.2535 34.3703 44.7539C34.4319 44.3437 34.8668 44.1063 35.243 44.2852C37.9043 45.5403 41.2347 46.2865 44.8489 46.2865C48.463 46.2865 51.7966 45.5433 54.4579 44.2883C54.831 44.1094 55.2658 44.3468 55.3306 44.757C55.4077 45.2565 55.4478 45.7654 55.4478 46.2865Z" fill="#C0612C"/>
<path d="M52.0237 53.8143C50.1364 55.4919 47.617 56.5157 44.8478 56.5157C42.0786 56.5157 39.5591 55.4919 37.6719 53.8143C39.6116 52.8614 42.1125 52.2878 44.8478 52.2878C47.5831 52.2878 50.084 52.8614 52.0237 53.8143Z" fill="#E28B5B"/>
</svg>
