<svg width="91" height="118" viewBox="0 0 91 118" fill="none" xmlns="http://www.w3.org/2000/svg">
<path d="M66.9946 62.7737H23.5126C17.7634 67.1993 11.8467 78.8833 12.3459 88.5374C12.5909 93.2575 13.4406 97.6583 18.0766 98.5726C21.7264 99.2916 23.7173 97.5902 24.4305 96.1304C24.5049 95.9786 24.7189 96.0313 24.7344 96.1986C25.1871 101.74 26.3748 106.324 28.1734 110.802C30.7627 117.252 32.9303 117.248 36.4034 117.252C39.6811 117.252 43.6814 117.252 43.5822 104.216C44.2117 104.328 44.6551 104.387 45.2536 104.387C45.8521 104.387 46.2955 104.328 46.925 104.216C46.8258 117.252 50.826 117.255 54.1038 117.252C57.5738 117.248 59.7414 117.252 62.3338 110.802C64.1324 106.324 65.32 101.74 65.7728 96.1986C65.7852 96.0313 66.0023 95.9786 66.0767 96.1304C66.7899 97.5902 68.7807 99.2916 72.4306 98.5726C77.0666 97.6583 77.9162 93.2575 78.1612 88.5374C78.6605 78.8833 72.7438 67.1993 66.9946 62.7737Z" fill="#FFD859"/>
<path d="M45.2573 99.0253C51.0323 99.0253 55.7138 93.876 55.7138 87.5241C55.7138 81.1722 51.0323 76.0229 45.2573 76.0229C39.4823 76.0229 34.8008 81.1722 34.8008 87.5241C34.8008 93.876 39.4823 99.0253 45.2573 99.0253Z" fill="#FFF5E6"/>
<path d="M24.5344 96.0314C24.2925 96.0314 24.0909 95.8455 24.0723 95.6007C23.3529 86.1822 25.5112 79.7358 25.6042 79.4662C25.6879 79.2245 25.9515 79.0943 26.1934 79.178C26.4353 79.2616 26.5655 79.5251 26.4849 79.7668C26.4632 79.8319 24.2956 86.3154 24.9995 95.5325C25.0181 95.7897 24.8259 96.0128 24.5716 96.0314C24.5592 96.0314 24.5468 96.0314 24.5344 96.0314Z" fill="#E6B545"/>
<path d="M65.9798 96.0314C65.9798 96.0314 65.955 96.0314 65.9426 96.0314C65.6852 96.0128 65.496 95.7897 65.5146 95.5325C66.2186 86.3154 64.051 79.8319 64.0293 79.7668C63.9456 79.5251 64.0758 79.2586 64.3208 79.178C64.5626 79.0943 64.8293 79.2245 64.9099 79.4662C65.003 79.7358 67.1613 86.1822 66.4418 95.6007C66.4232 95.8455 66.2186 96.0314 65.9798 96.0314Z" fill="#E6B545"/>
<path d="M45.3769 0.251709C64.3735 0.251709 76.7182 14.6657 78.0442 35.6976C79.2747 55.2246 67.5653 68.917 45.3769 68.917C23.1885 68.917 11.476 55.2246 12.7095 35.6976C14.0356 14.6657 26.3834 0.251709 45.3769 0.251709Z" fill="#FFD859"/>
<path d="M27.0583 7.69629C6.46428 9.85808 -7.22807 36.919 5.35717 49.1866C9.53272 53.2573 18.0627 57.6117 29.0258 42.5994L27.0583 7.69629Z" fill="#FFD859"/>
<path d="M63.6901 7.69629C84.2842 9.85808 97.9765 36.919 85.3913 49.1866C81.2157 53.2573 72.6858 57.6117 61.7227 42.5994L63.6901 7.69629Z" fill="#FFD859"/>
<path d="M65.1188 47.3742C68.4485 47.3742 71.1477 45.056 71.1477 42.1964C71.1477 39.3367 68.4485 37.0186 65.1188 37.0186C61.7891 37.0186 59.0898 39.3367 59.0898 42.1964C59.0898 45.056 61.7891 47.3742 65.1188 47.3742Z" fill="#F7C44A"/>
<path d="M25.6344 47.3742C28.9641 47.3742 31.6634 45.056 31.6634 42.1964C31.6634 39.3367 28.9641 37.0186 25.6344 37.0186C22.3047 37.0186 19.6055 39.3367 19.6055 42.1964C19.6055 45.056 22.3047 47.3742 25.6344 47.3742Z" fill="#F7C44A"/>
<path d="M48.0411 41.1744C47.8777 41.7079 47.5539 42.1366 47.1807 42.4635C46.5208 43.0401 45.7097 43.3054 45.3798 43.3054C45.0498 43.3054 44.2387 43.0401 43.5788 42.4635C43.2056 42.1366 42.8818 41.7079 42.7184 41.1744C42.2404 39.617 44.0691 39.1267 45.3798 39.1267C46.6904 39.1267 48.5191 39.617 48.0411 41.1744Z" fill="#282828"/>
<path d="M45.3764 47.0555C44.9509 47.0555 44.6055 46.7101 44.6055 46.2846V41.4614C44.6055 41.0358 44.9509 40.6904 45.3764 40.6904C45.802 40.6904 46.1474 41.0358 46.1474 41.4614V46.2846C46.1474 46.7101 45.802 47.0555 45.3764 47.0555Z" fill="#282828"/>
<path d="M15.4451 53.0434C15.2694 53.0434 15.0998 52.9417 15.0227 52.772C13.2279 48.7846 11.7353 44.0941 12.938 36.847C12.9811 36.5941 13.2155 36.4245 13.4715 36.4676C13.7243 36.5108 13.894 36.7483 13.8508 37.0012C12.6882 44.0046 14.1314 48.541 15.8645 52.3958C15.9694 52.6302 15.8645 52.9016 15.6333 53.0064C15.5716 53.0342 15.5068 53.0465 15.4451 53.0465V53.0434Z" fill="#E6B545"/>
<path d="M75.3044 53.0427C75.2396 53.0427 75.1779 53.0304 75.1162 53.0027C74.8819 52.8978 74.7801 52.6233 74.885 52.392C76.6181 48.5372 78.0644 44.0009 76.8987 36.9974C76.8556 36.7445 77.0282 36.5071 77.278 36.4639C77.5278 36.4207 77.7684 36.5934 77.8115 36.8432C79.0142 44.0903 77.5217 48.7808 75.7268 52.7683C75.6497 52.941 75.4801 53.0397 75.3044 53.0397V53.0427Z" fill="#E6B545"/>
<path d="M62.633 41.3811C62.4757 41.3811 62.3184 41.341 62.1735 41.2577C60.1227 40.0828 55.0004 38.584 54.948 38.5717C54.6489 38.4853 54.4114 38.251 54.322 37.9549C54.2295 37.6558 54.2973 37.332 54.4978 37.0914C55.8393 35.4848 58.5716 33.4802 61.6369 31.8612C62.0902 31.6238 62.6484 31.7965 62.8859 32.2467C63.1233 32.6969 62.9506 33.2582 62.5004 33.4957C60.3263 34.646 58.2909 36.0244 56.934 37.2426C58.6887 37.7976 61.5722 38.7783 63.0956 39.6541C63.5397 39.907 63.6908 40.4745 63.4379 40.9154C63.2683 41.2146 62.9537 41.3811 62.633 41.3811Z" fill="#282828"/>
<path d="M55.2053 38.6088C54.7828 38.6088 54.4035 38.319 54.3048 37.8903C54.1907 37.3907 54.5022 36.8973 55.0018 36.7832C58.5821 35.9629 60.2505 35.8365 63.47 35.7285C63.4793 35.7285 63.4916 35.7285 63.5009 35.7285C63.9974 35.7285 64.4075 36.1232 64.426 36.6228C64.4445 37.1347 64.0436 37.5603 63.5317 37.5788C60.3707 37.6868 58.8535 37.8039 55.4119 38.5903C55.3441 38.6057 55.2731 38.615 55.2053 38.615V38.6088Z" fill="#282828"/>
<path d="M32.4601 41.2644C34.7638 41.2644 36.6819 39.3431 36.6819 37.021C36.6819 34.6988 34.7638 32.7776 32.4601 32.7776C30.1565 32.7776 28.2383 34.6988 28.2383 37.021C28.2383 39.3431 30.1565 41.2644 32.4601 41.2644Z" fill="#282828"/>
<path d="M54.3609 51.0457C52.6494 53.303 49.8831 54.9899 45.6922 55.1811C42.9383 55.3045 40.7302 54.6476 38.994 53.5652C36.308 51.8937 34.7568 49.2077 34.0753 46.8331C33.955 46.4137 34.2942 46.0035 34.7291 46.0467C40.721 46.6265 42.5837 46.5679 45.2913 46.3243C50.1545 45.8833 54.0957 43.6845 55.7733 42.7624C56.1804 42.5404 56.6738 42.8302 56.6861 43.2928C56.7602 45.8123 56.1187 48.7297 54.3609 51.0457Z" fill="#C0612C"/>
<path d="M54.3669 51.0464C52.6553 53.3038 49.8891 54.9906 45.6981 55.1818C42.9443 55.3052 40.7362 54.6483 39 53.5659C39.734 51.7711 43.3575 49.7882 47.2894 49.5631C50.2499 49.3904 52.7139 49.6309 54.3669 51.0464Z" fill="#E28B5B"/>
</svg>
