<svg width="90" height="118" viewBox="0 0 90 118" fill="none" xmlns="http://www.w3.org/2000/svg">
<path d="M66.6274 62.7737H23.1454C17.3962 67.1993 11.4795 78.8833 11.9788 88.5374C12.2237 93.2575 13.0734 97.6583 17.7094 98.5726C21.3592 99.2916 23.3501 97.5902 24.0633 96.1304C24.1377 95.9786 24.3517 96.0313 24.3672 96.1986C24.8199 101.74 26.0076 106.324 27.8062 110.802C30.3955 117.252 32.5631 117.248 36.0362 117.252C39.3139 117.252 43.3142 117.252 43.215 104.216C43.8445 104.328 44.2879 104.387 44.8864 104.387C45.4849 104.387 45.9283 104.328 46.5578 104.216C46.4586 117.252 50.4589 117.255 53.7366 117.252C57.2066 117.248 59.3742 117.252 61.9666 110.802C63.7652 106.324 64.9529 101.74 65.4056 96.1986C65.418 96.0313 65.6351 95.9786 65.7095 96.1304C66.4227 97.5902 68.4135 99.2916 72.0634 98.5726C76.6994 97.6583 77.549 93.2575 77.794 88.5374C78.2933 78.8833 72.3766 67.1993 66.6274 62.7737Z" fill="#FFD859"/>
<path d="M44.8901 99.0253C50.6651 99.0253 55.3466 93.876 55.3466 87.5241C55.3466 81.1722 50.6651 76.0229 44.8901 76.0229C39.1151 76.0229 34.4336 81.1722 34.4336 87.5241C34.4336 93.876 39.1151 99.0253 44.8901 99.0253Z" fill="#FFF5E6"/>
<path d="M24.1672 96.0314C23.9253 96.0314 23.7238 95.8455 23.7051 95.6007C22.9857 86.1822 25.144 79.7358 25.237 79.4662C25.3208 79.2245 25.5843 79.0943 25.8262 79.178C26.0681 79.2616 26.1983 79.5251 26.1177 79.7668C26.096 79.8319 23.9284 86.3154 24.6323 95.5325C24.6509 95.7897 24.4587 96.0128 24.2044 96.0314C24.192 96.0314 24.1796 96.0314 24.1672 96.0314Z" fill="#E6B545"/>
<path d="M65.6126 96.0314C65.6126 96.0314 65.5878 96.0314 65.5754 96.0314C65.318 96.0128 65.1288 95.7897 65.1475 95.5325C65.8514 86.3154 63.6838 79.8319 63.6621 79.7668C63.5784 79.5251 63.7086 79.2586 63.9536 79.178C64.1955 79.0943 64.4621 79.2245 64.5428 79.4662C64.6358 79.7358 66.7941 86.1822 66.0746 95.6007C66.056 95.8455 65.8514 96.0314 65.6126 96.0314Z" fill="#E6B545"/>
<path d="M74.7214 52.9285C69.9848 62.8057 59.8392 68.9177 45.0156 68.9177C42.4036 68.9177 39.9366 68.7265 37.6207 68.3627C34.2255 67.823 31.148 66.9071 28.4065 65.6459C22.3994 62.8952 17.9896 58.5131 15.3129 52.9254C12.9569 48.016 11.9423 42.1785 12.3494 35.6964C13.0864 24.0213 17.2186 14.3877 23.9967 8.12764C29.4303 3.10728 36.5661 0.251709 45.0156 0.251709C53.4651 0.251709 60.604 3.10728 66.0376 8.12764C72.8157 14.3877 76.9479 24.0213 77.685 35.6964C78.092 42.1785 77.0743 48.0191 74.7214 52.9285Z" fill="#FFD859"/>
<path d="M26.6902 7.69604C6.09689 9.85776 -7.59499 36.9177 4.98982 49.1849C9.16523 53.2555 17.6949 57.6097 28.6576 42.598L26.6902 7.69604Z" fill="#FFD859"/>
<path d="M63.3229 7.69604C83.9163 9.85776 97.6081 36.9177 85.0233 49.1849C80.8479 53.2555 72.3182 57.6097 61.3555 42.598L63.3229 7.69604Z" fill="#FFD859"/>
<path d="M64.7436 47.3714C68.0732 47.3714 70.7724 45.0533 70.7724 42.1937C70.7724 39.3342 68.0732 37.0161 64.7436 37.0161C61.414 37.0161 58.7148 39.3342 58.7148 42.1937C58.7148 45.0533 61.414 47.3714 64.7436 47.3714Z" fill="#F7C44A"/>
<path d="M25.2592 47.3714C28.5888 47.3714 31.288 45.0533 31.288 42.1937C31.288 39.3342 28.5888 37.0161 25.2592 37.0161C21.9296 37.0161 19.2305 39.3342 19.2305 42.1937C19.2305 45.0533 21.9296 47.3714 25.2592 47.3714Z" fill="#F7C44A"/>
<path d="M47.6777 40.5579C47.5142 41.0914 47.1904 41.52 46.8173 41.8469C46.1574 42.4235 45.3463 42.6888 45.0164 42.6888C44.6864 42.6888 43.8754 42.4235 43.2155 41.8469C42.8424 41.52 42.5186 41.0914 42.3551 40.5579C41.8771 39.0006 43.7058 38.5103 45.0164 38.5103C46.327 38.5103 48.1557 39.0006 47.6777 40.5579Z" fill="#282828"/>
<path d="M45.0131 48.0359C44.5876 48.0359 44.2422 47.6906 44.2422 47.265V41.4614C44.2422 41.0358 44.5876 40.6904 45.0131 40.6904C45.4387 40.6904 45.7841 41.0358 45.7841 41.4614V47.265C45.7841 47.6906 45.4387 48.0359 45.0131 48.0359Z" fill="#282828"/>
<path d="M15.0818 53.0392C14.906 53.0392 14.7364 52.9374 14.6593 52.7678C12.8645 48.7805 11.372 44.0901 12.5747 36.8433C12.6178 36.5904 12.8553 36.4208 13.1082 36.464C13.361 36.5072 13.5306 36.7446 13.4875 36.9975C12.3249 44.0007 13.7681 48.5369 15.5012 52.3916C15.606 52.626 15.5012 52.8973 15.2699 53.0022C15.2082 53.0299 15.1434 53.0423 15.0818 53.0423V53.0392Z" fill="#E6B545"/>
<path d="M74.941 53.039C74.8763 53.039 74.8146 53.0266 74.753 52.9989C74.5186 52.894 74.4168 52.6196 74.5217 52.3883C76.2547 48.5336 77.701 43.9974 76.5353 36.9942C76.4921 36.7413 76.6648 36.5039 76.9146 36.4607C77.1675 36.4206 77.405 36.5902 77.4482 36.84C78.6508 44.0868 77.1583 48.7772 75.3635 52.7645C75.2864 52.9372 75.1168 53.0359 74.941 53.0359V53.039Z" fill="#E6B545"/>
<path d="M51.6035 52.1722C51.6035 52.3233 51.5942 52.4744 51.5819 52.6225C51.4925 53.5013 50.6537 54.0811 49.8396 53.8344C48.4797 53.4242 46.8144 53.1806 45.0166 53.1806C43.2187 53.1806 41.5535 53.4212 40.1936 53.8344C39.3764 54.0811 38.5406 53.5013 38.4512 52.6194C38.4358 52.4714 38.4297 52.3203 38.4297 52.1692C38.4297 49.1933 41.3777 46.7849 45.0196 46.7849C48.6616 46.7849 51.6097 49.1933 51.6097 52.1692L51.6035 52.1722Z" fill="#C0612C"/>
<path d="M57.8388 32.9272C55.5353 32.9272 53.6172 34.8484 53.6172 37.1736C53.6172 39.0948 54.9309 40.7446 56.6917 41.2503C57.0587 41.3613 57.4441 41.4168 57.8388 41.4168C58.9521 41.4168 59.982 40.9666 60.7406 40.2358C61.5516 39.4617 62.0605 38.3701 62.0605 37.1736C62.0605 34.8484 60.1424 32.9272 57.8388 32.9272ZM58.7516 37.9939C59.1648 38.0648 59.43 38.5089 59.3468 38.9837C59.2666 39.4617 58.8657 39.7917 58.4556 39.7208C58.0454 39.6498 57.7803 39.2058 57.8635 38.7309C57.9437 38.2529 58.3415 37.9229 58.7516 37.9939ZM56.5221 37.7502C55.6956 37.6084 55.1621 36.7172 55.3255 35.7581C55.492 34.8022 56.2938 34.1392 57.1172 34.281C57.9437 34.4229 58.4803 35.3141 58.3137 36.2731C58.1503 37.2291 57.3485 37.8921 56.5221 37.7502Z" fill="#008EA2"/>
<path d="M58.3184 36.2732C58.155 37.2291 57.3532 37.8922 56.5267 37.7503C55.7003 37.6085 55.1668 36.7172 55.3302 35.7582C55.4967 34.8022 56.2985 34.1392 57.1219 34.2811C57.9483 34.4229 58.485 35.3141 58.3184 36.2732Z" fill="#008EA2"/>
<path d="M59.3462 38.9836C59.266 39.4616 58.8651 39.7916 58.455 39.7206C58.0449 39.6497 57.7797 39.2056 57.8629 38.7307C57.9431 38.2528 58.3409 37.9228 58.751 37.9937C59.1643 38.0647 59.4294 38.5087 59.3462 38.9836Z" fill="#008EA2"/>
<path d="M58.3184 36.2742C58.155 37.2301 57.3532 37.8931 56.5267 37.7513C55.7003 37.6094 55.1668 36.7182 55.3302 35.7592C55.4967 34.8032 56.2985 34.1402 57.1219 34.2821C57.9483 34.4239 58.485 35.3151 58.3184 36.2742Z" fill="#008EA2"/>
<path d="M59.3462 38.9851C59.266 39.4631 58.8651 39.793 58.455 39.7221C58.0449 39.6512 57.7797 39.2071 57.8629 38.7322C57.9431 38.2542 58.3409 37.9243 58.751 37.9952C59.1643 38.0661 59.4294 38.5102 59.3462 38.9851Z" fill="#008EA2"/>
<path d="M32.1826 32.6177C29.8821 32.6177 27.9609 34.5389 27.9609 36.864C27.9609 38.0605 28.4728 39.1491 29.2776 39.9231C29.3948 40.0341 29.5151 40.139 29.6447 40.2346C30.3539 40.7804 31.239 41.1073 32.1826 41.1073C32.5804 41.1073 32.9658 41.0517 33.3297 40.9407C33.7029 40.8328 34.0575 40.6755 34.3813 40.472C35.5901 39.7226 36.4073 38.3812 36.4073 36.864C36.4073 34.5389 34.4861 32.6177 32.1826 32.6177ZM33.0984 37.6843C33.5055 37.7552 33.7769 38.1993 33.6936 38.6742C33.6134 39.1522 33.2095 39.4821 32.7993 39.4112C32.3923 39.3403 32.1239 38.8962 32.2041 38.4213C32.2874 37.9433 32.6883 37.6134 33.0984 37.6843ZM29.6693 35.4486C29.8358 34.4926 30.6407 33.8296 31.464 33.9714C32.2874 34.1133 32.824 35.0045 32.6575 35.9635C32.4971 36.9195 31.6953 37.5825 30.8689 37.4407C30.0394 37.2988 29.5058 36.4076 29.6693 35.4486Z" fill="#282828"/>
<path d="M32.6622 35.9636C32.5018 36.9196 31.7 37.5826 30.8736 37.4407C30.0441 37.2989 29.5105 36.4077 29.674 35.4486C29.8405 34.4927 30.6454 33.8297 31.4687 33.9715C32.2921 34.1134 32.8287 35.0046 32.6622 35.9636Z" fill="#282828"/>
<path d="M33.6872 38.674C33.6071 39.152 33.2031 39.482 32.793 39.4111C32.3859 39.3401 32.1176 38.8961 32.1978 38.4212C32.281 37.9432 32.682 37.6132 33.0921 37.6842C33.4992 37.7551 33.7705 38.1991 33.6872 38.674Z" fill="#282828"/>
<path d="M32.6622 35.9646C32.5018 36.9205 31.7 37.5836 30.8736 37.4417C30.0441 37.2999 29.5105 36.4086 29.674 35.4496C29.8405 34.4936 30.6454 33.8306 31.4687 33.9725C32.2921 34.1143 32.8287 35.0055 32.6622 35.9646Z" fill="white"/>
<path d="M33.6951 38.6755C33.6149 39.1535 33.2109 39.4835 32.8008 39.4125C32.3937 39.3416 32.1254 38.8975 32.2056 38.4226C32.2888 37.9447 32.6898 37.6147 33.0999 37.6856C33.507 37.7565 33.7783 38.2006 33.6951 38.6755Z" fill="white"/>
<path d="M37.6213 68.3595C34.2261 67.8229 31.1485 66.907 28.4071 65.6457C28.3793 65.325 26.7419 47.134 29.6437 40.2356H29.6468C30.356 40.7814 31.2411 41.1083 32.1847 41.1083C32.5825 41.1083 32.968 41.0528 33.3318 40.9418C33.705 40.8338 34.0596 40.6766 34.3834 40.473C34.3834 40.473 33.082 58.3218 37.6213 68.3595Z" fill="#CBEAFF"/>
<path d="M53.6172 36.8647C53.6172 38.382 54.4343 39.7234 55.6432 40.4727C55.967 40.6763 56.3216 40.8335 56.6948 40.9415C57.0587 41.0525 57.4441 41.108 57.8419 41.108C58.7855 41.108 59.6706 40.7811 60.3798 40.2353C60.5094 40.1397 60.6296 40.0348 60.7468 39.9238C61.5517 39.1498 62.0636 38.0612 62.0636 36.8647C62.0636 34.5396 60.1424 32.6184 57.8419 32.6184C55.5414 32.6184 53.6172 34.5396 53.6172 36.8647ZM57.8203 38.422C57.9005 38.8969 57.6322 39.341 57.2252 39.4119C56.815 39.4829 56.411 39.1529 56.3308 38.6749C56.2476 38.2 56.519 37.7559 56.9261 37.685C57.3362 37.6141 57.7371 37.9441 57.8203 38.422ZM59.1556 37.4414C58.3292 37.5833 57.5274 36.9202 57.367 35.9643C57.2005 35.0052 57.7371 34.114 58.5605 33.9722C59.3838 33.8303 60.1886 34.4933 60.3552 35.4493C60.5186 36.4083 59.9851 37.2996 59.1556 37.4414Z" fill="#282828"/>
<path d="M57.3702 35.9646C57.5305 36.9205 58.3323 37.5836 59.1587 37.4417C59.9883 37.2999 60.5217 36.4086 60.3583 35.4496C60.1918 34.4936 59.387 33.8306 58.5636 33.9725C57.7402 34.1143 57.2036 35.0055 57.3702 35.9646Z" fill="#282828"/>
<path d="M56.3236 38.6748C56.4038 39.1528 56.8078 39.4827 57.218 39.4118C57.625 39.3409 57.8933 38.8968 57.8131 38.4219C57.7298 37.9439 57.329 37.614 56.9188 37.6849C56.5118 37.7558 56.2404 38.1999 56.3236 38.6748Z" fill="#282828"/>
<path d="M58.7207 35.9658C58.5603 36.9218 57.7586 37.5848 56.9322 37.4429C56.1026 37.3011 55.5691 36.4099 55.7326 35.4508C55.8991 34.4949 56.704 33.8319 57.5273 33.9737C58.3507 34.1156 58.8872 35.0068 58.7207 35.9658Z" fill="white"/>
<path d="M59.7537 38.6767C59.6735 39.1547 59.2695 39.4847 58.8593 39.4138C58.4523 39.3428 58.184 38.8988 58.2642 38.4239C58.3474 37.9459 58.7484 37.6159 59.1585 37.6868C59.5656 37.7578 59.8369 38.2018 59.7537 38.6767Z" fill="white"/>
<path d="M52.4102 68.36C55.8054 67.8234 58.883 66.9075 61.6245 65.6462C61.6522 65.3255 63.2897 47.1344 60.3879 40.2361H60.3848C59.6755 40.7819 58.7905 41.1088 57.8469 41.1088C57.4491 41.1088 57.0636 41.0533 56.6997 40.9423C56.3266 40.8343 55.9719 40.677 55.6481 40.4735C55.6481 40.4735 56.9494 58.3223 52.4102 68.36Z" fill="#CBEAFF"/>
</svg>
