<svg width="83" height="117" viewBox="0 0 83 117" fill="none" xmlns="http://www.w3.org/2000/svg">
<path d="M61.6474 66.7329H19.7803C14.2447 70.8152 8.54772 81.5967 9.02844 90.5042C9.26432 94.858 10.0824 98.9194 14.5462 99.7639C18.0605 100.426 19.9774 98.8567 20.6641 97.5109C20.7358 97.3706 20.9418 97.4184 20.9567 97.5736C21.3927 102.688 22.5362 106.917 24.268 111.05C26.7611 117 28.8482 116.997 32.1923 117C35.3483 117 39.2 117 39.1045 104.971C39.7106 105.076 40.1376 105.129 40.7139 105.129C41.2901 105.129 41.7171 105.076 42.3232 104.971C42.2277 117 46.0793 117.003 49.2353 117C52.5765 117 54.6635 117 57.1597 111.05C58.8915 106.917 60.035 102.688 60.4709 97.5736C60.4829 97.4184 60.6919 97.3706 60.7636 97.5109C61.4503 98.8567 63.3672 100.429 66.8815 99.7639C71.3453 98.9224 72.1634 94.858 72.3993 90.5042C72.88 81.5967 67.1831 70.8152 61.6474 66.7329Z" fill="#FF9F69"/>
<path d="M40.7127 100.181C46.2732 100.181 50.7808 95.4305 50.7808 89.5699C50.7808 83.7094 46.2732 78.9585 40.7127 78.9585C35.1522 78.9585 30.6445 83.7094 30.6445 89.5699C30.6445 95.4305 35.1522 100.181 40.7127 100.181Z" fill="#FFE8CC"/>
<path d="M20.7538 97.4392C20.5239 97.4392 20.3268 97.2601 20.3089 97.0274C19.6162 88.3287 21.6973 82.3725 21.7869 82.1248C21.8705 81.892 22.1273 81.7727 22.3602 81.8532C22.5931 81.9368 22.7155 82.1934 22.6319 82.4262C22.611 82.4859 20.5269 88.463 21.2047 96.9587C21.2256 97.2064 21.0404 97.4213 20.7926 97.4392C20.7807 97.4392 20.7687 97.4392 20.7568 97.4392H20.7538Z" fill="#E37D44"/>
<path d="M60.6592 97.4391C60.6592 97.4391 60.6353 97.4391 60.6234 97.4391C60.3756 97.4183 60.1934 97.2034 60.2113 96.9587C60.8891 88.463 58.805 82.4858 58.7841 82.4261C58.7005 82.1934 58.8229 81.9367 59.0558 81.8532C59.2887 81.7696 59.5455 81.892 59.6291 82.1247C59.7187 82.3724 61.7998 88.3287 61.1071 97.0273C61.0892 97.2631 60.8921 97.4391 60.6622 97.4391H60.6592Z" fill="#E37D44"/>
<path d="M69.1448 0.0713226C61.1963 -1.33436 46.1474 18.504 46.1474 18.504C46.1474 18.504 45.1313 18.2133 41.187 18.2133C37.2427 18.2133 36.2267 18.504 36.2267 18.504C36.2267 18.504 21.1778 -1.33436 13.2293 0.0713226C7.80734 1.03042 -2.11036 17.1643 0.772938 38.4953C2.01377 44.3458 3.97693 49.3901 6.43163 53.703C13.0374 65.3201 23.1769 70.1666 32.2224 72.6872C35.3275 73.5504 38.5315 73.97 41.19 74C43.8515 73.97 47.0525 73.5534 50.1576 72.6872C59.2031 70.1696 69.3396 65.3231 75.9484 53.703C78.4002 49.3901 80.3663 44.3458 81.6071 38.4953C84.4904 17.1643 74.5757 1.03042 69.1508 0.0713226H69.1448Z" fill="#FF9F69"/>
<path d="M41.1843 66.459C49.0759 66.459 54.366 62.4038 55.4689 56.6222C56.5749 50.8406 52.232 45.9612 41.1843 45.9612C30.1367 45.9612 25.7938 50.8406 26.8967 56.6222C28.0027 62.4038 33.2897 66.459 41.1843 66.459Z" fill="#FFE8CC"/>
<path d="M41.1218 43.3866C39.5423 43.4406 37.3604 44.0849 37.9958 45.8893C38.6012 47.6066 40.3546 48.5717 41.2957 48.5388C42.2368 48.5058 43.9212 47.4298 44.4098 45.6735C44.9223 43.8302 42.7014 43.3326 41.1218 43.3836V43.3866Z" fill="#282828"/>
<path d="M57.696 46.6541C57.5761 46.6541 57.4532 46.6301 57.3363 46.5792C55.0105 45.5631 52.1482 44.9637 50.254 44.5681C49.9393 44.5021 49.6815 44.2713 49.5826 43.9656C49.4837 43.6599 49.5556 43.3212 49.7744 43.0845C51.336 41.3731 54.492 39.344 56.665 38.6546C57.1355 38.5048 57.6451 38.7655 57.7949 39.2391C57.9448 39.7126 57.684 40.2191 57.2105 40.369C55.8048 40.8156 53.7997 41.9935 52.325 43.1744C54.0964 43.573 56.2064 44.1245 58.0587 44.9307C58.5142 45.1285 58.721 45.6591 58.5232 46.1146C58.3764 46.4533 58.0467 46.6541 57.699 46.6541H57.696Z" fill="#282828"/>
<path d="M24.6727 46.654C24.325 46.654 23.9953 46.4532 23.8484 46.1145C23.6506 45.659 23.8574 45.1284 24.313 44.9306C26.1623 44.1244 28.2753 43.5729 30.0466 43.1743C28.572 41.9934 26.5669 40.8125 25.1612 40.3689C24.6876 40.2191 24.4269 39.7125 24.5767 39.239C24.7266 38.7654 25.2301 38.5017 25.7067 38.6545C27.8796 39.3439 31.0357 41.373 32.5972 43.0844C32.816 43.3211 32.8879 43.6598 32.789 43.9655C32.6901 44.2713 32.4324 44.502 32.1177 44.568C30.2234 44.9636 27.3611 45.566 25.0353 46.5791C24.9184 46.63 24.7955 46.654 24.6756 46.654H24.6727Z" fill="#282828"/>
<path d="M48.3016 57.1108C47.0278 59.1819 44.9718 60.1979 43.2993 60.4047C40.494 60.7524 38.4259 60.2399 36.9033 59.3407C34.2238 57.7552 33.2318 54.9618 32.8841 53.5052C32.7822 53.0796 33.1568 52.6929 33.5884 52.7829C34.9132 53.0586 37.6826 53.4362 41.516 52.9117C45.2205 52.4082 47.4744 51.3802 48.5474 50.7628C48.922 50.547 49.3956 50.7987 49.4376 51.2303C49.6893 53.745 49.1828 55.6811 48.3016 57.1108Z" fill="#974137"/>
<path d="M48.3046 57.1109C47.0308 59.1819 44.9747 60.198 43.3023 60.4048C40.4969 60.7525 38.4288 60.2399 36.9062 59.3408C38.3989 58.4866 40.4699 57.7613 42.8107 57.3507C44.8278 56.997 46.734 56.931 48.3046 57.1109Z" fill="#E5705E"/>
</svg>
