<svg width="82" height="116" viewBox="0 0 82 116" fill="none" xmlns="http://www.w3.org/2000/svg">
<path d="M61.6474 65.7241H19.7803C14.2447 69.8064 8.54772 80.5879 9.02844 89.4954C9.26432 93.8492 10.0824 97.9106 14.5462 98.7551C18.0605 99.4176 19.9774 97.8479 20.6641 96.5021C20.7358 96.3619 20.9418 96.4096 20.9567 96.5648C21.3927 101.68 22.5362 105.908 24.268 110.041C26.7611 115.991 28.8482 115.988 32.1923 115.991C35.3483 115.991 39.2 115.991 39.1045 103.962C39.7106 104.067 40.1376 104.121 40.7139 104.121C41.2901 104.121 41.7171 104.067 42.3232 103.962C42.2277 115.991 46.0793 115.994 49.2353 115.991C52.5765 115.991 54.6635 115.991 57.1597 110.041C58.8915 105.908 60.035 101.68 60.4709 96.5648C60.4829 96.4096 60.6919 96.3619 60.7636 96.5021C61.4503 97.8479 63.3672 99.4206 66.8815 98.7551C71.3453 97.9136 72.1634 93.8492 72.3993 89.4954C72.88 80.5879 67.1831 69.8064 61.6474 65.7241Z" fill="#FF9F69"/>
<path d="M40.7127 99.1726C46.2732 99.1726 50.7808 94.4217 50.7808 88.5612C50.7808 82.7006 46.2732 77.9497 40.7127 77.9497C35.1522 77.9497 30.6445 82.7006 30.6445 88.5612C30.6445 94.4217 35.1522 99.1726 40.7127 99.1726Z" fill="#FFE8CC"/>
<path d="M20.7538 96.4304C20.5239 96.4304 20.3268 96.2513 20.3089 96.0186C19.6162 87.3199 21.6973 81.3637 21.7869 81.116C21.8705 80.8832 22.1273 80.7639 22.3602 80.8444C22.5931 80.928 22.7155 81.1846 22.6319 81.4174C22.611 81.4771 20.5269 87.4542 21.2047 95.95C21.2256 96.1976 21.0404 96.4125 20.7926 96.4304C20.7807 96.4304 20.7687 96.4304 20.7568 96.4304H20.7538Z" fill="#E37D44"/>
<path d="M60.6592 96.4306C60.6592 96.4306 60.6353 96.4306 60.6234 96.4306C60.3756 96.4097 60.1934 96.1949 60.2113 95.9502C60.8891 87.4544 58.805 81.4773 58.7841 81.4176C58.7005 81.1848 58.8229 80.9282 59.0558 80.8446C59.2887 80.7611 59.5455 80.8834 59.6291 81.1162C59.7187 81.3639 61.7998 87.3201 61.1071 96.0188C61.0892 96.2545 60.8921 96.4306 60.6622 96.4306H60.6592Z" fill="#E37D44"/>
<path d="M68.5891 0.0710142C60.6749 -1.32859 45.6911 18.424 45.6911 18.424C45.6911 18.424 44.6795 18.1346 40.7522 18.1346C36.825 18.1346 35.8134 18.424 35.8134 18.424C35.8134 18.424 20.8295 -1.32859 12.9154 0.0710142C7.5169 1.02597 -2.35793 17.0901 0.512897 38.3288C1.74837 44.154 3.70304 49.1765 6.14712 53.4708C12.7244 65.0377 22.82 69.8632 31.8264 72.3729C34.9181 73.2324 38.1082 73.6502 40.7552 73.68C43.4052 73.6502 46.5924 73.2353 49.6841 72.3729C58.6905 69.8662 68.7831 65.0407 75.3633 53.4708C77.8044 49.1765 79.7621 44.154 80.9976 38.3288C83.8684 17.0901 73.9965 1.02597 68.5951 0.0710142H68.5891Z" fill="#FF9F69"/>
<path d="M40.7546 66.1748C48.6121 66.1748 53.8793 62.1371 54.9775 56.3805C56.0787 50.6239 51.7545 45.7656 40.7546 45.7656C29.7547 45.7656 25.4306 50.6239 26.5288 56.3805C27.63 62.1371 32.8942 66.1748 40.7546 66.1748Z" fill="#FFE8CC"/>
<path d="M40.7511 43.0479C39.1784 43.0479 36.9851 43.6178 37.558 45.4352C38.1041 47.1661 39.8141 48.1807 40.7511 48.1807C41.6882 48.1807 43.4012 47.1631 43.9443 45.4352C44.5173 43.6178 42.3238 43.0479 40.7511 43.0479Z" fill="#282828"/>
<path d="M27.7495 38.5215C25.5203 38.5215 23.6641 40.3807 23.6641 42.6308C23.6641 43.7886 24.1565 44.8421 24.9383 45.5911C25.6754 46.2984 26.6692 46.7371 27.7495 46.7371C28.1315 46.7371 28.5045 46.6833 28.8567 46.5759C30.5607 46.0865 31.8349 44.4929 31.8349 42.6308C31.8349 40.3807 29.9758 38.5215 27.7495 38.5215ZM25.3173 41.261C25.4755 40.3359 26.2544 39.6943 27.0512 39.8316C27.851 39.9688 28.3703 40.8313 28.2091 41.7594C28.0509 42.6845 27.275 43.3261 26.4753 43.1888C25.6755 43.0515 25.1592 42.1891 25.3173 41.261ZM29.2088 44.3825C29.1312 44.8451 28.7433 45.1644 28.3464 45.0957C27.9495 45.0271 27.6928 44.5974 27.7704 44.1378C27.8509 43.6752 28.2359 43.3559 28.6328 43.4246C29.0297 43.4932 29.2894 43.9229 29.2088 44.3825Z" fill="#282828"/>
<path d="M28.2093 41.7598C28.0512 42.6849 27.2752 43.3265 26.4755 43.1892C25.6757 43.052 25.1594 42.1895 25.3175 41.2614C25.4757 40.3363 26.2546 39.6947 27.0514 39.832C27.8512 39.9693 28.3705 40.8317 28.2093 41.7598Z" fill="#282828"/>
<path d="M29.2101 44.3818C29.1325 44.8443 28.7446 45.1636 28.3476 45.095C27.9507 45.0264 27.694 44.5966 27.7716 44.1371C27.8522 43.6745 28.2372 43.3552 28.6341 43.4238C29.031 43.4925 29.2906 43.9222 29.2101 44.3818Z" fill="#282828"/>
<path d="M28.2093 41.7603C28.0512 42.6854 27.2752 43.327 26.4755 43.1897C25.6757 43.0524 25.1594 42.19 25.3175 41.2619C25.4757 40.3368 26.2546 39.6952 27.0514 39.8325C27.8512 39.9697 28.3705 40.8322 28.2093 41.7603Z" fill="white"/>
<path d="M29.2101 44.3842C29.1325 44.8468 28.7446 45.1661 28.3476 45.0974C27.9507 45.0288 27.694 44.5991 27.7716 44.1395C27.8522 43.6769 28.2372 43.3576 28.6341 43.4263C29.031 43.4949 29.2906 43.9246 29.2101 44.3842Z" fill="white"/>
<path d="M53.7651 38.8213C51.5359 38.8213 49.6797 40.6805 49.6797 42.9306C49.6797 44.7897 50.951 46.3863 52.655 46.8757C53.0101 46.9832 53.3831 47.0369 53.7651 47.0369C54.8424 47.0369 55.8391 46.6012 56.5732 45.8939C57.3581 45.1449 57.8505 44.0884 57.8505 42.9306C57.8505 40.6805 55.9943 38.8213 53.7651 38.8213ZM54.6484 43.7244C55.0483 43.793 55.3049 44.2227 55.2243 44.6823C55.1467 45.1449 54.7588 45.4642 54.3619 45.3955C53.965 45.3269 53.7084 44.8972 53.789 44.4376C53.8666 43.975 54.2515 43.6557 54.6484 43.7244ZM52.4908 43.4886C51.691 43.3513 51.1748 42.4889 51.333 41.5608C51.4941 40.6357 52.27 39.9941 53.0667 40.1314C53.8665 40.2686 54.3858 41.1311 54.2247 42.0592C54.0665 42.9843 53.2906 43.6259 52.4908 43.4886Z" fill="#282828"/>
<path d="M54.2249 42.0596C54.0667 42.9847 53.2908 43.6263 52.491 43.489C51.6912 43.3518 51.175 42.4893 51.3332 41.5612C51.4943 40.6361 52.2702 39.9945 53.067 40.1318C53.8667 40.2691 54.386 41.1315 54.2249 42.0596Z" fill="#282828"/>
<path d="M55.2236 44.6816C55.146 45.1441 54.7581 45.4634 54.3612 45.3948C53.9643 45.3262 53.7077 44.8964 53.7882 44.4369C53.8658 43.9743 54.2508 43.655 54.6477 43.7236C55.0475 43.7923 55.3042 44.222 55.2236 44.6816Z" fill="#282828"/>
<path d="M54.2249 42.0591C54.0667 42.9842 53.2908 43.6258 52.491 43.4886C51.6912 43.3513 51.175 42.4888 51.3332 41.5607C51.4943 40.6356 52.2702 39.994 53.067 40.1313C53.8667 40.2686 54.386 41.131 54.2249 42.0591Z" fill="white"/>
<path d="M55.2236 44.6821C55.146 45.1446 54.7581 45.4639 54.3612 45.3953C53.9643 45.3267 53.7077 44.8969 53.7882 44.4374C53.8658 43.9748 54.2508 43.6555 54.6477 43.7241C55.0475 43.7928 55.3042 44.2225 55.2236 44.6821Z" fill="white"/>
<path d="M58.3306 45.4734C58.4529 46.2373 57.7725 46.87 56.9638 47.0162C56.155 47.1624 55.3971 46.7387 55.2747 46.0672C55.1524 45.3958 55.7074 44.7303 56.5161 44.5811C57.3249 44.4319 58.2052 44.7124 58.3276 45.4734H58.3306Z" fill="#CBEAFF"/>
<path d="M23.1705 45.4734C23.0482 46.2373 23.7286 46.87 24.5373 47.0162C25.3461 47.1624 26.104 46.7387 26.2264 46.0672C26.3488 45.3958 25.7937 44.7303 24.985 44.5811C24.1763 44.4319 23.2959 44.7124 23.1735 45.4734H23.1705Z" fill="#CBEAFF"/>
<path d="M46.6198 55.6374C46.6198 56.7475 45.9155 57.7323 44.7815 58.4187C43.734 59.0603 42.3135 59.4482 40.7528 59.4482C39.192 59.4482 37.7715 59.0603 36.7211 58.4187C35.59 57.7323 34.8828 56.7475 34.8828 55.6374C34.8828 53.4947 37.5119 51.54 40.7528 51.54C43.9936 51.54 46.6198 53.4947 46.6198 55.6374Z" fill="#974137"/>
<path d="M44.7831 58.4179C43.7356 59.0595 42.3151 59.4475 40.7544 59.4475C39.1936 59.4475 37.7731 59.0595 36.7227 58.4179C37.5761 57.5674 39.0623 57.0034 40.7544 57.0034C42.4464 57.0034 43.9296 57.5674 44.7831 58.4179Z" fill="#E5705E"/>
</svg>
