<svg width="82" height="116" viewBox="0 0 82 116" fill="none" xmlns="http://www.w3.org/2000/svg">
<path d="M61.6474 65.7095H19.7803C14.2447 69.7917 8.54772 80.5733 9.02844 89.4808C9.26432 93.8346 10.0824 97.896 14.5462 98.7405C18.0605 99.4029 19.9774 97.8333 20.6641 96.4875C20.7358 96.3472 20.9418 96.395 20.9567 96.5501C21.3927 101.665 22.5362 105.893 24.268 110.026C26.7611 115.977 28.8482 115.974 32.1923 115.977C35.3483 115.977 39.2 115.977 39.1045 103.948C39.7106 104.052 40.1376 104.106 40.7139 104.106C41.2901 104.106 41.7171 104.052 42.3232 103.948C42.2277 115.977 46.0793 115.98 49.2353 115.977C52.5765 115.977 54.6635 115.977 57.1597 110.026C58.8915 105.893 60.035 101.665 60.4709 96.5501C60.4829 96.395 60.6919 96.3472 60.7636 96.4875C61.4503 97.8333 63.3672 99.4059 66.8815 98.7405C71.3453 97.8989 72.1634 93.8346 72.3993 89.4808C72.88 80.5733 67.1831 69.7917 61.6474 65.7095Z" fill="#FF9F69"/>
<path d="M40.7127 99.158C46.2732 99.158 50.7808 94.4071 50.7808 88.5465C50.7808 82.686 46.2732 77.9351 40.7127 77.9351C35.1522 77.9351 30.6445 82.686 30.6445 88.5465C30.6445 94.4071 35.1522 99.158 40.7127 99.158Z" fill="#FFE8CC"/>
<path d="M20.7538 96.4157C20.5239 96.4157 20.3268 96.2367 20.3089 96.0039C19.6162 87.3053 21.6973 81.349 21.7869 81.1014C21.8705 80.8686 22.1273 80.7492 22.3602 80.8298C22.5931 80.9134 22.7155 81.17 22.6319 81.4027C22.611 81.4624 20.5269 87.4396 21.2047 95.9353C21.2256 96.183 21.0404 96.3978 20.7926 96.4157C20.7807 96.4157 20.7687 96.4157 20.7568 96.4157H20.7538Z" fill="#E37D44"/>
<path d="M60.6592 96.4159C60.6592 96.4159 60.6353 96.4159 60.6234 96.4159C60.3756 96.3951 60.1934 96.1802 60.2113 95.9355C60.8891 87.4398 58.805 81.4626 58.7841 81.403C58.7005 81.1702 58.8229 80.9136 59.0558 80.83C59.2887 80.7464 59.5455 80.8688 59.6291 81.1016C59.7187 81.3492 61.7998 87.3055 61.1071 96.0041C61.0892 96.2399 60.8921 96.4159 60.6622 96.4159H60.6592Z" fill="#E37D44"/>
<path d="M68.5891 0.0710142C60.675 -1.32859 45.6911 18.424 45.6911 18.424C45.6911 18.424 44.6795 18.1346 40.7522 18.1346C36.825 18.1346 35.8133 18.424 35.8133 18.424C35.8133 18.424 20.8295 -1.32859 12.9154 0.0710142C7.51688 1.02597 -2.35793 17.0901 0.512898 38.3288C1.74837 44.154 3.70304 49.1765 6.14712 53.4708C12.7244 65.0377 22.82 69.8632 31.8264 72.3729C34.9181 73.2324 38.1082 73.6502 40.7552 73.68C43.4052 73.6502 46.5924 73.2353 49.684 72.3729C58.6904 69.8662 68.7831 65.0407 75.3633 53.4708C77.8044 49.1765 79.7621 44.154 80.9975 38.3288C83.8684 17.0901 73.9965 1.02597 68.5951 0.0710142H68.5891Z" fill="#FF9F69"/>
<path d="M40.7546 66.1713C48.6121 66.1713 53.8793 62.1337 54.9775 56.3771C56.0786 50.6205 51.7545 45.7622 40.7546 45.7622C29.7548 45.7622 25.4306 50.6205 26.5288 56.3771C27.63 62.1337 32.8942 66.1713 40.7546 66.1713Z" fill="#FFE8CC"/>
<path d="M27.9576 46.1346C30.1032 46.1346 31.8878 44.3948 31.8878 42.2909C31.8878 40.1871 30.1003 38.4473 27.9576 38.4473C25.8149 38.4473 24.0273 40.1871 24.0273 42.2909C24.0273 44.3948 25.8149 46.1346 27.9576 46.1346Z" fill="#282828"/>
<path d="M53.5552 46.1346C51.4096 46.1346 49.625 44.3948 49.625 42.2909C49.625 40.1871 51.4126 38.4473 53.5552 38.4473C55.6979 38.4473 57.4855 40.1871 57.4855 42.2909C57.4855 44.3948 55.6979 46.1346 53.5552 46.1346Z" fill="#282828"/>
<path d="M40.7512 43.0479C39.1785 43.0479 36.9851 43.6178 37.558 45.4352C38.1041 47.1661 39.8141 48.1807 40.7512 48.1807C41.6882 48.1807 43.4011 47.1631 43.9443 45.4352C44.5173 43.6178 42.3238 43.0479 40.7512 43.0479Z" fill="#282828"/>
<path d="M45.9914 56.219C45.9914 57.2635 45.8183 58.2453 45.4602 59.0958C44.7171 60.8655 43.1773 62.0592 40.7511 62.0592C38.3249 62.0592 36.7821 60.8655 36.039 59.0958C35.6809 58.2453 35.5078 57.2635 35.5078 56.219C35.5078 52.9931 37.3252 50.3789 40.7511 50.3789C44.177 50.3789 45.9914 52.9931 45.9914 56.219Z" fill="#974137"/>
<path d="M45.4603 59.0961C44.7172 60.8657 43.1773 62.0594 40.7512 62.0594C38.325 62.0594 36.7821 60.8657 36.0391 59.0961C37.1671 58.4306 38.8592 58.0068 40.7512 58.0068C42.6432 58.0068 44.3322 58.4306 45.4603 59.0961Z" fill="#E5705E"/>
</svg>
