<svg width="82" height="116" viewBox="0 0 82 116" fill="none" xmlns="http://www.w3.org/2000/svg">
<path d="M62.6474 65.7241H20.7803C15.2447 69.8064 9.54772 80.5879 10.0284 89.4954C10.2643 93.8492 11.0824 97.9106 15.5462 98.7551C19.0605 99.4176 20.9774 97.8479 21.6641 96.5021C21.7358 96.3619 21.9418 96.4096 21.9567 96.5648C22.3927 101.68 23.5362 105.908 25.268 110.041C27.7611 115.991 29.8482 115.988 33.1923 115.991C36.3483 115.991 40.2 115.991 40.1045 103.962C40.7106 104.067 41.1376 104.121 41.7139 104.121C42.2901 104.121 42.7171 104.067 43.3232 103.962C43.2277 115.991 47.0793 115.994 50.2353 115.991C53.5765 115.991 55.6635 115.991 58.1597 110.041C59.8915 105.908 61.035 101.68 61.4709 96.5648C61.4829 96.4096 61.6919 96.3619 61.7636 96.5021C62.4503 97.8479 64.3672 99.4206 67.8815 98.7551C72.3453 97.9136 73.1634 93.8492 73.3993 89.4954C73.88 80.5879 68.1831 69.8064 62.6474 65.7241Z" fill="#FF9F69"/>
<path d="M41.7127 99.1726C47.2732 99.1726 51.7808 94.4217 51.7808 88.5612C51.7808 82.7006 47.2732 77.9497 41.7127 77.9497C36.1522 77.9497 31.6445 82.7006 31.6445 88.5612C31.6445 94.4217 36.1522 99.1726 41.7127 99.1726Z" fill="#FFE8CC"/>
<path d="M21.7538 96.4304C21.5239 96.4304 21.3268 96.2513 21.3089 96.0186C20.6162 87.3199 22.6973 81.3637 22.7869 81.116C22.8705 80.8832 23.1273 80.7639 23.3602 80.8444C23.5931 80.928 23.7155 81.1846 23.6319 81.4174C23.611 81.4771 21.5269 87.4542 22.2047 95.95C22.2256 96.1976 22.0404 96.4125 21.7926 96.4304C21.7807 96.4304 21.7687 96.4304 21.7568 96.4304H21.7538Z" fill="#E37D44"/>
<path d="M61.6592 96.4306C61.6592 96.4306 61.6353 96.4306 61.6234 96.4306C61.3756 96.4097 61.1934 96.1949 61.2113 95.9502C61.8891 87.4544 59.805 81.4773 59.7841 81.4176C59.7005 81.1848 59.8229 80.9282 60.0558 80.8446C60.2887 80.7611 60.5455 80.8834 60.6291 81.1162C60.7187 81.3639 62.7998 87.3201 62.1071 96.0188C62.0892 96.2545 61.8921 96.4306 61.6622 96.4306H61.6592Z" fill="#E37D44"/>
<path d="M68.5891 0.0710142C60.6749 -1.32859 45.6911 18.424 45.6911 18.424C45.6911 18.424 44.6795 18.1346 40.7523 18.1346C36.825 18.1346 35.8133 18.424 35.8133 18.424C35.8133 18.424 20.8295 -1.32859 12.9154 0.0710142C7.5169 1.02597 -2.35793 17.0901 0.512897 38.3288C1.74837 44.154 3.70304 49.1765 6.14712 53.4708C12.7244 65.0377 22.82 69.8632 31.8264 72.3729C34.9181 73.2324 38.1082 73.6502 40.7552 73.68C43.4052 73.6502 46.5924 73.2353 49.684 72.3729C58.6904 69.8662 68.7831 65.0407 75.3633 53.4708C77.8044 49.1765 79.7621 44.154 80.9976 38.3288C83.8684 17.0901 73.9965 1.02597 68.5951 0.0710142H68.5891Z" fill="#FF9F69"/>
<path d="M40.7546 66.1748C48.6121 66.1748 53.8793 62.1371 54.9775 56.3805C56.0786 50.6239 51.7545 45.7656 40.7546 45.7656C29.7548 45.7656 25.4306 50.6239 26.5288 56.3805C27.63 62.1371 32.8942 66.1748 40.7546 66.1748Z" fill="#FFE8CC"/>
<path d="M40.7512 43.0479C39.1785 43.0479 36.985 43.6178 37.558 45.4352C38.1041 47.1661 39.8141 48.1807 40.7512 48.1807C41.6882 48.1807 43.4011 47.1631 43.9443 45.4352C44.5172 43.6178 42.3239 43.0479 40.7512 43.0479Z" fill="#282828"/>
<path d="M27.192 46.1351C29.3376 46.1351 31.1222 44.3953 31.1222 42.2914C31.1222 40.1876 29.3346 38.4478 27.192 38.4478C25.0493 38.4478 23.2617 40.1876 23.2617 42.2914C23.2617 44.3953 25.0493 46.1351 27.192 46.1351Z" fill="#282828"/>
<path d="M56.9335 46.5078C56.7813 46.5078 56.6291 46.469 56.4888 46.3885C54.5043 45.2515 49.5475 43.8011 49.4967 43.7892C49.2073 43.7056 48.9775 43.4788 48.891 43.1924C48.8014 42.9029 48.8671 42.5895 49.0611 42.3568C50.3562 40.802 53.0032 38.8622 55.9696 37.2955C56.4053 37.0657 56.9484 37.2328 57.1781 37.6685C57.4079 38.1042 57.2408 38.6474 56.8051 38.8771C54.7012 39.9903 52.7317 41.3242 51.4186 42.503C53.1166 43.0402 55.9069 43.9891 57.3811 44.8367C57.8108 45.0814 57.957 45.6305 57.7123 46.0572C57.5482 46.3467 57.2438 46.5078 56.9335 46.5078Z" fill="#282828"/>
<path d="M49.7458 43.8249C49.3369 43.8249 48.9698 43.5444 48.8744 43.1296C48.7639 42.6462 49.0653 42.1687 49.5488 42.0583C53.0135 41.2645 54.6279 41.1421 57.7435 41.0377C58.2418 41.0317 58.6507 41.4077 58.6686 41.9001C58.6865 42.3955 58.2985 42.8073 57.8061 42.8252C54.7473 42.9297 53.2791 43.0431 49.9487 43.804C49.883 43.819 49.8144 43.8279 49.7487 43.8279L49.7458 43.8249Z" fill="#282828"/>
<path d="M38.7708 57.1617C38.2694 57.1617 37.8337 57.0662 37.4756 56.9409C36.0134 56.4216 35.1121 55.0967 34.8943 54.085C34.575 52.5959 35.1181 51.3126 36.3834 50.5666C37.7502 49.7638 39.7377 49.7489 40.6359 50.5367C41.0089 50.862 41.0448 51.429 40.7195 51.7991C40.3942 52.1721 39.8302 52.2079 39.4571 51.8856C39.2094 51.6976 38.0426 51.632 37.2339 52.1453C36.6758 52.4974 36.4908 52.9958 36.643 53.709C36.7355 54.1447 37.207 54.9474 38.0695 55.2548C38.9469 55.5652 40.0003 55.2488 41.1223 54.3446C41.5073 54.0343 42.0713 54.0939 42.3817 54.4789C42.692 54.8639 42.6324 55.4279 42.2474 55.7383C40.8985 56.8275 39.7168 57.1647 38.7678 57.1647L38.7708 57.1617Z" fill="#282828"/>
<path d="M40.5368 60.7371C39.7908 60.7371 39.0507 60.5491 38.4479 60.0835C37.7167 59.5195 36.9438 58.3646 37.4124 56.0489C37.5108 55.5654 37.9853 55.2491 38.4688 55.3476C38.9522 55.446 39.2656 55.9176 39.1701 56.404C39.0149 57.1769 38.9492 58.1975 39.5311 58.6601C40.0892 59.1017 41.1247 58.9883 41.8618 58.6511C42.4647 58.3736 42.6706 58.0543 42.6736 57.9737C42.6736 57.4783 43.0734 57.0784 43.5688 57.0784C44.0642 57.0784 44.4641 57.4783 44.4641 57.9737C44.4641 58.857 43.8285 59.6777 42.7183 60.2238C42.0857 60.5342 41.3068 60.7371 40.5338 60.7371H40.5368Z" fill="#282828"/>
</svg>
