<svg width="82" height="116" viewBox="0 0 82 116" fill="none" xmlns="http://www.w3.org/2000/svg">
<path d="M61.6474 65.7241H19.7803C14.2447 69.8064 8.54772 80.5879 9.02844 89.4954C9.26432 93.8492 10.0824 97.9106 14.5462 98.7551C18.0605 99.4176 19.9774 97.8479 20.6641 96.5021C20.7358 96.3619 20.9418 96.4096 20.9567 96.5648C21.3927 101.68 22.5362 105.908 24.268 110.041C26.7611 115.991 28.8482 115.988 32.1923 115.991C35.3483 115.991 39.2 115.991 39.1045 103.962C39.7106 104.067 40.1376 104.121 40.7139 104.121C41.2901 104.121 41.7171 104.067 42.3232 103.962C42.2277 115.991 46.0793 115.994 49.2353 115.991C52.5765 115.991 54.6635 115.991 57.1597 110.041C58.8915 105.908 60.035 101.68 60.4709 96.5648C60.4829 96.4096 60.6919 96.3619 60.7636 96.5021C61.4503 97.8479 63.3672 99.4206 66.8815 98.7551C71.3453 97.9136 72.1634 93.8492 72.3993 89.4954C72.88 80.5879 67.1831 69.8064 61.6474 65.7241Z" fill="#FF9F69"/>
<path d="M40.7127 99.1726C46.2732 99.1726 50.7808 94.4217 50.7808 88.5612C50.7808 82.7006 46.2732 77.9497 40.7127 77.9497C35.1522 77.9497 30.6445 82.7006 30.6445 88.5612C30.6445 94.4217 35.1522 99.1726 40.7127 99.1726Z" fill="#FFE8CC"/>
<path d="M20.7538 96.4304C20.5239 96.4304 20.3268 96.2513 20.3089 96.0186C19.6162 87.3199 21.6973 81.3637 21.7869 81.116C21.8705 80.8832 22.1273 80.7639 22.3602 80.8444C22.5931 80.928 22.7155 81.1846 22.6319 81.4174C22.611 81.4771 20.5269 87.4542 21.2047 95.95C21.2256 96.1976 21.0404 96.4125 20.7926 96.4304C20.7807 96.4304 20.7687 96.4304 20.7568 96.4304H20.7538Z" fill="#E37D44"/>
<path d="M60.6592 96.4306C60.6592 96.4306 60.6353 96.4306 60.6234 96.4306C60.3756 96.4097 60.1934 96.1949 60.2113 95.9502C60.8891 87.4544 58.805 81.4773 58.7841 81.4176C58.7005 81.1848 58.8229 80.9282 59.0558 80.8446C59.2887 80.7611 59.5455 80.8834 59.6291 81.1162C59.7187 81.3639 61.7998 87.3201 61.1071 96.0188C61.0892 96.2545 60.8921 96.4306 60.6622 96.4306H60.6592Z" fill="#E37D44"/>
<path d="M68.5891 0.0710142C60.6749 -1.32859 45.6911 18.424 45.6911 18.424C45.6911 18.424 44.6795 18.1346 40.7523 18.1346C36.825 18.1346 35.8133 18.424 35.8133 18.424C35.8133 18.424 20.8295 -1.32859 12.9154 0.0710142C7.5169 1.02597 -2.35793 17.0901 0.512897 38.3288C1.74837 44.154 3.70304 49.1765 6.14712 53.4708C12.7244 65.0377 22.82 69.8632 31.8264 72.3729C34.9181 73.2324 38.1082 73.6502 40.7552 73.68C43.4052 73.6502 46.5924 73.2353 49.684 72.3729C58.6904 69.8662 68.7831 65.0407 75.3633 53.4708C77.8044 49.1765 79.7621 44.154 80.9976 38.3288C83.8684 17.0901 73.9965 1.02597 68.5951 0.0710142H68.5891Z" fill="#FF9F69"/>
<path d="M40.7468 66.1748C48.6043 66.1748 53.8714 62.1371 54.9696 56.3805C56.0708 50.6239 51.7467 45.7656 40.7468 45.7656C29.747 45.7656 25.4228 50.6239 26.521 56.3805C27.6222 62.1371 32.8864 66.1748 40.7468 66.1748Z" fill="#FFE8CC"/>
<path d="M40.7512 43.0479C39.1785 43.0479 36.985 43.6178 37.558 45.4352C38.1041 47.1661 39.8141 48.1807 40.7512 48.1807C41.6882 48.1807 43.4011 47.1631 43.9443 45.4352C44.5172 43.6178 42.3239 43.0479 40.7512 43.0479Z" fill="#282828"/>
<path d="M29.827 36.7141C29.7822 36.7141 29.7345 36.7111 29.6867 36.7021L24.5151 35.8934C24.0256 35.8158 23.6914 35.3592 23.769 34.8698C23.8466 34.3804 24.3032 34.0492 24.7926 34.1238L29.9643 34.9325C30.4537 35.0101 30.7879 35.4667 30.7103 35.9561C30.6417 36.3978 30.2597 36.7141 29.827 36.7141Z" fill="#282828"/>
<path d="M31.8791 42.4653C31.8791 44.6676 30.0915 46.485 27.9489 46.485C25.8062 46.485 24.0156 44.6676 24.0156 42.4653C24.0156 42.2952 24.0276 42.1281 24.0484 41.9609C24.126 41.3253 24.3558 40.7344 24.696 40.2241L31.0017 40.8478C31.333 40.8807 31.6045 41.0925 31.7298 41.379C31.7597 41.4835 31.7836 41.5909 31.8074 41.7013C31.8552 41.949 31.8791 42.2057 31.8791 42.4653Z" fill="#282828"/>
<path d="M31.8113 41.7008C31.8143 41.7425 31.8113 41.7843 31.8083 41.8261C31.7605 42.2887 31.3726 42.6348 30.916 42.6348C30.8862 42.6348 30.8563 42.6318 30.8265 42.6289L24.0523 41.9604L23.6703 41.9216C23.1779 41.8709 22.8198 41.4352 22.8676 40.9428C22.9183 40.4504 23.36 40.0923 23.8464 40.14L24.6999 40.2236L31.0055 40.8473C31.3368 40.8801 31.6083 41.092 31.7337 41.3785C31.7635 41.4829 31.7874 41.5904 31.8113 41.7008Z" fill="#282828"/>
<path d="M49.6172 42.4653C49.6172 44.6676 51.4048 46.485 53.5474 46.485C55.6901 46.485 57.4806 44.6676 57.4806 42.4653C57.4806 42.2952 57.4687 42.1281 57.4478 41.9609C57.3702 41.3253 57.1404 40.7344 56.8002 40.2241L50.4945 40.8478C50.1633 40.8807 49.8917 41.0925 49.7664 41.379C49.7366 41.4835 49.7127 41.5909 49.6888 41.7013C49.6411 41.949 49.6172 42.2057 49.6172 42.4653Z" fill="#282828"/>
<path d="M49.6887 41.7008C49.6858 41.7425 49.6887 41.7843 49.6917 41.8261C49.7395 42.2887 50.1274 42.6348 50.584 42.6348C50.6138 42.6348 50.6437 42.6318 50.6735 42.6289L57.4477 41.9604L57.8297 41.9216C58.3221 41.8709 58.6802 41.4352 58.6325 40.9428C58.5817 40.4504 58.1401 40.0923 57.6537 40.14L56.8001 40.2236L50.4945 40.8473C50.1632 40.8801 49.8917 41.092 49.7663 41.3785C49.7365 41.4829 49.7126 41.5904 49.6887 41.7008Z" fill="#282828"/>
<path d="M46.7802 57.8253C45.5955 59.1712 43.8527 60.1589 41.3728 60.2962C39.4688 60.4007 38.0245 60.0067 36.9293 59.3681C34.8373 58.1416 34.0226 56.0288 33.7182 54.8291C33.6108 54.4054 33.9749 54.0174 34.4046 54.092C37.6246 54.662 39.7195 54.477 41.5041 54.0622C43.9064 53.5041 46.6519 51.4092 47.9619 50.3199C48.329 50.0156 48.89 50.2424 48.9378 50.7198C49.1377 52.6894 48.6513 55.7035 46.7802 57.8253Z" fill="#974137"/>
<path d="M46.7806 57.825C45.5959 59.1709 43.8531 60.1586 41.3732 60.2959C39.4693 60.4004 38.0249 60.0064 36.9297 59.3678C38.1174 58.6755 40.2332 58.0876 42.6773 57.8429C44.1933 57.6907 45.6108 57.6937 46.7806 57.825Z" fill="#E5705E"/>
</svg>
