<svg width="82" height="116" viewBox="0 0 82 116" fill="none" xmlns="http://www.w3.org/2000/svg">
<path d="M61.6474 65.7241H19.7803C14.2447 69.8064 8.54772 80.5879 9.02844 89.4954C9.26432 93.8492 10.0824 97.9106 14.5462 98.7551C18.0605 99.4176 19.9774 97.8479 20.6641 96.5021C20.7358 96.3619 20.9418 96.4096 20.9567 96.5648C21.3927 101.68 22.5362 105.908 24.268 110.041C26.7611 115.991 28.8482 115.988 32.1923 115.991C35.3483 115.991 39.2 115.991 39.1045 103.962C39.7106 104.067 40.1376 104.121 40.7139 104.121C41.2901 104.121 41.7171 104.067 42.3232 103.962C42.2277 115.991 46.0793 115.994 49.2353 115.991C52.5765 115.991 54.6635 115.991 57.1597 110.041C58.8915 105.908 60.035 101.68 60.4709 96.5648C60.4829 96.4096 60.6919 96.3619 60.7636 96.5021C61.4503 97.8479 63.3672 99.4206 66.8815 98.7551C71.3453 97.9136 72.1634 93.8492 72.3993 89.4954C72.88 80.5879 67.1831 69.8064 61.6474 65.7241Z" fill="#FF9F69"/>
<path d="M40.7127 99.1726C46.2732 99.1726 50.7808 94.4217 50.7808 88.5612C50.7808 82.7006 46.2732 77.9497 40.7127 77.9497C35.1522 77.9497 30.6445 82.7006 30.6445 88.5612C30.6445 94.4217 35.1522 99.1726 40.7127 99.1726Z" fill="#FFE8CC"/>
<path d="M20.7538 96.4304C20.5239 96.4304 20.3268 96.2513 20.3089 96.0186C19.6162 87.3199 21.6973 81.3637 21.7869 81.116C21.8705 80.8832 22.1273 80.7639 22.3602 80.8444C22.5931 80.928 22.7155 81.1846 22.6319 81.4174C22.611 81.4771 20.5269 87.4542 21.2047 95.95C21.2256 96.1976 21.0404 96.4125 20.7926 96.4304C20.7807 96.4304 20.7687 96.4304 20.7568 96.4304H20.7538Z" fill="#E37D44"/>
<path d="M60.6592 96.4306C60.6592 96.4306 60.6353 96.4306 60.6234 96.4306C60.3756 96.4097 60.1934 96.1949 60.2113 95.9502C60.8891 87.4544 58.805 81.4773 58.7841 81.4176C58.7005 81.1848 58.8229 80.9282 59.0558 80.8446C59.2887 80.7611 59.5455 80.8834 59.6291 81.1162C59.7187 81.3639 61.7998 87.3201 61.1071 96.0188C61.0892 96.2545 60.8921 96.4306 60.6622 96.4306H60.6592Z" fill="#E37D44"/>
<path d="M68.5891 0.0710142C60.6749 -1.32859 45.6911 18.424 45.6911 18.424C45.6911 18.424 44.6795 18.1346 40.7522 18.1346C36.825 18.1346 35.8133 18.424 35.8133 18.424C35.8133 18.424 20.8295 -1.32859 12.9154 0.0710142C7.51688 1.02597 -2.35793 17.0901 0.512898 38.3288C1.74837 44.154 3.70302 49.1765 6.14711 53.4708C12.7243 65.0377 22.82 69.8632 31.8264 72.3729C34.9181 73.2324 38.1082 73.6502 40.7552 73.68C43.4052 73.6502 46.5924 73.2353 49.684 72.3729C58.6904 69.8662 68.7831 65.0407 75.3633 53.4708C77.8044 49.1765 79.7621 44.154 80.9975 38.3288C83.8684 17.0901 73.9965 1.02597 68.5951 0.0710142H68.5891Z" fill="#FF9F69"/>
<path d="M40.7546 66.1752C48.6121 66.1752 53.8793 62.1376 54.9775 56.381C56.0787 50.6244 51.7545 45.7661 40.7546 45.7661C29.7548 45.7661 25.4306 50.6244 26.5288 56.381C27.63 62.1376 32.8942 66.1752 40.7546 66.1752Z" fill="#FFE8CC"/>
<path d="M27.9576 46.1346C30.1032 46.1346 31.8878 44.3948 31.8878 42.2909C31.8878 40.1871 30.1002 38.4473 27.9576 38.4473C25.8149 38.4473 24.0273 40.1871 24.0273 42.2909C24.0273 44.3948 25.8149 46.1346 27.9576 46.1346Z" fill="#282828"/>
<path d="M53.5513 46.1346C51.4057 46.1346 49.6211 44.3948 49.6211 42.2909C49.6211 40.1871 51.4086 38.4473 53.5513 38.4473C55.694 38.4473 57.4815 40.1871 57.4815 42.2909C57.4815 44.3948 55.694 46.1346 53.5513 46.1346Z" fill="#282828"/>
<path d="M40.7512 43.0479C39.1785 43.0479 36.9851 43.6178 37.558 45.4352C38.1041 47.1661 39.8141 48.1807 40.7512 48.1807C41.6882 48.1807 43.4011 47.1631 43.9443 45.4352C44.5173 43.6178 42.3238 43.0479 40.7512 43.0479Z" fill="#282828"/>
<path d="M31.4267 36.0306C31.355 36.0306 31.2804 36.0216 31.2058 36.0037L26.1326 34.7146C25.6522 34.5922 25.3627 34.1058 25.4851 33.6253C25.6074 33.1449 26.0938 32.8584 26.5743 32.9777L31.6475 34.2669C32.1279 34.3893 32.4174 34.8757 32.2951 35.3562C32.1906 35.762 31.8265 36.0306 31.4267 36.0306Z" fill="#282828"/>
<path d="M45.9235 55.2554C45.7504 55.2554 45.5743 55.2047 45.4191 55.1002C44.6283 54.5601 43.1899 53.9185 40.8234 53.9185C38.4569 53.9185 37.0185 54.5601 36.2277 55.1002C35.8189 55.3778 35.2608 55.2733 34.9833 54.8645C34.7058 54.4556 34.8102 53.8976 35.2191 53.62C36.6515 52.6442 38.5882 52.1279 40.8234 52.1279C43.0586 52.1279 44.9954 52.6442 46.4278 53.62C46.8367 53.8976 46.9411 54.4556 46.6636 54.8645C46.4905 55.1181 46.21 55.2554 45.9235 55.2554Z" fill="#282828"/>
</svg>
