<svg width="82" height="117" viewBox="0 0 82 117" fill="none" xmlns="http://www.w3.org/2000/svg">
<path d="M20.7538 97.4392C20.5239 97.4392 20.3268 97.2601 20.3089 97.0274C19.6162 88.3287 21.6973 82.3725 21.7869 82.1248C21.8705 81.892 22.1273 81.7727 22.3602 81.8532C22.5931 81.9368 22.7155 82.1934 22.6319 82.4262C22.611 82.4859 20.5269 88.463 21.2047 96.9587C21.2256 97.2064 21.0404 97.4213 20.7926 97.4392C20.7807 97.4392 20.7687 97.4392 20.7568 97.4392H20.7538Z" fill="#E37D44"/>
<path d="M61.6474 66.7329H19.7803C14.2447 70.8152 8.54772 81.5967 9.02844 90.5042C9.26432 94.858 10.0824 98.9194 14.5462 99.7639C18.0605 100.426 19.9774 98.8567 20.6641 97.5109C20.7358 97.3706 20.9418 97.4184 20.9567 97.5736C21.3927 102.688 22.5362 106.917 24.268 111.05C26.7611 117 28.8482 116.997 32.1923 117C35.3483 117 39.2 117 39.1045 104.971C39.7106 105.076 40.1376 105.129 40.7139 105.129C41.2901 105.129 41.7171 105.076 42.3232 104.971C42.2277 117 46.0793 117.003 49.2353 117C52.5765 117 54.6635 117 57.1597 111.05C58.8915 106.917 60.035 102.688 60.4709 97.5736C60.4829 97.4184 60.6919 97.3706 60.7636 97.5109C61.4503 98.8567 63.3672 100.429 66.8815 99.7639C71.3453 98.9224 72.1634 94.858 72.3993 90.5042C72.88 81.5967 67.1831 70.8152 61.6474 66.7329Z" fill="#FF9F69"/>
<path d="M40.7127 100.181C46.2732 100.181 50.7808 95.4305 50.7808 89.5699C50.7808 83.7094 46.2732 78.9585 40.7127 78.9585C35.1522 78.9585 30.6445 83.7094 30.6445 89.5699C30.6445 95.4305 35.1522 100.181 40.7127 100.181Z" fill="#FFE8CC"/>
<path d="M60.6592 97.4391C60.6592 97.4391 60.6353 97.4391 60.6234 97.4391C60.3756 97.4183 60.1934 97.2034 60.2113 96.9587C60.8891 88.463 58.805 82.4858 58.7841 82.4261C58.7005 82.1934 58.8229 81.9367 59.0558 81.8532C59.2887 81.7696 59.5455 81.892 59.6291 82.1247C59.7187 82.3724 61.7998 88.3287 61.1071 97.0273C61.0892 97.2631 60.8921 97.4391 60.6622 97.4391H60.6592Z" fill="#E37D44"/>
<path d="M68.5892 0.0710142C60.675 -1.32859 45.6912 18.424 45.6912 18.424C45.6912 18.424 44.6795 18.1346 40.7523 18.1346C36.825 18.1346 35.8134 18.424 35.8134 18.424C35.8134 18.424 20.8295 -1.32859 12.9154 0.0710142C7.5169 1.02597 -2.35793 17.0901 0.512897 38.3288C1.74837 44.154 3.70308 49.1765 6.14716 53.4708C12.7244 65.0377 22.82 69.8632 31.8264 72.3729C34.9181 73.2324 38.1082 73.6502 40.7553 73.68C43.4052 73.6502 46.5924 73.2353 49.684 72.3729C58.6904 69.8662 68.7831 65.0407 75.3633 53.4708C77.8044 49.1765 79.7621 44.154 80.9975 38.3288C83.8684 17.0901 73.9966 1.02597 68.5951 0.0710142H68.5892Z" fill="#FF9F69"/>
<path d="M40.7468 66.1714C48.6043 66.1714 53.8714 62.1337 54.9696 56.3771C56.0708 50.6205 51.7467 45.7622 40.7468 45.7622C29.7469 45.7622 25.4228 50.6205 26.521 56.3771C27.6222 62.1337 32.8863 66.1714 40.7468 66.1714Z" fill="#FFE8CC"/>
<path d="M40.7511 43.0479C39.1784 43.0479 36.9851 43.6178 37.558 45.4352C38.1041 47.1661 39.8141 48.1807 40.7511 48.1807C41.6882 48.1807 43.4011 47.1631 43.9442 45.4352C44.5172 43.6178 42.3238 43.0479 40.7511 43.0479Z" fill="#282828"/>
<path d="M27.385 45.8373C25.2662 45.8373 23.7114 44.6436 22.6311 42.1846C22.4312 41.731 22.6371 41.2028 23.0907 41.0058C23.5443 40.8089 24.0725 41.0118 24.2695 41.4654C25.2692 43.7394 26.4032 44.0467 27.385 44.0467C30.2349 44.0467 30.8108 41.8802 30.8675 41.6355C30.978 41.155 31.4555 40.8506 31.9329 40.9551C32.4134 41.0595 32.7208 41.5281 32.6193 42.0115C32.3418 43.3365 30.8885 45.8403 27.388 45.8403L27.385 45.8373Z" fill="#282828"/>
<path d="M53.7014 45.8378C51.5826 45.8378 50.0278 44.6441 48.9475 42.1851C48.7476 41.7315 48.9535 41.2033 49.4071 41.0063C49.8607 40.8093 50.3889 41.0123 50.5859 41.4659C51.5856 43.7399 52.7196 44.0472 53.7014 44.0472C56.5513 44.0472 57.1273 41.8807 57.184 41.636C57.2944 41.1555 57.7689 40.8511 58.2493 40.9556C58.7298 41.06 59.0372 41.5285 58.9357 42.012C58.6582 43.337 57.2049 45.8408 53.7044 45.8408L53.7014 45.8378Z" fill="#282828"/>
<path d="M48.5102 53.4979C48.5102 56.9596 44.759 59.7648 40.7512 59.7648C36.7434 59.7648 32.9922 56.9596 32.9922 53.4979C32.9922 52.9697 33.0728 52.4564 33.225 51.97C33.3324 51.6268 33.7024 51.4478 34.0337 51.588C35.8123 52.343 38.1668 52.8026 40.7512 52.8026C43.3355 52.8026 45.6931 52.343 47.4687 51.588C47.7999 51.4478 48.17 51.6268 48.2774 51.97C48.4296 52.4594 48.5102 52.9697 48.5102 53.4979Z" fill="#974137"/>
<path d="M63.6882 55.6848C66.6894 55.6848 69.1224 53.6246 69.1224 51.0831C69.1224 48.5417 66.6894 46.4814 63.6882 46.4814C60.6869 46.4814 58.2539 48.5417 58.2539 51.0831C58.2539 53.6246 60.6869 55.6848 63.6882 55.6848Z" fill="#F96A3E"/>
<path d="M17.8054 55.6848C20.8066 55.6848 23.2397 53.6246 23.2397 51.0831C23.2397 48.5417 20.8066 46.4814 17.8054 46.4814C14.8041 46.4814 12.3711 48.5417 12.3711 51.0831C12.3711 53.6246 14.8041 55.6848 17.8054 55.6848Z" fill="#F96A3E"/>
</svg>
