<svg width="82" height="116" viewBox="0 0 82 116" fill="none" xmlns="http://www.w3.org/2000/svg">
<path d="M61.6474 65.7241H19.7803C14.2447 69.8064 8.54772 80.5879 9.02844 89.4954C9.26432 93.8492 10.0824 97.9106 14.5462 98.7551C18.0605 99.4176 19.9774 97.8479 20.6641 96.5021C20.7358 96.3619 20.9418 96.4096 20.9567 96.5648C21.3927 101.68 22.5362 105.908 24.268 110.041C26.7611 115.991 28.8482 115.988 32.1923 115.991C35.3483 115.991 39.2 115.991 39.1045 103.962C39.7106 104.067 40.1376 104.121 40.7139 104.121C41.2901 104.121 41.7171 104.067 42.3232 103.962C42.2277 115.991 46.0793 115.994 49.2353 115.991C52.5765 115.991 54.6635 115.991 57.1597 110.041C58.8915 105.908 60.035 101.68 60.4709 96.5648C60.4829 96.4096 60.6919 96.3619 60.7636 96.5021C61.4503 97.8479 63.3672 99.4206 66.8815 98.7551C71.3453 97.9136 72.1634 93.8492 72.3993 89.4954C72.88 80.5879 67.1831 69.8064 61.6474 65.7241Z" fill="#FF9F69"/>
<path d="M40.7127 99.1726C46.2732 99.1726 50.7808 94.4217 50.7808 88.5612C50.7808 82.7006 46.2732 77.9497 40.7127 77.9497C35.1522 77.9497 30.6445 82.7006 30.6445 88.5612C30.6445 94.4217 35.1522 99.1726 40.7127 99.1726Z" fill="#FFE8CC"/>
<path d="M20.7538 96.4304C20.5239 96.4304 20.3268 96.2513 20.3089 96.0186C19.6162 87.3199 21.6973 81.3637 21.7869 81.116C21.8705 80.8832 22.1273 80.7639 22.3602 80.8444C22.5931 80.928 22.7155 81.1846 22.6319 81.4174C22.611 81.4771 20.5269 87.4542 21.2047 95.95C21.2256 96.1976 21.0404 96.4125 20.7926 96.4304C20.7807 96.4304 20.7687 96.4304 20.7568 96.4304H20.7538Z" fill="#E37D44"/>
<path d="M60.6592 96.4306C60.6592 96.4306 60.6353 96.4306 60.6234 96.4306C60.3756 96.4097 60.1934 96.1949 60.2113 95.9502C60.8891 87.4544 58.805 81.4773 58.7841 81.4176C58.7005 81.1848 58.8229 80.9282 59.0558 80.8446C59.2887 80.7611 59.5455 80.8834 59.6291 81.1162C59.7187 81.3639 61.7998 87.3201 61.1071 96.0188C61.0892 96.2545 60.8921 96.4306 60.6622 96.4306H60.6592Z" fill="#E37D44"/>
<path d="M68.5891 0.0710142C60.6749 -1.32859 45.6911 18.424 45.6911 18.424C45.6911 18.424 44.6795 18.1346 40.7523 18.1346C36.825 18.1346 35.8133 18.424 35.8133 18.424C35.8133 18.424 20.8295 -1.32859 12.9154 0.0710142C7.5169 1.02597 -2.35793 17.0901 0.512897 38.3288C1.74837 44.154 3.70304 49.1765 6.14712 53.4708C12.7244 65.0377 22.82 69.8632 31.8264 72.3729C34.9181 73.2324 38.1082 73.6502 40.7552 73.68C43.4052 73.6502 46.5924 73.2353 49.684 72.3729C58.6904 69.8662 68.7831 65.0407 75.3633 53.4708C77.8044 49.1765 79.7621 44.154 80.9976 38.3288C83.8684 17.0901 73.9965 1.02597 68.5951 0.0710142H68.5891Z" fill="#FF9F69"/>
<path d="M40.7468 66.1748C48.6043 66.1748 53.8714 62.1371 54.9696 56.3805C56.0708 50.6239 51.7467 45.7656 40.7468 45.7656C29.747 45.7656 25.4228 50.6239 26.521 56.3805C27.6222 62.1371 32.8864 66.1748 40.7468 66.1748Z" fill="#FFE8CC"/>
<path d="M27.9576 46.1346C30.1032 46.1346 31.8878 44.3948 31.8878 42.2909C31.8878 40.1871 30.1003 38.4473 27.9576 38.4473C25.8149 38.4473 24.0273 40.1871 24.0273 42.2909C24.0273 44.3948 25.8149 46.1346 27.9576 46.1346Z" fill="#282828"/>
<path d="M53.5513 46.1346C51.4057 46.1346 49.6211 44.3948 49.6211 42.2909C49.6211 40.1871 51.4087 38.4473 53.5513 38.4473C55.694 38.4473 57.4815 40.1871 57.4815 42.2909C57.4815 44.3948 55.694 46.1346 53.5513 46.1346Z" fill="#282828"/>
<path d="M40.7512 43.0479C39.1785 43.0479 36.985 43.6178 37.558 45.4352C38.1041 47.1661 39.8141 48.1807 40.7512 48.1807C41.6882 48.1807 43.4011 47.1631 43.9443 45.4352C44.5172 43.6178 42.3239 43.0479 40.7512 43.0479Z" fill="#282828"/>
<path d="M47.525 56.9655C47.525 57.1237 47.516 57.2818 47.5011 57.44C47.4086 58.3621 46.5491 58.9679 45.7106 58.7113C44.311 58.2815 42.601 58.0279 40.7508 58.0279C38.9006 58.0279 37.1906 58.2815 35.791 58.7113C34.9524 58.9709 34.09 58.3621 34.0005 57.437C33.9855 57.2818 33.9766 57.1237 33.9766 56.9655C33.9766 53.847 37.0086 51.3193 40.7508 51.3193C44.493 51.3193 47.525 53.847 47.525 56.9655Z" fill="#974137"/>
<path d="M25.207 35.3869C24.7743 35.3869 24.3923 35.0706 24.3237 34.6289C24.2461 34.1395 24.5803 33.6829 25.0697 33.6053L30.2414 32.7966C30.7308 32.722 31.1874 33.0533 31.265 33.5427C31.3426 34.0321 31.0084 34.4887 30.5189 34.5663L25.3473 35.375C25.2995 35.381 25.2548 35.3869 25.207 35.3869Z" fill="#282828"/>
<path d="M56.2801 35.3869C56.2354 35.3869 56.1876 35.3839 56.1399 35.375L50.9682 34.5663C50.4788 34.4887 50.1445 34.0321 50.2221 33.5427C50.2997 33.0533 50.7593 32.722 51.2457 32.7966L56.4174 33.6053C56.9068 33.6829 57.241 34.1395 57.1634 34.6289C57.0948 35.0706 56.7128 35.3869 56.2801 35.3869Z" fill="#282828"/>
</svg>
