<svg width="74" height="118" viewBox="0 0 74 118" fill="none" xmlns="http://www.w3.org/2000/svg">
<path d="M37.2766 104.742C37.8631 104.742 38.3007 104.684 38.92 104.576C38.8247 117.186 42.7517 117.189 45.9701 117.186C49.379 117.183 51.1981 117.186 53.7407 110.949C55.5062 106.617 56.6733 102.183 57.1199 96.8214C57.1347 96.6589 57.3461 96.6107 57.4176 96.7552C58.1202 98.167 59.847 99.8348 62.6277 99.1183C66.1587 98.2092 67.6027 93.9767 67.8409 89.413C68.3321 80.0749 63.1875 68.7741 57.7689 64.4934H16.7843C11.3657 68.7741 6.22102 80.0779 6.71226 89.413C6.95044 93.9767 8.39738 98.2092 11.9254 99.1183C14.7061 99.8348 16.4329 98.167 17.1356 96.7552C17.207 96.6107 17.4184 96.6589 17.4333 96.8214C17.8799 102.183 19.044 106.614 20.8125 110.949C23.355 117.186 25.1741 117.183 28.583 117.186C31.8014 117.186 35.7314 117.186 35.6331 104.576C36.2524 104.684 36.6871 104.742 37.2766 104.742Z" fill="#FAB8FF"/>
<path d="M37.281 99.5549C43.013 99.5549 47.6596 93.9778 47.6596 87.0981C47.6596 80.2184 43.013 74.6414 37.281 74.6414C31.549 74.6414 26.9023 80.2184 26.9023 87.0981C26.9023 93.9778 31.549 99.5549 37.281 99.5549Z" fill="#F9E0FF"/>
<path d="M17.0833 96.6654C16.851 96.6654 16.6575 96.4848 16.6397 96.25C15.9341 87.1377 18.0539 80.8973 18.1461 80.6384C18.2265 80.4036 18.4826 80.2801 18.7148 80.3614C18.947 80.4427 19.0691 80.7016 18.9887 80.9364C18.9679 80.9996 16.8391 87.2701 17.5299 96.1807C17.5477 96.4306 17.3661 96.6473 17.119 96.6654C17.1071 96.6654 17.0952 96.6654 17.0833 96.6654Z" fill="#E59AE6"/>
<path d="M57.4731 96.6654C57.4731 96.6654 57.4493 96.6654 57.4374 96.6654C57.1903 96.6473 57.0087 96.4276 57.0265 96.1807C57.7202 87.2551 55.5915 80.9996 55.5677 80.9364C55.4873 80.7016 55.6094 80.4427 55.8416 80.3614C56.0738 80.2801 56.3299 80.4036 56.4102 80.6384C56.4996 80.9003 58.6223 87.1377 57.9167 96.25C57.8989 96.4878 57.7024 96.6654 57.4731 96.6654Z" fill="#E59AE6"/>
<path d="M37.2783 13.2395C37.7934 13.2395 38.2608 13.2425 38.6925 13.2515C40.3955 13.2786 41.5 13.3599 42.3575 13.4381C43.1226 13.5074 43.6942 13.5766 44.3254 13.6097C50.2978 7.48972 54.9839 0 61.4743 0C68.5304 0 70.1262 15.4792 71.0342 24.3597C82.3447 60.3242 57.455 71.3902 37.2753 71.3902C17.0956 71.3902 -7.79111 60.3212 3.51941 24.3566C4.43045 15.4761 6.02327 0 13.0793 0C19.5697 0 24.2559 7.48972 30.2282 13.6127C30.8594 13.5796 31.431 13.5104 32.1962 13.4412C33.0566 13.3629 34.1611 13.2816 35.8611 13.2545C36.2899 13.2455 36.7603 13.2425 37.2753 13.2425L37.2783 13.2395Z" fill="#FAB8FF"/>
<path d="M13.3915 6.84897C11.0514 7.27042 9.47939 16.5031 9.48832 20.3955C9.48832 20.7327 9.85154 20.9313 10.1254 20.7477C14.6806 17.7073 17.5447 16.7409 22.3857 15.5157C22.6239 15.4555 22.746 15.1786 22.6269 14.9558C20.8673 11.7257 16.0382 6.37334 13.3915 6.84596V6.84897Z" fill="#E59AE6"/>
<path d="M61.1605 6.84897C63.5006 7.27042 65.0726 16.5031 65.0636 20.3955C65.0636 20.7327 64.7004 20.9313 64.4265 20.7477C59.8713 17.7073 57.0072 16.7409 52.1663 15.5157C51.9281 15.4555 51.806 15.1786 51.9251 14.9558C53.6847 11.7257 58.5137 6.37334 61.1605 6.84596V6.84897Z" fill="#E59AE6"/>
<path d="M24.9743 46.5999C27.1983 46.5999 29.0501 44.7244 29.0501 42.4577C29.0501 40.1909 27.1983 38.3154 24.9743 38.3154C22.7503 38.3154 20.8984 40.1909 20.8984 42.4577C20.8984 44.7244 22.7503 46.5999 24.9743 46.5999Z" fill="#282828"/>
<path d="M49.5485 46.5999C47.3245 46.5999 45.4727 44.7244 45.4727 42.4577C45.4727 40.1909 47.3245 38.3154 49.5485 38.3154C51.7725 38.3154 53.6243 40.1909 53.6243 42.4577C53.6243 44.7244 51.7725 46.5999 49.5485 46.5999Z" fill="#282828"/>
<path d="M37.2851 43.9116C36.0197 43.9116 34.2542 44.3903 34.7157 45.9075C35.1534 47.3554 36.7849 47.9906 37.2851 47.9906C37.7852 47.9906 39.4168 47.3554 39.8544 45.9075C40.3159 44.3873 38.5504 43.9116 37.2851 43.9116Z" fill="#282828"/>
<path d="M34.2431 52.8494C32.8587 52.8494 31.6767 52.1149 31.1021 50.8355C30.9324 50.4562 31.0961 50.0107 31.4713 49.8391C31.8464 49.6675 32.287 49.8331 32.4567 50.2124C33.0611 51.552 34.4217 51.3683 34.8266 51.278C35.8002 51.0643 36.5356 50.387 36.5356 49.7036V46.7926C36.5356 46.3772 36.869 46.04 37.2799 46.04C37.6907 46.04 38.0242 46.3772 38.0242 46.7926V49.7036C38.0242 51.1245 36.8392 52.3768 35.1422 52.7501C34.8356 52.8163 34.5349 52.8494 34.2431 52.8494Z" fill="#282828"/>
<path d="M40.3123 52.8494C40.0206 52.8494 39.7199 52.8163 39.4132 52.7501C37.7162 52.3768 36.5312 51.1245 36.5312 49.7036V46.7926C36.5312 46.3772 36.8647 46.04 37.2756 46.04C37.6864 46.04 38.0199 46.3772 38.0199 46.7926V49.7036C38.0199 50.387 38.7552 51.0643 39.7288 51.278C40.1307 51.3653 41.4943 51.552 42.0987 50.2124C42.2684 49.8331 42.712 49.6675 43.0841 49.8391C43.4593 50.0107 43.623 50.4592 43.4533 50.8355C42.8787 52.1149 41.6968 52.8494 40.3123 52.8494Z" fill="#282828"/>
<path d="M10.2273 50.4777C9.86705 50.4777 9.52764 50.2549 9.39069 49.8937C9.21503 49.4271 9.44726 48.9063 9.90873 48.7287C11.8678 47.9761 14.2614 47.4463 16.6492 47.2326C17.1404 47.1904 17.5751 47.5547 17.6168 48.0514C17.6615 48.5481 17.2982 48.9876 16.807 49.0297C14.577 49.2284 12.353 49.7221 10.5429 50.4175C10.4387 50.4566 10.3315 50.4777 10.2273 50.4777Z" fill="#D08CD1"/>
<path d="M16.7225 45.0351C16.6391 45.0351 16.5528 45.023 16.4694 44.9989C14.5223 44.4149 12.5365 44.1169 10.8752 44.156C10.378 44.1771 9.97311 43.7737 9.9612 43.274C9.94929 42.7743 10.3393 42.3619 10.8335 42.3498C12.6764 42.3047 14.8558 42.6298 16.9756 43.265C17.449 43.4065 17.7199 43.9092 17.58 44.3878C17.4638 44.7792 17.1095 45.0351 16.7225 45.0351Z" fill="#D08CD1"/>
<path d="M64.319 50.4777C64.2148 50.4777 64.1076 50.4596 64.0034 50.4175C62.1932 49.7221 59.9693 49.2314 57.7393 49.0297C57.2481 48.9846 56.8848 48.5481 56.9295 48.0514C56.9742 47.5547 57.4059 47.1904 57.8971 47.2326C60.2848 47.4463 62.6785 47.9791 64.6376 48.7287C65.099 48.9063 65.3313 49.4271 65.1556 49.8937C65.0216 50.2549 64.6792 50.4777 64.319 50.4777Z" fill="#D08CD1"/>
<path d="M57.8201 45.0351C57.436 45.0351 57.0787 44.7822 56.9626 44.3878C56.8227 43.9092 57.0936 43.4065 57.567 43.265C59.6868 42.6298 61.8691 42.3047 63.709 42.3498C64.2033 42.3619 64.5933 42.7743 64.5814 43.274C64.5695 43.7737 64.1616 44.1711 63.6674 44.156C62.0061 44.1139 60.0202 44.4149 58.0731 44.9989C57.9898 45.023 57.9034 45.0351 57.8201 45.0351Z" fill="#D08CD1"/>
</svg>
