<svg width="76" height="117" viewBox="0 0 76 117" fill="none" xmlns="http://www.w3.org/2000/svg">
<path d="M59.2933 66.6887H16.1793C10.4774 70.7745 4.61412 81.5655 5.10721 90.4808C5.34927 94.8385 6.19201 98.9034 10.7882 99.7486C14.4072 100.412 16.3795 98.8406 17.0878 97.4936C17.1595 97.3533 17.3747 97.401 17.3896 97.5564C17.8379 102.676 19.0183 106.908 20.7994 111.044C23.3665 117 25.5151 116.997 28.9578 117C32.2062 117 36.1749 117 36.0762 104.96C36.7008 105.065 37.1401 105.119 37.7348 105.119C38.3295 105.119 38.7688 105.065 39.3934 104.96C39.2948 117 43.2634 117.003 46.5118 117C49.9545 117 52.1031 117 54.6702 111.044C56.4543 106.908 57.6317 102.676 58.08 97.5564C58.0949 97.401 58.3071 97.3533 58.3818 97.4936C59.0901 98.8406 61.0624 100.415 64.6814 99.7486C69.2776 98.9064 70.1203 94.8385 70.3624 90.4808C70.8585 81.5655 64.9922 70.7745 59.2903 66.6887H59.2933Z" fill="#8FD6FF"/>
<path d="M37.7409 100.167C43.468 100.167 48.1108 95.4119 48.1108 89.5463C48.1108 83.6806 43.468 78.9255 37.7409 78.9255C32.0138 78.9255 27.3711 83.6806 27.3711 89.5463C27.3711 95.4119 32.0138 100.167 37.7409 100.167Z" fill="#D9F1FF"/>
<path d="M17.1883 97.422C16.9582 97.422 16.7609 97.2458 16.743 97.0098C16.0288 88.3006 18.1744 82.3391 18.2641 82.0882C18.3508 81.8553 18.6078 81.7358 18.8379 81.8224C19.071 81.909 19.1905 82.1659 19.1038 82.3959C19.0829 82.4556 16.9372 88.435 17.6335 96.9352C17.6545 97.1831 17.4692 97.3981 17.2241 97.419C17.2122 97.419 17.2002 97.419 17.1883 97.419V97.422Z" fill="#72BAE3"/>
<path d="M58.2798 97.422C58.2798 97.422 58.2559 97.422 58.2439 97.422C57.9959 97.4011 57.8136 97.186 57.8345 96.9381C58.5338 88.426 56.3851 82.4586 56.3642 82.3988C56.2775 82.1659 56.3971 81.909 56.6302 81.8254C56.8633 81.7417 57.1203 81.8582 57.2039 82.0912C57.2966 82.3391 59.4393 88.3035 58.725 97.0128C58.7071 97.2457 58.5099 97.425 58.2798 97.425V97.422Z" fill="#72BAE3"/>
<path d="M37.7391 4.00391C66.9091 4.00391 77.4044 25.8009 74.9838 44.5126C72.7634 61.6773 56.4615 71.5633 37.7391 71.5633C19.0166 71.5633 2.71476 61.6803 0.494363 44.5126C-1.92626 25.8009 10.5474 4.00391 37.7391 4.00391Z" fill="#8FD6FF"/>
<path d="M4.04818 23.507C-2.22153 17.9099 -0.739277 6.42303 5.27941 2.39396C11.3041 -1.6381 18.4075 -0.89441 22.6481 7.06816" fill="#8FD6FF"/>
<path d="M71.4164 23.507C77.6861 17.9099 76.2038 6.42303 70.1851 2.39396C64.1605 -1.6381 57.057 -0.89441 52.8164 7.06816" fill="#8FD6FF"/>
<path d="M37.7362 60.0791C44.5856 60.0791 49.1729 56.5697 50.1321 51.5699C51.0914 46.5672 47.323 42.344 37.7362 42.344C28.1493 42.344 24.3809 46.5672 25.3402 51.5699C26.2995 56.5727 30.8867 60.0791 37.7362 60.0791Z" fill="#E0F6FF"/>
<path d="M37.7269 40.7434C39.4363 40.7434 41.3877 41.29 40.8409 42.7445C40.291 44.199 38.5218 45.5311 37.7269 45.5311C36.932 45.5311 35.1031 44.1363 34.613 42.7445C34.1259 41.29 36.0175 40.7434 37.7269 40.7434Z" fill="#282828"/>
<path d="M24.2361 42.6548C26.4266 42.6548 28.2496 40.9345 28.2496 38.8497C28.2496 36.765 26.4266 35.0447 24.2361 35.0447C22.0456 35.0447 20.2227 36.765 20.2227 38.8497C20.2227 40.9345 22.0456 42.6548 24.2361 42.6548Z" fill="#282828"/>
<path d="M51.2088 42.6548C53.3993 42.6548 55.2222 40.9345 55.2222 38.8497C55.2222 36.765 53.3993 35.0447 51.2088 35.0447C49.0182 35.0447 47.1953 36.765 47.1953 38.8497C47.1953 40.9345 49.0182 42.6548 51.2088 42.6548Z" fill="#282828"/>
<path d="M37.7393 51.7224C37.3269 51.7224 36.9922 51.3879 36.9922 50.9757V45.2323C36.9922 44.8201 37.3269 44.4856 37.7393 44.4856C38.1517 44.4856 38.4864 44.8201 38.4864 45.2323V50.9757C38.4864 51.3879 38.1517 51.7224 37.7393 51.7224Z" fill="#282828"/>
<path d="M37.7355 51.7406C35.3567 51.7406 33.0287 51.0298 31.1789 49.7425C30.8412 49.5066 30.7575 49.0406 30.9936 48.7031C31.2297 48.3656 31.6959 48.282 32.0336 48.518C33.6324 49.632 35.6585 50.2473 37.7355 50.2473C39.8125 50.2473 41.8356 49.632 43.4374 48.518C43.7751 48.282 44.2413 48.3656 44.4774 48.7031C44.7135 49.0406 44.6298 49.5066 44.2921 49.7425C42.4423 51.0298 40.1143 51.7406 37.7355 51.7406Z" fill="#282828"/>
</svg>
