<svg width="90" height="117" viewBox="0 0 90 117" fill="none" xmlns="http://www.w3.org/2000/svg">
<path d="M44.9878 0C64.0488 0 76.4353 14.4545 77.7659 35.5456C79.0005 55.1275 67.2514 68.8584 44.9878 68.8584C22.7243 68.8584 10.9721 55.1275 12.2098 35.5456C13.5404 14.4545 25.93 0 44.9878 0Z" fill="#FFD859"/>
<path d="M26.6208 7.4624C5.95705 9.63027 -7.78169 36.7673 4.84619 49.0694C9.03589 53.1515 17.5947 57.5182 28.595 42.4637L26.6208 7.4624Z" fill="#FFD859"/>
<path d="M63.3843 7.4624C84.0481 9.63027 97.7869 36.7673 85.159 49.0694C80.9693 53.1515 72.4104 57.5182 61.4102 42.4637L63.3843 7.4624Z" fill="#FFD859"/>
<path d="M64.7994 47.2541C68.1403 47.2541 70.8487 44.9294 70.8487 42.0617C70.8487 39.1941 68.1403 36.8694 64.7994 36.8694C61.4584 36.8694 58.75 39.1941 58.75 42.0617C58.75 44.9294 61.4584 47.2541 64.7994 47.2541Z" fill="#F7C44A"/>
<path d="M25.1861 47.2541C28.5271 47.2541 31.2355 44.9294 31.2355 42.0617C31.2355 39.1941 28.5271 36.8694 25.1861 36.8694C21.8451 36.8694 19.1367 39.1941 19.1367 42.0617C19.1367 44.9294 21.8451 47.2541 25.1861 47.2541Z" fill="#F7C44A"/>
<path d="M49.6733 47.4147C49.6733 50.9896 48.024 52.7802 44.9792 52.7802C41.9344 52.7802 40.2852 50.9896 40.2852 47.4147C40.2852 46.9786 40.3161 46.5518 40.378 46.1405C42.1789 47.1642 44.9792 45.8931 44.9792 44.0469C44.9792 45.8931 47.7796 47.1642 49.5805 46.1405C49.6423 46.5518 49.6733 46.9786 49.6733 47.4147Z" fill="#B3663C"/>
<path d="M66.6738 62.6392H23.2854C17.5485 67.0553 11.6446 78.7142 12.1428 88.3474C12.3872 93.0573 13.2351 97.4487 17.8611 98.361C21.5031 99.0785 23.4896 97.3807 24.2013 95.9241C24.2756 95.7726 24.4891 95.8252 24.5045 95.9922C24.9563 101.522 26.1414 106.095 27.9361 110.564C30.5199 117 32.6828 116.997 36.1484 117C39.4191 117 43.4108 117 43.3117 103.993C43.9399 104.104 44.3824 104.163 44.9796 104.163C45.5768 104.163 46.0193 104.104 46.6474 103.993C46.5484 117 50.5401 117.003 53.8107 117C57.2733 116.997 59.4362 117 62.023 110.564C63.8177 106.095 65.0029 101.522 65.4546 95.9922C65.467 95.8252 65.6836 95.7726 65.7579 95.9241C66.4696 97.3807 68.4561 99.0785 72.0981 98.361C76.7241 97.4487 77.5719 93.0573 77.8164 88.3474C78.3146 78.7142 72.4106 67.0553 66.6738 62.6392Z" fill="#FFD859"/>
<path d="M44.9848 98.8127C50.7473 98.8127 55.4188 93.6745 55.4188 87.3363C55.4188 80.998 50.7473 75.8599 44.9848 75.8599C39.2222 75.8599 34.5508 80.998 34.5508 87.3363C34.5508 93.6745 39.2222 98.8127 44.9848 98.8127Z" fill="#FFF5E6"/>
<path d="M24.3065 95.8254C24.0651 95.8254 23.864 95.6399 23.8455 95.3956C23.1276 85.9974 25.2812 79.5649 25.374 79.2958C25.4576 79.0546 25.7206 78.9247 25.962 79.0082C26.2033 79.0917 26.3333 79.3546 26.2528 79.5958C26.2312 79.6608 24.0682 86.1303 24.7707 95.3275C24.7892 95.5842 24.5974 95.8069 24.3437 95.8254C24.3313 95.8254 24.3189 95.8254 24.3065 95.8254Z" fill="#E6B545"/>
<path d="M65.663 95.8254C65.663 95.8254 65.6383 95.8254 65.6259 95.8254C65.3691 95.8069 65.1803 95.5842 65.1989 95.3275C65.9013 86.1303 63.7384 79.6608 63.7167 79.5958C63.6332 79.3546 63.7631 79.0886 64.0076 79.0082C64.2489 78.9247 64.515 79.0546 64.5955 79.2958C64.6883 79.5649 66.842 85.9974 66.1241 95.3956C66.1055 95.6399 65.9013 95.8254 65.663 95.8254Z" fill="#E6B545"/>
<path d="M32.2087 41.1278C34.5202 41.1278 36.4449 39.2012 36.4449 36.8725C36.4449 34.5438 34.5202 32.6172 32.2087 32.6172C29.8973 32.6172 27.9727 34.5438 27.9727 36.8725C27.9727 39.2012 29.8973 41.1278 32.2087 41.1278Z" fill="#282828"/>
<path d="M57.7439 41.1278C55.4325 41.1278 53.5078 39.2012 53.5078 36.8725C53.5078 34.5438 55.4325 32.6172 57.7439 32.6172C60.0554 32.6172 61.98 34.5438 61.98 36.8725C61.98 39.2012 60.0554 41.1278 57.7439 41.1278Z" fill="#282828"/>
<path d="M47.6415 40.4165C47.4775 40.9515 47.1526 41.3813 46.7782 41.7092C46.116 42.2875 45.3022 42.5534 44.9711 42.5534C44.64 42.5534 43.8262 42.2875 43.164 41.7092C42.7896 41.3813 42.4647 40.9515 42.3007 40.4165C41.8211 38.8547 43.656 38.363 44.9711 38.363C46.2862 38.363 48.1211 38.8547 47.6415 40.4165Z" fill="#282828"/>
<path d="M41.8262 47.5446C41.1702 47.5446 40.5297 47.39 39.982 47.0777C39.36 46.722 38.8649 46.1685 38.5462 45.4788C38.3698 45.0892 38.54 44.6315 38.9268 44.4552C39.3136 44.2758 39.7746 44.449 39.951 44.8356C40.1336 45.2376 40.4028 45.5407 40.7462 45.7355C41.5477 46.1901 42.5905 45.9984 43.2681 45.6025C43.8437 45.2685 44.1902 44.7861 44.1902 44.3129V41.3225C44.1902 40.8957 44.5368 40.5493 44.9638 40.5493C45.3908 40.5493 45.7374 40.8957 45.7374 41.3225V44.3129C45.7374 45.3427 45.1061 46.3231 44.0479 46.9385C43.3579 47.3405 42.5781 47.5446 41.8262 47.5446Z" fill="#282828"/>
<path d="M48.1026 47.5446C47.3476 47.5446 46.5709 47.3405 45.8809 46.9385C44.8227 46.3231 44.1914 45.3397 44.1914 44.3129V41.3225C44.1914 40.8957 44.538 40.5493 44.965 40.5493C45.392 40.5493 45.7386 40.8957 45.7386 41.3225V44.3129C45.7386 44.7861 46.082 45.2685 46.6607 45.6025C47.3383 45.9984 48.3811 46.1901 49.1856 45.7355C49.5291 45.5407 49.7952 45.2376 49.9778 44.8356C50.1541 44.4459 50.6152 44.2758 51.002 44.4552C51.3919 44.6315 51.5621 45.0923 51.3826 45.4788C51.067 46.1715 50.5719 46.722 49.9499 47.0777C49.4022 47.39 48.7617 47.5446 48.1026 47.5446Z" fill="#282828"/>
<path d="M14.9512 52.9384C14.7748 52.9384 14.6046 52.8364 14.5273 52.6663C12.7264 48.6676 11.2288 43.9639 12.4355 36.6964C12.4789 36.4429 12.7171 36.2728 12.9709 36.3161C13.2246 36.3594 13.3948 36.5975 13.3515 36.8511C12.1849 43.8742 13.633 48.4233 15.372 52.289C15.4772 52.524 15.372 52.7962 15.14 52.9013C15.0781 52.9292 15.0131 52.9415 14.9512 52.9415V52.9384Z" fill="#E6B545"/>
<path d="M75.0129 52.9383C74.948 52.9383 74.8861 52.9259 74.8242 52.8981C74.589 52.7929 74.4869 52.5177 74.5921 52.2857C76.3311 48.4201 77.7824 43.8709 76.6127 36.8478C76.5694 36.5942 76.7427 36.3561 76.9933 36.3128C77.247 36.2695 77.4853 36.4427 77.5286 36.6932C78.7354 43.9606 77.2378 48.6644 75.4369 52.663C75.3595 52.8362 75.1893 52.9352 75.0129 52.9352V52.9383Z" fill="#E6B545"/>
</svg>
