<svg width="83" height="117" viewBox="0 0 83 117" fill="none" xmlns="http://www.w3.org/2000/svg">
<path d="M62.6317 66.7329H20.7647C15.229 70.8152 9.5321 81.5967 10.0128 90.5042C10.2487 94.858 11.0668 98.9194 15.5306 99.7639C19.0449 100.426 20.9618 98.8567 21.6485 97.5109C21.7202 97.3706 21.9262 97.4184 21.9411 97.5736C22.377 102.688 23.5206 106.917 25.2524 111.05C27.7455 117 29.8326 116.997 33.1767 117C36.3327 117 40.1844 117 40.0889 104.971C40.695 105.076 41.122 105.129 41.6982 105.129C42.2745 105.129 42.7015 105.076 43.3076 104.971C43.212 117 47.0637 117.003 50.2197 117C53.5608 117 55.6479 117 58.1441 111.05C59.8758 106.917 61.0194 102.688 61.4553 97.5736C61.4673 97.4184 61.6763 97.3706 61.748 97.5109C62.4347 98.8567 64.3516 100.429 67.8659 99.7639C72.3297 98.9224 73.1478 94.858 73.3836 90.5042C73.8644 81.5967 68.1674 70.8152 62.6317 66.7329Z" fill="#FF9F69"/>
<path d="M41.6971 100.181C47.2575 100.181 51.7652 95.4305 51.7652 89.5699C51.7652 83.7094 47.2575 78.9585 41.6971 78.9585C36.1366 78.9585 31.6289 83.7094 31.6289 89.5699C31.6289 95.4305 36.1366 100.181 41.6971 100.181Z" fill="#FFE8CC"/>
<path d="M21.7382 97.4392C21.5083 97.4392 21.3112 97.2601 21.2933 97.0274C20.6006 88.3287 22.6817 82.3725 22.7713 82.1248C22.8549 81.892 23.1116 81.7727 23.3445 81.8532C23.5774 81.9368 23.6999 82.1934 23.6163 82.4262C23.5954 82.4859 21.5113 88.463 22.189 96.9587C22.2099 97.2064 22.0248 97.4213 21.777 97.4392C21.765 97.4392 21.7531 97.4392 21.7412 97.4392H21.7382Z" fill="#E37D44"/>
<path d="M61.6436 97.4391C61.6436 97.4391 61.6197 97.4391 61.6078 97.4391C61.3599 97.4183 61.1778 97.2034 61.1957 96.9587C61.8735 88.463 59.7894 82.4858 59.7685 82.4261C59.6849 82.1934 59.8073 81.9367 60.0402 81.8532C60.2731 81.7696 60.5299 81.892 60.6135 82.1247C60.7031 82.3724 62.7842 88.3287 62.0915 97.0273C62.0735 97.2631 61.8765 97.4391 61.6466 97.4391H61.6436Z" fill="#E37D44"/>
<path d="M69.5512 0.071011C61.6329 -1.32853 46.6411 18.4232 46.6411 18.4232C46.6411 18.4232 45.629 18.1338 41.6996 18.1338C37.7703 18.1338 36.7581 18.4232 36.7581 18.4232C36.7581 18.4232 21.7663 -1.32853 13.848 0.071011C8.44665 1.02592 -1.4334 17.0893 1.43895 38.3272C2.67508 44.1521 4.63077 49.1743 7.07614 53.4685C13.6569 65.0348 23.7579 69.8601 32.7691 72.3697C35.8624 73.2292 39.0542 73.6469 41.7026 73.6768C44.354 73.6469 47.5428 73.2321 50.6361 72.3697C59.6473 69.8631 69.7453 65.0378 76.329 53.4685C78.7714 49.1743 80.7301 44.1521 81.9663 38.3272C84.8386 17.0893 74.9615 1.02592 69.5572 0.071011H69.5512Z" fill="#FF9F69"/>
<path d="M41.692 66.1687C49.5536 66.1687 54.8235 62.1313 55.9223 56.3749C57.0241 50.6186 52.6977 45.7605 41.692 45.7605C30.6863 45.7605 26.3598 50.6186 27.4586 56.3749C28.5604 62.1313 33.8273 66.1687 41.692 66.1687Z" fill="#FFE8CC"/>
<path d="M28.8933 46.1338C31.0401 46.1338 32.8256 44.3941 32.8256 42.2903C32.8256 40.1865 31.0371 38.4468 28.8933 38.4468C26.7495 38.4468 24.9609 40.1865 24.9609 42.2903C24.9609 44.3941 26.7495 46.1338 28.8933 46.1338Z" fill="#282828"/>
<path d="M54.4987 46.1338C52.3519 46.1338 50.5664 44.3941 50.5664 42.2903C50.5664 40.1865 52.3549 38.4468 54.4987 38.4468C56.6425 38.4468 58.431 40.1865 58.431 42.2903C58.431 44.3941 56.6425 46.1338 54.4987 46.1338Z" fill="#282828"/>
<path d="M41.6943 43.0452C40.1208 43.0452 37.9262 43.6151 38.4995 45.4324C39.0459 47.1632 40.7568 48.1778 41.6943 48.1778C42.6319 48.1778 44.3457 47.1602 44.8891 45.4324C45.4624 43.6151 43.2678 43.0452 41.6943 43.0452Z" fill="#282828"/>
<path d="M41.6967 55.5124C39.5499 55.5124 37.5404 54.8171 36.1908 53.6086C35.8833 53.334 35.8564 52.8626 36.1311 52.5552C36.4058 52.2478 36.8776 52.221 37.1851 52.4985C38.266 53.4683 39.9111 54.0234 41.6967 54.0234C43.4822 54.0234 45.1244 53.4683 46.2082 52.4985C46.5157 52.224 46.9875 52.2508 47.2622 52.5552C47.5369 52.8626 47.51 53.334 47.2055 53.6086C45.8529 54.8201 43.8464 55.5124 41.6996 55.5124H41.6967Z" fill="#282828"/>
</svg>
