<svg width="363" height="315" viewBox="0 0 363 315" fill="none" xmlns="http://www.w3.org/2000/svg">
<path d="M340.517 107.478C344.588 83.8239 339.741 46.2103 335.282 19.2603C332.568 3.36177 314.926 -4.97528 301.161 3.16788C287.784 10.7294 271.693 20.6175 257.541 30.6995C234.47 19.6481 208.686 13.2499 181.35 13.2499C154.015 13.2499 128.036 19.6481 105.159 30.6995C90.8132 20.6175 74.9159 10.7294 61.5389 3.16788C47.7742 -4.78139 30.1322 3.36177 27.418 19.2603C22.7651 46.2103 18.1123 83.8239 22.1835 107.478C8.41884 131.326 0.664062 157.694 0.664062 183.287C0.664062 266.269 113.884 314.353 181.35 314.353C248.816 314.353 362.036 266.269 362.036 183.287C361.842 157.5 354.087 131.326 340.517 107.478Z" fill="#E8A6FF"/>
<path d="M181.157 156.725C191.238 156.725 202.87 160.215 199.574 168.745C196.472 177.47 185.81 185.226 181.157 185.226C176.504 185.226 165.647 176.889 162.739 168.745C159.443 160.215 171.076 156.725 181.157 156.725Z" fill="#282828"/>
<path d="M121.057 168.164C129.975 168.164 137.148 161.378 137.148 152.847C137.148 144.51 129.975 137.53 121.057 137.53C112.139 137.53 104.966 144.316 104.966 152.847C105.16 161.378 112.333 168.164 121.057 168.164Z" fill="#282828"/>
<path d="M241.256 168.164C250.174 168.164 257.347 161.378 257.347 152.847C257.347 144.51 250.174 137.53 241.256 137.53C232.338 137.53 225.165 144.316 225.165 152.847C225.359 161.378 232.532 168.164 241.256 168.164Z" fill="#282828"/>
<path d="M265.102 179.409C262.775 179.409 260.643 177.664 260.255 175.338C259.867 172.623 261.612 170.103 264.326 169.521L298.447 163.511C301.161 162.929 303.682 164.868 304.263 167.582C304.651 170.297 302.906 172.817 300.192 173.399L266.071 179.409C265.683 179.409 265.489 179.409 265.102 179.409Z" fill="#282828"/>
<path d="M299.223 207.523C299.029 207.523 298.641 207.523 298.447 207.523L264.326 201.512C261.612 201.124 259.867 198.41 260.255 195.696C260.643 192.981 263.357 191.236 266.071 191.624L300.192 197.635C302.906 198.022 304.651 200.737 304.263 203.451C303.682 205.972 301.549 207.523 299.223 207.523Z" fill="#282828"/>
<path d="M95.2724 179.409C95.0786 179.409 94.6908 179.409 94.4969 179.409L60.376 173.399C57.6619 173.011 55.917 170.297 56.3048 167.582C56.6925 164.868 59.4067 163.123 62.1208 163.511L96.2418 169.521C98.956 169.909 100.701 172.623 100.313 175.338C99.7314 177.664 97.5989 179.409 95.2724 179.409Z" fill="#282828"/>
<path d="M61.1515 207.523C58.8251 207.523 56.6925 205.778 56.3048 203.451C55.917 200.737 57.6619 198.216 60.376 197.635L94.4969 191.624C97.2111 191.236 99.7314 192.981 100.313 195.696C100.895 198.41 98.956 200.931 96.2418 201.512L62.1208 207.523C61.7331 207.523 61.5392 207.523 61.1515 207.523Z" fill="#282828"/>
<path d="M176.311 183.481C176.311 187.552 176.311 191.624 176.311 195.695C176.311 196.277 176.311 196.859 176.311 197.44C176.311 199.961 178.443 202.481 181.157 202.288C183.871 202.094 186.004 200.155 186.004 197.44C186.004 193.369 186.004 189.297 186.004 185.226C186.004 184.644 186.004 184.062 186.004 183.481C186.004 180.96 183.871 178.44 181.157 178.634C178.443 178.827 176.311 180.766 176.311 183.481Z" fill="#272828"/>
<path d="M181.157 243.197C190.258 243.197 197.635 232.346 197.635 218.961C197.635 205.576 190.258 194.726 181.157 194.726C172.056 194.726 164.678 205.576 164.678 218.961C164.678 232.346 172.056 243.197 181.157 243.197Z" fill="#282828"/>
</svg>
