<svg width="363" height="315" viewBox="0 0 363 315" fill="none" xmlns="http://www.w3.org/2000/svg">
<path d="M340.759 107.478C344.83 83.8239 339.983 46.2103 335.524 19.2603C332.81 3.36177 315.168 -4.97528 301.403 3.16788C288.026 10.7294 271.935 20.6175 257.783 30.6995C234.712 19.6481 208.928 13.2499 181.592 13.2499C154.257 13.2499 128.278 19.6481 105.401 30.6995C91.0552 20.6175 75.1579 10.7294 61.7809 3.16788C48.0162 -4.78139 30.3742 3.36177 27.66 19.2603C23.0072 46.2103 18.3544 83.8239 22.4257 107.478C8.66097 131.326 0.90625 157.694 0.90625 183.287C0.90625 266.269 114.126 314.353 181.592 314.353C249.059 314.353 362.278 266.269 362.278 183.287C362.084 157.5 354.329 131.326 340.759 107.478Z" fill="#E8A6FF"/>
<path d="M181.398 156.725C191.479 156.725 203.111 160.215 199.815 168.745C196.714 177.47 186.051 185.226 181.398 185.226C176.745 185.226 165.888 176.889 162.98 168.745C159.685 160.215 171.317 156.725 181.398 156.725Z" fill="#282828"/>
<path d="M121.298 168.164C130.216 168.164 137.389 161.378 137.389 152.847C137.389 144.51 130.216 137.53 121.298 137.53C112.38 137.53 105.207 144.316 105.207 152.847C105.401 161.378 112.574 168.164 121.298 168.164Z" fill="#282828"/>
<path d="M241.497 168.164C250.415 168.164 257.588 161.378 257.588 152.847C257.588 144.51 250.415 137.53 241.497 137.53C232.579 137.53 225.406 144.316 225.406 152.847C225.6 161.378 232.773 168.164 241.497 168.164Z" fill="#282828"/>
<path d="M265.343 179.409C263.016 179.409 260.884 177.664 260.496 175.338C260.108 172.623 261.853 170.103 264.568 169.521L298.689 163.511C301.403 162.929 303.923 164.868 304.505 167.582C304.892 170.297 303.148 172.817 300.433 173.399L266.312 179.409C265.924 179.409 265.731 179.409 265.343 179.409Z" fill="#282828"/>
<path d="M299.464 207.523C299.27 207.523 298.882 207.523 298.689 207.523L264.568 201.512C261.853 201.124 260.108 198.41 260.496 195.696C260.884 192.981 263.598 191.236 266.312 191.624L300.433 197.635C303.148 198.022 304.892 200.737 304.505 203.451C303.923 205.972 301.79 207.523 299.464 207.523Z" fill="#282828"/>
<path d="M95.5136 179.409C95.3197 179.409 94.9319 179.409 94.7381 179.409L60.6172 173.399C57.903 173.011 56.1582 170.297 56.546 167.582C56.9337 164.868 59.6479 163.123 62.362 163.511L96.4829 169.521C99.1971 169.909 100.942 172.623 100.554 175.338C99.9725 177.664 97.84 179.409 95.5136 179.409Z" fill="#282828"/>
<path d="M61.3927 207.523C59.0663 207.523 56.9337 205.778 56.546 203.451C56.1582 200.737 57.903 198.216 60.6172 197.635L94.7381 191.624C97.4522 191.236 99.9725 192.981 100.554 195.696C100.942 198.41 99.1971 200.931 96.4829 201.512L62.362 207.523C61.9743 207.523 61.5866 207.523 61.3927 207.523Z" fill="#282828"/>
<path d="M199.04 207.134L186.051 198.41V183.868C186.051 181.154 183.724 178.827 181.01 178.827C178.296 178.827 175.97 181.154 175.97 183.868V198.41L162.981 207.134C160.654 208.685 160.072 211.788 161.623 214.114C162.593 215.471 164.144 216.247 165.695 216.247C166.664 216.247 167.633 216.053 168.409 215.471L180.816 207.134L193.224 215.471C194 216.053 194.969 216.247 195.938 216.247C197.489 216.247 199.04 215.471 200.01 214.114C201.948 211.788 201.367 208.685 199.04 207.134Z" fill="#282828"/>
<path d="M152.124 136.948C152.124 154.01 138.359 167.97 121.105 167.97C104.045 167.97 90.0859 154.204 90.0859 136.948" fill="#282828"/>
<path d="M272.517 136.948C272.517 154.01 258.752 167.97 241.498 167.97C224.243 167.97 210.479 154.204 210.479 136.948" fill="#282828"/>
</svg>
