<svg width="362" height="315" viewBox="0 0 362 315" fill="none" xmlns="http://www.w3.org/2000/svg">
<path d="M339.987 107.478C344.059 83.8239 339.212 46.2103 334.753 19.2603C332.039 3.36177 314.396 -4.97528 300.632 3.16788C287.255 10.7294 271.164 20.6175 257.011 30.6995C233.941 19.6481 208.156 13.2499 180.821 13.2499C153.485 13.2499 127.507 19.6481 104.63 30.6995C90.2839 20.6175 74.3866 10.7294 61.0096 3.16788C47.2449 -4.78139 29.6028 3.36177 26.8887 19.2603C22.2358 46.2103 17.583 83.8239 21.6542 107.478C7.88954 131.326 0.134766 157.694 0.134766 183.287C0.134766 266.269 113.354 314.353 180.821 314.353C248.287 314.353 361.507 266.269 361.507 183.287C361.313 157.5 353.558 131.326 339.987 107.478Z" fill="#E8A6FF"/>
<path d="M180.433 156.725C190.514 156.725 202.146 160.215 198.851 168.745C195.749 177.47 185.086 185.226 180.433 185.226C175.78 185.226 164.924 176.889 162.016 168.745C158.72 160.215 170.352 156.725 180.433 156.725Z" fill="#282828"/>
<path d="M120.333 168.164C129.251 168.164 136.425 161.378 136.425 152.847C136.425 144.51 129.251 137.53 120.333 137.53C111.415 137.53 104.242 144.316 104.242 152.847C104.63 161.378 111.609 168.164 120.333 168.164Z" fill="#282828"/>
<path d="M240.726 168.164C249.644 168.164 256.817 161.378 256.817 152.847C256.817 144.51 249.644 137.53 240.726 137.53C231.808 137.53 224.635 144.316 224.635 152.847C224.829 161.378 232.002 168.164 240.726 168.164Z" fill="#282828"/>
<path d="M264.572 179.409C262.246 179.409 260.113 177.664 259.726 175.338C259.338 172.623 261.083 170.103 263.797 169.521L297.918 163.511C300.632 162.929 303.152 164.868 303.734 167.582C304.122 170.297 302.377 172.817 299.663 173.399L265.542 179.409C265.154 179.409 264.766 179.409 264.572 179.409Z" fill="#282828"/>
<path d="M298.499 207.523C298.305 207.523 297.917 207.523 297.723 207.523L263.603 201.512C260.888 201.124 259.144 198.41 259.531 195.696C259.919 192.981 262.633 191.236 265.347 191.624L299.468 197.635C302.182 198.022 303.927 200.737 303.54 203.451C302.958 205.972 301.019 207.523 298.499 207.523Z" fill="#282828"/>
<path d="M94.5488 179.409C94.3549 179.409 93.9672 179.409 93.7734 179.409L59.6523 173.399C56.9382 173.011 55.1934 170.297 55.5811 167.582C55.9689 164.868 58.683 163.123 61.3972 163.511L95.5181 169.521C98.2323 169.909 99.9772 172.623 99.5894 175.338C99.0078 177.664 96.8752 179.409 94.5488 179.409Z" fill="#282828"/>
<path d="M60.6222 207.523C58.2958 207.523 56.1632 205.778 55.7755 203.451C55.3877 200.737 57.1326 198.216 59.8467 197.635L93.9677 191.624C96.6819 191.236 99.2022 192.981 99.7838 195.696C100.171 198.41 98.4267 200.931 95.7126 201.512L61.5915 207.523C61.2038 207.523 60.8161 207.523 60.6222 207.523Z" fill="#282828"/>
<path d="M198.075 207.134L185.086 198.41V183.868C185.086 181.154 182.76 178.827 180.046 178.827C177.331 178.827 175.005 181.154 175.005 183.868V198.41L162.016 207.134C159.689 208.685 159.108 211.788 160.659 214.114C161.628 215.471 163.179 216.247 164.73 216.247C165.699 216.247 166.669 216.053 167.444 215.471L179.852 207.134L192.259 215.471C193.035 216.053 194.004 216.247 194.973 216.247C196.524 216.247 198.075 215.471 199.045 214.114C200.983 211.788 200.402 208.685 198.075 207.134Z" fill="#282828"/>
<path d="M70.8969 110.58C85.2432 122.795 102.304 131.908 120.721 136.561C141.271 141.796 165.699 141.796 183.729 129.193C188.188 126.091 191.871 122.213 193.616 117.172C195.167 112.325 194.779 106.509 192.453 101.855C189.739 96.6205 183.535 92.9367 177.719 95.845C172.484 98.5594 169.576 104.958 168.801 110.58C167.638 121.244 176.556 128.612 184.892 133.265C195.555 139.275 206.993 142.765 219.207 143.541C239.369 144.898 258.562 138.112 274.072 125.122C276.01 123.377 275.817 120.081 274.072 118.336C272.133 116.397 269.225 116.591 267.286 118.336C261.858 122.795 254.685 127.254 247.512 129.969C243.634 131.52 239.563 132.683 235.492 133.265C235.104 133.265 234.716 133.459 234.329 133.459C233.359 133.653 235.298 133.459 233.941 133.459C232.39 133.653 230.839 133.846 229.288 133.846C220.176 134.428 211.258 133.265 202.534 130.55C197.881 128.999 193.616 127.06 189.351 124.54C186.055 122.601 182.565 120.662 180.239 117.56C178.3 115.04 177.719 112.325 178.882 109.029C179.464 107.284 180.433 106.121 181.596 104.57C182.178 103.988 182.565 104.376 181.79 104.376H181.984C182.372 104.376 182.953 104.958 183.535 105.539C185.474 108.06 185.28 112.131 184.31 114.458C182.953 117.948 179.851 120.274 176.749 122.019C161.046 131.52 141.853 131.714 124.405 127.448C107.15 123.183 91.447 115.233 77.6823 103.6C75.7436 101.855 72.8356 101.662 70.8969 103.6C69.1521 105.539 68.9582 108.835 70.8969 110.58Z" fill="#282828"/>
</svg>
