<svg width="362" height="315" viewBox="0 0 362 315" fill="none" xmlns="http://www.w3.org/2000/svg">
<path d="M340.481 107.478C344.553 83.8239 339.706 46.2103 335.247 19.2603C332.533 3.36177 314.891 -4.97528 301.126 3.16788C287.749 10.7294 271.658 20.6175 257.505 30.6995C234.435 19.6481 208.651 13.2499 181.315 13.2499C153.979 13.2499 128.001 19.6481 105.124 30.6995C90.7781 20.6175 74.8808 10.7294 61.5038 3.16788C47.7391 -4.78139 30.0971 3.36177 27.3829 19.2603C22.7301 46.2103 18.0773 83.8239 22.1486 107.478C8.38386 131.326 0.628906 157.694 0.628906 183.287C0.628906 266.269 113.849 314.353 181.315 314.353C248.781 314.353 362.001 266.269 362.001 183.287C361.613 157.5 354.052 131.326 340.481 107.478Z" fill="#E8A6FF"/>
<path d="M180.927 156.725C191.008 156.725 202.641 160.215 199.345 168.745C196.243 177.47 185.58 185.226 180.927 185.226C176.274 185.226 165.418 176.889 162.51 168.745C159.214 160.215 170.846 156.725 180.927 156.725Z" fill="#282828"/>
<path d="M158.632 207.135C145.255 207.135 130.909 200.349 125.287 190.655C123.93 188.328 124.705 185.42 127.032 183.869C129.358 182.511 132.266 183.287 133.623 185.613C138.276 193.951 154.367 199.379 165.418 196.277C172.591 194.338 176.275 189.491 176.275 181.736C176.275 179.021 178.407 176.889 181.121 176.889C183.835 176.889 185.968 179.215 185.774 181.93C185.58 194.144 178.989 202.869 167.744 205.778C164.836 206.941 161.734 207.135 158.632 207.135Z" fill="#282828"/>
<path d="M203.416 207.135C200.314 207.135 197.212 206.747 194.304 205.971C182.866 203.063 176.274 194.338 176.08 182.124C176.08 179.409 178.213 177.276 180.733 177.083C183.447 177.083 185.386 179.215 185.58 181.93C185.774 189.685 189.263 194.532 196.436 196.471C207.487 199.379 223.384 193.95 228.231 185.807C229.588 183.481 232.496 182.705 234.822 184.062C237.149 185.42 237.924 188.328 236.567 190.848C231.139 200.349 216.793 207.135 203.416 207.135Z" fill="#282828"/>
<path d="M265.067 179.409C262.74 179.409 260.608 177.664 260.22 175.338C259.832 172.623 261.577 170.103 264.291 169.521L298.412 163.511C301.126 162.929 303.647 164.868 304.228 167.582C304.616 170.297 302.871 172.817 300.157 173.399L266.036 179.409C265.648 179.409 265.26 179.409 265.067 179.409Z" fill="#282828"/>
<path d="M298.994 207.523C298.8 207.523 298.412 207.523 298.219 207.523L264.098 201.512C261.383 201.124 259.639 198.41 260.026 195.696C260.414 192.981 263.128 191.236 265.843 191.624L299.963 197.635C302.678 198.022 304.422 200.737 304.035 203.451C303.453 205.972 301.321 207.523 298.994 207.523Z" fill="#282828"/>
<path d="M95.0439 179.409C94.85 179.409 94.4622 179.409 94.2684 179.409L60.1474 173.399C57.4333 173.011 55.6885 170.297 56.0762 167.582C56.464 164.868 59.1781 163.123 61.8923 163.511L96.0132 169.521C98.7274 169.909 100.472 172.623 100.084 175.338C99.5028 177.664 97.3703 179.409 95.0439 179.409Z" fill="#282828"/>
<path d="M60.923 207.523C58.5965 207.523 56.464 205.778 56.0762 203.451C55.6885 200.737 57.4333 198.216 60.1474 197.635L94.2684 191.624C96.9825 191.236 99.5028 192.981 100.084 195.696C100.666 198.41 98.7274 200.931 96.0132 201.512L61.8923 207.523C61.5046 207.523 61.3107 207.523 60.923 207.523Z" fill="#282828"/>
<path d="M143.538 158.617C145.214 152.525 136.446 144.8 123.954 141.363C111.462 137.926 99.9771 140.077 98.3011 146.169C96.6252 152.26 105.393 159.985 117.885 163.422C130.377 166.86 141.862 164.708 143.538 158.617Z" fill="#282828"/>
<path d="M244.337 164.219C256.829 160.781 265.597 153.057 263.921 146.965C262.245 140.874 250.76 138.722 238.268 142.159C225.776 145.597 217.008 153.321 218.684 159.413C220.36 165.505 231.845 167.656 244.337 164.219Z" fill="#282828"/>
</svg>
