<svg width="363" height="315" viewBox="0 0 363 315" fill="none" xmlns="http://www.w3.org/2000/svg">
<path d="M340.683 107.478C344.754 83.8239 339.907 46.2103 335.448 19.2603C332.734 3.36177 315.092 -4.97528 301.327 3.16788C287.95 10.7294 271.859 20.6175 257.707 30.6995C234.636 19.6481 208.851 13.2499 181.516 13.2499C154.18 13.2499 128.202 19.6481 105.325 30.6995C90.9791 20.6175 75.0819 10.7294 61.7049 3.16788C47.9402 -4.78139 30.2982 3.36177 27.584 19.2603C22.9311 46.2103 18.2782 83.8239 22.3495 107.478C8.58479 131.326 0.830078 157.694 0.830078 183.287C0.830078 266.269 114.05 314.353 181.516 314.353C248.982 314.353 362.202 266.269 362.202 183.287C361.814 157.5 354.253 131.326 340.683 107.478Z" fill="#E8A6FF"/>
<path d="M181.128 156.725C191.21 156.725 202.842 160.215 199.546 168.745C196.444 177.47 185.781 185.226 181.128 185.226C176.476 185.226 165.619 176.889 162.711 168.745C159.415 160.215 171.047 156.725 181.128 156.725Z" fill="#282828"/>
<path d="M121.029 168.164C129.947 168.164 137.12 161.378 137.12 152.847C137.12 144.51 129.947 137.53 121.029 137.53C112.111 137.53 104.938 144.316 104.938 152.847C105.131 161.378 112.305 168.164 121.029 168.164Z" fill="#282828"/>
<path d="M241.228 168.164C250.146 168.164 257.319 161.378 257.319 152.847C257.319 144.51 250.146 137.53 241.228 137.53C232.31 137.53 225.137 144.316 225.137 152.847C225.524 161.378 232.698 168.164 241.228 168.164Z" fill="#282828"/>
<path d="M95.2441 179.409C95.0502 179.409 94.6625 179.409 94.4687 179.409L60.3476 173.399C57.6335 173.011 55.8887 170.297 56.2764 167.582C56.6642 164.868 59.3783 163.123 62.0925 163.511L96.2134 169.521C98.9276 169.909 100.672 172.623 100.285 175.338C99.7031 177.664 97.5705 179.409 95.2441 179.409Z" fill="#282828"/>
<path d="M61.1232 207.523C58.7967 207.523 56.6642 205.778 56.2764 203.451C55.8887 200.737 57.6335 198.216 60.3476 197.635L94.4687 191.624C97.1828 191.236 99.7031 192.981 100.285 195.696C100.672 198.41 98.9276 200.931 96.2134 201.512L62.0925 207.523C61.7048 207.523 61.5109 207.523 61.1232 207.523Z" fill="#282828"/>
<path d="M176.281 183.481C176.281 187.552 176.281 191.624 176.281 195.695C176.281 196.277 176.281 196.859 176.281 197.44C176.281 199.961 178.414 202.481 181.128 202.288C183.842 202.094 185.975 200.155 185.975 197.44C185.975 193.369 185.975 189.297 185.975 185.226C185.975 184.644 185.975 184.062 185.975 183.481C185.975 180.96 183.842 178.44 181.128 178.634C178.608 178.827 176.281 180.766 176.281 183.481Z" fill="#272828"/>
<path d="M203.035 235.248C203.035 242.034 193.342 240.483 181.128 240.483C169.108 240.483 159.221 241.84 159.221 235.248C159.221 228.462 168.914 216.247 181.128 216.247C193.342 216.247 203.035 228.656 203.035 235.248Z" fill="#282828"/>
<path d="M115.019 100.304C118.509 100.304 121.999 100.304 125.488 100.304C126.07 100.304 126.458 100.304 127.039 100.304C128.203 100.304 129.56 99.7224 130.529 98.9469C131.304 98.1714 132.08 96.8142 131.886 95.457C131.692 92.7426 129.754 90.6099 127.039 90.6099C123.55 90.6099 120.06 90.6099 116.57 90.6099C115.989 90.6099 115.601 90.6099 115.019 90.6099C113.856 90.6099 112.499 91.1915 111.53 91.9671C110.754 92.7426 109.979 94.0998 110.173 95.457C110.367 97.9775 112.305 100.304 115.019 100.304Z" fill="#272828"/>
<path d="M235.412 100.304C238.902 100.304 242.391 100.304 245.881 100.304C246.462 100.304 246.85 100.304 247.432 100.304C248.595 100.304 249.952 99.7224 250.922 98.9469C251.697 98.1714 252.472 96.8142 252.279 95.457C252.085 92.7426 250.146 90.6099 247.432 90.6099C243.942 90.6099 240.453 90.6099 236.963 90.6099C236.381 90.6099 235.994 90.6099 235.412 90.6099C234.249 90.6099 232.892 91.1915 231.922 91.9671C231.147 92.7426 230.371 94.0998 230.565 95.457C230.565 97.9775 232.698 100.304 235.412 100.304Z" fill="#272828"/>
<path d="M338.356 148.969C351.54 175.531 337.581 205.971 312.96 207.328C312.378 207.328 311.796 207.328 311.409 207.328C310.827 207.328 310.245 207.328 309.858 207.328C285.236 205.971 271.278 175.337 284.461 148.969C292.797 132.101 301.133 115.427 309.47 98.5591C310.439 96.6203 312.572 96.6203 313.541 98.5591C321.684 115.427 330.02 132.101 338.356 148.969Z" fill="#C4F0FF"/>
<path d="M265.268 179.409C262.941 179.409 260.809 177.664 260.421 175.338C260.033 172.623 261.778 170.103 264.492 169.521L298.613 163.511C301.327 162.929 303.848 164.868 304.429 167.582C304.817 170.297 303.072 172.817 300.358 173.399L266.237 179.409C265.849 179.409 265.462 179.409 265.268 179.409Z" fill="#282828"/>
<path d="M299.194 207.523C299 207.523 298.613 207.523 298.419 207.523L264.298 201.512C261.584 201.124 259.839 198.41 260.227 195.696C260.614 192.981 263.329 191.236 266.043 191.624L300.164 197.635C302.878 198.022 304.623 200.737 304.235 203.451C303.653 205.972 301.521 207.523 299.194 207.523Z" fill="#282828"/>
</svg>
