<svg width="24" height="24" viewBox="0 0 24 24" fill="none" xmlns="http://www.w3.org/2000/svg">
<g id="Frame 150">
<rect width="24" height="24" fill="white"/>
<path id="Vector" d="M23.18 11.66V23.5C23.18 23.78 22.96 24 22.68 24H1.5C1.22 24 1 23.78 1 23.5V11.66C1 11.61 1.02 11.55 1.07 11.49L1.37 11.09L9.42 0.35C9.5 0.25 9.63 0.15 9.78 0.09C9.82 0.03 9.9 0 10.02 0H14.15C14.27 0 14.35 0.03 14.4 0.09C14.55 0.16 14.68 0.25 14.76 0.35L22.81 11.08L23.11 11.48C23.16 11.54 23.18 11.6 23.18 11.65V11.66Z" fill="white"/>
<path id="Vector_2" d="M11.5891 14.3501C14.2464 14.3501 14.9524 16.6994 14.2758 17.8065C13.9326 18.3645 13.7169 18.7156 13.5502 18.9226L11.7754 21.6409H9.59851L11.2361 19.1476C9.94171 19.0036 8.95134 18.1305 9.04939 16.7624C9.16706 15.1422 10.3339 14.3501 11.6087 14.3501M11.6087 13C9.39259 13 7.74523 14.5122 7.58834 16.6724C7.49029 17.9865 8.06882 19.1116 9.09842 19.8047L8.34338 20.9568L7 23H12.6089L13.0403 22.3429L14.7857 19.6787C14.9916 19.4176 15.1878 19.0936 15.5015 18.5806L15.5702 18.4725C16.1977 17.4554 16.1291 16.0243 15.4231 14.9082C14.6583 13.7021 13.2658 13.009 11.6087 13.009V13Z" fill="#2FD714"/>
<path id="Vector_3" d="M13.2714 2.83333L20.1966 12.22V21.1667H3.80343V12.22L10.7286 2.83333H13.2714ZM13.8665 1H10.1425C10.0343 1 9.96213 1.0275 9.91704 1.0825C9.78179 1.14667 9.66456 1.22917 9.59243 1.32083L2.33363 11.1567L2.06312 11.5233C2.01803 11.5875 2 11.6425 2 11.6883V22.5417C2 22.7983 2.19838 23 2.45086 23H21.5491C21.8016 23 22 22.7983 22 22.5417V11.6883C22 11.6425 21.982 11.5875 21.9369 11.5325L21.6664 11.1658L14.4076 1.32083C14.3354 1.22917 14.2182 1.1375 14.083 1.0825C14.0469 1.03667 13.9748 1 13.8575 1H13.8665Z" fill="#2FD714"/>
</g>
</svg>
