<svg width="23" height="26" viewBox="0 0 23 26" fill="none" xmlns="http://www.w3.org/2000/svg">
<g id="_?&#235;&#141;&#137;&#236;&#148;&#160;??1" clip-path="url(#clip0_1100_6408)">
<g id="Vector">
<path d="M21.06 24.9991C21.06 24.7991 21.05 24.5991 21.04 24.3991C20.58 17.4791 16 14.1191 11.03 14.1191C6.06 14.1191 1.48 17.4791 1.02 24.3991C1.01 24.5991 1 24.8091 1 24.9991" fill="white"/>
<path d="M21.06 24.9991C21.06 24.7991 21.05 24.5991 21.04 24.3991C20.58 17.4791 16 14.1191 11.03 14.1191C6.06 14.1191 1.48 17.4791 1.02 24.3991C1.01 24.5991 1 24.8091 1 24.9991" stroke="#2FD714" stroke-width="2" stroke-miterlimit="10"/>
</g>
<path id="Vector_2" d="M17.4181 7.56C17.1281 3.14 14.2081 1 11.0281 1C7.8481 1 4.9281 3.15 4.6381 7.56C4.3681 11.64 7.3481 14.12 11.0281 14.12C14.7081 14.12 17.6881 11.64 17.4181 7.56Z" fill="white" stroke="#2FD714" stroke-width="2" stroke-miterlimit="10"/>
</g>
<defs>
<clipPath id="clip0_1100_6408">
<rect width="22.06" height="25.4" fill="white"/>
</clipPath>
</defs>
</svg>
