<svg width="23" height="24" viewBox="0 0 23 24" fill="none" xmlns="http://www.w3.org/2000/svg">
<g id="_?&#235;&#141;&#137;&#236;&#148;&#160;??1" clip-path="url(#clip0_760_12158)">
<g id="Group">
<path id="Vector" d="M21.7 1H1.3C1.13431 1 1 1.13431 1 1.3V22.7C1 22.8657 1.13431 23 1.3 23H21.7C21.8657 23 22 22.8657 22 22.7V1.3C22 1.13431 21.8657 1 21.7 1Z" fill="white"/>
<path id="Vector_2" d="M21 2V22H2V2H21ZM21.7 0H1.3C0.58 0 0 0.58 0 1.3V22.7C0 23.42 0.58 24 1.3 24H21.7C22.42 24 23 23.42 23 22.7V1.3C23 0.58 22.42 0 21.7 0Z" fill="#2FD714"/>
</g>
<path id="Vector_3" d="M22.3203 11.2999C21.7603 11.5499 21.1403 11.6899 20.5003 11.6899C18.0103 11.6899 16.0003 9.67994 16.0003 7.18994C16.0003 9.67994 13.9903 11.6899 11.5003 11.6899C9.01031 11.6899 7.00031 9.67994 7.00031 7.18994C7.00031 9.67994 4.99031 11.6899 2.50031 11.6899C1.81031 11.6899 1.16031 11.5299 0.570312 11.2599" stroke="#2FD714" stroke-width="1.5" stroke-miterlimit="10"/>
<path id="Vector_4" d="M7 7.19002V1.27002" stroke="#2FD714" stroke-width="1.5" stroke-miterlimit="10"/>
<path id="Vector_5" d="M16 7.19002V1.27002" stroke="#2FD714" stroke-width="1.5" stroke-miterlimit="10"/>
<path id="Vector_6" d="M13.5409 15.8101V22.5001H9.46094V15.8101H13.5409ZM14.5409 14.3101H8.46094C8.18094 14.3101 7.96094 14.5301 7.96094 14.8101V23.5001C7.96094 23.7801 8.18094 24.0001 8.46094 24.0001H14.5409C14.8209 24.0001 15.0409 23.7801 15.0409 23.5001V14.8101C15.0409 14.5301 14.8209 14.3101 14.5409 14.3101Z" fill="#2FD714"/>
</g>
<defs>
<clipPath id="clip0_760_12158">
<rect width="23" height="24" fill="white"/>
</clipPath>
</defs>
</svg>
