<svg width="23" height="21" viewBox="0 0 23 21" fill="none" xmlns="http://www.w3.org/2000/svg">
<g id="_?&#235;&#141;&#137;&#236;&#148;&#160;??1" clip-path="url(#clip0_1112_3112)">
<g id="Group">
<path id="Vector" d="M20.94 19.56C20.88 19.56 20.82 19.53 20.77 19.48L17.48 16.05H1.25C1.11 16.05 1 15.93 1 15.78V1.27C1 1.12 1.11 1 1.25 1H20.94C21.08 1 21.19 1.12 21.19 1.27V19.29C21.19 19.37 21.17 19.44 21.11 19.48C21.06 19.53 20.99 19.56 20.92 19.56H20.94Z" fill="white"/>
<path id="Vector_2" d="M20.2 2V17.44L18.5 15.66L17.91 15.04H2V2H20.2ZM20.95 0H1.25C0.56 0 0 0.57 0 1.27V15.78C0 16.48 0.56 17.05 1.25 17.05H17.05L20.04 20.17C20.3 20.44 20.62 20.56 20.93 20.56C21.57 20.56 22.19 20.06 22.19 19.29V1.27C22.19 0.57 21.63 0 20.94 0H20.95Z" fill="#2FD714"/>
</g>
<g id="Group_2">
<path id="Vector_3" d="M5.71875 6.18945H14.8687" stroke="#2FD714" stroke-width="1.5" stroke-miterlimit="10" stroke-linecap="round"/>
<path id="Vector_4" d="M5.71875 10.4395H11.0988" stroke="#2FD714" stroke-width="1.5" stroke-miterlimit="10" stroke-linecap="round"/>
</g>
</g>
<defs>
<clipPath id="clip0_1112_3112">
<rect width="22.2" height="20.56" fill="white"/>
</clipPath>
</defs>
</svg>
