<svg width="41" height="40" viewBox="0 0 41 40" fill="none" xmlns="http://www.w3.org/2000/svg">
<g id="menuIcon05">
<path id="Vector" d="M13.0318 16.5299L16.9303 9.98433C17.1875 9.54963 16.8808 9 16.3811 9H11.9038C11.6762 9 11.4684 9.11992 11.3546 9.31479L6.66457 17.1994C6.18468 17.839 5.61078 18.8883 4.66584 20.5771C2.8007 23.9198 4.73016 31 12.0275 31C15.5055 31 18.7163 28.6216 19.0329 23.73C19.305 19.5878 16.5889 16.9496 13.0367 16.5299H13.0318Z" fill="#FF9C40"/>
<path id="Vector_2" d="M27.5555 9C24.0725 9 20.8667 11.3784 20.55 16.27C20.2779 20.4072 22.994 23.0504 26.5462 23.4701L22.6527 30.0157C22.3954 30.4504 22.7021 31 23.2018 31H27.6792C27.9067 31 28.1145 30.8801 28.2283 30.6852L32.9184 22.8006C33.3983 22.161 33.9722 21.1117 34.9171 19.4229C36.7822 16.0802 34.8528 9 27.5555 9Z" fill="#FF9C40"/>
</g>
</svg>
