<svg width="168" height="168" viewBox="0 0 168 168" fill="none" xmlns="http://www.w3.org/2000/svg">
<circle cx="84" cy="84" r="80" fill="#D9D9D9" stroke="white" stroke-width="8"/>
<mask id="mask0_1456_10043" style="mask-type:alpha" maskUnits="userSpaceOnUse" x="6" y="6" width="156" height="156">
<circle cx="83.8834" cy="83.6597" r="77.5474" fill="#8E1818"/>
</mask>
<g mask="url(#mask0_1456_10043)">
<rect x="-53.582" y="-14.4308" width="288.278" height="288.278" fill="#F9E3FF"/>
<path d="M115.188 168.046C115.188 150.915 101.331 88.2196 84.4213 88.4575C67.7463 88.6954 54.5943 151.985 54.7117 168.879C54.9466 202.546 65.6326 197.668 79.7241 198.263C81.0158 198.382 82.0727 197.312 82.0727 196.003V187.08C82.0727 183.274 87.9441 183.274 87.9441 187.08C87.9441 188.389 87.9441 189.817 87.9441 191.125V196.122C87.9441 197.431 89.001 198.382 90.2927 198.382C104.384 197.668 115.188 202.665 115.188 168.046Z" fill="#E8A6FF"/>
<path d="M132.002 67.3055C133.174 59.5709 131.788 47.1955 130.509 38.3899C129.763 33.1542 124.541 30.4173 120.491 33.0352C116.548 35.5341 111.858 38.7469 107.595 42.0788C100.774 38.5089 93.2071 36.367 85.2137 36.367C77.2204 36.367 69.5467 38.5089 62.8323 42.0788C58.6758 38.7469 53.9863 35.5341 49.9364 33.0352C45.8864 30.4173 40.6641 33.1542 39.918 38.3899C38.5325 47.1955 37.147 59.5709 38.4259 67.3055C34.2694 75.1591 32.0312 83.7267 32.0312 92.1753C32.0312 119.425 65.2836 135.132 85.1071 135.132C104.931 135.132 138.183 119.306 138.183 92.1753C138.183 83.7267 135.945 75.1591 132.002 67.3055Z" fill="#E8A6FF"/>
<path d="M95.6561 97.7687C95.6561 107.764 92.4587 114.309 85.5312 114.309C78.6036 114.309 75.4062 107.764 75.4062 97.7687C79.8825 99.3157 85.5312 98.2447 85.5312 91.819C85.5312 98.2447 91.1798 99.3157 95.6561 97.7687Z" fill="#DB73FF"/>
<path d="M85.1082 83.4888C88.0924 83.4888 91.5029 84.5597 90.5437 87.4156C89.5845 90.2714 86.4937 92.8893 85.1082 92.8893C83.7227 92.8893 80.5253 90.1524 79.6727 87.4156C78.7135 84.5597 82.124 83.4888 85.1082 83.4888Z" fill="#282828"/>
<path d="M67.416 87.1772C69.9739 87.1772 72.1054 84.9163 72.1054 82.1795C72.1054 79.4426 69.9739 77.1817 67.416 77.1817C64.8581 77.1817 62.7266 79.4426 62.7266 82.1795C62.8331 85.0353 64.8581 87.1772 67.416 87.1772Z" fill="#282828"/>
<path d="M102.799 87.1772C105.357 87.1772 107.488 84.9163 107.488 82.1795C107.488 79.4426 105.357 77.1817 102.799 77.1817C100.241 77.1817 98.1094 79.4426 98.1094 82.1795C98.1094 85.0353 100.241 87.1772 102.799 87.1772Z" fill="#282828"/>
<path d="M78.499 100.029C74.5556 100.029 70.3991 97.768 68.6938 94.6741C68.2675 93.9602 68.4807 92.8892 69.2267 92.4133C69.8662 91.9373 70.8254 92.1753 71.1451 93.0082C72.5307 95.7451 77.2201 97.53 80.4174 96.5781C82.549 95.9831 83.6148 94.3172 83.6148 91.8183C83.6148 90.9853 84.2542 90.2714 85.0003 90.2714C85.7463 90.2714 86.3858 90.9853 86.3858 91.9373C86.3858 95.8641 84.3608 98.8389 81.0569 99.7909C80.4174 99.9099 79.4582 100.029 78.499 100.029Z" fill="#282828"/>
<path d="M91.7121 100.029C90.7529 100.029 89.9003 99.9103 89.0477 99.6723C85.6372 98.7204 83.7188 95.8645 83.7188 91.8187C83.7188 90.9857 84.3582 90.2718 85.1043 90.1528C85.8503 90.1528 86.4898 90.8667 86.4898 91.6997C86.4898 94.1986 87.5556 95.8645 89.6871 96.4595C92.8845 97.4114 97.5739 95.6265 98.9594 92.8896C99.3857 92.1757 100.238 91.8187 100.878 92.2947C101.517 92.7706 101.837 93.7226 101.411 94.5556C99.812 97.7684 95.6555 100.029 91.7121 100.029Z" fill="#282828"/>
<path d="M85.1092 115.975C77.7553 115.975 73.4922 109.311 73.4922 97.7684C73.4922 97.2924 73.7053 96.8164 74.1317 96.4595C74.558 96.2215 74.9843 96.1025 75.4106 96.2215C77.9685 97.0544 80.6329 96.9354 82.125 95.6265C83.0842 94.7935 83.7237 93.4846 83.7237 91.6997C83.7237 90.8667 84.3632 90.1528 85.1092 90.1528C85.8552 90.1528 86.4947 90.8667 86.4947 91.6997C86.4947 93.4846 87.0276 94.7935 88.0934 95.6265C89.5855 96.9354 92.2499 97.0544 94.8078 96.2215C95.2341 96.1025 95.6604 96.2215 96.0867 96.4595C96.5131 96.6974 96.7262 97.2924 96.7262 97.7684C96.7262 109.311 92.4631 115.975 85.1092 115.975ZM76.4764 99.7913C76.7961 106.098 78.6079 112.762 85.2158 112.762C91.8236 112.762 93.6354 106.098 93.9552 99.7913C91.1841 100.267 88.4131 99.7913 86.6013 98.2444C86.175 97.8874 85.7487 97.4114 85.3224 96.8164C84.896 97.4114 84.4697 97.8874 84.0434 98.2444C82.0184 99.7913 79.2474 100.386 76.4764 99.7913Z" fill="#282828"/>
<path d="M109.834 90.8664C109.088 90.8664 108.555 90.2714 108.342 89.5574C108.235 88.7245 108.768 87.7725 109.514 87.6535L119.532 85.7496C120.278 85.6306 121.131 86.2256 121.238 87.0585C121.344 87.8915 120.811 88.8434 120.065 88.9624L110.047 90.8664C109.94 90.8664 109.94 90.8664 109.834 90.8664Z" fill="#282828"/>
<path d="M119.852 100.148C119.745 100.148 119.639 100.148 119.639 100.148L109.62 98.2443C108.874 98.1254 108.235 97.2924 108.448 96.3404C108.554 95.5075 109.3 94.7935 110.153 95.0315L120.171 96.9354C120.917 97.0544 121.557 97.8874 121.344 98.8393C121.131 99.5533 120.491 100.148 119.852 100.148Z" fill="#282828"/>
<path d="M59.8517 90.8668C59.7451 90.8668 59.6385 90.8668 59.6385 90.8668L49.6202 88.9629C48.8741 88.8439 48.2347 88.0109 48.4478 87.059C48.5544 86.226 49.3004 85.512 50.1531 85.75L60.1714 87.6539C60.9174 87.7729 61.5569 88.6059 61.3438 89.5578C61.2372 90.3908 60.5977 90.8668 59.8517 90.8668Z" fill="#282828"/>
<path d="M49.8299 100.148C49.0838 100.148 48.551 99.5528 48.3378 98.8389C48.2312 98.0059 48.7641 97.054 49.5102 96.935L59.5285 95.0311C60.3811 94.9121 61.1272 95.507 61.2337 96.34C61.3403 97.173 60.8074 98.1249 60.0614 98.2439L50.1496 100.148C50.043 100.148 49.9365 100.148 49.8299 100.148Z" fill="#282828"/>
<path d="M69.5444 128.469C69.4378 128.35 69.4378 128.35 69.3313 128.231C69.3313 128.231 69.3313 128.231 69.2247 128.231C65.7076 125.018 57.8208 129.302 50.9998 137.036C42.4736 146.675 40.6618 150.364 41.1946 152.625C41.1946 152.863 42.2604 154.41 43.7525 156.194C43.8591 156.313 44.0722 156.551 44.392 156.908C45.9907 158.574 47.3762 159.645 47.5893 159.764C49.6143 160.359 53.0248 158.336 61.5511 148.817C68.5852 141.201 72.422 132.396 69.5444 128.469Z" fill="#E8A6FF"/>
<path d="M99.0722 128.469C99.1788 128.35 99.1788 128.35 99.2854 128.231C99.2854 128.231 99.2854 128.231 99.392 128.231C102.909 125.018 110.796 129.302 117.617 137.036C126.143 146.675 127.955 150.364 127.422 152.625C127.422 152.863 126.356 154.41 124.864 156.194C124.758 156.313 124.544 156.551 124.225 156.908C122.626 158.574 121.24 159.645 121.027 159.764C119.002 160.359 115.592 158.336 107.066 148.817C100.031 141.201 96.1946 132.396 99.0722 128.469Z" fill="#E8A6FF"/>
<path d="M102.799 158.098C102.799 168.808 95.0189 174.876 85.4269 174.876C75.8349 174.876 68.0547 168.808 68.0547 158.098C68.0547 147.389 75.8349 136.203 85.4269 136.203C95.0189 136.203 102.799 147.389 102.799 158.098Z" fill="white"/>
</g>
</svg>
