<svg width="210" height="210" viewBox="0 0 210 210" fill="none" xmlns="http://www.w3.org/2000/svg">
<circle cx="105" cy="105" r="105" fill="#D9D9D9"/>
<g style="mix-blend-mode:lighten" opacity="0.5" clip-path="url(#clip0_905_8519)">
<path d="M152.634 116.437C156.452 101.208 154.793 81.1719 145.797 69.3266C145.912 69.2317 146.02 69.1232 146.128 69.0147C150.799 64.3362 150.61 56.5591 145.702 51.6501C140.801 46.7343 133.036 46.5445 128.365 51.2229C127.14 52.4502 126.246 53.8944 125.691 55.4403C125.576 55.4132 125.461 55.3861 125.339 55.3658C124.094 53.7046 115.219 52.4231 104.422 52.4095C93.6246 52.4231 84.7499 53.7046 83.5043 55.3658C83.3824 55.3861 83.2674 55.4132 83.1523 55.4403C82.5972 53.8944 81.7036 52.4502 80.4784 51.2229C75.8074 46.5445 68.0429 46.7343 63.1418 51.6501C58.234 56.5591 58.0445 64.3362 62.7154 69.0147C62.8237 69.1232 62.932 69.2317 63.0471 69.3266C54.0505 81.1719 52.392 101.208 56.21 116.437C25.4632 144.148 27.5956 202.527 28.347 209.999H180.497C181.248 202.527 183.38 144.155 152.634 116.437Z" fill="white"/>
</g>
<defs>
<clipPath id="clip0_905_8519">
<rect width="152.833" height="162.167" fill="white" transform="translate(28 47.833)"/>
</clipPath>
</defs>
</svg>
