<svg width="current" height="current" viewBox="0 0 32 32" fill="none" xmlns="http://www.w3.org/2000/svg">
<rect width="32" height="32" rx="16" fill="#78DDFF"/>
<path d="M23.0428 12.9936C23.5389 12.4622 23.8463 11.7416 23.8463 10.9409C23.8463 9.31756 22.5817 8 21.0236 8C19.9755 8 19.0603 8.59691 18.5782 9.47771C17.7677 9.22293 16.9013 9.07734 16 9.07734C15.0987 9.07734 14.2323 9.21565 13.4218 9.47771C12.9328 8.59691 12.0175 8 10.9764 8C9.41834 8 8.15371 9.31756 8.15371 10.9409C8.15371 11.7416 8.46114 12.4622 8.95721 12.9936C8.34236 14.0491 8 15.2575 8 16.5387C8 20.6588 11.1231 24 16.014 24C20.9048 24 24 20.6588 24 16.5314C24 15.2502 23.6507 14.0419 23.0428 12.9936Z" fill="white"/>
</svg>
