<svg width="92" height="116" viewBox="0 0 92 116" fill="none" xmlns="http://www.w3.org/2000/svg">
<mask id="mask0_1738_11211" style="mask-type:alpha" maskUnits="userSpaceOnUse" x="0" y="0" width="92" height="116">
<rect width="92" height="116" fill="#D9D9D9"/>
</mask>
<g mask="url(#mask0_1738_11211)">
<path d="M45.2671 12.2455C68.1351 12.2455 85.0804 27.0795 86.6711 48.723C88.1494 68.8177 75.1857 85.2006 45.2671 85.2006C15.3485 85.2006 2.38489 68.8177 3.86315 48.723C5.45388 27.0795 22.3992 12.2455 45.2671 12.2455Z" fill="#8AD4FF"/>
<path d="M45.2708 74.3387C54.5967 74.3387 60.8439 69.3351 62.1487 62.2009C63.4534 55.0667 58.3245 49.0444 45.2708 49.0444C32.2172 49.0444 27.0851 55.0667 28.393 62.2009C29.6977 69.3351 35.9482 74.3387 45.2708 74.3387Z" fill="#E0F6FF"/>
<path d="M45.2582 47.4697C47.8709 47.4697 50.8531 48.302 50.0144 50.5259C49.1756 52.7497 46.4698 54.7871 45.2582 54.7871C44.0467 54.7871 41.2477 52.6565 40.5021 50.5259C39.7566 48.302 42.6456 47.4697 45.2582 47.4697Z" fill="#282828"/>
<path d="M29.885 49.6936C32.1217 49.6936 33.9888 47.9325 33.9888 45.8019C33.9888 43.6713 32.1249 41.9102 29.885 41.9102C27.6451 41.9102 25.7812 43.6713 25.7812 45.8019C25.7812 47.9325 27.6451 49.6936 29.885 49.6936Z" fill="#282828"/>
<path d="M60.6506 49.6936C62.8873 49.6936 64.7544 47.9325 64.7544 45.8019C64.7544 43.6713 62.8905 41.9102 60.6506 41.9102C58.4108 41.9102 56.5469 43.6713 56.5469 45.8019C56.5469 47.9325 58.4108 49.6936 60.6506 49.6936Z" fill="#282828"/>
<path d="M9.35286 34.7568C-2.30929 25.4534 1.06178 9.51715 11.3646 5.30412C18.9937 2.18372 33.8276 4.21471 35.3862 16.3171" fill="#8AD4FF"/>
<path d="M81.1896 34.7568C92.8518 25.4534 89.4807 9.51715 79.1779 5.30412C71.5488 2.18372 56.7148 4.21471 55.1562 16.3171" fill="#8AD4FF"/>
<path d="M45.2721 60.1538C44.8287 60.1538 44.4688 59.7939 44.4688 59.3504V54.5846C44.4688 54.1412 44.8287 53.7812 45.2721 53.7812C45.7156 53.7812 46.0755 54.1412 46.0755 54.5846V59.3504C46.0755 59.7939 45.7156 60.1538 45.2721 60.1538Z" fill="#282828"/>
<path d="M45.2714 61.587C41.8232 61.587 38.6161 60.247 36.4694 57.9107C36.1705 57.5829 36.1898 57.0751 36.5176 56.7763C36.8454 56.4774 37.3531 56.4967 37.652 56.8245C39.4966 58.8298 42.2731 59.9834 45.2714 59.9834C48.2697 59.9834 51.0463 58.833 52.8909 56.8245C53.1897 56.4967 53.7007 56.4774 54.0253 56.7763C54.3531 57.0751 54.3723 57.5861 54.0735 57.9107C51.9268 60.247 48.7164 61.587 45.2682 61.587H45.2714Z" fill="#282828"/>
<path d="M67.8045 75.8651H22.7434C16.7854 80.2613 10.6538 91.872 11.1712 101.465C11.4251 106.153 12.3056 110.527 17.11 111.436C20.8924 112.15 22.9555 110.459 23.6946 109.01C23.7717 108.859 23.9935 108.911 24.0095 109.078C24.4787 114.586 25.7096 119.139 27.5735 123.59C30.2568 129.998 32.5031 129.995 36.1023 129.998C39.4991 129.998 43.6446 129.998 43.5418 117.044C44.1942 117.157 44.6537 117.214 45.2739 117.214C45.8942 117.214 46.3537 117.157 47.0061 117.044C46.9032 129.998 51.0488 130.001 54.4456 129.998C58.0416 129.998 60.2879 129.998 62.9744 123.59C64.8383 119.139 66.0691 114.586 66.5383 109.078C66.5512 108.911 66.7761 108.859 66.8533 109.01C67.5924 110.459 69.6555 112.153 73.4379 111.436C78.2422 110.53 79.1228 106.153 79.3766 101.465C79.894 91.872 73.7625 80.2613 67.8045 75.8651Z" fill="#8AD4FF"/>
<path d="M45.2659 111.886C51.2506 111.886 56.1022 106.77 56.1022 100.459C56.1022 94.1475 51.2506 89.0312 45.2659 89.0312C39.2812 89.0312 34.4297 94.1475 34.4297 100.459C34.4297 106.77 39.2812 111.886 45.2659 111.886Z" fill="#D9F1FF"/>
<path d="M23.7946 108.933C23.5472 108.933 23.335 108.74 23.3158 108.49C22.5702 99.1219 24.8101 92.7108 24.9065 92.4409C24.9965 92.1902 25.2728 92.0584 25.5235 92.1484C25.7742 92.2384 25.9059 92.5148 25.8159 92.7654C25.7935 92.8297 23.5504 99.2666 24.2798 108.412C24.3023 108.679 24.1031 108.911 23.8364 108.93C23.8235 108.93 23.8107 108.93 23.7978 108.93L23.7946 108.933Z" fill="#72BAE3"/>
<path d="M66.7417 108.933C66.7417 108.933 66.716 108.933 66.7032 108.933C66.4364 108.911 66.2404 108.679 66.2597 108.416C66.9892 99.2665 64.7461 92.8297 64.7236 92.7686C64.6336 92.518 64.7654 92.2416 65.016 92.1516C65.2667 92.0616 65.5431 92.1934 65.6331 92.444C65.7295 92.714 67.9693 99.1251 67.2238 108.493C67.2045 108.747 66.9924 108.936 66.745 108.936L66.7417 108.933Z" fill="#72BAE3"/>
</g>
</svg>
