<svg width="26" height="26" viewBox="0 0 26 26" fill="none" xmlns="http://www.w3.org/2000/svg">
<path d="M24.4445 8.11465C25.2507 7.25114 25.7502 6.08007 25.7502 4.77889C25.7502 2.14104 23.6952 0 21.1633 0C19.4603 0 17.9729 0.969973 17.1895 2.40127C15.8725 1.98726 14.4646 1.75068 13 1.75068C11.5354 1.75068 10.1275 1.97543 8.81048 2.40127C8.01572 0.969973 6.52838 0 4.83668 0C2.3048 0 0.249782 2.14104 0.249782 4.77889C0.249782 6.08007 0.749345 7.25114 1.55546 8.11465C0.556332 9.82985 0 11.7934 0 13.8753C0 20.5705 5.07511 26 13.0227 26C20.9703 26 26 20.5705 26 13.8635C26 11.7816 25.4323 9.81802 24.4445 8.11465Z" fill="white"/>
</svg>
