<svg width="45" height="43" viewBox="0 0 45 43" fill="none" xmlns="http://www.w3.org/2000/svg">
<path id="Vector" d="M42.0275 13.3806C43.4152 11.9434 44.2577 10.0107 44.2577 7.8797C44.2577 3.51861 40.7389 0 36.3775 0C33.4535 0 30.8763 1.58585 29.5382 3.96463C27.2584 3.27082 24.8299 2.87436 22.3519 2.87436C19.8738 2.87436 17.3958 3.22126 15.1656 3.96463C13.7779 1.58585 11.2503 0 8.3262 0C3.96486 0 0.446043 3.51861 0.446043 7.8797C0.446043 10.0107 1.28857 11.9434 2.67627 13.3806C0.94165 16.2054 0 19.4267 0 22.8957C0 33.9471 8.72269 42.9171 22.4014 42.9171C36.0802 42.9171 44.7037 33.9471 44.7037 22.8957C44.7037 19.4267 43.7125 16.1559 42.0275 13.3806Z" fill="#F0F0F0"/>
</svg>
