<svg width="48" height="48" viewBox="0 0 48 48" fill="none" xmlns="http://www.w3.org/2000/svg">
<g clip-path="url(#clip0_1751_11374)">
<rect width="48" height="48" rx="24" fill="#E0F4FF"/>
<path d="M33.8198 38.0439H15.0451C12.5621 39.8234 10.0089 44.523 10.2236 48.4058C10.329 50.3036 10.696 52.0739 12.6975 52.442C14.2734 52.7308 15.1323 52.0466 15.4407 51.4599C15.472 51.3988 15.5657 51.4196 15.5722 51.4872C15.7674 53.7167 16.2814 55.5599 17.057 57.3615C18.1749 59.9552 19.1106 59.9539 20.6097 59.9552C22.0243 59.9552 23.7525 59.9552 23.7096 54.7118C23.9815 54.7573 24.1728 54.7808 24.4318 54.7808C24.6908 54.7808 24.8821 54.7573 25.1541 54.7118C25.1111 59.9552 26.8393 59.9565 28.2539 59.9552C29.7531 59.9552 30.6887 59.9552 31.8066 57.3615C32.5835 55.5599 33.0962 53.7167 33.2914 51.4872C33.298 51.4196 33.3903 51.3988 33.4229 51.4599C33.7313 52.0466 34.5902 52.7321 36.1661 52.442C38.1676 52.0752 38.5346 50.3036 38.64 48.4058C38.856 44.523 36.3015 39.8234 33.8185 38.0439H33.8198Z" fill="#8FD6FF"/>
<path d="M24.4376 52.6241C26.9315 52.6241 28.9533 50.5532 28.9533 47.9987C28.9533 45.4441 26.9315 43.3732 24.4376 43.3732C21.9436 43.3732 19.9219 45.4441 19.9219 47.9987C19.9219 50.5532 21.9436 52.6241 24.4376 52.6241Z" fill="#D9F1FF"/>
<path d="M15.4838 51.4287C15.3835 51.4287 15.2977 51.352 15.2899 51.2492C14.9788 47.4562 15.9132 44.8599 15.9522 44.7506C15.99 44.6492 16.1019 44.5971 16.2021 44.6349C16.3036 44.6726 16.3557 44.7844 16.3179 44.8846C16.3088 44.9106 15.3744 47.5147 15.6777 51.2167C15.6868 51.3246 15.6061 51.4183 15.4994 51.4274C15.4942 51.4274 15.489 51.4274 15.4838 51.4274V51.4287Z" fill="#72BAE3"/>
<path d="M33.3777 51.4287C33.3777 51.4287 33.3673 51.4287 33.3621 51.4287C33.2541 51.4196 33.1747 51.3259 33.1838 51.218C33.4883 47.5108 32.5527 44.9119 32.5435 44.8859C32.5058 44.7844 32.5579 44.6726 32.6594 44.6362C32.7609 44.5997 32.8728 44.6505 32.9092 44.7519C32.9496 44.8599 33.8826 47.4575 33.5716 51.2505C33.5638 51.352 33.4779 51.43 33.3777 51.43V51.4287Z" fill="#72BAE3"/>
<path d="M24.4333 10.7437C37.1358 10.7437 41.7062 20.2366 40.6521 28.3859C39.6852 35.8613 32.5863 40.1668 24.4333 40.1668C16.2803 40.1668 9.18137 35.8626 8.21446 28.3859C7.16036 20.2366 12.5922 10.7437 24.4333 10.7437Z" fill="#8FD6FF"/>
<path d="M9.76284 19.2376C7.0326 16.8 7.67807 11.7973 10.299 10.0426C12.9225 8.28658 16.0159 8.61047 17.8625 12.0783" fill="#8FD6FF"/>
<path d="M39.0996 19.2376C41.8299 16.8 41.1844 11.7973 38.5635 10.0426C35.94 8.28658 32.8466 8.61047 31 12.0783" fill="#8FD6FF"/>
<path d="M24.4299 35.1654C27.4126 35.1654 29.4102 33.637 29.8279 31.4595C30.2456 29.2807 28.6046 27.4415 24.4299 27.4415C20.2551 27.4415 18.6141 29.2807 19.0318 31.4595C19.4496 33.6383 21.4472 35.1654 24.4299 35.1654Z" fill="#E0F6FF"/>
<path d="M24.429 26.7443C25.1733 26.7443 26.0231 26.9823 25.785 27.6158C25.5455 28.2492 24.7751 28.8294 24.429 28.8294C24.0828 28.8294 23.2864 28.2219 23.0729 27.6158C22.8608 26.9823 23.6846 26.7443 24.429 26.7443Z" fill="#282828"/>
<path d="M18.5524 27.5768C19.5063 27.5768 20.3001 26.8275 20.3001 25.9196C20.3001 25.0117 19.5063 24.2625 18.5524 24.2625C17.5985 24.2625 16.8047 25.0117 16.8047 25.9196C16.8047 26.8275 17.5985 27.5768 18.5524 27.5768Z" fill="#282828"/>
<path d="M30.2946 27.5768C31.2485 27.5768 32.0423 26.8275 32.0423 25.9196C32.0423 25.0117 31.2485 24.2625 30.2946 24.2625C29.3407 24.2625 28.5469 25.0117 28.5469 25.9196C28.5469 26.8275 29.3407 27.5768 30.2946 27.5768Z" fill="#282828"/>
<path d="M24.4347 31.5259C24.2551 31.5259 24.1094 31.3802 24.1094 31.2007V28.6993C24.1094 28.5198 24.2551 28.3741 24.4347 28.3741C24.6143 28.3741 24.7601 28.5198 24.7601 28.6993V31.2007C24.7601 31.3802 24.6143 31.5259 24.4347 31.5259Z" fill="#282828"/>
<path d="M24.4318 31.5337C23.3959 31.5337 22.3822 31.2241 21.5766 30.6635C21.4296 30.5607 21.3932 30.3578 21.496 30.2108C21.5988 30.0638 21.8018 30.0274 21.9488 30.1301C22.6451 30.6153 23.5274 30.8833 24.4318 30.8833C25.3363 30.8833 26.2173 30.6153 26.9148 30.1301C27.0619 30.0274 27.2649 30.0638 27.3677 30.2108C27.4705 30.3578 27.434 30.5607 27.287 30.6635C26.4815 31.2241 25.4677 31.5337 24.4318 31.5337Z" fill="#282828"/>
</g>
<defs>
<clipPath id="clip0_1751_11374">
<rect width="48" height="48" rx="24" fill="white"/>
</clipPath>
</defs>
</svg>
