<svg width="24" height="24" viewBox="0 0 24 24" fill="currentColor" xmlns="http://www.w3.org/2000/svg">
<g id="ci:bell">
<path id="Vector" d="M15 17V18C15 18.7956 14.6839 19.5587 14.1213 20.1213C13.5587 20.6839 12.7956 21 12 21C11.2044 21 10.4413 20.6839 9.87868 20.1213C9.31607 19.5587 9 18.7956 9 18V17M15 17H9M15 17H18.59C18.973 17 19.165 17 19.32 16.948C19.4658 16.8986 19.5982 16.8163 19.707 16.7074C19.8157 16.5984 19.8979 16.4659 19.947 16.32C20 16.164 20 15.972 20 15.586C20 15.417 20 15.333 19.986 15.252C19.9614 15.1006 19.9022 14.9568 19.813 14.832C19.765 14.765 19.705 14.705 19.586 14.586L19.196 14.196C19.1338 14.1337 19.0845 14.0598 19.0508 13.9785C19.0172 13.8972 18.9999 13.81 19 13.722V10C19 9.08075 18.8189 8.1705 18.4672 7.32122C18.1154 6.47194 17.5998 5.70026 16.9497 5.05025C16.2997 4.40024 15.5281 3.88463 14.6788 3.53284C13.8295 3.18106 12.9193 3 12 3C11.0807 3 10.1705 3.18106 9.32122 3.53284C8.47194 3.88463 7.70026 4.40024 7.05025 5.05025C6.40024 5.70026 5.88463 6.47194 5.53284 7.32122C5.18106 8.1705 5 9.08075 5 10V13.722C5.00006 13.81 4.98279 13.8972 4.94915 13.9785C4.91552 14.0598 4.8662 14.1337 4.804 14.196L4.414 14.586C4.294 14.706 4.235 14.765 4.188 14.831C4.09803 14.956 4.03814 15.1001 4.013 15.252C4 15.332 4 15.417 4 15.586C4 15.972 4 16.164 4.052 16.32C4.10133 16.4661 4.18378 16.5988 4.29289 16.7077C4.40201 16.8167 4.53484 16.8989 4.681 16.948C4.836 17 5.027 17 5.41 17H9" stroke="#1A1A1A" stroke-width="2" stroke-linecap="round" stroke-linejoin="round"/>
</g>
</svg>
