<svg width="41" height="40" viewBox="0 0 41 40" fill="none" xmlns="http://www.w3.org/2000/svg">
<g id="menuIcon04">
<path id="Vector" d="M11.0242 9C7.54129 9 4.33542 11.3784 4.01879 16.27C3.74669 20.4072 6.46277 23.0504 10.015 23.4701L6.12141 30.0157C5.86415 30.4504 6.17088 31 6.67056 31H11.1479C11.3755 31 11.5833 30.8801 11.6971 30.6852L16.3871 22.8006C16.867 22.161 17.4409 21.1117 18.3858 19.4229C20.251 16.0802 18.3215 9 11.0242 9Z" fill="#E291FF"/>
<path id="Vector_2" d="M36.8063 16.27C36.4897 11.3784 33.2789 9 29.8009 9C22.5036 9 20.5741 16.0752 22.4393 19.4229C23.3842 21.1167 23.9581 22.161 24.438 22.8006L29.1281 30.6852C29.2419 30.8801 29.4546 31 29.6772 31H34.1546C34.6542 31 34.961 30.4504 34.7037 30.0157L30.8102 23.4701C34.3624 23.0504 37.0735 20.4072 36.8063 16.27Z" fill="#E291FF"/>
</g>
</svg>
