<svg width="24" height="20" viewBox="0 0 24 20" fill="none" xmlns="http://www.w3.org/2000/svg">
<path d="M20.75 2.90625H17.7181L16.2273 0.750469C16.1475 0.635035 16.0393 0.540378 15.9124 0.474885C15.7856 0.409391 15.6439 0.375083 15.5 0.375H8.5C8.35609 0.375083 8.21443 0.409391 8.08756 0.474885C7.96069 0.540378 7.85252 0.635035 7.77266 0.750469L6.28078 2.90625H3.25C2.55381 2.90625 1.88613 3.17293 1.39384 3.64764C0.901562 4.12234 0.625 4.76617 0.625 5.4375V17.25C0.625 17.9213 0.901562 18.5652 1.39384 19.0399C1.88613 19.5146 2.55381 19.7812 3.25 19.7812H20.75C21.4462 19.7812 22.1139 19.5146 22.6062 19.0399C23.0984 18.5652 23.375 17.9213 23.375 17.25V5.4375C23.375 4.76617 23.0984 4.12234 22.6062 3.64764C22.1139 3.17293 21.4462 2.90625 20.75 2.90625ZM21.625 17.25C21.625 17.4738 21.5328 17.6884 21.3687 17.8466C21.2046 18.0049 20.9821 18.0938 20.75 18.0938H3.25C3.01794 18.0938 2.79538 18.0049 2.63128 17.8466C2.46719 17.6884 2.375 17.4738 2.375 17.25V5.4375C2.375 5.21372 2.46719 4.99911 2.63128 4.84088C2.79538 4.68264 3.01794 4.59375 3.25 4.59375H6.75C6.89409 4.59384 7.03598 4.55962 7.16305 4.49411C7.29013 4.42861 7.39847 4.33386 7.47844 4.21828L8.96812 2.0625H15.0308L16.5216 4.21828C16.6015 4.33386 16.7099 4.42861 16.8369 4.49411C16.964 4.55962 17.1059 4.59384 17.25 4.59375H20.75C20.9821 4.59375 21.2046 4.68264 21.3687 4.84088C21.5328 4.99911 21.625 5.21372 21.625 5.4375V17.25ZM12 6.28125C11.0482 6.28125 10.1177 6.55342 9.32632 7.06334C8.53491 7.57325 7.91808 8.29802 7.55383 9.14598C7.18958 9.99395 7.09428 10.927 7.27997 11.8272C7.46566 12.7274 7.92401 13.5543 8.59705 14.2033C9.27009 14.8523 10.1276 15.2943 11.0611 15.4733C11.9947 15.6524 12.9623 15.5605 13.8417 15.2093C14.721 14.858 15.4726 14.2632 16.0014 13.5001C16.5303 12.7369 16.8125 11.8397 16.8125 10.9219C16.8111 9.69153 16.3036 8.51198 15.4014 7.642C14.4991 6.77202 13.2759 6.28265 12 6.28125ZM12 13.875C11.3943 13.875 10.8022 13.7018 10.2986 13.3773C9.79494 13.0528 9.40241 12.5916 9.17062 12.052C8.93883 11.5124 8.87818 10.9186 8.99634 10.3457C9.11451 9.7729 9.40619 9.2467 9.83449 8.8337C10.2628 8.4207 10.8085 8.13944 11.4025 8.02549C11.9966 7.91155 12.6124 7.97003 13.172 8.19354C13.7316 8.41706 14.2099 8.79557 14.5464 9.28121C14.8829 9.76685 15.0625 10.3378 15.0625 10.9219C15.0625 11.7051 14.7398 12.4562 14.1655 13.0101C13.5912 13.5639 12.8122 13.875 12 13.875Z" fill="#6B6B6B"/>
</svg>
