<svg width="50" height="43" viewBox="0 0 50 43" fill="none" xmlns="http://www.w3.org/2000/svg">
<path id="Vector" d="M47.0382 14.7124C47.5904 11.4866 46.9377 6.32535 46.3353 2.65292C45.9839 0.469316 43.5241 -0.672115 41.6165 0.419688C39.759 1.46186 37.5502 2.8018 35.5422 4.19137C32.3293 2.70254 28.7651 1.80925 25 1.80925C21.2349 1.80925 17.6205 2.70254 14.4578 4.19137C12.5 2.8018 10.2912 1.46186 8.38353 0.419688C6.4759 -0.672115 4.01606 0.469316 3.66466 2.65292C3.01205 6.32535 2.35944 11.4866 2.96185 14.7124C1.05422 17.9878 0 21.561 0 25.0845C0 36.4492 15.6627 43 25 43C34.3373 43 50 36.3996 50 25.0845C49.9498 21.561 48.8956 17.9878 47.0382 14.7124Z" fill="#F0F0F0"/>
</svg>
