<svg width="28" height="22" viewBox="0 0 28 22" fill="none" xmlns="http://www.w3.org/2000/svg">
<path d="M26.3466 7.51715C26.6643 5.872 26.2949 3.22556 25.9435 1.34844C25.7343 0.23589 24.3728 -0.344054 23.2954 0.216953C22.262 0.751921 21.0168 1.43839 19.9136 2.14852C18.1259 1.38157 16.1262 0.931822 14 0.931822C11.8738 0.931822 9.87415 1.38157 8.08636 2.14852C6.98321 1.43839 5.73796 0.751921 4.70456 0.216953C3.62724 -0.341687 2.26573 0.238257 2.05647 1.34844C1.70511 3.22556 1.33567 5.872 1.65344 7.51715C0.596789 9.18596 0 11.0228 0 12.829C0 18.6355 8.78132 21.9992 14 21.9992C19.2187 21.9992 28 18.6331 28 12.829C28 11.0205 27.4032 9.18596 26.3466 7.51478V7.51715Z" fill="white"/>
</svg>
