<svg width="48" height="48" viewBox="0 0 48 48" fill="none" xmlns="http://www.w3.org/2000/svg">
<g clip-path="url(#clip0_1751_11371)">
<rect width="48" height="48" rx="24" fill="#FBEDFF"/>
<path d="M23.9951 54.2583C24.2514 54.2583 24.4427 54.2336 24.7134 54.1867C24.6718 59.6356 26.3883 59.6369 27.795 59.6356C29.2851 59.6343 30.0802 59.6356 31.1916 56.9404C31.9633 55.0687 32.4734 53.1526 32.6686 50.836C32.6751 50.7658 32.7675 50.7449 32.7987 50.8074C33.1059 51.4174 33.8606 52.1381 35.0761 51.8285C36.6195 51.4356 37.2507 49.6068 37.3548 47.6348C37.5695 43.5999 35.3208 38.7169 32.9523 36.8672H15.0378C12.6694 38.7169 10.4206 43.6012 10.6353 47.6348C10.7394 49.6068 11.3719 51.4356 12.914 51.8285C14.1295 52.1381 14.8843 51.4174 15.1914 50.8074C15.2226 50.7449 15.315 50.7658 15.3215 50.836C15.5167 53.1526 16.0255 55.0674 16.7986 56.9404C17.9099 59.6356 18.705 59.6343 20.1951 59.6356C21.6019 59.6356 23.3197 59.6356 23.2767 54.1867C23.5474 54.2336 23.7374 54.2583 23.9951 54.2583Z" fill="#FAB8FF"/>
<path d="M23.9936 52.017C26.499 52.017 28.5301 49.6072 28.5301 46.6345C28.5301 43.6618 26.499 41.252 23.9936 41.252C21.4881 41.252 19.457 43.6618 19.457 46.6345C19.457 49.6072 21.4881 52.017 23.9936 52.017Z" fill="#F9E0FF"/>
<path d="M15.1707 50.7686C15.0692 50.7686 14.9846 50.6905 14.9768 50.5891C14.6684 46.6517 15.595 43.9552 15.6353 43.8434C15.6704 43.7419 15.7824 43.6886 15.8839 43.7237C15.9854 43.7588 16.0387 43.8707 16.0036 43.9721C15.9945 43.9994 15.064 46.7089 15.3659 50.5592C15.3737 50.6671 15.2943 50.7608 15.1863 50.7686C15.1811 50.7686 15.1759 50.7686 15.1707 50.7686Z" fill="#E59AE6"/>
<path d="M32.8241 50.7686C32.8241 50.7686 32.8137 50.7686 32.8085 50.7686C32.7005 50.7608 32.6211 50.6658 32.6289 50.5592C32.9322 46.7024 32.0017 43.9994 31.9913 43.9721C31.9561 43.8707 32.0095 43.7588 32.111 43.7237C32.2125 43.6886 32.3244 43.7419 32.3596 43.8434C32.3986 43.9565 33.3265 46.6517 33.018 50.5891C33.0102 50.6918 32.9243 50.7686 32.8241 50.7686Z" fill="#E59AE6"/>
<path d="M23.9939 14.7207C24.219 14.7207 24.4234 14.722 24.6121 14.7259C25.3564 14.7376 25.8392 14.7728 26.214 14.8066C26.5485 14.8365 26.7983 14.8664 27.0742 14.8807C29.6847 12.2363 31.7331 9 34.57 9C37.6543 9 38.3518 15.6885 38.7487 19.5257C43.6925 35.0658 32.8132 39.8474 23.9926 39.8474C15.172 39.8474 4.29398 35.0645 9.23783 19.5244C9.63605 15.6872 10.3323 9 13.4165 9C16.2534 9 18.3018 12.2363 20.9123 14.882C21.1882 14.8677 21.4381 14.8378 21.7725 14.8079C22.1486 14.7741 22.6314 14.7389 23.3745 14.7272C23.5619 14.7233 23.7675 14.722 23.9926 14.722L23.9939 14.7207Z" fill="#FAB8FF"/>
<path d="M13.5498 11.9593C12.527 12.1414 11.8399 16.1308 11.8438 17.8127C11.8438 17.9584 12.0025 18.0442 12.1223 17.9649C14.1133 16.6511 15.3652 16.2336 17.4812 15.7042C17.5854 15.6781 17.6387 15.5585 17.5867 15.4622C16.8176 14.0665 14.7068 11.7538 13.5498 11.958V11.9593Z" fill="#E59AE6"/>
<path d="M34.4281 11.9593C35.451 12.1414 36.1381 16.1308 36.1342 17.8127C36.1342 17.9584 35.9754 18.0442 35.8557 17.9649C33.8646 16.6511 32.6127 16.2336 30.4967 15.7042C30.3926 15.6781 30.3392 15.5585 30.3913 15.4622C31.1604 14.0665 33.2712 11.7538 34.4281 11.958V11.9593Z" fill="#E59AE6"/>
<path d="M18.6175 29.1358C19.5896 29.1358 20.3991 28.3255 20.3991 27.346C20.3991 26.3665 19.5896 25.5562 18.6175 25.5562C17.6454 25.5562 16.8359 26.3665 16.8359 27.346C16.8359 28.3255 17.6454 29.1358 18.6175 29.1358Z" fill="#282828"/>
<path d="M29.3597 29.1358C28.3876 29.1358 27.5781 28.3255 27.5781 27.346C27.5781 26.3665 28.3876 25.5562 29.3597 25.5562C30.3318 25.5562 31.1412 26.3665 31.1412 27.346C31.1412 28.3255 30.3318 29.1358 29.3597 29.1358Z" fill="#282828"/>
<path d="M23.9957 27.9741C23.4427 27.9741 22.671 28.1809 22.8727 28.8365C23.064 29.4622 23.7771 29.7366 23.9957 29.7366C24.2144 29.7366 24.9275 29.4622 25.1188 28.8365C25.3205 28.1796 24.5488 27.9741 23.9957 27.9741Z" fill="#282828"/>
<path d="M22.6678 31.8359C22.0627 31.8359 21.546 31.5185 21.2949 30.9657C21.2207 30.8018 21.2923 30.6092 21.4563 30.5351C21.6202 30.461 21.8128 30.5325 21.887 30.6964C22.1512 31.2752 22.7459 31.1959 22.9229 31.1569C23.3484 31.0645 23.6699 30.7718 23.6699 30.4766V29.2187C23.6699 29.0392 23.8156 28.8936 23.9952 28.8936C24.1748 28.8936 24.3205 29.0392 24.3205 29.2187V30.4766C24.3205 31.0905 23.8026 31.6316 23.0608 31.7929C22.9268 31.8216 22.7953 31.8359 22.6678 31.8359Z" fill="#282828"/>
<path d="M25.3207 31.8359C25.1932 31.8359 25.0617 31.8216 24.9277 31.7929C24.1859 31.6316 23.668 31.0905 23.668 30.4766V29.2187C23.668 29.0392 23.8137 28.8936 23.9933 28.8936C24.1729 28.8936 24.3186 29.0392 24.3186 29.2187V30.4766C24.3186 30.7718 24.6401 31.0645 25.0656 31.1569C25.2413 31.1946 25.8373 31.2752 26.1015 30.6964C26.1757 30.5325 26.3696 30.461 26.5323 30.5351C26.6962 30.6092 26.7678 30.8031 26.6936 30.9657C26.4425 31.5185 25.9258 31.8359 25.3207 31.8359Z" fill="#282828"/>
<path d="M12.1687 30.8114C12.0112 30.8114 11.8628 30.7151 11.803 30.559C11.7262 30.3574 11.8277 30.1324 12.0294 30.0556C12.8857 29.7304 13.932 29.5015 14.9757 29.4091C15.1904 29.3909 15.3804 29.5483 15.3986 29.763C15.4182 29.9776 15.2594 30.1675 15.0447 30.1857C14.0699 30.2715 13.0978 30.4849 12.3066 30.7853C12.2611 30.8023 12.2142 30.8114 12.1687 30.8114Z" fill="#D08CD1"/>
<path d="M15.0063 28.4594C14.9698 28.4594 14.9321 28.4542 14.8957 28.4438C14.0446 28.1915 13.1766 28.0627 12.4504 28.0796C12.2331 28.0887 12.0561 27.9144 12.0509 27.6985C12.0457 27.4826 12.2162 27.3044 12.4322 27.2992C13.2377 27.2796 14.1903 27.4201 15.1169 27.6946C15.3238 27.7557 15.4422 27.9729 15.3811 28.1798C15.3303 28.3489 15.1755 28.4594 15.0063 28.4594Z" fill="#D08CD1"/>
<path d="M35.8097 30.8114C35.7642 30.8114 35.7173 30.8036 35.6718 30.7853C34.8805 30.4849 33.9084 30.2728 32.9337 30.1857C32.719 30.1662 32.5602 29.9776 32.5797 29.763C32.5993 29.5483 32.788 29.3909 33.0027 29.4091C34.0464 29.5015 35.0927 29.7317 35.949 30.0556C36.1507 30.1324 36.2522 30.3574 36.1754 30.559C36.1168 30.7151 35.9672 30.8114 35.8097 30.8114Z" fill="#D08CD1"/>
<path d="M32.969 28.4594C32.8011 28.4594 32.645 28.3502 32.5942 28.1798C32.5331 27.9729 32.6515 27.7557 32.8584 27.6946C33.785 27.4201 34.7389 27.2796 35.5431 27.2992C35.7591 27.3044 35.9296 27.4826 35.9244 27.6985C35.9192 27.9144 35.7409 28.0861 35.5249 28.0796C34.7987 28.0614 33.9307 28.1915 33.0796 28.4438C33.0432 28.4542 33.0055 28.4594 32.969 28.4594Z" fill="#D08CD1"/>
</g>
<defs>
<clipPath id="clip0_1751_11371">
<rect width="48" height="48" rx="24" fill="white"/>
</clipPath>
</defs>
</svg>
