<svg width="48" height="48" viewBox="0 0 48 48" fill="none" xmlns="http://www.w3.org/2000/svg">
<g clip-path="url(#clip0_1751_11371)">
<rect width="48" height="48" rx="24" fill="#FBEDFF"/>
<path d="M23.9912 54.2585C24.2475 54.2585 24.4388 54.2338 24.7095 54.1869C24.6679 59.6358 26.3843 59.6371 27.7911 59.6358C29.2812 59.6345 30.0763 59.6358 31.1876 56.9406C31.9594 55.0688 32.4695 53.1528 32.6647 50.8362C32.6712 50.7659 32.7636 50.7451 32.7948 50.8076C33.1019 51.4176 33.8567 52.1382 35.0722 51.8287C36.6156 51.4358 37.2468 49.607 37.3509 47.635C37.5656 43.6001 35.3169 38.717 32.9484 36.8674H15.0339C12.6654 38.717 10.4167 43.6014 10.6314 47.635C10.7355 49.607 11.368 51.4358 12.9101 51.8287C14.1256 52.1382 14.8804 51.4176 15.1875 50.8076C15.2187 50.7451 15.3111 50.7659 15.3176 50.8362C15.5128 53.1528 16.0216 55.0675 16.7946 56.9406C17.906 59.6358 18.7011 59.6345 20.1912 59.6358C21.598 59.6358 23.3157 59.6358 23.2728 54.1869C23.5435 54.2338 23.7335 54.2585 23.9912 54.2585Z" fill="#FAB8FF"/>
<path d="M23.9975 52.0173C26.5029 52.0173 28.534 49.6075 28.534 46.6348C28.534 43.6621 26.5029 41.2523 23.9975 41.2523C21.492 41.2523 19.4609 43.6621 19.4609 46.6348C19.4609 49.6075 21.492 52.0173 23.9975 52.0173Z" fill="#F9E0FF"/>
<path d="M15.1707 50.7685C15.0692 50.7685 14.9846 50.6905 14.9768 50.589C14.6684 46.6516 15.595 43.9552 15.6353 43.8433C15.6704 43.7418 15.7824 43.6885 15.8839 43.7236C15.9854 43.7587 16.0387 43.8706 16.0036 43.9721C15.9945 43.9994 15.064 46.7089 15.3659 50.5591C15.3737 50.6671 15.2943 50.7607 15.1863 50.7685C15.1811 50.7685 15.1759 50.7685 15.1707 50.7685Z" fill="#E59AE6"/>
<path d="M32.828 50.7685C32.828 50.7685 32.8176 50.7685 32.8124 50.7685C32.7044 50.7607 32.625 50.6658 32.6328 50.5591C32.9361 46.7024 32.0056 43.9994 31.9952 43.9721C31.96 43.8706 32.0134 43.7587 32.1149 43.7236C32.2164 43.6885 32.3283 43.7418 32.3635 43.8433C32.4025 43.9565 33.3304 46.6516 33.0219 50.589C33.0141 50.6918 32.9282 50.7685 32.828 50.7685Z" fill="#E59AE6"/>
<path d="M23.9939 14.7207C24.219 14.7207 24.4234 14.722 24.6121 14.7259C25.3564 14.7376 25.8392 14.7728 26.214 14.8066C26.5485 14.8365 26.7983 14.8664 27.0742 14.8807C29.6847 12.2363 31.7331 9 34.57 9C37.6543 9 38.3518 15.6885 38.7487 19.5257C43.6925 35.0658 32.8132 39.8474 23.9926 39.8474C15.172 39.8474 4.29398 35.0645 9.23783 19.5244C9.63605 15.6872 10.3323 9 13.4165 9C16.2534 9 18.3018 12.2363 20.9123 14.882C21.1882 14.8677 21.4381 14.8378 21.7725 14.8079C22.1486 14.7741 22.6314 14.7389 23.3745 14.7272C23.5619 14.7233 23.7675 14.722 23.9926 14.722L23.9939 14.7207Z" fill="#FAB8FF"/>
<path d="M13.5498 11.9593C12.527 12.1414 11.8399 16.1308 11.8438 17.8127C11.8438 17.9584 12.0025 18.0442 12.1223 17.9649C14.1133 16.6511 15.3652 16.2336 17.4812 15.7042C17.5854 15.6781 17.6387 15.5585 17.5867 15.4622C16.8176 14.0665 14.7068 11.7538 13.5498 11.958V11.9593Z" fill="#E59AE6"/>
<path d="M34.432 11.9593C35.4549 12.1414 36.142 16.1308 36.1381 17.8127C36.1381 17.9584 35.9793 18.0442 35.8596 17.9649C33.8685 16.6511 32.6166 16.2336 30.5006 15.7042C30.3965 15.6781 30.3431 15.5585 30.3952 15.4622C31.1643 14.0665 33.2751 11.7538 34.432 11.958V11.9593Z" fill="#E59AE6"/>
<path d="M18.6175 29.1357C19.5896 29.1357 20.3991 28.3253 20.3991 27.3459C20.3991 26.3664 19.5896 25.556 18.6175 25.556C17.6454 25.556 16.8359 26.3664 16.8359 27.3459C16.8359 28.3253 17.6454 29.1357 18.6175 29.1357Z" fill="#282828"/>
<path d="M29.3597 29.1357C28.3876 29.1357 27.5781 28.3253 27.5781 27.3459C27.5781 26.3664 28.3876 25.556 29.3597 25.556C30.3318 25.556 31.1412 26.3664 31.1412 27.3459C31.1412 28.3253 30.3318 29.1357 29.3597 29.1357Z" fill="#282828"/>
<path d="M23.9996 27.9741C23.4466 27.9741 22.6749 28.1809 22.8766 28.8365C23.0679 29.4622 23.781 29.7366 23.9996 29.7366C24.2183 29.7366 24.9314 29.4622 25.1227 28.8365C25.3244 28.1796 24.5527 27.9741 23.9996 27.9741Z" fill="#282828"/>
<path d="M22.6678 31.836C22.0627 31.836 21.546 31.5187 21.2949 30.9658C21.2207 30.8019 21.2923 30.6094 21.4563 30.5353C21.6202 30.4611 21.8128 30.5327 21.887 30.6966C22.1512 31.2754 22.7459 31.1961 22.9229 31.1571C23.3484 31.0647 23.6699 30.772 23.6699 30.4768V29.2189C23.6699 29.0394 23.8156 28.8937 23.9952 28.8937C24.1748 28.8937 24.3205 29.0394 24.3205 29.2189V30.4768C24.3205 31.0907 23.8026 31.6318 23.0608 31.7931C22.9268 31.8217 22.7953 31.836 22.6678 31.836Z" fill="#282828"/>
<path d="M25.3246 31.836C25.1971 31.836 25.0656 31.8217 24.9316 31.7931C24.1898 31.6318 23.6719 31.0907 23.6719 30.4768V29.2189C23.6719 29.0394 23.8176 28.8937 23.9972 28.8937C24.1768 28.8937 24.3226 29.0394 24.3226 29.2189V30.4768C24.3226 30.772 24.644 31.0647 25.0695 31.1571C25.2452 31.1948 25.8412 31.2754 26.1054 30.6966C26.1796 30.5327 26.3735 30.4611 26.5362 30.5353C26.7001 30.6094 26.7717 30.8032 26.6975 30.9658C26.4464 31.5187 25.9297 31.836 25.3246 31.836Z" fill="#282828"/>
<path d="M12.1726 30.8111C12.0151 30.8111 11.8668 30.7148 11.8069 30.5587C11.7301 30.3571 11.8316 30.1321 12.0333 30.0553C12.8896 29.7301 13.9359 29.5012 14.9796 29.4088C15.1943 29.3906 15.3843 29.548 15.4025 29.7626C15.4221 29.9773 15.2633 30.1672 15.0486 30.1854C14.0739 30.2712 13.1017 30.4846 12.3105 30.785C12.265 30.802 12.2181 30.8111 12.1726 30.8111Z" fill="#D08CD1"/>
<path d="M15.0102 28.4593C14.9737 28.4593 14.936 28.4541 14.8996 28.4437C14.0485 28.1914 13.1805 28.0626 12.4543 28.0795C12.237 28.0886 12.06 27.9143 12.0548 27.6984C12.0496 27.4824 12.2201 27.3042 12.4361 27.299C13.2416 27.2795 14.1942 27.42 15.1208 27.6945C15.3277 27.7556 15.4461 27.9728 15.385 28.1796C15.3342 28.3487 15.1794 28.4593 15.0102 28.4593Z" fill="#D08CD1"/>
<path d="M35.8175 30.8111C35.772 30.8111 35.7251 30.8033 35.6796 30.785C34.8884 30.4846 33.9162 30.2725 32.9415 30.1854C32.7268 30.1659 32.568 29.9773 32.5876 29.7626C32.6071 29.548 32.7958 29.3906 33.0105 29.4088C34.0542 29.5012 35.1005 29.7314 35.9568 30.0553C36.1585 30.1321 36.26 30.3571 36.1832 30.5587C36.1246 30.7148 35.975 30.8111 35.8175 30.8111Z" fill="#D08CD1"/>
<path d="M32.9768 28.4593C32.809 28.4593 32.6528 28.35 32.602 28.1796C32.5409 27.9728 32.6593 27.7556 32.8662 27.6945C33.7928 27.42 34.7467 27.2795 35.5509 27.299C35.7669 27.3042 35.9374 27.4824 35.9322 27.6984C35.927 27.9143 35.7487 28.086 35.5327 28.0795C34.8065 28.0613 33.9385 28.1914 33.0874 28.4437C33.051 28.4541 33.0133 28.4593 32.9768 28.4593Z" fill="#D08CD1"/>
</g>
<defs>
<clipPath id="clip0_1751_11371">
<rect width="48" height="48" rx="24" fill="white"/>
</clipPath>
</defs>
</svg>
