<svg width="86" height="115" viewBox="0 0 86 115" fill="none" xmlns="http://www.w3.org/2000/svg">
<mask id="mask0_1738_11198" style="mask-type:alpha" maskUnits="userSpaceOnUse" x="0" y="0" width="86" height="115">
<rect width="86" height="115" fill="#D9D9D9"/>
</mask>
<g mask="url(#mask0_1738_11198)">
<path d="M64.0911 75.4726H21.527C15.8968 79.9007 8.73365 91.5958 9.24462 101.258C9.49206 105.981 10.3597 110.386 15.0902 111.302C18.8147 112.021 20.8425 110.318 21.572 108.858C21.6459 108.706 21.8676 108.758 21.8805 108.926C22.3432 114.474 23.5548 119.061 25.3897 123.544C28.0313 129.999 30.2423 129.996 33.7837 129.999C37.1258 129.999 41.2071 129.999 41.1075 116.951C41.7502 117.064 42.2033 117.122 42.8139 117.122C43.4245 117.122 43.8776 117.064 44.5203 116.951C44.4207 129.999 48.5019 130.002 51.8441 129.999C55.3855 129.999 57.5964 129.999 60.238 123.544C62.073 119.061 63.2845 114.474 63.7473 108.926C63.7601 108.758 63.9818 108.706 64.0558 108.858C64.7852 110.318 66.813 112.024 70.5376 111.302C75.2648 110.389 76.1324 105.981 76.3831 101.258C76.8909 91.5958 69.7278 79.9007 64.1007 75.4726H64.0911Z" fill="#FAB8FF"/>
<path d="M42.8144 111.755C48.705 111.755 53.4803 106.602 53.4803 100.245C53.4803 93.8877 48.705 88.7343 42.8144 88.7343C36.9237 88.7343 32.1484 93.8877 32.1484 100.245C32.1484 106.602 36.9237 111.755 42.8144 111.755Z" fill="#F9E0FF"/>
<path d="M21.6758 108.781C21.4251 108.781 21.2162 108.586 21.197 108.334C20.461 98.9015 22.6656 92.4406 22.762 92.172C22.8487 91.9195 23.1251 91.7868 23.3758 91.8742C23.6264 91.9616 23.7582 92.2399 23.6714 92.4924C23.6489 92.5572 21.4412 99.0407 22.1578 108.256C22.1771 108.525 21.9811 108.758 21.7143 108.777C21.7015 108.777 21.6886 108.777 21.6758 108.777V108.781Z" fill="#E59AE6"/>
<path d="M63.9442 108.781C63.9442 108.781 63.9185 108.781 63.9056 108.781C63.6389 108.761 63.4429 108.525 63.4622 108.26C64.1788 99.044 61.971 92.5604 61.9486 92.4957C61.8618 92.2432 61.9935 91.9648 62.2442 91.8774C62.4949 91.79 62.7712 91.9227 62.858 92.1752C62.9512 92.4471 65.1557 98.9048 64.423 108.337C64.4037 108.593 64.1917 108.784 63.9442 108.784V108.781Z" fill="#E59AE6"/>
<path d="M42.8106 84.8759C60.4822 84.8759 87.9167 73.6826 85.4679 46.1395C85.1305 42.3393 84.4107 36.6294 80.0563 28.7895C80.413 18.9363 78.6423 7.1765 73.5969 4.64521C67.5232 1.59926 57.4454 9.95702 51.2367 16.7611C49.6556 16.6704 44.5171 16.6737 42.8106 16.6737C41.1042 16.6737 35.9657 16.6737 34.3846 16.7611C28.1759 9.95702 18.1013 1.59926 12.0244 4.64521C6.98224 7.17326 5.20833 18.933 5.56504 28.7895C1.2074 36.6294 0.490769 42.3393 0.153341 46.1395C-2.29542 73.6826 25.1391 84.8759 42.8106 84.8759Z" fill="#FAB8FF"/>
<path d="M27.9511 52.7235C30.2616 52.7235 32.1834 50.8363 32.1834 48.5543C32.1834 46.2723 30.2584 44.3851 27.9511 44.3851C25.6437 44.3851 23.7188 46.2723 23.7188 48.5543C23.7188 50.8363 25.6437 52.7235 27.9511 52.7235Z" fill="#282828"/>
<path d="M57.662 52.7235C55.3514 52.7235 53.4297 50.8363 53.4297 48.5543C53.4297 46.2723 55.3546 44.3851 57.662 44.3851C59.9694 44.3851 61.8943 46.2723 61.8943 48.5543C61.8943 50.8363 59.9694 52.7235 57.662 52.7235Z" fill="#282828"/>
<path d="M42.8045 47.1624C41.1109 47.1624 38.749 47.7806 39.366 49.7519C39.9541 51.6293 41.7954 52.1084 42.8045 52.1084C43.8136 52.1084 45.6582 51.6293 46.2431 49.7519C46.8601 47.7806 44.4981 47.1624 42.8045 47.1624Z" fill="#282828"/>
<path d="M37.4072 61.1233C35.4566 61.1233 33.3774 60.2525 32.288 57.7763C32.108 57.3684 32.2912 56.8893 32.6961 56.7081C33.101 56.5268 33.5766 56.7113 33.7566 57.1192C34.9777 59.8997 37.6868 59.5598 38.487 59.3883C40.1902 59.0257 42.0027 57.6986 42.0027 55.9506V50.6388C42.0027 50.1921 42.3626 49.8296 42.8061 49.8296C43.2495 49.8296 43.6095 50.1921 43.6095 50.6388V55.9506C43.6095 58.579 41.1993 60.4662 38.8212 60.9711C38.3713 61.0682 37.8925 61.12 37.4104 61.12L37.4072 61.1233Z" fill="#282828"/>
<path d="M48.199 61.1233C47.7138 61.1233 47.2382 61.0682 46.7883 60.9744C44.4102 60.4662 42 58.579 42 55.9539V50.6421C42 50.1954 42.3599 49.8328 42.8034 49.8328C43.2469 49.8328 43.6068 50.1954 43.6068 50.6421V55.9539C43.6068 57.7018 45.4161 59.029 47.1225 59.3915C47.9227 59.5631 50.6317 59.9029 51.8529 57.1224C52.0329 56.7146 52.5085 56.53 52.9134 56.7113C53.3183 56.8926 53.5015 57.3716 53.3215 57.7795C52.2321 60.2558 50.1529 61.1265 48.2022 61.1265L48.199 61.1233Z" fill="#282828"/>
<path d="M66.767 61.1038C70.2367 61.1038 73.0496 58.9619 73.0496 56.3197C73.0496 53.6774 70.2367 51.5355 66.767 51.5355C63.2972 51.5355 60.4844 53.6774 60.4844 56.3197C60.4844 58.9619 63.2972 61.1038 66.767 61.1038Z" fill="#E59AE6"/>
<path d="M18.8529 61.1038C22.3227 61.1038 25.1355 58.9619 25.1355 56.3197C25.1355 53.6774 22.3227 51.5355 18.8529 51.5355C15.3831 51.5355 12.5703 53.6774 12.5703 56.3197C12.5703 58.9619 15.3831 61.1038 18.8529 61.1038Z" fill="#E59AE6"/>
</g>
</svg>
