<svg width="current" height="current" viewBox="0 0 32 32" fill="none" xmlns="http://www.w3.org/2000/svg">
<rect width="32" height="32" rx="16" fill="#E8A6FF"/>
<g clip-path="url(#clip0_979_6063)">
<path d="M23.9371 13.7836C24.1414 12.7367 23.9039 11.0526 23.678 9.8581C23.5435 9.15011 22.6682 8.78106 21.9756 9.13806C21.3113 9.4785 20.5108 9.91534 19.8016 10.3672C18.6523 9.87918 17.3669 9.59298 16 9.59298C14.6331 9.59298 13.3477 9.87918 12.1984 10.3672C11.4892 9.91534 10.6887 9.4785 10.0244 9.13806C9.3318 8.78256 8.45654 9.15162 8.32202 9.8581C8.09614 11.0526 7.85865 12.7367 8.06293 13.7836C7.38365 14.8456 7 16.0145 7 17.1639C7 20.859 12.6451 22.9995 16 22.9995C19.3549 22.9995 25 20.8574 25 17.1639C25 16.013 24.6164 14.8456 23.9371 13.7821V13.7836Z" fill="white"/>
</g>
<defs>
<clipPath id="clip0_979_6063">
<rect width="18" height="14" fill="white" transform="translate(7 9)"/>
</clipPath>
</defs>
</svg>
