<svg width="56" height="56" viewBox="0 0 56 56" fill="none" xmlns="http://www.w3.org/2000/svg">
<circle cx="28" cy="28" r="28" fill="#E7E7E7"/>
<g clip-path="url(#clip0_1180_9260)">
<path d="M40.4074 39.584C40.3317 39.584 40.256 39.5465 40.1929 39.4841L36.0434 35.2022H15.5731C15.3966 35.2022 15.2578 35.0524 15.2578 34.8651V16.7511C15.2578 16.5639 15.3966 16.4141 15.5731 16.4141H40.4074C40.5839 16.4141 40.7227 16.5639 40.7227 16.7511V39.2469C40.7227 39.3468 40.6975 39.4342 40.6218 39.4841C40.5587 39.5465 40.4704 39.584 40.3821 39.584H40.4074Z" fill="#CCCCCC"/>
<path d="M39.4736 17.6628V36.9377L37.3294 34.7156L36.5853 33.9416H16.5186V17.6628H39.4736ZM40.4195 15.166H15.5727C14.7024 15.166 13.9961 15.8776 13.9961 16.7515V34.8654C13.9961 35.7393 14.7024 36.4509 15.5727 36.4509H35.5006L39.2718 40.3458C39.5997 40.6829 40.0033 40.8327 40.3943 40.8327C41.2015 40.8327 41.9835 40.2085 41.9835 39.2472V16.7515C41.9835 15.8776 41.2772 15.166 40.4069 15.166H40.4195Z" fill="#CCCCCC"/>
<path d="M21.207 22.8926H32.7476" stroke="#F2F2F2" stroke-width="1.5" stroke-miterlimit="10" stroke-linecap="round"/>
<path d="M21.207 28.1982H27.9926" stroke="#F2F2F2" stroke-width="1.5" stroke-miterlimit="10" stroke-linecap="round"/>
</g>
<defs>
<clipPath id="clip0_1180_9260">
<rect width="28" height="25.6667" fill="white" transform="translate(13.9961 15.166)"/>
</clipPath>
</defs>
</svg>
