<svg width="24" height="24" viewBox="0 0 24 24" fill="none" xmlns="http://www.w3.org/2000/svg">
<path d="M9.00015 16.17L5.53015 12.7C5.34317 12.513 5.08957 12.408 4.82515 12.408C4.56072 12.408 4.30712 12.513 4.12015 12.7C3.93317 12.887 3.82813 13.1406 3.82812 13.405C3.82813 13.5359 3.85391 13.6656 3.90402 13.7865C3.95412 13.9075 4.02756 14.0174 4.12015 14.11L8.30015 18.29C8.69015 18.68 9.32015 18.68 9.71015 18.29L20.2901 7.70999C20.4771 7.52301 20.5822 7.26941 20.5822 7.00499C20.5822 6.74056 20.4771 6.48696 20.2901 6.29999C20.1032 6.11301 19.8496 6.00797 19.5851 6.00797C19.3207 6.00797 19.0671 6.11301 18.8801 6.29999L9.00015 16.17Z" fill="currentColor"/>
</svg>
