<svg width="16" height="16" viewBox="0 0 16 16" fill="none" xmlns="http://www.w3.org/2000/svg">
<g clip-path="url(#clip0_2859_15179)">
<path d="M8 0C3.58175 0 0 3.58175 0 8C0 12.4185 3.58175 16 8 16C12.4185 16 16 12.4185 16 8C16 3.58175 12.4185 0 8 0ZM8 15.0157C4.14025 15.0157 1 11.8597 1 7.99997C1 4.14022 4.14025 0.999969 8 0.999969C11.8597 0.999969 15 4.14023 15 7.99997C15 11.8597 11.8597 15.0157 8 15.0157ZM11.5 7.5H8.5V4.5C8.5 4.224 8.276 4 8 4C7.724 4 7.5 4.224 7.5 4.5V7.5H4.5C4.224 7.5 4 7.724 4 8C4 8.276 4.224 8.5 4.5 8.5H7.5V11.5C7.5 11.776 7.724 12 8 12C8.276 12 8.5 11.776 8.5 11.5V8.5H11.5C11.776 8.5 12 8.276 12 8C12 7.724 11.776 7.5 11.5 7.5Z" fill="current"/>
</g>
<defs>
<clipPath id="clip0_2859_15179">
<rect width="16" height="16" fill="white"/>
</clipPath>
</defs>
</svg>
