<svg width="16" height="16" viewBox="0 0 16 16" fill="none" xmlns="http://www.w3.org/2000/svg">
<g clip-path="url(#clip0_2859_15160)">
<path d="M8 0C12.4219 0 16 3.57812 16 8C16 12.4219 12.4219 16 8 16C3.57812 16 0 12.4219 0 8C0 3.57812 3.57812 0 8 0ZM8 15.0156C11.8594 15.0156 15 11.8594 15 8C15 4.14062 11.8594 1 8 1C4.14062 1 1 4.14062 1 8C1 11.8594 4.14062 15.0156 8 15.0156ZM7.45312 8.5H4.5C4.21875 8.5 4 8.28125 4 8C4 7.71875 4.21875 7.5 4.5 7.5H11.5C11.7812 7.5 12 7.71875 12 8C12 8.28125 11.7812 8.5 11.5 8.5H7.45312Z" fill="black"/>
</g>
<defs>
<clipPath id="clip0_2859_15160">
<rect width="16" height="16" fill="white"/>
</clipPath>
</defs>
</svg>
