<svg width="41" height="40" viewBox="0 0 41 40" fill="none" xmlns="http://www.w3.org/2000/svg">
<g id="menuIcon03">
<path id="Vector" d="M27.5852 9C24.5129 9 21.6534 10.8587 20.8074 14.6611C19.9614 10.8587 17.1018 9 14.0295 9C6.7322 9 4.79779 16.0752 6.66788 19.4229C7.61282 21.1167 8.18671 22.161 8.66661 22.8006L13.3567 30.6852C13.4754 30.8801 13.6832 31 13.9058 31H18.3832C18.8829 31 19.1945 30.4504 18.9323 30.0157L15.0388 23.4701C17.8192 23.1404 20.0801 21.4515 20.8024 18.7434C21.5247 21.4515 23.7857 23.1404 26.5661 23.4701L22.6725 30.0157C22.4153 30.4504 22.722 31 23.2217 31H27.699C27.9266 31 28.1344 30.8801 28.2482 30.6852L32.9382 22.8006C33.4181 22.161 33.992 21.1117 34.937 19.4229C36.8021 16.0802 34.8726 9 27.5753 9H27.5852Z" fill="#2FD714"/>
</g>
</svg>
