<svg width="32" height="39" viewBox="0 0 32 39" fill="none" xmlns="http://www.w3.org/2000/svg">
<path d="M15.9912 45.2585C16.2475 45.2585 16.4388 45.2338 16.7095 45.1869C16.6679 50.6358 18.3843 50.6371 19.7911 50.6358C21.2812 50.6345 22.0763 50.6358 23.1876 47.9406C23.9594 46.0688 24.4695 44.1528 24.6647 41.8362C24.6712 41.7659 24.7636 41.7451 24.7948 41.8076C25.1019 42.4176 25.8567 43.1382 27.0722 42.8287C28.6156 42.4358 29.2468 40.607 29.3509 38.635C29.5656 34.6001 27.3169 29.717 24.9484 27.8674H7.03391C4.66544 29.717 2.4167 34.6014 2.63142 38.635C2.73553 40.607 3.36799 42.4358 4.9101 42.8287C6.12557 43.1382 6.88035 42.4176 7.18747 41.8076C7.21871 41.7451 7.3111 41.7659 7.31761 41.8362C7.51281 44.1528 8.02164 46.0675 8.79465 47.9406C9.90601 50.6358 10.7011 50.6345 12.1912 50.6358C13.598 50.6358 15.3157 50.6358 15.2728 45.1869C15.5435 45.2338 15.7335 45.2585 15.9912 45.2585Z" fill="#FAB8FF"/>
<path d="M15.9975 43.0173C18.5029 43.0173 20.534 40.6075 20.534 37.6348C20.534 34.6621 18.5029 32.2523 15.9975 32.2523C13.492 32.2523 11.4609 34.6621 11.4609 37.6348C11.4609 40.6075 13.492 43.0173 15.9975 43.0173Z" fill="#F9E0FF"/>
<path d="M7.17072 41.7685C7.06921 41.7685 6.98463 41.6905 6.97682 41.589C6.6684 37.6516 7.59496 34.9552 7.6353 34.8433C7.67044 34.7418 7.78236 34.6885 7.88386 34.7236C7.98537 34.7587 8.03872 34.8706 8.00359 34.9721C7.99448 34.9994 7.06401 37.7089 7.36592 41.5591C7.37373 41.6671 7.29435 41.7607 7.18634 41.7685C7.18113 41.7685 7.17592 41.7685 7.17072 41.7685Z" fill="#E59AE6"/>
<path d="M24.828 41.7685C24.828 41.7685 24.8176 41.7685 24.8124 41.7685C24.7044 41.7607 24.625 41.6658 24.6328 41.5591C24.9361 37.7024 24.0056 34.9994 23.9952 34.9721C23.96 34.8706 24.0134 34.7587 24.1149 34.7236C24.2164 34.6885 24.3283 34.7418 24.3635 34.8433C24.4025 34.9565 25.3304 37.6516 25.0219 41.589C25.0141 41.6918 24.9282 41.7685 24.828 41.7685Z" fill="#E59AE6"/>
<path d="M15.9939 5.72072C16.219 5.72072 16.4234 5.72202 16.6121 5.72592C17.3564 5.73763 17.8392 5.77275 18.214 5.80657C18.5485 5.83649 18.7983 5.86641 19.0742 5.88071C21.6847 3.23628 23.7331 0 26.57 0C29.6543 0 30.3518 6.68848 30.7487 10.5257C35.6925 26.0658 24.8132 30.8474 15.9926 30.8474C7.17202 30.8474 -3.70602 26.0645 1.23783 10.5244C1.63605 6.68718 2.33228 0 5.41649 0C8.25345 0 10.3018 3.23628 12.9123 5.88201C13.1882 5.86771 13.4381 5.83779 13.7725 5.80787C14.1486 5.77405 14.6314 5.73893 15.3745 5.72722C15.5619 5.72332 15.7675 5.72202 15.9926 5.72202L15.9939 5.72072Z" fill="#FAB8FF"/>
<path d="M5.54984 2.95928C4.52698 3.14139 3.83986 7.1308 3.84377 8.81268C3.84377 8.95836 4.00253 9.04421 4.12226 8.96487C6.11333 7.6511 7.36524 7.23356 9.48124 6.70415C9.58535 6.67814 9.63871 6.55847 9.58665 6.46221C8.81755 5.0665 6.70675 2.75376 5.54984 2.95798V2.95928Z" fill="#E59AE6"/>
<path d="M26.432 2.95928C27.4549 3.14139 28.142 7.1308 28.1381 8.81268C28.1381 8.95836 27.9793 9.04421 27.8596 8.96487C25.8685 7.6511 24.6166 7.23356 22.5006 6.70415C22.3965 6.67814 22.3431 6.55847 22.3952 6.46221C23.1643 5.0665 25.2751 2.75376 26.432 2.95798V2.95928Z" fill="#E59AE6"/>
<path d="M10.6175 20.1357C11.5896 20.1357 12.3991 19.3253 12.3991 18.3459C12.3991 17.3664 11.5896 16.556 10.6175 16.556C9.64538 16.556 8.83594 17.3664 8.83594 18.3459C8.83594 19.3253 9.64538 20.1357 10.6175 20.1357Z" fill="#282828"/>
<path d="M21.3597 20.1357C20.3876 20.1357 19.5781 19.3253 19.5781 18.3459C19.5781 17.3664 20.3876 16.556 21.3597 16.556C22.3318 16.556 23.1412 17.3664 23.1412 18.3459C23.1412 19.3253 22.3318 20.1357 21.3597 20.1357Z" fill="#282828"/>
<path d="M15.9996 18.9741C15.4466 18.9741 14.6749 19.1809 14.8766 19.8365C15.0679 20.4622 15.781 20.7366 15.9996 20.7366C16.2183 20.7366 16.9314 20.4622 17.1227 19.8365C17.3244 19.1796 16.5527 18.9741 15.9996 18.9741Z" fill="#282828"/>
<path d="M14.6678 22.836C14.0627 22.836 13.546 22.5187 13.2949 21.9658C13.2207 21.8019 13.2923 21.6094 13.4563 21.5353C13.6202 21.4611 13.8128 21.5327 13.887 21.6966C14.1512 22.2754 14.7459 22.1961 14.9229 22.1571C15.3484 22.0647 15.6699 21.772 15.6699 21.4768V20.2189C15.6699 20.0394 15.8156 19.8937 15.9952 19.8937C16.1748 19.8937 16.3205 20.0394 16.3205 20.2189V21.4768C16.3205 22.0907 15.8026 22.6318 15.0608 22.7931C14.9268 22.8217 14.7953 22.836 14.6678 22.836Z" fill="#282828"/>
<path d="M17.3246 22.836C17.1971 22.836 17.0656 22.8217 16.9316 22.7931C16.1898 22.6318 15.6719 22.0907 15.6719 21.4768V20.2189C15.6719 20.0394 15.8176 19.8937 15.9972 19.8937C16.1768 19.8937 16.3226 20.0394 16.3226 20.2189V21.4768C16.3226 21.772 16.644 22.0647 17.0695 22.1571C17.2452 22.1948 17.8412 22.2754 18.1054 21.6966C18.1796 21.5327 18.3735 21.4611 18.5362 21.5353C18.7001 21.6094 18.7717 21.8032 18.6975 21.9658C18.4464 22.5187 17.9297 22.836 17.3246 22.836Z" fill="#282828"/>
<path d="M4.17257 21.8111C4.01511 21.8111 3.86675 21.7148 3.80689 21.5587C3.73011 21.3571 3.83162 21.1321 4.03333 21.0553C4.88962 20.7301 5.93591 20.5012 6.9796 20.4088C7.19432 20.3906 7.38432 20.548 7.40254 20.7626C7.42206 20.9773 7.26329 21.1672 7.04857 21.1854C6.07385 21.2712 5.10174 21.4846 4.31051 21.785C4.26497 21.802 4.21812 21.8111 4.17257 21.8111Z" fill="#D08CD1"/>
<path d="M7.01018 19.4593C6.97375 19.4593 6.93601 19.4541 6.89957 19.4437C6.04848 19.1914 5.18048 19.0626 4.45432 19.0795C4.23699 19.0886 4.06001 18.9143 4.0548 18.6984C4.0496 18.4824 4.22008 18.3042 4.4361 18.299C5.24164 18.2795 6.19423 18.42 7.1208 18.6945C7.32772 18.7556 7.44614 18.9728 7.38497 19.1796C7.33422 19.3487 7.17936 19.4593 7.01018 19.4593Z" fill="#D08CD1"/>
<path d="M27.8175 21.8111C27.772 21.8111 27.7251 21.8033 27.6796 21.785C26.8884 21.4846 25.9162 21.2725 24.9415 21.1854C24.7268 21.1659 24.568 20.9773 24.5876 20.7626C24.6071 20.548 24.7958 20.3906 25.0105 20.4088C26.0542 20.5012 27.1005 20.7314 27.9568 21.0553C28.1585 21.1321 28.26 21.3571 28.1832 21.5587C28.1246 21.7148 27.975 21.8111 27.8175 21.8111Z" fill="#D08CD1"/>
<path d="M24.9768 19.4593C24.809 19.4593 24.6528 19.35 24.602 19.1796C24.5409 18.9728 24.6593 18.7556 24.8662 18.6945C25.7928 18.42 26.7467 18.2795 27.5509 18.299C27.7669 18.3042 27.9374 18.4824 27.9322 18.6984C27.927 18.9143 27.7487 19.086 27.5327 19.0795C26.8065 19.0613 25.9385 19.1914 25.0874 19.4437C25.051 19.4541 25.0133 19.4593 24.9768 19.4593Z" fill="#D08CD1"/>
</svg>
