<svg width="33" height="39" viewBox="0 0 33 39" fill="none" xmlns="http://www.w3.org/2000/svg">
<path d="M25.8198 29.0439H7.04513C4.56214 30.8234 2.00888 35.523 2.2236 39.4058C2.32901 41.3036 2.69599 43.0739 4.69748 43.442C6.27342 43.7308 7.13232 43.0466 7.44074 42.4599C7.47197 42.3988 7.56567 42.4196 7.57218 42.4872C7.76738 44.7167 8.28142 46.5599 9.05702 48.3615C10.1749 50.9552 11.1106 50.9539 12.6097 50.9552C14.0243 50.9552 15.7525 50.9552 15.7096 45.7118C15.9815 45.7573 16.1728 45.7808 16.4318 45.7808C16.6908 45.7808 16.8821 45.7573 17.1541 45.7118C17.1111 50.9552 18.8393 50.9565 20.2539 50.9552C21.7531 50.9552 22.6887 50.9552 23.8066 48.3615C24.5835 46.5599 25.0962 44.7167 25.2914 42.4872C25.298 42.4196 25.3903 42.3988 25.4229 42.4599C25.7313 43.0466 26.5902 43.7321 28.1661 43.442C30.1676 43.0752 30.5346 41.3036 30.64 39.4058C30.856 35.523 28.3015 30.8234 25.8185 29.0439H25.8198Z" fill="#8FD6FF"/>
<path d="M16.4376 43.6241C18.9315 43.6241 20.9533 41.5532 20.9533 38.9987C20.9533 36.4441 18.9315 34.3732 16.4376 34.3732C13.9436 34.3732 11.9219 36.4441 11.9219 38.9987C11.9219 41.5532 13.9436 43.6241 16.4376 43.6241Z" fill="#D9F1FF"/>
<path d="M7.48375 42.4287C7.38355 42.4287 7.29766 42.352 7.28985 42.2492C6.97883 38.4562 7.9132 35.8599 7.95224 35.7506C7.98998 35.6492 8.1019 35.5971 8.2021 35.6349C8.30361 35.6726 8.35566 35.7844 8.31792 35.8846C8.30881 35.9106 7.37444 38.5147 7.67765 42.2167C7.68676 42.3246 7.60608 42.4183 7.49937 42.4274C7.49416 42.4274 7.48896 42.4274 7.48375 42.4274V42.4287Z" fill="#72BAE3"/>
<path d="M25.3777 42.4287C25.3777 42.4287 25.3673 42.4287 25.3621 42.4287C25.2541 42.4196 25.1747 42.3259 25.1838 42.218C25.4883 38.5108 24.5527 35.9119 24.5435 35.8859C24.5058 35.7844 24.5579 35.6726 24.6594 35.6362C24.7609 35.5997 24.8728 35.6505 24.9092 35.7519C24.9496 35.8599 25.8826 38.4575 25.5716 42.2505C25.5638 42.352 25.4779 42.43 25.3777 42.43V42.4287Z" fill="#72BAE3"/>
<path d="M16.4333 1.74371C29.1358 1.74371 33.7062 11.2366 32.6521 19.3859C31.6852 26.8613 24.5863 31.1668 16.4333 31.1668C8.28027 31.1668 1.18137 26.8626 0.214463 19.3859C-0.839636 11.2366 4.59223 1.74371 16.4333 1.74371Z" fill="#8FD6FF"/>
<path d="M1.76284 10.2376C-0.967402 7.80003 -0.32193 2.79732 2.299 1.0426C4.92254 -0.713417 8.01586 -0.389529 9.86248 3.07828" fill="#8FD6FF"/>
<path d="M31.0996 10.2376C33.8299 7.80003 33.1844 2.79732 30.5635 1.0426C27.94 -0.713417 24.8466 -0.389529 23 3.07828" fill="#8FD6FF"/>
<path d="M16.4299 26.1654C19.4126 26.1654 21.4102 24.637 21.8279 22.4595C22.2456 20.2807 20.6046 18.4415 16.4299 18.4415C12.2551 18.4415 10.6141 20.2807 11.0318 22.4595C11.4496 24.6383 13.4472 26.1654 16.4299 26.1654Z" fill="#E0F6FF"/>
<path d="M16.429 17.7443C17.1733 17.7443 18.0231 17.9823 17.785 18.6158C17.5455 19.2492 16.7751 19.8294 16.429 19.8294C16.0828 19.8294 15.2864 19.2219 15.0729 18.6158C14.8608 17.9823 15.6846 17.7443 16.429 17.7443Z" fill="#282828"/>
<path d="M10.5524 18.5768C11.5063 18.5768 12.3001 17.8275 12.3001 16.9196C12.3001 16.0117 11.5063 15.2625 10.5524 15.2625C9.59851 15.2625 8.80469 16.0117 8.80469 16.9196C8.80469 17.8275 9.59851 18.5768 10.5524 18.5768Z" fill="#282828"/>
<path d="M22.2946 18.5768C23.2485 18.5768 24.0423 17.8275 24.0423 16.9196C24.0423 16.0117 23.2485 15.2625 22.2946 15.2625C21.3407 15.2625 20.5469 16.0117 20.5469 16.9196C20.5469 17.8275 21.3407 18.5768 22.2946 18.5768Z" fill="#282828"/>
<path d="M16.4347 22.5259C16.2551 22.5259 16.1094 22.3802 16.1094 22.2007V19.6993C16.1094 19.5198 16.2551 19.3741 16.4347 19.3741C16.6143 19.3741 16.7601 19.5198 16.7601 19.6993V22.2007C16.7601 22.3802 16.6143 22.5259 16.4347 22.5259Z" fill="#282828"/>
<path d="M16.4318 22.5337C15.3959 22.5337 14.3822 22.2241 13.5766 21.6635C13.4296 21.5607 13.3932 21.3578 13.496 21.2108C13.5988 21.0638 13.8018 21.0274 13.9488 21.1301C14.6451 21.6153 15.5274 21.8833 16.4318 21.8833C17.3363 21.8833 18.2173 21.6153 18.9148 21.1301C19.0619 21.0274 19.2649 21.0638 19.3677 21.2108C19.4705 21.3578 19.434 21.5607 19.287 21.6635C18.4815 22.2241 17.4677 22.5337 16.4318 22.5337Z" fill="#282828"/>
</svg>
