<svg width="39" height="39" viewBox="0 0 39 39" fill="none" xmlns="http://www.w3.org/2000/svg">
<path d="M19.3616 0C27.378 0 32.5873 6.07973 33.1469 14.9509C33.6661 23.1873 28.7249 28.9626 19.3616 28.9626C9.99838 28.9626 5.05583 23.1873 5.57638 14.9509C6.13596 6.07973 11.3466 0 19.3616 0Z" fill="#FFD859"/>
<path d="M11.6333 3.13873C2.94282 4.05056 -2.8352 15.4647 2.47563 20.6391C4.23767 22.3561 7.83722 24.1928 12.4635 17.8607L11.6333 3.13873Z" fill="#FFD859"/>
<path d="M27.0959 3.13873C35.7863 4.05056 41.5644 15.4647 36.2535 20.6391C34.4915 22.3561 30.8919 24.1928 26.2656 17.8607L27.0959 3.13873Z" fill="#FFD859"/>
<path d="M27.6848 19.8756C29.0899 19.8756 30.2289 18.8978 30.2289 17.6916C30.2289 16.4854 29.0899 15.5076 27.6848 15.5076C26.2797 15.5076 25.1406 16.4854 25.1406 17.6916C25.1406 18.8978 26.2797 19.8756 27.6848 19.8756Z" fill="#F7C44A"/>
<path d="M11.0285 19.8756C12.4336 19.8756 13.5727 18.8978 13.5727 17.6916C13.5727 16.4854 12.4336 15.5076 11.0285 15.5076C9.62343 15.5076 8.48438 16.4854 8.48438 17.6916C8.48438 18.8978 9.62343 19.8756 11.0285 19.8756Z" fill="#F7C44A"/>
<path d="M21.3311 19.9432C21.3311 21.4469 20.6375 22.2 19.357 22.2C18.0764 22.2 17.3828 21.4469 17.3828 19.9432C17.3828 19.7598 17.3958 19.5803 17.4219 19.4073C18.1792 19.8378 19.357 19.3032 19.357 18.5267C19.357 19.3032 20.5347 19.8378 21.2921 19.4073C21.3181 19.5803 21.3311 19.7598 21.3311 19.9432Z" fill="#B3663C"/>
<path d="M28.4775 26.3468H10.2298C7.81712 28.2043 5.33413 33.1081 5.54365 37.16C5.64645 39.141 6.00303 40.9881 7.94856 41.3718C9.48025 41.6736 10.3157 40.9595 10.615 40.3468C10.6463 40.2831 10.7361 40.3052 10.7426 40.3754C10.9326 42.7012 11.431 44.625 12.1858 46.5046C13.2724 49.2115 14.1821 49.2102 15.6396 49.2115C17.0151 49.2115 18.6939 49.2115 18.6522 43.7405C18.9164 43.7873 19.1025 43.812 19.3536 43.812C19.6048 43.812 19.7909 43.7873 20.0551 43.7405C20.0134 49.2115 21.6922 49.2128 23.0677 49.2115C24.5239 49.2102 25.4336 49.2115 26.5215 46.5046C27.2763 44.625 27.7747 42.7012 27.9647 40.3754C27.9699 40.3052 28.061 40.2831 28.0922 40.3468C28.3916 40.9595 29.227 41.6736 30.7587 41.3718C32.7043 40.9881 33.0608 39.141 33.1636 37.16C33.3731 33.1081 30.8902 28.2043 28.4775 26.3468Z" fill="#FFD859"/>
<path d="M19.3569 41.5617C21.7804 41.5617 23.7451 39.4006 23.7451 36.7346C23.7451 34.0687 21.7804 31.9075 19.3569 31.9075C16.9334 31.9075 14.9688 34.0687 14.9688 36.7346C14.9688 39.4006 16.9334 41.5617 19.3569 41.5617Z" fill="#FFF5E6"/>
<path d="M10.6617 40.3052C10.5601 40.3052 10.4756 40.2272 10.4678 40.1244C10.1658 36.1714 11.0716 33.4659 11.1106 33.3527C11.1458 33.2512 11.2564 33.1966 11.3579 33.2317C11.4594 33.2668 11.514 33.3774 11.4802 33.4789C11.4711 33.5062 10.5614 36.2274 10.8569 40.0958C10.8647 40.2038 10.784 40.2974 10.6773 40.3052C10.6721 40.3052 10.6669 40.3052 10.6617 40.3052Z" fill="#E6B545"/>
<path d="M28.0558 40.3052C28.0558 40.3052 28.0453 40.3052 28.0401 40.3052C27.9321 40.2974 27.8527 40.2038 27.8606 40.0958C28.156 36.2274 27.2463 33.5062 27.2372 33.4789C27.2021 33.3774 27.2567 33.2655 27.3595 33.2317C27.461 33.1966 27.573 33.2512 27.6068 33.3527C27.6458 33.4659 28.5516 36.1714 28.2497 40.1244C28.2419 40.2272 28.156 40.3052 28.0558 40.3052Z" fill="#E6B545"/>
<path d="M13.9847 17.2987C14.9568 17.2987 15.7662 16.4884 15.7662 15.5089C15.7662 14.5294 14.9568 13.7191 13.9847 13.7191C13.0126 13.7191 12.2031 14.5294 12.2031 15.5089C12.2031 16.4884 13.0126 17.2987 13.9847 17.2987Z" fill="#282828"/>
<path d="M24.7269 17.2987C23.7548 17.2987 22.9453 16.4884 22.9453 15.5089C22.9453 14.5294 23.7548 13.7191 24.7269 13.7191C25.699 13.7191 26.5084 14.5294 26.5084 15.5089C26.5084 16.4884 25.699 17.2987 24.7269 17.2987Z" fill="#282828"/>
<path d="M20.4743 16.9995C20.4053 17.2245 20.2687 17.4053 20.1112 17.5432C19.8327 17.7865 19.4904 17.8983 19.3512 17.8983C19.212 17.8983 18.8697 17.7865 18.5912 17.5432C18.4338 17.4053 18.2971 17.2245 18.2281 16.9995C18.0264 16.3426 18.7981 16.1358 19.3512 16.1358C19.9043 16.1358 20.676 16.3426 20.4743 16.9995Z" fill="#282828"/>
<path d="M18.0337 19.9978C17.7578 19.9978 17.4885 19.9328 17.2581 19.8014C16.9965 19.6518 16.7883 19.419 16.6543 19.1289C16.5801 18.965 16.6517 18.7725 16.8143 18.6983C16.977 18.6229 17.1709 18.6957 17.2451 18.8583C17.3219 19.0274 17.4351 19.1549 17.5795 19.2368C17.9166 19.4281 18.3552 19.3474 18.6402 19.1809C18.8822 19.0404 19.028 18.8375 19.028 18.6385V17.3807C19.028 17.2012 19.1737 17.0555 19.3533 17.0555C19.5329 17.0555 19.6786 17.2012 19.6786 17.3807V18.6385C19.6786 19.0717 19.4132 19.484 18.9681 19.7428C18.6779 19.9119 18.35 19.9978 18.0337 19.9978Z" fill="#282828"/>
<path d="M20.6762 19.9978C20.3586 19.9978 20.032 19.9119 19.7418 19.7428C19.2967 19.484 19.0312 19.0704 19.0312 18.6385V17.3807C19.0312 17.2012 19.177 17.0555 19.3566 17.0555C19.5362 17.0555 19.6819 17.2012 19.6819 17.3807V18.6385C19.6819 18.8375 19.8264 19.0404 20.0697 19.1809C20.3547 19.3474 20.7933 19.4281 21.1316 19.2368C21.2761 19.1549 21.388 19.0274 21.4648 18.8583C21.539 18.6944 21.7329 18.6229 21.8955 18.6983C22.0595 18.7725 22.1311 18.9663 22.0556 19.1289C21.9229 19.4203 21.7146 19.6518 21.4531 19.8014C21.2227 19.9328 20.9534 19.9978 20.6762 19.9978Z" fill="#282828"/>
<path d="M6.72555 22.2664C6.65137 22.2664 6.5798 22.2235 6.54726 22.152C5.78987 20.4701 5.16001 18.4916 5.66754 15.4349C5.68576 15.3282 5.78597 15.2567 5.89268 15.2749C5.9994 15.2931 6.07097 15.3932 6.05275 15.4999C5.56214 18.4539 6.17117 20.3673 6.90253 21.9933C6.94678 22.0921 6.90253 22.2066 6.80493 22.2508C6.7789 22.2625 6.75157 22.2677 6.72555 22.2677V22.2664Z" fill="#E6B545"/>
<path d="M31.9834 22.2663C31.9561 22.2663 31.9301 22.2611 31.9041 22.2494C31.8051 22.2052 31.7622 22.0894 31.8065 21.9919C32.5378 20.3659 33.1482 18.4525 32.6562 15.4985C32.638 15.3919 32.7109 15.2917 32.8163 15.2735C32.923 15.2553 33.0232 15.3281 33.0414 15.4335C33.549 18.4903 32.9191 20.4687 32.1617 22.1506C32.1292 22.2234 32.0576 22.265 31.9834 22.265V22.2663Z" fill="#E6B545"/>
</svg>
