<svg width="25" height="17" viewBox="0 0 25 17" fill="none" xmlns="http://www.w3.org/2000/svg">
<path d="M5.92786 10.6288C2.10744 10.6288 2.84522 11.7939 0.49307 7.61919C-0.887542 5.17572 0.540551 0.00390625 5.92786 0.00390625C8.49551 0.00390625 10.8659 1.74245 11.0997 5.31817C11.3188 8.62725 8.90458 10.6324 5.92786 10.6324V10.6288Z" fill="#2FD714"/>
<path d="M5.72461 8.99609L9.98333 16.0854H5.57121L1.3125 8.99609H5.72461Z" fill="#2FD714"/>
<path d="M18.9264 10.6285C15.1059 10.6285 15.8437 11.7936 13.4916 7.61893C12.1146 5.17547 13.539 0 18.9264 0C21.494 0 23.8644 1.73855 24.0982 5.31426C24.3173 8.62335 21.9031 10.6285 18.9264 10.6285Z" fill="#2FD714"/>
<path d="M18.7207 8.99609L22.9794 16.0854H18.5673L14.3086 8.99609H18.7207Z" fill="#2FD714"/>
</svg>
