<svg width="36" height="39" viewBox="0 0 36 39" fill="none" xmlns="http://www.w3.org/2000/svg">
<path d="M26.8915 29.0885H8.64389C6.23118 30.8679 3.74819 35.5676 3.95771 39.4503C4.06052 41.3481 4.41708 43.1184 6.36261 43.4866C7.89431 43.7753 8.72978 43.0911 9.02909 42.5045C9.06032 42.4434 9.15011 42.4642 9.15662 42.5318C9.34662 44.7613 9.84503 46.6045 10.5998 48.406C11.6865 50.9997 12.5961 50.9984 14.0536 50.9997C15.4292 50.9997 17.1079 50.9997 17.0663 45.7564C17.3304 45.8019 17.5165 45.8253 17.7677 45.8253C18.0189 45.8253 18.205 45.8019 18.4691 45.7564C18.4275 50.9997 20.1062 51.001 21.4818 50.9997C22.938 50.9997 23.8476 50.9997 24.9356 48.406C25.6904 46.6045 26.1888 44.7613 26.3788 42.5318C26.384 42.4642 26.4751 42.4434 26.5063 42.5045C26.8056 43.0911 27.6411 43.7766 29.1728 43.4866C31.1183 43.1197 31.4749 41.3481 31.5777 39.4503C31.7872 35.5676 29.3042 30.8679 26.8915 29.0885Z" fill="#FF9F69"/>
<path d="M17.771 43.6687C20.1945 43.6687 22.1592 41.5978 22.1592 39.0432C22.1592 36.4886 20.1945 34.4177 17.771 34.4177C15.3475 34.4177 13.3828 36.4886 13.3828 39.0432C13.3828 41.5978 15.3475 43.6687 17.771 43.6687Z" fill="#FFE8CC"/>
<path d="M9.06783 42.4733C8.96763 42.4733 8.88174 42.3953 8.87393 42.2938C8.57202 38.5021 9.47907 35.9058 9.51811 35.7978C9.55455 35.6964 9.66646 35.6443 9.76796 35.6795C9.86947 35.7159 9.92283 35.8278 9.88639 35.9292C9.87728 35.9552 8.96893 38.5606 9.26434 42.2639C9.27345 42.3719 9.19276 42.4655 9.08475 42.4733C9.07954 42.4733 9.07434 42.4733 9.06913 42.4733H9.06783Z" fill="#E37D44"/>
<path d="M26.4615 42.4733C26.4615 42.4733 26.4511 42.4733 26.4459 42.4733C26.3379 42.4642 26.2585 42.3705 26.2663 42.2639C26.5617 38.5606 25.6534 35.9552 25.6443 35.9292C25.6078 35.8277 25.6612 35.7158 25.7627 35.6794C25.8642 35.643 25.9761 35.6963 26.0126 35.7978C26.0516 35.9058 26.9587 38.5021 26.6567 42.2938C26.6489 42.3965 26.563 42.4733 26.4628 42.4733H26.4615Z" fill="#E37D44"/>
<path d="M29.9102 0.0309534C26.459 -0.579101 19.9249 8.0306 19.9249 8.0306C19.9249 8.0306 19.4837 7.90442 17.7712 7.90442C16.0586 7.90442 15.6174 8.0306 15.6174 8.0306C15.6174 8.0306 9.0833 -0.579101 5.6321 0.0309534C3.27795 0.447195 -1.02824 7.44916 0.223664 16.7066C0.762425 19.2457 1.61481 21.4349 2.68062 23.3067C5.54881 28.3484 9.9513 30.4517 13.8788 31.5456C15.227 31.9203 16.6182 32.1024 17.7725 32.1154C18.9281 32.1024 20.3179 31.9216 21.6661 31.5456C25.5936 30.453 29.9948 28.3497 32.8643 23.3067C33.9288 21.4349 34.7825 19.2457 35.3212 16.7066C36.5732 7.44916 32.2683 0.447195 29.9128 0.0309534H29.9102Z" fill="#FF9F69"/>
<path d="M17.7679 28.8427C21.1944 28.8427 23.4913 27.0828 23.9702 24.5736C24.4504 22.0645 22.5647 19.9468 17.7679 19.9468C12.9711 19.9468 11.0855 22.0645 11.5644 24.5736C12.0446 27.0828 14.3402 28.8427 17.7679 28.8427Z" fill="#FFE8CC"/>
<path d="M12.1905 20.1094C13.1261 20.1094 13.9043 19.3511 13.9043 18.434C13.9043 17.517 13.1248 16.7587 12.1905 16.7587C11.2561 16.7587 10.4766 17.517 10.4766 18.434C10.4766 19.3511 11.2561 20.1094 12.1905 20.1094Z" fill="#282828"/>
<path d="M23.3467 20.1094C22.411 20.1094 21.6328 19.3511 21.6328 18.434C21.6328 17.517 22.4123 16.7587 23.3467 16.7587C24.2811 16.7587 25.0606 17.517 25.0606 18.434C25.0606 19.3511 24.2811 20.1094 23.3467 20.1094Z" fill="#282828"/>
<path d="M17.769 18.7631C17.0832 18.7631 16.1267 19.0116 16.3766 19.8037C16.6147 20.5582 17.3604 21.0004 17.769 21.0004C18.1777 21.0004 18.9246 20.5569 19.1615 19.8037C19.4113 19.0116 18.4548 18.7631 17.769 18.7631Z" fill="#282828"/>
<path d="M17.7662 24.1977C16.8305 24.1977 15.9547 23.8946 15.3665 23.3678C15.2325 23.2481 15.2208 23.0426 15.3405 22.9086C15.4602 22.7746 15.6658 22.7629 15.7999 22.8839C16.271 23.3067 16.988 23.5486 17.7662 23.5486C18.5444 23.5486 19.2602 23.3067 19.7326 22.8839C19.8666 22.7642 20.0722 22.7759 20.1919 22.9086C20.3117 23.0426 20.3 23.2481 20.1672 23.3678C19.5777 23.8959 18.7032 24.1977 17.7675 24.1977H17.7662Z" fill="#282828"/>
</svg>
