<svg width="56" height="42" viewBox="0 0 56 42" fill="none" xmlns="http://www.w3.org/2000/svg">
<path id="Vector" d="M47.5927 2.62657C44.0244 -0.0991142 40.8029 0.346905 38.3745 2.72568C34.4592 0.495579 32.3776 0 27.9172 0C23.4567 0 21.3751 0.495579 17.4599 2.72568C15.0809 0.346905 11.8099 -0.148672 8.24156 2.62657C0.510097 8.57351 -1.96794 21.4586 1.60043 23.9364C3.18637 25.0267 4.52451 23.986 5.36704 23.1931C5.56529 22.9948 5.71397 22.8462 5.91221 22.6975C4.82187 36.3755 18.4511 41.3312 27.9172 41.3312C37.3832 41.3312 51.0124 36.3755 49.9221 22.6975C50.1203 22.8957 50.269 23.0444 50.4673 23.1931C51.3098 23.986 52.6479 25.0267 54.2339 23.9364C57.8022 21.4586 55.3242 8.57351 47.5927 2.62657Z" fill="#F0F0F0"/>
</svg>
