<svg width="34" height="24" viewBox="0 0 34 24" fill="none" xmlns="http://www.w3.org/2000/svg">
<path d="M28.9984 1.50779C26.8347 -0.0793588 24.8492 0.192725 23.3869 1.57581C21.0092 0.294756 19.7489 0 17.0026 0C14.2563 0 13.008 0.283419 10.6183 1.57581C9.156 0.181388 7.17057 -0.0793588 5.0068 1.50779C0.31072 4.96552 -1.19916 12.4478 0.976495 13.8989C1.95138 14.5451 2.74793 13.9329 3.27104 13.4795C3.37803 13.3774 3.48504 13.2867 3.59203 13.1847C2.92626 21.1205 11.2247 24 17.0026 24C22.7806 24 31.079 21.1318 30.4132 13.1847C30.5202 13.2867 30.6272 13.3774 30.7342 13.4795C31.2573 13.9329 32.0539 14.5451 33.0288 13.8989C35.1925 12.4478 33.6945 4.96552 28.9984 1.50779Z" fill="white"/>
</svg>
