<svg width="48" height="48" viewBox="0 0 48 48" fill="none" xmlns="http://www.w3.org/2000/svg">
<g clip-path="url(#clip0_1751_11372)">
<rect width="48" height="48" rx="24" fill="#FFF7C9"/>
<path d="M24.3616 9C32.378 9 37.5873 15.0797 38.1469 23.9509C38.6661 32.1873 33.7249 37.9626 24.3616 37.9626C14.9984 37.9626 10.0558 32.1873 10.5764 23.9509C11.136 15.0797 16.3466 9 24.3616 9Z" fill="#FFD859"/>
<path d="M16.6333 12.1387C7.94282 13.0506 2.1648 24.4647 7.47563 29.6391C9.23767 31.3561 12.8372 33.1928 17.4635 26.8607L16.6333 12.1387Z" fill="#FFD859"/>
<path d="M32.0959 12.1387C40.7863 13.0506 46.5644 24.4647 41.2535 29.6391C39.4915 31.3561 35.8919 33.1928 31.2656 26.8607L32.0959 12.1387Z" fill="#FFD859"/>
<path d="M32.6848 28.8756C34.0899 28.8756 35.2289 27.8978 35.2289 26.6916C35.2289 25.4854 34.0899 24.5076 32.6848 24.5076C31.2797 24.5076 30.1406 25.4854 30.1406 26.6916C30.1406 27.8978 31.2797 28.8756 32.6848 28.8756Z" fill="#F7C44A"/>
<path d="M16.0285 28.8756C17.4336 28.8756 18.5727 27.8978 18.5727 26.6916C18.5727 25.4854 17.4336 24.5076 16.0285 24.5076C14.6234 24.5076 13.4844 25.4854 13.4844 26.6916C13.4844 27.8978 14.6234 28.8756 16.0285 28.8756Z" fill="#F7C44A"/>
<path d="M26.3311 28.9432C26.3311 30.4469 25.6375 31.2 24.357 31.2C23.0764 31.2 22.3828 30.4469 22.3828 28.9432C22.3828 28.7598 22.3958 28.5803 22.4219 28.4073C23.1792 28.8378 24.357 28.3032 24.357 27.5267C24.357 28.3032 25.5347 28.8378 26.2921 28.4073C26.3181 28.5803 26.3311 28.7598 26.3311 28.9432Z" fill="#B3663C"/>
<path d="M33.4775 35.3468H15.2298C12.8171 37.2043 10.3341 42.1081 10.5436 46.16C10.6465 48.141 11.003 49.9881 12.9486 50.3718C14.4803 50.6736 15.3157 49.9595 15.615 49.3468C15.6463 49.2831 15.7361 49.3052 15.7426 49.3754C15.9326 51.7012 16.431 53.625 17.1858 55.5046C18.2724 58.2115 19.1821 58.2102 20.6396 58.2115C22.0151 58.2115 23.6939 58.2115 23.6522 52.7405C23.9164 52.7873 24.1025 52.812 24.3536 52.812C24.6048 52.812 24.7909 52.7873 25.0551 52.7405C25.0134 58.2115 26.6922 58.2128 28.0677 58.2115C29.5239 58.2102 30.4336 58.2115 31.5215 55.5046C32.2763 53.625 32.7747 51.7012 32.9647 49.3754C32.9699 49.3052 33.061 49.2831 33.0922 49.3468C33.3916 49.9595 34.227 50.6736 35.7587 50.3718C37.7043 49.9881 38.0608 48.141 38.1636 46.16C38.3731 42.1081 35.8902 37.2043 33.4775 35.3468Z" fill="#FFD859"/>
<path d="M24.3569 50.5617C26.7804 50.5617 28.7451 48.4006 28.7451 45.7346C28.7451 43.0687 26.7804 40.9075 24.3569 40.9075C21.9334 40.9075 19.9688 43.0687 19.9688 45.7346C19.9688 48.4006 21.9334 50.5617 24.3569 50.5617Z" fill="#FFF5E6"/>
<path d="M15.6617 49.3052C15.5601 49.3052 15.4756 49.2272 15.4678 49.1244C15.1658 45.1714 16.0716 42.4659 16.1106 42.3527C16.1458 42.2512 16.2564 42.1966 16.3579 42.2317C16.4594 42.2668 16.514 42.3774 16.4802 42.4789C16.4711 42.5062 15.5614 45.2274 15.8569 49.0958C15.8647 49.2038 15.784 49.2974 15.6773 49.3052C15.6721 49.3052 15.6669 49.3052 15.6617 49.3052Z" fill="#E6B545"/>
<path d="M33.0558 49.3052C33.0558 49.3052 33.0453 49.3052 33.0401 49.3052C32.9321 49.2974 32.8527 49.2038 32.8606 49.0958C33.156 45.2274 32.2463 42.5062 32.2372 42.4789C32.2021 42.3774 32.2567 42.2655 32.3595 42.2317C32.461 42.1966 32.573 42.2512 32.6068 42.3527C32.6458 42.4659 33.5516 45.1714 33.2497 49.1244C33.2419 49.2272 33.156 49.3052 33.0558 49.3052Z" fill="#E6B545"/>
<path d="M18.9847 26.2987C19.9568 26.2987 20.7662 25.4884 20.7662 24.5089C20.7662 23.5294 19.9568 22.7191 18.9847 22.7191C18.0126 22.7191 17.2031 23.5294 17.2031 24.5089C17.2031 25.4884 18.0126 26.2987 18.9847 26.2987Z" fill="#282828"/>
<path d="M29.7269 26.2987C28.7548 26.2987 27.9453 25.4884 27.9453 24.5089C27.9453 23.5294 28.7548 22.7191 29.7269 22.7191C30.699 22.7191 31.5084 23.5294 31.5084 24.5089C31.5084 25.4884 30.699 26.2987 29.7269 26.2987Z" fill="#282828"/>
<path d="M25.4743 25.9995C25.4053 26.2245 25.2687 26.4053 25.1112 26.5432C24.8327 26.7865 24.4904 26.8983 24.3512 26.8983C24.212 26.8983 23.8697 26.7865 23.5912 26.5432C23.4338 26.4053 23.2971 26.2245 23.2281 25.9995C23.0264 25.3426 23.7981 25.1358 24.3512 25.1358C24.9043 25.1358 25.676 25.3426 25.4743 25.9995Z" fill="#282828"/>
<path d="M23.0337 28.9978C22.7578 28.9978 22.4885 28.9328 22.2581 28.8014C21.9965 28.6518 21.7883 28.419 21.6543 28.1289C21.5801 27.965 21.6517 27.7725 21.8143 27.6983C21.977 27.6229 22.1709 27.6957 22.2451 27.8583C22.3219 28.0274 22.4351 28.1549 22.5795 28.2368C22.9166 28.4281 23.3552 28.3474 23.6402 28.1809C23.8822 28.0404 24.028 27.8375 24.028 27.6385V26.3807C24.028 26.2012 24.1737 26.0555 24.3533 26.0555C24.5329 26.0555 24.6786 26.2012 24.6786 26.3807V27.6385C24.6786 28.0717 24.4132 28.484 23.9681 28.7428C23.6779 28.9119 23.35 28.9978 23.0337 28.9978Z" fill="#282828"/>
<path d="M25.6762 28.9978C25.3586 28.9978 25.032 28.9119 24.7418 28.7428C24.2967 28.484 24.0312 28.0704 24.0312 27.6385V26.3807C24.0312 26.2012 24.177 26.0555 24.3566 26.0555C24.5362 26.0555 24.6819 26.2012 24.6819 26.3807V27.6385C24.6819 27.8375 24.8264 28.0404 25.0697 28.1809C25.3547 28.3474 25.7933 28.4281 26.1316 28.2368C26.2761 28.1549 26.388 28.0274 26.4648 27.8583C26.539 27.6944 26.7329 27.6229 26.8955 27.6983C27.0595 27.7725 27.1311 27.9663 27.0556 28.1289C26.9229 28.4203 26.7146 28.6518 26.4531 28.8014C26.2227 28.9328 25.9534 28.9978 25.6762 28.9978Z" fill="#282828"/>
<path d="M11.7255 31.2664C11.6514 31.2664 11.5798 31.2235 11.5473 31.152C10.7899 29.4701 10.16 27.4916 10.6675 24.4349C10.6858 24.3282 10.786 24.2567 10.8927 24.2749C10.9994 24.2931 11.071 24.3932 11.0527 24.4999C10.5621 27.4539 11.1712 29.3673 11.9025 30.9933C11.9468 31.0921 11.9025 31.2066 11.8049 31.2508C11.7789 31.2625 11.7516 31.2677 11.7255 31.2677V31.2664Z" fill="#E6B545"/>
<path d="M36.9834 31.2663C36.9561 31.2663 36.9301 31.2611 36.9041 31.2494C36.8051 31.2052 36.7622 31.0894 36.8065 30.9919C37.5378 29.3659 38.1482 27.4525 37.6562 24.4985C37.638 24.3919 37.7109 24.2917 37.8163 24.2735C37.923 24.2553 38.0232 24.3281 38.0414 24.4335C38.549 27.4903 37.9191 29.4687 37.1617 31.1506C37.1292 31.2234 37.0576 31.265 36.9834 31.265V31.2663Z" fill="#E6B545"/>
</g>
<defs>
<clipPath id="clip0_1751_11372">
<rect width="48" height="48" rx="24" fill="white"/>
</clipPath>
</defs>
</svg>
