<svg width="103" height="120" viewBox="0 0 103 120" fill="none" xmlns="http://www.w3.org/2000/svg">
<mask id="mask0_1738_11200" style="mask-type:alpha" maskUnits="userSpaceOnUse" x="0" y="0" width="103" height="120">
<rect width="103" height="120" fill="#D9D9D9"/>
</mask>
<g mask="url(#mask0_1738_11200)">
<path d="M52.1421 122.215C52.7848 122.215 53.2636 122.157 53.9417 122.045C53.8356 134.999 58.1386 135.002 61.664 134.999C65.3982 134.999 67.7312 134.999 70.5174 128.591C72.452 124.14 73.731 119.586 74.2195 114.078C74.2356 113.911 74.4669 113.86 74.5441 114.011C75.3121 115.46 77.4524 117.154 81.3794 116.437C86.3669 115.531 87.9608 111.154 88.2243 106.465C88.761 96.8727 83.2754 85.2619 76.7647 80.8657H27.5195C21.0055 85.2619 15.5231 96.8727 16.0598 106.465C16.3233 111.154 17.9172 115.528 22.9047 116.437C26.8318 117.15 28.972 115.46 29.7401 114.011C29.8204 113.86 30.0518 113.911 30.0646 114.078C30.5531 119.586 31.8289 124.14 33.7667 128.591C36.5529 134.999 38.886 134.996 42.6202 134.999C46.1455 134.999 50.4485 134.999 50.3424 122.045C51.0205 122.157 51.4961 122.215 52.1421 122.215Z" fill="#F0BE6B"/>
<path d="M52.1514 116.89C59.1602 116.89 64.8419 111.367 64.8419 104.553C64.8419 97.7396 59.1602 92.2162 52.1514 92.2162C45.1427 92.2162 39.4609 97.7396 39.4609 104.553C39.4609 111.367 45.1427 116.89 52.1514 116.89Z" fill="#FAE6C8"/>
<path d="M29.8474 113.934C29.5999 113.934 29.3878 113.744 29.3685 113.49C28.5941 104.119 30.9207 97.7018 31.0203 97.435C31.1135 97.1844 31.3899 97.059 31.6405 97.149C31.8912 97.2422 32.0165 97.5186 31.9265 97.7692C31.904 97.8335 29.5742 104.267 30.3326 113.41C30.3551 113.677 30.1558 113.908 29.8923 113.93C29.8795 113.93 29.8666 113.93 29.8506 113.93L29.8474 113.934Z" fill="#D7A659"/>
<path d="M74.4345 113.934C74.4345 113.934 74.4088 113.934 74.3927 113.934C74.126 113.911 73.93 113.68 73.9524 113.413C74.7109 104.254 72.381 97.8367 72.3585 97.7724C72.2653 97.5218 72.3939 97.2454 72.6445 97.1522C72.8952 97.059 73.1715 97.1876 73.2647 97.4382C73.3644 97.7082 75.691 104.122 74.9165 113.493C74.8972 113.744 74.6852 113.937 74.4377 113.937L74.4345 113.934Z" fill="#D7A659"/>
<path d="M93.4001 43.1863C93.3519 35.1458 89.4442 27.0283 83.7207 22.902C83.7207 22.902 75.8346 9 52.1439 9C28.4533 9 20.5671 22.902 20.5671 22.902C14.8437 27.0283 10.9359 35.149 10.8877 43.1863C5.06148 45.8921 -8.08534 73.934 15.7949 78.5905C18.4172 84.3814 33.5886 89.732 39.1674 88.0095C42.0275 89.3753 47.5388 90.2012 52.1439 90.2012C56.749 90.2012 62.2603 89.3721 65.1204 88.0095C70.6992 89.732 85.8706 84.3814 88.4929 78.5905C112.373 73.934 99.2296 45.8921 93.4001 43.1863Z" fill="#F0BE6B"/>
<path d="M58.2278 60.6971C58.2278 65.2605 55.5027 68.1238 52.1412 68.1238C48.7798 68.1238 46.0547 65.2605 46.0547 60.6971C46.0547 60.4208 46.0643 60.1412 46.09 59.8713C46.4018 60.0673 46.7488 60.2247 47.1152 60.3404C49.008 60.9446 51.3957 60.4529 52.1445 58.5762C52.89 60.4497 55.2777 60.9446 57.1705 60.3404C57.5369 60.2247 57.8839 60.0673 58.1989 59.8713C58.2214 60.1412 58.2342 60.4176 58.2342 60.6971H58.2278Z" fill="#A6772B"/>
<path d="M29.7952 65.3472C34.1134 65.3472 37.6139 61.8467 37.6139 57.5285C37.6139 53.2104 34.1134 49.7098 29.7952 49.7098C25.4771 49.7098 21.9766 53.2104 21.9766 57.5285C21.9766 61.8467 25.4771 65.3472 29.7952 65.3472Z" fill="#D7A659"/>
<path d="M74.4906 65.3472C78.8087 65.3472 82.3093 61.8467 82.3093 57.5285C82.3093 53.2104 78.8087 49.7098 74.4906 49.7098C70.1724 49.7098 66.6719 53.2104 66.6719 57.5285C66.6719 61.8467 70.1724 65.3472 74.4906 65.3472Z" fill="#D7A659"/>
<path d="M41.4363 50.9246C41.4363 53.5565 39.8906 55.6936 36.8666 55.6936C33.8426 55.6936 32.2969 53.5598 32.2969 50.9246C32.2969 48.2895 34.1736 46.2392 36.8666 46.1556C40.3823 46.0464 41.4363 48.2895 41.4363 50.9246Z" fill="#282828"/>
<path d="M62.8516 50.9246C62.8516 53.5565 64.3973 55.6936 67.4213 55.6936C70.4453 55.6936 71.991 53.5598 71.991 50.9246C71.991 48.2895 70.1143 46.2392 67.4213 46.1556C63.9056 46.0464 62.8516 48.2895 62.8516 50.9246Z" fill="#282828"/>
<path d="M52.1484 52.8657C53.8451 52.8657 56.8563 53.5662 55.5612 56.1243C54.5586 58.1038 53.1574 59.7878 52.1484 59.7878C51.1393 59.7878 49.7349 58.1038 48.7355 56.1243C47.4436 53.5662 50.4516 52.8657 52.1484 52.8657Z" fill="#282828"/>
<path d="M49.0073 61.8766C47.0148 61.8766 44.8714 60.5269 44.0712 58.7465C43.888 58.3416 44.0712 57.866 44.4729 57.6828C44.8778 57.4997 45.3534 57.6828 45.5366 58.0845C46.0797 59.2961 47.7508 60.3116 49.1069 60.2633C50.1738 60.2248 50.9451 59.5821 51.395 58.348C51.546 57.9303 52.0088 57.7182 52.4266 57.8692C52.8443 58.0203 53.0564 58.483 52.9054 58.9008C51.9927 61.3977 50.1706 61.8316 49.168 61.8701C49.1165 61.8701 49.0619 61.8701 49.0105 61.8701L49.0073 61.8766Z" fill="#282828"/>
<path d="M55.2873 61.8766C55.2358 61.8766 55.1812 61.8766 55.1298 61.8766C54.1239 61.8412 52.305 61.4074 51.3924 58.9072C51.2413 58.4894 51.4535 58.0299 51.8712 57.8756C52.289 57.7246 52.7485 57.9367 52.9028 58.3545C53.3527 59.5853 54.1239 60.228 55.1909 60.2698C56.547 60.318 58.2149 59.2993 58.7612 58.0909C58.9443 57.686 59.42 57.5061 59.8249 57.6892C60.2298 57.8724 60.4098 58.348 60.2266 58.753C59.4264 60.5333 57.2829 61.883 55.2905 61.883L55.2873 61.8766Z" fill="#282828"/>
<path d="M17.0547 57.1012C17.0547 57.1012 15.9331 66.2985 21.4701 71.3053C21.4701 71.3053 19.1885 74.31 15.631 70.3444C13.9085 68.4677 14.7698 66.0446 14.7698 66.0446C14.7698 66.0446 12.6006 63.4995 13.4586 60.2441C14.3199 56.9887 17.0514 57.1012 17.0514 57.1012H17.0547Z" fill="#D7A659"/>
<path d="M87.2358 57.1012C87.2358 57.1012 88.3573 66.2985 82.8203 71.3053C82.8203 71.3053 85.102 74.31 88.6594 70.3444C90.3819 68.4677 89.5207 66.0446 89.5207 66.0446C89.5207 66.0446 91.6898 63.4995 90.8318 60.2441C89.9738 56.9887 87.239 57.1012 87.239 57.1012H87.2358Z" fill="#D7A659"/>
</g>
</svg>
