<svg width="current" height="current" viewBox="0 0 32 32" fill="none" xmlns="http://www.w3.org/2000/svg">
<rect width="32" height="32" rx="16" fill="#FFE100"/>
<path d="M23.0579 9.87955C21.7851 8.95371 20.6172 9.11242 19.757 9.91922C18.3583 9.17194 17.617 9 16.0015 9C14.3861 9 13.6518 9.16533 12.2461 9.91922C11.3859 9.10581 10.218 8.95371 8.94518 9.87955C6.18278 11.8966 5.29461 16.2612 6.57441 17.1077C7.14787 17.4846 7.61643 17.1275 7.92414 16.863C7.98708 16.8035 8.05002 16.7506 8.11296 16.6911C7.72133 21.3203 12.6027 23 16.0015 23C19.4003 23 24.2818 21.3269 23.8901 16.6911C23.9531 16.7506 24.016 16.8035 24.0789 16.863C24.3867 17.1275 24.8552 17.4846 25.4287 17.1077C26.7015 16.2612 25.8203 11.8966 23.0579 9.87955Z" fill="white"/>
</svg>
