<svg width="16" height="16" viewBox="0 0 16 16" fill="none" xmlns="http://www.w3.org/2000/svg">
<path d="M8 14.75C11.7279 14.75 14.75 11.7279 14.75 8C14.75 4.27208 11.7279 1.25 8 1.25C4.27208 1.25 1.25 4.27208 1.25 8C1.25 11.7279 4.27208 14.75 8 14.75Z" stroke="#2FD714" stroke-width="0.75" stroke-linecap="round" stroke-linejoin="round"/>
<path d="M11 6.875L9.5 6.125L11 5.375M5 6.875L6.5 6.125L5 5.375M8 11C9.11 11 10.0798 10.397 10.5988 9.5H5.40125C5.6645 9.95626 6.04329 10.3351 6.4995 10.5984C6.95571 10.8618 7.47325 11.0003 8 11Z" stroke="#2FD714" stroke-width="0.75" stroke-linecap="round" stroke-linejoin="round"/>
</svg>
