<svg width="133" height="134" viewBox="0 0 133 134" fill="none" xmlns="http://www.w3.org/2000/svg">
<g id="Mask group">
<mask id="mask0_905_9479" style="mask-type:alpha" maskUnits="userSpaceOnUse" x="0" y="0" width="133" height="134">
<circle id="Ellipse 56" cx="66.4" cy="67.2086" r="66.4" fill="#8E1818"/>
</mask>
<g mask="url(#mask0_905_9479)">
<rect id="Rectangle 165" x="-51.3047" y="-16.7812" width="246.838" height="246.838" fill="#D9D9D9"/>
<g id="Group 187">
<g id="Group 188">
<path id="Vector" d="M93.2221 147.154C93.2221 132.485 80.863 78.8027 65.7807 79.0064C50.9079 79.2102 39.1772 133.402 39.2819 147.867C39.4914 176.695 49.0226 172.518 61.5912 173.028C62.7433 173.13 63.6859 172.213 63.6859 171.092V163.452C63.6859 160.193 68.9228 160.193 68.9228 163.452C68.9228 164.573 68.9228 165.795 68.9228 166.916V171.194C68.9228 172.315 69.8655 173.13 71.0176 173.13C83.5862 172.518 93.2221 176.797 93.2221 147.154Z" fill="#A8A6A7"/>
<path id="Vector_2" d="M52.5143 113.265C52.4193 113.163 52.4193 113.163 52.3242 113.061C52.3242 113.061 52.3242 113.061 52.2291 113.061C49.0922 110.31 42.0577 113.978 35.9739 120.601C28.3691 128.854 26.7531 132.013 27.2284 133.949C27.2284 134.152 28.179 135.477 29.5098 137.005C29.6049 137.107 29.795 137.311 30.0802 137.617C31.5061 139.043 32.7419 139.96 32.932 140.062C34.7381 140.571 37.78 138.839 45.3848 130.688C51.6588 124.167 55.0809 116.627 52.5143 113.265Z" fill="#A8A6A7"/>
<path id="Vector_3" d="M78.8471 113.265C78.9421 113.163 78.9421 113.163 79.0372 113.061C79.0372 113.061 79.0372 113.061 79.1322 113.061C82.2692 110.31 89.3037 113.978 95.3875 120.601C102.992 128.854 104.608 132.013 104.133 133.949C104.133 134.152 103.182 135.477 101.852 137.005C101.756 137.107 101.566 137.311 101.281 137.617C99.8553 139.043 98.6195 139.96 98.4294 140.062C96.6233 140.571 93.5814 138.839 85.9766 130.688C79.7026 124.167 76.2804 116.627 78.8471 113.265Z" fill="#A8A6A7"/>
<path id="Vector_4" d="M82.1731 138.636C82.1731 147.806 75.2337 153.003 66.6784 153.003C58.123 153.003 51.1836 147.806 51.1836 138.636C51.1836 129.466 58.123 119.889 66.6784 119.889C75.2337 119.889 82.1731 129.466 82.1731 138.636Z" fill="white"/>
</g>
</g>
</g>
</g>
</svg>
