<svg width="101" height="87" viewBox="0 0 101 87" fill="none" xmlns="http://www.w3.org/2000/svg">
<g id="Group 215">
<path id="Vector" d="M94.0572 29.7455C95.184 23.199 93.8426 12.7891 92.6085 5.33047C91.8574 0.9304 86.9748 -1.37695 83.1652 0.87674C79.4631 2.96946 75.0097 5.70608 71.0929 8.49637C64.7079 5.43779 57.5718 3.66703 50.0065 3.66703C42.4411 3.66703 35.2513 5.43779 28.92 8.49637C24.9496 5.70608 20.5499 2.96946 16.8477 0.87674C13.0382 -1.32329 8.15555 0.9304 7.40438 5.33047C6.11666 12.7891 4.82895 23.199 5.95571 29.7455C2.1462 36.3456 0 43.6432 0 50.7263C0 73.6925 31.3345 87 50.0065 87C68.6784 87 100.013 73.6925 100.013 50.7263C99.9593 43.5896 97.8131 36.3456 94.0572 29.7455Z" fill="#A8A6A7"/>
<path id="Vector_2" d="M49.8996 43.375C52.6896 43.375 55.9089 44.3409 54.9968 46.7019C54.1383 49.1165 51.1873 51.2629 49.8996 51.2629C48.6118 51.2629 45.6072 48.9556 44.8023 46.7019C43.8902 44.3409 47.1095 43.375 49.8996 43.375Z" fill="#282828"/>
<path id="Vector_3" d="M33.2659 46.5407C35.734 46.5407 37.7193 44.6626 37.7193 42.3016C37.7193 39.9942 35.734 38.0625 33.2659 38.0625C30.7977 38.0625 28.8125 39.9406 28.8125 42.3016C28.9198 44.6626 30.8514 46.5407 33.2659 46.5407Z" fill="#282828"/>
<path id="Vector_4" d="M66.5862 46.5407C69.0543 46.5407 71.0395 44.6626 71.0395 42.3016C71.0395 39.9942 69.0543 38.0625 66.5862 38.0625C64.118 38.0625 62.1328 39.9406 62.1328 42.3016C62.1865 44.6626 64.1717 46.5407 66.5862 46.5407Z" fill="#282828"/>
<path id="Vector_5" d="M73.1844 49.6533C72.5405 49.6533 71.9503 49.1704 71.843 48.5265C71.7357 47.7752 72.2186 47.0777 72.9698 46.9167L82.4131 45.2533C83.1642 45.0923 83.8617 45.6289 84.0227 46.3801C84.13 47.1313 83.6471 47.8289 82.8959 47.9899L73.4527 49.6533C73.3454 49.6533 73.238 49.6533 73.1844 49.6533Z" fill="#282828"/>
<path id="Vector_6" d="M82.573 57.4335C82.5193 57.4335 82.412 57.4335 82.3583 57.4335L72.9151 55.7701C72.1639 55.6627 71.681 54.9115 71.7883 54.1603C71.8956 53.4091 72.6468 52.9261 73.398 53.0334L82.8412 54.6969C83.5924 54.8042 84.0753 55.5554 83.968 56.3067C83.807 57.0042 83.2705 57.4335 82.573 57.4335Z" fill="#282828"/>
<path id="Vector_7" d="M26.1277 49.6532C26.074 49.6532 25.9667 49.6532 25.9131 49.6532L16.4698 47.9898C15.7186 47.8825 15.2357 47.1312 15.343 46.38C15.4503 45.6288 16.2015 45.1458 16.9527 45.2532L26.3959 46.9166C27.1471 47.0239 27.63 47.7752 27.5227 48.5264C27.3617 49.1703 26.7715 49.6532 26.1277 49.6532Z" fill="#282828"/>
<path id="Vector_8" d="M16.7391 57.4335C16.0952 57.4335 15.505 56.9506 15.3977 56.3067C15.2904 55.5554 15.7733 54.8579 16.5245 54.6969L25.9677 53.0334C26.7189 52.9261 27.4164 53.4091 27.5774 54.1603C27.6847 54.9115 27.2018 55.6091 26.4506 55.7701L17.0073 57.4335C16.9 57.4335 16.7927 57.4335 16.7391 57.4335Z" fill="#282828"/>
<path id="Vector_9" d="M54.7825 57.3265L51.1876 54.9118V50.8873C51.1876 50.1361 50.5437 49.4922 49.7926 49.4922C49.0414 49.4922 48.3975 50.1361 48.3975 50.8873V54.9118L44.8026 57.3265C44.1588 57.7557 43.9978 58.6143 44.4271 59.2582C44.6953 59.6338 45.1246 59.8484 45.5538 59.8484C45.8221 59.8484 46.0904 59.7948 46.305 59.6338L49.7389 57.3265L53.1728 59.6338C53.3875 59.7948 53.6557 59.8484 53.924 59.8484C54.3532 59.8484 54.7825 59.6338 55.0508 59.2582C55.5873 58.6143 55.4263 57.7557 54.7825 57.3265Z" fill="#282828"/>
<g id="Group">
<path id="Vector_10" d="M19.5857 30.6039C23.5562 33.9844 28.2778 36.5064 33.375 37.7942C39.0624 39.243 45.823 39.243 50.8129 35.7552C52.047 34.8966 53.0664 33.8235 53.5493 32.4283C53.9785 31.0868 53.8712 29.477 53.2274 28.1892C52.4762 26.7404 50.7592 25.7209 49.1496 26.5258C47.7009 27.277 46.8961 29.0478 46.6814 30.6039C46.3595 33.5552 48.8277 35.5942 51.1348 36.882C54.0859 38.5455 57.2515 39.5113 60.6317 39.726C66.2119 40.1016 71.5237 38.2235 75.8161 34.6283C76.3527 34.1454 76.299 33.2332 75.8161 32.7503C75.2796 32.2137 74.4748 32.2673 73.9382 32.7503C72.4359 33.9844 70.4506 35.2186 68.4654 35.9698C67.3923 36.3991 66.2655 36.7211 65.1388 36.882C65.0315 36.882 64.9242 36.9357 64.8169 36.9357C64.5486 36.9894 65.0851 36.9357 64.7095 36.9357C64.2803 36.9894 63.8511 37.043 63.4218 37.043C60.9 37.204 58.4319 36.882 56.0174 36.1308C54.7297 35.7015 53.5493 35.1649 52.3689 34.4674C51.4568 33.9308 50.491 33.3942 49.8471 32.5356C49.3106 31.8381 49.1496 31.0868 49.4715 30.1746C49.6325 29.6917 49.9008 29.3697 50.2227 28.9405C50.3837 28.7795 50.491 28.8868 50.2763 28.8868H50.33C50.4373 28.8868 50.5983 29.0478 50.7592 29.2087C51.2958 29.9063 51.2421 31.0332 50.9738 31.6771C50.5983 32.6429 49.7398 33.2869 48.8813 33.7698C44.5353 36.3991 39.2234 36.4528 34.3945 35.2723C29.6192 34.0917 25.2731 31.8917 21.4636 28.6722C20.9271 28.1892 20.1222 28.1356 19.5857 28.6722C19.1028 29.2087 19.0491 30.121 19.5857 30.6039Z" fill="#282828"/>
</g>
</g>
</svg>
