<svg width="145" height="145" viewBox="0 0 145 145" fill="none" xmlns="http://www.w3.org/2000/svg">
<rect width="145" height="145" fill="#D1D3D8"/>
<g clip-path="url(#clip0_58_2)">
<rect x="-108" y="-192" width="360" height="812" fill="white"/>
<rect x="-108" y="35" width="375" height="1179" fill="#F0F0F0"/>
<path d="M-92 -30C-92 -36.6274 -86.6274 -42 -80 -42H225C231.627 -42 237 -36.6274 237 -30V161C237 167.627 231.627 173 225 173H-80C-86.6274 173 -92 167.627 -92 161V-30Z" fill="#C6C6C6"/>
<circle cx="72.5" cy="72.5" r="68.5" fill="#D9D9D9" stroke="white" stroke-width="8"/>
<mask id="mask0_58_2" style="mask-type:alpha" maskUnits="userSpaceOnUse" x="6" y="5" width="133" height="134">
<circle cx="72.4" cy="72.2086" r="66.4" fill="#8E1818"/>
</mask>
<g mask="url(#mask0_58_2)">
<rect x="-45.3047" y="-11.7812" width="246.838" height="246.838" fill="#D9D9D9"/>
<path d="M99.2221 152.154C99.2221 137.485 86.863 83.8027 71.7807 84.0064C56.9079 84.2102 45.1772 138.402 45.2819 152.867C45.4914 181.695 55.0226 177.518 67.5912 178.028C68.7433 178.13 69.6859 177.213 69.6859 176.092V168.452C69.6859 165.193 74.9228 165.193 74.9228 168.452C74.9228 169.573 74.9228 170.795 74.9228 171.916V176.194C74.9228 177.315 75.8655 178.13 77.0176 178.13C89.5862 177.518 99.2221 181.797 99.2221 152.154Z" fill="#A8A6A7"/>
<path d="M58.5143 118.265C58.4193 118.163 58.4193 118.163 58.3242 118.061C58.3242 118.061 58.3242 118.061 58.2291 118.061C55.0922 115.31 48.0577 118.978 41.9739 125.601C34.3691 133.854 32.7531 137.013 33.2284 138.949C33.2284 139.152 34.179 140.477 35.5098 142.005C35.6049 142.107 35.795 142.311 36.0802 142.617C37.5061 144.043 38.7419 144.96 38.932 145.062C40.7381 145.571 43.78 143.839 51.3848 135.688C57.6588 129.167 61.0809 121.627 58.5143 118.265Z" fill="#A8A6A7"/>
<path d="M84.8471 118.265C84.9421 118.163 84.9421 118.163 85.0372 118.061C85.0372 118.061 85.0372 118.061 85.1322 118.061C88.2692 115.31 95.3037 118.978 101.387 125.601C108.992 133.854 110.608 137.013 110.133 138.949C110.133 139.152 109.182 140.477 107.852 142.005C107.756 142.107 107.566 142.311 107.281 142.617C105.855 144.043 104.62 144.96 104.429 145.062C102.623 145.571 99.5814 143.839 91.9766 135.688C85.7026 129.167 82.2804 121.627 84.8471 118.265Z" fill="#A8A6A7"/>
<path d="M88.1731 143.636C88.1731 152.806 81.2337 158.003 72.6784 158.003C64.123 158.003 57.1836 152.806 57.1836 143.636C57.1836 134.466 64.123 124.889 72.6784 124.889C81.2337 124.889 88.1731 134.466 88.1731 143.636Z" fill="white"/>
</g>
<path d="M117.057 65.7455C118.184 59.199 116.843 48.7891 115.609 41.3305C114.857 36.9304 109.975 34.623 106.165 36.8767C102.463 38.9695 98.0097 41.7061 94.0929 44.4964C87.7079 41.4378 80.5718 39.667 73.0065 39.667C65.4411 39.667 58.2513 41.4378 51.92 44.4964C47.9496 41.7061 43.5499 38.9695 39.8477 36.8767C36.0382 34.6767 31.1556 36.9304 30.4044 41.3305C29.1167 48.7891 27.829 59.199 28.9557 65.7455C25.1462 72.3456 23 79.6432 23 86.7263C23 109.692 54.3345 123 73.0065 123C91.6784 123 123.013 109.692 123.013 86.7263C122.959 79.5896 120.813 72.3456 117.057 65.7455Z" fill="#A8A6A7"/>
<path d="M72.8996 79.375C75.6896 79.375 78.9089 80.3409 77.9968 82.7019C77.1383 85.1165 74.1873 87.2629 72.8996 87.2629C71.6118 87.2629 68.6072 84.9556 67.8023 82.7019C66.8902 80.3409 70.1095 79.375 72.8996 79.375Z" fill="#282828"/>
<path d="M56.2659 82.5407C58.734 82.5407 60.7193 80.6626 60.7193 78.3016C60.7193 75.9942 58.734 74.0625 56.2659 74.0625C53.7977 74.0625 51.8125 75.9406 51.8125 78.3016C51.9198 80.6626 53.8514 82.5407 56.2659 82.5407Z" fill="#282828"/>
<path d="M89.5862 82.5407C92.0543 82.5407 94.0395 80.6626 94.0395 78.3016C94.0395 75.9942 92.0543 74.0625 89.5862 74.0625C87.118 74.0625 85.1328 75.9406 85.1328 78.3016C85.1865 80.6626 87.1717 82.5407 89.5862 82.5407Z" fill="#282828"/>
<path d="M96.1844 85.6533C95.5405 85.6533 94.9503 85.1704 94.843 84.5265C94.7357 83.7752 95.2186 83.0777 95.9698 82.9167L105.413 81.2533C106.164 81.0923 106.862 81.6289 107.023 82.3801C107.13 83.1313 106.647 83.8289 105.896 83.9899L96.4527 85.6533C96.3454 85.6533 96.238 85.6533 96.1844 85.6533Z" fill="#282828"/>
<path d="M105.573 93.4335C105.519 93.4335 105.412 93.4335 105.358 93.4335L95.9151 91.7701C95.1639 91.6627 94.681 90.9115 94.7883 90.1603C94.8956 89.4091 95.6468 88.9261 96.398 89.0334L105.841 90.6969C106.592 90.8042 107.075 91.5554 106.968 92.3067C106.807 93.0042 106.27 93.4335 105.573 93.4335Z" fill="#282828"/>
<path d="M49.1277 85.6532C49.074 85.6532 48.9667 85.6532 48.9131 85.6532L39.4698 83.9898C38.7186 83.8825 38.2357 83.1312 38.343 82.38C38.4503 81.6288 39.2015 81.1458 39.9527 81.2532L49.3959 82.9166C50.1471 83.0239 50.63 83.7752 50.5227 84.5264C50.3617 85.1703 49.7715 85.6532 49.1277 85.6532Z" fill="#282828"/>
<path d="M39.7391 93.4335C39.0952 93.4335 38.505 92.9506 38.3977 92.3067C38.2904 91.5554 38.7733 90.8579 39.5245 90.6969L48.9677 89.0334C49.7189 88.9261 50.4164 89.4091 50.5774 90.1603C50.6847 90.9115 50.2018 91.6091 49.4506 91.7701L40.0073 93.4335C39.9 93.4335 39.7927 93.4335 39.7391 93.4335Z" fill="#282828"/>
<path d="M77.7825 93.3265L74.1876 90.9118V86.8873C74.1876 86.1361 73.5437 85.4922 72.7926 85.4922C72.0414 85.4922 71.3975 86.1361 71.3975 86.8873V90.9118L67.8026 93.3265C67.1588 93.7557 66.9978 94.6143 67.4271 95.2582C67.6953 95.6338 68.1246 95.8484 68.5538 95.8484C68.8221 95.8484 69.0904 95.7948 69.305 95.6338L72.7389 93.3265L76.1728 95.6338C76.3875 95.7948 76.6557 95.8484 76.924 95.8484C77.3532 95.8484 77.7825 95.6338 78.0508 95.2582C78.5873 94.6143 78.4263 93.7557 77.7825 93.3265Z" fill="#282828"/>
<path d="M42.5857 66.6039C46.5562 69.9844 51.2778 72.5064 56.375 73.7942C62.0624 75.243 68.823 75.243 73.8129 71.7552C75.047 70.8966 76.0664 69.8235 76.5493 68.4283C76.9785 67.0868 76.8712 65.477 76.2274 64.1892C75.4762 62.7404 73.7592 61.7209 72.1496 62.5258C70.7009 63.277 69.8961 65.0478 69.6814 66.6039C69.3595 69.5552 71.8277 71.5942 74.1348 72.882C77.0859 74.5455 80.2515 75.5113 83.6317 75.726C89.2119 76.1016 94.5237 74.2235 98.8161 70.6283C99.3527 70.1454 99.299 69.2332 98.8161 68.7503C98.2796 68.2137 97.4748 68.2673 96.9382 68.7503C95.4359 69.9844 93.4506 71.2186 91.4654 71.9698C90.3923 72.3991 89.2655 72.7211 88.1388 72.882C88.0315 72.882 87.9242 72.9357 87.8169 72.9357C87.5486 72.9894 88.0851 72.9357 87.7095 72.9357C87.2803 72.9894 86.8511 73.043 86.4218 73.043C83.9 73.204 81.4319 72.882 79.0174 72.1308C77.7297 71.7015 76.5493 71.1649 75.3689 70.4674C74.4568 69.9308 73.491 69.3942 72.8471 68.5356C72.3106 67.8381 72.1496 67.0868 72.4715 66.1746C72.6325 65.6917 72.9008 65.3697 73.2227 64.9405C73.3837 64.7795 73.491 64.8868 73.2763 64.8868H73.33C73.4373 64.8868 73.5983 65.0478 73.7592 65.2087C74.2958 65.9063 74.2421 67.0332 73.9738 67.6771C73.5983 68.6429 72.7398 69.2869 71.8813 69.7698C67.5353 72.3991 62.2234 72.4528 57.3945 71.2723C52.6192 70.0917 48.2731 67.8917 44.4636 64.6722C43.9271 64.1892 43.1222 64.1356 42.5857 64.6722C42.1028 65.2087 42.0491 66.121 42.5857 66.6039Z" fill="#282828"/>
</g>
<rect x="-107.5" y="-191.5" width="359" height="811" stroke="#F5F5F5"/>
<rect opacity="0.45" x="-2313.5" y="-982.5" width="2610" height="4187" stroke="#0087FF" stroke-width="15"/>
<defs>
<clipPath id="clip0_58_2">
<rect x="-108" y="-192" width="360" height="812" fill="white"/>
</clipPath>
</defs>
</svg>
