<svg width="56" height="56" viewBox="0 0 56 56" fill="none" xmlns="http://www.w3.org/2000/svg">
<circle cx="28" cy="28" r="28" fill="#E7E7E7"/>
<g clip-path="url(#clip0_1810_10739)">
<path d="M40.4074 39.5845C40.3317 39.5845 40.256 39.547 40.1929 39.4846L36.0434 35.2027H15.5731C15.3966 35.2027 15.2578 35.0528 15.2578 34.8656V16.7516C15.2578 16.5644 15.3966 16.4146 15.5731 16.4146H40.4074C40.5839 16.4146 40.7227 16.5644 40.7227 16.7516V39.2474C40.7227 39.3473 40.6975 39.4347 40.6218 39.4846C40.5587 39.547 40.4704 39.5845 40.3821 39.5845H40.4074Z" fill="#CCCCCC"/>
<path d="M39.4736 17.663V36.938L37.3294 34.7159L36.5853 33.9419H16.5186V17.663H39.4736ZM40.4195 15.1663H15.5727C14.7024 15.1663 13.9961 15.8778 13.9961 16.7517V34.8657C13.9961 35.7395 14.7024 36.4511 15.5727 36.4511H35.5006L39.2718 40.3461C39.5997 40.6831 40.0033 40.8329 40.3943 40.8329C41.2015 40.8329 41.9835 40.2087 41.9835 39.2475V16.7517C41.9835 15.8778 41.2772 15.1663 40.4069 15.1663H40.4195Z" fill="#CCCCCC"/>
<path d="M21.207 22.8931H32.7476" stroke="#F2F2F2" stroke-width="1.5" stroke-miterlimit="10" stroke-linecap="round"/>
<path d="M21.207 28.1987H27.9926" stroke="#F2F2F2" stroke-width="1.5" stroke-miterlimit="10" stroke-linecap="round"/>
</g>
<defs>
<clipPath id="clip0_1810_10739">
<rect width="28" height="25.6667" fill="white" transform="translate(13.9961 15.1663)"/>
</clipPath>
</defs>
</svg>
