<svg width="48" height="48" viewBox="0 0 48 48" fill="none" xmlns="http://www.w3.org/2000/svg">
<g clip-path="url(#clip0_1751_11373)">
<rect width="48" height="48" rx="24" fill="#FFE6C7"/>
<path d="M32.8915 38.0885H14.6439C12.2312 39.8679 9.74819 44.5676 9.95771 48.4503C10.0605 50.3481 10.4171 52.1184 12.3626 52.4866C13.8943 52.7753 14.7298 52.0911 15.0291 51.5045C15.0603 51.4434 15.1501 51.4642 15.1566 51.5318C15.3466 53.7613 15.845 55.6045 16.5998 57.406C17.6865 59.9997 18.5961 59.9984 20.0536 59.9997C21.4292 59.9997 23.1079 59.9997 23.0663 54.7564C23.3304 54.8019 23.5165 54.8253 23.7677 54.8253C24.0189 54.8253 24.205 54.8019 24.4691 54.7564C24.4275 59.9997 26.1062 60.001 27.4818 59.9997C28.938 59.9997 29.8476 59.9997 30.9356 57.406C31.6904 55.6045 32.1888 53.7613 32.3788 51.5318C32.384 51.4642 32.4751 51.4434 32.5063 51.5045C32.8056 52.0911 33.6411 52.7766 35.1728 52.4866C37.1183 52.1197 37.4749 50.3481 37.5777 48.4503C37.7872 44.5676 35.3042 39.8679 32.8915 38.0885Z" fill="#FF9F69"/>
<path d="M23.771 52.6687C26.1945 52.6687 28.1592 50.5978 28.1592 48.0432C28.1592 45.4886 26.1945 43.4177 23.771 43.4177C21.3475 43.4177 19.3828 45.4886 19.3828 48.0432C19.3828 50.5978 21.3475 52.6687 23.771 52.6687Z" fill="#FFE8CC"/>
<path d="M15.0678 51.4733C14.9676 51.4733 14.8817 51.3953 14.8739 51.2938C14.572 47.5021 15.4791 44.9058 15.5181 44.7978C15.5545 44.6964 15.6665 44.6443 15.768 44.6795C15.8695 44.7159 15.9228 44.8278 15.8864 44.9292C15.8773 44.9552 14.9689 47.5606 15.2643 51.2639C15.2734 51.3719 15.1928 51.4655 15.0847 51.4733C15.0795 51.4733 15.0743 51.4733 15.0691 51.4733H15.0678Z" fill="#E37D44"/>
<path d="M32.4615 51.4733C32.4615 51.4733 32.4511 51.4733 32.4459 51.4733C32.3379 51.4642 32.2585 51.3705 32.2663 51.2639C32.5617 47.5606 31.6534 44.9552 31.6443 44.9292C31.6078 44.8277 31.6612 44.7158 31.7627 44.6794C31.8642 44.643 31.9761 44.6963 32.0126 44.7978C32.0516 44.9058 32.9587 47.5021 32.6567 51.2938C32.6489 51.3965 32.563 51.4733 32.4628 51.4733H32.4615Z" fill="#E37D44"/>
<path d="M35.9102 9.03095C32.459 8.4209 25.9249 17.0306 25.9249 17.0306C25.9249 17.0306 25.4837 16.9044 23.7712 16.9044C22.0586 16.9044 21.6174 17.0306 21.6174 17.0306C21.6174 17.0306 15.0833 8.4209 11.6321 9.03095C9.27795 9.44719 4.97176 16.4492 6.22366 25.7066C6.76243 28.2457 7.61481 30.4349 8.68062 32.3067C11.5488 37.3484 15.9513 39.4517 19.8788 40.5456C21.227 40.9203 22.6182 41.1024 23.7725 41.1154C24.9281 41.1024 26.3179 40.9216 27.6661 40.5456C31.5936 39.453 35.9948 37.3497 38.8643 32.3067C39.9288 30.4349 40.7825 28.2457 41.3212 25.7066C42.5732 16.4492 38.2683 9.44719 35.9128 9.03095H35.9102Z" fill="#FF9F69"/>
<path d="M23.7679 37.8427C27.1944 37.8427 29.4913 36.0828 29.9702 33.5736C30.4504 31.0645 28.5647 28.9468 23.7679 28.9468C18.9711 28.9468 17.0855 31.0645 17.5644 33.5736C18.0446 36.0828 20.3402 37.8427 23.7679 37.8427Z" fill="#FFE8CC"/>
<path d="M18.1905 29.1094C19.1261 29.1094 19.9043 28.3511 19.9043 27.434C19.9043 26.517 19.1248 25.7587 18.1905 25.7587C17.2561 25.7587 16.4766 26.517 16.4766 27.434C16.4766 28.3511 17.2561 29.1094 18.1905 29.1094Z" fill="#282828"/>
<path d="M29.3467 29.1094C28.411 29.1094 27.6328 28.3511 27.6328 27.434C27.6328 26.517 28.4123 25.7587 29.3467 25.7587C30.2811 25.7587 31.0606 26.517 31.0606 27.434C31.0606 28.3511 30.2811 29.1094 29.3467 29.1094Z" fill="#282828"/>
<path d="M23.769 27.7631C23.0832 27.7631 22.1267 28.0116 22.3766 28.8037C22.6147 29.5582 23.3604 30.0004 23.769 30.0004C24.1777 30.0004 24.9246 29.5569 25.1615 28.8037C25.4113 28.0116 24.4548 27.7631 23.769 27.7631Z" fill="#282828"/>
<path d="M23.7662 33.1977C22.8305 33.1977 21.9547 32.8946 21.3665 32.3678C21.2325 32.2481 21.2208 32.0426 21.3405 31.9086C21.4602 31.7746 21.6658 31.7629 21.7999 31.8839C22.271 32.3067 22.988 32.5486 23.7662 32.5486C24.5444 32.5486 25.2602 32.3067 25.7326 31.8839C25.8666 31.7642 26.0722 31.7759 26.1919 31.9086C26.3117 32.0426 26.3 32.2481 26.1672 32.3678C25.5777 32.8959 24.7032 33.1977 23.7675 33.1977H23.7662Z" fill="#282828"/>
</g>
<defs>
<clipPath id="clip0_1751_11373">
<rect width="48" height="48" rx="24" fill="white"/>
</clipPath>
</defs>
</svg>
