<svg width="95" height="122" viewBox="0 0 95 122" fill="none" xmlns="http://www.w3.org/2000/svg">
<mask id="mask0_1738_11202" style="mask-type:alpha" maskUnits="userSpaceOnUse" x="0" y="0" width="95" height="122">
<rect width="95" height="122" fill="#D9D9D9"/>
</mask>
<g mask="url(#mask0_1738_11202)">
<path d="M70.4139 82.8668H25.3528C19.3948 87.263 13.2632 98.8738 13.7806 108.466C14.0345 113.155 14.915 117.529 19.7193 118.438C23.5017 119.152 25.5649 117.461 26.304 116.012C26.3811 115.861 26.6029 115.912 26.6189 116.079C27.0881 121.587 28.3189 126.141 30.1828 130.592C32.8662 137 35.1125 136.997 38.7117 137C42.1085 137 46.254 137 46.1512 124.046C46.8035 124.158 47.2631 124.216 47.8833 124.216C48.5035 124.216 48.9631 124.158 49.6154 124.046C49.5126 137 53.6582 137.003 57.0549 137C60.6509 137 62.8973 137 65.5838 130.592C67.4477 126.141 68.6785 121.587 69.1477 116.079C69.1606 115.912 69.3855 115.861 69.4626 116.012C70.2018 117.461 72.2649 119.155 76.0473 118.438C80.8516 117.532 81.7321 113.155 81.986 108.466C82.5034 98.8738 76.3719 87.263 70.4139 82.8668Z" fill="#FF9F69"/>
<path d="M47.8831 118.888C53.8678 118.888 58.7194 113.772 58.7194 107.461C58.7194 101.149 53.8678 96.033 47.8831 96.033C41.8984 96.033 37.0469 101.149 37.0469 107.461C37.0469 113.772 41.8984 118.888 47.8831 118.888Z" fill="#FFE8CC"/>
<path d="M26.4118 115.935C26.1643 115.935 25.9522 115.742 25.9329 115.491C25.1874 106.124 27.4273 99.7126 27.5237 99.4426C27.6137 99.192 27.89 99.0602 28.1407 99.1502C28.3914 99.2402 28.5231 99.5166 28.4331 99.7672C28.4106 99.8315 26.1675 106.268 26.897 115.414C26.9195 115.681 26.7203 115.912 26.4536 115.932C26.4407 115.932 26.4278 115.932 26.415 115.932L26.4118 115.935Z" fill="#E37D44"/>
<path d="M69.359 115.935C69.359 115.935 69.3332 115.935 69.3204 115.935C69.0537 115.912 68.8576 115.681 68.8769 115.417C69.6064 106.268 67.3633 99.8315 67.3408 99.7704C67.2508 99.5198 67.3826 99.2434 67.6332 99.1534C67.8839 99.0635 68.1603 99.1952 68.2503 99.4459C68.3467 99.7158 70.5865 106.127 69.841 115.495C69.8217 115.748 69.6096 115.938 69.3622 115.938L69.359 115.935Z" fill="#E37D44"/>
<path d="M77.8643 11.0783C69.3418 9.53574 53.2063 31.3047 53.2063 31.3047C53.2063 31.3047 52.1169 30.9865 47.8878 30.9865C43.6587 30.9865 42.5693 31.3047 42.5693 31.3047C42.5693 31.3047 26.4338 9.53574 17.9114 11.0783C12.0915 12.1323 1.46096 29.836 4.55244 53.2439C5.88287 59.6647 7.98778 65.1985 10.6197 69.9321C17.7025 82.6805 28.5741 87.999 38.2727 90.7627C41.602 91.7107 45.0374 92.1702 47.8878 92.2023C50.7415 92.1702 54.1736 91.7107 57.5029 90.7627C67.2015 87.999 78.0699 82.6805 85.1559 69.9321C87.7846 65.1985 89.8928 59.6647 91.2232 53.2439C94.3115 29.836 83.6777 12.1323 77.8643 11.0783Z" fill="#FF9F69"/>
<path d="M47.8881 82.2595C56.3495 82.2595 62.0215 77.9115 63.2041 71.7124C64.3899 65.5134 59.7334 60.2817 47.8881 60.2817C36.0428 60.2817 31.3863 65.5134 32.5689 71.7124C33.7547 77.9115 39.4235 82.2595 47.8881 82.2595Z" fill="#FFE8CC"/>
<path d="M34.0995 60.6833C36.4101 60.6833 38.3318 58.8098 38.3318 56.5442C38.3318 54.2786 36.4069 52.4051 34.0995 52.4051C31.7921 52.4051 29.8672 54.2786 29.8672 56.5442C29.8672 58.8098 31.7921 60.6833 34.0995 60.6833Z" fill="#282828"/>
<path d="M61.662 60.6833C59.3514 60.6833 57.4297 58.8098 57.4297 56.5442C57.4297 54.2786 59.3546 52.4051 61.662 52.4051C63.9694 52.4051 65.8943 54.2786 65.8943 56.5442C65.8943 58.8098 63.9694 60.6833 61.662 60.6833Z" fill="#282828"/>
<path d="M47.8826 57.3573C46.1891 57.3573 43.8271 57.9711 44.4441 59.9282C45.0322 61.7921 46.8736 62.8847 47.8826 62.8847C48.8917 62.8847 50.7363 61.7889 51.3212 59.9282C51.9382 57.9711 49.5762 57.3573 47.8826 57.3573Z" fill="#282828"/>
<path d="M47.8818 70.7837C45.5712 70.7837 43.4117 70.035 41.9559 68.7335C41.6249 68.4378 41.596 67.9301 41.8917 67.5991C42.1873 67.2681 42.6951 67.2391 43.0261 67.5348C44.1926 68.5792 45.9601 69.1769 47.8818 69.1769C49.8035 69.1769 51.571 68.5792 52.7376 67.5348C53.0686 67.2391 53.5763 67.2681 53.872 67.5991C54.1676 67.9301 54.1387 68.4378 53.8077 68.7335C52.3519 70.0382 50.1924 70.7837 47.8818 70.7837Z" fill="#282828"/>
</g>
</svg>
