<svg width="48" height="48" viewBox="0 0 48 48" fill="none" xmlns="http://www.w3.org/2000/svg">
<circle cx="24" cy="24" r="24" fill="white"/>
<g clip-path="url(#clip0_905_15965)">
<path d="M33.8055 22.0415H33V22H24V26H29.6515C28.827 28.3285 26.6115 30 24 30C20.6865 30 18 27.3135 18 24C18 20.6865 20.6865 18 24 18C25.5295 18 26.921 18.577 27.9805 19.5195L30.809 16.691C29.023 15.0265 26.634 14 24 14C18.4775 14 14 18.4775 14 24C14 29.5225 18.4775 34 24 34C29.5225 34 34 29.5225 34 24C34 23.3295 33.931 22.675 33.8055 22.0415Z" fill="#FFC107"/>
<path d="M15.1523 19.3455L18.4378 21.755C19.3268 19.554 21.4798 18 23.9993 18C25.5288 18 26.9203 18.577 27.9798 19.5195L30.8083 16.691C29.0223 15.0265 26.6333 14 23.9993 14C20.1583 14 16.8273 16.1685 15.1523 19.3455Z" fill="#FF3D00"/>
<path d="M24.0002 34.0003C26.5832 34.0003 28.9302 33.0118 30.7047 31.4043L27.6097 28.7853C26.5719 29.5745 25.3039 30.0014 24.0002 30.0003C21.3992 30.0003 19.1907 28.3418 18.3587 26.0273L15.0977 28.5398C16.7527 31.7783 20.1137 34.0003 24.0002 34.0003Z" fill="#4CAF50"/>
<path d="M33.8055 22.0415H33V22H24V26H29.6515C29.2571 27.1082 28.5467 28.0766 27.608 28.7855L27.6095 28.7845L30.7045 31.4035C30.4855 31.6025 34 29 34 24C34 23.3295 33.931 22.675 33.8055 22.0415Z" fill="#1976D2"/>
</g>
<defs>
<clipPath id="clip0_905_15965">
<rect width="24" height="24" fill="white" transform="translate(12 12)"/>
</clipPath>
</defs>
</svg>
