<svg width="28" height="30" viewBox="0 0 28 30" fill="none" xmlns="http://www.w3.org/2000/svg">
<g filter="url(#filter0_d_905_8579)">
<path d="M23.8055 10.0415H23V10H14V14H19.6515C18.827 16.3285 16.6115 18 14 18C10.6865 18 8 15.3135 8 12C8 8.6865 10.6865 6 14 6C15.5295 6 16.921 6.577 17.9805 7.5195L20.809 4.691C19.023 3.0265 16.634 2 14 2C8.4775 2 4 6.4775 4 12C4 17.5225 8.4775 22 14 22C19.5225 22 24 17.5225 24 12C24 11.3295 23.931 10.675 23.8055 10.0415Z" fill="#FFC107"/>
<path d="M5.15234 7.3455L8.43784 9.755C9.32684 7.554 11.4798 6 13.9993 6C15.5288 6 16.9203 6.577 17.9798 7.5195L20.8083 4.691C19.0223 3.0265 16.6333 2 13.9993 2C10.1583 2 6.82734 4.1685 5.15234 7.3455Z" fill="#FF3D00"/>
<path d="M14.0002 22.0003C16.5832 22.0003 18.9302 21.0118 20.7047 19.4043L17.6097 16.7853C16.5719 17.5745 15.3039 18.0014 14.0002 18.0003C11.3992 18.0003 9.19066 16.3418 8.35866 14.0273L5.09766 16.5398C6.75266 19.7783 10.1137 22.0003 14.0002 22.0003Z" fill="#4CAF50"/>
<path d="M23.8055 10.0415H23V10H14V14H19.6515C19.2571 15.1082 18.5467 16.0766 17.608 16.7855L17.6095 16.7845L20.7045 19.4035C20.4855 19.6025 24 17 24 12C24 11.3295 23.931 10.675 23.8055 10.0415Z" fill="#1976D2"/>
</g>
<defs>
<filter id="filter0_d_905_8579" x="-2" y="0" width="32" height="32" filterUnits="userSpaceOnUse" color-interpolation-filters="sRGB">
<feFlood flood-opacity="0" result="BackgroundImageFix"/>
<feColorMatrix in="SourceAlpha" type="matrix" values="0 0 0 0 0 0 0 0 0 0 0 0 0 0 0 0 0 0 127 0" result="hardAlpha"/>
<feOffset dy="4"/>
<feGaussianBlur stdDeviation="2"/>
<feComposite in2="hardAlpha" operator="out"/>
<feColorMatrix type="matrix" values="0 0 0 0 0 0 0 0 0 0 0 0 0 0 0 0 0 0 0.25 0"/>
<feBlend mode="normal" in2="BackgroundImageFix" result="effect1_dropShadow_905_8579"/>
<feBlend mode="normal" in="SourceGraphic" in2="effect1_dropShadow_905_8579" result="shape"/>
</filter>
</defs>
</svg>
