<svg width="23" height="24" viewBox="0 0 23 24" fill="none" xmlns="http://www.w3.org/2000/svg">
<g id="_?&#235;&#141;&#137;&#236;&#148;&#160;??1" clip-path="url(#clip0_1112_3501)">
<path id="Vector" d="M22.18 11.66V23.5C22.18 23.78 21.96 24 21.68 24H0.5C0.22 24 0 23.78 0 23.5V11.66C0 11.61 0.02 11.55 0.07 11.49L0.37 11.09L8.42 0.35C8.5 0.25 8.63 0.15 8.78 0.09C8.82 0.03 8.9 0 9.02 0H13.15C13.27 0 13.35 0.03 13.4 0.09C13.55 0.16 13.68 0.25 13.76 0.35L21.81 11.08L22.11 11.48C22.16 11.54 22.18 11.6 22.18 11.65V11.66Z" fill="white"/>
<path id="Vector_2" d="M10.8987 13.9395C13.6087 13.9395 14.3288 16.5495 13.6388 17.7795C13.2888 18.3995 13.0687 18.7895 12.8987 19.0195L11.0888 22.0395H8.86875L10.5388 19.2695C9.21875 19.1095 8.20875 18.1395 8.30875 16.6195C8.42875 14.8195 9.61875 13.9395 10.9188 13.9395M10.9188 12.4395C8.65875 12.4395 6.97875 14.1195 6.81875 16.5195C6.71875 17.9795 7.30875 19.2295 8.35875 19.9995L7.58875 21.2795L6.21875 23.5495H11.9387L12.3788 22.8195L14.1588 19.8595C14.3687 19.5695 14.5688 19.2095 14.8888 18.6395L14.9587 18.5195C15.5988 17.3895 15.5288 15.7995 14.8088 14.5595C14.0288 13.2195 12.6088 12.4495 10.9188 12.4495V12.4395Z" fill="#BBBBBC"/>
<path id="Vector_3" d="M12.5 2L20.18 12.24V22H2V12.24L9.68 2H12.5ZM13.16 0H9.03C8.91 0 8.83 0.03 8.78 0.09C8.63 0.16 8.5 0.25 8.42 0.35L0.37 11.08L0.07 11.48C0.02 11.55 0 11.61 0 11.66V23.5C0 23.78 0.22 24 0.5 24H21.68C21.96 24 22.18 23.78 22.18 23.5V11.66C22.18 11.61 22.16 11.55 22.11 11.49L21.81 11.09L13.76 0.35C13.68 0.25 13.55 0.15 13.4 0.09C13.36 0.04 13.28 0 13.15 0L13.16 0Z" fill="#BBBBBC"/>
</g>
<defs>
<clipPath id="clip0_1112_3501">
<rect width="22.18" height="24" fill="white"/>
</clipPath>
</defs>
</svg>
