<svg width="8" height="14" viewBox="0 0 8 14" fill="none" xmlns="http://www.w3.org/2000/svg">
<path fill-rule="evenodd" clip-rule="evenodd" d="M0.291681 7.70682C0.10421 7.51929 -0.00110523 7.26498 -0.0011052 6.99982C-0.00110518 6.73465 0.104211 6.48035 0.291681 6.29282L5.94868 0.635819C6.04093 0.540309 6.15127 0.464126 6.27328 0.411717C6.39528 0.359308 6.5265 0.331723 6.65928 0.330569C6.79206 0.329415 6.92374 0.354717 7.04664 0.404998C7.16953 0.455278 7.28118 0.529532 7.37508 0.623425C7.46897 0.717319 7.54322 0.828969 7.5935 0.951865C7.64378 1.07476 7.66909 1.20644 7.66793 1.33922C7.66678 1.472 7.63919 1.60322 7.58678 1.72522C7.53437 1.84723 7.45819 1.95757 7.36268 2.04982L2.41268 6.99982L7.36268 11.9498C7.54484 12.1384 7.64563 12.391 7.64335 12.6532C7.64108 12.9154 7.53591 13.1662 7.3505 13.3516C7.16509 13.537 6.91428 13.6422 6.65208 13.6445C6.38989 13.6468 6.13728 13.546 5.94868 13.3638L0.291681 7.70682Z" fill="#6B6B6B"/>
</svg>
