<svg width="24" height="24" viewBox="0 0 24 24" fill="none" xmlns="http://www.w3.org/2000/svg">
<path fill-rule="evenodd" clip-rule="evenodd" d="M1.99219 11.5C1.99219 6.643 6.62993 3 11.953 3C17.276 3 21.9138 6.643 21.9138 11.5C21.9138 16.357 17.276 20 11.953 20C11.43 20 10.9151 19.966 10.413 19.9L7.52441 21.832C7.3605 21.9416 7.16791 22 6.97098 21.9997C6.77405 21.9995 6.58161 21.9406 6.41798 21.8306C6.25435 21.7206 6.12688 21.5643 6.05167 21.3816C5.97646 21.1989 5.95689 20.9979 5.99543 20.804L6.43868 18.583C3.81302 17.09 1.99219 14.517 1.99219 11.5Z" fill="black"/>
</svg>
