<svg width="15" height="14" viewBox="0 0 15 14" fill="none" xmlns="http://www.w3.org/2000/svg">
<g id="basil:heart-outline">
<path id="Vector" fill-rule="evenodd" clip-rule="evenodd" d="M1.5 5.27771C1.5 3.42629 3.12514 2 5.03143 2C6.01406 2 6.87943 2.4608 7.5 3.05737C8.12057 2.4608 8.98526 2 9.96857 2C11.8749 2 13.5 3.42629 13.5 5.27771C13.5 6.54629 12.959 7.66126 12.2095 8.6048C11.4621 9.5456 10.4829 10.3445 9.54617 10.9938C9.18754 11.2421 8.82617 11.4704 8.49429 11.6391C8.18366 11.7975 7.82571 11.9429 7.5 11.9429C7.17429 11.9429 6.81703 11.7975 6.50571 11.6391C6.14165 11.4471 5.7905 11.2316 5.45451 10.9938C4.51714 10.3445 3.53863 9.5456 2.79051 8.6048C2.04103 7.66126 1.5 6.54629 1.5 5.27771ZM5.03143 3.02857C3.60514 3.02857 2.52857 4.07771 2.52857 5.27771C2.52857 6.23977 2.93726 7.136 3.59554 7.96434C4.2552 8.79406 5.1432 9.52709 6.04011 10.1483C6.37954 10.3835 6.6984 10.5831 6.97269 10.723C7.26617 10.8725 7.43623 10.9143 7.5 10.9143C7.56377 10.9143 7.73383 10.8725 8.028 10.7223C8.35091 10.5513 8.66242 10.3596 8.96057 10.1483C9.8568 9.52709 10.7448 8.79474 11.4045 7.96434C12.0627 7.136 12.4714 6.23977 12.4714 5.27771C12.4714 4.07771 11.3949 3.02857 9.96857 3.02857C9.14983 3.02857 8.38457 3.51749 7.908 4.13874C7.85998 4.20132 7.7982 4.25202 7.72746 4.28691C7.65671 4.32179 7.57888 4.33994 7.5 4.33994C7.42112 4.33994 7.34329 4.32179 7.27255 4.28691C7.2018 4.25202 7.14002 4.20132 7.092 4.13874C6.61543 3.51749 5.85086 3.02857 5.03143 3.02857Z" fill="#606163"/>
</g>
</svg>
