<svg width="24" height="24" viewBox="0 0 24 24" fill="none" xmlns="http://www.w3.org/2000/svg">
<g id="Frame 145">
<g id="Group">
<path id="Vector" d="M11.9991 3.15779C11.463 3.15779 11.1515 2 9.50392 2C8.15039 2 7.14849 3.24867 6.60872 3.80625C5.25611 5.20525 4.19484 6.39558 2.30611 8.71566C0.724256 10.6588 0 10.9202 0 11.5956C0 13.091 1.92983 16.1179 3.83591 18.1631C5.72007 20.1848 7.71383 22 12 22" fill="#FF7377"/>
<path id="Vector_2" d="M12 3.15779C12.5361 3.15779 12.8476 2 14.4952 2C15.8487 2 16.8506 3.24867 17.3904 3.80625C18.743 5.20525 19.8042 6.39558 21.693 8.71566C23.2757 10.6599 24 10.9213 24 11.5967C24 13.0922 22.0702 16.119 20.1641 18.1642C18.2799 20.1859 16.2862 22.0011 12 22.0011" fill="#FF7377"/>
</g>
<path id="Vector_3" d="M12.1626 10C9.38648 10 6.98533 11.1533 7.00007 11.7367C7.02034 12.5187 9.31829 14.2183 12.0945 14.2183C14.8706 14.2183 17.1686 12.5187 17.1888 11.7367C17.2045 11.1533 14.9388 10 12.1626 10Z" fill="#BF565A"/>
</g>
</svg>
