<svg width="50" height="50" viewBox="0 0 50 50" fill="none" xmlns="http://www.w3.org/2000/svg">
<path d="M50 25C50 38.8071 38.8071 50 25 50C11.1929 50 0 38.8071 0 25C0 11.1929 11.1929 0 25 0C38.8071 0 50 11.1929 50 25ZM5.41232 25C5.41232 35.818 14.182 44.5877 25 44.5877C35.818 44.5877 44.5877 35.818 44.5877 25C44.5877 14.182 35.818 5.41232 25 5.41232C14.182 5.41232 5.41232 14.182 5.41232 25Z" fill="#D9D9D9"/>
<path d="M50 25C50 28.283 49.3534 31.5339 48.097 34.5671C46.8406 37.6002 44.9991 40.3562 42.6777 42.6777C40.3562 44.9991 37.6002 46.8406 34.5671 48.097C31.5339 49.3534 28.283 50 25 50L25 44.5877C27.5723 44.5877 30.1194 44.081 32.4959 43.0967C34.8724 42.1123 37.0317 40.6695 38.8506 38.8506C40.6695 37.0317 42.1123 34.8724 43.0967 32.4959C44.081 30.1194 44.5877 27.5723 44.5877 25H50Z" fill="#2FD714"/>
</svg>
