<svg width="138" height="84" viewBox="0 0 138 84" fill="none" xmlns="http://www.w3.org/2000/svg">
<g clip-path="url(#clip0_905_8627)">
<path d="M13.8795 72.486C14.2742 72.486 14.596 72.8079 14.596 73.2087V77.1743H21.6329C22.0275 77.1743 22.3493 77.4962 22.3493 77.897V81.9172C22.3493 82.318 22.0275 82.6399 21.6329 82.6399H0.716442C0.321791 82.6399 0 82.318 0 81.9172V77.897C0 77.5022 0.321791 77.1743 0.716442 77.1743H8.1055V73.2087C8.1055 72.814 8.42729 72.486 8.82195 72.486H13.8795ZM0.977518 61.646V58.7613C0.977518 52.3666 4.54758 49.4759 11.3538 49.4759C18.16 49.4759 21.73 52.3605 21.73 58.7613V61.646C21.73 68.0407 18.16 70.9314 11.3538 70.9314C4.54758 70.9314 0.977518 68.0407 0.977518 61.646ZM6.5269 61.4516C6.5269 64.069 7.78978 65.3504 11.3538 65.3504C14.9178 65.3504 16.2171 64.063 16.2171 61.4516V58.9192C16.2171 56.3018 14.9542 55.0204 11.3538 55.0204C7.75336 55.0204 6.5269 56.3079 6.5269 58.9192V61.4516ZM33.1324 63.1217C33.527 63.1217 33.8488 63.4435 33.8488 63.8443V69.1885C33.8488 69.5832 33.527 69.9111 33.1324 69.9111H30.0177V83.2897C30.0177 83.6844 29.6959 84.0063 29.3012 84.0063H24.9844C24.5897 84.0063 24.2679 83.6844 24.2679 83.2897V49.8281C24.2679 49.4334 24.5897 49.1055 24.9844 49.1055H29.3012C29.6959 49.1055 30.0177 49.4273 30.0177 49.8281V63.1277H33.1324V63.1217Z" fill="#2F332E"/>
<path d="M83.6647 72.486C84.0593 72.486 84.3811 72.8079 84.3811 73.2087V77.1743H91.4181C91.8127 77.1743 92.1345 77.4962 92.1345 77.897V81.9172C92.1345 82.318 91.8127 82.6399 91.4181 82.6399H70.5016C70.1069 82.6399 69.7852 82.318 69.7852 81.9172V77.897C69.7852 77.5022 70.1069 77.1743 70.5016 77.1743H77.8907V73.2087C77.8907 72.814 78.2125 72.486 78.6071 72.486H83.6647ZM70.7566 61.646V58.7613C70.7566 52.3666 74.3267 49.4759 81.1329 49.4759C87.9391 49.4759 91.5091 52.3605 91.5091 58.7613V61.646C91.5091 68.0407 87.9391 70.9314 81.1329 70.9314C74.3267 70.9314 70.7566 68.0407 70.7566 61.646ZM76.306 61.4516C76.306 64.069 77.5689 65.3504 81.1329 65.3504C84.6969 65.3504 85.9962 64.063 85.9962 61.4516V58.9192C85.9962 56.3018 84.7333 55.0204 81.1329 55.0204C77.5324 55.0204 76.306 56.3079 76.306 58.9192V61.4516ZM102.911 63.1217C103.306 63.1217 103.628 63.4435 103.628 63.8443V69.1885C103.628 69.5832 103.306 69.9111 102.911 69.9111H99.7968V83.2897C99.7968 83.6844 99.475 84.0063 99.0803 84.0063H94.7635C94.3688 84.0063 94.047 83.6844 94.047 83.2897V49.8281C94.047 49.4334 94.3688 49.1055 94.7635 49.1055H99.0803C99.475 49.1055 99.7968 49.4273 99.7968 49.8281V63.1277H102.911V63.1217Z" fill="#2F332E"/>
<path d="M35.2461 61.9616C35.2461 61.5608 35.5679 61.2389 35.9625 61.2389H67.6681C68.0628 61.2389 68.3846 61.5608 68.3846 61.9616V65.2349C68.3846 65.6357 68.0628 65.9576 67.6681 65.9576H35.9625C35.5679 65.9576 35.2461 65.6357 35.2461 65.2349V61.9616ZM44.0438 77.9636L44.068 79.6276H65.4338C65.8284 79.6276 66.1502 79.9495 66.1502 80.3503V83.2835C66.1502 83.6843 65.8284 84.0062 65.4338 84.0062H38.7372C38.3487 84.0062 38.0269 83.6904 38.0208 83.2956L37.8751 74.3989C37.869 73.9981 38.1908 73.6641 38.5915 73.6641H60.0483L60.0787 72.079H38.5794C38.1847 72.079 37.8629 71.7572 37.8629 71.3564V68.4232C37.8629 68.0224 38.1847 67.7005 38.5794 67.7005H64.1102C65.1059 67.7005 65.9134 68.5203 65.9013 69.5224L65.8102 77.2531C65.8102 77.6479 65.4884 77.9636 65.0938 77.9636H44.0438ZM59.6962 59.9576L60.0058 54.3402H38.9194C38.5247 54.3402 38.2029 54.0183 38.2029 53.6175V49.9981C38.2029 49.5973 38.5247 49.2754 38.9194 49.2754H63.1205C64.5352 49.2754 65.6645 50.5568 65.5977 52.0871L65.2941 59.2713C65.2759 59.66 64.9602 59.9636 64.5777 59.9636H59.684L59.6962 59.9576Z" fill="#2F332E"/>
<path d="M105.031 61.9616C105.031 61.5608 105.353 61.2389 105.742 61.2389H137.283C137.678 61.2389 137.994 61.5608 137.994 61.9616V65.2349C137.994 65.6357 137.672 65.9576 137.283 65.9576H105.742C105.347 65.9576 105.031 65.6357 105.031 65.2349V61.9616ZM113.786 77.9636L113.811 79.6276H135.061C135.456 79.6276 135.771 79.9495 135.771 80.3503V83.2835C135.771 83.6843 135.45 84.0062 135.061 84.0062H108.504C108.116 84.0062 107.8 83.6904 107.794 83.2956L107.648 74.3989C107.642 73.9981 107.964 73.6641 108.358 73.6641H129.7L129.73 72.079H108.346C107.952 72.079 107.636 71.7572 107.636 71.3564V68.4232C107.636 68.0224 107.958 67.7005 108.346 67.7005H133.744C134.733 67.7005 135.535 68.5203 135.523 69.5224L135.431 77.2531C135.431 77.6479 135.11 77.9636 134.721 77.9636H113.78H113.786ZM129.354 59.9576L129.663 54.3402H108.692C108.298 54.3402 107.982 54.0183 107.982 53.6175V49.9981C107.982 49.5973 108.304 49.2754 108.692 49.2754H132.766C134.175 49.2754 135.298 50.5568 135.231 52.0871L134.928 59.2713C134.909 59.66 134.6 59.9636 134.217 59.9636H129.348L129.354 59.9576Z" fill="#2F332E"/>
<path d="M54.8138 0C42.349 0 39.0521 11.9757 42.2397 17.6296C43.8547 20.4899 44.8383 22.2632 45.6519 23.3502L53.6663 36.6923C53.8667 37.0202 54.2249 37.2267 54.6074 37.2267H62.2515C63.1075 37.2267 63.6358 36.2915 63.1926 35.5627L56.5381 24.4858C62.6036 23.7692 67.2423 19.3057 66.7808 12.3036C66.2344 4.02632 60.7579 0.00607287 54.8138 0.00607287V0Z" fill="#2FD714"/>
<path d="M96.8629 12.2976C96.3164 4.02024 90.8399 0 84.8959 0C72.431 0 69.1341 11.9757 72.3217 17.6296C73.9367 20.4899 74.9203 22.2632 75.7339 23.3502L83.7483 36.6923C83.9487 37.0202 84.3069 37.2267 84.6894 37.2267H92.3335C93.1896 37.2267 93.7178 36.2915 93.2746 35.5627L86.6202 24.4858C92.6856 23.7692 97.3243 19.3057 96.8629 12.3036V12.2976Z" fill="#2FD714"/>
</g>
<defs>
<clipPath id="clip0_905_8627">
<rect width="138" height="84" fill="white"/>
</clipPath>
</defs>
</svg>
