<svg width="124" height="24" viewBox="0 0 124 24" fill="none" xmlns="http://www.w3.org/2000/svg">
<g id="logo" clip-path="url(#clip0_756_4716)">
<g id="Group">
<path id="Vector" d="M38.1568 16.0816C38.4271 16.0816 38.6499 16.3044 38.6499 16.5783V19.303H43.4893C43.7596 19.303 43.9824 19.5258 43.9824 19.7997V22.5646C43.9824 22.8385 43.7632 23.0613 43.4893 23.0613H29.1025C28.8322 23.0613 28.6094 22.8385 28.6094 22.5646V19.7997C28.6094 19.5258 28.8285 19.303 29.1025 19.303H34.1866V16.5783C34.1866 16.3044 34.4058 16.0816 34.6797 16.0816H38.1604H38.1568ZM29.2814 8.627V6.64374C29.2814 2.24623 31.7358 0.259321 36.4219 0.259321C41.1079 0.259321 43.5623 2.24258 43.5623 6.64374V8.627C43.5623 13.0245 41.1079 15.0114 36.4219 15.0114C31.7358 15.0114 29.2814 13.0245 29.2814 8.627ZM33.0982 8.49551C33.0982 10.2925 33.9638 11.1764 36.4182 11.1764C38.8727 11.1764 39.7638 10.2888 39.7638 8.49551V6.75331C39.7638 4.95632 38.8982 4.07244 36.4182 4.07244C33.9382 4.07244 33.0982 4.95998 33.0982 6.75331V8.49551ZM51.3968 9.64237C51.6671 9.64237 51.8899 9.86516 51.8899 10.1391V13.8134C51.8899 14.0874 51.6707 14.3102 51.3968 14.3102H49.2565V23.5106C49.2565 23.7845 49.0373 24.0037 48.7634 24.0037H45.794C45.5237 24.0037 45.3009 23.7809 45.3009 23.5106V0.496728C45.3009 0.222797 45.52 0 45.7903 0H48.7597C49.03 0 49.2528 0.222797 49.2528 0.496728V9.64602H51.3931L51.3968 9.64237Z" fill="#2F332E"/>
<path id="Vector_2" d="M86.1607 16.0816C86.431 16.0816 86.6538 16.3044 86.6538 16.5783V19.303H91.4932C91.7635 19.303 91.9863 19.5258 91.9863 19.7997V22.5646C91.9863 22.8385 91.7671 23.0613 91.4932 23.0613H77.1064C76.8361 23.0613 76.6133 22.8385 76.6133 22.5646V19.7997C76.6133 19.5258 76.8324 19.303 77.1064 19.303H82.1905V16.5783C82.1905 16.3044 82.4097 16.0816 82.6836 16.0816H86.1643H86.1607ZM77.2817 8.627V6.64374C77.2817 2.24623 79.7361 0.259321 84.4221 0.259321C89.1082 0.259321 91.5626 2.24258 91.5626 6.64374V8.627C91.5626 13.0245 89.1082 15.0114 84.4221 15.0114C79.7361 15.0114 77.2817 13.0245 77.2817 8.627ZM81.0984 8.49551C81.0984 10.2925 81.9641 11.1764 84.4221 11.1764C86.8802 11.1764 87.7678 10.2888 87.7678 8.49551V6.75331C87.7678 4.95632 86.9021 4.07244 84.4221 4.07244C81.9422 4.07244 81.0984 4.95998 81.0984 6.75331V8.49551ZM99.397 9.64237C99.6673 9.64237 99.8901 9.86516 99.8901 10.1391V13.8134C99.8901 14.0874 99.671 14.3102 99.397 14.3102H97.2567V23.5106C97.2567 23.7845 97.0376 24.0037 96.7636 24.0037H93.7942C93.5239 24.0037 93.3012 23.7809 93.3012 23.5106V0.496728C93.3012 0.222797 93.5239 0 93.7942 0H96.7636C97.0339 0 97.2567 0.222797 97.2567 0.496728V9.64602H99.397V9.64237Z" fill="#2F332E"/>
<path id="Vector_3" d="M52.8516 8.84208C52.8516 8.56815 53.0707 8.34535 53.3446 8.34535H75.1532C75.4235 8.34535 75.6463 8.56815 75.6463 8.84208V11.0956C75.6463 11.3695 75.4271 11.5923 75.1532 11.5923H53.3446C53.0744 11.5923 52.8516 11.3695 52.8516 11.0956V8.84208ZM58.9036 19.8468L58.9219 20.99H73.6192C73.8895 20.99 74.1123 21.2128 74.1123 21.4867V23.5065C74.1123 23.7804 73.8931 24.0032 73.6192 24.0032H55.2549C54.9846 24.0032 54.7654 23.7877 54.7618 23.5175L54.6632 17.396C54.6595 17.1184 54.8823 16.892 55.1562 16.892H69.9156L69.9375 15.7999H55.1489C54.8787 15.7999 54.6559 15.5771 54.6559 15.3032V13.2834C54.6559 13.0095 54.875 12.7867 55.1489 12.7867H72.7097C73.3964 12.7867 73.9479 13.3492 73.9406 14.0395L73.8785 19.3537C73.8785 19.624 73.6557 19.8431 73.3854 19.8431H58.9073L58.9036 19.8468ZM69.6709 7.46877L69.8864 3.60452H55.3827C55.1124 3.60452 54.8896 3.38172 54.8896 3.10779V0.616845C54.8896 0.342914 55.1088 0.120117 55.3827 0.120117H72.0304C73.0056 0.120117 73.7799 1.00035 73.7361 2.0559L73.5279 6.99396C73.5169 7.26058 73.3014 7.46877 73.0348 7.46877H69.6673H69.6709Z" fill="#2F332E"/>
<path id="Vector_4" d="M100.855 8.84208C100.855 8.56815 101.075 8.34535 101.345 8.34535H123.04C123.31 8.34535 123.53 8.56815 123.53 8.84208V11.0956C123.53 11.3695 123.31 11.5923 123.04 11.5923H101.345C101.075 11.5923 100.855 11.3695 100.855 11.0956V8.84208ZM106.875 19.8468L106.893 20.99H121.51C121.78 20.99 121.999 21.2128 121.999 21.4867V23.5065C121.999 23.7804 121.78 24.0032 121.51 24.0032H103.244C102.978 24.0032 102.758 23.7877 102.755 23.5175L102.656 17.396C102.652 17.1184 102.872 16.892 103.146 16.892H117.825L117.846 15.7999H103.138C102.868 15.7999 102.649 15.5771 102.649 15.3032V13.2834C102.649 13.0095 102.868 12.7867 103.138 12.7867H120.608C121.291 12.7867 121.842 13.3492 121.831 14.0395L121.769 19.3537C121.769 19.624 121.546 19.8431 121.28 19.8431H106.875V19.8468ZM117.584 7.46877L117.795 3.60452H103.368C103.098 3.60452 102.879 3.38172 102.879 3.10779V0.616845C102.879 0.342914 103.098 0.120117 103.368 0.120117H119.928C120.896 0.120117 121.671 1.00035 121.627 2.0559L121.419 6.99396C121.408 7.26058 121.192 7.46877 120.929 7.46877H117.58H117.584Z" fill="#2F332E"/>
</g>
<g id="Group_2">
<path id="Vector_5" d="M5.92786 10.6249C2.10744 10.6249 2.84522 11.79 0.49307 7.61528C-0.887542 5.17182 0.540551 0 5.92786 0C8.49551 0 10.8659 1.73855 11.0997 5.31426C11.3188 8.62335 8.90458 10.6285 5.92786 10.6285V10.6249Z" fill="#2FD714"/>
<path id="Vector_6" d="M5.72461 8.99219L9.98333 16.0815H5.57121L1.3125 8.99219H5.72461Z" fill="#2FD714"/>
</g>
<g id="Group_3">
<path id="Vector_7" d="M18.9264 10.6246C15.1059 10.6246 15.8437 11.7897 13.4916 7.61503C12.1146 5.17156 13.539 -0.00390625 18.9264 -0.00390625C21.494 -0.00390625 23.8644 1.73464 24.0982 5.31035C24.3173 8.61944 21.9031 10.6246 18.9264 10.6246Z" fill="#2FD714"/>
<path id="Vector_8" d="M18.7207 8.99219L22.9794 16.0815H18.5673L14.3086 8.99219H18.7207Z" fill="#2FD714"/>
</g>
</g>
<defs>
<clipPath id="clip0_756_4716">
<rect width="123.528" height="24" fill="white"/>
</clipPath>
</defs>
</svg>
