<svg width="24" height="24" viewBox="0 0 24 24" fill="none" xmlns="http://www.w3.org/2000/svg">
<g id="Frame 150">
<rect width="24" height="24" fill="white"/>
<g id="Group">
<path id="Vector" d="M21.3695 21.0271C21.3112 21.0271 21.2528 20.9979 21.2042 20.9493L18.0038 17.6127H2.21585C2.07966 17.6127 1.97266 17.496 1.97266 17.3501V3.2353C1.97266 3.08939 2.07966 2.97266 2.21585 2.97266H21.3695C21.5057 2.97266 21.6127 3.08939 21.6127 3.2353V20.7645C21.6127 20.8423 21.5933 20.9104 21.5349 20.9493C21.4863 20.9979 21.4182 21.0271 21.3501 21.0271H21.3695Z" fill="white"/>
<path id="Vector_2" d="M21.027 3.94553V18.965L19.3416 17.2335L18.7566 16.6304H2.98288V3.94553H21.027ZM21.7706 2H2.2393C1.55521 2 1 2.55447 1 3.23541V17.3502C1 18.0311 1.55521 18.5856 2.2393 18.5856H17.904L20.8684 21.6206C21.1262 21.8833 21.4434 22 21.7508 22C22.3853 22 23 21.5136 23 20.7646V3.23541C23 2.55447 22.4448 2 21.7607 2H21.7706Z" fill="#AFAFAF"/>
</g>
<g id="Group_2">
<path id="Vector_3" d="M7.80859 8.02148H16.7094" stroke="#AFAFAF" stroke-width="1.5" stroke-miterlimit="10" stroke-linecap="round"/>
<path id="Vector_4" d="M7.80859 12.1553H13.0421" stroke="#AFAFAF" stroke-width="1.5" stroke-miterlimit="10" stroke-linecap="round"/>
</g>
</g>
</svg>
