<svg width="24" height="24" viewBox="0 0 24 24" fill="none" xmlns="http://www.w3.org/2000/svg">
<g id="Frame 150">
<rect width="24" height="24" fill="white"/>
<g id="Vector">
<path d="M20 22C20 21.8346 19.992 21.6691 19.984 21.5037C19.6171 15.7794 15.9641 13 12 13C8.03589 13 4.38285 15.7794 4.01595 21.5037C4.00798 21.6691 4 21.8428 4 22" fill="white"/>
<path d="M20 22C20 21.8346 19.992 21.6691 19.984 21.5037C19.6171 15.7794 15.9641 13 12 13C8.03589 13 4.38285 15.7794 4.01595 21.5037C4.00798 21.6691 4 21.8428 4 22" stroke="#AFAFAF" stroke-width="2" stroke-miterlimit="10"/>
</g>
<path id="Vector_2" d="M17.9841 7C17.7125 2.95732 14.978 1 12 1C9.02201 1 6.28751 2.96646 6.01593 7C5.76308 10.7317 8.55377 13 12 13C15.4462 13 18.2369 10.7317 17.9841 7Z" fill="white" stroke="#AFAFAF" stroke-width="2" stroke-miterlimit="10"/>
</g>
</svg>
