<svg width="24" height="24" viewBox="0 0 24 24" fill="none" xmlns="http://www.w3.org/2000/svg">
<g id="mingcute:right-line" clip-path="url(#clip0_905_7003)">
<g id="Group">
<path id="Vector" fill-rule="evenodd" clip-rule="evenodd" d="M15.7083 11.2932C15.8958 11.4807 16.0011 11.735 16.0011 12.0002C16.0011 12.2653 15.8958 12.5197 15.7083 12.7072L10.0513 18.3642C9.95907 18.4597 9.84873 18.5359 9.72672 18.5883C9.60472 18.6407 9.4735 18.6683 9.34072 18.6694C9.20794 18.6706 9.07626 18.6453 8.95337 18.595C8.83047 18.5447 8.71882 18.4705 8.62492 18.3766C8.53103 18.2827 8.45678 18.171 8.4065 18.0481C8.35622 17.9252 8.33092 17.7936 8.33207 17.6608C8.33322 17.528 8.36081 17.3968 8.41322 17.2748C8.46563 17.1528 8.54181 17.0424 8.63732 16.9502L13.5873 12.0002L8.63732 7.05018C8.45516 6.86158 8.35437 6.60898 8.35665 6.34678C8.35892 6.08458 8.46409 5.83377 8.6495 5.64836C8.83491 5.46295 9.08572 5.35778 9.34792 5.35551C9.61011 5.35323 9.86272 5.45402 10.0513 5.63618L15.7083 11.2932Z" fill="#C7C7C7"/>
</g>
</g>
<defs>
<clipPath id="clip0_905_7003">
<rect width="24" height="24" fill="white"/>
</clipPath>
</defs>
</svg>
