<svg width="20" height="20" viewBox="0 0 20 20" fill="none" xmlns="http://www.w3.org/2000/svg">
<path d="M13.125 10C13.125 10.8288 12.7958 11.6237 12.2097 12.2097C11.6237 12.7958 10.8288 13.125 10 13.125M6.875 10C6.875 9.1712 7.20424 8.37634 7.79029 7.79029C8.37634 7.20424 9.1712 6.875 10 6.875M8.125 15.4087C8.73984 15.5514 9.36884 15.6239 10 15.625C14.4875 15.625 18.125 11.875 18.125 10C18.125 9.165 17.4031 7.9575 16.2056 6.875M12.1875 4.66875C11.4744 4.4754 10.7389 4.37664 10 4.375C5.5125 4.375 1.875 8.125 1.875 10C1.875 10.825 2.57937 12.0125 3.75 13.0844M4.375 15.625L15.625 4.375" stroke="#D9D9D9" stroke-width="1.125" stroke-linecap="round" stroke-linejoin="round"/>
</svg>
