<svg width="24" height="24" viewBox="0 0 24 24" fill="none" xmlns="http://www.w3.org/2000/svg">
<g id="Frame 150">
<rect width="24" height="24" fill="white"/>
<g id="Group">
<path id="Vector" d="M20.2609 3.66667V20.3333H3.73913V3.66667H20.2609ZM20.8696 2H3.13043C2.50435 2 2 2.48333 2 3.08333V20.9167C2 21.5167 2.50435 22 3.13043 22H20.8696C21.4957 22 22 21.5167 22 20.9167V3.08333C22 2.48333 21.4957 2 20.8696 2Z" fill="#AFAFAF"/>
</g>
<g id="Group 214">
<path id="Vector_2" d="M20.957 11.4172C20.4904 11.6255 19.9737 11.7422 19.4404 11.7422C17.3654 11.7422 15.6904 10.0672 15.6904 7.99219C15.6904 10.0672 14.0154 11.7422 11.9404 11.7422C9.86536 11.7422 8.19036 10.0672 8.19036 7.99219C8.19036 10.0672 6.51536 11.7422 4.44036 11.7422C3.86536 11.7422 3.3237 11.6089 2.83203 11.3839" stroke="#AFAFAF" stroke-width="1.5" stroke-miterlimit="10"/>
<path id="Vector_3" d="M8.19141 7.99193V3.05859" stroke="#AFAFAF" stroke-width="1.5" stroke-miterlimit="10"/>
<path id="Vector_4" d="M15.6914 7.99193V3.05859" stroke="#AFAFAF" stroke-width="1.5" stroke-miterlimit="10"/>
</g>
<path id="Vector_5" d="M14.3051 15.2384V20.7616H9.69492V15.2384H14.3051ZM15.435 14H8.56497C8.24859 14 8 14.1816 8 14.4128V21.5872C8 21.8184 8.24859 22 8.56497 22H15.435C15.7514 22 16 21.8184 16 21.5872V14.4128C16 14.1816 15.7514 14 15.435 14Z" fill="#AFAFAF"/>
</g>
</svg>
