<svg width="24" height="24" viewBox="0 0 24 24" fill="none" xmlns="http://www.w3.org/2000/svg">
<g id="Frame 143">
<path id="Vector" d="M20.3901 18.3573C19.7282 19.8482 17.8999 24 11.896 24C1.51567 24 1.91414 11.9656 4.65879 9.64182C4.78381 9.53599 4.97355 9.61767 4.99364 9.78332C5.33519 12.588 6.48708 12.6478 7.49832 12.1278C8.09547 11.8207 7.07641 7.71145 9.23731 4.89181C9.29535 4.81589 9.39692 4.79403 9.48399 4.83199C11.2609 5.62117 11.5522 2.24819 11.4496 0.224628C11.4417 0.0681732 11.5947 -0.0434159 11.7353 0.016405C12.9084 0.513379 17.0873 2.55534 17.8887 6.75316C18.2638 8.71575 17.3541 10.9774 18.593 11.1189C18.9948 11.165 19.3364 10.9475 19.4748 10.3804C19.5194 10.1986 19.755 10.1584 19.8498 10.3183C21.2015 12.5823 21.3366 16.2187 20.3878 18.3573H20.3901Z" fill="#FF7A52"/>
<path id="Vector_2" d="M16.8482 18.919C16.9306 18.9143 16.9988 18.9717 17 19.0467C17.0082 20.2192 15.3131 24.4514 11.6312 23.9606C6.28836 23.2484 5.99192 18.7831 6.00016 17.6902C6.00016 17.5895 6.12485 17.5297 6.2166 17.586C6.63537 17.839 7.60819 18.3251 8.41868 17.9573C9.03155 17.6785 9.26093 16.834 9.6997 13.8903C10.0879 11.2899 12.7523 9.56911 13.2204 8.1248C13.2698 7.97135 13.3839 7.9573 13.4733 8.09435C13.7274 8.47973 14.1309 9.24112 13.9921 10.0189C13.6792 11.7842 12.7311 13.567 13.7957 15.5501C14.2168 16.3361 15.5578 15.1917 16.0142 14.7665C16.0895 14.6974 16.2189 14.7267 16.2483 14.8204C16.8059 16.5446 14.6955 19.0549 16.8459 18.919H16.8482Z" fill="#FFB773"/>
</g>
</svg>
