<svg width="80" height="100" viewBox="0 0 80 100" fill="none" xmlns="http://www.w3.org/2000/svg">
<g id="_?&#235;&#141;&#137;&#236;&#148;&#160;??1" clip-path="url(#clip0_979_5745)">
<path id="Vector" d="M79.7143 105.998H0.280337C0.0495072 103.498 -0.431125 90.9677 2.49378 77.8746C3.53093 73.2345 4.99812 68.5228 7.05662 64.1595C15.5942 73.0066 30.0574 77.8746 39.9989 77.8746C49.9404 77.8746 64.4037 73.0033 72.938 64.1562C74.9965 68.5195 76.4637 73.2313 77.5009 77.8746C80.429 90.9677 79.9483 103.498 79.7143 105.998Z" fill="#EEBFFF"/>
<path id="Vector_2" d="M72.94 64.157C64.4056 73.004 49.9392 77.8753 40.0009 77.8753C30.0625 77.8753 15.5961 73.0073 7.05859 64.1602C9.04753 59.9467 11.5867 56.0588 14.8278 52.884C12.8357 44.2388 13.7021 32.8649 18.3977 26.1377C18.3376 26.0856 18.2807 26.0237 18.227 25.9618C15.7859 23.3048 15.8871 18.8926 18.4483 16.1053C21.0064 13.3148 25.0602 13.2073 27.4981 15.8611C28.14 16.5579 28.6048 17.3785 28.8957 18.2577C28.9558 18.2414 29.0159 18.2251 29.0791 18.2153C29.7305 17.271 34.3629 16.5417 40.0009 16.5351C45.6388 16.5417 50.2712 17.271 50.9195 18.2153C50.9859 18.2251 51.0459 18.2414 51.106 18.2577C51.3938 17.3785 51.8618 16.5579 52.5005 15.8611C54.9384 13.2073 58.9922 13.3148 61.5503 16.1053C64.1147 18.8926 64.2127 23.3048 61.7748 25.9618C61.7179 26.0237 61.661 26.0856 61.6009 26.1377C66.2997 32.8649 67.1629 44.2388 65.1708 52.884C68.412 56.0588 70.9511 59.9434 72.94 64.157Z" fill="#E9ABFF"/>
<path id="Vector_3" d="M75.2759 24.4762C76.1834 19.1197 75.1273 10.5006 74.1249 4.38871C73.5273 0.764565 69.6379 -1.12077 66.5581 0.705953C63.6047 2.44802 60.0474 4.68176 56.8949 6.99692C51.7881 4.49942 46.0743 3.03413 40 3.03413C33.9257 3.03413 28.2119 4.49942 23.1051 6.99692C19.9526 4.68502 16.3953 2.44802 13.4419 0.705953C10.3652 -1.11426 6.47273 0.774333 5.8751 4.38871C4.87273 10.5006 3.8166 19.1197 4.72411 24.4762C1.70435 29.9107 0 35.8924 0 41.7731C0 60.6818 25.0909 71.6323 40 71.6323C54.9091 71.6323 80 60.672 80 41.7731C80 35.8859 78.2957 29.9107 75.2759 24.4696V24.4762Z" fill="#EEBFFF"/>
<path id="Vector_4" d="M39.9993 34.7305C42.2538 34.7305 44.7993 35.5022 44.0878 37.4754C43.3763 39.4487 41.0459 41.2429 39.9993 41.2429C38.9526 41.2429 36.5906 39.3543 35.9107 37.4754C35.1993 35.5022 37.7447 34.7305 39.9993 34.7305Z" fill="#282828"/>
<path id="Vector_5" d="M26.6883 37.3351C28.6393 37.3351 30.2203 35.7689 30.2203 33.838C30.2203 31.907 28.6393 30.3408 26.6883 30.3408C24.7373 30.3408 23.1562 31.907 23.1562 33.838C23.1562 35.7689 24.7373 37.3351 26.6883 37.3351Z" fill="#282828"/>
<path id="Vector_6" d="M53.3133 37.3351C55.2643 37.3351 56.8421 35.7689 56.8421 33.838C56.8421 31.907 55.2611 30.3408 53.3133 30.3408C51.3654 30.3408 49.7812 31.907 49.7812 33.838C49.7812 35.7689 51.3623 37.3351 53.3133 37.3351Z" fill="#282828"/>
<path id="Vector_7" d="M35.0281 46.2319C32.0621 46.2319 28.8842 44.7178 27.6479 42.4905C27.3506 41.9565 27.5309 41.276 28.0305 40.9634C28.5427 40.6508 29.1941 40.8396 29.4913 41.3639C30.538 43.246 34.0763 44.4833 36.5206 43.8125C38.0985 43.3795 38.9206 42.2658 38.9301 40.5042C38.9301 39.8921 39.4107 39.4004 39.9957 39.4004C40.5807 39.4004 41.0613 39.9116 41.0518 40.5238C41.0297 43.285 39.5688 45.268 37.0518 45.9714C36.4004 46.1505 35.7174 46.2384 35.0154 46.2384L35.0249 46.2286L35.0281 46.2319Z" fill="#282828"/>
<path id="Vector_8" d="M44.97 46.2348C44.2775 46.2348 43.5818 46.1469 42.9336 45.9678C40.4166 45.2775 38.9557 43.2945 38.9336 40.5202C38.9336 39.908 39.4047 39.4066 39.9897 39.3936C40.5747 39.3936 41.0458 39.8852 41.0553 40.4974C41.0775 42.259 41.887 43.3726 43.4648 43.8057C45.8964 44.4732 49.4474 43.2391 50.4941 41.3538C50.7913 40.8198 51.4427 40.6407 51.9549 40.9533C52.4672 41.2659 52.6379 41.9432 52.3375 42.4804C51.1012 44.7077 47.9233 46.2218 44.9573 46.2218L44.9668 46.2316L44.97 46.2348Z" fill="#282828"/>
<path id="Vector_9" d="M47.6607 44.6744C47.6513 51.6362 45.2291 56.1786 40.0022 56.1786C34.7754 56.1786 32.3564 51.6329 32.3438 44.6744C35.724 45.7783 39.958 44.9642 40.0022 40.5195C40.0465 44.9512 44.2679 45.7783 47.6607 44.6744Z" fill="#C283FF"/>
<path id="Vector_10" d="M40.0015 57.2928C34.4647 57.2928 31.2868 52.6918 31.2773 44.6751C31.2773 44.3202 31.4386 43.9848 31.7137 43.7731C31.992 43.5615 32.343 43.5061 32.6623 43.6071C34.6133 44.242 36.6181 44.0988 37.7596 43.2163C38.5279 42.6367 38.9232 41.725 38.9327 40.4974C38.9327 39.8852 39.4133 39.3936 39.9983 39.3936C40.5833 39.3936 41.0544 39.8852 41.0639 40.4974C41.0734 41.712 41.4686 42.6237 42.237 43.2163C43.3785 44.0857 45.3833 44.242 47.3343 43.6071C47.6536 43.4964 48.0046 43.5615 48.2829 43.7731C48.5611 43.9848 48.7192 44.3202 48.7192 44.6751C48.7098 52.6951 45.5287 57.2928 39.9951 57.2928H40.0015ZM33.4528 46.0883C33.6868 50.4646 35.1066 55.0656 40.0015 55.0656C44.8963 55.0656 46.3161 50.4646 46.5501 46.0883C44.4157 46.4562 42.3698 46.0883 40.9817 45.0203C40.6623 44.776 40.3082 44.4504 40.0015 44.0271C39.6916 44.4504 39.3406 44.7858 39.0212 45.03C37.6362 46.0883 35.5777 46.4562 33.4528 46.0981V46.0883Z" fill="#282828"/>
<g id="Group">
<g id="Group_2">
<path id="Vector_11" d="M58.8074 42.6592C58.2793 42.6592 57.8113 42.2685 57.7196 41.7149C57.6153 41.0962 58.0169 40.5036 58.6176 40.3962L66.1497 39.0383C66.7505 38.9276 67.3259 39.3444 67.4303 39.9631C67.5346 40.5818 67.1331 41.1744 66.5323 41.2818L59.0003 42.6397C58.937 42.6527 58.8706 42.656 58.8074 42.656V42.6592Z" fill="#282828"/>
<path id="Vector_12" d="M66.3434 49.0837C66.2801 49.0837 66.2169 49.0772 66.1505 49.0674L58.6185 47.7096C58.0177 47.6021 57.6129 47.0095 57.7204 46.3908C57.8248 45.7721 58.4003 45.3554 59.0011 45.4661L66.5331 46.8239C67.1339 46.9314 67.5386 47.524 67.4311 48.1427C67.3362 48.6962 66.8683 49.0869 66.3434 49.0869V49.0837Z" fill="#282828"/>
</g>
<g id="Group_3">
<path id="Vector_13" d="M21.1871 42.6589C21.1239 42.6589 21.0606 42.6524 20.9942 42.6426L13.4622 41.2848C12.8614 41.1773 12.4567 40.5847 12.5642 39.966C12.6685 39.3473 13.244 38.9305 13.8448 39.0413L21.3768 40.3991C21.9776 40.5065 22.3824 41.0992 22.2749 41.7178C22.18 42.2714 21.712 42.6621 21.1871 42.6621V42.6589Z" fill="#282828"/>
<path id="Vector_14" d="M13.6511 49.0832C13.1231 49.0832 12.6551 48.6924 12.5634 48.1389C12.459 47.5202 12.8606 46.9276 13.4614 46.8201L20.9934 45.4623C21.5974 45.3548 22.1697 45.7684 22.274 46.3871C22.3784 47.0057 21.9768 47.5984 21.376 47.7058L13.844 49.0636C13.7808 49.0767 13.7144 49.0799 13.6511 49.0799V49.0832Z" fill="#282828"/>
</g>
</g>
</g>
<defs>
<clipPath id="clip0_979_5745">
<rect width="80" height="100" fill="white"/>
</clipPath>
</defs>
</svg>
