<svg width="34" height="30" viewBox="0 0 34 30" fill="none" xmlns="http://www.w3.org/2000/svg">
<g id="_?&#235;&#141;&#137;&#236;&#148;&#160;??1" clip-path="url(#clip0_905_7120)">
<path id="Vector" d="M31.9923 10.2516C32.3781 8.00825 31.9295 4.39947 31.5029 1.83975C31.2488 0.322644 29.5955 -0.468189 28.2873 0.296821C27.0325 1.02632 25.5204 1.96241 24.1808 2.93078C22.01 1.88494 19.5818 1.27164 17 1.27164C14.4182 1.27164 11.99 1.88494 9.81915 2.93078C8.47961 1.96241 6.96752 1.02632 5.71268 0.296821C4.4045 -0.464961 2.75125 0.325872 2.49714 1.83975C2.07049 4.39947 1.62189 8.00825 2.00775 10.2516C0.724672 12.5273 0 15.0321 0 17.495C0 25.413 10.663 29.9999 17 29.9999C23.337 29.9999 34 25.4098 34 17.495C34 15.0289 33.2753 12.5273 31.9923 10.2484V10.2516Z" fill="#6ED6FF"/>
<g id="Group">
<path id="Vector_2" d="M17.0004 14.5449C17.9591 14.5449 19.0402 14.8684 18.7383 15.6951C18.4364 16.5219 17.4451 17.2722 17.0004 17.2722C16.5557 17.2722 15.5522 16.4814 15.2625 15.6951C14.9606 14.8684 16.0417 14.5449 17.0004 14.5449Z" fill="#282828"/>
<g id="Group_2">
<path id="Vector_3" d="M11.3403 15.6362C12.169 15.6362 12.8408 14.9805 12.8408 14.1716C12.8408 13.3627 12.169 12.707 11.3403 12.707C10.5116 12.707 9.83984 13.3627 9.83984 14.1716C9.83984 14.9805 10.5116 15.6362 11.3403 15.6362Z" fill="#282828"/>
<path id="Vector_4" d="M22.6567 15.6362C23.4854 15.6362 24.1572 14.9805 24.1572 14.1716C24.1572 13.3627 23.4854 12.707 22.6567 12.707C21.828 12.707 21.1562 13.3627 21.1562 14.1716C21.1562 14.9805 21.828 15.6362 22.6567 15.6362Z" fill="#282828"/>
</g>
<g id="Group_3">
<path id="Vector_5" d="M14.8859 19.3621C13.6257 19.3621 12.2748 18.7278 11.749 17.7949C11.622 17.5711 11.6991 17.2865 11.9122 17.1559C12.1297 17.0253 12.4063 17.1046 12.5332 17.3238C12.9774 18.1121 14.4824 18.6298 15.5205 18.35C16.1914 18.1681 16.5405 17.7017 16.545 16.9647C16.545 16.7082 16.749 16.5029 16.9983 16.5029C17.2476 16.5029 17.4516 16.7175 17.4471 16.974C17.438 18.1308 16.817 18.961 15.7472 19.2549C15.4706 19.3295 15.1805 19.3668 14.8813 19.3668L14.8859 19.3621Z" fill="#282828"/>
<path id="Vector_6" d="M19.1087 19.3629C18.8141 19.3629 18.5194 19.3256 18.2429 19.2509C17.1731 18.9618 16.552 18.1315 16.543 16.9701C16.543 16.7136 16.7424 16.5037 16.9917 16.499C17.2411 16.499 17.4405 16.7043 17.4451 16.9608C17.4541 17.6977 17.7986 18.1642 18.4695 18.3461C19.5031 18.6259 21.0126 18.1082 21.4569 17.3199C21.5838 17.0961 21.8603 17.0214 22.0779 17.152C22.2955 17.2826 22.368 17.5671 22.2411 17.791C21.7152 18.7239 20.3644 19.3582 19.1042 19.3582L19.1087 19.3629Z" fill="#282828"/>
</g>
<g id="Group_4">
<path id="Vector_7" d="M20.2517 18.7095C20.2472 21.6247 19.2182 23.5277 16.997 23.5277C14.7757 23.5277 13.7467 21.6247 13.7422 18.7095C15.1792 19.1713 16.9788 18.8308 16.997 16.9697C17.0151 18.8261 18.8102 19.1713 20.2517 18.7095Z" fill="#71BCFF"/>
<path id="Vector_8" d="M16.9971 23.9945C14.6445 23.9945 13.2936 22.0682 13.2891 18.7099C13.2891 18.5606 13.3571 18.4207 13.4749 18.3321C13.5928 18.2435 13.7424 18.2201 13.8784 18.2621C14.7079 18.528 15.5602 18.4674 16.0452 18.0989C16.3716 17.8563 16.5393 17.4739 16.5438 16.9608C16.5438 16.7043 16.7478 16.499 16.9971 16.499C17.2465 16.499 17.4459 16.7043 17.4505 16.9608C17.455 17.4692 17.6227 17.8517 17.9491 18.0989C18.4341 18.4627 19.2864 18.528 20.1159 18.2621C20.2519 18.2155 20.4015 18.2435 20.5194 18.3321C20.6372 18.4207 20.7052 18.5606 20.7052 18.7099C20.7007 22.0682 19.3498 23.9945 16.9971 23.9945ZM14.2138 19.3023C14.3135 21.1353 14.9164 23.0617 16.9971 23.0617C19.0778 23.0617 19.6807 21.1353 19.7805 19.3023C18.8739 19.4562 18.0035 19.3023 17.4142 18.8545C17.2782 18.7519 17.1286 18.6166 16.9971 18.4394C16.8657 18.6166 16.7161 18.7565 16.5801 18.8591C15.9908 19.3023 15.1159 19.4562 14.2138 19.3069V19.3023Z" fill="#282828"/>
</g>
<g id="Group_5">
<g id="Group 162">
<path id="Vector_9" d="M7.10053 20.8053C8.55187 20.8053 9.72841 19.5947 9.72841 18.1014C9.72841 16.608 8.55187 15.3975 7.10053 15.3975C5.6492 15.3975 4.47266 16.608 4.47266 18.1014C4.47266 19.5947 5.6492 20.8053 7.10053 20.8053Z" fill="white" fill-opacity="0.6"/>
<path id="Vector_10" d="M26.0341 20.8053C27.4855 20.8053 28.662 19.5947 28.662 18.1014C28.662 16.608 27.4855 15.3975 26.0341 15.3975C24.5828 15.3975 23.4062 16.608 23.4062 18.1014C23.4062 19.5947 24.5828 20.8053 26.0341 20.8053Z" fill="white" fill-opacity="0.6"/>
</g>
</g>
</g>
</g>
<defs>
<clipPath id="clip0_905_7120">
<rect width="34" height="30" fill="white"/>
</clipPath>
</defs>
</svg>
