<svg width="24" height="24" viewBox="0 0 24 24" fill="none" xmlns="http://www.w3.org/2000/svg">
<g id="Frame 144">
<g id="Group">
<g id="Vector">
<path d="M18.4463 21.462C21.5125 21.462 23.9982 17.3292 23.9982 12.231C23.9982 7.13286 21.5125 3 18.4463 3C15.3802 3 12.8945 7.13286 12.8945 12.231C12.8945 17.3292 15.3802 21.462 18.4463 21.462Z" fill="white"/>
<path d="M23.5982 12.231C23.5982 14.7199 22.9906 16.9538 22.0293 18.5522C21.0633 20.1583 19.7842 21.062 18.4463 21.062C17.1085 21.062 15.8294 20.1583 14.8634 18.5522C13.9021 16.9538 13.2945 14.7199 13.2945 12.231C13.2945 9.74213 13.9021 7.50823 14.8634 5.90986C15.8294 4.30367 17.1085 3.4 18.4463 3.4C19.7842 3.4 21.0633 4.30367 22.0293 5.90986C22.9906 7.50823 23.5982 9.74213 23.5982 12.231Z" stroke="#694F39" stroke-opacity="0.2" stroke-width="0.8"/>
</g>
<path id="Vector_2" d="M17.0467 16.3466C18.8156 16.3466 20.2496 14.8303 20.2496 12.9599C20.2496 11.0895 18.8156 9.57324 17.0467 9.57324C15.2777 9.57324 13.8438 11.0895 13.8438 12.9599C13.8438 14.8303 15.2777 16.3466 17.0467 16.3466Z" fill="#694F39"/>
<path id="Vector_3" d="M17.049 14.8416C18.0878 14.8416 18.93 13.9991 18.93 12.9599C18.93 11.9206 18.0878 11.0781 17.049 11.0781C16.0101 11.0781 15.168 11.9206 15.168 12.9599C15.168 13.9991 16.0101 14.8416 17.049 14.8416Z" fill="#594330"/>
<path id="Vector_4" d="M15.9996 12.0321C16.4438 12.0321 16.8039 11.6718 16.8039 11.2275C16.8039 10.7831 16.4438 10.4229 15.9996 10.4229C15.5554 10.4229 15.1953 10.7831 15.1953 11.2275C15.1953 11.6718 15.5554 12.0321 15.9996 12.0321Z" fill="#E6E4E4"/>
</g>
<g id="Group_2">
<g id="Vector_5">
<path d="M5.55182 21.462C8.618 21.462 11.1036 17.3292 11.1036 12.231C11.1036 7.13286 8.618 3 5.55182 3C2.48563 3 0 7.13286 0 12.231C0 17.3292 2.48563 21.462 5.55182 21.462Z" fill="white"/>
<path d="M10.7036 12.231C10.7036 14.7199 10.0961 16.9538 9.13476 18.5522C8.16875 20.1583 6.88968 21.062 5.55182 21.062C4.21396 21.062 2.93488 20.1583 1.96887 18.5522C1.00756 16.9538 0.4 14.7199 0.4 12.231C0.4 9.74213 1.00756 7.50823 1.96887 5.90986C2.93488 4.30367 4.21396 3.4 5.55182 3.4C6.88968 3.4 8.16875 4.30367 9.13476 5.90986C10.0961 7.50823 10.7036 9.74213 10.7036 12.231Z" stroke="#694F39" stroke-opacity="0.2" stroke-width="0.8"/>
</g>
<path id="Vector_6" d="M4.15214 16.3466C5.92107 16.3466 7.35507 14.8303 7.35507 12.9599C7.35507 11.0895 5.92107 9.57324 4.15214 9.57324C2.38322 9.57324 0.949219 11.0895 0.949219 12.9599C0.949219 14.8303 2.38322 16.3466 4.15214 16.3466Z" fill="#694F39"/>
<path id="Vector_7" d="M4.15445 14.8416C5.1933 14.8416 6.03545 13.9991 6.03545 12.9599C6.03545 11.9206 5.1933 11.0781 4.15445 11.0781C3.11559 11.0781 2.27344 11.9206 2.27344 12.9599C2.27344 13.9991 3.11559 14.8416 4.15445 14.8416Z" fill="#594330"/>
<path id="Vector_8" d="M3.10507 12.0321C3.54926 12.0321 3.90935 11.6718 3.90935 11.2275C3.90935 10.7831 3.54926 10.4229 3.10507 10.4229C2.66087 10.4229 2.30078 10.7831 2.30078 11.2275C2.30078 11.6718 2.66087 12.0321 3.10507 12.0321Z" fill="#E6E4E4"/>
</g>
</g>
</svg>
