<svg width="6" height="10" viewBox="0 0 6 10" fill="none" xmlns="http://www.w3.org/2000/svg">
<path fill-rule="evenodd" clip-rule="evenodd" d="M5.77831 4.46989C5.91891 4.61053 5.9979 4.80126 5.9979 5.00014C5.9979 5.19901 5.91891 5.38974 5.77831 5.53039L1.53556 9.77314C1.46637 9.84477 1.38362 9.90191 1.29211 9.94121C1.20061 9.98052 1.1022 10.0012 1.00261 10.0021C0.903026 10.0029 0.804267 9.98396 0.712095 9.94625C0.619922 9.90854 0.536183 9.85285 0.465764 9.78243C0.395344 9.71201 0.339654 9.62827 0.301943 9.5361C0.264233 9.44393 0.245257 9.34517 0.246122 9.24558C0.246987 9.146 0.267677 9.04758 0.306984 8.95608C0.346291 8.86458 0.403427 8.78182 0.47506 8.71264L4.18756 5.00014L0.47506 1.28764C0.338441 1.14618 0.262845 0.956732 0.264554 0.760084C0.266263 0.563437 0.34514 0.375327 0.484196 0.236271C0.623252 0.0972153 0.811361 0.0183387 1.00801 0.0166299C1.20466 0.0149211 1.39411 0.0905168 1.53556 0.227135L5.77831 4.46989Z" fill="#6B6B6B"/>
</svg>
