<svg width="25" height="25" viewBox="0 0 25 25" fill="none" xmlns="http://www.w3.org/2000/svg">
<path d="M10.9545 2C9.13402 2 7.35443 2.53983 5.84075 3.55124C4.32708 4.56264 3.14732 6.00018 2.45065 7.68209C1.75399 9.36399 1.57171 11.2147 1.92687 13.0002C2.28202 14.7857 3.15867 16.4258 4.44594 17.7131C5.73321 19.0003 7.37329 19.877 9.15879 20.2321C10.9443 20.5873 12.795 20.405 14.4769 19.7083C16.1588 19.0117 17.5964 17.8319 18.6078 16.3182C19.6192 14.8046 20.159 13.025 20.159 11.2045C20.1588 8.76336 19.189 6.42225 17.4629 4.69611C15.7367 2.96996 13.3956 2.00016 10.9545 2Z" stroke="#CCCCCC" stroke-width="3" stroke-miterlimit="10"/>
<path d="M18 18.25L23 23.25" stroke="#CCCCCC" stroke-width="3" stroke-miterlimit="10" stroke-linecap="round"/>
</svg>
