<svg width="22" height="22" viewBox="0 0 22 22" fill="none" xmlns="http://www.w3.org/2000/svg">
<g clip-path="url(#clip0_1392_9518)">
<g clip-path="url(#clip1_1392_9518)">
<path d="M1.33203 5.66699H20.6654C20.9306 5.66699 21.1849 5.77235 21.3725 5.95989C21.56 6.14742 21.6654 6.40178 21.6654 6.66699C21.6654 6.93221 21.56 7.18656 21.3725 7.3741C21.1849 7.56164 20.9306 7.66699 20.6654 7.66699H1.33203C1.06681 7.66699 0.812461 7.56164 0.624924 7.3741C0.437388 7.18656 0.332031 6.93221 0.332031 6.66699C0.332031 6.40178 0.437388 6.14742 0.624924 5.95989C0.812461 5.77235 1.06681 5.66699 1.33203 5.66699ZM4.33203 12.0003C4.33203 11.7351 4.43739 11.4808 4.62492 11.2932C4.81246 11.1057 5.06681 11.0003 5.33203 11.0003H16.6654C16.9306 11.0003 17.1849 11.1057 17.3725 11.2932C17.56 11.4808 17.6654 11.7351 17.6654 12.0003C17.6654 12.2655 17.56 12.5199 17.3725 12.7074C17.1849 12.895 16.9306 13.0003 16.6654 13.0003H5.33203C5.06681 13.0003 4.81246 12.895 4.62492 12.7074C4.43739 12.5199 4.33203 12.2655 4.33203 12.0003ZM8.33203 17.3337C8.33203 17.0684 8.43739 16.8141 8.62492 16.6266C8.81246 16.439 9.06681 16.3337 9.33203 16.3337H12.6654C12.9306 16.3337 13.1849 16.439 13.3725 16.6266C13.56 16.8141 13.6654 17.0684 13.6654 17.3337C13.6654 17.5989 13.56 17.8532 13.3725 18.0408C13.1849 18.2283 12.9306 18.3337 12.6654 18.3337H9.33203C9.06681 18.3337 8.81246 18.2283 8.62492 18.0408C8.43739 17.8532 8.33203 17.5989 8.33203 17.3337Z" fill="black"/>
</g>
</g>
<defs>
<clipPath id="clip0_1392_9518">
<rect width="21.3333" height="21.3333" fill="white" transform="translate(0.332031 0.333008)"/>
</clipPath>
<clipPath id="clip1_1392_9518">
<rect width="21.3333" height="21.3333" fill="white" transform="translate(0.332031 0.333008)"/>
</clipPath>
</defs>
</svg>
