<svg width="24" height="24" viewBox="0 0 24 24" fill="none" xmlns="http://www.w3.org/2000/svg">
<g id="ion:search-outline">
<path id="Vector" d="M10.3636 4C8.90722 4 7.48354 4.43187 6.2726 5.24099C5.06167 6.05011 4.11786 7.20015 3.56052 8.54567C3.00319 9.89119 2.85737 11.3718 3.14149 12.8002C3.42562 14.2286 4.12693 15.5406 5.15675 16.5704C6.18657 17.6003 7.49863 18.3016 8.92703 18.5857C10.3554 18.8698 11.836 18.724 13.1815 18.1667C14.527 17.6093 15.6771 16.6655 16.4862 15.4546C17.2953 14.2437 17.7272 12.82 17.7272 11.3636C17.7271 9.41069 16.9512 7.5378 15.5703 6.15688C14.1894 4.77597 12.3165 4.00012 10.3636 4Z" stroke="#1A1A1A" stroke-width="2" stroke-miterlimit="10"/>
<path id="Vector_2" d="M16 17L20 21" stroke="#1A1A1A" stroke-width="2" stroke-miterlimit="10" stroke-linecap="round"/>
</g>
</svg>
