<svg width="24" height="24" viewBox="0 0 24 24" fill="none" xmlns="http://www.w3.org/2000/svg">
<g id="gravity-ui:gear" clip-path="url(#clip0_905_9600)">
<g id="Group">
<g id="Clip path group">
<mask id="mask0_905_9600" style="mask-type:luminance" maskUnits="userSpaceOnUse" x="0" y="0" width="24" height="24">
<g id="gravityUiGear0">
<path id="Vector" d="M0 0H24V24H0V0Z" fill="white"/>
</g>
</mask>
<g mask="url(#mask0_905_9600)">
<g id="Group_2">
<path id="Vector_2" fill-rule="evenodd" clip-rule="evenodd" d="M10.7989 3H13.2004C13.2799 3 13.3562 3.03161 13.4125 3.08787C13.4688 3.14413 13.5004 3.22044 13.5004 3.3C13.5004 6.012 16.4374 7.7085 18.7864 6.351C18.8549 6.31184 18.936 6.30137 19.0122 6.32189C19.0884 6.3424 19.1533 6.39224 19.1929 6.4605L20.3959 8.5425C20.4155 8.57647 20.4282 8.61398 20.4334 8.65288C20.4385 8.69178 20.4359 8.73131 20.4257 8.7692C20.4155 8.80709 20.398 8.84261 20.3741 8.87372C20.3502 8.90483 20.3204 8.93092 20.2864 8.9505C17.9374 10.3065 17.9374 13.6965 20.2864 15.054C20.3546 15.0935 20.4045 15.1585 20.425 15.2347C20.4455 15.3108 20.435 15.392 20.3959 15.4605L19.1929 17.5425C19.1533 17.6108 19.0884 17.6606 19.0122 17.6811C18.936 17.7016 18.8549 17.6912 18.7864 17.652C16.4374 16.2945 13.5004 17.9895 13.5004 20.7C13.5004 20.7793 13.469 20.8554 13.413 20.9116C13.3571 20.9678 13.2812 20.9996 13.2019 21H10.8004C10.7609 21.0002 10.7218 20.9926 10.6853 20.9776C10.6488 20.9626 10.6157 20.9405 10.5878 20.9126C10.5599 20.8847 10.5378 20.8515 10.5228 20.815C10.5078 20.7786 10.5002 20.7395 10.5004 20.7C10.5004 17.988 7.56337 16.293 5.21437 17.649C5.1804 17.6686 5.14289 17.6814 5.10399 17.6865C5.06509 17.6916 5.02557 17.689 4.98767 17.6788C4.94978 17.6687 4.91426 17.6511 4.88315 17.6272C4.85204 17.6033 4.82595 17.5735 4.80637 17.5395L3.60637 15.4575C3.56708 15.3892 3.55639 15.3081 3.57662 15.232C3.59685 15.1558 3.64637 15.0908 3.71437 15.051C6.06337 13.6935 6.06337 10.3035 3.71437 8.946C3.64611 8.90646 3.59628 8.84151 3.57576 8.76534C3.55524 8.68917 3.56571 8.60798 3.60487 8.5395L4.80637 6.4575C4.82595 6.4235 4.85204 6.39369 4.88315 6.36979C4.91426 6.34588 4.94978 6.32834 4.98767 6.31817C5.02557 6.308 5.06509 6.3054 5.10399 6.31052C5.14289 6.31564 5.1804 6.32837 5.21437 6.348C7.56337 7.707 10.5004 6.0105 10.5004 3.3C10.5004 3.135 10.6339 3 10.7989 3ZM8.25037 3.3C8.25037 1.89 9.39037 0.75 10.7989 0.75H13.2004C14.6104 0.75 15.7504 1.89 15.7504 3.3C15.7508 3.52345 15.81 3.74285 15.9219 3.93623C16.0339 4.12961 16.1947 4.29018 16.3882 4.40184C16.5818 4.5135 16.8013 4.57234 17.0247 4.57245C17.2482 4.57257 17.4677 4.51396 17.6614 4.4025C18.2466 4.06498 18.942 3.97366 19.5945 4.14861C20.2471 4.32357 20.8035 4.75048 21.1414 5.3355L22.3444 7.4175C23.0479 8.637 22.6294 10.194 21.4114 10.8975C21.2176 11.0094 21.0568 11.1704 20.9449 11.3642C20.8331 11.5579 20.7742 11.7778 20.7742 12.0015C20.7742 12.2252 20.8331 12.4451 20.9449 12.6388C21.0568 12.8326 21.2176 12.9936 21.4114 13.1055C21.9961 13.4437 22.4227 14.0001 22.5977 14.6525C22.7726 15.305 22.6815 16.0002 22.3444 16.5855L21.1414 18.6675C20.8035 19.2525 20.2471 19.6794 19.5945 19.8544C18.942 20.0293 18.2466 19.938 17.6614 19.6005C17.4677 19.489 17.2482 19.4304 17.0247 19.4305C16.8013 19.4307 16.5818 19.4895 16.3882 19.6012C16.1947 19.7128 16.0339 19.8734 15.9219 20.0668C15.81 20.2601 15.7508 20.4796 15.7504 20.703C15.7504 22.1115 14.6104 23.253 13.2019 23.253H10.8004C10.1243 23.2526 9.47612 22.9838 8.99822 22.5056C8.52033 22.0274 8.25187 21.379 8.25187 20.703C8.25143 20.4796 8.19227 20.2601 8.08032 20.0668C7.96837 19.8734 7.80757 19.7128 7.61402 19.6012C7.42048 19.4895 7.20098 19.4307 6.97754 19.4305C6.75409 19.4304 6.53454 19.489 6.34087 19.6005C6.05113 19.7678 5.73127 19.8764 5.39954 19.9201C5.06782 19.9637 4.73075 19.9416 4.40758 19.855C4.0844 19.7683 3.78147 19.6189 3.51608 19.4151C3.2507 19.2114 3.02805 18.9573 2.86087 18.6675L1.65787 16.5855C1.32035 16.0002 1.22904 15.3049 1.40399 14.6524C1.57894 13.9998 2.00585 13.4434 2.59087 13.1055C2.78426 12.9935 2.9448 12.8326 3.05641 12.6389C3.16802 12.4453 3.22676 12.2257 3.22676 12.0023C3.22676 11.7788 3.16802 11.5592 3.05641 11.3656C2.9448 11.1719 2.78426 11.011 2.59087 10.899C2.301 10.7317 2.04692 10.5089 1.84315 10.2434C1.63938 9.97785 1.48991 9.67479 1.40327 9.3515C1.31663 9.0282 1.29452 8.69101 1.33821 8.35917C1.38189 8.02734 1.49052 7.70736 1.65787 7.4175L2.85937 5.3355C3.19729 4.75048 3.75368 4.32357 4.40624 4.14861C5.05879 3.97366 5.75412 4.06498 6.33937 4.4025C6.53304 4.51396 6.75259 4.57257 6.97604 4.57245C7.19948 4.57234 7.41898 4.5135 7.61252 4.40184C7.80607 4.29018 7.96687 4.12961 8.07882 3.93623C8.19077 3.74285 8.24993 3.52345 8.25037 3.3ZM14.2504 12C14.2504 12.5967 14.0133 13.169 13.5914 13.591C13.1694 14.0129 12.5971 14.25 12.0004 14.25C11.4036 14.25 10.8313 14.0129 10.4094 13.591C9.98743 13.169 9.75037 12.5967 9.75037 12C9.75037 11.4033 9.98743 10.831 10.4094 10.409C10.8313 9.98705 11.4036 9.75 12.0004 9.75C12.5971 9.75 13.1694 9.98705 13.5914 10.409C14.0133 10.831 14.2504 11.4033 14.2504 12ZM16.5004 12C16.5004 13.1935 16.0263 14.3381 15.1824 15.182C14.3384 16.0259 13.1938 16.5 12.0004 16.5C10.8069 16.5 9.66231 16.0259 8.81839 15.182C7.97448 14.3381 7.50037 13.1935 7.50037 12C7.50037 10.8065 7.97448 9.66193 8.81839 8.81802C9.66231 7.97411 10.8069 7.5 12.0004 7.5C13.1938 7.5 14.3384 7.97411 15.1824 8.81802C16.0263 9.66193 16.5004 10.8065 16.5004 12Z" fill="white"/>
</g>
</g>
</g>
</g>
</g>
<defs>
<clipPath id="clip0_905_9600">
<rect width="24" height="24" fill="white"/>
</clipPath>
</defs>
</svg>
