<svg width="18" height="19" viewBox="0 0 18 19" fill="none" xmlns="http://www.w3.org/2000/svg">
<path fill-rule="evenodd" clip-rule="evenodd" d="M10.7095 1.92601C10.432 1.81201 10.0795 1.81201 9.37524 1.81201C8.67099 1.81201 8.31924 1.81201 8.04099 1.92601C7.67158 2.07767 7.37752 2.36984 7.22349 2.73826C7.15299 2.90551 7.12599 3.10126 7.11474 3.38551C7.10974 3.59146 7.05229 3.79274 6.94782 3.9703C6.84336 4.14786 6.69533 4.29585 6.51774 4.40026C6.33679 4.50084 6.13339 4.55412 5.92638 4.55517C5.71937 4.55622 5.51544 4.505 5.33349 4.40626C5.07999 4.27276 4.89624 4.19926 4.71474 4.17526C4.31765 4.12312 3.91604 4.22986 3.59724 4.47226C3.35874 4.65376 3.18249 4.95676 2.83074 5.56201C2.47824 6.16726 2.30274 6.46951 2.26299 6.76576C2.21049 7.16026 2.31849 7.55926 2.56299 7.87501C2.67399 8.01901 2.83074 8.13976 3.07299 8.29126C3.43074 8.51401 3.66024 8.89351 3.66024 9.31201C3.66024 9.73051 3.43074 10.11 3.07374 10.332C2.83074 10.4843 2.67399 10.605 2.56224 10.749C2.44155 10.905 2.35296 11.0833 2.3016 11.2737C2.25024 11.4641 2.23711 11.6628 2.26299 11.8583C2.30274 12.1538 2.47824 12.4568 2.83074 13.062C3.18324 13.6673 3.35874 13.9695 3.59724 14.1518C3.91524 14.394 4.31724 14.5005 4.71474 14.4488C4.89624 14.4248 5.07999 14.3513 5.33349 14.2178C5.51553 14.1189 5.7196 14.0676 5.92676 14.0686C6.13392 14.0697 6.33745 14.1231 6.51849 14.2238C6.88299 14.4338 7.09899 14.82 7.11474 15.2385C7.12599 15.5235 7.15299 15.7185 7.22349 15.8858C7.37649 16.2533 7.67049 16.5458 8.04099 16.698C8.31849 16.812 8.67099 16.812 9.37524 16.812C10.0795 16.812 10.432 16.812 10.7095 16.698C11.0789 16.5464 11.373 16.2542 11.527 15.8858C11.5975 15.7185 11.6245 15.5235 11.6357 15.2385C11.6507 14.82 11.8675 14.433 12.2327 14.2238C12.4137 14.1232 12.6171 14.0699 12.8241 14.0689C13.0311 14.0678 13.235 14.119 13.417 14.2178C13.6705 14.3513 13.8542 14.4248 14.0357 14.4488C14.4332 14.5013 14.8352 14.394 15.1532 14.1518C15.3917 13.9703 15.568 13.6673 15.9197 13.062C16.2722 12.4568 16.4477 12.1545 16.4875 11.8583C16.5133 11.6627 16.5 11.464 16.4485 11.2736C16.397 11.0832 16.3083 10.9049 16.1875 10.749C16.0765 10.605 15.9197 10.4843 15.6775 10.3328C15.3197 10.11 15.0902 9.73051 15.0902 9.31201C15.0902 8.89351 15.3197 8.51401 15.6767 8.29201C15.9197 8.13976 16.0765 8.01901 16.1882 7.87501C16.3089 7.71906 16.3975 7.54073 16.4489 7.35034C16.5002 7.15994 16.5134 6.96126 16.4875 6.76576C16.4477 6.47026 16.2722 6.16726 15.9197 5.56201C15.5672 4.95676 15.3917 4.65451 15.1532 4.47226C14.8344 4.22986 14.4328 4.12312 14.0357 4.17526C13.8542 4.19926 13.6705 4.27276 13.417 4.40626C13.2349 4.50513 13.0309 4.55642 12.8237 4.55538C12.6166 4.55433 12.413 4.50097 12.232 4.40026C12.0545 4.29576 11.9067 4.14773 11.8023 3.97018C11.698 3.79262 11.6407 3.59139 11.6357 3.38551C11.6245 3.10051 11.5975 2.90551 11.527 2.73826C11.4508 2.55581 11.3393 2.39017 11.199 2.25081C11.0588 2.11144 10.8924 2.00107 10.7095 1.92601ZM9.37524 11.562C10.6277 11.562 11.6425 10.5548 11.6425 9.31201C11.6425 8.06926 10.627 7.06201 9.37524 7.06201C8.12274 7.06201 7.10799 8.06926 7.10799 9.31201C7.10799 10.5548 8.12349 11.562 9.37524 11.562Z" fill="white"/>
</svg>
