<svg width="41" height="40" viewBox="0 0 41 40" fill="none" xmlns="http://www.w3.org/2000/svg">
<g id="menuIcon02">
<path id="Vector" d="M12.0295 9C4.7322 9 2.79779 16.0752 4.66788 19.4229C5.61282 21.1167 6.18671 22.161 6.66661 22.8006L11.3567 30.6852C11.4705 30.8801 11.6832 31 11.9058 31H16.3832C16.8829 31 17.1945 30.4504 16.9323 30.0157L13.0388 23.4701C16.591 23.0504 19.3021 20.4072 19.0349 16.27C18.7134 11.3784 15.5075 9 12.0295 9Z" fill="#FFC01D"/>
<path id="Vector_2" d="M30.0398 9C26.5569 9 23.351 11.3784 23.0344 16.27C22.7623 20.4072 25.4784 23.0504 29.0306 23.4701L25.137 30.0157C24.8798 30.4504 25.1865 31 25.6862 31H30.1635C30.3911 31 30.5989 30.8801 30.7127 30.6852L35.4028 22.8006C35.8826 22.161 36.4565 21.1117 37.4015 19.4229C39.2666 16.0802 37.3372 9 30.0398 9Z" fill="#FFC01D"/>
</g>
</svg>
