<svg width="current" height="current" viewBox="0 0 14 14" fill="none" xmlns="http://www.w3.org/2000/svg">
<path d="M3.67286 2.50392C3.78225 2.39457 3.9306 2.33313 4.08528 2.33313C4.23996 2.33313 4.38831 2.39457 4.4977 2.50392L6.83103 4.83726C6.93729 4.94728 6.99609 5.09463 6.99476 5.24757C6.99343 5.40052 6.93208 5.54683 6.82392 5.65499C6.71577 5.76314 6.56946 5.82449 6.41651 5.82582C6.26357 5.82715 6.11621 5.76835 6.0062 5.66209L4.66861 4.32451V11.083C4.66861 11.2377 4.60715 11.3861 4.49776 11.4955C4.38836 11.6049 4.23999 11.6663 4.08528 11.6663C3.93057 11.6663 3.7822 11.6049 3.6728 11.4955C3.5634 11.3861 3.50195 11.2377 3.50195 11.083V4.32451L2.16436 5.66209C2.05435 5.76835 1.90699 5.82715 1.75405 5.82582C1.6011 5.82449 1.45479 5.76314 1.34664 5.65499C1.23848 5.54683 1.17713 5.40052 1.1758 5.24757C1.17447 5.09463 1.23327 4.94728 1.33953 4.83726L3.67286 2.50392ZM9.33528 9.67484V2.91634C9.33528 2.76163 9.39674 2.61326 9.50613 2.50386C9.61553 2.39447 9.7639 2.33301 9.91861 2.33301C10.0733 2.33301 10.2217 2.39447 10.3311 2.50386C10.4405 2.61326 10.5019 2.76163 10.5019 2.91634V9.67484L11.8395 8.33726C11.9495 8.231 12.0969 8.1722 12.2498 8.17353C12.4028 8.17486 12.5491 8.23621 12.6573 8.34436C12.7654 8.45252 12.8268 8.59883 12.8281 8.75177C12.8294 8.90472 12.7706 9.05207 12.6644 9.16209L10.331 11.4954C10.2216 11.6048 10.0733 11.6662 9.91861 11.6662C9.76393 11.6662 9.61559 11.6048 9.5062 11.4954L7.17286 9.16209C7.0666 9.05207 7.00781 8.90472 7.00914 8.75177C7.01047 8.59883 7.07181 8.45252 7.17997 8.34436C7.28812 8.23621 7.43443 8.17486 7.58738 8.17353C7.74033 8.1722 7.88768 8.231 7.9977 8.33726L9.33528 9.67484Z" fill="#1A1A1A"/>
</svg>
