<svg width="14" height="14" viewBox="0 0 14 14" fill="none" xmlns="http://www.w3.org/2000/svg">
<path d="M13.0648 0.976962C12.2966 0.208748 11.2118 0.0878906 9.9309 0.0878906H4.05487C2.7894 0.0878906 1.70458 0.208426 0.936045 0.976962C0.167831 1.74518 0.0546875 2.8226 0.0546875 4.08068V9.89661C0.0546875 11.1849 0.167509 12.2546 0.936045 13.0228C1.70426 13.791 2.7894 13.9119 4.07737 13.9119H9.9309C11.2118 13.9119 12.2966 13.7914 13.0648 13.0228C13.8334 12.2546 13.9462 11.1849 13.9462 9.89661V4.10318C13.9462 2.81489 13.8334 1.73746 13.0648 0.976962ZM12.7334 3.89232V10.1001C12.7334 10.8834 12.6354 11.6818 12.1838 12.1415C11.7242 12.5934 10.9103 12.6988 10.1344 12.6988H3.86651C3.09058 12.6988 2.27704 12.5934 1.82512 12.1415C1.36547 11.6818 1.26744 10.8834 1.26744 10.0997V3.91514C1.26744 3.12443 1.36547 2.31057 1.8174 1.85864C2.27704 1.399 3.09797 1.30128 3.88901 1.30128H10.1344C10.9103 1.30128 11.7238 1.40671 12.1835 1.85864C12.6354 2.31828 12.7334 3.11639 12.7334 3.89232ZM7.00044 11.019C7.30194 11.019 7.54301 10.7854 7.54301 10.4842V7.5386H10.4886C10.7898 7.5386 11.0308 7.28243 11.0308 7.00375C11.0308 6.70996 10.7898 6.46118 10.4886 6.46118H7.54301V3.50821C7.54301 3.20671 7.30194 2.97335 7.00044 2.97335C6.92991 2.97231 6.85989 2.98544 6.79453 3.01195C6.72917 3.03846 6.66979 3.07782 6.61992 3.12769C6.57004 3.17757 6.53069 3.23695 6.50418 3.30231C6.47766 3.36767 6.46454 3.43769 6.46558 3.50821V6.46118H3.52001C3.21851 6.46118 2.97744 6.70996 2.97744 7.00375C2.97744 7.28243 3.21851 7.5386 3.52001 7.5386H6.46558V10.4842C6.46558 10.7854 6.69926 11.019 7.00044 11.019Z" fill="#2FD714"/>
</svg>
