<svg width="29" height="16" viewBox="0 0 29 16" fill="none" xmlns="http://www.w3.org/2000/svg">
<path d="M13.7432 8.82031H0.163086V7.51709H13.7432V8.82031ZM12.166 6.22217H1.86475V4.95215H12.166V6.22217ZM12.0747 2.3623H3.41699V5.57471H1.86475V1.06738H12.0747V2.3623ZM6.93652 9.98242C8.00456 9.98242 8.92318 10.0876 9.69238 10.2979C10.4671 10.5081 11.0565 10.8153 11.4604 11.2192C11.87 11.6232 12.0747 12.1102 12.0747 12.6802C12.0747 13.2557 11.87 13.7454 11.4604 14.1494C11.0565 14.5534 10.4699 14.8605 9.70068 15.0708C8.93148 15.2811 8.01009 15.3862 6.93652 15.3862C5.86296 15.3862 4.9388 15.2811 4.16406 15.0708C3.38932 14.8605 2.7972 14.5534 2.3877 14.1494C1.97819 13.7454 1.77344 13.2557 1.77344 12.6802C1.77344 12.1102 1.97819 11.6232 2.3877 11.2192C2.7972 10.8153 3.38932 10.5081 4.16406 10.2979C4.9388 10.0876 5.86296 9.98242 6.93652 9.98242ZM6.93652 11.1943C6.17839 11.1943 5.53369 11.2552 5.00244 11.377C4.47119 11.4932 4.06722 11.6619 3.79053 11.8833C3.51383 12.0991 3.37549 12.3647 3.37549 12.6802C3.37549 12.9956 3.51383 13.264 3.79053 13.4854C4.06722 13.7067 4.47119 13.8755 5.00244 13.9917C5.53369 14.1024 6.17839 14.1577 6.93652 14.1577C7.69466 14.1577 8.33659 14.1024 8.8623 13.9917C9.39355 13.8755 9.79753 13.7067 10.0742 13.4854C10.3509 13.264 10.4893 12.9956 10.4893 12.6802C10.4893 12.3647 10.3509 12.0991 10.0742 11.8833C9.79753 11.6619 9.39355 11.4932 8.8623 11.377C8.33105 11.2552 7.68913 11.1943 6.93652 11.1943ZM28.4521 9.94092H14.8389V8.6543H28.4521V9.94092ZM26.7339 4.62842H18.1509V6.5127H16.5903V3.46631H25.1567V2.13818H16.5488V0.876465H26.7339V4.62842ZM27.041 7.25146H16.5903V6.01465H27.041V7.25146ZM22.4175 9.31836H20.8652V6.62061H22.4175V9.31836ZM26.8169 15.2949H25.2314V12.2402H16.3579V10.9785H26.8169V15.2949Z" fill="#B3B3B3"/>
</svg>
