<svg width="239" height="236" viewBox="0 0 239 236" fill="none" xmlns="http://www.w3.org/2000/svg">
<circle cx="125.5" cy="113.5" r="113.5" fill="#FFF7C9"/>
<g clip-path="url(#clip0_58_2)">
<path d="M142.733 185.614L149.228 138.693H112.567C112.567 138.693 85.7994 133.072 83.4464 139.969C74.8968 165.037 74.4158 180.604 75.9061 194.446C76.91 203.774 80.3821 213.882 83.985 219.728C90.1396 229.71 96.9792 230.61 102.83 230.61C110.088 230.61 117.268 225.81 117.885 220.528C118.565 214.713 116.301 210.086 116.118 205.489C116.18 203.675 117.979 203.476 119.171 205.05C130.142 219.477 134.796 223.049 140.961 223.603C147.513 224.194 158.808 219.571 158.959 207.848C159.09 197.395 150.53 200.339 142.728 185.614H142.733Z" fill="#FFD859"/>
<path d="M93.2591 137.779C88.2078 134.442 74.9051 125.407 69.8538 122.311C65.315 119.529 55.3379 115.581 48.7127 125.129C42.3333 134.322 45.523 142.192 47.944 146.098C53.9365 155.761 62.758 162.705 84.5318 168.029" fill="#FFD859"/>
<path d="M145.678 155.84C157.584 160.441 163.728 162.172 169.444 163.851C176.696 165.989 182.061 171.752 178.788 180.312C176.017 187.565 167.049 188.223 162.902 187.967C152.648 187.329 142.734 185.614 128.484 171.626" fill="#FFD859"/>
<path d="M141.962 185.986C141.868 185.986 141.774 185.97 141.685 185.934C141.282 185.777 141.078 185.327 141.23 184.919C142.349 181.986 144.409 172.464 144.901 167.94C144.948 167.512 145.335 167.198 145.763 167.245C146.192 167.292 146.506 167.679 146.459 168.108C145.957 172.72 143.844 182.461 142.694 185.479C142.574 185.792 142.276 185.986 141.962 185.986Z" fill="#E6B545"/>
<path d="M148.421 42.411C179.868 49.3761 195.022 77.7647 189.506 113.071C184.381 145.852 159.977 164.227 123.243 156.086C86.5088 147.949 72.1446 120.988 81.3425 89.1118C91.2463 54.7777 116.973 35.4459 148.421 42.411Z" fill="#FFD759"/>
<path d="M115.365 48.017C80.4764 44.0481 47.8889 83.8256 64.2192 108.747C69.6418 117.02 82.1654 127.352 105.822 106.52L115.365 48.017Z" fill="#FFD759"/>
<path d="M176.012 61.4507C209.315 72.5834 222.059 122.406 196.724 138.098C188.316 143.306 172.597 147.385 159.953 118.51L176.012 61.4507Z" fill="#FFD759"/>
<path d="M175.696 121.299C176.745 116.565 173.127 111.737 167.614 110.516C162.102 109.295 156.783 112.143 155.735 116.877C154.686 121.611 158.305 126.439 163.817 127.66C169.329 128.881 174.648 126.033 175.696 121.299Z" fill="#F6C34A"/>
<path d="M110.337 106.821C111.386 102.087 107.767 97.259 102.255 96.038C96.7427 94.8169 91.424 97.6648 90.3753 102.399C89.3267 107.133 92.9452 111.961 98.4574 113.182C103.97 114.403 109.288 111.555 110.337 106.821Z" fill="#F6C34A"/>
<path d="M137.822 111.131C137.356 111.952 136.661 112.543 135.924 112.951C134.621 113.662 133.178 113.803 132.634 113.683C132.091 113.563 130.841 112.826 129.962 111.628C129.466 110.948 129.084 110.122 129.011 109.181C128.791 106.425 131.997 106.284 134.167 106.765C136.337 107.246 139.186 108.726 137.822 111.131Z" fill="#282828"/>
<path d="M131.542 119.921C131.448 119.921 131.354 119.911 131.259 119.89C130.553 119.733 130.109 119.037 130.266 118.332L132.033 110.347C132.19 109.641 132.886 109.196 133.592 109.353C134.297 109.51 134.742 110.206 134.585 110.912L132.818 118.896C132.682 119.508 132.143 119.921 131.542 119.921Z" fill="#282828"/>
<path d="M79.6741 118.849C79.3081 118.849 78.9839 118.593 78.9054 118.222C77.3995 110.959 76.6465 102.65 81.2951 91.0934C81.4572 90.6907 81.9121 90.4972 82.3148 90.6593C82.7174 90.8214 82.9109 91.2764 82.7488 91.679C78.2518 102.848 78.9839 110.885 80.4375 117.903C80.5264 118.326 80.2545 118.739 79.831 118.828C79.7787 118.839 79.7212 118.844 79.6689 118.844L79.6741 118.849Z" fill="#E5B445"/>
<path d="M178.778 140.795C178.616 140.795 178.449 140.743 178.307 140.639C177.962 140.377 177.889 139.886 178.145 139.54C182.428 133.794 186.486 126.818 187.129 114.791C187.15 114.357 187.516 114.028 187.955 114.049C188.389 114.07 188.718 114.441 188.697 114.875C188.033 127.315 183.84 134.531 179.405 140.476C179.254 140.686 179.013 140.79 178.778 140.79V140.795Z" fill="#E5B445"/>
<path d="M162.261 116.867C161.885 116.867 161.509 116.732 161.205 116.46C158.246 113.761 150.308 109.406 150.229 109.359C149.764 109.102 149.461 108.632 149.419 108.104C149.377 107.575 149.607 107.063 150.026 106.739C152.834 104.569 158.094 102.252 163.762 100.699C164.599 100.469 165.462 100.961 165.692 101.797C165.922 102.634 165.43 103.497 164.594 103.727C160.573 104.835 156.698 106.373 154.005 107.889C156.703 109.453 161.122 112.135 163.323 114.138C163.961 114.724 164.008 115.712 163.428 116.355C163.119 116.695 162.696 116.867 162.267 116.867H162.261Z" fill="#282828"/>
<path d="M165.091 110.886C164.997 110.886 164.897 110.876 164.803 110.86C159.532 109.882 156.975 109.516 150.993 109.558C150.136 109.568 149.419 108.868 149.414 108C149.409 107.132 150.104 106.426 150.972 106.42C157.2 106.379 160.008 106.781 165.378 107.775C166.231 107.932 166.79 108.753 166.633 109.605C166.492 110.358 165.833 110.886 165.091 110.886Z" fill="#282828"/>
<path d="M105.09 104.207C104.421 104.207 103.803 103.779 103.594 103.104C103.338 102.278 103.798 101.399 104.624 101.138C107.469 100.249 112.604 99.6842 115.71 99.4071C113.911 96.8919 111.046 93.8643 107.866 91.1609C107.208 90.6013 107.124 89.6078 107.689 88.949C108.248 88.2901 109.242 88.2064 109.901 88.7712C114.377 92.5727 118.168 96.8971 119.799 100.05C120.04 100.521 120.029 101.08 119.773 101.541C119.512 102.001 119.036 102.299 118.508 102.335C118.419 102.341 109.383 102.942 105.56 104.134C105.404 104.181 105.247 104.207 105.09 104.207Z" fill="#282828"/>
<path d="M118.4 102.335C118.175 102.335 117.945 102.288 117.73 102.184C112.324 99.6214 109.855 98.8736 104.663 97.535C103.826 97.3206 103.319 96.463 103.534 95.6264C103.748 94.7897 104.605 94.2825 105.442 94.4969C110.734 95.8617 113.448 96.6826 119.074 99.3495C119.859 99.7207 120.193 100.657 119.817 101.441C119.55 102.006 118.985 102.335 118.4 102.335Z" fill="#282828"/>
<path d="M149.078 122.51C147.986 127.441 144.817 131.394 140.649 133.715C136.91 135.802 132.361 136.57 127.78 135.556C123.195 134.542 119.398 131.922 116.894 128.45C114.096 124.585 112.893 119.665 113.986 114.734C114.18 113.871 114.431 113.04 114.75 112.24C115.001 111.581 115.811 111.351 116.365 111.785C120.313 114.839 125.553 117.296 131.535 118.619C137.517 119.942 143.311 119.937 148.174 118.834C148.859 118.677 149.491 119.226 149.444 119.932C149.387 120.789 149.267 121.642 149.078 122.504V122.51Z" fill="#BF612C"/>
<path d="M140.654 133.716C136.915 135.802 132.366 136.571 127.785 135.557C123.199 134.542 119.403 131.922 116.898 128.45C120.459 127.582 124.81 127.551 129.338 128.555C133.867 129.559 137.799 131.426 140.659 133.716H140.654Z" fill="#E18A5B"/>
<path d="M132.643 179.412C134.378 169.83 128.723 160.784 120.013 159.207C111.303 157.63 102.836 164.12 101.102 173.703C99.367 183.285 105.022 192.331 113.732 193.908C122.442 195.484 130.909 188.994 132.643 179.412Z" fill="#FFF5E6"/>
<path d="M44.4957 59.0511C39.9496 57.7202 34.7352 58.6787 31.8213 60.1356L30.5561 60.7655L31.2243 62.0088C32.3362 64.0792 35.4363 69.6003 37.7751 73.7575C36.3565 73.522 34.8503 73.7082 33.4645 74.3983C29.9646 76.1401 28.5405 80.3904 30.2822 83.8959C32.024 87.4013 36.2743 88.8199 39.7798 87.0781C43.2852 85.3364 44.7038 81.0861 42.962 77.5806C42.9511 77.5587 42.9401 77.5423 42.9292 77.5204L43.0168 77.4711C42.9511 77.3506 36.9206 66.6974 34.3628 62.0417C36.959 61.1489 40.6342 60.7765 43.7288 61.6802L44.4957 59.0511Z" fill="#FFBD59"/>
<path d="M223.566 152.685C221.544 148.401 217.371 145.137 214.347 143.915L213.038 143.39L212.551 144.715C211.74 146.917 209.659 152.904 208.103 157.411C207.336 156.19 206.203 155.193 204.768 154.612C201.142 153.15 197.017 154.903 195.549 158.529C194.082 162.155 195.84 166.279 199.466 167.747C203.092 169.209 207.216 167.457 208.684 163.831C208.695 163.809 208.7 163.787 208.706 163.765L208.799 163.798C208.843 163.666 212.819 152.093 214.605 147.087C216.993 148.434 219.71 150.943 221.084 153.857L223.56 152.69L223.566 152.685Z" fill="#FFBD59"/>
<path d="M25.5842 117.888L15.4622 103.625L0 113.533L7.07111 123.628C4.06411 123.989 1.73628 126.542 1.73628 129.647C1.73628 132.999 4.45299 135.711 7.79958 135.711C11.1462 135.711 14.2791 132.967 13.8629 129.647C13.6109 127.643 12.4224 126.356 11.0366 124.526L7.42165 119.367L18.4966 112.646L20.8683 115.987C17.6531 116.14 15.0953 118.786 15.0953 122.039C15.0953 125.293 17.812 128.103 21.1586 128.103C24.5051 128.103 27.2219 125.386 27.2219 122.039C27.2219 120.435 26.5427 119.263 25.5732 117.893L25.5842 117.888ZM5.84969 117.115L3.87788 114.3L14.7392 107.344L16.9137 110.406L5.85516 117.115H5.84969Z" fill="#FFBD59"/>
</g>
<defs>
<clipPath id="clip0_58_2">
<rect width="223.564" height="198.61" fill="white" transform="translate(0 37)"/>
</clipPath>
</defs>
</svg>
