<svg width="227" height="236" viewBox="0 0 227 236" fill="none" xmlns="http://www.w3.org/2000/svg">
<circle cx="113.5" cy="113.5" r="113.5" fill="#FFE6C7"/>
<g clip-path="url(#clip0_58_2)">
<path d="M151.632 33.0153C137.817 32.0898 115.826 68.7133 115.826 68.7133C115.826 68.7133 114.042 68.4048 107.312 69.1401C100.582 69.8753 98.9054 70.554 98.9054 70.554C98.9054 70.554 69.5624 39.5091 56.2662 43.3807C47.1965 46.0235 33.2731 75.3768 42.1475 111.224C45.3455 120.972 49.6336 129.209 54.6158 136.109C68.0353 154.696 86.2211 161.082 102.119 163.704C107.574 164.604 113.117 164.722 117.657 164.28C122.186 163.735 127.57 162.429 132.706 160.383C147.663 154.413 164.054 144.264 173.17 123.23C176.554 115.419 178.97 106.453 179.998 96.2465C180.965 59.3248 161.062 33.6477 151.632 33.0153Z" fill="#FF9E69"/>
<path d="M116.252 151.421C129.712 149.955 137.98 142.063 138.792 131.996C139.605 121.934 131.296 114.411 112.452 116.463C93.608 118.509 87.109 127.641 90.0654 137.291C93.0218 146.947 102.791 152.881 116.252 151.421Z" fill="#FFE7CB"/>
<path d="M111.946 111.81C109.252 112.103 105.602 113.492 106.918 116.494C108.173 119.358 111.293 120.777 112.903 120.602C114.512 120.428 117.253 118.366 117.864 115.301C118.507 112.083 114.641 111.517 111.946 111.805V111.81Z" fill="#282828"/>
<path d="M91.9035 103.003C91.9035 103.003 91.8521 103.003 91.8315 103.003L82.8235 102.581C81.97 102.54 81.317 101.82 81.353 100.966C81.3941 100.113 82.1139 99.4548 82.9674 99.496L91.9755 99.9176C92.829 99.9587 93.482 100.679 93.446 101.532C93.4049 102.36 92.7262 103.003 91.9087 103.003H91.9035Z" fill="#282828"/>
<path d="M96.6566 112.463C97.068 116.236 94.3429 119.681 90.6718 120.077C87.0007 120.473 83.597 117.697 83.1857 113.923C83.1548 113.63 83.1446 113.342 83.1497 113.054C83.1651 111.948 83.4479 110.894 83.9364 109.959L94.8519 109.851C95.4278 109.846 95.9317 110.159 96.199 110.627C96.271 110.802 96.3327 110.982 96.3944 111.167C96.523 111.583 96.6104 112.015 96.6618 112.463H96.6566Z" fill="#282828"/>
<path d="M96.3904 111.167C96.4059 111.239 96.4059 111.311 96.411 111.383C96.411 112.185 95.8146 112.848 95.0331 112.935C94.9816 112.94 94.9302 112.94 94.8788 112.94L83.1509 113.059H82.4876C81.6341 113.069 80.94 112.39 80.9297 111.537C80.9297 110.683 81.6135 109.989 82.4567 109.979L83.9324 109.964L94.848 109.856C95.4238 109.85 95.9277 110.164 96.195 110.632C96.267 110.807 96.3287 110.987 96.3904 111.172V111.167Z" fill="#282828"/>
<path d="M127.031 109.162C127.442 112.936 130.841 115.712 134.512 115.316C138.183 114.921 140.908 111.471 140.502 107.697C140.471 107.404 140.419 107.121 140.353 106.838C140.101 105.763 139.597 104.797 138.918 103.984L128.234 106.226C127.674 106.344 127.247 106.756 127.087 107.27C127.057 107.455 127.036 107.645 127.015 107.835C126.979 108.267 126.985 108.715 127.036 109.157L127.031 109.162Z" fill="#282828"/>
<path d="M127.016 107.841C127.016 107.913 127.031 107.985 127.046 108.057C127.216 108.838 127.941 109.363 128.728 109.275C128.779 109.27 128.831 109.26 128.882 109.25L140.363 106.843L141.011 106.705C141.844 106.525 142.379 105.712 142.204 104.879C142.024 104.046 141.201 103.512 140.379 103.686L138.934 103.99L128.25 106.232C127.689 106.35 127.262 106.761 127.103 107.275C127.072 107.46 127.052 107.651 127.031 107.841H127.016Z" fill="#282828"/>
<path d="M125.021 136.002C123.242 138.526 120.44 140.542 116.219 141.241C112.98 141.776 110.429 141.369 108.434 140.48C104.625 138.768 102.835 135.302 102.09 133.302C101.828 132.598 102.378 131.863 103.128 131.914C108.748 132.289 112.306 131.585 115.283 130.541C119.293 129.138 123.607 125.04 125.648 122.932C126.219 122.34 127.222 122.628 127.397 123.436C128.106 126.772 127.834 132.027 125.021 136.007V136.002Z" fill="#964137"/>
<path d="M125.024 136.001C123.245 138.526 120.443 140.541 116.222 141.24C112.983 141.775 110.432 141.369 108.438 140.479C110.345 139.071 113.857 137.672 118.001 136.798C120.572 136.253 122.998 135.996 125.024 136.001Z" fill="#E4705E"/>
<path d="M115.421 153.216H80.9625C71.8464 159.941 63.8821 167.797 63.8204 182.487C63.769 194.97 80.1604 202.791 82.3507 202.755C82.9625 202.744 82.8751 203.747 82.8957 204.004C83.6155 212.426 85.4974 219.388 88.3458 226.195C92.4488 235.995 95.8885 235.99 101.39 235.995C106.583 235.995 112.923 235.995 112.768 216.184C113.766 216.354 114.47 216.447 115.416 216.447C116.362 216.447 117.067 216.354 118.064 216.184C117.91 235.995 124.249 236 129.442 235.995C134.944 235.995 138.379 235.995 142.487 226.195C145.335 219.388 147.222 212.426 147.937 204.004C147.937 204.004 151.001 171.689 140.029 155.632C136.07 149.837 115.411 153.21 115.411 153.21L115.421 153.216Z" fill="#FF9F69"/>
<path d="M115.42 208.307C124.575 208.307 131.997 200.483 131.997 190.831C131.997 181.179 124.575 173.354 115.42 173.354C106.265 173.354 98.8438 181.179 98.8438 190.831C98.8438 200.483 106.265 208.307 115.42 208.307Z" fill="#FFE8CC"/>
<path d="M83.7203 202.965C83.4632 202.965 83.2164 202.836 83.0673 202.61C82.836 202.25 82.9439 201.772 83.3039 201.546C88.101 198.487 88.8876 194.163 88.7025 191.072C88.43 186.44 85.7718 182.142 83.4684 181.026C83.0828 180.841 82.9234 180.378 83.1085 179.998C83.2936 179.612 83.7563 179.453 84.1368 179.638C86.8258 180.933 89.9262 185.643 90.2399 190.98C90.5329 195.931 88.3632 200.142 84.1265 202.842C83.998 202.924 83.854 202.965 83.7152 202.965H83.7203Z" fill="#E37D44"/>
<path d="M145.868 174.435C145.868 174.435 162.948 167.18 170.918 158.954C178.887 150.727 181.854 144.387 181.715 138.557C181.607 133.935 173.144 124.695 162.264 135.482C151.385 146.269 136.5 156.465 136.5 156.465L145.868 174.43V174.435Z" fill="#FF9F69"/>
<path d="M138.841 158.007C138.579 158.007 138.327 157.874 138.183 157.637C137.962 157.272 138.075 156.799 138.44 156.578C149.094 150.089 156.503 141.77 158.523 139.374C159.104 138.685 159.644 138.012 160.169 137.364C163.207 133.585 165.829 130.32 171.511 129.95C171.933 129.924 172.303 130.243 172.334 130.67C172.364 131.096 172.041 131.461 171.614 131.492C166.611 131.821 164.41 134.557 161.372 138.336C160.842 138.994 160.292 139.678 159.706 140.372C157.649 142.814 150.101 151.287 139.247 157.899C139.124 157.976 138.985 158.012 138.846 158.012L138.841 158.007Z" fill="#E37D44"/>
<path d="M195.974 141.92C198.186 141.92 199.979 140.127 199.979 137.914C199.979 135.702 198.186 133.909 195.974 133.909C193.762 133.909 191.969 135.702 191.969 137.914C191.969 140.127 193.762 141.92 195.974 141.92Z" fill="#FF8359"/>
<path d="M209.084 129.096C212.616 129.096 215.48 128.387 215.48 127.512C215.48 126.638 212.616 125.929 209.084 125.929C205.551 125.929 202.688 126.638 202.688 127.512C202.688 128.387 205.551 129.096 209.084 129.096Z" fill="#FF8359"/>
<path d="M209.084 133.908C209.958 133.908 210.667 131.045 210.667 127.512C210.667 123.98 209.958 121.116 209.084 121.116C208.209 121.116 207.5 123.98 207.5 127.512C207.5 131.045 208.209 133.908 209.084 133.908Z" fill="#FF8359"/>
<path d="M196.447 107.126C200.349 107.126 203.512 106.343 203.512 105.378C203.512 104.413 200.349 103.63 196.447 103.63C192.546 103.63 189.383 104.413 189.383 105.378C189.383 106.343 192.546 107.126 196.447 107.126Z" fill="#FF8359"/>
<path d="M200.527 111.149C201.315 110.591 200.127 107.557 197.873 104.372C195.619 101.188 193.152 99.0583 192.364 99.6161C191.576 100.174 192.765 103.208 195.019 106.392C197.273 109.577 199.739 111.707 200.527 111.149Z" fill="#FF8359"/>
<path d="M197.961 106.226C199.877 102.828 200.749 99.688 199.908 99.2138C199.067 98.7396 196.832 101.11 194.915 104.509C192.999 107.907 192.127 111.047 192.968 111.521C193.809 111.995 196.044 109.624 197.961 106.226Z" fill="#FF8359"/>
<path d="M44.8803 152.011C47.0924 152.011 48.8856 150.217 48.8856 148.005C48.8856 145.793 47.0924 144 44.8803 144C42.6682 144 40.875 145.793 40.875 148.005C40.875 150.217 42.6682 152.011 44.8803 152.011Z" fill="#FF8359"/>
<path d="M35.3961 160.859C38.9286 160.859 41.7923 160.15 41.7923 159.275C41.7923 158.4 38.9286 157.691 35.3961 157.691C31.8636 157.691 29 158.4 29 159.275C29 160.15 31.8636 160.859 35.3961 160.859Z" fill="#FF8359"/>
<path d="M35.3961 165.671C36.2707 165.671 36.9797 162.808 36.9797 159.275C36.9797 155.743 36.2707 152.879 35.3961 152.879C34.5215 152.879 33.8125 155.743 33.8125 159.275C33.8125 162.808 34.5215 165.671 35.3961 165.671Z" fill="#FF8359"/>
</g>
<defs>
<clipPath id="clip0_58_2">
<rect width="207" height="203" fill="white" transform="translate(8 33)"/>
</clipPath>
</defs>
</svg>
