<svg width="234" height="236" viewBox="0 0 234 236" fill="none" xmlns="http://www.w3.org/2000/svg">
<circle cx="120.5" cy="113.5" r="113.5" fill="#FBEDFF"/>
<g clip-path="url(#clip0_58_2)">
<path d="M151.524 87.1405C152.24 87.6017 152.892 88.0258 153.486 88.4235C155.835 89.9821 157.303 91.0849 158.432 91.965C159.434 92.7443 160.171 93.354 161.025 93.9637C174.783 90.8622 187.947 84.7229 197.007 90.5335C206.852 96.8531 195.374 119.634 188.779 132.703C172.72 192.452 128.192 185.443 100.04 167.381C71.8884 149.318 46.9549 111.767 94.5794 72.2641C103.709 60.8231 119.64 40.8943 129.485 47.2085C138.541 53.0191 138.445 67.5456 141.361 81.3458C142.273 81.8653 143.132 82.2789 144.261 82.8673C145.533 83.53 147.145 84.4048 149.541 85.8893C150.151 86.2604 150.809 86.6792 151.524 87.1405Z" fill="#FFB5FF"/>
<path d="M123.861 56.9371C120.225 55.4209 109.855 66.7558 106.424 72.1369C106.127 72.6035 106.456 73.2026 107.002 73.1973C116.052 73.0806 120.903 74.3106 128.739 76.9508C129.126 77.0834 129.54 76.8077 129.571 76.3941C129.974 70.3609 127.976 58.6496 123.867 56.9371H123.861Z" fill="#F294EB"/>
<path d="M190.514 99.7055C193.403 102.378 187.423 116.528 183.966 121.893C183.669 122.354 182.985 122.306 182.763 121.808C179.094 113.537 175.956 109.635 170.288 103.613C170.007 103.316 170.081 102.823 170.447 102.627C175.759 99.7426 187.243 96.6836 190.514 99.7055Z" fill="#F294EB"/>
<path d="M124.366 129.463C122.6 128.329 119.716 127.406 119.011 129.919C118.343 132.31 120.056 134.643 120.755 135.094C121.455 135.544 124.292 136.127 126.184 134.521C128.172 132.835 126.131 130.598 124.366 129.463Z" fill="#282828"/>
<path d="M117.871 140.825C117.643 140.825 117.41 140.761 117.209 140.629C116.636 140.263 116.466 139.499 116.838 138.922L120.787 132.766C121.153 132.194 121.917 132.024 122.494 132.395C123.067 132.761 123.237 133.524 122.866 134.102L118.916 140.258C118.683 140.623 118.285 140.825 117.877 140.825H117.871Z" fill="#282828"/>
<path d="M91.9691 118.378C91.7359 118.378 91.5026 118.325 91.2852 118.208C87.9982 116.485 84.4567 115.176 81.3181 114.513C80.5176 114.343 80.0033 113.559 80.173 112.758C80.3426 111.958 81.1273 111.443 81.9278 111.613C85.3262 112.329 89.1328 113.739 92.6583 115.579C93.3847 115.96 93.6604 116.851 93.2839 117.577C93.0189 118.081 92.5046 118.373 91.9691 118.373V118.378Z" fill="#DC86D5"/>
<path d="M95.5095 112.859C95.0959 112.859 94.6824 112.684 94.3908 112.345C92.1906 109.8 89.683 107.605 87.329 106.173C86.6292 105.749 86.4066 104.837 86.836 104.138C87.2601 103.438 88.172 103.215 88.8718 103.645C91.4802 105.23 94.2371 107.637 96.6334 110.409C97.1689 111.03 97.1 111.963 96.4797 112.498C96.1987 112.742 95.8541 112.859 95.5148 112.859H95.5095Z" fill="#DC86D5"/>
<path d="M157.092 162.97C156.636 162.97 156.19 162.763 155.899 162.371C153.99 159.794 151.323 157.122 148.386 154.848C147.74 154.35 147.623 153.416 148.121 152.77C148.62 152.123 149.553 152.006 150.2 152.505C153.343 154.938 156.212 157.817 158.279 160.605C158.767 161.263 158.629 162.191 157.972 162.678C157.707 162.875 157.399 162.97 157.092 162.97Z" fill="#DC86D5"/>
<path d="M161.804 153.687C161.518 153.687 161.232 153.602 160.977 153.432C158.698 151.89 155.66 150.527 152.426 149.583C151.641 149.356 151.191 148.534 151.419 147.749C151.647 146.964 152.468 146.514 153.253 146.742C156.773 147.765 160.103 149.271 162.637 150.978C163.315 151.434 163.49 152.356 163.034 153.035C162.748 153.459 162.282 153.687 161.804 153.687Z" fill="#DC86D5"/>
<path d="M122.448 144.377C120.725 144.377 118.514 143.932 116.086 142.373C110.572 138.837 110.758 133.949 110.769 133.742C110.811 132.925 111.505 132.3 112.322 132.337C113.138 132.379 113.769 133.074 113.727 133.89C113.727 134.012 113.679 137.305 117.687 139.876C121.695 142.447 124.669 141.032 124.791 140.973C125.518 140.613 126.408 140.904 126.774 141.625C127.14 142.347 126.864 143.227 126.149 143.603C126.048 143.656 124.638 144.372 122.448 144.372V144.377Z" fill="#282828"/>
<path d="M109.917 120.525C108.385 120.525 106.667 120.095 104.86 118.939C101.912 117.047 100.814 113.993 101.504 109.609C101.631 108.803 102.389 108.251 103.195 108.379C104.001 108.506 104.552 109.264 104.425 110.07C103.783 114.131 105.093 115.573 106.455 116.442C110.421 118.987 113.157 116.485 113.454 116.193C114.031 115.626 114.97 115.626 115.542 116.199C116.115 116.771 116.126 117.699 115.553 118.277C114.567 119.279 112.51 120.519 109.907 120.519L109.917 120.525Z" fill="#282828"/>
<path d="M146.542 144.022C145.01 144.022 143.292 143.592 141.485 142.437C138.537 140.544 137.439 137.49 138.129 133.106C138.256 132.3 139.014 131.748 139.82 131.876C140.626 132.003 141.177 132.761 141.05 133.567C140.408 137.628 141.718 139.07 143.08 139.939C147.173 142.564 149.957 139.818 150.073 139.701C150.646 139.118 151.584 139.112 152.167 139.685C152.751 140.258 152.756 141.196 152.183 141.779C151.197 142.781 149.14 144.022 146.537 144.022H146.542Z" fill="#282828"/>
<path d="M124.785 177.751C124.785 177.751 131.025 177.926 137.445 179.718C149.973 172.401 169.758 168.722 184.168 172.555C207.755 178.827 220.145 194.35 220.145 194.35C220.145 194.35 224.848 192.601 229.327 192.707C231.787 192.765 232.869 193.422 233.505 194.35C235.742 197.6 229.078 210.472 203.275 221.32C185.234 228.906 158.116 235.904 116.927 236C97.7886 236.042 62.872 233.519 40.9073 219.835C37.6627 217.815 31.1788 212.911 32.7057 210.525C34.1318 208.293 42.0578 209.38 42.0578 209.38C42.0578 209.38 44.6132 203.665 48.7007 201.37L93.6162 182.649L112.713 178.779L124.779 177.756L124.785 177.751Z" fill="#CAE9FF"/>
<path d="M77.8673 145.305C77.8673 145.305 68.8916 144.488 55.0491 154.943C39.2237 166.883 40.3529 187.739 48.703 201.37C55.1975 211.968 57.8801 216.071 62.0949 219.74C65.3979 222.613 69.3264 225.254 77.5174 221.283C85.947 217.195 85.0669 212.747 83.8051 206.443C83.222 203.538 82.045 199.965 79.9031 195.061C79.8024 194.833 79.8713 194.562 80.0781 194.414C82.1192 192.951 90.2042 186.287 94.8537 184.41C95.0393 184.336 95.2461 184.373 95.3945 184.505C100.007 188.545 105.107 193.343 108.733 195.777C113.865 199.223 121.6 206.438 130.353 198.279C140.071 189.218 124.781 177.751 124.781 177.751L77.862 145.305H77.8673Z" fill="#FFB5FF"/>
<path d="M35.5623 108.874C35.5623 108.874 27.0144 105.441 22.3712 110.58C16.9055 116.628 21.6366 125.69 28.9667 128.597C34.9754 130.979 45.6512 131.836 51.9074 130.035C53.5922 125.469 54.4386 117.153 53.7719 110.134C53.2369 104.505 49.0328 98.8365 41.9941 100.207C34.5721 101.653 35.5623 108.874 35.5623 108.874Z" fill="#F294EB"/>
<path d="M55.6399 79.4634C55.6399 79.4634 52.2457 75.2515 48.3412 78.2278C43.9303 81.5887 46.6789 87.2421 49.0486 89.2238C52.8294 92.3827 58.2222 93.0821 61.6667 92.9927C63.128 91.3375 65.4475 86.8225 65.8882 83.6403C66.3598 80.2288 65.4436 75.4147 61.1255 75.0261C56.4362 74.6026 55.6399 79.4673 55.6399 79.4673V79.4634Z" fill="#F294EB"/>
<path d="M123.515 177.555C123.346 177.555 123.176 177.502 123.033 177.39C122.026 176.616 112.817 169.671 100.252 163.389C99.8594 163.192 99.7004 162.715 99.8965 162.323C100.093 161.931 100.57 161.772 100.962 161.968C113.66 168.314 122.98 175.349 123.998 176.128C124.348 176.394 124.411 176.897 124.146 177.242C123.987 177.449 123.754 177.555 123.515 177.555Z" fill="#E499E5"/>
</g>
<defs>
<clipPath id="clip0_58_2">
<rect width="233.903" height="190" fill="white" transform="translate(0 46)"/>
</clipPath>
</defs>
</svg>
