<svg width="227" height="237" viewBox="0 0 227 237" fill="none" xmlns="http://www.w3.org/2000/svg">
<circle cx="113.5" cy="113.5" r="113.5" fill="#E0F4FF"/>
<g clip-path="url(#clip0_58_2)">
<path d="M112.074 37.8872C162.245 37.8872 180.296 75.3983 176.133 107.6C172.314 137.139 144.276 154.152 112.074 154.152C79.8726 154.152 51.8344 137.144 48.0154 107.6C43.8521 75.3983 65.3061 37.8872 112.074 37.8872Z" fill="#8ED5FF"/>
<path d="M54.1736 71.451C43.39 61.8188 45.9394 42.0506 56.2912 35.1169C66.6533 28.178 78.8709 29.4579 86.1644 43.1609" fill="#8ED5FF"/>
<path d="M170.046 71.451C180.829 61.8188 178.28 42.0506 167.928 35.1169C157.566 28.178 145.348 29.4579 138.055 43.1609" fill="#8ED5FF"/>
<path d="M112.109 134.394C123.889 134.394 131.779 128.355 133.429 119.751C135.079 111.141 128.597 103.874 112.109 103.874C95.6197 103.874 89.1383 111.141 90.7882 119.751C92.4381 128.36 100.328 134.394 112.109 134.394Z" fill="#DFF5FF"/>
<path d="M112.099 101.119C115.039 101.119 118.395 102.059 117.455 104.562C116.509 107.066 113.466 109.358 112.099 109.358C110.732 109.358 107.586 106.958 106.743 104.562C105.905 102.059 109.159 101.119 112.099 101.119Z" fill="#282828"/>
<path d="M88.9107 104.408C92.6783 104.408 95.8136 101.447 95.8136 97.8598C95.8136 94.2721 92.6783 91.3115 88.9107 91.3115C85.1432 91.3115 82.0078 94.2721 82.0078 97.8598C82.0078 101.447 85.1432 104.408 88.9107 104.408Z" fill="#282828"/>
<path d="M135.309 104.408C139.077 104.408 142.212 101.447 142.212 97.8598C142.212 94.2721 139.077 91.3115 135.309 91.3115C131.542 91.3115 128.406 94.2721 128.406 97.8598C128.406 101.447 131.542 104.408 135.309 104.408Z" fill="#282828"/>
<path d="M112.105 120.008C111.396 120.008 110.82 119.432 110.82 118.723V108.839C110.82 108.129 111.396 107.554 112.105 107.554C112.815 107.554 113.39 108.129 113.39 108.839V118.723C113.39 119.432 112.815 120.008 112.105 120.008Z" fill="#282828"/>
<path d="M118.628 120.038C118.628 121.339 118.412 122.562 117.965 123.616C117.04 125.816 115.123 127.301 112.106 127.301C109.089 127.301 107.166 125.816 106.241 123.616C105.794 122.557 105.578 121.334 105.578 120.038C105.578 116.024 107.84 112.771 112.101 112.771C116.362 112.771 118.623 116.024 118.623 120.038H118.628Z" fill="#964137"/>
<path d="M117.974 123.616C117.049 125.816 115.132 127.301 112.115 127.301C109.098 127.301 107.175 125.816 106.25 123.616C107.653 122.788 109.761 122.259 112.115 122.259C114.469 122.259 116.571 122.788 117.974 123.616Z" fill="#E4705E"/>
<path d="M68.668 113.896C68.4418 113.896 68.2105 113.845 67.9895 113.737C67.2236 113.362 66.9101 112.437 67.2802 111.676L69.9067 106.31C70.2819 105.544 71.2019 105.23 71.9678 105.601C72.7336 105.976 73.0472 106.901 72.6771 107.662L70.0506 113.028C69.7833 113.573 69.2334 113.891 68.6628 113.891L68.668 113.896Z" fill="#16AEE3"/>
<path d="M75.0664 113.896C74.8403 113.896 74.609 113.845 74.3879 113.737C73.6221 113.362 73.3086 112.437 73.6786 111.676L76.3051 106.31C76.6803 105.544 77.6004 105.23 78.3662 105.601C79.1321 105.976 79.4456 106.901 79.0755 107.662L76.449 113.028C76.1818 113.573 75.6318 113.891 75.0613 113.891L75.0664 113.896Z" fill="#16AEE3"/>
<path d="M81.4648 113.896C81.2387 113.896 81.0074 113.845 80.7864 113.737C80.0205 113.362 79.707 112.437 80.0771 111.676L82.7036 106.31C83.0788 105.544 84.004 105.23 84.7647 105.601C85.5305 105.976 85.844 106.901 85.474 107.662L82.8475 113.028C82.5802 113.573 82.0302 113.891 81.4597 113.891L81.4648 113.896Z" fill="#16AEE3"/>
<path d="M140.121 113.896C139.895 113.896 139.664 113.845 139.443 113.737C138.677 113.362 138.363 112.437 138.733 111.676L141.36 106.31C141.735 105.544 142.655 105.23 143.421 105.601C144.187 105.976 144.5 106.901 144.13 107.662L141.504 113.028C141.236 113.573 140.686 113.891 140.116 113.891L140.121 113.896Z" fill="#16AEE3"/>
<path d="M146.52 113.896C146.293 113.896 146.062 113.845 145.841 113.737C145.075 113.362 144.762 112.437 145.132 111.676L147.758 106.31C148.133 105.544 149.054 105.23 149.819 105.601C150.585 105.976 150.899 106.901 150.529 107.662L147.902 113.028C147.635 113.573 147.085 113.891 146.514 113.891L146.52 113.896Z" fill="#16AEE3"/>
<path d="M152.926 113.896C152.7 113.896 152.468 113.845 152.247 113.737C151.481 113.362 151.168 112.437 151.538 111.676L154.164 106.31C154.54 105.544 155.465 105.23 156.226 105.601C156.991 105.976 157.305 106.901 156.935 107.662L154.308 113.028C154.041 113.573 153.491 113.891 152.921 113.891L152.926 113.896Z" fill="#16AEE3"/>
<path d="M112.104 215.723C113.127 215.723 113.882 215.631 114.956 215.451C114.787 236.17 121.613 236.175 127.2 236.17C133.121 236.17 136.647 236.098 141.232 225.921C145.729 215.929 149.533 196.659 150.021 178.813C157.757 179.559 163.174 170.713 164.269 163.193C165.425 155.242 159.926 141.929 146.279 144.972L112.104 149.598L77.9285 144.972C64.282 141.929 58.7823 155.247 59.9388 163.193C61.0336 170.713 66.4511 179.559 74.1866 178.813C74.6749 196.664 78.4733 215.929 82.9759 225.921C87.5607 236.098 91.0867 236.165 97.0079 236.17C102.595 236.17 109.421 236.17 109.251 215.451C110.325 215.631 111.081 215.723 112.104 215.723Z" fill="#76DAFF"/>
<path d="M112.109 207.201C121.959 207.201 129.944 199.018 129.944 188.924C129.944 178.829 121.959 170.646 112.109 170.646C102.259 170.646 94.2734 178.829 94.2734 188.924C94.2734 199.018 102.259 207.201 112.109 207.201Z" fill="#E0F6FF"/>
<path d="M78.7207 178.983C78.3404 178.983 78.0114 178.7 77.96 178.315C77.9035 177.893 78.2016 177.503 78.6231 177.446C82.4112 176.937 91.4523 175.277 93.5853 170.883C93.7704 170.497 94.233 170.338 94.6133 170.523C94.9988 170.708 95.1582 171.17 94.9731 171.551C92.6036 176.439 83.8452 178.294 78.8287 178.968C78.7927 178.968 78.7567 178.973 78.7259 178.973L78.7207 178.983Z" fill="#16AEE3"/>
<path d="M145.496 178.983C145.46 178.983 145.429 178.983 145.393 178.978C140.382 178.305 131.618 176.444 129.249 171.561C129.064 171.176 129.223 170.718 129.609 170.533C129.994 170.348 130.452 170.507 130.637 170.893C132.77 175.288 141.811 176.948 145.599 177.457C146.02 177.513 146.319 177.904 146.262 178.325C146.211 178.711 145.877 178.993 145.501 178.993L145.496 178.983Z" fill="#16AEE3"/>
<path d="M136.325 159.616C139.877 162.808 140.278 170.625 140.314 173.015C140.319 173.427 140.021 173.761 139.615 173.797C137.235 174.013 129.417 174.455 125.866 171.263C121.646 167.469 121.373 162.515 124.262 159.297C127.151 156.079 132.111 155.828 136.331 159.616H136.325Z" fill="#29BD12"/>
<path d="M113.41 150.821C113.41 150.821 109.617 157.462 115.748 161.451C121.88 165.439 128.115 160.361 128.274 156.928C128.274 156.928 132.715 164.668 139.85 158.629C145.241 153.643 141.628 147.419 140.307 146.931C140.307 146.931 146.547 144.268 142.851 137.756C139.156 131.244 133.234 135.073 132.88 135.736C132.88 135.736 134.509 128.622 126.676 127.44C118.838 126.258 117.578 133.659 117.743 134.754C117.743 134.754 108.064 131.423 106.61 141.739C105.762 147.743 112.037 151.654 113.415 150.827L113.41 150.821Z" fill="#FF8359"/>
<path d="M130.056 146.216C129.1 147.943 127.013 148.359 125.198 147.609C123.384 146.859 122.932 144.52 123.806 142.752C124.782 140.783 126.936 140.403 128.663 141.359C130.39 142.315 131.012 144.489 130.056 146.216Z" fill="white"/>
<path d="M87.537 158.285C87.537 158.285 87.4034 165.933 94.6969 166.478C101.99 167.022 105.018 159.58 103.502 156.486C103.502 156.486 111.119 161.137 114.465 152.415C116.799 145.45 110.636 141.729 109.243 141.94C109.243 141.94 113.432 136.604 107.064 132.667C100.695 128.73 97.3389 134.939 97.3491 135.689C97.3491 135.689 95.36 128.668 87.9174 131.398C80.4748 134.127 82.9317 141.225 83.5999 142.104C83.5999 142.104 73.5154 143.841 77.2007 153.582C79.344 159.256 86.7301 159.667 87.537 158.279V158.285Z" fill="#FFB5FF"/>
<path d="M99.911 146.247C99.9007 148.22 98.2765 149.588 96.3182 149.803C94.3599 150.019 92.8436 148.184 92.7614 146.211C92.6689 144.016 94.3805 142.644 96.3542 142.654C98.3279 142.664 99.9213 144.273 99.911 146.247Z" fill="white"/>
<path d="M100.354 175.802C100.354 175.802 97.5733 182.926 104.224 185.973C110.654 188.919 116.298 183.085 115.954 179.662C115.954 179.662 121.484 186.667 127.652 179.646C132.257 173.92 127.77 168.297 126.388 168.009C126.388 168.009 132.165 164.458 127.56 158.557C122.954 152.657 117.655 157.313 117.398 158.017C117.398 158.017 117.968 150.739 110.043 150.719C102.117 150.698 101.952 158.208 102.276 159.261C102.276 159.261 92.2175 157.39 92.2894 167.804C92.3306 173.869 99.1153 176.819 100.354 175.796V175.802Z" fill="#FFD859"/>
<path d="M116.14 168.806C115.446 170.652 113.447 171.371 111.54 170.893C109.633 170.415 108.841 168.169 109.453 166.293C110.132 164.201 112.208 163.512 114.053 164.206C115.899 164.9 116.834 166.961 116.14 168.806Z" fill="white"/>
<g opacity="0.7">
<path d="M35.6678 114.559C34.9585 114.559 34.3828 113.983 34.3828 113.274V108.756C34.3828 108.046 34.9585 107.471 35.6678 107.471C36.3771 107.471 36.9528 108.046 36.9528 108.756V113.274C36.9528 113.983 36.3771 114.559 35.6678 114.559Z" fill="#3CBFED"/>
<path d="M35.6678 127.157C34.9585 127.157 34.3828 126.581 34.3828 125.872V121.354C34.3828 120.645 34.9585 120.069 35.6678 120.069C36.3771 120.069 36.9528 120.645 36.9528 121.354V125.872C36.9528 126.581 36.3771 127.157 35.6678 127.157Z" fill="#3CBFED"/>
<path d="M42.4401 118.604H39.8084C39.0991 118.604 38.5234 118.028 38.5234 117.319C38.5234 116.609 39.0991 116.034 39.8084 116.034H42.4401C43.1494 116.034 43.725 116.609 43.725 117.319C43.725 118.028 43.1494 118.604 42.4401 118.604Z" fill="#3CBFED"/>
<path d="M31.5338 118.604H28.9022C28.1929 118.604 27.6172 118.028 27.6172 117.319C27.6172 116.609 28.1929 116.034 28.9022 116.034H31.5338C32.2431 116.034 32.8188 116.609 32.8188 117.319C32.8188 118.028 32.2431 118.604 31.5338 118.604Z" fill="#3CBFED"/>
</g>
<g opacity="0.7">
<path d="M174.582 172.841C173.873 172.841 173.297 172.266 173.297 171.556V167.285C173.297 166.576 173.873 166 174.582 166C175.291 166 175.867 166.576 175.867 167.285V171.556C175.867 172.266 175.291 172.841 174.582 172.841Z" fill="#3CBFED"/>
<path d="M174.582 183.383C173.873 183.383 173.297 182.808 173.297 182.098V177.827C173.297 177.118 173.873 176.542 174.582 176.542C175.291 176.542 175.867 177.118 175.867 177.827V182.098C175.867 182.808 175.291 183.383 174.582 183.383Z" fill="#3CBFED"/>
<path d="M180.87 175.977H177.832C177.123 175.977 176.547 175.401 176.547 174.692C176.547 173.982 177.123 173.407 177.832 173.407H180.87C181.579 173.407 182.155 173.982 182.155 174.692C182.155 175.401 181.579 175.977 180.87 175.977Z" fill="#3CBFED"/>
<path d="M171.323 175.977H168.285C167.576 175.977 167 175.401 167 174.692C167 173.982 167.576 173.407 168.285 173.407H171.323C172.032 173.407 172.608 173.982 172.608 174.692C172.608 175.401 172.032 175.977 171.323 175.977Z" fill="#3CBFED"/>
</g>
</g>
<defs>
<clipPath id="clip0_58_2">
<rect width="173.935" height="205.17" fill="white" transform="translate(15 31)"/>
</clipPath>
</defs>
</svg>
