<svg width="266" height="183" viewBox="0 0 266 183" fill="none" xmlns="http://www.w3.org/2000/svg">
<g clip-path="url(#clip0_905_12506)">
<path d="M117.493 162.779H96.8164V171.373H117.493V162.779Z" fill="#FF8C22"/>
<path d="M3.93831 178.451C11.8149 178.451 19.6915 178.451 27.4041 178.451C46.2751 178.451 65.1462 178.451 83.8532 178.451C106.663 178.451 129.472 178.451 152.281 178.451C171.973 178.451 191.664 178.451 211.356 178.451C220.874 178.451 230.555 178.788 240.073 178.451C240.237 178.451 240.401 178.451 240.565 178.451C245.816 178.451 245.816 170.026 240.565 170.026C232.688 170.026 224.812 170.026 217.099 170.026C198.228 170.026 179.357 170.026 160.65 170.026C137.841 170.026 115.031 170.026 92.2221 170.026C72.5305 170.026 52.839 170.026 33.1474 170.026C23.6299 170.026 13.9482 169.689 4.4306 170.026C4.2665 170.026 4.10241 170.026 3.93831 170.026C-1.31277 170.026 -1.31277 178.451 3.93831 178.451Z" fill="#8D6223"/>
<path d="M200.198 27.9727C162.291 40.1053 149.984 62.3483 149.984 62.3483C149.984 62.3483 146.538 61.5058 139.482 61.5058C132.426 61.5058 128.98 62.3483 128.98 62.3483C128.98 62.3483 117.165 40.1053 79.2587 27.9727C66.2951 43.8124 60.3876 81.5583 64.3259 102.453C74.664 156.882 119.955 176.091 139.81 176.091C159.666 176.091 204.956 157.05 215.294 102.453C219.069 81.5583 213.161 43.8124 200.198 27.9727Z" fill="#FF8C22"/>
<mask id="mask0_905_12506" style="mask-type:luminance" maskUnits="userSpaceOnUse" x="63" y="27" width="154" height="150">
<path d="M200.198 27.9727C162.291 40.1053 149.984 62.3483 149.984 62.3483C149.984 62.3483 146.538 61.5058 139.482 61.5058C132.426 61.5058 128.98 62.3483 128.98 62.3483C128.98 62.3483 117.165 40.1053 79.2587 27.9727C66.2951 43.8124 60.3876 81.5583 64.3259 102.453C74.664 156.882 119.955 176.091 139.81 176.091C159.666 176.091 204.956 157.05 215.294 102.453C219.069 81.5583 213.161 43.8124 200.198 27.9727Z" fill="white"/>
</mask>
<g mask="url(#mask0_905_12506)">
<path d="M204.136 133.796C186.413 166.655 155.235 176.091 139.81 176.091C124.221 176.091 93.2068 166.655 75.4844 133.796C91.5658 119.978 118.642 111.216 139.646 125.707H139.974C160.979 111.216 188.054 119.978 204.136 133.796Z" fill="#FFC581"/>
</g>
<path d="M91.2362 175.923C91.4003 176.091 91.4003 176.091 91.5644 176.091C91.5644 176.091 91.5644 176.091 91.7285 176.091C98.2923 178.619 107.974 169.014 114.702 155.365C123.071 138.514 124.055 132.448 122.414 129.752C122.25 129.414 120.117 127.729 117.163 126.044C116.835 125.876 116.507 125.707 116.015 125.37C113.061 123.854 110.435 123.18 110.107 123.18C106.825 123.348 102.723 127.561 94.1899 144.58C87.2979 158.229 85.3287 171.879 91.2362 175.923Z" fill="#FF8C22"/>
<path d="M200.36 162.442C200.524 162.611 200.524 162.611 200.36 162.442C200.36 162.611 200.36 162.779 200.524 162.779C200.524 162.779 200.524 162.779 200.524 162.948C201.181 170.025 189.694 177.103 174.925 180.304C156.711 184.18 150.803 183.506 148.67 181.147C148.506 180.978 147.357 178.451 146.701 175.081C146.701 174.744 146.537 174.238 146.373 173.733C145.716 170.362 145.716 167.666 145.88 167.329C146.865 164.128 151.952 161.263 170.166 157.219C184.935 154.017 198.227 155.702 200.36 162.442Z" fill="#FF8C22"/>
<path d="M150.281 141.452C150.394 137.638 149.677 134.522 148.681 134.491C147.685 134.46 146.785 137.526 146.673 141.34C146.56 145.153 147.276 148.27 148.273 148.301C149.269 148.332 150.168 145.266 150.281 141.452Z" fill="#D3ECF4"/>
<path d="M114.869 113.406C118.971 113.406 122.253 111.72 122.253 109.698C122.253 107.676 118.971 105.991 114.869 105.991C110.766 105.991 107.484 107.676 107.484 109.698C107.484 111.72 110.766 113.406 114.869 113.406Z" fill="#282828"/>
<path d="M164.591 113.406C168.694 113.406 171.976 111.72 171.976 109.698C171.976 107.676 168.694 105.991 164.591 105.991C160.489 105.991 157.207 107.676 157.207 109.698C157.207 111.72 160.489 113.406 164.591 113.406Z" fill="#282828"/>
<path d="M139.646 111.216C144.405 111.216 149.656 112.901 148.179 116.945C146.702 121.158 141.779 124.865 139.646 124.865C137.513 124.865 132.426 120.989 131.113 116.945C129.636 112.901 134.887 111.216 139.646 111.216Z" fill="#282828"/>
<path d="M147.849 133.627L141.777 129.414V122.506C141.777 121.158 140.793 120.146 139.48 120.146C138.167 120.146 137.183 121.158 137.183 122.506V129.414L131.275 133.627C130.291 134.301 129.962 135.818 130.619 136.997C131.111 137.671 131.768 138.008 132.588 138.008C133.08 138.008 133.408 137.84 133.901 137.671L139.644 133.627L145.387 137.671C145.716 138.008 146.208 138.008 146.7 138.008C147.521 138.008 148.177 137.671 148.669 136.997C149.326 135.818 148.998 134.301 147.849 133.627Z" fill="#282828"/>
<path d="M45.289 171.373H21.0027C13.6184 171.373 7.71094 165.307 7.71094 157.724V95.0388C7.71094 87.456 13.6184 81.3896 21.0027 81.3896H45.289C52.6733 81.3896 58.5808 87.456 58.5808 95.0388V157.892C58.5808 165.307 52.6733 171.373 45.289 171.373Z" fill="#2FD714"/>
<path d="M42.0076 48.3623H24.2852V96.7242H42.0076V48.3623Z" fill="#2FD714"/>
<path d="M43.981 33.7021H22.4844V50.216H43.981V33.7021Z" fill="#2FD714"/>
<path d="M263.046 13.818C244.503 9.77383 225.96 5.72963 207.417 1.85394C204.791 1.34842 202.166 0.674386 199.54 0.168861C197.407 -0.336664 194.946 0.842894 194.453 3.0335C191.664 16.5142 189.038 29.8263 186.249 43.307C185.92 45.1606 185.428 47.1827 185.1 49.0363C184.772 50.7213 185.264 52.9119 186.905 53.7545C200.525 60.3263 214.145 66.8981 227.765 73.3015C229.734 74.3125 231.703 75.155 233.672 76.1661C235.477 77.0086 238.431 76.8401 239.252 74.6495C243.518 64.3705 247.785 54.26 251.887 43.981C252.543 42.2959 252.708 40.1053 251.231 38.9258C243.518 32.3539 235.806 25.6136 228.257 19.0418C226.944 17.8622 224.811 17.1882 223.334 18.3678C218.083 22.2434 212.832 26.1191 207.581 29.9948C205.612 31.5114 204.627 34.5446 206.761 36.5667C212.012 41.4534 217.263 46.3401 222.514 51.2269C226.452 54.9341 232.196 48.8678 228.257 45.3291C223.006 40.4423 217.755 35.5556 212.504 30.6689C212.176 32.8595 212.012 35.0501 211.683 37.2407C216.935 33.365 222.186 29.4893 227.437 25.6136C225.796 25.4451 224.155 25.1081 222.514 24.9396C230.226 31.5114 237.939 38.2517 245.487 44.8236C245.323 43.1385 244.995 41.4534 244.831 39.7683C240.564 50.0473 236.298 60.1578 232.196 70.4368C234.001 69.9313 235.97 69.4258 237.775 68.9202C224.155 62.3484 210.535 55.7766 196.915 49.3733C194.946 48.3622 192.977 47.5197 191.007 46.5086C191.664 48.0252 192.32 49.7103 192.812 51.2269C195.602 37.7462 198.228 24.4341 201.017 10.9534C201.345 9.0998 201.838 7.0777 202.166 5.22411C200.525 6.23516 198.72 7.24621 197.079 8.08875C215.622 12.1329 234.165 16.1771 252.708 20.0528C255.333 20.5584 257.959 21.2324 260.584 21.7379C262.717 22.2434 265.015 21.0639 265.671 18.8733C266.492 16.8512 265.179 14.3236 263.046 13.818Z" fill="#8D6223"/>
</g>
<defs>
<clipPath id="clip0_905_12506">
<rect width="266" height="183" fill="white"/>
</clipPath>
</defs>
</svg>
