<svg width="24" height="24" viewBox="0 0 24 24" fill="none" xmlns="http://www.w3.org/2000/svg">
<g id="_&#235;&#160;&#136;&#236;&#157;&#180;&#236;&#150;&#180;_1" clip-path="url(#clip0_905_7033)">
<path id="Vector" d="M11.9981 0C8.10303 0 5.05078 5.27081 5.05078 12C5.05078 18.7292 8.10303 24 11.9981 24C15.8933 24 18.9455 18.7292 18.9455 12C18.9455 5.27081 15.8933 0 11.9981 0ZM11.9981 22.5072C9.04121 22.5072 6.5436 17.6957 6.5436 12C6.5436 6.30431 9.04121 1.49282 11.9981 1.49282C14.9551 1.49282 17.4527 6.30431 17.4527 12C17.4527 17.6957 14.9551 22.5072 11.9981 22.5072Z" fill="#2FD714"/>
<path id="Vector_2" d="M12 0C5.38335 0 0 5.38335 0 12C0 18.6167 5.38335 24 12 24C18.6166 24 24 18.6167 24 12C24 5.38335 18.6166 0 12 0ZM12 22.5072C6.2067 22.5072 1.49282 17.7933 1.49282 12C1.49282 6.2067 6.2067 1.49282 12 1.49282C17.7933 1.49282 22.5072 6.2067 22.5072 12C22.5072 17.7933 17.7933 22.5072 12 22.5072Z" fill="#2FD714"/>
<path id="Vector_3" d="M23.2533 12.7461H0.746094V11.2533H23.2533V12.7461Z" fill="#2FD714"/>
<path id="Vector_4" d="M12.7467 23.2539H11.2539V0.746729H12.7467V23.2539Z" fill="#2FD714"/>
<path id="Vector_5" d="M21.929 7.00781H2.06641V5.51499H21.929V7.00781Z" fill="#2FD714"/>
<path id="Vector_6" d="M21.929 18.4844H2.06641V16.9916H21.929V18.4844Z" fill="#2FD714"/>
</g>
<defs>
<clipPath id="clip0_905_7033">
<rect width="24" height="24" fill="white" transform="matrix(1 0 0 -1 0 24)"/>
</clipPath>
</defs>
</svg>
