<svg width="14" height="14" viewBox="0 0 14 14" fill="none" xmlns="http://www.w3.org/2000/svg">
<path fill-rule="evenodd" clip-rule="evenodd" d="M7.41133 9.16319C7.30194 9.27254 7.1536 9.33398 6.99892 9.33398C6.84424 9.33398 6.69589 9.27254 6.5865 9.16319L3.28658 5.86327C3.23087 5.80946 3.18643 5.74509 3.15586 5.67392C3.12529 5.60275 3.1092 5.52621 3.10852 5.44875C3.10785 5.3713 3.12261 5.29449 3.15194 5.2228C3.18127 5.15111 3.22458 5.08598 3.27936 5.03121C3.33413 4.97643 3.39926 4.93312 3.47094 4.90379C3.54263 4.87446 3.61945 4.8597 3.6969 4.86037C3.77436 4.86105 3.8509 4.87714 3.92207 4.90771C3.99324 4.93828 4.05761 4.98272 4.11142 5.03844L6.99892 7.92594L9.88642 5.03844C9.99644 4.93218 10.1438 4.87338 10.2967 4.87471C10.4497 4.87604 10.596 4.93739 10.7041 5.04554C10.8123 5.1537 10.8736 5.3 10.875 5.45295C10.8763 5.6059 10.8175 5.75325 10.7113 5.86327L7.41133 9.16319Z" fill="#121212"/>
</svg>
