<svg width="131" height="80" viewBox="0 0 131 80" fill="none" xmlns="http://www.w3.org/2000/svg">
<g clip-path="url(#clip0_905_8646)">
<path d="M13.1755 69.0348C13.5501 69.0348 13.8556 69.3413 13.8556 69.723V73.4998H20.5356C20.9102 73.4998 21.2157 73.8063 21.2157 74.1881V78.0169C21.2157 78.3986 20.9102 78.7051 20.5356 78.7051H0.6801C0.305469 78.7051 0 78.3986 0 78.0169V74.1881C0 73.8121 0.305469 73.4998 0.6801 73.4998H7.69436V69.723C7.69436 69.3471 7.99982 69.0348 8.37446 69.0348H13.1755ZM0.927934 58.7109V55.9636C0.927934 49.8734 4.31691 47.1204 10.7779 47.1204C17.2388 47.1204 20.6278 49.8676 20.6278 55.9636V58.7109C20.6278 64.8011 17.2388 67.5542 10.7779 67.5542C4.31691 67.5542 0.927934 64.8011 0.927934 58.7109ZM6.19583 58.5258C6.19583 61.0186 7.39465 62.2389 10.7779 62.2389C14.1611 62.2389 15.3945 61.0128 15.3945 58.5258V56.114C15.3945 53.6212 14.1957 52.4009 10.7779 52.4009C7.36007 52.4009 6.19583 53.627 6.19583 56.114V58.5258ZM31.4518 60.1163C31.8264 60.1163 32.1319 60.4229 32.1319 60.8046V65.8942C32.1319 66.2702 31.8264 66.5825 31.4518 66.5825H28.4951V79.324C28.4951 79.6999 28.1896 80.0064 27.815 80.0064H23.7171C23.3424 80.0064 23.037 79.6999 23.037 79.324V47.4558C23.037 47.0799 23.3424 46.7676 23.7171 46.7676H27.815C28.1896 46.7676 28.4951 47.0741 28.4951 47.4558V60.1221H31.4518V60.1163Z" fill="#2F332E"/>
<path d="M79.4216 69.0348C79.7962 69.0348 80.1017 69.3413 80.1017 69.723V73.4998H86.7817C87.1563 73.4998 87.4618 73.8063 87.4618 74.1881V78.0169C87.4618 78.3986 87.1563 78.7051 86.7817 78.7051H66.9262C66.5516 78.7051 66.2461 78.3986 66.2461 78.0169V74.1881C66.2461 73.8121 66.5516 73.4998 66.9262 73.4998H73.9404V69.723C73.9404 69.3471 74.2459 69.0348 74.6205 69.0348H79.4216ZM67.1683 58.7109V55.9636C67.1683 49.8734 70.5572 47.1204 77.0182 47.1204C83.4791 47.1204 86.8681 49.8676 86.8681 55.9636V58.7109C86.8681 64.8011 83.4791 67.5542 77.0182 67.5542C70.5572 67.5542 67.1683 64.8011 67.1683 58.7109ZM72.4362 58.5258C72.4362 61.0186 73.635 62.2389 77.0182 62.2389C80.4014 62.2389 81.6348 61.0128 81.6348 58.5258V56.114C81.6348 53.6212 80.436 52.4009 77.0182 52.4009C73.6004 52.4009 72.4362 53.627 72.4362 56.114V58.5258ZM97.6921 60.1163C98.0667 60.1163 98.3722 60.4229 98.3722 60.8046V65.8942C98.3722 66.2702 98.0667 66.5825 97.6921 66.5825H94.7354V79.324C94.7354 79.6999 94.4299 80.0064 94.0553 80.0064H89.9574C89.5828 80.0064 89.2773 79.6999 89.2773 79.324V47.4558C89.2773 47.0799 89.5828 46.7676 89.9574 46.7676H94.0553C94.4299 46.7676 94.7354 47.0741 94.7354 47.4558V60.1221H97.6921V60.1163Z" fill="#2F332E"/>
<path d="M33.457 59.0118C33.457 58.6301 33.7625 58.3236 34.1371 58.3236H64.2345C64.6091 58.3236 64.9146 58.6301 64.9146 59.0118V62.1292C64.9146 62.5109 64.6091 62.8175 64.2345 62.8175H34.1371C33.7625 62.8175 33.457 62.5109 33.457 62.1292V59.0118ZM41.8084 74.2518L41.8315 75.8366H62.1135C62.4881 75.8366 62.7936 76.1431 62.7936 76.5248V79.3183C62.7936 79.7001 62.4881 80.0066 62.1135 80.0066H36.7711C36.4022 80.0066 36.0967 79.7059 36.091 79.3299L35.9527 70.8568C35.9469 70.4751 36.2524 70.157 36.6328 70.157H57.0012L57.03 68.6474H36.6212C36.2466 68.6474 35.9411 68.3409 35.9411 67.9592V65.1657C35.9411 64.7839 36.2466 64.4774 36.6212 64.4774H60.857C61.8022 64.4774 62.5688 65.2582 62.5573 66.2125L62.4708 73.5751C62.4708 73.9511 62.1653 74.2518 61.7907 74.2518H41.8084ZM56.6669 57.1032L56.9608 51.7533H36.944C36.5694 51.7533 36.2639 51.4468 36.2639 51.065V47.6179C36.2639 47.2362 36.5694 46.9297 36.944 46.9297H59.9175C61.2605 46.9297 62.3325 48.15 62.2691 49.6075L61.9809 56.4496C61.9636 56.8198 61.6639 57.109 61.3008 57.109H56.6554L56.6669 57.1032Z" fill="#2F332E"/>
<path d="M99.7031 59.0118C99.7031 58.6301 100.009 58.3236 100.377 58.3236H130.319C130.694 58.3236 130.994 58.6301 130.994 59.0118V62.1292C130.994 62.5109 130.688 62.8175 130.319 62.8175H100.377C100.003 62.8175 99.7031 62.5109 99.7031 62.1292V59.0118ZM108.014 74.2518L108.037 75.8366H128.21C128.584 75.8366 128.884 76.1431 128.884 76.5248V79.3183C128.884 79.7001 128.579 80.0066 128.21 80.0066H103C102.631 80.0066 102.331 79.7059 102.326 79.3299L102.187 70.8568C102.181 70.4751 102.487 70.157 102.862 70.157H123.12L123.149 68.6474H102.85C102.475 68.6474 102.176 68.3409 102.176 67.9592V65.1657C102.176 64.7839 102.481 64.4774 102.85 64.4774H126.959C127.898 64.4774 128.659 65.2582 128.648 66.2125L128.561 73.5751C128.561 73.9511 128.256 74.2518 127.887 74.2518H108.008H108.014ZM122.792 57.1032L123.086 51.7533H103.179C102.804 51.7533 102.504 51.4468 102.504 51.065V47.6179C102.504 47.2362 102.81 46.9297 103.179 46.9297H126.031C127.368 46.9297 128.434 48.15 128.371 49.6075L128.083 56.4496C128.066 56.8198 127.772 57.109 127.409 57.109H122.786L122.792 57.1032Z" fill="#2F332E"/>
<path d="M52.0323 0C40.1997 0 37.0701 11.4054 40.096 16.7901C41.6291 19.5142 42.5628 21.203 43.3351 22.2383L50.943 34.945C51.1332 35.2574 51.4733 35.454 51.8364 35.454H59.0927C59.9054 35.454 60.4068 34.5633 59.9861 33.8693L53.6692 23.3198C59.427 22.6374 63.8303 18.3863 63.3923 11.7178C62.8736 3.83459 57.6749 0.00578369 52.0323 0.00578369V0Z" fill="#2FD714"/>
<path d="M91.9509 11.712C91.4322 3.8288 86.2335 0 80.5909 0C68.7583 0 65.6287 11.4054 68.6546 16.7901C70.1877 19.5142 71.1214 21.203 71.8937 22.2383L79.5016 34.945C79.6918 35.2574 80.0319 35.454 80.395 35.454H87.6513C88.464 35.454 88.9654 34.5633 88.5446 33.8693L82.2278 23.3198C87.9856 22.6374 92.3889 18.3863 91.9509 11.7178V11.712Z" fill="#2FD714"/>
</g>
<defs>
<clipPath id="clip0_905_8646">
<rect width="131" height="80" fill="white"/>
</clipPath>
</defs>
</svg>
