<svg width="20" height="21" viewBox="0 0 20 21" fill="none" xmlns="http://www.w3.org/2000/svg">
<g id="solar:eye-outline">
<g id="Group">
<path id="Vector" fill-rule="evenodd" clip-rule="evenodd" d="M10 7.375C9.1712 7.375 8.37634 7.70424 7.79029 8.29029C7.20424 8.87634 6.875 9.6712 6.875 10.5C6.875 11.3288 7.20424 12.1237 7.79029 12.7097C8.37634 13.2958 9.1712 13.625 10 13.625C10.8288 13.625 11.6237 13.2958 12.2097 12.7097C12.7958 12.1237 13.125 11.3288 13.125 10.5C13.125 9.6712 12.7958 8.87634 12.2097 8.29029C11.6237 7.70424 10.8288 7.375 10 7.375ZM8.125 10.5C8.125 10.0027 8.32254 9.52581 8.67417 9.17417C9.02581 8.82254 9.50272 8.625 10 8.625C10.4973 8.625 10.9742 8.82254 11.3258 9.17417C11.6775 9.52581 11.875 10.0027 11.875 10.5C11.875 10.9973 11.6775 11.4742 11.3258 11.8258C10.9742 12.1775 10.4973 12.375 10 12.375C9.50272 12.375 9.02581 12.1775 8.67417 11.8258C8.32254 11.4742 8.125 10.9973 8.125 10.5Z" fill="#D9D9D9"/>
<path id="Vector_2" fill-rule="evenodd" clip-rule="evenodd" d="M10.0013 3.20703C6.23964 3.20703 3.70547 5.46036 2.23464 7.3712L2.2088 7.40536C1.87547 7.83786 1.56964 8.23536 1.36214 8.70536C1.13964 9.20953 1.04297 9.7587 1.04297 10.4987C1.04297 11.2387 1.13964 11.7879 1.36214 12.292C1.57047 12.762 1.8763 13.1604 2.2088 13.592L2.23547 13.6262C3.70547 15.537 6.23964 17.7904 10.0013 17.7904C13.763 17.7904 16.2971 15.537 17.768 13.6262L17.7938 13.592C18.1271 13.1604 18.433 12.762 18.6405 12.292C18.863 11.7879 18.9596 11.2387 18.9596 10.4987C18.9596 9.7587 18.863 9.20953 18.6405 8.70536C18.4321 8.23536 18.1263 7.83786 17.7938 7.40536L17.7671 7.3712C16.2971 5.46036 13.763 3.20703 10.0013 3.20703ZM3.2263 8.1337C4.58297 6.36953 6.79297 4.45703 10.0013 4.45703C13.2096 4.45703 15.4188 6.36953 16.7763 8.1337C17.143 8.6087 17.3563 8.89203 17.4971 9.21036C17.6288 9.5087 17.7096 9.87286 17.7096 10.4987C17.7096 11.1245 17.6288 11.4887 17.4971 11.787C17.3563 12.1054 17.1421 12.3887 16.7771 12.8637C15.418 14.6279 13.2096 16.5404 10.0013 16.5404C6.79297 16.5404 4.5838 14.6279 3.2263 12.8637C2.85964 12.3887 2.6463 12.1054 2.50547 11.787C2.3738 11.4887 2.29297 11.1245 2.29297 10.4987C2.29297 9.87286 2.3738 9.5087 2.50547 9.21036C2.6463 8.89203 2.8613 8.6087 3.2263 8.1337Z" fill="#D9D9D9"/>
</g>
</g>
</svg>
