<svg width="15" height="14" viewBox="0 0 15 14" fill="none" xmlns="http://www.w3.org/2000/svg">
<g id="solar:eye-linear">
<g id="Group">
<path id="Vector" d="M2.41172 8.92234C1.91589 8.27834 1.66797 7.95576 1.66797 6.99967C1.66797 6.04301 1.91589 5.72159 2.41172 5.07701C3.40164 3.79134 5.0618 2.33301 7.5013 2.33301C9.9408 2.33301 11.601 3.79134 12.5909 5.07701C13.0867 5.72217 13.3346 6.04359 13.3346 6.99967C13.3346 7.95634 13.0867 8.27776 12.5909 8.92234C11.601 10.208 9.9408 11.6663 7.5013 11.6663C5.0618 11.6663 3.40164 10.208 2.41172 8.92234Z" stroke="#606163" stroke-width="1.125"/>
<path id="Vector_2" d="M9.25 7C9.25 7.46413 9.06563 7.90925 8.73744 8.23744C8.40925 8.56563 7.96413 8.75 7.5 8.75C7.03587 8.75 6.59075 8.56563 6.26256 8.23744C5.93437 7.90925 5.75 7.46413 5.75 7C5.75 6.53587 5.93437 6.09075 6.26256 5.76256C6.59075 5.43437 7.03587 5.25 7.5 5.25C7.96413 5.25 8.40925 5.43437 8.73744 5.76256C9.06563 6.09075 9.25 6.53587 9.25 7Z" stroke="#606163" stroke-width="1.125"/>
</g>
</g>
</svg>
