<svg width="20" height="20" viewBox="0 0 20 20" fill="none" xmlns="http://www.w3.org/2000/svg">
<path fill-rule="evenodd" clip-rule="evenodd" d="M10 7C9.1712 7 8.37634 7.31606 7.79029 7.87864C7.20424 8.44122 6.875 9.20425 6.875 9.99986C6.875 10.7955 7.20424 11.5585 7.79029 12.1211C8.37634 12.6837 9.1712 12.9997 10 12.9997C10.8288 12.9997 11.6237 12.6837 12.2097 12.1211C12.7958 11.5585 13.125 10.7955 13.125 9.99986C13.125 9.20425 12.7958 8.44122 12.2097 7.87864C11.6237 7.31606 10.8288 7 10 7ZM8.125 9.99986C8.125 9.52249 8.32254 9.06468 8.67417 8.72713C9.02581 8.38958 9.50272 8.19994 10 8.19994C10.4973 8.19994 10.9742 8.38958 11.3258 8.72713C11.6775 9.06468 11.875 9.52249 11.875 9.99986C11.875 10.4772 11.6775 10.935 11.3258 11.2726C10.9742 11.6101 10.4973 11.7998 10 11.7998C9.50272 11.7998 9.02581 11.6101 8.67417 11.2726C8.32254 10.935 8.125 10.4772 8.125 9.99986Z" fill="#D9D9D9"/>
<path fill-rule="evenodd" clip-rule="evenodd" d="M10.0013 3C6.23964 3 3.70547 5.1631 2.23464 6.99741L2.2088 7.03021C1.87547 7.44539 1.56964 7.82697 1.36214 8.27815C1.13964 8.76213 1.04297 9.28931 1.04297 9.99967C1.04297 10.71 1.13964 11.2372 1.36214 11.7212C1.57047 12.1724 1.8763 12.5548 2.2088 12.9691L2.23547 13.0019C3.70547 14.8362 6.23964 16.9993 10.0013 16.9993C13.763 16.9993 16.2971 14.8362 17.768 13.0019L17.7938 12.9691C18.1271 12.5548 18.433 12.1724 18.6405 11.7212C18.863 11.2372 18.9596 10.71 18.9596 9.99967C18.9596 9.28931 18.863 8.76213 18.6405 8.27815C18.4321 7.82697 18.1263 7.44539 17.7938 7.03021L17.7671 6.99741C16.2971 5.1631 13.763 3 10.0013 3ZM3.2263 7.72938C4.58297 6.03586 6.79297 4.19994 10.0013 4.19994C13.2096 4.19994 15.4188 6.03586 16.7763 7.72938C17.143 8.18536 17.3563 8.45735 17.4971 8.76293C17.6288 9.04932 17.7096 9.3989 17.7096 9.99967C17.7096 10.6004 17.6288 10.95 17.4971 11.2364C17.3563 11.542 17.1421 11.814 16.7771 12.27C15.418 13.9635 13.2096 15.7994 10.0013 15.7994C6.79297 15.7994 4.5838 13.9635 3.2263 12.27C2.85964 11.814 2.6463 11.542 2.50547 11.2364C2.3738 10.95 2.29297 10.6004 2.29297 9.99967C2.29297 9.3989 2.3738 9.04932 2.50547 8.76293C2.6463 8.45735 2.8613 8.18536 3.2263 7.72938Z" fill="#D9D9D9"/>
</svg>
