<svg width="20" height="20" viewBox="0 0 20 20" fill="none" xmlns="http://www.w3.org/2000/svg">
<path fill-rule="evenodd" clip-rule="evenodd" d="M18 17L18 3C18 2.73478 17.8946 2.48043 17.7071 2.29289C17.5196 2.10536 17.2652 2 17 2L3 2C2.73478 2 2.48043 2.10536 2.29289 2.29289C2.10536 2.48043 2 2.73478 2 3L2 17C2 17.2652 2.10536 17.5196 2.29289 17.7071C2.48043 17.8946 2.73478 18 3 18L17 18C17.2652 18 17.5196 17.8946 17.7071 17.7071C17.8946 17.5196 18 17.2652 18 17ZM20 3C20 2.20435 19.6839 1.44129 19.1213 0.87868C18.5587 0.316071 17.7956 -9.63552e-08 17 -1.31134e-07L3 -7.43094e-07C2.20435 -7.77873e-07 1.44129 0.31607 0.878679 0.878679C0.31607 1.44129 -9.63552e-08 2.20435 -1.31134e-07 3L-7.43094e-07 17C-7.77873e-07 17.7956 0.31607 18.5587 0.878678 19.1213C1.44129 19.6839 2.20435 20 3 20L17 20C17.7956 20 18.5587 19.6839 19.1213 19.1213C19.6839 18.5587 20 17.7956 20 17L20 3Z" fill="#6B6B6B"/>
<path d="M15 9L15 11L5 11L5 9L15 9ZM9 13L9 15L5 15L5 13L9 13ZM12 5L12 7L5 7L5 5L12 5Z" fill="#6B6B6B"/>
</svg>
