<svg width="20" height="20" viewBox="0 0 20 20" fill="none" xmlns="http://www.w3.org/2000/svg">
<path d="M9.16797 12.5003H10.8346V14.167H9.16797V12.5003ZM9.16797 5.83366H10.8346V10.8337H9.16797V5.83366ZM10.0013 1.66699C5.39297 1.66699 1.66797 5.41699 1.66797 10.0003C1.66797 12.2105 2.54594 14.3301 4.10875 15.8929C4.88257 16.6667 5.80123 17.2805 6.81227 17.6993C7.82332 18.1181 8.90695 18.3337 10.0013 18.3337C12.2114 18.3337 14.3311 17.4557 15.8939 15.8929C17.4567 14.3301 18.3346 12.2105 18.3346 10.0003C18.3346 8.90598 18.1191 7.82234 17.7003 6.8113C17.2815 5.80025 16.6677 4.88159 15.8939 4.10777C15.12 3.33395 14.2014 2.72012 13.1903 2.30133C12.1793 1.88254 11.0957 1.66699 10.0013 1.66699ZM10.0013 16.667C8.23319 16.667 6.5375 15.9646 5.28726 14.7144C4.03701 13.4641 3.33464 11.7684 3.33464 10.0003C3.33464 8.23222 4.03701 6.53652 5.28726 5.28628C6.5375 4.03604 8.23319 3.33366 10.0013 3.33366C11.7694 3.33366 13.4651 4.03604 14.7153 5.28628C15.9656 6.53652 16.668 8.23222 16.668 10.0003C16.668 11.7684 15.9656 13.4641 14.7153 14.7144C13.4651 15.9646 11.7694 16.667 10.0013 16.667Z" fill="#444444" fill-opacity="0.6"/>
</svg>
