<svg width="142" height="106" viewBox="0 0 142 106" fill="none" xmlns="http://www.w3.org/2000/svg">
<path d="M36.1458 76.3752C41.5349 76.3752 45.8461 71.8906 45.8461 66.4547C45.8461 60.9509 41.4675 56.5342 36.1458 56.5342C30.7566 56.5342 26.4453 61.0188 26.4453 66.4547C26.4453 71.9585 30.824 76.3752 36.1458 76.3752Z" fill="white" fill-opacity="0.6"/>
<path d="M106.064 76.3752C111.453 76.3752 115.764 71.8906 115.764 66.4547C115.764 60.9509 111.385 56.5342 106.064 56.5342C100.675 56.5342 96.3633 61.0188 96.3633 66.4547C96.3633 71.9585 100.742 76.3752 106.064 76.3752Z" fill="white" fill-opacity="0.6"/>
<path d="M121.157 6.65897C112.13 -0.339752 103.844 0.883331 97.7139 6.93077C87.8114 1.29102 82.557 0 71.0378 0C59.5185 0 54.3315 1.22308 44.3616 6.93077C38.2315 0.747434 29.9457 -0.4077 20.9189 6.65897C1.31594 21.9474 -5.01628 54.9705 4.07787 61.3577C8.11971 64.2115 11.488 61.4936 13.6436 59.5231C14.1152 59.0474 14.5193 58.6397 14.9909 58.232C12.229 93.2936 46.8541 106 70.9704 106C95.0867 106 129.712 93.3615 126.95 58.232C127.421 58.7077 127.826 59.1154 128.297 59.5231C130.453 61.4936 133.821 64.2115 137.863 61.3577C147.024 54.9705 140.76 21.9474 121.157 6.65897Z" fill="#FFE100"/>
<path d="M71.1055 53.4082C74.6085 53.4082 78.6503 54.6313 77.5051 57.621C76.4273 60.6787 72.7223 63.3967 71.1055 63.3967C69.4888 63.3967 65.7164 60.4749 64.7059 57.621C63.5608 54.6313 67.6026 53.4082 71.1055 53.4082Z" fill="#282828"/>
<path d="M50.224 57.4166C53.3227 57.4166 55.8152 55.0384 55.8152 52.0486C55.8152 49.0589 53.3227 46.6807 50.224 46.6807C47.1252 46.6807 44.6328 49.0589 44.6328 52.0486C44.7002 55.0384 47.1926 57.4166 50.224 57.4166Z" fill="#282828"/>
<path d="M91.9896 57.4166C95.0884 57.4166 97.5809 55.0384 97.5809 52.0486C97.5809 49.0589 95.0884 46.6807 91.9896 46.6807C88.8909 46.6807 86.3984 49.0589 86.3984 52.0486C86.3984 55.0384 88.8909 57.4166 91.9896 57.4166Z" fill="#282828"/>
<path d="M63.1531 76.8514C66.9928 72.7745 75.2112 72.7745 79.051 76.8514C80.533 78.4143 82.9581 76.036 81.4087 74.4732C76.289 69.1053 65.8477 69.1053 60.728 74.4732C59.246 76.036 61.6037 78.4143 63.1531 76.8514Z" fill="#282828"/>
<path d="M71.1055 53.2734C74.6085 53.2734 78.6503 54.4965 77.5051 57.4863C76.4273 60.544 72.7223 63.2619 71.1055 63.2619C69.4888 63.2619 65.7164 60.3401 64.7059 57.4863C63.5608 54.4965 67.6026 53.2734 71.1055 53.2734Z" fill="#282828"/>
<path d="M48.5394 52.6604C49.7671 52.6604 50.7624 51.6565 50.7624 50.4181C50.7624 49.1797 49.7671 48.1758 48.5394 48.1758C47.3116 48.1758 46.3164 49.1797 46.3164 50.4181C46.3164 51.6565 47.3116 52.6604 48.5394 52.6604Z" fill="white"/>
<path d="M51.8394 55.3778C52.7323 55.3778 53.4562 54.6476 53.4562 53.747C53.4562 52.8463 52.7323 52.1162 51.8394 52.1162C50.9465 52.1162 50.2227 52.8463 50.2227 53.747C50.2227 54.6476 50.9465 55.3778 51.8394 55.3778Z" fill="white"/>
<path d="M47.6608 58.2323C50.2651 58.2323 52.3763 57.6847 52.3763 57.0092C52.3763 56.3337 50.2651 55.7861 47.6608 55.7861C45.0565 55.7861 42.9453 56.3337 42.9453 57.0092C42.9453 57.6847 45.0565 58.2323 47.6608 58.2323Z" fill="#D3ECF4"/>
<path d="M90.6409 52.6604C91.8687 52.6604 92.864 51.6565 92.864 50.4181C92.864 49.1797 91.8687 48.1758 90.6409 48.1758C89.4132 48.1758 88.418 49.1797 88.418 50.4181C88.418 51.6565 89.4132 52.6604 90.6409 52.6604Z" fill="white"/>
<path d="M93.9449 55.3778C94.8378 55.3778 95.5616 54.6476 95.5616 53.747C95.5616 52.8463 94.8378 52.1162 93.9449 52.1162C93.052 52.1162 92.3281 52.8463 92.3281 53.747C92.3281 54.6476 93.052 55.3778 93.9449 55.3778Z" fill="white"/>
<path d="M94.1452 58.2323C96.7495 58.2323 98.8607 57.6847 98.8607 57.0092C98.8607 56.3337 96.7495 55.7861 94.1452 55.7861C91.5409 55.7861 89.4297 56.3337 89.4297 57.0092C89.4297 57.6847 91.5409 58.2323 94.1452 58.2323Z" fill="#D3ECF4"/>
</svg>
