<svg width="48" height="48" viewBox="0 0 48 48" fill="none" xmlns="http://www.w3.org/2000/svg">
<circle cx="24.0015" cy="23.9995" r="22.1538" fill="#EEEEEE"/>
<g clip-path="url(#clip0_2541_12960)">
<rect width="25.8462" height="25.8462" transform="translate(11.0781 11.0771)" fill="#EEEEEE"/>
<path d="M33.0363 30.8465C32.3235 32.4521 30.3546 36.9233 23.8889 36.9233C12.7101 36.9233 13.1392 23.9632 16.095 21.4607C16.2296 21.3467 16.434 21.4346 16.4556 21.613C16.8234 24.6335 18.0639 24.6979 19.1529 24.1379C19.796 23.8071 18.6986 19.3818 21.0257 16.3453C21.0882 16.2635 21.1976 16.2399 21.2913 16.2808C23.205 17.1307 23.5187 13.4983 23.4081 11.3191C23.3997 11.1506 23.5644 11.0304 23.7158 11.0948C24.9792 11.63 29.4796 13.8291 30.3426 18.3498C30.7465 20.4633 29.7668 22.899 31.1011 23.0514C31.5338 23.1009 31.9016 22.8668 32.0507 22.256C32.0988 22.0603 32.3524 22.0169 32.4546 22.1891C33.9102 24.6273 34.0557 28.5434 33.0339 30.8465H33.0363Z" fill="#FF7A52"/>
<path d="M29.2218 31.4523C29.3104 31.4472 29.3839 31.509 29.3852 31.5898C29.3941 32.8525 27.5686 37.4102 23.6035 36.8817C17.8496 36.1147 17.5304 31.3059 17.5392 30.129C17.5392 30.0205 17.6735 29.9562 17.7723 30.0167C18.2233 30.2892 19.271 30.8127 20.1438 30.4166C20.8038 30.1164 21.0508 29.2068 21.5234 26.0368C21.9414 23.2363 24.8107 21.3832 25.3149 19.8278C25.3681 19.6625 25.491 19.6474 25.5873 19.795C25.8609 20.21 26.2954 21.03 26.1459 21.8676C25.809 23.7686 24.7879 25.6886 25.9344 27.8243C26.3879 28.6707 27.8321 27.4383 28.3236 26.9803C28.4047 26.9059 28.544 26.9375 28.5757 27.0384C29.1762 28.8953 26.9035 31.5986 29.2192 31.4523H29.2218Z" fill="#FFB773"/>
</g>
<mask id="mask0_2541_12960" style="mask-type:alpha" maskUnits="userSpaceOnUse" x="0" y="0" width="48" height="48">
<circle cx="24" cy="24" r="24" fill="#EEEEEE"/>
</mask>
<g mask="url(#mask0_2541_12960)">
<rect x="-18.543" y="-6.35742" width="89.2185" height="89.2185" fill="#EEEEEE"/>
<path d="M33.692 50.3533C33.692 45.3994 29.2249 27.2693 23.7734 27.3381C18.3977 27.4069 14.1577 45.709 14.1956 50.5942C14.2713 60.3301 17.7163 58.9196 22.2591 59.0916C22.6756 59.126 23.0163 58.8164 23.0163 58.4379V55.8577C23.0163 54.7569 24.9091 54.7569 24.9091 55.8577C24.9091 56.2362 24.9091 56.649 24.9091 57.0274V58.4723C24.9091 58.8508 25.2499 59.126 25.6663 59.126C30.2091 58.9196 33.692 60.3645 33.692 50.3533Z" fill="#EEEEEE"/>
<path d="M39.1116 21.2218C39.4895 18.9851 39.0428 15.4064 38.6305 12.86C38.39 11.3459 36.7064 10.5545 35.4008 11.3115C34.1295 12.0341 32.6177 12.9632 31.2433 13.9267C29.0444 12.8944 26.6049 12.275 24.028 12.275C21.451 12.275 18.9772 12.8944 16.8126 13.9267C15.4726 12.9632 13.9608 12.0341 12.6551 11.3115C11.3495 10.5545 9.66589 11.3459 9.42538 12.86C8.97871 15.4064 8.53204 18.9851 8.94435 21.2218C7.60435 23.4929 6.88281 25.9704 6.88281 28.4136C6.88281 36.2936 17.6028 40.8358 23.9936 40.8358C30.3844 40.8358 41.1044 36.2592 41.1044 28.4136C41.1044 25.9704 40.3828 23.4929 39.1116 21.2218Z" fill="#EEEEEE"/>
<path d="M27.3954 30.0311C27.3954 32.9216 26.3646 34.8141 24.1313 34.8141C21.898 34.8141 20.8672 32.9216 20.8672 30.0311C22.3103 30.4784 24.1313 30.1687 24.1313 28.3105C24.1313 30.1687 25.9523 30.4784 27.3954 30.0311Z" fill="#EEEEEE"/>
<path d="M23.993 25.9004C24.955 25.9004 26.0545 26.2101 25.7453 27.0359C25.4361 27.8618 24.4396 28.6188 23.993 28.6188C23.5463 28.6188 22.5155 27.8274 22.2407 27.0359C21.9314 26.2101 23.0309 25.9004 23.993 25.9004Z" fill="#EEEEEE"/>
<path d="M18.2891 26.9686C19.1138 26.9686 19.8009 26.3148 19.8009 25.5234C19.8009 24.7319 19.1138 24.0781 18.2891 24.0781C17.4645 24.0781 16.7773 24.7319 16.7773 25.5234C16.8117 26.3492 17.4645 26.9686 18.2891 26.9686Z" fill="#EEEEEE"/>
<path d="M29.6993 26.9686C30.5239 26.9686 31.2111 26.3148 31.2111 25.5234C31.2111 24.7319 30.5239 24.0781 29.6993 24.0781C28.8747 24.0781 28.1875 24.7319 28.1875 25.5234C28.1875 26.3492 28.8747 26.9686 29.6993 26.9686Z" fill="#EEEEEE"/>
<path d="M21.8639 30.6849C20.5926 30.6849 19.2526 30.0311 18.7029 29.1365C18.5654 28.93 18.6341 28.6203 18.8747 28.4827C19.0808 28.345 19.39 28.4138 19.4931 28.6547C19.9398 29.4462 21.4516 29.9623 22.4823 29.687C23.1695 29.515 23.5131 29.0332 23.5131 28.3106C23.5131 28.0697 23.7193 27.8633 23.9598 27.8633C24.2003 27.8633 24.4065 28.0697 24.4065 28.345C24.4065 29.4806 23.7536 30.3408 22.6885 30.6161C22.4823 30.6505 22.1731 30.6849 21.8639 30.6849Z" fill="#EEEEEE"/>
<path d="M26.1238 30.6842C25.8146 30.6842 25.5397 30.6498 25.2648 30.581C24.1653 30.3057 23.5469 29.4798 23.5469 28.3099C23.5469 28.069 23.753 27.8625 23.9935 27.8281C24.2341 27.8281 24.4402 28.0346 24.4402 28.2755C24.4402 28.9981 24.7838 29.4798 25.471 29.6519C26.5017 29.9272 28.0135 29.411 28.4602 28.6196C28.5976 28.4131 28.8725 28.3099 29.0787 28.4475C29.2848 28.5852 29.3879 28.8604 29.2505 29.1013C28.7351 30.0304 27.3951 30.6842 26.1238 30.6842Z" fill="#EEEEEE"/>
<path d="M23.9912 35.2952C21.6205 35.2952 20.2461 33.3682 20.2461 30.0304C20.2461 29.8928 20.3148 29.7551 20.4522 29.6519C20.5897 29.5831 20.7271 29.5487 20.8646 29.5831C21.6892 29.8239 22.5481 29.7895 23.0292 29.411C23.3384 29.1701 23.5446 28.7916 23.5446 28.2755C23.5446 28.0346 23.7507 27.8281 23.9912 27.8281C24.2317 27.8281 24.4379 28.0346 24.4379 28.2755C24.4379 28.7916 24.6097 29.1701 24.9533 29.411C25.4343 29.7895 26.2933 29.8239 27.1179 29.5831C27.2553 29.5487 27.3928 29.5831 27.5302 29.6519C27.6676 29.7207 27.7364 29.8928 27.7364 30.0304C27.7364 33.3682 26.362 35.2952 23.9912 35.2952ZM21.2081 30.6154C21.3112 32.4391 21.8953 34.3661 24.0256 34.3661C26.1558 34.3661 26.7399 32.4391 26.843 30.6154C25.9497 30.753 25.0564 30.6154 24.4722 30.168C24.3348 30.0648 24.1974 29.9272 24.0599 29.7551C23.9225 29.9272 23.7851 30.0648 23.6476 30.168C22.9948 30.6154 22.1015 30.7874 21.2081 30.6154Z" fill="#EEEEEE"/>
<path d="M31.962 28.0348C31.7215 28.0348 31.5497 27.8628 31.4809 27.6563C31.4466 27.4154 31.6184 27.1401 31.8589 27.1057L35.0886 26.5552C35.3291 26.5208 35.604 26.6928 35.6384 26.9337C35.6727 27.1746 35.5009 27.4498 35.2604 27.4843L32.0307 28.0348C31.9963 28.0348 31.9963 28.0348 31.962 28.0348Z" fill="#EEEEEE"/>
<path d="M35.1976 30.7187C35.1633 30.7187 35.1289 30.7187 35.1289 30.7187L31.8992 30.1681C31.6586 30.1337 31.4525 29.8928 31.5212 29.6175C31.5556 29.3766 31.7961 29.1702 32.071 29.239L35.3007 29.7896C35.5412 29.824 35.7474 30.0649 35.6787 30.3401C35.6099 30.5466 35.4038 30.7187 35.1976 30.7187Z" fill="#EEEEEE"/>
<path d="M15.85 28.0351C15.8156 28.0351 15.7812 28.0351 15.7812 28.0351L12.5515 27.4845C12.311 27.4501 12.1048 27.2092 12.1736 26.9339C12.2079 26.6931 12.4484 26.4866 12.7233 26.5554L15.953 27.106C16.1936 27.1404 16.3997 27.3813 16.331 27.6565C16.2966 27.8974 16.0905 28.0351 15.85 28.0351Z" fill="#EEEEEE"/>
<path d="M12.6221 30.7194C12.3816 30.7194 12.2098 30.5473 12.1411 30.3409C12.1067 30.1 12.2785 29.8247 12.519 29.7903L15.7488 29.2397C16.0237 29.2053 16.2642 29.3774 16.2985 29.6183C16.3329 29.8591 16.1611 30.1344 15.9206 30.1688L12.7252 30.7194C12.6908 30.7194 12.6565 30.7194 12.6221 30.7194Z" fill="#EEEEEE"/>
<path d="M18.9795 38.9084C18.9451 38.874 18.9451 38.874 18.9108 38.8396C18.9108 38.8396 18.9108 38.8396 18.8764 38.8396C17.7426 37.9105 15.2 39.1493 13.001 41.386C10.2523 44.1732 9.66819 45.24 9.83999 45.8938C9.83999 45.9626 10.1836 46.4099 10.6646 46.9261C10.699 46.9605 10.7677 47.0293 10.8708 47.1325C11.3861 47.6143 11.8328 47.924 11.9015 47.9584C12.5543 48.1305 13.6538 47.5455 16.4026 44.7926C18.6702 42.5903 19.9072 40.044 18.9795 38.9084Z" fill="#EEEEEE"/>
<path d="M28.494 38.9084C28.5284 38.874 28.5284 38.874 28.5627 38.8396C28.5627 38.8396 28.5627 38.8396 28.5971 38.8396C29.7309 37.9105 32.2735 39.1493 34.4725 41.386C37.2212 44.1732 37.8053 45.24 37.6335 45.8938C37.6335 45.9626 37.2899 46.4099 36.8089 46.9261C36.7745 46.9605 36.7058 47.0293 36.6027 47.1325C36.0873 47.6143 35.6407 47.924 35.572 47.9584C34.9191 48.1305 33.8196 47.5455 31.0709 44.7926C28.8032 42.5903 27.5663 40.044 28.494 38.9084Z" fill="#EEEEEE"/>
<path d="M29.6971 47.4761C29.6971 50.573 27.1889 52.328 24.0966 52.328C21.0043 52.328 18.4961 50.573 18.4961 47.4761C18.4961 44.3791 21.0043 41.1445 24.0966 41.1445C27.1889 41.1445 29.6971 44.3791 29.6971 47.4761Z" fill="#EEEEEE"/>
</g>
<mask id="mask1_2541_12960" style="mask-type:alpha" maskUnits="userSpaceOnUse" x="0" y="0" width="48" height="48">
<circle cx="24" cy="24" r="24" fill="#EEEEEE"/>
</mask>
<g mask="url(#mask1_2541_12960)">
<rect x="-18.543" y="-6.35547" width="89.2185" height="89.2185" fill="#EEEEEE"/>
<path d="M33.8981 50.3524C33.8981 45.3984 29.4795 27.2683 24.0873 27.3371C18.77 27.4059 14.5761 45.708 14.6135 50.5932C14.6884 60.3291 18.096 58.9186 22.5895 59.0906C23.0014 59.125 23.3384 58.8154 23.3384 58.4369V55.8568C23.3384 54.7559 25.2107 54.7559 25.2107 55.8568C25.2107 56.2352 25.2107 56.648 25.2107 57.0264V58.4713C25.2107 58.8498 25.5477 59.125 25.9596 59.125C30.453 58.9186 33.8981 60.3635 33.8981 50.3524Z" fill="#EEEEEE"/>
<path d="M19.331 38.8918C19.2967 38.8574 19.2967 38.8574 19.2623 38.823C19.2623 38.823 19.2623 38.823 19.228 38.823C18.0941 37.8939 15.5516 39.1327 13.3526 41.3694C10.6039 44.1566 10.0198 45.2234 10.1916 45.8772C10.1916 45.946 10.5351 46.3933 11.0162 46.9095C11.0505 46.9439 11.1192 47.0127 11.2223 47.1159C11.7377 47.5977 12.1844 47.9074 12.2531 47.9418C12.9059 48.1138 14.0054 47.5289 16.7541 44.776C19.0218 42.5737 20.2587 40.0274 19.331 38.8918Z" fill="#EEEEEE"/>
<path d="M28.8119 38.8918C28.8463 38.8574 28.8463 38.8918 28.8119 38.8918C28.8463 38.8574 28.8463 38.8574 28.8807 38.823C28.8807 38.823 28.8807 38.823 28.915 38.823C30.0489 37.8939 32.5914 39.1327 34.7904 41.3694C37.5391 44.1566 38.1232 45.2234 37.9514 45.8772C37.9514 45.946 37.6078 46.3933 37.1268 46.9095C37.0925 46.9439 37.0237 47.0127 36.9207 47.1159C36.4053 47.5977 35.9586 47.9074 35.8899 47.9418C35.2371 48.1138 34.1376 47.5289 31.3889 44.776C29.1555 42.5737 27.9186 40.0274 28.8119 38.8918Z" fill="#EEEEEE"/>
<path d="M30.0526 47.4585C30.0526 50.5554 27.5444 52.3104 24.4521 52.3104C21.3598 52.3104 18.8516 50.5554 18.8516 47.4585C18.8516 44.3615 21.3598 41.127 24.4521 41.127C27.5444 41.127 30.0526 44.3615 30.0526 47.4585Z" fill="#EEEEEE"/>
<path d="M37.647 12.8089C35.1732 10.9163 32.9398 11.226 31.2563 12.8777C28.5419 11.3636 27.1332 11.0195 24.0065 11.0195C20.8798 11.0195 19.4711 11.3636 16.7568 12.9121C15.1075 11.2604 12.8398 10.9163 10.366 12.8433C5.00598 16.9726 3.28803 25.9193 5.76188 27.6398C6.86137 28.3969 7.78906 27.6742 8.37316 27.1237C8.51059 26.986 8.61367 26.8828 8.75111 26.7796C7.99521 36.2769 17.4439 39.7179 24.0065 39.7179C30.5691 39.7179 40.0178 36.2769 39.2619 26.7796C39.3993 26.9172 39.5024 27.0204 39.6398 27.1237C40.2239 27.6742 41.1516 28.3969 42.2511 27.6398C44.6906 25.8849 43.007 16.9726 37.647 12.8089Z" fill="#EEEEEE"/>
<path d="M27.3759 29.5682C27.3759 32.4587 26.3451 34.3513 24.1118 34.3513C21.8784 34.3513 20.8477 32.4587 20.8477 29.5682C22.2907 30.0155 24.1118 29.7058 24.1118 27.8477C24.1118 29.6714 25.9328 30.0155 27.3759 29.5682Z" fill="#EEEEEE"/>
<path d="M24.0086 25.4717C24.9706 25.4717 26.0701 25.7814 25.7609 26.6072C25.4517 27.4331 24.4553 28.1901 24.0086 28.1901C23.5619 28.1901 22.5312 27.3987 22.2563 26.6072C21.9471 25.8158 23.0465 25.4717 24.0086 25.4717Z" fill="#EEEEEE"/>
<path d="M18.3048 26.5731C19.1294 26.5731 19.8166 25.9193 19.8166 25.1279C19.8166 24.3364 19.1294 23.6826 18.3048 23.6826C17.4802 23.6826 16.793 24.3364 16.793 25.1279C16.793 25.9193 17.4802 26.5731 18.3048 26.5731Z" fill="#EEEEEE"/>
<path d="M29.6759 26.5741C30.5005 26.5741 31.1877 25.9203 31.1877 25.1288C31.1877 24.3374 30.5005 23.6836 29.6759 23.6836C28.8512 23.6836 28.1641 24.303 28.1641 25.1288C28.1641 25.9547 28.8512 26.5741 29.6759 26.5741Z" fill="#EEEEEE"/>
<path d="M21.8756 30.2553C20.6043 30.2553 19.2643 29.6015 18.7146 28.7068C18.5771 28.5003 18.6459 28.1906 18.8864 28.053C19.0925 27.9153 19.4018 27.9842 19.5048 28.225C19.9515 29.0165 21.4633 29.5326 22.4941 29.2574C23.1812 29.0853 23.5248 28.6036 23.5248 27.8809C23.5248 27.6401 23.731 27.4336 23.9715 27.4336C24.212 27.4336 24.4182 27.6401 24.4182 27.9153C24.4182 29.0509 23.7654 29.9112 22.7002 30.1864C22.4597 30.2208 22.1505 30.2553 21.8756 30.2553Z" fill="#EEEEEE"/>
<path d="M26.1004 30.2545C25.7911 30.2545 25.5163 30.2201 25.2414 30.1513C24.1419 29.876 23.5234 29.0501 23.5234 27.8802C23.5234 27.6393 23.7296 27.4328 23.9701 27.3984C24.2106 27.3984 24.4168 27.6049 24.4168 27.8458C24.4168 28.5684 24.7604 29.0501 25.4475 29.2222C26.4783 29.4975 27.9901 28.9813 28.4368 28.1899C28.5742 27.9834 28.8491 27.8802 29.0552 28.0178C29.2614 28.1555 29.3645 28.4308 29.227 28.6716C28.746 29.6351 27.3716 30.2545 26.1004 30.2545Z" fill="#EEEEEE"/>
<path d="M24.0068 34.8646C21.6361 34.8646 20.2617 32.972 20.2617 29.5997C20.2617 29.4621 20.3304 29.3245 20.4679 29.2212C20.6053 29.1524 20.7427 29.118 20.8802 29.1524C21.7048 29.3933 22.5638 29.3589 23.0448 28.9803C23.354 28.7395 23.5602 28.361 23.5602 27.8448C23.5602 27.6039 23.7663 27.3975 24.0068 27.3975C24.2474 27.3975 24.4535 27.6039 24.4535 27.8448C24.4535 28.361 24.6253 28.7395 24.9689 28.9803C25.4499 29.3589 26.3089 29.3933 27.1335 29.1524C27.271 29.118 27.4084 29.1524 27.5458 29.2212C27.6833 29.29 27.752 29.4621 27.752 29.5997C27.7176 32.972 26.3776 34.8646 24.0068 34.8646ZM21.1894 30.2191C21.2925 32.0429 21.8766 33.9699 24.0068 33.9699C26.1371 33.9699 26.7212 32.0429 26.8243 30.2191C25.931 30.3568 25.0376 30.2191 24.4535 29.7718C24.3161 29.6686 24.1786 29.5309 24.0412 29.3589C23.9038 29.5309 23.7663 29.6686 23.6289 29.7718C22.9761 30.2191 22.0827 30.3568 21.1894 30.2191Z" fill="#EEEEEE"/>
<path d="M14.4542 31.7011C15.9317 31.7011 17.0999 30.4967 17.0999 29.017C17.0999 27.5374 15.8973 26.333 14.4542 26.333C12.9768 26.333 11.8086 27.5374 11.8086 29.017C11.8086 30.4967 13.0112 31.7011 14.4542 31.7011Z" fill="#EEEEEE"/>
<path d="M33.5246 31.7011C35.002 31.7011 36.1702 30.4967 36.1702 29.017C36.1702 27.5374 34.9676 26.333 33.5246 26.333C32.0815 26.333 30.8789 27.5374 30.8789 29.017C30.8789 30.4967 32.0815 31.7011 33.5246 31.7011Z" fill="#EEEEEE"/>
</g>
<mask id="mask2_2541_12960" style="mask-type:alpha" maskUnits="userSpaceOnUse" x="0" y="0" width="48" height="48">
<circle cx="24" cy="24" r="24" fill="#EEEEEE"/>
</mask>
<g mask="url(#mask2_2541_12960)">
<rect x="-18.543" y="-6.35742" width="89.2185" height="89.2185" fill="#EEEEEE"/>
<path d="M33.692 50.3524C33.692 45.3984 29.2249 27.2683 23.7734 27.3371C18.3977 27.4059 14.1577 45.708 14.1956 50.5932C14.2713 60.3291 17.7163 58.9186 22.2591 59.0906C22.6756 59.125 23.0163 58.8154 23.0163 58.4369V55.8568C23.0163 54.7559 24.9091 54.7559 24.9091 55.8568C24.9091 56.2352 24.9091 56.648 24.9091 57.0264V58.4713C24.9091 58.8498 25.2499 59.125 25.6663 59.125C30.2091 58.9186 33.692 60.3635 33.692 50.3524Z" fill="#EEEEEE"/>
<path d="M39.1116 21.2208C39.4895 18.9841 39.0428 15.4054 38.6305 12.859C38.39 11.3449 36.7064 10.5535 35.4008 11.3105C34.1295 12.0332 32.6177 12.9622 31.2433 13.9257C29.0444 12.8934 26.6049 12.274 24.028 12.274C21.451 12.274 18.9772 12.8934 16.8126 13.9257C15.4726 12.9622 13.9608 12.0332 12.6551 11.3105C11.3495 10.5535 9.66589 11.3449 9.42538 12.859C8.97871 15.4054 8.53204 18.9841 8.94435 21.2208C7.60435 23.4919 6.88281 25.9694 6.88281 28.4126C6.88281 36.2926 17.6028 40.8348 23.9936 40.8348C30.3844 40.8348 41.1044 36.2582 41.1044 28.4126C41.1044 25.9694 40.3828 23.4919 39.1116 21.2208Z" fill="#EEEEEE"/>
<path d="M27.3954 30.0291C27.3954 32.9196 26.3646 34.8122 24.1313 34.8122C21.898 34.8122 20.8672 32.9196 20.8672 30.0291C22.3103 30.4765 24.1313 30.1668 24.1313 28.3086C24.1313 30.1668 25.9523 30.4765 27.3954 30.0291Z" fill="#EEEEEE"/>
<path d="M23.993 25.8994C24.955 25.8994 26.0545 26.2091 25.7453 27.035C25.4361 27.8608 24.4396 28.6178 23.993 28.6178C23.5463 28.6178 22.5155 27.8264 22.2407 27.035C21.9314 26.2091 23.0309 25.8994 23.993 25.8994Z" fill="#EEEEEE"/>
<path d="M18.2891 26.9676C19.1138 26.9676 19.8009 26.3138 19.8009 25.5224C19.8009 24.7309 19.1138 24.0771 18.2891 24.0771C17.4645 24.0771 16.7773 24.7309 16.7773 25.5224C16.8117 26.3482 17.4645 26.9676 18.2891 26.9676Z" fill="#EEEEEE"/>
<path d="M29.6993 26.9676C30.5239 26.9676 31.2111 26.3138 31.2111 25.5224C31.2111 24.7309 30.5239 24.0771 29.6993 24.0771C28.8747 24.0771 28.1875 24.7309 28.1875 25.5224C28.1875 26.3482 28.8747 26.9676 29.6993 26.9676Z" fill="#EEEEEE"/>
<path d="M21.8639 30.684C20.5926 30.684 19.2526 30.0302 18.7029 29.1355C18.5654 28.929 18.6341 28.6193 18.8747 28.4817C19.0808 28.3441 19.39 28.4129 19.4931 28.6537C19.9398 29.4452 21.4516 29.9613 22.4823 29.6861C23.1695 29.514 23.5131 29.0323 23.5131 28.3096C23.5131 28.0688 23.7193 27.8623 23.9598 27.8623C24.2003 27.8623 24.4065 28.0688 24.4065 28.3441C24.4065 29.4796 23.7536 30.3399 22.6885 30.6151C22.4823 30.6496 22.1731 30.684 21.8639 30.684Z" fill="#EEEEEE"/>
<path d="M26.1238 30.6832C25.8146 30.6832 25.5397 30.6488 25.2648 30.58C24.1653 30.3047 23.5469 29.4789 23.5469 28.3089C23.5469 28.068 23.753 27.8616 23.9935 27.8271C24.2341 27.8271 24.4402 28.0336 24.4402 28.2745C24.4402 28.9971 24.7838 29.4789 25.471 29.6509C26.5017 29.9262 28.0135 29.41 28.4602 28.6186C28.5976 28.4121 28.8725 28.3089 29.0787 28.4465C29.2848 28.5842 29.3879 28.8595 29.2505 29.1003C28.7351 30.0294 27.3951 30.6832 26.1238 30.6832Z" fill="#EEEEEE"/>
<path d="M23.9912 35.2942C21.6205 35.2942 20.2461 33.3672 20.2461 30.0294C20.2461 29.8918 20.3148 29.7541 20.4522 29.6509C20.5897 29.5821 20.7271 29.5477 20.8646 29.5821C21.6892 29.823 22.5481 29.7886 23.0292 29.41C23.3384 29.1692 23.5446 28.7906 23.5446 28.2745C23.5446 28.0336 23.7507 27.8271 23.9912 27.8271C24.2317 27.8271 24.4379 28.0336 24.4379 28.2745C24.4379 28.7906 24.6097 29.1692 24.9533 29.41C25.4343 29.7886 26.2933 29.823 27.1179 29.5821C27.2553 29.5477 27.3928 29.5821 27.5302 29.6509C27.6676 29.7197 27.7364 29.8918 27.7364 30.0294C27.7364 33.3672 26.362 35.2942 23.9912 35.2942ZM21.2081 30.6144C21.3112 32.4382 21.8953 34.3652 24.0256 34.3652C26.1558 34.3652 26.7399 32.4382 26.843 30.6144C25.9497 30.752 25.0564 30.6144 24.4722 30.1671C24.3348 30.0638 24.1974 29.9262 24.0599 29.7541C23.9225 29.9262 23.7851 30.0638 23.6476 30.1671C22.9948 30.6144 22.1015 30.7865 21.2081 30.6144Z" fill="#EEEEEE"/>
<path d="M31.962 28.0338C31.7215 28.0338 31.5497 27.8618 31.4809 27.6553C31.4466 27.4145 31.6184 27.1392 31.8589 27.1048L35.0886 26.5542C35.3291 26.5198 35.604 26.6918 35.6384 26.9327C35.6727 27.1736 35.5009 27.4489 35.2604 27.4833L32.0307 28.0338C31.9963 28.0338 31.9963 28.0338 31.962 28.0338Z" fill="#EEEEEE"/>
<path d="M35.1976 30.7177C35.1633 30.7177 35.1289 30.7177 35.1289 30.7177L31.8992 30.1671C31.6586 30.1327 31.4525 29.8918 31.5212 29.6165C31.5556 29.3757 31.7961 29.1692 32.071 29.238L35.3007 29.7886C35.5412 29.823 35.7474 30.0639 35.6787 30.3392C35.6099 30.5456 35.4038 30.7177 35.1976 30.7177Z" fill="#EEEEEE"/>
<path d="M15.85 28.0341C15.8156 28.0341 15.7812 28.0341 15.7812 28.0341L12.5515 27.4835C12.311 27.4491 12.1048 27.2082 12.1736 26.933C12.2079 26.6921 12.4484 26.4856 12.7233 26.5544L15.953 27.105C16.1936 27.1394 16.3997 27.3803 16.331 27.6556C16.2966 27.8964 16.0905 28.0341 15.85 28.0341Z" fill="#EEEEEE"/>
<path d="M12.6221 30.7184C12.3816 30.7184 12.2098 30.5464 12.1411 30.3399C12.1067 30.099 12.2785 29.8237 12.519 29.7893L15.7488 29.2388C16.0237 29.2043 16.2642 29.3764 16.2985 29.6173C16.3329 29.8581 16.1611 30.1334 15.9206 30.1678L12.7252 30.7184C12.6908 30.7184 12.6565 30.7184 12.6221 30.7184Z" fill="#EEEEEE"/>
<path d="M18.9795 38.9074C18.9451 38.873 18.9451 38.873 18.9108 38.8386C18.9108 38.8386 18.9108 38.8386 18.8764 38.8386C17.7426 37.9095 15.2 39.1483 13.001 41.385C10.2523 44.1723 9.66819 45.239 9.83999 45.8928C9.83999 45.9616 10.1836 46.4089 10.6646 46.9251C10.699 46.9595 10.7677 47.0283 10.8708 47.1316C11.3861 47.6133 11.8328 47.923 11.9015 47.9574C12.5543 48.1295 13.6538 47.5445 16.4026 44.7916C18.6702 42.5894 19.9072 40.043 18.9795 38.9074Z" fill="#EEEEEE"/>
<path d="M28.494 38.9074C28.5284 38.873 28.5284 38.873 28.5627 38.8386C28.5627 38.8386 28.5627 38.8386 28.5971 38.8386C29.7309 37.9095 32.2735 39.1483 34.4725 41.385C37.2212 44.1723 37.8053 45.239 37.6335 45.8928C37.6335 45.9616 37.2899 46.4089 36.8089 46.9251C36.7745 46.9595 36.7058 47.0283 36.6027 47.1316C36.0873 47.6133 35.6407 47.923 35.572 47.9574C34.9191 48.1295 33.8196 47.5445 31.0709 44.7916C28.8032 42.5894 27.5663 40.043 28.494 38.9074Z" fill="#EEEEEE"/>
<path d="M29.6971 47.4761C29.6971 50.573 27.1889 52.328 24.0966 52.328C21.0043 52.328 18.4961 50.573 18.4961 47.4761C18.4961 44.3791 21.0043 41.1445 24.0966 41.1445C27.1889 41.1445 29.6971 44.3791 29.6971 47.4761Z" fill="#EEEEEE"/>
</g>
<defs>
<clipPath id="clip0_2541_12960">
<rect width="25.8462" height="25.8462" fill="white" transform="translate(11.0781 11.0771)"/>
</clipPath>
</defs>
</svg>
