<svg width="166" height="123" viewBox="0 0 166 123" fill="none" xmlns="http://www.w3.org/2000/svg">
<g id="Group 445">
<path id="Vector" d="M42.8512 88.5919C49.1205 88.5919 54.1359 83.4193 54.1359 77.1495C54.1359 70.8013 49.0421 65.707 42.8512 65.707C36.5819 65.707 31.5664 70.8796 31.5664 77.1495C31.5664 83.4977 36.6602 88.5919 42.8512 88.5919Z" fill="white" fill-opacity="0.6"/>
<path id="Vector_2" d="M124.195 88.5919C130.464 88.5919 135.48 83.4193 135.48 77.1495C135.48 70.8013 130.386 65.707 124.195 65.707C117.926 65.707 112.91 70.8796 112.91 77.1495C112.91 83.4977 118.004 88.5919 124.195 88.5919Z" fill="white" fill-opacity="0.6"/>
<path id="Vector_3" d="M141.749 8.18052C131.248 0.108127 121.609 1.51884 114.478 8.49402C102.958 1.98908 96.8455 0.5 83.4448 0.5C70.0442 0.5 64.01 1.91071 52.4117 8.49402C45.2804 1.3621 35.6413 0.0297542 25.1402 8.18052C2.33556 25.8144 -5.03088 63.9035 5.54858 71.2706C10.2506 74.5622 14.1689 71.4273 16.6767 69.1545C17.2252 68.6059 17.6954 68.1357 18.244 67.6654C15.031 108.106 55.3113 122.761 83.3665 122.761C111.422 122.761 151.702 108.184 148.489 67.6654C149.038 68.214 149.508 68.6843 150.056 69.1545C152.564 71.4273 156.482 74.5622 161.184 71.2706C171.842 63.9035 164.554 25.8144 141.749 8.18052Z" fill="#FFE100"/>
<path id="Vector_4" d="M83.523 62.1016C87.598 62.1016 92.3 63.5123 90.9678 66.9607C89.7139 70.4874 85.4038 73.6223 83.523 73.6223C81.6422 73.6223 77.2536 70.2523 76.0781 66.9607C74.7459 63.5123 79.4479 62.1016 83.523 62.1016Z" fill="#282828"/>
<path id="Vector_5" d="M59.2309 66.7247C62.8358 66.7247 65.7354 63.9817 65.7354 60.5333C65.7354 57.0849 62.8358 54.3418 59.2309 54.3418C55.6261 54.3418 52.7266 57.0849 52.7266 60.5333C52.8049 63.9817 55.7044 66.7247 59.2309 66.7247Z" fill="#282828"/>
<path id="Vector_6" d="M107.817 66.7247C111.422 66.7247 114.321 63.9817 114.321 60.5333C114.321 57.0849 111.422 54.3418 107.817 54.3418C104.212 54.3418 101.312 57.0849 101.312 60.5333C101.312 63.9817 104.212 66.7247 107.817 66.7247Z" fill="#282828"/>
<g id="Group">
<g id="Group_2">
<path id="Vector_7" d="M74.2744 89.1405C78.7413 84.4382 88.302 84.4382 92.7688 89.1405C94.4929 90.9431 97.3141 88.2001 95.5117 86.3975C89.5558 80.206 77.4091 80.206 71.4532 86.3975C69.7292 88.2001 72.472 90.9431 74.2744 89.1405Z" fill="#282828"/>
</g>
</g>
<path id="Vector_8" d="M83.523 61.9453C87.598 61.9453 92.3 63.356 90.9678 66.8044C89.7139 70.3312 85.4038 73.4661 83.523 73.4661C81.6422 73.4661 77.2536 70.0961 76.0781 66.8044C74.7459 63.356 79.4479 61.9453 83.523 61.9453Z" fill="#282828"/>
<path id="Vector_9" d="M57.2696 61.239C58.6979 61.239 59.8558 60.0811 59.8558 58.6527C59.8558 57.2243 58.6979 56.0664 57.2696 56.0664C55.8414 56.0664 54.6836 57.2243 54.6836 58.6527C54.6836 60.0811 55.8414 61.239 57.2696 61.239Z" fill="white"/>
<path id="Vector_10" d="M61.1113 64.3732C62.15 64.3732 62.9921 63.5311 62.9921 62.4923C62.9921 61.4535 62.15 60.6113 61.1113 60.6113C60.0725 60.6113 59.2305 61.4535 59.2305 62.4923C59.2305 63.5311 60.0725 64.3732 61.1113 64.3732Z" fill="white"/>
<path id="Vector_11" d="M56.2513 67.6652C59.2809 67.6652 61.7369 67.0336 61.7369 66.2545C61.7369 65.4753 59.2809 64.8438 56.2513 64.8438C53.2216 64.8438 50.7656 65.4753 50.7656 66.2545C50.7656 67.0336 53.2216 67.6652 56.2513 67.6652Z" fill="#D3ECF4"/>
<path id="Vector_12" d="M106.25 61.239C107.678 61.239 108.836 60.0811 108.836 58.6527C108.836 57.2243 107.678 56.0664 106.25 56.0664C104.822 56.0664 103.664 57.2243 103.664 58.6527C103.664 60.0811 104.822 61.239 106.25 61.239Z" fill="white"/>
<path id="Vector_13" d="M110.092 64.3732C111.13 64.3732 111.973 63.5311 111.973 62.4923C111.973 61.4535 111.13 60.6113 110.092 60.6113C109.053 60.6113 108.211 61.4535 108.211 62.4923C108.211 63.5311 109.053 64.3732 110.092 64.3732Z" fill="white"/>
<path id="Vector_14" d="M110.325 67.6652C113.355 67.6652 115.811 67.0336 115.811 66.2545C115.811 65.4753 113.355 64.8438 110.325 64.8438C107.296 64.8438 104.84 65.4753 104.84 66.2545C104.84 67.0336 107.296 67.6652 110.325 67.6652Z" fill="#D3ECF4"/>
</g>
</svg>
