<svg width="48" height="48" viewBox="0 0 48 48" fill="none" xmlns="http://www.w3.org/2000/svg">
<rect width="48" height="48" rx="24" fill="#FAB8FF"/>
<path d="M23.9961 15.691C24.1987 15.691 24.3826 15.6922 24.5524 15.6957C25.2224 15.7062 25.6569 15.7378 25.9942 15.7683C26.2952 15.7952 26.5201 15.8221 26.7684 15.835C29.1178 13.455 30.9613 10.5424 33.5146 10.5424C36.2904 10.5424 36.9182 16.562 37.2754 20.0155C41.7249 34.0016 31.9334 38.305 23.9949 38.305C16.0564 38.305 6.26615 34.0004 10.7156 20.0143C11.074 16.5608 11.7006 10.5424 14.4764 10.5424C17.0297 10.5424 18.8732 13.455 21.2226 15.8362C21.4709 15.8233 21.6958 15.7964 21.9968 15.7694C22.3353 15.739 22.7698 15.7074 23.4386 15.6969C23.6072 15.6933 23.7923 15.6922 23.9949 15.6922L23.9961 15.691Z" fill="white"/>
</svg>
