<svg width="17" height="18" viewBox="0 0 17 18" fill="none" xmlns="http://www.w3.org/2000/svg">
<g filter="url(#filter0_d_713_5532)">
<path d="M16 8.5C16 12.6421 12.6421 16 8.5 16C4.35786 16 1 12.6421 1 8.5C1 4.35786 4.35786 1 8.5 1C12.6421 1 16 4.35786 16 8.5Z" fill="#FFD66B" stroke="#F8BD25" stroke-width="2"/>
<path d="M11.9379 7.27869C12.0346 6.69724 11.9194 5.77264 11.8135 5.11017C11.749 4.71936 11.3298 4.51442 11.0028 4.71459C10.685 4.90046 10.3027 5.14353 9.96643 5.39136C9.41829 5.1197 8.80567 4.96242 8.15621 4.96242C7.50674 4.96242 6.88952 5.1197 6.34599 5.39136C6.00514 5.14353 5.62743 4.90046 5.30961 4.71459C4.98257 4.51918 4.56341 4.71936 4.49893 5.11017C4.38838 5.77264 4.27783 6.69724 4.37456 7.27869C4.04753 7.8649 3.86328 8.51308 3.86328 9.14219C3.86328 11.182 6.55327 12.364 8.15621 12.364C9.75915 12.364 12.4491 11.182 12.4491 9.14219C12.4399 8.50831 12.2603 7.8649 11.9379 7.27869Z" fill="#F8BD25"/>
</g>
<defs>
<filter id="filter0_d_713_5532" x="0" y="0" width="17" height="18" filterUnits="userSpaceOnUse" color-interpolation-filters="sRGB">
<feFlood flood-opacity="0" result="BackgroundImageFix"/>
<feColorMatrix in="SourceAlpha" type="matrix" values="0 0 0 0 0 0 0 0 0 0 0 0 0 0 0 0 0 0 127 0" result="hardAlpha"/>
<feOffset dy="1"/>
<feComposite in2="hardAlpha" operator="out"/>
<feColorMatrix type="matrix" values="0 0 0 0 0.861667 0 0 0 0 0.659277 0 0 0 0 0.137867 0 0 0 1 0"/>
<feBlend mode="normal" in2="BackgroundImageFix" result="effect1_dropShadow_713_5532"/>
<feBlend mode="normal" in="SourceGraphic" in2="effect1_dropShadow_713_5532" result="shape"/>
</filter>
</defs>
</svg>
