<svg width="12" height="13" viewBox="0 0 12 13" fill="none" xmlns="http://www.w3.org/2000/svg">
<path d="M2.36412 3.44215C2.29328 3.42341 2.22744 3.38934 2.17123 3.34233C2.11503 3.29533 2.06984 3.23655 2.03886 3.17015C2.00789 3.10375 1.99189 3.03135 1.99199 2.95809C1.99209 2.88482 2.00829 2.81247 2.03945 2.74615L3.14612 0.389485C3.18642 0.303184 3.25055 0.230192 3.33093 0.179098C3.41132 0.128004 3.50463 0.100935 3.59988 0.101075C3.69513 0.101215 3.78835 0.128559 3.86859 0.179889C3.94883 0.231219 4.01273 0.304399 4.05278 0.390818L4.54078 1.43682C4.55821 1.42983 4.57602 1.42382 4.59412 1.41882C5.74546 1.11047 6.96624 1.18926 8.06839 1.64306C9.17053 2.09686 10.0929 2.90048 10.6933 3.93012C11.2937 4.95975 11.5389 6.15825 11.3911 7.34096C11.2433 8.52368 10.7107 9.62497 9.87535 10.4752C9.03999 11.3254 7.94824 11.8773 6.76831 12.0459C5.58838 12.2145 4.38575 11.9904 3.34571 11.4082C2.30567 10.826 1.48594 9.91793 1.01281 8.82394C0.539679 7.72995 0.43941 6.51074 0.727451 5.35415C0.743384 5.29042 0.771715 5.23044 0.810827 5.17766C0.849938 5.12487 0.899063 5.08031 0.955397 5.04651C1.01173 5.01271 1.07417 4.99033 1.13915 4.98066C1.20413 4.97099 1.27038 4.97422 1.33412 4.99015C1.39785 5.00609 1.45782 5.03442 1.51061 5.07353C1.5634 5.11264 1.60796 5.16176 1.64176 5.2181C1.67556 5.27443 1.69794 5.33687 1.70761 5.40185C1.71728 5.46684 1.71405 5.53308 1.69812 5.59682C1.46453 6.53557 1.5444 7.52497 1.92556 8.41409C2.30672 9.30322 2.96824 10.0433 3.80921 10.5214C4.65019 10.9995 5.62447 11.1894 6.58344 11.0621C7.54242 10.9349 8.43345 10.4974 9.12063 9.81656C9.80782 9.13568 10.2534 8.24871 10.3895 7.29095C10.5256 6.33319 10.3447 5.35721 9.87434 4.51186C9.40401 3.66651 8.67008 2.99821 7.78451 2.60888C6.89893 2.21954 5.91032 2.13056 4.96945 2.35549L5.46278 3.41082C5.50317 3.49701 5.51811 3.59294 5.50586 3.68733C5.49361 3.78172 5.45467 3.87065 5.39362 3.94367C5.33257 4.0167 5.25194 4.07078 5.16122 4.09956C5.07049 4.12834 4.97343 4.13063 4.88145 4.10615L2.36412 3.44215Z" fill="black"/>
</svg>
