<svg width="85" height="112" viewBox="0 0 85 112" fill="none" xmlns="http://www.w3.org/2000/svg">
<path d="M42.0262 119.871C42.6998 119.871 43.2025 119.806 43.9138 119.683C43.8044 133.999 48.3149 134.003 52.0115 133.999C55.927 133.996 58.0163 133.999 60.9367 126.918C62.9646 122 64.3051 116.965 64.818 110.879C64.8351 110.694 65.0779 110.639 65.16 110.803C65.967 112.406 67.9504 114.3 71.1443 113.486C75.2 112.454 76.8585 107.649 77.1321 102.468C77.6963 91.8661 71.7872 79.0362 65.5635 74.1763H18.4888C12.2651 79.0362 6.35599 91.8696 6.92022 102.468C7.1938 107.649 8.85574 112.454 12.908 113.486C16.1019 114.3 18.0853 112.406 18.8924 110.803C18.9744 110.639 19.2172 110.694 19.2343 110.879C19.7473 116.965 21.0843 121.996 23.1156 126.918C26.036 133.999 28.1254 133.996 32.0408 133.999C35.7375 133.999 40.2514 133.999 40.1385 119.683C40.8498 119.806 41.3491 119.871 42.0262 119.871Z" fill="#FAB8FF"/>
<path d="M42.0302 113.982C48.6139 113.982 53.951 107.65 53.951 99.8396C53.951 92.029 48.6139 85.6973 42.0302 85.6973C35.4465 85.6973 30.1094 92.029 30.1094 99.8396C30.1094 107.65 35.4465 113.982 42.0302 113.982Z" fill="#F9E0FF"/>
<path d="M18.8385 110.701C18.5718 110.701 18.3495 110.496 18.329 110.229C17.5185 99.8841 19.9533 92.7993 20.0593 92.5054C20.1516 92.2388 20.4457 92.0987 20.7124 92.191C20.9792 92.2832 21.1194 92.5772 21.0271 92.8437C21.0031 92.9155 18.5581 100.035 19.3514 110.151C19.372 110.434 19.1634 110.681 18.8795 110.701C18.8658 110.701 18.8522 110.701 18.8385 110.701Z" fill="#E59AE6"/>
<path d="M65.2326 110.701C65.2326 110.701 65.2052 110.701 65.1915 110.701C64.9077 110.681 64.6991 110.431 64.7196 110.151C65.5164 100.017 63.0714 92.9155 63.044 92.8437C62.9517 92.5772 63.0919 92.2832 63.3586 92.191C63.6253 92.0987 63.9194 92.2388 64.0118 92.5054C64.1144 92.8027 66.5526 99.8841 65.7421 110.229C65.7216 110.499 65.4959 110.701 65.2326 110.701Z" fill="#E59AE6"/>
<path d="M42.0279 15.987C42.6195 15.987 43.1564 15.9904 43.6522 16.0006C45.6083 16.0314 46.8769 16.1237 47.8618 16.2125C48.7406 16.2911 49.3972 16.3697 50.1222 16.4073C56.982 9.45922 62.3645 0.956055 69.8193 0.956055C77.9238 0.956055 79.7567 18.5297 80.7997 28.6118C93.7909 69.4427 65.2028 82.0061 42.0245 82.0061C18.8462 82.0061 -9.73847 69.4393 3.25271 28.6084C4.29912 18.5263 6.12862 0.956055 14.2331 0.956055C21.6879 0.956055 27.0704 9.45922 33.9302 16.4108C34.6552 16.3732 35.3118 16.2946 36.1906 16.216C37.1789 16.1271 38.4476 16.0348 40.4002 16.0041C40.8926 15.9938 41.4329 15.9904 42.0245 15.9904L42.0279 15.987Z" fill="#FAB8FF"/>
<path d="M14.5847 8.73152C11.8969 9.21 10.0913 19.692 10.1016 24.111C10.1016 24.4938 10.5188 24.7194 10.8334 24.5109C16.0654 21.0591 19.3551 19.962 24.9154 18.571C25.189 18.5026 25.3292 18.1882 25.1924 17.9353C23.1714 14.2681 17.6248 8.19153 14.5847 8.72811V8.73152Z" fill="#E59AE6"/>
<path d="M69.4498 8.73152C72.1376 9.21 73.9432 19.692 73.933 24.111C73.933 24.4938 73.5158 24.7194 73.2012 24.5109C67.9691 21.0591 64.6794 19.962 59.1191 18.571C58.8455 18.5026 58.7053 18.1882 58.8421 17.9353C60.8631 14.2681 66.4098 8.19153 69.4498 8.72811V8.73152Z" fill="#E59AE6"/>
<path d="M27.9002 53.8615C30.4547 53.8615 32.5817 51.7323 32.5817 49.1588C32.5817 46.5853 30.4547 44.4561 27.9002 44.4561C25.3458 44.4561 23.2188 46.5853 23.2188 49.1588C23.2188 51.7323 25.3458 53.8615 27.9002 53.8615Z" fill="#282828"/>
<path d="M56.1268 53.8615C53.5723 53.8615 51.4453 51.7323 51.4453 49.1588C51.4453 46.5853 53.5723 44.4561 56.1268 44.4561C58.6813 44.4561 60.8083 46.5853 60.8083 49.1588C60.8083 51.7323 58.6813 53.8615 56.1268 53.8615Z" fill="#282828"/>
<path d="M42.0296 50.8096C40.5762 50.8096 38.5484 51.353 39.0784 53.0755C39.5811 54.7194 41.4551 55.4405 42.0296 55.4405C42.6041 55.4405 44.478 54.7194 44.9807 53.0755C45.5108 51.3496 43.4829 50.8096 42.0296 50.8096Z" fill="#282828"/>
<path d="M38.5362 60.9564C36.946 60.9564 35.5884 60.1224 34.9285 58.6699C34.7335 58.2393 34.9216 57.7335 35.3525 57.5387C35.7834 57.3439 36.2895 57.5319 36.4844 57.9625C37.1786 59.4833 38.7413 59.2749 39.2064 59.1723C40.3246 58.9297 41.1693 58.1607 41.1693 57.3849V54.08C41.1693 53.6084 41.5523 53.2256 42.0242 53.2256C42.4961 53.2256 42.8791 53.6084 42.8791 54.08V57.3849C42.8791 58.998 41.5181 60.4198 39.5689 60.8436C39.2167 60.9188 38.8713 60.9564 38.5362 60.9564Z" fill="#282828"/>
<path d="M45.507 60.9564C45.1719 60.9564 44.8265 60.9188 44.4743 60.8436C42.5251 60.4198 41.1641 58.998 41.1641 57.3849V54.08C41.1641 53.6084 41.5471 53.2256 42.019 53.2256C42.4909 53.2256 42.8739 53.6084 42.8739 54.08V57.3849C42.8739 58.1607 43.7185 58.9297 44.8367 59.1723C45.2984 59.2714 46.8646 59.4833 47.5588 57.9625C47.7537 57.5319 48.2632 57.3439 48.6907 57.5387C49.1215 57.7335 49.3096 58.2427 49.1147 58.6699C48.4547 60.1224 47.0971 60.9564 45.507 60.9564Z" fill="#282828"/>
<path d="M10.958 58.2637C10.5442 58.2637 10.1544 58.0108 9.99706 57.6007C9.7953 57.0709 10.062 56.4797 10.5921 56.278C12.8422 55.4236 15.5916 54.8221 18.3341 54.5794C18.8984 54.5316 19.3976 54.9451 19.4455 55.5091C19.4968 56.073 19.0796 56.572 18.5154 56.6198C15.9541 56.8454 13.3996 57.4059 11.3205 58.1953C11.2008 58.2398 11.0777 58.2637 10.958 58.2637Z" fill="#D08CD1"/>
<path d="M18.4225 52.0845C18.3268 52.0845 18.2276 52.0708 18.1319 52.0435C15.8954 51.3805 13.6145 51.0421 11.7064 51.0866C11.1353 51.1105 10.6702 50.6525 10.6566 50.0852C10.6429 49.5178 11.0908 49.0496 11.6585 49.036C13.7753 48.9847 16.2784 49.3538 18.7132 50.0749C19.2569 50.2356 19.5681 50.8063 19.4074 51.3497C19.274 51.794 18.8671 52.0845 18.4225 52.0845Z" fill="#D08CD1"/>
<path d="M73.0855 58.2637C72.9659 58.2637 72.8427 58.2432 72.7231 58.1953C70.6439 57.4059 68.0895 56.8488 65.5282 56.6198C64.9639 56.5685 64.5467 56.073 64.598 55.5091C64.6493 54.9451 65.1452 54.5316 65.7094 54.5794C68.4519 54.8221 71.2013 55.427 73.4514 56.278C73.9815 56.4797 74.2482 57.0709 74.0465 57.6007C73.8926 58.0108 73.4993 58.2637 73.0855 58.2637Z" fill="#D08CD1"/>
<path d="M65.6209 52.0845C65.1798 52.0845 64.7694 51.7974 64.6361 51.3497C64.4753 50.8063 64.7865 50.2356 65.3303 50.0749C67.765 49.3538 70.2716 48.9847 72.385 49.036C72.9526 49.0496 73.4006 49.5178 73.3869 50.0852C73.3732 50.6525 72.9047 51.1036 72.3371 51.0866C70.4289 51.0387 68.148 51.3805 65.9116 52.0435C65.8158 52.0708 65.7167 52.0845 65.6209 52.0845Z" fill="#D08CD1"/>
</svg>
