<svg width="18" height="18" viewBox="0 0 18 18" fill="none" xmlns="http://www.w3.org/2000/svg">
<g clip-path="url(#clip0_772_7014)">
<path fill-rule="evenodd" clip-rule="evenodd" d="M11.7783 8.46989C11.9189 8.61053 11.9979 8.80126 11.9979 9.00014C11.9979 9.19901 11.9189 9.38974 11.7783 9.53039L7.53556 13.7731C7.46637 13.8448 7.38362 13.9019 7.29211 13.9412C7.20061 13.9805 7.1022 14.0012 7.00261 14.0021C6.90303 14.0029 6.80427 13.984 6.71209 13.9463C6.61992 13.9085 6.53618 13.8528 6.46576 13.7824C6.39534 13.712 6.33965 13.6283 6.30194 13.5361C6.26423 13.4439 6.24526 13.3452 6.24612 13.2456C6.24699 13.146 6.26768 13.0476 6.30698 12.9561C6.34629 12.8646 6.40343 12.7818 6.47506 12.7126L10.1876 9.00014L6.47506 5.28764C6.33844 5.14618 6.26285 4.95673 6.26455 4.76008C6.26626 4.56344 6.34514 4.37533 6.4842 4.23627C6.62325 4.09722 6.81136 4.01834 7.00801 4.01663C7.20466 4.01492 7.39411 4.09052 7.53556 4.22714L11.7783 8.46989Z" fill="#6B6B6B"/>
</g>
<defs>
<clipPath id="clip0_772_7014">
<rect width="18" height="18" fill="white"/>
</clipPath>
</defs>
</svg>
