<svg width="24" height="24" viewBox="0 0 24 24" fill="none" xmlns="http://www.w3.org/2000/svg">
<path fill-rule="evenodd" clip-rule="evenodd" d="M8.29168 12.7068C8.10421 12.5193 7.99889 12.265 7.99889 11.9998C7.99889 11.7347 8.10421 11.4803 8.29168 11.2928L13.9487 5.63582C14.0409 5.54031 14.1513 5.46413 14.2733 5.41172C14.3953 5.35931 14.5265 5.33172 14.6593 5.33057C14.7921 5.32942 14.9237 5.35472 15.0466 5.405C15.1695 5.45528 15.2812 5.52953 15.3751 5.62343C15.469 5.71732 15.5432 5.82897 15.5935 5.95187C15.6438 6.07476 15.6691 6.20644 15.6679 6.33922C15.6668 6.472 15.6392 6.60322 15.5868 6.72522C15.5344 6.84723 15.4582 6.95757 15.3627 7.04982L10.4127 11.9998L15.3627 16.9498C15.5448 17.1384 15.6456 17.391 15.6434 17.6532C15.6411 17.9154 15.5359 18.1662 15.3505 18.3516C15.1651 18.537 14.9143 18.6422 14.6521 18.6445C14.3899 18.6468 14.1373 18.546 13.9487 18.3638L8.29168 12.7068Z" fill="#6B6B6B"/>
</svg>
