<svg width="21" height="21" viewBox="0 0 21 21" fill="none" xmlns="http://www.w3.org/2000/svg">
<path d="M19.8958 9.78959L19.8959 9.53959L19.6459 9.53962L8.03128 9.54102L7.78128 9.54105L7.78125 9.79105L7.78116 10.5374L7.78113 10.7874L8.03113 10.7874L19.6457 10.786L19.8957 10.786L19.8957 10.536L19.8958 9.78959Z" fill="white" stroke="white" stroke-width="0.5"/>
<path d="M6.55369 17.0727L6.48046 16.9995C6.24224 16.7612 6.14022 16.4223 6.2061 16.0888L6.20621 16.0882L7.39107 10.1642L6.20765 4.24363L6.20744 4.24258C6.13305 3.86189 6.27813 3.47642 6.58593 3.24128L6.58725 3.24027L6.58725 3.24027C6.89799 3.00614 7.30742 2.96921 7.65353 3.14437L7.65375 3.14448L19.7131 9.26237L19.7134 9.26255C20.0523 9.43516 20.2667 9.78145 20.2666 10.1627C20.2666 10.5421 20.0554 10.8914 19.7125 11.0633C19.7122 11.0635 19.7119 11.0636 19.7116 11.0638L7.65568 17.1869C7.65566 17.187 7.65564 17.187 7.65562 17.187L7.65543 17.1871L7.54222 16.9642C7.27992 17.0978 6.97259 17.0704 6.7393 16.8919L6.55369 17.0727ZM6.55369 17.0727H6.56504H6.55369ZM7.52757 4.47731L18.7303 10.1644L7.52604 15.852L8.65387 10.2131L8.66367 10.1641L8.65388 10.1151L7.52757 4.47731Z" fill="white" stroke="white" stroke-width="0.5"/>
</svg>
