<svg width="100" height="113" viewBox="0 0 100 113" fill="none" xmlns="http://www.w3.org/2000/svg">
<path d="M49.9745 0C71.0395 0 84.7282 15.9742 86.1987 39.2827C87.5631 60.9234 74.5788 76.0978 49.9745 76.0978C25.3703 76.0978 12.3825 60.9234 13.7504 39.2827C15.2208 15.9742 28.913 0 49.9745 0Z" fill="#FFD859"/>
<path d="M29.6735 8.24707C6.83725 10.6429 -8.34591 40.6329 5.6096 54.2284C10.2398 58.7397 19.6985 63.5655 31.8553 46.9283L29.6735 8.24707Z" fill="#FFD859"/>
<path d="M70.3028 8.24707C93.1391 10.6429 108.322 40.6329 94.3668 54.2284C89.7366 58.7397 80.2779 63.5655 68.1211 46.9283L70.3028 8.24707Z" fill="#FFD859"/>
<path d="M71.8651 52.2221C75.5573 52.2221 78.5504 49.653 78.5504 46.4839C78.5504 43.3147 75.5573 40.7456 71.8651 40.7456C68.1728 40.7456 65.1797 43.3147 65.1797 46.4839C65.1797 49.653 68.1728 52.2221 71.8651 52.2221Z" fill="#F7C44A"/>
<path d="M28.0877 52.2221C31.78 52.2221 34.7731 49.653 34.7731 46.4839C34.7731 43.3147 31.78 40.7456 28.0877 40.7456C24.3955 40.7456 21.4023 43.3147 21.4023 46.4839C21.4023 49.653 24.3955 52.2221 28.0877 52.2221Z" fill="#F7C44A"/>
<path d="M55.1525 52.3996C55.1525 56.3504 53.3298 58.3292 49.9649 58.3292C46.6 58.3292 44.7773 56.3504 44.7773 52.3996C44.7773 51.9177 44.8115 51.446 44.8799 50.9915C46.8702 52.1227 49.9649 50.7181 49.9649 48.6777C49.9649 50.7181 53.0597 52.1227 55.0499 50.9915C55.1183 51.446 55.1525 51.9177 55.1525 52.3996Z" fill="#B3663C"/>
<path d="M73.9374 69.2251H25.9873C19.6473 74.1055 13.1226 86.9901 13.6732 97.6362C13.9433 102.841 14.8803 107.694 19.9927 108.703C24.0176 109.496 26.213 107.619 26.9995 106.009C27.0816 105.842 27.3175 105.9 27.3346 106.085C27.8339 112.195 29.1436 117.25 31.127 122.189C33.9824 129.301 36.3727 129.297 40.2027 129.301C43.8172 129.301 48.2286 129.301 48.1192 114.926C48.8133 115.049 49.3023 115.114 49.9623 115.114C50.6223 115.114 51.1113 115.049 51.8055 114.926C51.6961 129.301 56.1074 129.304 59.722 129.301C63.5485 129.297 65.9388 129.301 68.7976 122.189C70.781 117.25 72.0908 112.195 72.59 106.085C72.6037 105.9 72.8431 105.842 72.9251 106.009C73.7117 107.619 75.9071 109.496 79.932 108.703C85.0443 107.694 85.9813 102.841 86.2514 97.6362C86.802 86.9901 80.2774 74.1055 73.9374 69.2251Z" fill="#FFD859"/>
<path d="M49.9685 109.201C56.3369 109.201 61.4995 103.523 61.4995 96.5184C61.4995 89.5138 56.3369 83.8354 49.9685 83.8354C43.6001 83.8354 38.4375 89.5138 38.4375 96.5184C38.4375 103.523 43.6001 109.201 49.9685 109.201Z" fill="#FFF5E6"/>
<path d="M27.1164 105.9C26.8497 105.9 26.6274 105.695 26.6069 105.425C25.8136 95.0385 28.1936 87.9298 28.2962 87.6325C28.3886 87.3659 28.6792 87.2223 28.946 87.3146C29.2127 87.4069 29.3563 87.6974 29.2674 87.964C29.2435 88.0357 26.8531 95.1855 27.6294 105.35C27.6499 105.633 27.4379 105.879 27.1575 105.9C27.1438 105.9 27.1301 105.9 27.1164 105.9Z" fill="#E6B545"/>
<path d="M72.8195 105.9C72.8195 105.9 72.7922 105.9 72.7785 105.9C72.4947 105.879 72.2861 105.633 72.3066 105.35C73.0829 95.1855 70.6925 88.0357 70.6686 87.964C70.5763 87.6974 70.7199 87.4035 70.99 87.3146C71.2568 87.2223 71.5509 87.3659 71.6398 87.6325C71.7424 87.9298 74.1224 95.0385 73.3291 105.425C73.3085 105.695 73.0829 105.9 72.8195 105.9Z" fill="#E6B545"/>
<path d="M35.8455 45.4518C38.4 45.4518 40.527 43.3226 40.527 40.7491C40.527 38.1756 38.4 36.0464 35.8455 36.0464C33.2911 36.0464 31.1641 38.1756 31.1641 40.7491C31.1641 43.3226 33.2911 45.4518 35.8455 45.4518Z" fill="#282828"/>
<path d="M64.0643 45.4518C61.5098 45.4518 59.3828 43.3226 59.3828 40.7491C59.3828 38.1756 61.5098 36.0464 64.0643 36.0464C66.6188 36.0464 68.7458 38.1756 68.7458 40.7491C68.7458 43.3226 66.6188 45.4518 64.0643 45.4518Z" fill="#282828"/>
<path d="M52.9026 44.6658C52.7214 45.2571 52.3623 45.7321 51.9485 46.0944C51.2167 46.7335 50.3173 47.0274 49.9514 47.0274C49.5855 47.0274 48.6862 46.7335 47.9544 46.0944C47.5406 45.7321 47.1815 45.2571 47.0003 44.6658C46.4703 42.9399 48.4981 42.3965 49.9514 42.3965C51.4048 42.3965 53.4326 42.9399 52.9026 44.6658Z" fill="#282828"/>
<path d="M46.4791 52.5438C45.7542 52.5438 45.0463 52.3729 44.441 52.0277C43.7537 51.6347 43.2065 51.0229 42.8543 50.2608C42.6594 49.8301 42.8475 49.3243 43.2749 49.1295C43.7024 48.9313 44.2119 49.1227 44.4068 49.5499C44.6086 49.9942 44.9061 50.3291 45.2857 50.5444C46.1713 51.0468 47.3238 50.8349 48.0727 50.3975C48.7087 50.0284 49.0917 49.4952 49.0917 48.9723V45.6674C49.0917 45.1958 49.4747 44.813 49.9466 44.813C50.4185 44.813 50.8015 45.1958 50.8015 45.6674V48.9723C50.8015 50.1104 50.1039 51.1938 48.9344 51.8739C48.1718 52.3182 47.3101 52.5438 46.4791 52.5438Z" fill="#282828"/>
<path d="M53.4162 52.5438C52.5818 52.5438 51.7235 52.3182 50.9609 51.8739C49.7914 51.1938 49.0938 50.107 49.0938 48.9723V45.6674C49.0938 45.1958 49.4767 44.813 49.9487 44.813C50.4206 44.813 50.8036 45.1958 50.8036 45.6674V48.9723C50.8036 49.4952 51.1831 50.0284 51.8226 50.3975C52.5715 50.8349 53.7239 51.0468 54.613 50.5444C54.9926 50.3291 55.2867 49.9942 55.4885 49.5499C55.6834 49.1193 56.1929 48.9313 56.6204 49.1295C57.0512 49.3243 57.2393 49.8335 57.041 50.2608C56.6922 51.0263 56.145 51.6347 55.4577 52.0277C54.8524 52.3729 54.1446 52.5438 53.4162 52.5438Z" fill="#282828"/>
<path d="M16.7771 58.5039C16.5822 58.5039 16.3941 58.3911 16.3086 58.2031C14.3184 53.7841 12.6633 48.5858 13.9969 40.5543C14.0448 40.274 14.3081 40.0861 14.5886 40.1339C14.869 40.1818 15.057 40.4449 15.0092 40.7252C13.72 48.4867 15.3203 53.5141 17.2422 57.7862C17.3584 58.0459 17.2422 58.3467 16.9857 58.4629C16.9173 58.4936 16.8455 58.5073 16.7771 58.5073V58.5039Z" fill="#E6B545"/>
<path d="M83.1553 58.5038C83.0835 58.5038 83.0151 58.4901 82.9467 58.4594C82.6868 58.3432 82.574 58.039 82.6902 57.7827C84.6121 53.5106 86.2159 48.4832 84.9233 40.7216C84.8754 40.4414 85.0669 40.1782 85.3439 40.1304C85.6243 40.0825 85.8876 40.2739 85.9354 40.5508C87.2691 48.5823 85.614 53.7806 83.6238 58.1996C83.5383 58.391 83.3502 58.5004 83.1553 58.5004V58.5038Z" fill="#E6B545"/>
</svg>
