<svg width="39" height="50" viewBox="0 0 39 50" fill="none" xmlns="http://www.w3.org/2000/svg">
<path d="M19.3577 0.78833C27.3741 0.78833 32.5834 6.86806 33.143 15.7392C33.6622 23.9756 28.721 29.7509 19.3577 29.7509C9.99448 29.7509 5.05193 23.9756 5.57247 15.7392C6.13205 6.86806 11.3427 0.78833 19.3577 0.78833Z" fill="#FFD859"/>
<path d="M11.6333 3.927C2.94282 4.83883 -2.8352 16.253 2.47563 21.4274C4.23767 23.1444 7.83722 24.981 12.4635 18.6489L11.6333 3.927Z" fill="#FFD859"/>
<path d="M27.0959 3.927C35.7863 4.83883 41.5644 16.253 36.2535 21.4274C34.4915 23.1444 30.8919 24.981 26.2656 18.6489L27.0959 3.927Z" fill="#FFD859"/>
<path d="M27.6887 20.664C29.0938 20.664 30.2328 19.6862 30.2328 18.48C30.2328 17.2738 29.0938 16.296 27.6887 16.296C26.2836 16.296 25.1445 17.2738 25.1445 18.48C25.1445 19.6862 26.2836 20.664 27.6887 20.664Z" fill="#F7C44A"/>
<path d="M11.0285 20.664C12.4336 20.664 13.5727 19.6862 13.5727 18.48C13.5727 17.2738 12.4336 16.296 11.0285 16.296C9.62343 16.296 8.48438 17.2738 8.48438 18.48C8.48438 19.6862 9.62343 20.664 11.0285 20.664Z" fill="#F7C44A"/>
<path d="M21.3311 20.7315C21.3311 22.2351 20.6375 22.9883 19.357 22.9883C18.0764 22.9883 17.3828 22.2351 17.3828 20.7315C17.3828 20.5481 17.3958 20.3686 17.4219 20.1956C18.1792 20.6261 19.357 20.0915 19.357 19.3149C19.357 20.0915 20.5347 20.6261 21.2921 20.1956C21.3181 20.3686 21.3311 20.5481 21.3311 20.7315Z" fill="#B3663C"/>
<path d="M28.4775 27.1351H10.2298C7.81712 28.9926 5.33413 33.8965 5.54365 37.9483C5.64645 39.9294 6.00303 41.7764 7.94856 42.1602C9.48025 42.4619 10.3157 41.7478 10.615 41.1352C10.6463 41.0714 10.7361 41.0935 10.7426 41.1638C10.9326 43.4895 11.431 45.4133 12.1858 47.2929C13.2724 49.9998 14.1821 49.9985 15.6396 49.9998C17.0151 49.9998 18.6939 49.9998 18.6522 44.5288C18.9164 44.5757 19.1025 44.6004 19.3536 44.6004C19.6048 44.6004 19.7909 44.5757 20.0551 44.5288C20.0134 49.9998 21.6922 50.0011 23.0677 49.9998C24.5239 49.9985 25.4336 49.9998 26.5215 47.2929C27.2763 45.4133 27.7747 43.4895 27.9647 41.1638C27.9699 41.0935 28.061 41.0714 28.0922 41.1352C28.3916 41.7478 29.227 42.4619 30.7587 42.1602C32.7043 41.7764 33.0608 39.9294 33.1636 37.9483C33.3731 33.8965 30.8902 28.9926 28.4775 27.1351Z" fill="#FFD859"/>
<path d="M19.3569 42.35C21.7804 42.35 23.7451 40.1888 23.7451 37.5229C23.7451 34.857 21.7804 32.6958 19.3569 32.6958C16.9334 32.6958 14.9688 34.857 14.9688 37.5229C14.9688 40.1888 16.9334 42.35 19.3569 42.35Z" fill="#FFF5E6"/>
<path d="M10.6617 41.0936C10.5601 41.0936 10.4756 41.0155 10.4678 40.9128C10.1658 36.9598 11.0716 34.2542 11.1106 34.141C11.1458 34.0396 11.2564 33.9849 11.3579 34.0201C11.4594 34.0552 11.514 34.1657 11.4802 34.2672C11.4711 34.2945 10.5614 37.0157 10.8569 40.8841C10.8647 40.9921 10.784 41.0858 10.6773 41.0936C10.6721 41.0936 10.6669 41.0936 10.6617 41.0936Z" fill="#E6B545"/>
<path d="M28.0558 41.0936C28.0558 41.0936 28.0453 41.0936 28.0401 41.0936C27.9321 41.0858 27.8527 40.9921 27.8606 40.8841C28.156 37.0157 27.2463 34.2945 27.2372 34.2672C27.2021 34.1657 27.2567 34.0539 27.3595 34.0201C27.461 33.9849 27.573 34.0396 27.6068 34.141C27.6458 34.2542 28.5516 36.9598 28.2497 40.9128C28.2419 41.0155 28.156 41.0936 28.0558 41.0936Z" fill="#E6B545"/>
<path d="M13.9808 18.0871C14.9529 18.0871 15.7623 17.2768 15.7623 16.2973C15.7623 15.3178 14.9529 14.5074 13.9808 14.5074C13.0087 14.5074 12.1992 15.3178 12.1992 16.2973C12.1992 17.2768 13.0087 18.0871 13.9808 18.0871Z" fill="#282828"/>
<path d="M24.7191 18.0871C23.7469 18.0871 22.9375 17.2768 22.9375 16.2973C22.9375 15.3178 23.7469 14.5074 24.7191 14.5074C25.6912 14.5074 26.5006 15.3178 26.5006 16.2973C26.5006 17.2768 25.6912 18.0871 24.7191 18.0871Z" fill="#282828"/>
<path d="M20.4704 17.7879C20.4014 18.0129 20.2648 18.1937 20.1073 18.3316C19.8288 18.5749 19.4865 18.6867 19.3473 18.6867C19.2081 18.6867 18.8658 18.5749 18.5873 18.3316C18.4298 18.1937 18.2932 18.0129 18.2242 17.7879C18.0225 17.131 18.7942 16.9242 19.3473 16.9242C19.9004 16.9242 20.6721 17.131 20.4704 17.7879Z" fill="#282828"/>
<path d="M18.0259 20.7862C17.75 20.7862 17.4806 20.7211 17.2503 20.5898C16.9887 20.4402 16.7805 20.2073 16.6465 19.9173C16.5723 19.7534 16.6439 19.5609 16.8065 19.4867C16.9692 19.4113 17.1631 19.4841 17.2373 19.6467C17.3141 19.8158 17.4273 19.9433 17.5717 20.0252C17.9088 20.2164 18.3473 20.1358 18.6323 19.9693C18.8744 19.8288 19.0201 19.6259 19.0201 19.4269V18.1691C19.0201 17.9896 19.1659 17.8439 19.3455 17.8439C19.5251 17.8439 19.6708 17.9896 19.6708 18.1691V19.4269C19.6708 19.86 19.4054 20.2724 18.9603 20.5312C18.6701 20.7003 18.3421 20.7862 18.0259 20.7862Z" fill="#282828"/>
<path d="M20.6644 20.7862C20.3469 20.7862 20.0203 20.7003 19.7301 20.5312C19.285 20.2724 19.0195 19.8587 19.0195 19.4269V18.1691C19.0195 17.9896 19.1653 17.8439 19.3449 17.8439C19.5245 17.8439 19.6702 17.9896 19.6702 18.1691V19.4269C19.6702 19.6259 19.8147 19.8288 20.058 19.9693C20.343 20.1358 20.7816 20.2164 21.1199 20.0252C21.2644 19.9433 21.3763 19.8158 21.4531 19.6467C21.5272 19.4828 21.7211 19.4113 21.8838 19.4867C22.0478 19.5609 22.1194 19.7547 22.0439 19.9173C21.9111 20.2086 21.7029 20.4402 21.4414 20.5898C21.211 20.7211 20.9416 20.7862 20.6644 20.7862Z" fill="#282828"/>
<path d="M6.72555 23.0547C6.65137 23.0547 6.5798 23.0118 6.54726 22.9402C5.78987 21.2584 5.16001 19.2799 5.66754 16.2231C5.68576 16.1165 5.78597 16.0449 5.89268 16.0631C5.9994 16.0813 6.07097 16.1815 6.05275 16.2882C5.56214 19.2422 6.17117 21.1556 6.90253 22.7815C6.94678 22.8804 6.90253 22.9949 6.80493 23.0391C6.7789 23.0508 6.75157 23.056 6.72555 23.056V23.0547Z" fill="#E6B545"/>
<path d="M31.9834 23.0546C31.9561 23.0546 31.9301 23.0494 31.9041 23.0377C31.8051 22.9935 31.7622 22.8777 31.8065 22.7802C32.5378 21.1542 33.1482 19.2408 32.6562 16.2868C32.638 16.1801 32.7109 16.08 32.8163 16.0618C32.923 16.0435 33.0232 16.1164 33.0414 16.2217C33.549 19.2785 32.9191 21.257 32.1617 22.9388C32.1292 23.0117 32.0576 23.0533 31.9834 23.0533V23.0546Z" fill="#E6B545"/>
</svg>
