<svg width="146" height="146" viewBox="0 0 146 146" fill="none" xmlns="http://www.w3.org/2000/svg">
<mask id="mask0_2302_13023" style="mask-type:alpha" maskUnits="userSpaceOnUse" x="0" y="0" width="146" height="146">
<circle cx="73" cy="73" r="73" fill="#D9D9D9"/>
</mask>
<g mask="url(#mask0_2302_13023)">
<path d="M73.4647 153.488C74.1254 153.488 74.6183 153.423 75.3159 153.3C75.2086 167.6 79.632 167.604 83.2572 167.6C87.0971 167.597 89.1461 167.6 92.0101 160.527C93.9988 155.615 95.3134 150.586 95.8164 144.507C95.8332 144.322 96.0713 144.268 96.1518 144.431C96.9432 146.032 98.8883 147.924 102.021 147.111C105.998 146.08 107.624 141.281 107.893 136.105C108.446 125.516 102.651 112.701 96.5475 107.847H50.3819C44.2784 112.701 38.4833 125.52 39.0367 136.105C39.305 141.281 40.9348 146.08 44.9088 147.111C48.0411 147.924 49.9862 146.032 50.7776 144.431C50.8581 144.268 51.0962 144.322 51.113 144.507C51.616 150.586 52.9273 155.611 54.9193 160.527C57.7833 167.6 59.8323 167.597 63.6722 167.6C67.2974 167.6 71.7242 167.6 71.6135 153.3C72.3111 153.423 72.8007 153.488 73.4647 153.488Z" fill="#FAB8FF"/>
<path d="M72.8535 147.682C79.3116 147.682 84.5469 141.273 84.5469 133.366C84.5469 125.46 79.3116 119.051 72.8535 119.051C66.3955 119.051 61.1602 125.46 61.1602 133.366C61.1602 141.273 66.3955 147.682 72.8535 147.682Z" fill="#F9E0FF"/>
<path d="M50.2292 144.274C49.9655 144.274 49.7458 144.069 49.7255 143.802C48.9244 133.444 51.3311 126.351 51.4359 126.057C51.5272 125.79 51.8179 125.65 52.0816 125.742C52.3452 125.834 52.4838 126.129 52.3926 126.396C52.3689 126.467 49.952 133.595 50.7362 143.723C50.7565 144.007 50.5503 144.253 50.2697 144.274C50.2562 144.274 50.2427 144.274 50.2292 144.274Z" fill="#E59AE6"/>
<path d="M96.0899 144.274C96.0899 144.274 96.0628 144.274 96.0493 144.274C95.7688 144.253 95.5626 144.004 95.5828 143.723C96.3705 133.578 93.9535 126.467 93.9265 126.396C93.8352 126.129 93.9738 125.834 94.2375 125.742C94.5011 125.65 94.7919 125.79 94.8831 126.057C94.9845 126.355 97.3947 133.444 96.5936 143.802C96.5733 144.072 96.3502 144.274 96.0899 144.274Z" fill="#E59AE6"/>
</g>
</svg>
