<svg width="132" height="132" viewBox="0 0 132 132" fill="none" xmlns="http://www.w3.org/2000/svg">
<circle cx="66" cy="66" r="66" fill="white"/>
<path fill-rule="evenodd" clip-rule="evenodd" d="M87.6015 112.903C90.1107 114.387 92.8039 116.629 95.3328 119.382C96.6689 120.832 97.8202 122.125 98.8077 123.281C118.641 111.897 132 90.5086 132 66C132 29.5492 102.451 0 66 0C29.5492 0 0 29.5492 0 66C0 90.3022 13.1348 111.537 32.6926 122.991C33.6235 121.91 34.6936 120.712 35.9192 119.382C38.6497 116.41 41.5716 114.032 44.2468 112.564C30.9773 106.634 19 95.7975 19 80.9701C19 73.736 20.9963 66.4 24.7036 59.6753C23.5629 53.0526 24.7987 42.4561 26.0344 34.9164C26.6999 30.4333 31.3578 28.0898 34.9701 30.3314C38.5823 32.471 42.765 35.222 46.4723 38.0749C52.4611 35.0183 59.3054 33.1843 66.4349 33.1843C73.5644 33.1843 80.3136 35.0183 86.3975 38.0749C90.1999 35.222 94.3825 32.471 97.8997 30.3314C101.512 28.0898 106.17 30.4333 106.835 34.9164C107.976 42.4561 109.212 53.0526 108.166 59.6753C111.683 66.4 113.68 73.736 113.68 80.9701C113.68 96.0405 101.198 107.037 87.6015 112.903Z" fill="#FFCB8F"/>
</svg>
