<svg width="146" height="146" viewBox="0 0 146 146" fill="none" xmlns="http://www.w3.org/2000/svg">
<circle cx="73" cy="73" r="73" fill="#D9D9D9"/>
<circle cx="73" cy="73" r="73" fill="white"/>
<path fill-rule="evenodd" clip-rule="evenodd" d="M106.726 137.759C130.067 125.578 146 101.15 146 73C146 32.6832 113.317 0 73 0C32.6832 0 0 32.6832 0 73C0 100.666 15.3902 124.737 38.0762 137.12C38.0466 136.784 38.0231 136.445 38.0054 136.105C37.4781 126.018 42.7159 113.902 48.4919 108.584C34.8608 101.61 25.8658 87.043 34.2284 60.6087C35.2636 50.5437 37.0794 33 45.1267 33C45.23 33 45.333 33.0017 45.4356 33.0049C51.0584 33.1096 55.4994 38.1133 60.3255 43.551C61.7674 45.1756 63.2435 46.8388 64.7959 48.4218C65.2468 48.3952 65.6771 48.3532 66.1596 48.3061L66.1596 48.3061C66.3974 48.2828 66.6479 48.2584 66.9198 48.2339C67.9007 48.1452 69.1599 48.0531 71.0979 48.0224C71.5866 48.0121 72.1229 48.0087 72.7101 48.0087V48.0053C73.2972 48.0053 73.8301 48.0087 74.3222 48.019C74.5721 48.0229 74.8107 48.0279 75.0388 48.0337C76.6551 48.0721 77.7571 48.1543 78.633 48.2338C78.9043 48.2582 79.1542 48.2826 79.3916 48.3058L79.3931 48.3059C79.8724 48.3527 80.3 48.3945 80.7476 48.4211C82.3054 46.8346 83.7863 45.167 85.2326 43.5384C90.109 38.0474 94.5914 33 100.297 33C100.365 33 100.433 33.0013 100.5 33.0038C108.481 33.1111 110.292 50.578 111.324 60.612C119.777 87.3331 110.495 101.927 96.6166 108.81C102.296 114.24 107.381 126.155 106.861 136.105C106.833 136.662 106.788 137.215 106.726 137.759Z" fill="#FBEDFF"/>
</svg>
