<svg width="94" height="111" viewBox="0 0 94 111" fill="none" xmlns="http://www.w3.org/2000/svg">
<path d="M70.6717 76.4287H22.7217C16.3817 81.1041 9.85701 93.4521 10.4076 103.654C10.6777 108.64 11.6147 113.292 16.727 114.259C20.7519 115.018 22.9473 113.22 23.7339 111.679C23.8159 111.518 24.0519 111.573 24.069 111.75C24.5682 117.608 25.878 122.451 27.8613 127.185C30.7167 133.999 33.1071 133.996 36.9371 133.999C40.5516 133.999 44.9629 133.999 44.8535 120.223C45.5477 120.342 46.0367 120.404 46.6967 120.404C47.3567 120.404 47.8457 120.342 48.5399 120.223C48.4305 133.999 52.8417 134.003 56.4563 133.999C60.2829 133.999 62.6732 133.999 65.532 127.185C67.5154 122.451 68.8251 117.608 69.3244 111.75C69.338 111.573 69.5774 111.518 69.6595 111.679C70.446 113.22 72.6414 115.021 76.6663 114.259C81.7787 113.295 82.7157 108.64 82.9858 103.654C83.5364 93.4521 77.0117 81.1041 70.6717 76.4287Z" fill="#FF9F69"/>
<path d="M46.695 114.737C53.0634 114.737 58.226 109.296 58.226 102.584C58.226 95.8719 53.0634 90.4307 46.695 90.4307C40.3267 90.4307 35.1641 95.8719 35.1641 102.584C35.1641 109.296 40.3267 114.737 46.695 114.737Z" fill="#FFE8CC"/>
<path d="M23.835 111.597C23.5717 111.597 23.346 111.391 23.3255 111.125C22.5321 101.162 24.9156 94.3407 25.0182 94.0571C25.114 93.7905 25.408 93.6538 25.6748 93.746C25.9415 93.8417 26.0817 94.1357 25.986 94.4022C25.962 94.4706 23.5751 101.316 24.3514 111.046C24.3753 111.33 24.1633 111.576 23.8795 111.597C23.8658 111.597 23.8521 111.597 23.8384 111.597H23.835Z" fill="#E37D44"/>
<path d="M69.537 111.596C69.537 111.596 69.5097 111.596 69.496 111.596C69.2122 111.572 69.0036 111.326 69.0241 111.046C69.8004 101.316 67.4134 94.4705 67.3895 94.4021C67.2938 94.1355 67.434 93.8416 67.7007 93.7459C67.9674 93.6502 68.2615 93.7904 68.3573 94.0569C68.4599 94.3406 70.8433 101.162 70.05 111.125C70.0295 111.395 69.8038 111.596 69.5405 111.596H69.537Z" fill="#E37D44"/>
<path d="M78.5963 0.0813285C69.5275 -1.52156 52.3575 21.1 52.3575 21.1C52.3575 21.1 51.1983 20.7685 46.698 20.7685C42.1978 20.7685 41.0385 21.1 41.0385 21.1C41.0385 21.1 23.8686 -1.52156 14.7997 0.0813285C8.6136 1.17498 -2.70195 19.5723 0.587731 43.8959C2.00346 50.5672 4.2433 56.3191 7.04398 61.2371C14.5808 74.484 26.1495 80.0104 36.4699 82.8846C40.0127 83.8689 43.6683 84.3474 46.7015 84.3816C49.7381 84.3474 53.3902 83.8724 56.933 82.8846C67.2534 80.0138 78.8186 74.4874 86.3589 61.2371C89.1562 56.3191 91.3995 50.5672 92.8152 43.8959C96.1049 19.5723 84.7927 1.17498 78.6032 0.0813285H78.5963Z" fill="#FF9F69"/>
<path d="M46.6903 75.7826C55.6942 75.7826 61.7298 71.1585 62.9882 64.5658C64.2501 57.9731 59.2951 52.4092 46.6903 52.4092C34.0855 52.4092 29.1305 57.9731 30.3889 64.5658C31.6507 71.1585 37.683 75.7826 46.6903 75.7826Z" fill="#FFE8CC"/>
<path d="M32.031 52.8366C34.4897 52.8366 36.5346 50.8441 36.5346 48.4347C36.5346 46.0252 34.4863 44.0327 32.031 44.0327C29.5757 44.0327 27.5273 46.0252 27.5273 48.4347C27.5273 50.8441 29.5757 52.8366 32.031 52.8366Z" fill="#282828"/>
<path d="M61.3552 52.8366C58.8965 52.8366 56.8516 50.8441 56.8516 48.4347C56.8516 46.0252 58.8999 44.0327 61.3552 44.0327C63.8105 44.0327 65.8589 46.0252 65.8589 48.4347C65.8589 50.8441 63.8105 52.8366 61.3552 52.8366Z" fill="#282828"/>
<path d="M46.6916 49.2993C44.8894 49.2993 42.376 49.9521 43.0326 52.0335C43.6583 54.0157 45.6178 55.1777 46.6916 55.1777C47.7653 55.1777 49.7282 54.0123 50.3506 52.0335C51.0071 49.9521 48.4937 49.2993 46.6916 49.2993Z" fill="#282828"/>
<path d="M46.693 63.5781C44.2343 63.5781 41.9329 62.7818 40.3872 61.3976C40.035 61.0832 40.0042 60.5432 40.3188 60.1912C40.6334 59.8392 41.1737 59.8084 41.526 60.1263C42.7639 61.237 44.6481 61.8727 46.693 61.8727C48.738 61.8727 50.6187 61.237 51.8601 60.1263C52.2123 59.8118 52.7526 59.8426 53.0672 60.1912C53.3818 60.5432 53.351 61.0832 53.0022 61.3976C51.4531 62.7852 49.1551 63.5781 46.6964 63.5781H46.693Z" fill="#282828"/>
</svg>
