<svg width="36" height="51" viewBox="0 0 36 51" fill="none" xmlns="http://www.w3.org/2000/svg">
<path d="M27.036 29.0885H8.78843C6.37571 30.8679 3.89272 35.5676 4.10224 39.4503C4.20505 41.3481 4.56162 43.1184 6.50714 43.4866C8.03884 43.7753 8.87431 43.0911 9.17362 42.5045C9.20485 42.4434 9.29465 42.4642 9.30115 42.5318C9.49115 44.7613 9.98956 46.6045 10.7444 48.406C11.831 50.9997 12.7406 50.9984 14.1982 50.9997C15.5737 50.9997 17.2524 50.9997 17.2108 45.7564C17.475 45.8019 17.6611 45.8253 17.9122 45.8253C18.1634 45.8253 18.3495 45.8019 18.6137 45.7564C18.572 50.9997 20.2508 51.001 21.6263 50.9997C23.0825 50.9997 23.9922 50.9997 25.0801 48.406C25.8349 46.6045 26.3333 44.7613 26.5233 42.5318C26.5285 42.4642 26.6196 42.4434 26.6508 42.5045C26.9502 43.0911 27.7856 43.7766 29.3173 43.4866C31.2628 43.1197 31.6194 41.3481 31.7222 39.4503C31.9317 35.5676 29.4488 30.8679 27.036 29.0885Z" fill="#FF9F69"/>
<path d="M17.9116 43.6687C20.3351 43.6687 22.2998 41.5978 22.2998 39.0432C22.2998 36.4886 20.3351 34.4177 17.9116 34.4177C15.4881 34.4177 13.5234 36.4886 13.5234 39.0432C13.5234 41.5978 15.4881 43.6687 17.9116 43.6687Z" fill="#FFE8CC"/>
<path d="M9.21236 42.4732C9.11216 42.4732 9.02627 42.3952 9.01846 42.2937C8.71655 38.502 9.6236 35.9057 9.66264 35.7978C9.69908 35.6963 9.81099 35.6443 9.91249 35.6794C10.014 35.7158 10.0674 35.8277 10.0309 35.9291C10.0218 35.9552 9.11346 38.5606 9.40887 42.2638C9.41798 42.3718 9.33729 42.4654 9.22928 42.4732C9.22407 42.4732 9.21887 42.4732 9.21366 42.4732H9.21236Z" fill="#E37D44"/>
<path d="M26.6061 42.4733C26.6061 42.4733 26.5957 42.4733 26.5904 42.4733C26.4824 42.4642 26.4031 42.3705 26.4109 42.2639C26.7063 38.5606 25.7979 35.9552 25.7888 35.9292C25.7524 35.8277 25.8057 35.7158 25.9072 35.6794C26.0087 35.643 26.1207 35.6963 26.1571 35.7978C26.1961 35.9058 27.1032 38.5021 26.8013 42.2938C26.7935 42.3965 26.7076 42.4733 26.6074 42.4733H26.6061Z" fill="#E37D44"/>
<path d="M30.0508 0.0309534C26.5996 -0.579101 20.0655 8.0306 20.0655 8.0306C20.0655 8.0306 19.6244 7.90442 17.9118 7.90442C16.1992 7.90442 15.758 8.0306 15.758 8.0306C15.758 8.0306 9.22392 -0.579101 5.77273 0.0309534C3.41857 0.447195 -0.887616 7.44916 0.364289 16.7066C0.90305 19.2457 1.75543 21.4349 2.82124 23.3067C5.68943 28.3484 10.0919 30.4517 14.0194 31.5456C15.3676 31.9203 16.7588 32.1024 17.9131 32.1154C19.0687 32.1024 20.4585 31.9216 21.8067 31.5456C25.7342 30.453 30.1354 28.3497 33.0049 23.3067C34.0694 21.4349 34.9231 19.2457 35.4619 16.7066C36.7138 7.44916 32.4089 0.447195 30.0534 0.0309534H30.0508Z" fill="#FF9F69"/>
<path d="M17.9086 28.8426C21.335 28.8426 23.6319 27.0827 24.1108 24.5736C24.591 22.0644 22.7054 19.9468 17.9086 19.9468C13.1118 19.9468 11.2261 22.0644 11.705 24.5736C12.1852 27.0827 14.4808 28.8426 17.9086 28.8426Z" fill="#FFE8CC"/>
<path d="M12.3311 20.1094C13.2668 20.1094 14.045 19.3511 14.045 18.434C14.045 17.517 13.2655 16.7587 12.3311 16.7587C11.3967 16.7587 10.6172 17.517 10.6172 18.434C10.6172 19.3511 11.3967 20.1094 12.3311 20.1094Z" fill="#282828"/>
<path d="M23.4912 20.1094C22.5556 20.1094 21.7773 19.3511 21.7773 18.434C21.7773 17.517 22.5569 16.7587 23.4912 16.7587C24.4256 16.7587 25.2051 17.517 25.2051 18.434C25.2051 19.3511 24.4256 20.1094 23.4912 20.1094Z" fill="#282828"/>
<path d="M17.9097 18.7632C17.2238 18.7632 16.2673 19.0116 16.5172 19.8038C16.7553 20.5582 17.501 21.0005 17.9097 21.0005C18.3183 21.0005 19.0653 20.5569 19.3021 19.8038C19.552 19.0116 18.5955 18.7632 17.9097 18.7632Z" fill="#282828"/>
<path d="M17.9108 24.1977C16.9751 24.1977 16.0993 23.8946 15.511 23.3678C15.377 23.2481 15.3653 23.0426 15.485 22.9086C15.6047 22.7746 15.8104 22.7629 15.9444 22.8839C16.4155 23.3067 17.1325 23.5486 17.9108 23.5486C18.689 23.5486 19.4047 23.3067 19.8771 22.8839C20.0111 22.7642 20.2168 22.7759 20.3365 22.9086C20.4562 23.0426 20.4445 23.2481 20.3117 23.3678C19.7222 23.8959 18.8477 24.1977 17.9121 24.1977H17.9108Z" fill="#282828"/>
</svg>
