<svg width="12" height="12" viewBox="0 0 12 12" fill="none" xmlns="http://www.w3.org/2000/svg">
<g clip-path="url(#clip0_1761_13055)">
<path d="M11.2941 6C11.2941 8.92386 8.92386 11.2941 6 11.2941C3.07614 11.2941 0.705882 8.92386 0.705882 6C0.705882 3.07614 3.07614 0.705882 6 0.705882C8.92386 0.705882 11.2941 3.07614 11.2941 6Z" fill="#B8E5FF" stroke="#72C3F2" stroke-width="1.41176"/>
<path d="M8.64105 4.87261C8.82707 4.67334 8.94236 4.40309 8.94236 4.10282C8.94236 3.49409 8.46812 3 7.88384 3C7.49083 3 7.1476 3.22384 6.96681 3.55414C6.66288 3.4586 6.33799 3.404 6 3.404C5.66201 3.404 5.33712 3.45587 5.03319 3.55414C4.84978 3.22384 4.50655 3 4.11616 3C3.53188 3 3.05764 3.49409 3.05764 4.10282C3.05764 4.40309 3.17293 4.67334 3.35895 4.87261C3.12838 5.26843 3 5.72157 3 6.202C3 7.74704 4.17118 9 6.00524 9C7.8393 9 9 7.74704 9 6.19927C9 5.71884 8.869 5.2657 8.64105 4.87261Z" fill="#45B4F5"/>
</g>
<defs>
<clipPath id="clip0_1761_13055">
<rect width="12" height="12" fill="white"/>
</clipPath>
</defs>
</svg>
