<svg width="12" height="12" viewBox="0 0 12 12" fill="none" xmlns="http://www.w3.org/2000/svg">
<g clip-path="url(#clip0_1751_12417)">
<path d="M11.2941 6C11.2941 8.92386 8.92386 11.2941 6 11.2941C3.07614 11.2941 0.705882 8.92386 0.705882 6C0.705882 3.07614 3.07614 0.705882 6 0.705882C8.92386 0.705882 11.2941 3.07614 11.2941 6Z" fill="#FEB8FF" stroke="#E59AE6" stroke-width="1.41176"/>
<path d="M6.0046 9.17643C7.31579 9.17643 9.35138 8.29717 9.16969 6.13362C9.14465 5.83511 9.09124 5.38658 8.76815 4.77075C8.79462 3.99676 8.66323 3.07301 8.28888 2.87417C7.83822 2.6349 7.09046 3.29142 6.62979 3.82589C6.51248 3.81877 6.13121 3.81902 6.0046 3.81902C5.87798 3.81902 5.49671 3.81902 5.3794 3.82589C4.91873 3.29142 4.17121 2.6349 3.72031 2.87417C3.34619 3.07275 3.21457 3.9965 3.24104 4.77075C2.91771 5.38658 2.86454 5.83511 2.8395 6.13362C2.65781 8.29717 4.6934 9.17643 6.0046 9.17643Z" fill="#DA7BDC"/>
</g>
<defs>
<clipPath id="clip0_1751_12417">
<rect width="12" height="12" fill="white"/>
</clipPath>
</defs>
</svg>
