<svg width="12" height="12" viewBox="0 0 12 12" fill="none" xmlns="http://www.w3.org/2000/svg">
<g clip-path="url(#clip0_1761_13068)">
<path d="M11.2941 6C11.2941 8.92386 8.92386 11.2941 6 11.2941C3.07614 11.2941 0.705882 8.92386 0.705882 6C0.705882 3.07614 3.07614 0.705882 6 0.705882C8.92386 0.705882 11.2941 3.07614 11.2941 6Z" fill="#FAD59B" stroke="#E0B063" stroke-width="1.41176"/>
</g>
<path d="M8.53928 3.89671C8.08107 3.56341 7.66063 3.62055 7.35096 3.911C6.84743 3.64198 6.58057 3.58008 5.99899 3.58008C5.41742 3.58008 5.15307 3.6396 4.64702 3.911C4.33736 3.61817 3.91691 3.56341 3.4587 3.89671C2.46424 4.62284 2.1445 6.19412 2.60522 6.49885C2.81167 6.63455 2.98035 6.50599 3.09113 6.41076C3.11379 6.38934 3.13644 6.37029 3.1591 6.34886C3.01812 8.01537 4.77542 8.62008 5.99899 8.62008C7.22256 8.62008 8.97987 8.01775 8.83888 6.34886C8.86154 6.37029 8.8842 6.38934 8.90686 6.41076C9.01763 6.50599 9.18632 6.63455 9.39276 6.49885C9.85097 6.19412 9.53375 4.62284 8.53928 3.89671Z" fill="#DBA140"/>
<defs>
<clipPath id="clip0_1761_13068">
<rect width="12" height="12" fill="white"/>
</clipPath>
</defs>
</svg>
