<svg width="12" height="12" viewBox="0 0 12 12" fill="none" xmlns="http://www.w3.org/2000/svg">
<g clip-path="url(#clip0_1762_13082)">
<path d="M11.2941 6C11.2941 8.92386 8.92386 11.2941 6 11.2941C3.07614 11.2941 0.705882 8.92386 0.705882 6C0.705882 3.07614 3.07614 0.705882 6 0.705882C8.92386 0.705882 11.2941 3.07614 11.2941 6Z" fill="#FFD2B8" stroke="#F2A172" stroke-width="1.41176"/>
</g>
<path d="M8.36568 3C6.88189 3.49147 6.40656 4.39249 6.40656 4.39249C6.40656 4.39249 6.27167 4.35836 5.99547 4.35836C5.71927 4.35836 5.58438 4.39249 5.58438 4.39249C5.58438 4.39249 5.11547 3.49147 3.63168 3C3.12424 3.64164 2.893 5.17065 3.04716 6.01707C3.45183 8.22184 5.22467 9 6.00189 9C6.77912 9 8.55195 8.22867 8.95662 6.01707C9.10436 5.17065 8.8667 3.64164 8.36568 3Z" fill="#FF9F69"/>
<defs>
<clipPath id="clip0_1762_13082">
<rect width="12" height="12" fill="white"/>
</clipPath>
</defs>
</svg>
